<svg width="55" height="55" viewBox="0 0 55 55" fill="none" xmlns="http://www.w3.org/2000/svg">
<g clip-path="url(#clip0)">
<path d="M24.6883 50.7221C25.1772 50.4777 24.6883 44.8555 24.6883 44.8555V40.4555C24.6883 40.4555 24.8106 38.011 24.8106 37.6444C24.8106 37.2777 24.9328 34.8333 24.9328 34.5888C24.9328 34.3444 25.055 31.0444 25.4217 31.0444C26.2772 30.9221 28.7217 39.111 28.9661 40.211C29.5772 42.5333 30.555 44.611 31.1661 46.9333C31.4106 47.911 31.5328 51.4555 32.755 51.6999C36.2995 52.4332 36.2995 51.0888 36.2995 51.0888C35.9328 45.8332 33.855 40.8221 33.3661 35.5666C33.3661 35.1999 32.755 28.4777 32.2661 26.5221C32.2661 26.5221 29.0883 27.2555 25.6661 26.6444C23.0995 26.2777 21.5106 25.911 20.0439 24.0777C20.1661 24.1999 19.555 25.5444 19.4328 25.7888C19.0661 27.2555 18.8217 28.8444 18.9439 30.311C19.0661 33.3666 19.555 36.4221 19.9217 39.4777C20.4106 43.2666 20.5328 46.811 20.4106 50.5999C20.2883 50.7221 21.2661 52.4332 24.6883 50.7221Z" stroke="#979797" stroke-miterlimit="10" stroke-linecap="round" stroke-linejoin="round"/>
<path d="M35.9336 8.18887C35.8114 6.84442 35.6892 5.49998 35.0781 4.27776C34.3448 2.93331 32.5114 3.05554 31.167 3.05554C31.167 3.05554 29.9448 4.39998 28.1114 4.88887L28.6003 9.04442H27.6225L26.8892 5.01109C25.9114 5.01109 24.8114 4.76665 23.7114 3.91109C23.467 3.78887 21.6337 4.64442 21.3892 4.76665C20.5337 5.13331 19.8003 5.74442 19.4337 6.59998C18.9448 8.31109 18.9448 10.5111 18.9448 12.2222C18.9448 12.8333 20.2892 13.0778 21.1448 13.2C21.3892 13.3222 21.3892 11.7333 21.6337 11.7333C22.0003 11.7333 22.1225 15.0333 21.8781 15.6444C21.7559 16.3778 21.8781 16.2555 20.9003 17.4778C19.9225 18.7 18.4559 20.2889 18.9448 20.7778C19.3114 21.2666 19.4337 22.9778 22.0003 24.3222C24.567 25.6666 29.0892 25.6666 30.3114 25.5444C30.5559 25.5444 31.5337 25.4222 32.3892 25.3C32.8781 25.1778 33.2448 25.0555 33.2448 24.8111L32.8781 21.1444V17.1111L33.0003 12.3444C33.0003 12.3444 33.0003 10.7555 33.2448 10.7555C33.367 10.7555 33.367 12.3444 33.6114 12.3444C34.2225 12.3444 35.4448 12.2222 35.8114 12.1C36.5448 11.9778 35.9336 8.67776 35.9336 8.18887Z" stroke="#979797" stroke-miterlimit="10"/>
</g>
<defs>
<clipPath id="clip0">
<rect width="55" height="55" fill="white"/>
</clipPath>
</defs>
</svg>
