<svg width="55" height="55" viewBox="0 0 55 55" fill="none" xmlns="http://www.w3.org/2000/svg">
<g clip-path="url(#clip0)">
<path d="M35.9329 37.3999C35.9329 37.3999 36.0551 39.2333 36.1773 39.7222C36.1773 40.2111 36.1773 40.5777 36.2996 41.1888C36.4218 41.6777 36.2996 42.5333 36.2996 42.6555C36.2996 42.8999 36.6662 46.811 36.2996 47.1777C36.2996 47.1777 32.7551 49.7444 28.5996 47.2999C27.9884 46.9333 28.5996 43.1444 27.8662 43.3888C27.3773 43.5111 26.7662 43.2666 26.2773 43.2666C25.6662 43.2666 25.9107 47.6666 25.4218 47.5444C25.4218 47.5444 19.3107 48.7666 17.3551 47.0555C16.9884 46.6888 17.4773 43.0222 17.4773 42.7777C17.4773 42.5333 17.3551 41.7999 17.4773 41.311C17.5996 40.8222 17.5996 40.3333 17.5996 39.8444C17.5996 39.3555 17.844 37.5222 17.844 37.5222C17.9662 36.6666 17.9662 36.1777 18.2107 35.9333C18.2107 35.9333 24.3218 35.0777 27.3773 35.1999C30.5551 35.3222 35.1996 35.4444 35.6884 36.0555C36.1773 36.5444 35.9329 37.3999 35.9329 37.3999Z" stroke="#979797" stroke-miterlimit="10"/>
<path d="M17.356 27.2555C17.4782 26.5222 17.6004 25.7889 17.7227 25.1778C17.8449 24.6889 17.8449 24.0778 17.8449 23.5889C17.9671 22.8555 17.9671 22.2444 17.9671 21.5111C18.0893 19.8 18.3338 17.9666 18.456 16.2555V16.1333C18.3338 16.1333 18.2115 16.2555 18.0893 16.2555C17.6004 16.5 17.1115 16.7444 16.7449 16.8666C16.0115 17.2333 16.0115 17.1111 15.5227 16.5C14.6671 15.5222 13.8115 14.4222 12.956 13.4444C12.7115 13.2 12.4671 13.0778 12.2227 12.8333V12.7111C12.4671 12.5889 12.5893 12.3444 12.8338 12.2222C13.4449 11.7333 13.9338 11.2444 14.5449 10.7555C15.156 10.1444 15.7671 9.53331 16.5004 8.9222C16.8671 8.55553 17.2338 8.31109 17.6004 7.94442C17.7227 7.8222 17.8449 7.69997 17.9671 7.57775C18.2115 7.45553 18.3338 7.33331 18.5782 7.33331C18.8227 7.33331 18.9449 7.33331 19.0671 7.33331C20.0449 7.21108 20.9004 7.08886 21.8782 6.96664C22.1227 6.96664 22.3671 6.84442 22.6115 6.7222C22.856 6.59997 22.856 6.7222 22.9782 6.84442C23.3449 7.57775 23.7115 8.43331 24.0782 9.16664C24.2004 9.53331 24.4449 9.77775 24.6893 10.1444C25.056 10.7555 25.6671 11.1222 26.4004 11.3666C27.9893 11.9778 29.8227 11.1222 30.8004 10.0222C31.4115 9.41108 31.7782 8.79997 32.1449 8.06664C32.3893 7.69997 32.5115 7.21108 32.756 6.84442C32.8782 6.7222 32.8782 6.7222 33.1227 6.7222C33.6115 6.84442 34.1004 7.08886 34.5893 7.21109C35.4449 7.45553 36.1782 7.57775 37.0338 7.8222C37.0338 7.8222 37.0338 7.8222 37.156 7.8222C37.4004 7.69997 37.5227 7.8222 37.7671 8.06664C37.8893 8.31108 38.1338 8.55553 38.3782 8.79997C38.8671 9.28886 39.2338 9.77775 39.7227 10.2666C40.3338 11 40.9449 11.7333 41.6782 12.3444C41.9227 12.5889 42.1671 12.9555 42.4115 13.2C42.5338 13.3222 42.656 13.4444 42.7782 13.5666C42.9004 13.6889 42.9004 13.6889 42.7782 13.8111C41.4338 14.9111 40.0893 16.1333 38.8671 17.3555C38.7449 17.4778 38.7449 17.4778 38.6227 17.6C38.6227 17.7222 38.5004 17.7222 38.3782 17.6C37.7671 17.2333 37.156 16.8666 36.5449 16.5C36.4227 16.5 36.4227 16.3778 36.3004 16.3778H36.1782V16.5C36.1782 17.3555 36.3004 18.2111 36.3004 19.0666C36.4227 20.1666 36.4227 21.2666 36.5449 22.4889C36.5449 23.3444 36.6671 24.2 36.6671 25.0555L37.0338 32.8778C37.0338 32.2666 32.1449 33.2444 27.256 32.8778C21.5115 32.3889 20.2893 32.5111 16.7449 33.2444C16.6227 31.1666 17.356 27.2555 17.356 27.2555Z" stroke="#979797" stroke-miterlimit="10"/>
</g>
<defs>
<clipPath id="clip0">
<rect width="55" height="55" fill="white"/>
</clipPath>
</defs>
</svg>
