<svg width="55" height="55" viewBox="0 0 55 55" fill="none" xmlns="http://www.w3.org/2000/svg">
<g clip-path="url(#clip0)">
<path d="M13.3223 16.1333C13.5667 16.0111 13.6889 15.7666 13.8112 15.6444C14.3 15.1555 14.9112 14.6666 15.4 14.0555C16.0112 13.4444 16.6223 12.7111 17.2334 12.1C17.6 11.7333 17.9667 11.3666 18.2112 11.1222C18.3334 11 18.4556 10.7555 18.7 10.6333C18.8223 10.5111 19.0667 10.3889 19.1889 10.3889C19.4334 10.3889 19.5556 10.3889 19.6778 10.3889C20.5334 10.2666 21.3889 10.1444 22.3667 9.89996C22.6112 9.89996 22.8556 9.77774 23.1 9.65552C23.2223 9.77774 23.2223 9.77774 23.3445 10.0222C23.7112 10.8777 23.9556 11.7333 24.3223 12.4666C24.4445 12.8333 24.6889 13.2 24.8112 13.5666C25.1778 14.1777 25.7889 14.5444 26.4 14.7889C27.8667 15.4 29.5778 14.5444 30.5556 13.4444C31.0445 12.8333 31.5334 12.1 31.9 11.3666C32.1445 10.8777 32.2667 10.5111 32.5112 10.0222C32.5112 9.77774 32.6334 9.77774 32.7556 9.77774C33.2445 9.89996 33.7334 10.1444 34.1 10.2666C34.8334 10.5111 35.5667 10.7555 36.4223 10.8777C36.4223 10.8777 36.4223 10.8777 36.5445 10.8777C36.7889 10.7555 36.9112 11 37.0334 11.1222C37.2778 11.3666 37.5223 11.6111 37.7667 11.9777C38.1334 12.4666 38.6223 13.0777 38.9889 13.5666C39.6 14.3 40.2112 15.0333 40.8223 15.8889C41.0667 16.1333 41.3112 16.5 41.5556 16.7444C41.6778 16.8666 41.8 16.9889 41.8 17.1111C41.8 17.2333 41.9223 17.2333 41.8 17.3555C40.4556 18.4555 39.3556 19.8 38.1334 21.0222C38.0112 21.1444 38.0112 21.2666 37.8889 21.2666C37.7667 21.3889 37.7667 21.3889 37.6445 21.2666C37.0334 20.9 36.5445 20.5333 35.9334 20.1666C35.8112 20.1666 35.8112 20.0444 35.6889 20.0444H35.5667V20.1666C35.6889 21.0222 35.6889 22 35.6889 22.8555C35.8112 24.0777 35.8112 25.3 35.9334 26.5222C35.9334 27.3777 36.0556 28.3555 36.0556 29.2111C36.0556 30.3111 36.3 31.4111 36.4223 32.5111C36.5445 33.4889 36.9112 34.4666 37.1556 35.4444C37.2778 35.6889 37.2778 35.9333 37.4 36.0555C37.5223 36.3 37.4 36.4222 37.1556 36.4222C37.0334 36.4222 36.7889 36.5444 36.6667 36.6666C36.0556 37.1555 35.4445 37.7666 34.9556 38.3777C34.5889 38.7444 34.2223 39.2333 33.8556 39.6C33.4889 39.9666 33.2445 40.3333 32.8778 40.7C32.5112 41.0666 32.0223 41.5555 31.6556 41.9222C31.4112 42.1666 31.1667 42.5333 30.9223 42.7777C30.6778 43.1444 30.3112 43.5111 30.0667 43.8777C30.0667 44.1222 29.8223 44.2444 29.7 44.4889C29.5778 44.6111 29.5778 44.7333 29.4556 44.8555C29.3334 45.1 29.2112 45.2222 29.0889 45.2222C27.9889 45.2222 27.0112 45.2222 25.9112 45.2222C25.5445 45.2222 25.3 45.2222 24.9334 45.2222C24.6889 45.2222 24.5667 45.2222 24.5667 44.9777C24.4445 44.8555 24.4445 44.7333 24.3223 44.6111C24.2 44.3666 24.2 44.2444 23.9556 44C23.8334 43.8777 23.8334 43.7555 23.8334 43.5111C23.8334 43.2666 23.5889 42.9 23.4667 42.7777C23.1 42.1666 22.6112 41.6777 22.1223 41.0666C21.6334 40.4555 21.1445 39.9666 20.7778 39.3555C20.4112 38.9889 20.0445 38.6222 19.8 38.2555C19.3112 37.6444 18.7 37.0333 18.0889 36.4222C17.9667 36.4222 17.9667 36.3 17.8445 36.3C17.4778 36.0555 17.1112 35.9333 16.8667 35.6889C16.7445 35.6889 16.7445 35.5666 16.7445 35.4444C16.7445 35.3222 16.7445 35.2 16.8667 35.0777C17.2334 34.5889 17.3556 33.9777 17.4778 33.4889C17.6 32.8777 17.8445 32.2666 17.9667 31.6555C18.0889 30.9222 18.2112 30.1889 18.3334 29.3333C18.4556 28.7222 18.4556 28.2333 18.4556 27.6222C18.5778 26.8889 18.5778 26.1555 18.5778 25.4222C18.7 23.5889 18.9445 21.6333 19.0667 19.8V19.6777C18.9445 19.6777 18.8223 19.8 18.7 19.8C18.3334 20.0444 17.8445 20.2889 17.3556 20.5333C16.7445 20.9 16.7445 20.7777 16.2556 20.1666C15.4 19.0666 14.6667 17.9666 13.8112 16.9889C13.6889 16.6222 13.4445 16.5 13.3223 16.1333ZM13.3223 16.1333C13.3223 16.2555 13.3223 16.1333 13.3223 16.1333Z" stroke="#979797" stroke-miterlimit="10"/>
<path d="M36.6658 36.7888C36.5436 35.6888 36.0547 35.811 35.1992 36.1777C33.2436 36.911 31.0436 37.6444 29.9436 39.4777C29.2103 40.8221 27.8658 43.8777 29.3325 45.0999" stroke="#979797" stroke-miterlimit="10"/>
<path d="M17.5996 36.0556C17.8441 35.8111 18.6996 35.8111 19.3107 36.0556C21.2663 36.7889 23.4663 37.5222 24.5663 39.3556C25.2996 40.7 26.1552 43.7556 24.6885 44.9778" stroke="#979797" stroke-miterlimit="10"/>
</g>
<defs>
<clipPath id="clip0">
<rect width="55" height="55" fill="white"/>
</clipPath>
</defs>
</svg>
