<svg width="55" height="55" viewBox="0 0 55 55" fill="none" xmlns="http://www.w3.org/2000/svg">
<g clip-path="url(#clip0)">
<path d="M33.2439 13.8111C33.6106 12.5889 35.5662 14.4223 36.7884 14.7889C37.6439 15.0334 38.0106 15.5223 38.2551 16.2556C38.7439 17.6 38.9884 18.9445 39.1106 20.2889C39.2328 21.2667 39.3551 22.2445 39.4773 23.2223C39.5995 24.0778 39.7217 25.0556 39.7217 25.9111C39.8439 26.8889 39.9662 27.9889 39.9662 28.9667C40.0884 30.1889 40.0884 31.4111 40.0884 32.5111C40.2106 35.0778 40.2106 37.6445 40.2106 40.2111C40.2106 40.5778 40.0884 40.7 39.7217 40.8223C38.9884 41.0667 38.1328 41.0667 37.3995 40.7C37.2773 40.7 37.2773 40.5778 37.2773 40.4556C37.2773 39.7223 37.2773 39.1111 37.1551 38.3778C37.0328 37.4 37.0328 36.3 36.9106 35.3223C36.9106 34.5889 36.7884 33.7334 36.6662 33C36.5439 32.1445 36.4217 31.2889 36.4217 30.4334C36.2995 29.4556 36.1773 28.4778 36.0551 27.6223C35.9328 26.6445 35.8106 25.6667 35.5662 24.6889C35.4439 23.7111 35.1995 22.6111 35.0773 21.6334C35.0773 21.5111 35.0773 21.3889 34.9551 21.2667C34.9551 21.3889 34.9551 21.3889 34.8328 21.5111C34.7106 22.3667 34.4662 23.1 34.3439 23.9556C34.2217 25.1778 34.0995 26.4 33.9773 27.5C33.8551 28.7223 33.8551 29.9445 33.9773 31.2889C34.0995 32.6334 34.2217 33.9778 34.4662 35.2C34.7106 36.5445 34.9551 37.8889 35.1995 39.3556C35.1995 39.6 35.1995 39.9667 35.3217 40.2111C32.1439 41.8 20.7773 41.6778 19.3106 40.2111C19.3106 39.9667 19.3106 39.6 19.4328 39.3556C19.6773 38.0111 19.9217 36.6667 20.1662 35.2C20.4106 33.8556 20.5328 32.5111 20.6551 31.2889C20.7773 30.0667 20.7773 28.8445 20.6551 27.5C20.5328 26.2778 20.4106 25.0556 20.2884 23.9556C20.1662 23.1 20.0439 22.3667 19.7995 21.5111C19.7995 21.3889 19.7995 21.3889 19.6773 21.2667C19.6773 21.3889 19.5551 21.5111 19.5551 21.6334C19.4328 22.6111 19.1884 23.7111 19.0662 24.6889C18.9439 25.6667 18.6995 26.6445 18.5773 27.6223C18.4551 28.6 18.3328 29.5778 18.2106 30.4334C18.0884 31.2889 17.9662 32.1445 17.9662 33C17.8439 33.7334 17.8439 34.5889 17.7217 35.3223C17.5995 36.3 17.5995 37.4 17.4773 38.3778C17.4773 39.1111 17.3551 39.7223 17.3551 40.4556C17.3551 40.5778 17.3551 40.5778 17.2328 40.7C16.4995 41.0667 15.7662 41.0667 14.9106 40.8223C14.5439 40.7 14.4217 40.5778 14.4217 40.2111C14.2995 37.6445 14.4217 35.0778 14.5439 32.5111C14.5439 31.2889 14.6662 30.0667 14.6662 28.9667C14.7884 27.9889 14.7884 26.8889 14.9106 25.9111C15.0328 25.0556 15.0328 24.0778 15.1551 23.2223C15.2773 22.2445 15.3995 21.2667 15.5217 20.2889C15.7662 18.9445 16.0106 17.6 16.3773 16.2556C16.6217 15.5223 17.1106 15.0334 17.8439 14.7889C19.0662 14.4223 20.1662 14.0556 21.3884 13.8111C21.3884 13.8111 26.0328 18.7 27.1328 18.9445C28.5995 19.1889 32.8773 14.9111 33.2439 13.8111Z" stroke="#979797" stroke-miterlimit="10"/>
</g>
<defs>
<clipPath id="clip0">
<rect width="55" height="55" fill="white"/>
</clipPath>
</defs>
</svg>
