<svg width="55" height="55" viewBox="0 0 55 55" fill="none" xmlns="http://www.w3.org/2000/svg">
<g clip-path="url(#clip0)">
<path d="M25.2997 9.77776C23.2219 9.53332 22.8552 11.4889 23.833 13.2C25.5441 16.2555 21.7552 17.1111 21.633 17.1111C20.4108 17.3555 19.1885 17.7222 18.0885 18.2111C17.233 18.4555 16.7441 18.9444 16.4997 19.6778C16.0108 21.0222 15.7663 22.3666 15.5219 23.7111C15.3997 24.6889 15.2774 25.7889 15.1552 26.7666C15.033 27.7444 14.9108 28.6 14.9108 29.5778C14.7885 30.5555 14.6663 31.6555 14.6663 32.6333C14.5441 33.8555 14.5441 35.0778 14.5441 36.3C14.4219 38.8667 14.4219 41.4333 14.4219 44.1222C14.4219 44.4889 14.5441 44.6111 14.9108 44.7333C15.6441 44.9778 16.4997 44.9778 17.233 44.6111C17.3552 44.6111 17.3552 44.4889 17.3552 44.3666C17.3552 43.6333 17.3552 43.0222 17.4774 42.2889C17.5997 41.1889 17.5997 40.2111 17.7219 39.1111C17.7219 38.3778 17.8441 37.5222 17.9663 36.7889C18.0885 35.9333 18.2108 34.9555 18.2108 34.1C18.333 33.1222 18.4552 32.1444 18.5774 31.1667C18.6997 30.1889 18.8219 29.2111 19.0663 28.2333C19.1885 27.2555 19.433 26.1555 19.5552 25.1778C19.5552 25.0555 19.5552 24.9333 19.6774 24.8111C19.6774 24.9333 19.7997 24.9333 19.7997 25.0555C19.9219 25.9111 20.1663 26.6444 20.2885 27.5C20.4108 28.7222 20.533 29.9444 20.6552 31.1667C20.7774 32.3889 20.7774 33.7333 20.6552 34.9555C20.533 36.3 20.4108 37.6444 20.1663 38.9889C19.9219 40.3333 19.6774 41.8 19.433 43.1444C19.433 43.3889 19.433 43.7555 19.3108 44C20.7774 45.4667 32.3885 45.7111 35.5663 44C35.5663 43.7555 35.5663 43.3889 35.4441 43.1444C35.1997 41.8 34.9552 40.3333 34.7108 38.9889C34.4663 37.6444 34.3441 36.3 34.2219 34.9555C34.0997 33.7333 34.0997 32.3889 34.2219 31.1667C34.3441 29.9444 34.4663 28.7222 34.5885 27.5C34.7108 26.6444 34.833 25.9111 35.0774 25.0555C35.0774 24.9333 35.0774 24.9333 35.1997 24.8111C35.1997 24.9333 35.3219 25.0555 35.3219 25.1778C35.4441 26.1555 35.6885 27.2555 35.8108 28.2333C35.933 29.2111 36.1774 30.1889 36.2997 31.1667C36.4219 32.1444 36.5441 33.1222 36.6663 34.1C36.7885 34.9555 36.9108 35.8111 36.9108 36.7889C37.033 37.5222 37.033 38.3778 37.1552 39.1111C37.2774 40.2111 37.2774 41.1889 37.3997 42.2889C37.3997 43.0222 37.5219 43.6333 37.5219 44.3666C37.5219 44.4889 37.5219 44.4889 37.6441 44.6111C38.3774 44.9778 39.233 44.9778 39.9663 44.7333C40.333 44.6111 40.4552 44.4889 40.4552 44.1222C40.5774 41.5555 40.4552 38.9889 40.333 36.3C40.333 35.0778 40.2108 33.8555 40.2108 32.6333C40.0885 31.5333 40.0885 30.5555 39.9663 29.4555C39.8441 28.4778 39.7219 27.6222 39.7219 26.6444C39.5997 25.6666 39.4774 24.5666 39.3552 23.5889C39.1108 22.2444 38.8663 20.7778 38.3774 19.5555C38.133 18.8222 37.6441 18.3333 36.7885 18.0889C35.5663 17.7222 34.4663 17.3555 33.2441 16.9889C33.1219 16.9889 29.333 16.1333 31.0441 13.0778C32.1441 11.4889 31.7774 9.53332 29.6997 9.77776H25.2997Z" stroke="#979797" stroke-miterlimit="10"/>
</g>
<defs>
<clipPath id="clip0">
<rect width="55" height="55" fill="white"/>
</clipPath>
</defs>
</svg>
