<svg width="55" height="55" viewBox="0 0 55 55" fill="none" xmlns="http://www.w3.org/2000/svg">
<g clip-path="url(#clip0)">
<path d="M35.9337 40.8222C35.6892 39.1111 35.4448 35.3222 35.3226 33.6111C35.2004 32.0222 35.2004 32.5111 35.3226 30.9222C35.4448 29.3333 35.567 27.8666 35.8115 26.2777C35.9337 25.3 36.1781 24.2 36.4226 23.2222C36.4226 23.1 36.5448 22.9777 36.5448 22.9777C36.5448 23.1 36.667 23.3444 36.667 23.4666C36.9115 24.8111 37.0337 25.6666 37.0337 26.0333C37.0337 26.4 40.9448 26.6444 41.9226 25.3C41.8003 24.0777 41.5559 22.7333 41.4337 21.5111C40.7004 16.8666 38.7448 14.3 33.9781 13.2C33.8559 13.2 33.7337 13.2 33.7337 13.3222C33.1226 14.5444 32.0226 15.2777 30.6781 15.8889C29.7003 16.2555 29.2115 16.3777 28.1115 16.3777H26.767C25.7892 16.3777 25.3003 16.2555 24.3226 15.8889C22.9781 15.4 21.8781 14.6666 21.267 13.3222C21.1448 13.2 21.1448 13.2 21.0226 13.2C15.8892 14.5444 14.4226 16.2555 13.567 21.5111C13.3226 22.7333 13.2003 24.0777 13.0781 25.3C14.0559 26.6444 17.967 26.0333 17.967 26.0333C18.2115 24.6889 18.2115 24.6889 18.3337 23.4666C18.3337 23.3444 18.4559 23.1 18.4559 22.9777C18.4559 23.1 18.5781 23.2222 18.5781 23.2222C18.8226 24.2 18.9448 25.3 19.1892 26.2777C19.4337 27.8666 19.5559 29.3333 19.6781 30.9222C19.8003 32.5111 19.8003 32.0222 19.6781 33.6111C19.5559 35.3222 19.3115 39.1111 19.067 40.8222C19.067 40.8222 21.267 43.8777 28.2337 43.2666C35.3226 42.7777 35.9337 40.8222 35.9337 40.8222Z" stroke="#979797" stroke-miterlimit="10"/>
<path d="M22.7326 11.6111C22.4882 11.8556 22.2437 12.1 22.1215 12.3445C21.8771 12.5889 23.9548 13.8111 24.1993 14.0556C25.5437 14.9111 27.3771 15.0333 28.966 14.7889C29.9437 14.6667 30.9215 14.3 31.7771 13.8111C32.0215 13.6889 33.4882 12.7111 33.1215 12.3445L32.6326 11.6111C31.166 12.9556 28.966 13.3222 27.0104 13.0778C26.0326 12.9556 25.2993 12.7111 24.566 12.3445C24.1993 12.3445 22.7326 11.4889 22.7326 11.6111Z" stroke="#979797" stroke-miterlimit="10"/>
</g>
<defs>
<clipPath id="clip0">
<rect width="55" height="55" fill="white"/>
</clipPath>
</defs>
</svg>
