<svg width="55" height="55" viewBox="0 0 55 55" fill="none" xmlns="http://www.w3.org/2000/svg">
<g clip-path="url(#clip0)">
<path d="M33.0009 13.3222C34.3454 13.6889 36.3009 14.0556 37.6454 14.4222C38.5009 14.6667 38.9898 15.2778 39.2343 16.0111C39.7232 17.4778 39.9676 18.9444 40.212 20.4111C40.3343 21.5111 40.5787 22.6111 40.7009 23.5889C40.8232 24.5667 40.9454 25.5444 41.0676 26.5222C41.1898 27.6222 41.312 28.7222 41.312 29.8222C41.4343 31.1667 41.4343 32.3889 41.5565 33.7333C41.6787 36.5444 41.6787 39.2333 41.6787 42.0444C41.6787 42.4111 41.5565 42.5333 41.1898 42.6556C40.3343 42.9 39.4787 42.9 38.7454 42.5333C38.6232 42.5333 38.6232 42.4111 38.6232 42.2889C38.6232 41.5556 38.5009 40.8222 38.5009 40.0889C38.3787 38.9889 38.3787 37.8889 38.2565 36.7889C38.2565 35.9333 38.1343 35.0778 38.012 34.3444C37.8898 33.3667 37.7676 32.5111 37.6454 31.5333C37.5232 30.5556 37.4009 29.4556 37.2787 28.4778C37.1565 27.3778 36.912 26.4 36.7898 25.3C36.6676 24.2 36.4232 23.1 36.3009 22C36.3009 21.8778 36.1787 21.7556 36.1787 21.5111C36.1787 21.6333 36.0565 21.6333 36.0565 21.7556C35.9343 22.6111 35.6898 23.4667 35.5676 24.3222C35.4454 25.6667 36.1787 39.6 36.4232 41.0667C36.4232 41.4333 36.4232 41.6778 36.5454 42.0444C33.1232 43.7556 20.7787 43.6333 19.1898 42.0444C19.1898 41.6778 19.1898 41.4333 19.312 41.0667C19.5565 39.6 20.2898 25.6667 20.1676 24.3222C20.0454 23.4667 19.8009 22.6111 19.6787 21.7556C19.6787 21.6333 19.6787 21.6333 19.5565 21.5111C19.5565 21.6333 19.4343 21.7556 19.4343 22C19.312 23.1 19.0676 24.2 18.9454 25.3C18.8232 26.4 18.5787 27.3778 18.4565 28.4778C18.3343 29.4556 18.212 30.5556 18.0898 31.5333C17.9676 32.5111 17.8454 33.3667 17.7232 34.3444C17.6009 35.2 17.6009 36.0556 17.4787 36.7889C17.3565 37.8889 17.3565 38.9889 17.2343 40.0889C17.2343 40.8222 17.112 41.5556 17.112 42.2889C17.112 42.4111 17.112 42.4111 16.9898 42.5333C16.1343 42.9 15.4009 42.9 14.5454 42.6556C14.1787 42.5333 14.0565 42.4111 14.0565 42.0444C13.9343 39.2333 14.0565 36.5444 14.1787 33.7333C14.1787 32.3889 14.3009 31.1667 14.4232 29.8222C14.5454 28.7222 14.5454 27.6222 14.6676 26.5222C14.7898 25.5444 14.912 24.5667 15.0343 23.5889C15.1565 22.4889 15.2787 21.3889 15.5232 20.4111C15.7676 18.9444 16.012 17.4778 16.5009 16.0111C16.7454 15.1556 17.2343 14.6667 18.0898 14.4222C19.312 14.0556 20.6565 13.5667 21.8787 13.3222L23.2232 11.6111C23.2232 11.6111 26.4009 11.6111 27.7454 11.6111C29.0898 11.6111 32.1454 11.6111 32.1454 11.6111L33.0009 13.3222Z" stroke="#979797" stroke-miterlimit="10"/>
<path d="M31.5333 11.6111L33 13.3222L30.1889 17.4778L27.5 14.7889L31.5333 11.6111Z" stroke="#979797" stroke-miterlimit="10"/>
<path d="M22.6112 11.6111L21.1445 13.3222L23.9556 17.4778L26.889 14.7889L22.6112 11.6111Z" stroke="#979797" stroke-miterlimit="10"/>
<path d="M13.4453 40.4556C13.4453 40.4556 14.1786 40.9445 16.7453 40.7" stroke="#979797" stroke-miterlimit="10"/>
<path d="M38.2559 40.4556C38.2559 40.4556 38.9892 40.9445 41.5559 40.7" stroke="#979797" stroke-miterlimit="10"/>
<path d="M27.1348 15.0333V39.7222V43.3889H29.3348L27.1348 39.7222" stroke="#979797" stroke-miterlimit="10"/>
</g>
<defs>
<clipPath id="clip0">
<rect width="55" height="55" fill="white"/>
</clipPath>
</defs>
</svg>
