<svg width="55" height="55" viewBox="0 0 55 55" fill="none" xmlns="http://www.w3.org/2000/svg">
<g clip-path="url(#clip0)">
<path d="M30.4325 7.33336L31.8992 7.21114C31.8992 7.21114 32.0214 6.96669 32.0214 7.45558C32.0214 7.82225 32.0214 8.92225 32.0214 8.92225C32.0214 8.92225 32.2659 8.92225 32.2659 9.28891C32.2659 9.65558 32.5103 11.4889 32.9992 11.6111C33.4881 11.7334 34.2214 12.2222 34.2214 12.8334C34.2214 13.4445 34.3437 14.6667 33.977 15.0334C33.6103 15.4 33.4881 15.5222 33.4881 15.5222L33.8548 17.4778C33.8548 17.4778 34.5881 17.4778 34.8325 18.0889C35.077 18.8222 37.0325 30.5556 37.1548 31.6556C37.277 33.3667 37.0325 34.8334 37.3992 36.4222C37.7659 38.1334 38.1325 39.7223 38.377 41.4334C38.6214 43.3889 38.6214 45.2222 38.4992 47.1778C38.4992 48.5223 38.8659 51.0889 38.2548 52.1889C38.1325 52.3111 37.7659 51.5778 36.4214 51.4556C35.077 51.3334 33.6103 51.5778 33.2437 52.0667C32.877 52.5556 32.7548 52.5556 32.5103 52.3111C32.2659 52.0667 32.0214 51.8223 32.0214 50.8445C32.2659 47.3 31.777 44.2445 30.5548 40.9445C30.1881 39.8445 29.9437 37.6445 29.6992 37.0334C29.4548 36.4222 29.0881 32.6334 28.9659 32.2667C28.8437 31.9 28.477 29.7 27.9881 29.8222C27.4992 29.8222 27.377 29.7 27.377 30.0667C27.4992 30.4334 27.6214 31.5334 27.2548 32.6334C27.0103 33.7334 26.7659 34.8334 26.7659 35.5667C26.6437 36.3 27.0103 36.6667 26.7659 37.2778C26.5214 37.8889 26.1548 38.0111 25.9103 38.9889C25.7881 39.9667 25.5437 40.4556 25.2992 41.3111C24.8103 42.6556 24.9325 44 24.6881 45.3445C24.4437 46.5667 23.9548 47.5445 23.9548 48.7667C23.9548 49.5 24.3214 50.4778 23.8325 51.0889C23.3437 51.7 23.7103 52.4334 22.977 52.3111C22.2437 52.1889 20.6548 50.7223 19.677 50.7223C18.6992 50.8445 18.4548 51.3334 17.9659 51.5778C17.477 51.8223 17.7214 51.8223 17.477 50.8445C17.2325 49.8667 17.3548 49.3778 17.5992 47.9111C17.7214 46.4445 17.477 44.6111 17.8437 43.5111C18.2103 42.4111 18.2103 39.4778 18.577 38.3778C18.9437 37.1556 19.0659 34.7111 19.1881 34.2222C19.3103 33.7334 19.1881 31.0445 19.4325 30.4334C19.677 29.8222 19.9214 23.4667 20.0437 22.3667C20.1659 21.2667 20.777 17.6 20.8992 17.3556C21.0214 17.1111 20.8992 17.2334 21.2659 17.1111C21.6325 16.9889 21.7548 15.7667 21.877 15.5222C21.877 15.2778 21.3881 13.9334 21.2659 13.5667C21.1437 13.2 21.2659 11.4889 21.5103 11.1222C21.7548 10.7556 22.1214 10.6334 22.3659 10.3889C22.6103 10.1445 22.8548 9.53336 22.8548 8.80002C22.8548 8.06669 22.7325 7.33336 22.977 7.33336C23.2214 7.33336 24.8103 7.21114 24.8103 7.21114C24.8103 7.21114 24.9325 9.7778 25.2992 9.90003C25.4214 9.90003 26.5214 10.1445 27.2548 10.1445C27.377 10.1445 27.1325 18.4556 27.6214 21.8778C27.7437 22.8556 28.1103 22.3667 28.1103 22.3667C28.3548 22.3667 27.7437 10.0222 27.9881 10.0222C28.8437 10.0222 29.3325 10.0222 29.6992 10.0222C30.3103 9.90002 30.4325 7.33336 30.4325 7.33336Z" stroke="#979797" stroke-miterlimit="10" stroke-linecap="round" stroke-linejoin="round"/>
<path d="M32.1428 6.84446L30.4316 6.60001C30.4316 6.60001 30.9205 5.13335 31.0428 4.8889C31.165 4.64446 32.0205 2.6889 32.1428 2.56668C32.265 2.44446 33.2428 3.30001 33.365 3.42223C33.4872 3.54446 33.6094 3.54446 33.4872 3.66668C33.365 3.7889 32.1428 6.60001 32.1428 6.84446Z" stroke="#979797" stroke-miterlimit="10" stroke-linecap="round" stroke-linejoin="round"/>
<path d="M24.0772 2.44444C24.0772 2.44444 22.9772 2.68889 22.8549 2.81111C22.7327 2.81111 22.4883 2.81111 22.4883 3.05555C22.4883 3.42222 22.6105 4.03333 22.6105 4.4C22.6105 4.76666 22.7327 6.47778 22.8549 6.6C22.9772 6.84444 23.2216 6.84444 23.3438 6.84444C23.4661 6.84444 24.6883 6.84444 24.6883 6.72222C24.6883 6.6 24.6883 6.23333 24.6883 6.11111C24.6883 5.98889 24.4438 2.44444 24.0772 2.44444Z" stroke="#979797" stroke-miterlimit="10" stroke-linecap="round" stroke-linejoin="round"/>
<path d="M32.8763 5.98886C32.8763 5.98886 32.6319 6.72219 32.5096 6.84442C32.3874 6.96664 32.3874 7.57775 32.5096 7.57775C32.6319 7.57775 32.6319 7.45553 32.8763 7.33331C32.9985 7.21108 33.4874 6.11108 32.8763 5.98886Z" stroke="#979797" stroke-miterlimit="10" stroke-linecap="round" stroke-linejoin="round"/>
<path d="M22.2429 7.94448L22.3651 7.08892C22.3651 6.9667 22.3651 6.23337 22.2429 6.35559C22.1207 6.47781 21.9985 6.35559 21.9985 6.60003C21.8763 6.84448 21.6318 8.0667 22.2429 7.94448Z" stroke="#979797" stroke-miterlimit="10" stroke-linecap="round" stroke-linejoin="round"/>
<path d="M37.7661 38.1333C37.7661 38.1333 34.0994 37.1556 32.6328 37.6445C31.1661 38.1333 30.3105 38.6222 30.3105 38.6222" stroke="#979797" stroke-miterlimit="10" stroke-linecap="round" stroke-linejoin="round"/>
<path d="M26.1548 39.1111C26.1548 39.1111 23.8326 38.5 22.6103 38.5C21.3881 38.5 18.8214 38.1333 18.6992 38.5" stroke="#979797" stroke-miterlimit="10" stroke-linecap="round" stroke-linejoin="round"/>
<path d="M35.8106 22.6111L32.6328 23.1C32.6328 23.1 32.8773 29.8222 37.0328 30.1889" stroke="#979797" stroke-miterlimit="10" stroke-linecap="round" stroke-linejoin="round"/>
<path d="M20.1666 22.2445L23.5888 22.9778C23.5888 22.9778 22.2444 28.9667 19.6777 29.2111" stroke="#979797" stroke-miterlimit="10" stroke-linecap="round" stroke-linejoin="round"/>
<path d="M27.8652 22.4889L28.2319 29.9444" stroke="#979797" stroke-miterlimit="10" stroke-linecap="round" stroke-linejoin="round"/>
<path d="M33.4875 15.5223C33.4875 15.5223 28.3541 15.7667 27.8652 15.6445" stroke="#979797" stroke-miterlimit="10" stroke-linecap="round" stroke-linejoin="round"/>
<path d="M33.976 17.3556C33.976 17.3556 28.5983 17.7223 28.1094 17.7223" stroke="#979797" stroke-miterlimit="10" stroke-linecap="round" stroke-linejoin="round"/>
<path d="M22 15.6444C22 15.6444 26.2778 15.7666 27.2556 15.6444" stroke="#979797" stroke-miterlimit="10" stroke-linecap="round" stroke-linejoin="round"/>
<path d="M21.3887 17.2334C21.3887 17.2334 26.1553 17.8445 27.1331 17.7222" stroke="#979797" stroke-miterlimit="10" stroke-linecap="round" stroke-linejoin="round"/>
</g>
<defs>
<clipPath id="clip0">
<rect width="55" height="55" fill="white"/>
</clipPath>
</defs>
</svg>
