<svg width="55" height="55" viewBox="0 0 55 55" fill="none" xmlns="http://www.w3.org/2000/svg">
<g clip-path="url(#clip0)">
<path d="M29.0873 7.94449C31.2873 7.94449 33.7317 7.70004 35.6873 7.4556C35.4428 6.23338 35.3206 5.37782 35.0762 5.50004C35.0762 5.50004 31.8984 6.72226 27.3762 6.3556C22.8539 6.11115 19.3095 5.50004 19.3095 5.50004C19.3095 5.50004 18.9428 5.2556 18.6984 6.47782C18.6984 6.72226 18.5762 6.96671 18.5762 7.21115C21.3873 7.57782 26.0317 8.06671 29.0873 7.94449Z" stroke="#979797" stroke-miterlimit="10"/>
<path d="M35.9327 9.04451C33.7327 9.28895 31.0438 9.5334 29.0882 9.65562C25.7882 9.90006 20.8993 9.28895 18.2105 8.92229C17.8438 10.7556 17.5993 13.3223 18.0882 15.889C18.6993 20.289 20.166 27.2556 20.5327 30.3112C20.8993 33.489 21.0216 35.2001 21.0216 36.3001C21.0216 37.4001 21.3882 42.6556 21.3882 42.6556C21.3882 42.6556 21.8771 44.6112 21.8771 45.8334C21.8771 47.0556 21.7549 48.5223 22.1216 48.889C22.4882 49.2556 22.9771 49.2556 24.6882 49.2556C26.3993 49.2556 27.2549 49.1334 27.3771 47.789C27.4993 46.4445 27.0105 46.2001 26.8882 44.7334C26.766 43.389 26.5216 35.9334 26.6438 34.1001C26.8882 33.0001 26.8882 31.5334 26.8882 30.189C26.8882 27.989 27.0105 25.9112 27.0105 23.7112C27.0105 22.2445 27.1327 20.9001 27.1327 19.4334C27.1327 18.8223 27.0105 18.2112 27.1327 17.6001C27.1327 17.2334 27.2549 16.989 27.3771 16.6223C27.4993 16.3778 27.866 15.889 27.9882 16.5001C28.1105 17.3556 28.7216 21.1445 28.7216 21.1445C28.7216 21.1445 30.066 28.6001 30.1882 29.2112C30.3105 29.9445 30.5549 34.9556 30.5549 36.789C30.5549 38.6223 30.6771 43.5112 30.6771 43.5112V47.9112C30.6771 47.9112 30.5549 49.3778 32.3882 49.2556C34.3438 49.2556 34.9549 49.1334 34.9549 49.1334C34.9549 49.1334 36.0549 48.7667 36.1771 47.789C36.2993 46.8112 36.4216 45.4667 36.4216 45.4667C36.4216 45.4667 36.9105 32.1445 37.1549 28.9667C37.6438 24.5667 37.3993 17.4778 36.9105 14.5445C36.4216 13.5667 36.1771 11.1223 35.9327 9.04451Z" stroke="#979797" stroke-miterlimit="10"/>
<path d="M32.6328 9.41115L33.9773 32.1445L34.7106 49.2556" stroke="#979797" stroke-miterlimit="10"/>
<path d="M22.7324 9.65564L23.3435 34.3445L24.688 49.5001" stroke="#979797" stroke-miterlimit="10"/>
</g>
<defs>
<clipPath id="clip0">
<rect width="55" height="55" fill="white"/>
</clipPath>
</defs>
</svg>
