<svg width="55" height="55" viewBox="0 0 55 55" fill="none" xmlns="http://www.w3.org/2000/svg">
<g clip-path="url(#clip0)">
<path d="M23.3441 15.6444L21.8774 15.8888C21.8774 15.8888 21.8774 15.8888 21.8774 16.0111V15.8888C21.633 15.7666 21.1441 16.0111 21.0219 16.2555C20.7774 16.4999 20.7774 16.8666 20.6552 17.1111C20.2885 17.7222 19.433 17.8444 18.6996 18.0888C17.4774 18.4555 16.4996 19.4333 16.0107 20.5333C15.5219 21.6333 15.5219 22.8555 15.6441 24.0777C15.7663 25.0555 16.133 26.0333 16.8663 26.7666C17.5996 27.3777 19.0663 27.4999 19.6774 26.7666C19.9219 27.4999 20.8996 28.1111 21.5107 27.7444C22.1219 27.3777 21.5107 26.8888 21.9996 26.1555C22.9774 24.8111 21.5107 24.5666 21.0219 23.9555C20.7774 23.4666 21.1441 22.9777 21.1441 22.4888C21.1441 22.4888 21.3885 22.7333 22.1219 23.5888C22.8552 24.3222 22.9774 24.5666 23.4663 24.9333C23.9552 25.2999 26.8885 26.0333 27.4996 25.6666C28.1107 25.2999 27.4996 19.4333 27.4996 19.1888C27.4996 18.9444 25.1774 16.2555 24.8107 16.2555" stroke="#979797" stroke-miterlimit="10"/>
<path d="M29.945 17.7221C29.5783 17.7221 28.7228 19.0666 28.7228 19.1888C28.7228 19.311 28.1117 25.2999 28.7228 25.6666C29.3339 26.0332 32.2672 25.4221 32.7561 24.9332C33.245 24.5666 33.245 24.4443 34.1006 23.5888C34.8339 22.8555 35.0783 22.4888 35.0783 22.4888V22.3666C35.0783 22.4888 35.0783 22.4888 35.0783 22.611C35.2006 23.2221 35.0783 23.8332 34.7117 24.3221C34.2228 25.0555 33.245 24.4443 33.6117 24.9332C34.2228 25.6666 34.345 26.8888 34.2228 27.7443C34.1006 28.4777 36.6672 27.7443 36.9117 26.8888C37.645 27.7443 38.5006 27.9888 39.3561 27.2555C40.2117 26.5221 40.5783 25.5443 40.7006 24.4443C40.8228 23.2221 40.8228 21.8777 40.3339 20.6555C39.845 19.4332 38.745 18.4555 37.5228 18.0888C36.6672 17.8443 35.6894 17.7221 35.3228 17.111C35.2006 16.8666 35.2006 16.4999 34.9561 16.1332C34.8339 15.8888 34.5894 15.6443 34.2228 15.6443C33.8561 15.6443 32.8783 15.3999 32.8783 15.3999" stroke="#979797" stroke-miterlimit="10"/>
<path d="M30.6777 13.6888C30.5555 13.811 30.4332 15.7666 30.311 16.1333C30.1888 16.7444 29.9444 17.8444 29.3332 18.211C28.9666 18.4555 28.4777 18.8221 28.4777 18.8221L28.3555 24.4444C28.3555 24.4444 29.3332 24.6888 29.5777 24.6888C29.8221 24.6888 29.6999 22.9777 29.6999 22.8555C29.6999 21.9999 29.9444 21.1444 30.1888 20.411C30.4332 19.7999 30.7999 18.9444 30.6777 18.211C30.6777 17.8444 34.2221 18.211 34.2221 17.9666C34.2221 17.7221 34.0999 17.3555 33.9777 17.111C33.611 16.3777 33.3666 15.8888 32.6332 15.3999C32.1444 15.0333 31.5332 14.7888 31.1666 14.2999C31.0444 14.1777 30.9221 13.5666 30.6777 13.6888Z" stroke="#979797" stroke-miterlimit="10"/>
<path d="M25.6664 13.6888C25.7886 13.811 25.9108 15.7666 25.9108 16.011C26.033 16.6222 26.2775 17.7221 26.8886 18.211C27.2553 18.4555 27.4997 18.5777 27.4997 18.5777L27.7441 22.2444L28.1108 24.4444C28.1108 24.4444 27.133 24.6888 26.8886 24.6888C26.6441 24.6888 26.7664 22.8555 26.7664 22.7333C26.7664 21.8777 26.5219 21.1444 26.2775 20.2888C26.033 19.6777 25.7886 18.8221 25.7886 18.211C25.7886 17.8444 22.2441 18.211 22.2441 17.9666C22.2441 17.7221 22.3664 17.3555 22.4886 17.111C22.6108 16.7444 22.733 16.1333 23.2219 15.7666C23.7108 15.3999 25.1775 14.4221 25.2997 14.2999C25.2997 14.1777 25.4219 13.5666 25.6664 13.6888Z" stroke="#979797" stroke-miterlimit="10"/>
<path d="M30.5562 7.82217V9.6555C30.5562 9.16661 28.4784 9.41106 28.1118 9.41106C27.7451 9.41106 27.2562 9.41106 26.8896 9.53328C26.6451 9.53328 24.4451 10.5111 24.4451 10.2666C24.5673 10.9999 24.5673 11.8555 24.6896 12.5888L24.5673 22.2444C24.5673 22.2444 24.4451 23.5888 24.0784 24.0777C23.7118 24.5666 23.5896 24.3222 23.5896 24.3222L23.4673 24.8111C23.4673 24.8111 23.3451 25.0555 23.1007 25.0555C22.8562 25.0555 23.5896 11.9777 23.5896 10.2666C23.7118 7.69995 30.5562 7.69995 30.5562 7.82217Z" stroke="#979797" stroke-miterlimit="10"/>
<path d="M38.8671 51.4555C38.6226 51.3333 38.3782 51.211 38.1337 51.211C36.4226 51.0888 36.1782 49.9888 35.3226 49.2555C34.7115 48.6444 34.8337 47.6666 34.8337 46.811C34.8337 46.0777 34.7115 45.2222 34.7115 44.4888C35.4448 44.2444 36.0559 43.7555 36.4226 43.1444C36.5448 42.8999 36.6671 42.5333 36.5448 42.2888C36.4226 42.0444 36.1782 41.7999 35.9337 41.5555C35.6893 41.311 35.4448 41.0666 35.3226 40.8222C35.2004 40.6999 35.2004 40.3333 35.0782 40.211C35.3226 40.0888 35.4448 40.0888 35.5671 39.8444C35.6893 39.5999 35.6893 39.2333 35.5671 38.9888C34.8337 35.4444 34.1004 31.8999 33.2448 28.4777C30.1893 28.8444 27.0115 29.211 24.0782 28.4777C23.3448 28.3555 23.3448 28.2333 23.1004 28.9666C22.8559 29.5777 22.7337 30.1888 22.6115 30.7999C22.3671 32.0222 22.1226 33.3666 22.0004 34.5888C22.0004 35.3222 21.3893 36.1777 20.7782 36.6666C20.2893 37.1555 20.1671 38.4999 20.1671 39.3555C20.1671 39.5999 20.2893 39.7221 20.4115 39.8444C20.2893 39.9666 20.1671 40.211 20.0448 40.3333C19.8004 40.5777 19.5559 40.6999 19.3115 40.9444C19.0671 41.0666 18.7004 41.1888 18.5782 41.5555C18.4559 41.7999 18.4559 42.1666 18.5782 42.411C18.8226 43.1444 19.3115 43.7555 19.9226 44.1222C19.6782 44.8555 19.5559 45.5888 19.3115 46.3222C19.0671 47.1777 19.0671 48.0333 18.3337 48.5222C17.3559 49.1333 16.8671 50.111 15.1559 49.8666C14.9115 49.8666 14.6671 49.8666 14.4226 49.9888C14.1782 50.111 13.9337 50.3555 14.0559 50.5999C14.9115 51.3333 16.1337 51.5777 17.3559 51.4555C18.5782 51.3333 19.5559 50.8444 20.5337 50.2333C20.6559 50.4777 20.6559 50.7222 20.5337 50.8444C20.9004 50.9666 21.3893 50.9666 21.7559 51.0888C22.0004 49.4999 22.2448 47.911 22.7337 46.4444C22.9782 45.8333 23.1004 45.3444 23.3448 44.8555C23.4671 44.611 23.5893 44.3666 23.7115 44.1222C24.0782 43.8777 24.4448 43.7555 24.9337 43.7555C24.8115 42.8999 24.6893 42.1666 24.5671 41.311C24.8115 41.311 24.9337 41.311 25.1782 41.4333C25.3004 41.4333 25.4226 41.5555 25.5448 41.4333C25.7893 41.4333 25.9115 41.1888 25.9115 40.9444C26.5226 39.3555 26.4004 37.5222 26.7671 35.811C26.7671 35.5666 26.8893 35.1999 27.1337 34.9555C27.2559 34.711 27.6226 34.5888 27.8671 34.711C28.1115 34.8333 28.2337 35.0777 28.3559 35.3222C28.6004 35.811 28.6004 36.4222 28.6004 36.911C28.6004 37.5222 28.6004 38.1333 28.7226 38.7444C28.9671 39.4777 29.3337 40.211 28.8448 40.6999C29.4559 40.8222 30.1893 40.9444 30.8004 40.9444C30.5559 41.6777 30.1893 42.411 29.9448 43.1444C30.3115 43.2666 30.8004 43.3888 31.0448 43.7555C31.1671 43.9999 31.2893 44.2444 31.2893 44.4888C31.4115 45.0999 31.5337 45.5888 31.5337 46.1999C31.6559 47.7888 31.5337 49.3777 31.4115 50.9666C31.7782 50.9666 32.2671 50.9666 32.6337 50.9666C32.6337 50.7222 32.6337 50.4777 32.7559 50.3555C33.4893 51.211 34.4671 51.9444 35.5671 52.311C36.6671 52.6777 37.8893 52.6777 38.9893 52.1888C39.2337 51.9444 39.1115 51.6999 38.8671 51.4555Z" stroke="#979797" stroke-miterlimit="10"/>
<path d="M35.8109 8.55551C35.6887 8.31106 33.6109 8.31106 33.3664 8.18884C31.4109 8.06662 29.4553 7.82217 27.622 8.06662C26.1553 8.31106 24.4442 8.67773 23.4664 9.89995C22.4887 11.1222 21.6331 12.8333 20.1664 13.4444C19.0664 11.9777 18.9442 9.41106 19.5553 7.69995C20.4109 4.88884 23.222 3.05551 26.1553 2.56662C28.722 2.19995 31.4109 3.17773 33.3664 4.88884C34.4664 5.86662 35.4442 7.08884 35.8109 8.55551Z" stroke="#979797" stroke-miterlimit="10"/>
<path d="M32.8776 25.5444C32.8776 25.5444 31.0443 26.2777 29.6998 26.2777C28.3554 26.4 27.2554 26.4 26.3998 26.2777C25.6665 26.1555 23.7109 25.5444 23.7109 25.5444C23.7109 25.5444 23.9554 26.7666 23.7109 27.3777C23.4665 27.9888 23.222 28.1111 23.4665 28.6C23.7109 29.0888 26.0332 29.5777 28.722 29.5777C31.4109 29.5777 33.7332 28.4777 33.4887 28.3555C33.2443 28.3555 33.3665 25.7888 32.8776 25.5444Z" stroke="#979797" stroke-miterlimit="10"/>
<path d="M34.834 24.4444C34.834 24.4444 36.7895 25.6667 37.034 27.0111" stroke="#979797" stroke-miterlimit="10"/>
<path d="M21.1444 24.0777C21.1444 24.0777 20.0444 24.9333 19.6777 26.8888" stroke="#979797" stroke-miterlimit="10"/>
</g>
<defs>
<clipPath id="clip0">
<rect width="55" height="55" fill="white"/>
</clipPath>
</defs>
</svg>
