<svg width="55" height="55" viewBox="0 0 55 55" fill="none" xmlns="http://www.w3.org/2000/svg">
<g clip-path="url(#clip0)">
<path d="M33.6094 23.4666C32.0205 23.5889 30.0649 23.8333 28.7205 23.8333C26.276 23.9555 23.4649 22.8555 21.5094 22.6111C21.2649 23.9555 21.1427 26.4 21.3871 28.2333C21.876 31.2889 22.2427 36.3 22.4871 38.5C22.7316 40.7 22.8538 41.9222 22.8538 42.7778C22.8538 43.5111 23.0983 47.3 23.0983 47.3C23.0983 47.3 23.4649 48.6444 23.4649 49.5C23.4649 50.3555 23.3427 51.3333 23.5871 51.7C23.8316 51.9444 24.1983 51.9444 25.4205 51.9444C26.6427 51.9444 27.2538 51.8222 27.376 50.8444C27.4983 49.8666 27.1316 49.7444 27.0094 48.7666C26.8872 47.7889 26.7649 42.6555 26.8871 41.3111C26.8871 40.3333 26.8872 39.3555 27.0094 38.3778C27.0094 36.9111 27.0094 35.3222 27.1316 33.8555C27.1316 32.8778 27.2538 31.9 27.1316 30.8C27.1316 30.4333 27.0094 29.9444 27.1316 29.5778C27.1316 29.3333 27.1316 29.0889 27.2538 28.9666C27.376 28.7222 27.6205 28.4778 27.7427 28.8444C27.8649 29.4555 28.2316 32.1444 28.2316 32.1444C28.2316 32.1444 29.2094 37.4 29.2094 37.8889C29.2094 38.3778 29.4538 41.9222 29.4538 43.2666C29.4538 44.6111 29.576 48.0333 29.576 48.0333V51.0889C29.576 51.0889 29.4538 52.0666 30.7983 52.0666C32.1427 52.0666 32.6316 51.9444 32.6316 51.9444C32.6316 51.9444 33.3649 51.7 33.4871 50.9666C33.6094 50.2333 33.7316 49.3778 33.7316 49.3778C33.7316 49.3778 34.0983 39.9666 34.2205 37.7666C34.5871 34.7111 34.4649 29.7 33.976 27.6222C33.8538 26.6444 33.7316 24.9333 33.6094 23.4666Z" stroke="#979797" stroke-miterlimit="10"/>
<path d="M31.5326 4.27776C32.5104 4.52221 33.9771 4.76665 34.8326 5.13332C35.4437 5.37776 35.8104 5.74443 36.0549 6.35554C36.4215 7.45554 36.5437 8.43332 36.7882 9.53332C36.9104 10.2667 37.0326 11.1222 37.1549 11.8555C37.2771 12.5889 37.2771 13.3222 37.3993 14.0555C37.5215 14.9111 37.5215 15.6444 37.6437 16.5C37.6437 17.4778 37.766 18.3333 37.766 19.3111C37.766 21.2667 37.8882 23.3444 37.766 25.3C37.766 25.5444 37.6437 25.6667 37.3993 25.7889C36.7882 26.0333 36.1771 26.0333 35.566 25.6667C35.4437 25.6667 35.4437 25.6667 35.4437 25.5444C35.4437 25.0555 35.4437 24.4444 35.3215 23.9555C35.3215 23.1 35.1993 22.3667 35.1993 21.5111C35.1993 20.9 35.0771 20.2889 35.0771 19.6778C34.9549 18.9444 34.9549 18.3333 34.8326 17.6C34.7104 16.8667 34.5882 16.1333 34.5882 15.4C34.466 14.6667 34.3437 13.8111 34.2215 13.0778C34.0993 12.2222 33.9771 11.4889 33.8549 10.6333C33.8549 10.5111 33.8549 10.3889 33.7326 10.2667C33.7326 10.3889 33.7326 10.3889 33.7326 10.5111C33.6104 11.1222 33.4882 11.7333 33.366 12.3444C33.2437 13.3222 33.7326 23.4667 33.9771 24.5667C33.9771 24.8111 33.9771 25.0555 34.0993 25.3C31.6549 26.6444 22.6104 26.4 21.5104 25.3C21.5104 25.0555 21.5104 24.8111 21.6326 24.5667C21.7549 23.4667 22.366 13.3222 22.2437 12.3444C22.1215 11.7333 21.9993 11.1222 21.8771 10.5111C21.8771 10.3889 21.8771 10.3889 21.8771 10.2667C21.8771 10.3889 21.8771 10.5111 21.7549 10.6333C21.6326 11.4889 21.5104 12.2222 21.3882 13.0778C21.266 13.8111 21.1438 14.6667 21.0215 15.4C20.8993 16.1333 20.7771 16.8667 20.7771 17.6C20.6549 18.3333 20.6549 18.9444 20.5326 19.6778C20.5326 20.2889 20.4104 20.9 20.4104 21.5111C20.4104 22.3667 20.2882 23.1 20.2882 23.9555C20.2882 24.4444 20.2882 25.0555 20.166 25.5444C20.166 25.6667 20.166 25.6667 20.0437 25.6667C19.4326 25.9111 18.8215 25.9111 18.2104 25.7889C17.966 25.6667 17.8438 25.5444 17.8438 25.3C17.8438 23.3444 17.8438 21.2667 17.8438 19.3111C17.8438 18.3333 17.966 17.4778 17.966 16.5C17.966 15.6444 18.0882 14.9111 18.2104 14.0555C18.3326 13.3222 18.3326 12.5889 18.4549 11.8555C18.5771 11.1222 18.6993 10.2667 18.8215 9.53332C18.9437 8.43332 19.1882 7.45554 19.5549 6.35554C19.7993 5.74443 20.166 5.37776 20.7771 5.13332C21.0215 4.88888 21.9993 4.52221 22.9771 4.27776L23.9549 3.05554C23.9549 3.05554 26.2771 3.05554 27.2549 3.05554C28.2326 3.05554 30.4326 3.05554 30.4326 3.05554L31.5326 4.27776Z" stroke="#979797" stroke-miterlimit="10"/>
<path d="M30.4333 3.05554L31.5333 4.27776L29.4556 7.33332L27.5 5.37776L30.4333 3.05554Z" stroke="#979797" stroke-miterlimit="10"/>
<path d="M23.9555 3.05554L22.8555 4.27776L24.9332 7.33332L27.011 5.37776L23.9555 3.05554Z" stroke="#979797" stroke-miterlimit="10"/>
<path d="M17.2324 24.0778C17.2324 24.0778 17.7213 24.4445 19.5546 24.3223" stroke="#979797" stroke-miterlimit="10"/>
<path d="M35.3223 24.0778C35.3223 24.0778 35.8112 24.4445 37.6445 24.3223" stroke="#979797" stroke-miterlimit="10"/>
<path d="M27.0095 5.37775H27.4984L28.2318 6.11108L27.6207 6.96664H26.8873L26.3984 5.98886L27.0095 5.37775Z" stroke="#979797" stroke-miterlimit="10"/>
<path d="M31.5332 4.27777L27.2555 10.8778L22.8555 4.27777" stroke="#979797" stroke-miterlimit="10"/>
<path d="M27.6211 6.96671L28.11 9.41115L27.6211 6.96671Z" stroke="#979797" stroke-miterlimit="10"/>
<path d="M26.8885 6.96671L26.2773 9.53337" stroke="#979797" stroke-miterlimit="10"/>
<path d="M32.2664 4.52225L27.133 12.8334L22.2441 4.52225" stroke="#979797" stroke-miterlimit="10"/>
</g>
<defs>
<clipPath id="clip0">
<rect width="55" height="55" fill="white"/>
</clipPath>
</defs>
</svg>
