<svg width="39" height="36" viewBox="0 0 39 36" fill="none" xmlns="http://www.w3.org/2000/svg">
<path d="M33.4729 5.72253C33.9651 6.05063 34.7853 6.37873 35.1134 6.95291C35.6056 7.69114 36.0157 8.59342 36.0157 9.57772C36.5 11.5 36.918 12.3666 37 14.0071C35.9337 14.9094 35.0314 15.0734 33.637 14.7453C33.5549 14.4172 33.4729 14.0071 33.3909 13.679C32.4886 18.3544 32.9808 21.3894 33.3089 26.0648C33.637 26.557 32.6527 26.721 32.5706 26.721C29.2076 27.4592 26.3367 27.5413 23.0557 26.8851C22.8096 26.803 21.4152 26.639 21.4972 25.8187C22.0714 21.4714 22.5635 17.2881 22.2354 12.8587C22.0714 13.3509 21.9894 14.0071 21.6613 14.4172C20.3489 14.8273 19.0365 13.843 19.0365 13.597C18.9544 13.4329 19.0365 13.1048 19.0365 12.9408C19.2005 11.7924 19.6927 10.7261 19.8567 9.4957C20.0208 8.59342 20.1848 7.60911 20.759 6.87089C21.7433 5.72253 23.1377 5.80456 24.2041 4.82025C24.3681 5.55848 25.3524 5.88658 26.0906 6.13266C26.8289 6.37873 27.6491 6.21468 28.3873 5.88658C29.0435 5.55848 29.6177 5.14835 30.1099 4.6562C30.356 4.41013 30.438 4 30.8481 4C31.0942 4.08203 31.5043 4.41013 31.7504 4.49215C32.4066 4.82025 32.8167 5.31241 33.4729 5.72253Z" fill="#F9F9F9" stroke="#AB064E" stroke-width="2" stroke-miterlimit="10"/>
<path d="M27.4854 6.13281L26.5831 7.03508L26.0089 6.05078" fill="#F9F9F9"/>
<path d="M27.4854 6.13281L26.5831 7.03508L26.0089 6.05078" stroke="#AB064E" stroke-width="2" stroke-miterlimit="10"/>
<path d="M7.09468 3.4881C6.3838 3.96203 5.19899 4.43595 4.72506 5.26532C4.01418 6.33165 3.42177 7.63494 3.42177 9.05671C3.42177 12.2557 2.11848 13.0851 2 15.4547C3.54025 16.758 4.84354 16.9949 6.85772 16.521C6.9762 16.0471 7.09468 15.4547 7.21316 14.9808C8.51645 21.7342 7.80557 26.118 7.33165 32.8714C6.85772 33.5823 8.27949 33.8192 8.39797 33.8192C13.2557 34.8856 17.4025 35.004 22.1418 34.0562C22.4972 33.9377 24.5114 33.7008 24.3929 32.5159C23.5635 26.2365 22.8527 20.1939 23.3266 13.7959C23.5635 14.5068 23.682 15.4547 24.1559 16.0471C26.0516 16.6395 27.9473 15.2177 27.9473 14.8623C28.0658 14.6253 27.9473 14.1514 27.9473 13.9144C27.7104 12.2557 26.9995 10.7154 26.7625 8.93823C26.5256 7.63494 26.2886 6.21316 25.4592 5.14684C24.0375 3.4881 22.0233 3.60658 20.483 2.18481C20.2461 3.25114 18.8243 3.72506 17.758 4.08051C16.6916 4.43595 15.5068 4.19899 14.4405 3.72506C13.4927 3.25114 12.6633 2.65873 11.9524 1.94785C11.597 1.59241 11.4785 1 10.8861 1C10.5306 1.11848 9.93823 1.59241 9.58278 1.71089C8.63494 2.18481 8.04253 2.8957 7.09468 3.4881Z" fill="#F9F9F9" stroke="#AB064E" stroke-width="2" stroke-miterlimit="10"/>
<path d="M15.7441 4.08137L17.0474 5.38466L17.8768 3.96289" fill="#F9F9F9"/>
<path d="M15.7441 4.08137L17.0474 5.38466L17.8768 3.96289" stroke="#AB064E" stroke-width="2" stroke-miterlimit="10"/>
</svg>
