<svg width="38" height="37" viewBox="0 0 38 37" fill="none" xmlns="http://www.w3.org/2000/svg">
<path d="M9.0002 1C7.1002 1 5.7002 2.37991 5.7002 4.15408V5.73112C5.7002 7.40672 7.1002 8.88519 9.0002 8.88519C10.9002 8.88519 12.3002 7.50528 12.3002 5.73112V4.15408C12.2002 2.37991 10.8002 1 9.0002 1Z" stroke="#AB064E" stroke-width="2" stroke-miterlimit="10"/>
<path d="M17 15.3906C17 13.025 13.4 11.0537 9 11.0537C4.6 11.0537 1 13.025 1 15.3906V22.6844C1.1 24.0643 2.4 25.3457 4.3 26.0356" stroke="#AB064E" stroke-width="2" stroke-miterlimit="10"/>
<path d="M13.7998 26.0352C15.6998 25.2467 16.8998 24.0639 16.9998 22.684V20.3184H28.5998" stroke="#AB064E" stroke-width="2" stroke-miterlimit="10"/>
<path d="M4.40039 16.6719V36.3849" stroke="#AB064E" stroke-width="2" stroke-miterlimit="10"/>
<path d="M13.7002 25.1484V36.3849" stroke="#AB064E" stroke-width="2" stroke-miterlimit="10"/>
<path d="M9 25.1484V36.3849" stroke="#AB064E" stroke-width="2" stroke-miterlimit="10"/>
<path d="M26 17.5586L28.8 20.3185L26 23.0783" stroke="#AB064E" stroke-width="1.5" stroke-miterlimit="10"/>
<path d="M28.5002 1C30.3002 1 31.8002 2.37991 31.8002 4.15408V5.73112C31.8002 7.50528 30.3002 8.88519 28.5002 8.88519C26.7002 8.88519 25.2002 7.50528 25.2002 5.73112V4.15408C25.2002 2.37991 26.7002 1 28.5002 1Z" stroke="#AB064E" stroke-width="2" stroke-miterlimit="10"/>
<path d="M8.90039 17.3619H20.5004V15.3906C20.5004 13.025 24.1004 11.0537 28.5004 11.0537C32.9004 11.0537 36.5004 13.025 36.5004 15.3906V22.6844C36.4004 24.0643 35.1004 25.3457 33.2004 26.0356" stroke="#AB064E" stroke-width="2" stroke-miterlimit="10"/>
<path d="M20.5 22.6846C20.6 24.0645 21.8 25.2473 23.7 26.0358" stroke="#AB064E" stroke-width="2" stroke-miterlimit="10"/>
<path d="M33.0996 16.6719V36.3849" stroke="#AB064E" stroke-width="2" stroke-miterlimit="10"/>
<path d="M23.7002 25.1484V36.3849" stroke="#AB064E" stroke-width="2" stroke-miterlimit="10"/>
<path d="M28.4004 25.1484V36.3849" stroke="#AB064E" stroke-width="2" stroke-miterlimit="10"/>
<path d="M11.3996 14.6016L8.59961 17.3614L11.3996 20.1213" stroke="#AB064E" stroke-width="1.5" stroke-miterlimit="10"/>
</svg>
