<svg width="35" height="43" viewBox="0 0 35 43" fill="none" xmlns="http://www.w3.org/2000/svg">
<path d="M24.3336 30.6963V42.0003L17.3772 38.3048L10.4209 42.0003V30.6963" stroke="#AB064E" stroke-width="2" stroke-miterlimit="10" stroke-linejoin="round"/>
<path d="M17.7894 2L20.2017 3.9334L23.2719 2.85929L25.0262 5.65197H28.0964L28.7543 8.65948L31.6052 9.94841L31.1666 12.9559L33.5788 15.1041L32.0438 17.682L33.5788 20.4747L31.1666 22.6229L31.6052 25.6304L28.7543 26.7045L28.0964 29.712L25.0262 29.9269L23.2719 32.5047L20.2017 31.6454L17.7894 33.5788L15.3771 31.6454L12.307 32.5047L10.5526 29.9269L7.48244 29.712L6.82454 26.7045L3.97368 25.6304L4.41227 22.6229L2 20.4747L3.53508 17.682L2 15.1041L4.41227 12.9559L3.97368 9.94841L6.82454 8.65948L7.48244 5.65197H10.5526L12.307 2.85929L15.3771 3.9334L17.7894 2Z" stroke="#AB064E" stroke-width="2" stroke-miterlimit="10"/>
<path d="M17.7891 27.2627C23.0212 27.2627 27.2627 23.0212 27.2627 17.7891C27.2627 12.5569 23.0212 8.31543 17.7891 8.31543C12.5569 8.31543 8.31543 12.5569 8.31543 17.7891C8.31543 23.0212 12.5569 27.2627 17.7891 27.2627Z" stroke="#AB064E" stroke-width="1.6" stroke-miterlimit="10"/>
</svg>
