<svg width="38" height="34" viewBox="0 0 38 34" fill="none" xmlns="http://www.w3.org/2000/svg">
<path d="M36.0618 23.7932C36.5981 23.592 37.0004 22.9887 37.0004 22.3183C37.0004 21.4468 36.33 20.7764 35.4585 20.7764H35.3914H31.369H29.559V20.5082L30.2294 17.4914C30.3634 15.4132 29.559 14.6757 29.559 14.6757C28.4193 13.2679 27.6148 13.7372 27.6148 13.7372L26.8103 14.2065V17.1562L24.3299 22.8546L23.5254 23.1898V31.2346C24.531 32.039 26.4751 32.039 26.4751 32.039H30.1623H34.1847H34.2517C35.1233 32.039 35.7937 31.3686 35.7937 30.4971C35.7937 30.0278 35.5925 29.5586 35.1903 29.2904C35.7266 29.0222 36.1289 28.4859 36.1289 27.8155C36.1289 27.3463 35.9277 26.877 35.5255 26.6088C36.1959 26.4077 36.6652 25.8043 36.6652 25.0669C36.6652 24.5306 36.397 24.0613 36.0618 23.7932Z" stroke="#AC064E" stroke-width="1.6" stroke-miterlimit="10" stroke-linejoin="round"/>
<path d="M21.9833 22.3184H20.8436H19.3017C18.4302 22.3184 17.7598 23.0558 17.7598 23.9273V31.3687C17.7598 32.2402 18.4302 32.9777 19.3017 32.9777H22.0503C22.9218 32.9777 23.5922 32.2402 23.5922 31.3687V25.134V23.9273V22.3184H21.9833V22.3184Z" stroke="#AC064E" stroke-width="1.6" stroke-miterlimit="10"/>
<path d="M21.9779 9.31284C21.6427 8.64245 21.2405 8.17317 20.7042 7.77093C20.1678 7.43573 19.5645 7.16757 18.76 7.03349C18.2237 6.96645 17.4192 6.89941 16.3466 6.89941H10.38V14.4079H8.50293V16.285H10.38V17.1565H8.50293V19.0336H10.38V22.7208H12.4583V19.0336H16.8829V17.1565H12.4583V16.285H16.4807C18.693 16.285 20.2349 15.8157 21.1064 14.8771C21.9779 13.9386 22.3802 12.7989 22.3802 11.4581C22.4472 10.6536 22.3131 9.98324 21.9779 9.31284ZM19.4974 13.6034C18.9611 14.0727 17.9555 14.3408 16.6147 14.3408H13.1287H12.5253V8.70949H16.5477C17.4863 8.70949 18.1566 8.77653 18.4918 8.84357C19.0282 8.97765 19.4974 9.31284 19.8326 9.78212C20.1678 10.2514 20.3019 10.7877 20.3019 11.4581C20.3019 12.3967 20.0338 13.1341 19.4974 13.6034Z" fill="#AB054E"/>
<path d="M14.7431 28.5533C7.16765 28.5533 1 22.3857 1 14.8102C1 7.23469 7.16765 1 14.7431 1C20.8438 1 26.0729 5.02238 27.8159 10.5196" stroke="#AC064E" stroke-width="2" stroke-miterlimit="10"/>
</svg>
