<svg width="42" height="35" viewBox="0 0 42 35" fill="none" xmlns="http://www.w3.org/2000/svg">
<g clip-path="url(#clip0)">
<path d="M10.5257 29.2062H4.512C2.97248 29.2062 3.16492 27.5104 3.16492 27.5104V10.8348C3.16492 10.8348 3.26114 9.28027 4.75255 9.28027H12.0172" stroke="#AB064E" stroke-width="2" stroke-miterlimit="10" stroke-linecap="round"/>
<path d="M29.9346 9.23242H37.1992C38.6906 9.23242 38.7868 10.7869 38.7868 10.7869V27.4626C38.7868 27.4626 38.9792 29.1584 37.4397 29.1584H31.426" stroke="#AB064E" stroke-width="2" stroke-miterlimit="10" stroke-linecap="round"/>
<path d="M29.2029 6.17067L27.8559 3.3914C27.8559 3.3914 27.6153 2.6848 26.4126 2.6377H22.0827H22.0346H19.6291H19.581H15.2511C14.0964 2.6377 13.8078 3.3914 13.8078 3.3914L12.5088 6.17067" stroke="#AB064E" stroke-width="2" stroke-miterlimit="10" stroke-linecap="round"/>
<path d="M5.82129 5.98242H8.85222" stroke="#AB064E" stroke-width="2" stroke-miterlimit="10" stroke-linecap="round"/>
<path d="M7.31258 14.1317C7.9237 14.1317 8.41911 13.6467 8.41911 13.0483C8.41911 12.4499 7.9237 11.9648 7.31258 11.9648C6.70146 11.9648 6.20605 12.4499 6.20605 13.0483C6.20605 13.6467 6.70146 14.1317 7.31258 14.1317Z" fill="#AB064E"/>
<path d="M20.9767 15L22.8444 18.6367L27 19.2204L23.965 22.0041L24.7121 26L20.9767 24.1143L17.2879 26L17.9883 22.0041L15 19.2204L19.1556 18.6367L20.9767 15Z" stroke="#AB064E" stroke-width="1.4" stroke-miterlimit="10"/>
<path d="M31.455 20.8103C31.455 26.5187 26.7829 31.1617 21.0004 31.1617C15.218 31.1617 10.5459 26.5187 10.5459 20.8103C10.5459 15.102 15.218 10.459 21.0004 10.459C26.7829 10.459 31.455 15.102 31.455 20.8103Z" stroke="#AB064E" stroke-width="2"/>
</g>
<defs>
<clipPath id="clip0">
<rect width="42" height="35" fill="white"/>
</clipPath>
</defs>
</svg>
