<svg width="41" height="35" viewBox="0 0 41 35" fill="none" xmlns="http://www.w3.org/2000/svg">
<path d="M31.1842 1.84751L30.1249 1H21.0141C20.3785 1 19.531 1 19.1072 1.63563L2.79259 17.7384C1.7332 18.7978 1.7332 20.4928 2.79259 21.5522L14.4459 33.2055C15.5053 34.2648 17.2003 34.2648 18.2597 33.2055L34.5743 16.8909C34.998 16.4671 35.4218 15.6196 35.4218 14.984V5.87319L34.1505 4.8138" stroke="#AB064E" stroke-width="2" stroke-miterlimit="10"/>
<path d="M28.6416 4.38867L32.0316 7.77872" stroke="#AB064E" stroke-width="1.8" stroke-miterlimit="10"/>
<path d="M29.9121 5.87251C30.7596 3.9656 32.6665 2.69434 34.7853 2.69434C37.7516 2.69434 40.0823 5.02499 40.0823 7.99129C40.0823 10.1101 39.0229 11.8051 37.3278 12.6526C36.4803 13.0764 35.6328 13.2882 34.7853 13.2882" stroke="#AB064E" stroke-width="1.8" stroke-miterlimit="10"/>
<path d="M14.0703 12.3398L24.0714 22.3409" stroke="#AB064E" stroke-width="2" stroke-linejoin="round"/>
<path d="M16.5703 9.83984L26.5715 19.841" stroke="#AB064E" stroke-width="2" stroke-linejoin="round"/>
<path d="M11.5703 14.8408L21.5714 24.842" stroke="#AB064E" stroke-width="2" stroke-linejoin="round"/>
<path d="M9.06934 17.3408L15.3201 23.5915" stroke="#AB064E" stroke-width="2" stroke-linejoin="round"/>
</svg>
