<svg width="37" height="31" viewBox="0 0 37 31" fill="none" xmlns="http://www.w3.org/2000/svg">
<path d="M18.2104 23.1562C19.3331 23.1562 20.2432 22.2462 20.2432 21.1235C20.2432 20.0009 19.3331 19.0908 18.2104 19.0908C17.0878 19.0908 16.1777 20.0009 16.1777 21.1235C16.1777 22.2462 17.0878 23.1562 18.2104 23.1562Z" stroke="#AB064E" stroke-width="2" stroke-miterlimit="10"/>
<path d="M15.0254 24.2414L16.5838 22.6152" stroke="#AB064E" stroke-width="2" stroke-miterlimit="10"/>
<path d="M19.6328 19.6332L26.002 13.1963" stroke="#AB064E" stroke-width="2" stroke-miterlimit="10"/>
<path d="M25.6631 15.7031C26.7472 17.2615 27.4248 19.1587 27.4248 21.1914" stroke="#AB064E" stroke-width="2" stroke-miterlimit="10"/>
<path d="M8.72461 21.1913C8.72461 16.0418 12.9255 11.8408 18.0751 11.8408C19.9723 11.8408 21.8017 12.4506 23.2924 13.3992" stroke="#AB064E" stroke-width="2" stroke-miterlimit="10"/>
<path d="M33.6589 30H2.8972C1.88084 30 1 29.1869 1 28.1028V2.8972C1 1.88084 1.81308 1 2.8972 1H33.7266C34.743 1 35.6238 1.81308 35.6238 2.8972V28.1706C35.5561 29.1869 34.743 30 33.6589 30Z" stroke="#AB064E" stroke-width="2" stroke-miterlimit="10"/>
<path d="M4.99764 2.35547H3.30371V4.04939H4.99764V2.35547Z" fill="#AB064E"/>
<path d="M8.11482 2.35547H6.4209V4.04939H8.11482V2.35547Z" fill="#AB064E"/>
<path d="M11.2994 2.35547H9.60547V4.04939H11.2994V2.35547Z" fill="#AB064E"/>
<path d="M1 5.33691H35.5561" stroke="#AB064E" stroke-width="2" stroke-miterlimit="10"/>
</svg>
