<svg width="19" height="20" viewBox="0 0 19 20" fill="none" xmlns="http://www.w3.org/2000/svg">
<path d="M9.623 1C4.861 1 1 4.861 1 9.623C1 11.377 1.524 13.008 2.423 14.369L1.319 18.464L5.73 17.32C6.9 17.912 8.223 18.248 9.624 18.248C14.388 18.248 18.248 14.388 18.248 9.623C18.246 4.862 14.386 1 9.623 1Z" stroke="#888888" stroke-width="1.3849"/>
<path d="M9.49422 6.80399C10.083 6.80399 10.5602 6.32673 10.5602 5.738C10.5602 5.14926 10.083 4.672 9.49422 4.672C8.90549 4.672 8.42822 5.14926 8.42822 5.738C8.42822 6.32673 8.90549 6.80399 9.49422 6.80399Z" fill="#888888"/>
<path d="M10.6582 13.411C10.5202 13.385 10.4102 13.28 10.3772 13.143V8.83001V8.35301V7.68201H8.24917V8.83001H8.62417C8.76717 8.85301 8.88017 8.96101 8.91517 9.10001V13.146C8.88117 13.281 8.77117 13.385 8.63317 13.412H8.20117V14.562H11.1272V13.412H10.6582V13.411Z" fill="#888888"/>
</svg>
