<svg width="73" height="28" viewBox="0 0 73 28" fill="none" xmlns="http://www.w3.org/2000/svg">
<path d="M71.62 14.9895C71.85 14.7053 72 14.3474 72 13.9474C72 13.5474 71.85 13.1895 71.62 12.9053L65.25 4.8421C65.23 4.81052 65.21 4.78947 65.18 4.75789L65.17 4.74736C64.99 4.57894 64.76 4.46316 64.5 4.46316H1.49C0.94 4.46316 0.5 4.92631 0.5 5.50526V22.3684C0.5 22.9474 0.94 23.4105 1.49 23.4105H64.51C64.77 23.4105 65 23.2947 65.18 23.1263V23.1368L65.19 23.1158C65.21 23.0947 65.22 23.0737 65.24 23.0526L71.62 14.9895Z" fill="#AB064E"/>
<path d="M64.5 15.5263C65.3284 15.5263 66 14.8194 66 13.9474C66 13.0753 65.3284 12.3684 64.5 12.3684C63.6716 12.3684 63 13.0753 63 13.9474C63 14.8194 63.6716 15.5263 64.5 15.5263Z" fill="white"/>
<path d="M12.8384 15.105L14.3799 15.5938C14.1436 16.4531 13.7497 17.0923 13.1982 17.5112C12.6504 17.9266 11.9539 18.1343 11.1089 18.1343C10.0633 18.1343 9.20394 17.778 8.53076 17.0654C7.85758 16.3493 7.521 15.3717 7.521 14.1328C7.521 12.8223 7.85938 11.8053 8.53613 11.082C9.21289 10.3551 10.1027 9.9917 11.2056 9.9917C12.1688 9.9917 12.9512 10.2764 13.5527 10.8457C13.9108 11.1823 14.1794 11.6657 14.3584 12.2959L12.7847 12.6719C12.6916 12.2637 12.4964 11.9414 12.1992 11.7051C11.9056 11.4688 11.5475 11.3506 11.125 11.3506C10.5413 11.3506 10.0669 11.5601 9.70166 11.979C9.34001 12.3979 9.15918 13.0765 9.15918 14.0146C9.15918 15.0101 9.33822 15.7191 9.69629 16.1416C10.0544 16.5641 10.5199 16.7754 11.0928 16.7754C11.5153 16.7754 11.8787 16.6411 12.1831 16.3726C12.4875 16.104 12.7059 15.6815 12.8384 15.105ZM16.3264 10.126H17.9162V13.4775C18.2707 13.4417 18.5106 13.3504 18.6359 13.2036C18.7613 13.0568 18.9546 12.6486 19.216 11.979C19.5454 11.1268 19.8767 10.5968 20.2097 10.3892C20.5391 10.1815 21.0708 10.0776 21.8049 10.0776C21.8407 10.0776 21.9177 10.0758 22.0358 10.0723V11.2485L21.8103 11.2432C21.4844 11.2432 21.2463 11.2843 21.0959 11.3667C20.9455 11.4455 20.8238 11.5672 20.7307 11.7319C20.6376 11.8966 20.4997 12.235 20.3171 12.7471C20.2204 13.0192 20.1148 13.2466 20.0002 13.4292C19.8892 13.6118 19.6905 13.7837 19.404 13.9448C19.7585 14.0451 20.0503 14.2474 20.2795 14.5518C20.5122 14.8561 20.7665 15.2858 21.0422 15.8408L22.1164 18H20.2473L19.3073 15.9644C19.293 15.9357 19.2626 15.8802 19.216 15.7979C19.1981 15.7692 19.1319 15.6457 19.0173 15.4272C18.8132 15.0405 18.6449 14.7988 18.5124 14.7021C18.3835 14.6055 18.1848 14.5553 17.9162 14.5518V18H16.3264V10.126ZM23.5849 10.126H25.0727V15.3682L28.2631 10.126H29.8476V18H28.3598V12.8599L25.1747 18H23.5849V10.126ZM32.6534 10.126H38.0943V16.6787H38.7872V19.7188H37.4659V18H32.5084V19.7188H31.1871V16.6787H31.8531C32.179 16.0055 32.3938 15.2249 32.4977 14.3369C32.6015 13.4453 32.6534 12.3192 32.6534 10.9585V10.126ZM34.1681 11.4473C34.1681 13.8392 33.9514 15.583 33.5182 16.6787H36.5099V11.4473H34.1681ZM40.4383 10.126H42.0281V13.4775C42.3826 13.4417 42.6225 13.3504 42.7479 13.2036C42.8732 13.0568 43.0665 12.6486 43.3279 11.979C43.6574 11.1268 43.9886 10.5968 44.3216 10.3892C44.651 10.1815 45.1827 10.0776 45.9168 10.0776C45.9526 10.0776 46.0296 10.0758 46.1478 10.0723V11.2485L45.9222 11.2432C45.5963 11.2432 45.3582 11.2843 45.2078 11.3667C45.0574 11.4455 44.9357 11.5672 44.8426 11.7319C44.7495 11.8966 44.6116 12.235 44.429 12.7471C44.3323 13.0192 44.2267 13.2466 44.1121 13.4292C44.0011 13.6118 43.8024 13.7837 43.5159 13.9448C43.8704 14.0451 44.1622 14.2474 44.3914 14.5518C44.6242 14.8561 44.8784 15.2858 45.1541 15.8408L46.2283 18H44.3592L43.4192 15.9644C43.4049 15.9357 43.3745 15.8802 43.3279 15.7979C43.31 15.7692 43.2438 15.6457 43.1292 15.4272C42.9251 15.0405 42.7568 14.7988 42.6243 14.7021C42.4954 14.6055 42.2967 14.5553 42.0281 14.5518V18H40.4383V10.126ZM47.6968 10.126H49.1846V15.3682L52.375 10.126H53.9595V18H52.4717V12.8599L49.2866 18H47.6968V10.126Z" fill="white"/>
</svg>
