<svg width="21" height="19" viewBox="0 0 21 19" fill="none" xmlns="http://www.w3.org/2000/svg">
<path d="M17.6917 8.20441C18.425 8.9193 18.425 10.081 17.6917 10.7959" stroke="#878787" stroke-miterlimit="10"/>
<path d="M19.25 6.68524C20.9 8.29375 20.9 10.7959 19.25 12.4044" stroke="#878787" stroke-miterlimit="10"/>
<path d="M4.30842 10.7958C3.57509 10.0809 3.57509 8.91918 4.30842 8.20428" stroke="#878787" stroke-miterlimit="10"/>
<path d="M2.6584 12.3149C1.0084 10.7063 1.0084 8.20421 2.6584 6.5957" stroke="#878787" stroke-miterlimit="10"/>
<path d="M14.5751 18.1242H7.3334C6.69173 18.1242 6.2334 17.6774 6.2334 17.0519V2.03914C6.2334 1.41361 6.69173 0.966797 7.3334 0.966797H14.5751C15.2167 0.966797 15.6751 1.41361 15.6751 2.03914V17.0519C15.6751 17.5881 15.2167 18.1242 14.5751 18.1242Z" stroke="#878787" stroke-width="1.25" stroke-miterlimit="10"/>
<path d="M6.2334 15.4434H15.6751" stroke="#878787" stroke-width="0.5" stroke-miterlimit="10"/>
<path d="M10.0834 16.8733H11.9167" stroke="#878787" stroke-width="0.75" stroke-miterlimit="10"/>
</svg>
