<svg width="20" height="20" viewBox="0 0 20 20" fill="none" xmlns="http://www.w3.org/2000/svg">
<path d="M9.84502 11.4789C11.9432 11.4789 13.644 9.77799 13.644 7.67986C13.644 5.58173 11.9432 3.88086 9.84502 3.88086C7.74689 3.88086 6.04602 5.58173 6.04602 7.67986C6.04602 9.77799 7.74689 11.4789 9.84502 11.4789Z" stroke="#878787" stroke-width="0.9059"/>
<path d="M9.84504 1.5C6.43204 1.5 3.66504 4.266 3.66504 7.68C3.66504 7.776 3.66804 7.871 3.67304 7.967C3.67504 8.002 3.67704 8.037 3.67904 8.071C3.68404 8.132 3.68804 8.19 3.69304 8.249C3.69704 8.292 3.70204 8.335 3.70704 8.38C3.71304 8.425 3.71904 8.47 3.72404 8.517C3.73004 8.566 3.73704 8.617 3.74504 8.668C3.74904 8.689 3.75304 8.711 3.75704 8.734C3.79504 8.955 3.84504 9.172 3.90604 9.384C3.90704 9.389 3.90904 9.395 3.91004 9.4C3.93104 9.476 3.95604 9.55 3.97904 9.625L3.96904 9.639C3.96904 9.639 4.94604 12.668 9.75504 18.457H9.75704C9.77704 18.482 9.81004 18.5 9.84504 18.5C9.88104 18.5 9.91204 18.482 9.93404 18.457H9.93604C14.745 12.668 15.721 9.639 15.721 9.639L15.71 9.625C15.734 9.551 15.758 9.477 15.78 9.4C15.782 9.394 15.782 9.388 15.784 9.384C15.846 9.171 15.894 8.954 15.932 8.734C15.937 8.711 15.941 8.689 15.945 8.668C15.953 8.617 15.96 8.566 15.966 8.516C15.972 8.469 15.979 8.424 15.984 8.379C15.989 8.334 15.993 8.291 15.997 8.248C16.003 8.189 16.007 8.131 16.011 8.07C16.014 8.037 16.017 8.002 16.017 7.966C16.023 7.87 16.026 7.775 16.026 7.679C16.025 4.266 13.258 1.5 9.84504 1.5Z" stroke="#878787" stroke-width="1.2545"/>
</svg>
