<svg width="144" height="20" viewBox="0 0 144 20" fill="none" xmlns="http://www.w3.org/2000/svg">
<g clip-path="url(#clip0)">
<path d="M14.626 16.863L16.749 4.40002H20.146L18.021 16.863H14.626Z" fill="#565655"/>
<path d="M30.3409 4.70702C29.6679 4.45502 28.6129 4.18402 27.2959 4.18402C23.9409 4.18402 21.5749 5.87302 21.5559 8.29502C21.5359 10.088 23.2439 11.088 24.5329 11.684C25.8549 12.293 26.2989 12.684 26.2929 13.229C26.2849 14.065 25.2379 14.446 24.2619 14.446C22.9019 14.446 22.1799 14.257 21.0649 13.794L20.6269 13.593L20.1489 16.384C20.9439 16.732 22.4109 17.034 23.9339 17.048C27.5039 17.048 29.8229 15.378 29.8479 12.792C29.8619 11.372 28.9559 10.294 26.9959 9.40302C25.8079 8.82902 25.0819 8.44202 25.0899 7.86002C25.0899 7.34202 25.7049 6.78802 27.0349 6.78802C28.1449 6.77002 28.9499 7.01302 29.5779 7.26702L29.8819 7.41202L30.3409 4.70702Z" fill="#565655"/>
<path d="M39.052 4.41205H36.427C35.614 4.41205 35.005 4.63505 34.65 5.44705L29.604 16.865H33.171C33.171 16.865 33.754 15.332 33.886 14.994C34.276 14.994 37.74 15 38.236 15C38.338 15.436 38.65 16.865 38.65 16.865H41.8L39.052 4.41205ZM34.863 12.445C35.143 11.726 36.216 8.96105 36.216 8.96105C36.196 8.99405 36.495 8.24005 36.667 7.77205L36.896 8.84605C36.896 8.84605 37.548 11.821 37.683 12.446H34.863V12.445Z" fill="#565655"/>
<path d="M11.776 4.41003L8.45097 12.908L8.09697 11.181C7.47797 9.19103 5.54797 7.03103 3.39197 5.95203L6.43297 16.85L10.027 16.846L15.374 4.41003H11.776Z" fill="#565655"/>
<path d="M5.36499 4.40002H-0.113006L-0.156006 4.66002C4.10599 5.69102 6.92499 8.18502 8.09599 11.181L6.90499 5.45502C6.69999 4.66602 6.10399 4.43002 5.36499 4.40002Z" fill="#B1B2B3"/>
<path d="M64.167 10.033C64.167 7.01302 65.579 4.32402 67.774 2.58602C66.155 1.30302 64.108 0.53302 61.881 0.53302C56.633 0.53302 52.381 4.78702 52.381 10.033C52.381 15.281 56.633 19.533 61.881 19.533C64.108 19.533 66.154 18.767 67.774 17.482C65.579 15.742 64.167 13.055 64.167 10.033Z" fill="#868786"/>
<path d="M64.167 10.033C64.167 13.054 65.579 15.742 67.774 17.482C69.971 15.742 71.381 13.054 71.381 10.033C71.381 7.013 69.971 4.324 67.774 2.586C65.579 4.324 64.167 7.014 64.167 10.033Z" fill="#B1B2B3"/>
<path d="M73.6669 0.53302C71.4399 0.53302 69.3939 1.30302 67.7739 2.58602C69.9709 4.32402 71.3809 7.01402 71.3809 10.033C71.3809 13.054 69.9709 15.742 67.7739 17.482C69.3929 18.767 71.4399 19.533 73.6669 19.533C78.9149 19.533 83.1669 15.281 83.1669 10.033C83.1669 4.78702 78.9149 0.53302 73.6669 0.53302Z" fill="#D9DADA"/>
</g>
<path d="M121.815 5.3963L118.668 11.6556H118.353V4.0321H113.878V16.9358H117.671C118.668 16.9358 119.577 16.4062 119.996 15.5716L123.143 9.31235H123.458V16.9358H127.934V4.0321H124.14C123.143 4.0321 122.234 4.56173 121.815 5.3963Z" fill="#6E6E6E"/>
<path d="M105.031 5.71729L103.161 11.6556H102.846L100.975 5.71729C100.661 4.72223 99.6643 4.0321 98.5279 4.0321H94.0524V16.9358H98.5279V9.31235H98.8426L101.395 16.9358H104.594L107.147 9.31235H107.461V16.9358H111.937V4.0321H107.479C106.343 4.0321 105.346 4.72223 105.031 5.71729Z" fill="#6E6E6E"/>
<path d="M129.857 9.89014V16.9358H134.315V12.8272H139.122C141.203 12.8272 142.986 11.6074 143.633 9.89014H129.857Z" fill="#6E6E6E"/>
<path d="M139.122 4.0321H129.21C129.804 7.03334 132.671 9.31235 136.115 9.31235H143.808C143.878 9.02346 143.895 8.73457 143.895 8.42964C143.913 6.00618 141.762 4.0321 139.122 4.0321Z" fill="#B1B2B3"/>
<defs>
<clipPath id="clip0">
<rect width="138" height="20" fill="white"/>
</clipPath>
</defs>
</svg>
