<svg width="26" height="36" viewBox="0 0 26 36" fill="none" xmlns="http://www.w3.org/2000/svg">
<path d="M12.9976 21.3291C17.0704 21.3291 20.3721 18.0274 20.3721 13.9546C20.3721 9.88177 17.0704 6.58008 12.9976 6.58008C8.92474 6.58008 5.62305 9.88177 5.62305 13.9546C5.62305 18.0274 8.92474 21.3291 12.9976 21.3291Z" stroke="#AB064E" stroke-width="1.8"/>
<path d="M12.9965 1.95801C6.37124 1.95801 1 7.3273 1 13.9545C1 14.1408 1.00582 14.3252 1.01553 14.5116C1.01941 14.5795 1.02329 14.6475 1.02718 14.7135C1.03688 14.8319 1.04465 14.9445 1.05435 15.059C1.06212 15.1425 1.07182 15.2259 1.08153 15.3133C1.09318 15.4007 1.10482 15.488 1.11453 15.5792C1.12618 15.6744 1.13976 15.7734 1.15529 15.8724C1.16306 15.9131 1.17082 15.9558 1.17859 16.0005C1.25235 16.4295 1.34941 16.8507 1.46782 17.2622C1.46976 17.2719 1.47365 17.2836 1.47559 17.2933C1.51635 17.4408 1.56488 17.5845 1.60953 17.7301L1.59012 17.7572C1.59012 17.7572 3.48665 23.6371 12.8218 34.8745H12.8256C12.8645 34.9231 12.9285 34.958 12.9965 34.958C13.0664 34.958 13.1265 34.9231 13.1692 34.8745H13.1731C22.5082 23.6371 24.4028 17.7572 24.4028 17.7572L24.3815 17.7301C24.4281 17.5864 24.4746 17.4428 24.5174 17.2933C24.5212 17.2817 24.5212 17.27 24.5251 17.2622C24.6455 16.8488 24.7386 16.4275 24.8124 16.0005C24.8221 15.9558 24.8299 15.9131 24.8376 15.8724C24.8532 15.7734 24.8668 15.6744 24.8784 15.5773C24.8901 15.4861 24.9036 15.3987 24.9134 15.3114C24.9231 15.224 24.9308 15.1405 24.9386 15.0571C24.9502 14.9425 24.958 14.8299 24.9658 14.7115C24.9716 14.6475 24.9774 14.5795 24.9774 14.5097C24.9891 14.3233 24.9949 14.1389 24.9949 13.9525C24.9929 7.3273 19.6217 1.95801 12.9965 1.95801Z" stroke="#AB064E" stroke-width="2"/>
</svg>
