<svg width="40" height="35" viewBox="0 0 40 35" fill="none" xmlns="http://www.w3.org/2000/svg">
<path d="M19.6688 1.84277L10.1816 5.15747V16.1623L19.6688 19.3852L29.1661 16.1623V5.15747L19.6688 1.84277Z" stroke="#AB064E" stroke-width="1.6"/>
<path d="M29.1661 5.15723L19.679 8.41073L10.1816 5.15723" stroke="#AB064E" stroke-width="1.2"/>
<path d="M19.668 19.0692V8.41113" stroke="#AB064E" stroke-width="1.2"/>
<path d="M15.0625 3.32129L24.2949 6.69718" stroke="#AB064E" stroke-width="1.2"/>
<path d="M29.4637 16.3008L19.9766 19.6155V30.6203L29.4637 33.8432L38.9611 30.6203V19.6155L29.4637 16.3008Z" stroke="#AB064E" stroke-width="1.6"/>
<path d="M38.9611 19.6143L29.4739 22.8678L19.9766 19.6143" stroke="#AB064E" stroke-width="1.2"/>
<path d="M29.4629 33.5272V22.8691" stroke="#AB064E" stroke-width="1.2"/>
<path d="M24.8574 17.7783L34.0898 21.1542" stroke="#AB064E" stroke-width="1.2"/>
<path d="M10.4872 16.3008L1 19.6155V30.6203L10.4872 33.8432L19.9845 30.6203V19.6155L10.4872 16.3008Z" stroke="#AB064E" stroke-width="1.6"/>
<path d="M19.9845 19.6143L10.4973 22.8678L1 19.6143" stroke="#AB064E" stroke-width="1.2"/>
<path d="M10.4863 33.5272V22.8691" stroke="#AB064E" stroke-width="1.2"/>
<path d="M5.88086 17.7783L15.1133 21.1542" stroke="#AB064E" stroke-width="1.2"/>
</svg>
