<svg width="45" height="38" viewBox="0 0 45 38" fill="none" xmlns="http://www.w3.org/2000/svg">
<path d="M5.06981 18.8818C6.60881 18.8818 7.85641 17.6342 7.85641 16.0952C7.85641 14.5562 6.60881 13.3086 5.06981 13.3086C3.53081 13.3086 2.2832 14.5562 2.2832 16.0952C2.2832 17.6342 3.53081 18.8818 5.06981 18.8818Z" stroke="#AB064E" stroke-width="1.87352" stroke-miterlimit="10" stroke-linejoin="round"/>
<path d="M9.24835 23.451V21.6118C9.24835 20.107 7.40919 18.8252 5.12418 18.8252C2.83916 18.8252 1 20.0513 1 21.6118V23.451" stroke="#AB064E" stroke-width="1.87352" stroke-miterlimit="10" stroke-linejoin="round"/>
<path d="M39.1206 18.8818C40.6596 18.8818 41.9072 17.6342 41.9072 16.0952C41.9072 14.5562 40.6596 13.3086 39.1206 13.3086C37.5816 13.3086 36.334 14.5562 36.334 16.0952C36.334 17.6342 37.5816 18.8818 39.1206 18.8818Z" stroke="#AB064E" stroke-width="1.87352" stroke-miterlimit="10" stroke-linejoin="round"/>
<path d="M43.3011 23.451V21.6118C43.3011 20.107 41.4619 18.8252 39.1769 18.8252C36.8919 18.8252 35.0527 20.0513 35.0527 21.6118V23.451" stroke="#AB064E" stroke-width="1.87352" stroke-miterlimit="10" stroke-linejoin="round"/>
<path d="M36.8348 5.05859V9.68436H32.209" stroke="#AB064E" stroke-width="2" stroke-miterlimit="10" stroke-linecap="round" stroke-linejoin="round"/>
<path d="M7.41016 9.68494C10.4754 4.66905 15.8257 1.38086 22.1234 1.38086C28.4212 1.38086 33.7714 4.66905 36.8367 9.68494" stroke="#AB064E" stroke-width="2" stroke-miterlimit="10" stroke-linecap="round" stroke-linejoin="round"/>
<path d="M7.41016 32.7029V28.0771H11.9802" stroke="#AB064E" stroke-width="2" stroke-miterlimit="10" stroke-linecap="round" stroke-linejoin="round"/>
<path d="M36.8367 28.0771C33.7714 33.0373 28.3654 36.3812 22.1234 36.3812C15.8257 36.3812 10.4754 33.093 7.41016 28.0771" stroke="#AB064E" stroke-width="2" stroke-miterlimit="10" stroke-linecap="round" stroke-linejoin="round"/>
<path d="M29.4791 18.8804C29.4791 18.546 29.4234 18.2116 29.4234 17.8772L31.2068 16.2052L28.9775 12.3597L26.6368 13.0842C26.0795 12.6941 25.5221 12.304 24.8534 12.0811L24.296 9.68457H19.8932L19.3359 12.0811C18.7228 12.3597 18.1098 12.6941 17.5525 13.0842L15.2117 12.3597L12.9824 16.2052L14.7658 17.8772C14.7101 18.2116 14.7101 18.546 14.7101 18.8804C14.7101 19.2148 14.7658 19.5492 14.7658 19.8835L12.9824 21.5555L15.2117 25.401L17.5525 24.6765C18.1098 25.0666 18.6671 25.4568 19.3359 25.6797L19.8932 28.0762H24.296L24.8534 25.6797C25.4664 25.401 26.0795 25.0666 26.6368 24.6765L28.9775 25.401L31.2068 21.5555L29.4234 19.8835C29.4234 19.5492 29.4791 19.2148 29.4791 18.8804Z" stroke="#AB064E" stroke-width="1.87352" stroke-miterlimit="10" stroke-linejoin="round"/>
<path d="M22.1225 21.667C23.6615 21.667 24.9091 20.4194 24.9091 18.8804C24.9091 17.3414 23.6615 16.0938 22.1225 16.0938C20.5835 16.0938 19.3359 17.3414 19.3359 18.8804C19.3359 20.4194 20.5835 21.667 22.1225 21.667Z" stroke="#AB064E" stroke-width="1.87352" stroke-miterlimit="10" stroke-linejoin="round"/>
</svg>
