<svg width="54" height="54" viewBox="0 0 54 54" fill="none" xmlns="http://www.w3.org/2000/svg">
<path d="M27.4853 18.6016L18.918 21.5949V31.5327L27.4853 34.4431L36.0618 31.5327V21.5949L27.4853 18.6016Z" fill="white" stroke="#AB064E" stroke-width="2"/>
<path d="M36.0618 21.5947L27.4945 24.5328L18.918 21.5947" fill="white"/>
<path d="M36.0618 21.5947L27.4945 24.5328L18.918 21.5947" stroke="#AB064E" stroke-width="1.2"/>
<path d="M27.4844 34.1579V24.5332Z" fill="white"/>
<path d="M27.4844 34.1579V24.5332" stroke="#AB064E" stroke-width="1.2"/>
<path d="M23.3262 19.9365L31.6634 22.9851Z" fill="white"/>
<path d="M23.3262 19.9365L31.6634 22.9851" stroke="#AB064E" stroke-width="1.2"/>
<path d="M15.8848 18.1859L11.2047 18.1859L11.2047 13.5059" fill="white"/>
<path d="M15.8848 18.1859L11.2047 18.1859L11.2047 13.5059" stroke="#AB064E" stroke-width="2" stroke-miterlimit="10" stroke-linecap="round" stroke-linejoin="round"/>
<path d="M14.4414 39.1885C21.3558 46.1028 32.5661 46.1028 39.4805 39.1885C46.3948 32.2741 46.3948 21.0638 39.4805 14.1494C32.5661 7.23507 21.3558 7.23507 14.4414 14.1494C13.3849 15.206 12.4898 16.3628 11.7561 17.5893" stroke="#AB064E" stroke-width="2"/>
</svg>
