<svg width="253" height="94" viewBox="0 0 253 94" fill="none" xmlns="http://www.w3.org/2000/svg">
<path d="M251.5 39.3V34.6C251.5 32.6 249.9 30.9 247.8 30.9H242.8C244.8 30.9 246.5 29.3 246.5 27.2V22.7C246.5 20.7 244.9 19 242.8 19H132.2C130.2 19 128.5 20.6 128.5 22.7V27.4C128.5 29.4 130.1 31.1 132.2 31.1H137.2C135.2 31.1 133.5 32.7 133.5 34.8V39.5C133.5 41.5 135.1 43.2 137.2 43.2H132.2C130.2 43.2 128.5 44.8 128.5 46.9V51.6C128.5 53.6 130.1 55.3 132.2 55.3H137.2C135.2 55.3 133.5 56.9 133.5 59V63.7C133.5 65.7 135.1 67.4 137.2 67.4H132.2C130.2 67.4 128.5 69 128.5 71.1V75.8C128.5 77.8 130.1 79.5 132.2 79.5H242.9C244.9 79.5 246.6 77.9 246.6 75.8V71.1C246.6 69.1 245 67.4 242.9 67.4H247.9C249.9 67.4 251.6 65.8 251.6 63.7V59C251.6 57 250 55.3 247.9 55.3H242.9C244.9 55.3 246.6 53.7 246.6 51.6V46.9C246.6 44.9 245 43.2 242.9 43.2H247.9C249.9 43 251.5 41.4 251.5 39.3Z" fill="white"/>
<path d="M247.8 42.9999H137.2C135.2 42.9999 133.5 41.3999 133.5 39.2999V34.5999C133.5 32.5999 135.1 30.8999 137.2 30.8999H247.9C249.9 30.8999 251.6 32.4999 251.6 34.5999V39.2999C251.5 41.3999 249.9 42.9999 247.8 42.9999Z" stroke="#DDDDDD" stroke-miterlimit="10"/>
<path d="M242.8 31H132.2C130.2 31 128.5 29.4 128.5 27.3V22.7C128.5 20.7 130.1 19 132.2 19H242.9C244.9 19 246.6 20.6 246.6 22.7V27.4C246.5 29.4 244.9 31 242.8 31Z" stroke="#DDDDDD" stroke-miterlimit="10"/>
<path d="M242.8 78.9999H132.2C130.2 78.9999 128.5 77.3999 128.5 75.2999V70.5999C128.5 68.5999 130.1 66.8999 132.2 66.8999H242.9C244.9 66.8999 246.6 68.4999 246.6 70.5999V75.2999C246.5 77.3999 244.9 78.9999 242.8 78.9999Z" stroke="#DDDDDD" stroke-miterlimit="10"/>
<path d="M247.8 66.9999H137.2C135.2 66.9999 133.5 65.3999 133.5 63.2999V58.5999C133.5 56.5999 135.1 54.8999 137.2 54.8999H247.9C249.9 54.8999 251.6 56.4999 251.6 58.5999V63.2999C251.5 65.3999 249.9 66.9999 247.8 66.9999Z" stroke="#DDDDDD" stroke-miterlimit="10"/>
<path d="M242.8 54.9999H132.2C130.2 54.9999 128.5 53.3999 128.5 51.2999V46.5999C128.5 44.5999 130.1 42.8999 132.2 42.8999H242.9C244.9 42.8999 246.6 44.4999 246.6 46.5999V51.2999C246.5 53.3999 244.9 54.9999 242.8 54.9999Z" stroke="#DDDDDD" stroke-miterlimit="10"/>
<path d="M128.8 21H246.2" stroke="#DDDDDD" stroke-width="0.5" stroke-miterlimit="10"/>
<path d="M128.8 29H246.2" stroke="#DDDDDD" stroke-width="0.5" stroke-miterlimit="10"/>
<path d="M131.4 21V29" stroke="#DDDDDD" stroke-width="0.5" stroke-miterlimit="10"/>
<path d="M135.4 21V29" stroke="#DDDDDD" stroke-width="0.5" stroke-miterlimit="10"/>
<path d="M139.4 21V29" stroke="#DDDDDD" stroke-width="0.5" stroke-miterlimit="10"/>
<path d="M143.4 21V29" stroke="#DDDDDD" stroke-width="0.5" stroke-miterlimit="10"/>
<path d="M147.4 21V29" stroke="#DDDDDD" stroke-width="0.5" stroke-miterlimit="10"/>
<path d="M151.4 21V29" stroke="#DDDDDD" stroke-width="0.5" stroke-miterlimit="10"/>
<path d="M155.4 21V29" stroke="#DDDDDD" stroke-width="0.5" stroke-miterlimit="10"/>
<path d="M159.4 21V29" stroke="#DDDDDD" stroke-width="0.5" stroke-miterlimit="10"/>
<path d="M163.4 21V29" stroke="#DDDDDD" stroke-width="0.5" stroke-miterlimit="10"/>
<path d="M167.4 21V29" stroke="#DDDDDD" stroke-width="0.5" stroke-miterlimit="10"/>
<path d="M171.4 21V29" stroke="#DDDDDD" stroke-width="0.5" stroke-miterlimit="10"/>
<path d="M175.4 21V29" stroke="#DDDDDD" stroke-width="0.5" stroke-miterlimit="10"/>
<path d="M179.4 21V29" stroke="#DDDDDD" stroke-width="0.5" stroke-miterlimit="10"/>
<path d="M183.4 21V29" stroke="#DDDDDD" stroke-width="0.5" stroke-miterlimit="10"/>
<path d="M187.4 21V29" stroke="#DDDDDD" stroke-width="0.5" stroke-miterlimit="10"/>
<path d="M191.4 21V29" stroke="#DDDDDD" stroke-width="0.5" stroke-miterlimit="10"/>
<path d="M195.4 21V29" stroke="#DDDDDD" stroke-width="0.5" stroke-miterlimit="10"/>
<path d="M199.4 21V29" stroke="#DDDDDD" stroke-width="0.5" stroke-miterlimit="10"/>
<path d="M203.4 21V29" stroke="#DDDDDD" stroke-width="0.5" stroke-miterlimit="10"/>
<path d="M207.4 21V29" stroke="#DDDDDD" stroke-width="0.5" stroke-miterlimit="10"/>
<path d="M211.4 21V29" stroke="#DDDDDD" stroke-width="0.5" stroke-miterlimit="10"/>
<path d="M215.4 21V29" stroke="#DDDDDD" stroke-width="0.5" stroke-miterlimit="10"/>
<path d="M219.4 21V29" stroke="#DDDDDD" stroke-width="0.5" stroke-miterlimit="10"/>
<path d="M223.4 21V29" stroke="#DDDDDD" stroke-width="0.5" stroke-miterlimit="10"/>
<path d="M227.4 21V29" stroke="#DDDDDD" stroke-width="0.5" stroke-miterlimit="10"/>
<path d="M231.4 21V29" stroke="#DDDDDD" stroke-width="0.5" stroke-miterlimit="10"/>
<path d="M235.4 21V29" stroke="#DDDDDD" stroke-width="0.5" stroke-miterlimit="10"/>
<path d="M239.4 21V29" stroke="#DDDDDD" stroke-width="0.5" stroke-miterlimit="10"/>
<path d="M243.4 21V29" stroke="#DDDDDD" stroke-width="0.5" stroke-miterlimit="10"/>
<path d="M133.8 33H251.2" stroke="#DDDDDD" stroke-width="0.5" stroke-miterlimit="10"/>
<path d="M133.8 41H251.2" stroke="#DDDDDD" stroke-width="0.5" stroke-miterlimit="10"/>
<path d="M136.4 33V41" stroke="#DDDDDD" stroke-width="0.5" stroke-miterlimit="10"/>
<path d="M140.4 33V41" stroke="#DDDDDD" stroke-width="0.5" stroke-miterlimit="10"/>
<path d="M144.4 33V41" stroke="#DDDDDD" stroke-width="0.5" stroke-miterlimit="10"/>
<path d="M148.4 33V41" stroke="#DDDDDD" stroke-width="0.5" stroke-miterlimit="10"/>
<path d="M152.4 33V41" stroke="#DDDDDD" stroke-width="0.5" stroke-miterlimit="10"/>
<path d="M156.4 33V41" stroke="#DDDDDD" stroke-width="0.5" stroke-miterlimit="10"/>
<path d="M160.4 33V41" stroke="#DDDDDD" stroke-width="0.5" stroke-miterlimit="10"/>
<path d="M164.4 33V41" stroke="#DDDDDD" stroke-width="0.5" stroke-miterlimit="10"/>
<path d="M168.4 33V41" stroke="#DDDDDD" stroke-width="0.5" stroke-miterlimit="10"/>
<path d="M172.4 33V41" stroke="#DDDDDD" stroke-width="0.5" stroke-miterlimit="10"/>
<path d="M176.4 33V41" stroke="#DDDDDD" stroke-width="0.5" stroke-miterlimit="10"/>
<path d="M180.4 33V41" stroke="#DDDDDD" stroke-width="0.5" stroke-miterlimit="10"/>
<path d="M184.4 33V41" stroke="#DDDDDD" stroke-width="0.5" stroke-miterlimit="10"/>
<path d="M188.4 33V41" stroke="#DDDDDD" stroke-width="0.5" stroke-miterlimit="10"/>
<path d="M192.4 33V41" stroke="#DDDDDD" stroke-width="0.5" stroke-miterlimit="10"/>
<path d="M196.4 33V41" stroke="#DDDDDD" stroke-width="0.5" stroke-miterlimit="10"/>
<path d="M200.4 33V41" stroke="#DDDDDD" stroke-width="0.5" stroke-miterlimit="10"/>
<path d="M204.4 33V41" stroke="#DDDDDD" stroke-width="0.5" stroke-miterlimit="10"/>
<path d="M208.4 33V41" stroke="#DDDDDD" stroke-width="0.5" stroke-miterlimit="10"/>
<path d="M212.4 33V41" stroke="#DDDDDD" stroke-width="0.5" stroke-miterlimit="10"/>
<path d="M216.4 33V41" stroke="#DDDDDD" stroke-width="0.5" stroke-miterlimit="10"/>
<path d="M220.4 33V41" stroke="#DDDDDD" stroke-width="0.5" stroke-miterlimit="10"/>
<path d="M224.4 33V41" stroke="#DDDDDD" stroke-width="0.5" stroke-miterlimit="10"/>
<path d="M228.4 33V41" stroke="#DDDDDD" stroke-width="0.5" stroke-miterlimit="10"/>
<path d="M232.4 33V41" stroke="#DDDDDD" stroke-width="0.5" stroke-miterlimit="10"/>
<path d="M236.4 33V41" stroke="#DDDDDD" stroke-width="0.5" stroke-miterlimit="10"/>
<path d="M240.4 33V41" stroke="#DDDDDD" stroke-width="0.5" stroke-miterlimit="10"/>
<path d="M244.4 33V41" stroke="#DDDDDD" stroke-width="0.5" stroke-miterlimit="10"/>
<path d="M248.4 33V41" stroke="#DDDDDD" stroke-width="0.5" stroke-miterlimit="10"/>
<path d="M128.8 45H246.2" stroke="#DDDDDD" stroke-width="0.5" stroke-miterlimit="10"/>
<path d="M128.8 53H246.2" stroke="#DDDDDD" stroke-width="0.5" stroke-miterlimit="10"/>
<path d="M128.8 69H246.2" stroke="#DDDDDD" stroke-width="0.5" stroke-miterlimit="10"/>
<path d="M128.8 77H246.2" stroke="#DDDDDD" stroke-width="0.5" stroke-miterlimit="10"/>
<path d="M131.4 69V77" stroke="#DDDDDD" stroke-width="0.5" stroke-miterlimit="10"/>
<path d="M135.4 69V77" stroke="#DDDDDD" stroke-width="0.5" stroke-miterlimit="10"/>
<path d="M139.4 69V77" stroke="#DDDDDD" stroke-width="0.5" stroke-miterlimit="10"/>
<path d="M143.4 69V77" stroke="#DDDDDD" stroke-width="0.5" stroke-miterlimit="10"/>
<path d="M147.4 69V77" stroke="#DDDDDD" stroke-width="0.5" stroke-miterlimit="10"/>
<path d="M151.4 69V77" stroke="#DDDDDD" stroke-width="0.5" stroke-miterlimit="10"/>
<path d="M155.4 69V77" stroke="#DDDDDD" stroke-width="0.5" stroke-miterlimit="10"/>
<path d="M159.4 69V77" stroke="#DDDDDD" stroke-width="0.5" stroke-miterlimit="10"/>
<path d="M163.4 69V77" stroke="#DDDDDD" stroke-width="0.5" stroke-miterlimit="10"/>
<path d="M167.4 69V77" stroke="#DDDDDD" stroke-width="0.5" stroke-miterlimit="10"/>
<path d="M171.4 69V77" stroke="#DDDDDD" stroke-width="0.5" stroke-miterlimit="10"/>
<path d="M175.4 69V77" stroke="#DDDDDD" stroke-width="0.5" stroke-miterlimit="10"/>
<path d="M179.4 69V77" stroke="#DDDDDD" stroke-width="0.5" stroke-miterlimit="10"/>
<path d="M183.4 69V77" stroke="#DDDDDD" stroke-width="0.5" stroke-miterlimit="10"/>
<path d="M187.4 69V77" stroke="#DDDDDD" stroke-width="0.5" stroke-miterlimit="10"/>
<path d="M191.4 69V77" stroke="#DDDDDD" stroke-width="0.5" stroke-miterlimit="10"/>
<path d="M195.4 69V77" stroke="#DDDDDD" stroke-width="0.5" stroke-miterlimit="10"/>
<path d="M199.4 69V77" stroke="#DDDDDD" stroke-width="0.5" stroke-miterlimit="10"/>
<path d="M203.4 69V77" stroke="#DDDDDD" stroke-width="0.5" stroke-miterlimit="10"/>
<path d="M207.4 69V77" stroke="#DDDDDD" stroke-width="0.5" stroke-miterlimit="10"/>
<path d="M211.4 69V77" stroke="#DDDDDD" stroke-width="0.5" stroke-miterlimit="10"/>
<path d="M215.4 69V77" stroke="#DDDDDD" stroke-width="0.5" stroke-miterlimit="10"/>
<path d="M219.4 69V77" stroke="#DDDDDD" stroke-width="0.5" stroke-miterlimit="10"/>
<path d="M223.4 69V77" stroke="#DDDDDD" stroke-width="0.5" stroke-miterlimit="10"/>
<path d="M227.4 69V77" stroke="#DDDDDD" stroke-width="0.5" stroke-miterlimit="10"/>
<path d="M231.4 69V77" stroke="#DDDDDD" stroke-width="0.5" stroke-miterlimit="10"/>
<path d="M235.4 69V77" stroke="#DDDDDD" stroke-width="0.5" stroke-miterlimit="10"/>
<path d="M239.4 69V77" stroke="#DDDDDD" stroke-width="0.5" stroke-miterlimit="10"/>
<path d="M243.4 69V77" stroke="#DDDDDD" stroke-width="0.5" stroke-miterlimit="10"/>
<path d="M133.8 57H251.2" stroke="#DDDDDD" stroke-width="0.5" stroke-miterlimit="10"/>
<path d="M133.8 65H251.2" stroke="#DDDDDD" stroke-width="0.5" stroke-miterlimit="10"/>
<path d="M136.4 57V65" stroke="#DDDDDD" stroke-width="0.5" stroke-miterlimit="10"/>
<path d="M140.4 57V65" stroke="#DDDDDD" stroke-width="0.5" stroke-miterlimit="10"/>
<path d="M144.4 57V65" stroke="#DDDDDD" stroke-width="0.5" stroke-miterlimit="10"/>
<path d="M148.4 57V65" stroke="#DDDDDD" stroke-width="0.5" stroke-miterlimit="10"/>
<path d="M152.4 57V65" stroke="#DDDDDD" stroke-width="0.5" stroke-miterlimit="10"/>
<path d="M156.4 57V65" stroke="#DDDDDD" stroke-width="0.5" stroke-miterlimit="10"/>
<path d="M160.4 57V65" stroke="#DDDDDD" stroke-width="0.5" stroke-miterlimit="10"/>
<path d="M164.4 57V65" stroke="#DDDDDD" stroke-width="0.5" stroke-miterlimit="10"/>
<path d="M168.4 57V65" stroke="#DDDDDD" stroke-width="0.5" stroke-miterlimit="10"/>
<path d="M172.4 57V65" stroke="#DDDDDD" stroke-width="0.5" stroke-miterlimit="10"/>
<path d="M176.4 57V65" stroke="#DDDDDD" stroke-width="0.5" stroke-miterlimit="10"/>
<path d="M180.4 57V65" stroke="#DDDDDD" stroke-width="0.5" stroke-miterlimit="10"/>
<path d="M184.4 57V65" stroke="#DDDDDD" stroke-width="0.5" stroke-miterlimit="10"/>
<path d="M188.4 57V65" stroke="#DDDDDD" stroke-width="0.5" stroke-miterlimit="10"/>
<path d="M192.4 57V65" stroke="#DDDDDD" stroke-width="0.5" stroke-miterlimit="10"/>
<path d="M196.4 57V65" stroke="#DDDDDD" stroke-width="0.5" stroke-miterlimit="10"/>
<path d="M200.4 57V65" stroke="#DDDDDD" stroke-width="0.5" stroke-miterlimit="10"/>
<path d="M204.4 57V65" stroke="#DDDDDD" stroke-width="0.5" stroke-miterlimit="10"/>
<path d="M208.4 57V65" stroke="#DDDDDD" stroke-width="0.5" stroke-miterlimit="10"/>
<path d="M212.4 57V65" stroke="#DDDDDD" stroke-width="0.5" stroke-miterlimit="10"/>
<path d="M216.4 57V65" stroke="#DDDDDD" stroke-width="0.5" stroke-miterlimit="10"/>
<path d="M220.4 57V65" stroke="#DDDDDD" stroke-width="0.5" stroke-miterlimit="10"/>
<path d="M224.4 57V65" stroke="#DDDDDD" stroke-width="0.5" stroke-miterlimit="10"/>
<path d="M228.4 57V65" stroke="#DDDDDD" stroke-width="0.5" stroke-miterlimit="10"/>
<path d="M232.4 57V65" stroke="#DDDDDD" stroke-width="0.5" stroke-miterlimit="10"/>
<path d="M236.4 57V65" stroke="#DDDDDD" stroke-width="0.5" stroke-miterlimit="10"/>
<path d="M240.4 57V65" stroke="#DDDDDD" stroke-width="0.5" stroke-miterlimit="10"/>
<path d="M244.4 57V65" stroke="#DDDDDD" stroke-width="0.5" stroke-miterlimit="10"/>
<path d="M248.4 57V65" stroke="#DDDDDD" stroke-width="0.5" stroke-miterlimit="10"/>
<path d="M251.5 39.3V34.6C251.5 32.6 249.9 30.9 247.8 30.9H242.8C244.8 30.9 246.5 29.3 246.5 27.2V22.7C246.5 20.7 244.9 19 242.8 19H132.2C130.2 19 128.5 20.6 128.5 22.7V27.4C128.5 29.4 130.1 31.1 132.2 31.1H137.2C135.2 31.1 133.5 32.7 133.5 34.8V39.5C133.5 41.5 135.1 43.2 137.2 43.2H132.2C130.2 43.2 128.5 44.8 128.5 46.9V51.6C128.5 53.6 130.1 55.3 132.2 55.3H137.2C135.2 55.3 133.5 56.9 133.5 59V63.7C133.5 65.7 135.1 67.4 137.2 67.4H132.2C130.2 67.4 128.5 69 128.5 71.1V75.8C128.5 77.8 130.1 79.5 132.2 79.5H242.9C244.9 79.5 246.6 77.9 246.6 75.8V71.1C246.6 69.1 245 67.4 242.9 67.4H247.9C249.9 67.4 251.6 65.8 251.6 63.7V59C251.6 57 250 55.3 247.9 55.3H242.9C244.9 55.3 246.6 53.7 246.6 51.6V46.9C246.6 44.9 245 43.2 242.9 43.2H247.9C249.9 43 251.5 41.4 251.5 39.3Z" stroke="#808080" stroke-miterlimit="10"/>
<path d="M131.4 45V53" stroke="#DDDDDD" stroke-width="0.5" stroke-miterlimit="10"/>
<path d="M135.4 45V53" stroke="#DDDDDD" stroke-width="0.5" stroke-miterlimit="10"/>
<path d="M139.4 45V53" stroke="#DDDDDD" stroke-width="0.5" stroke-miterlimit="10"/>
<path d="M143.4 45V53" stroke="#DDDDDD" stroke-width="0.5" stroke-miterlimit="10"/>
<path d="M147.4 45V53" stroke="#DDDDDD" stroke-width="0.5" stroke-miterlimit="10"/>
<path d="M151.4 45V53" stroke="#DDDDDD" stroke-width="0.5" stroke-miterlimit="10"/>
<path d="M155.4 45V53" stroke="#DDDDDD" stroke-width="0.5" stroke-miterlimit="10"/>
<path d="M159.4 45V53" stroke="#DDDDDD" stroke-width="0.5" stroke-miterlimit="10"/>
<path d="M163.4 45V53" stroke="#DDDDDD" stroke-width="0.5" stroke-miterlimit="10"/>
<path d="M167.4 45V53" stroke="#DDDDDD" stroke-width="0.5" stroke-miterlimit="10"/>
<path d="M171.4 45V53" stroke="#DDDDDD" stroke-width="0.5" stroke-miterlimit="10"/>
<path d="M175.4 45V53" stroke="#DDDDDD" stroke-width="0.5" stroke-miterlimit="10"/>
<path d="M179.4 45V53" stroke="#DDDDDD" stroke-width="0.5" stroke-miterlimit="10"/>
<path d="M183.4 45V53" stroke="#DDDDDD" stroke-width="0.5" stroke-miterlimit="10"/>
<path d="M187.4 45V53" stroke="#DDDDDD" stroke-width="0.5" stroke-miterlimit="10"/>
<path d="M191.4 45V53" stroke="#DDDDDD" stroke-width="0.5" stroke-miterlimit="10"/>
<path d="M195.4 45V53" stroke="#DDDDDD" stroke-width="0.5" stroke-miterlimit="10"/>
<path d="M199.4 45V53" stroke="#DDDDDD" stroke-width="0.5" stroke-miterlimit="10"/>
<path d="M203.4 45V53" stroke="#DDDDDD" stroke-width="0.5" stroke-miterlimit="10"/>
<path d="M207.4 45V53" stroke="#DDDDDD" stroke-width="0.5" stroke-miterlimit="10"/>
<path d="M211.4 45V53" stroke="#DDDDDD" stroke-width="0.5" stroke-miterlimit="10"/>
<path d="M215.4 45V53" stroke="#DDDDDD" stroke-width="0.5" stroke-miterlimit="10"/>
<path d="M219.4 45V53" stroke="#DDDDDD" stroke-width="0.5" stroke-miterlimit="10"/>
<path d="M223.4 45V53" stroke="#DDDDDD" stroke-width="0.5" stroke-miterlimit="10"/>
<path d="M227.4 45V53" stroke="#DDDDDD" stroke-width="0.5" stroke-miterlimit="10"/>
<path d="M231.4 45V53" stroke="#DDDDDD" stroke-width="0.5" stroke-miterlimit="10"/>
<path d="M235.4 45V53" stroke="#DDDDDD" stroke-width="0.5" stroke-miterlimit="10"/>
<path d="M239.4 45V53" stroke="#DDDDDD" stroke-width="0.5" stroke-miterlimit="10"/>
<path d="M243.4 45V53" stroke="#DDDDDD" stroke-width="0.5" stroke-miterlimit="10"/>
<path d="M0 46H237V80H10L0 46Z" fill="#900583"/>
<path d="M119 94L105 80H237L119 94Z" fill="#620258"/>
<path d="M33.2786 57.5469H37.8567C38.7629 57.5469 39.4374 57.5859 39.8801 57.6641C40.3281 57.737 40.7265 57.8932 41.0754 58.1328C41.4296 58.3724 41.7239 58.6927 41.9583 59.0938C42.1926 59.4896 42.3098 59.9349 42.3098 60.4297C42.3098 60.9661 42.164 61.4583 41.8723 61.9062C41.5859 62.3542 41.1952 62.6901 40.7004 62.9141C41.3984 63.1172 41.9348 63.4635 42.3098 63.9531C42.6848 64.4427 42.8723 65.0182 42.8723 65.6797C42.8723 66.2005 42.7499 66.7083 42.5051 67.2031C42.2656 67.6927 41.9348 68.0859 41.5129 68.3828C41.0963 68.6745 40.5807 68.8542 39.9661 68.9219C39.5807 68.9635 38.651 68.9896 37.177 69H33.2786V57.5469ZM35.5911 59.4531V62.1016H37.1067C38.0077 62.1016 38.5676 62.0885 38.7864 62.0625C39.1822 62.0156 39.4921 61.8802 39.7161 61.6562C39.9452 61.4271 40.0598 61.1276 40.0598 60.7578C40.0598 60.4036 39.9609 60.1172 39.7629 59.8984C39.5702 59.6745 39.2812 59.5391 38.8958 59.4922C38.6666 59.4661 38.0077 59.4531 36.9192 59.4531H35.5911ZM35.5911 64.0078V67.0703H37.7317C38.565 67.0703 39.0937 67.0469 39.3176 67C39.6614 66.9375 39.94 66.7865 40.1536 66.5469C40.3723 66.3021 40.4817 65.9766 40.4817 65.5703C40.4817 65.2266 40.3984 64.9349 40.2317 64.6953C40.065 64.4557 39.8228 64.2812 39.5051 64.1719C39.1926 64.0625 38.5103 64.0078 37.4583 64.0078H35.5911ZM46.4583 63.2344L44.4661 62.875C44.69 62.0729 45.0754 61.4792 45.6223 61.0938C46.1692 60.7083 46.9817 60.5156 48.0598 60.5156C49.039 60.5156 49.7682 60.6328 50.2473 60.8672C50.7265 61.0964 51.0624 61.3906 51.2551 61.75C51.4531 62.1042 51.552 62.7578 51.552 63.7109L51.5286 66.2734C51.5286 67.0026 51.5624 67.5417 51.6301 67.8906C51.7031 68.2344 51.8359 68.6042 52.0286 69H49.8567C49.7994 68.8542 49.7291 68.638 49.6458 68.3516C49.6093 68.2214 49.5833 68.1354 49.5676 68.0938C49.1926 68.4583 48.7916 68.7318 48.3645 68.9141C47.9374 69.0964 47.4817 69.1875 46.9973 69.1875C46.1432 69.1875 45.4687 68.9557 44.9739 68.4922C44.4843 68.0286 44.2395 67.4427 44.2395 66.7344C44.2395 66.2656 44.3515 65.849 44.5754 65.4844C44.7994 65.1146 45.1119 64.8333 45.5129 64.6406C45.9192 64.4427 46.5025 64.2708 47.2629 64.125C48.289 63.9323 48.9999 63.7526 49.3958 63.5859V63.3672C49.3958 62.9453 49.2916 62.6458 49.0833 62.4688C48.8749 62.2865 48.4817 62.1953 47.9036 62.1953C47.5129 62.1953 47.2083 62.2734 46.9895 62.4297C46.7708 62.5807 46.5937 62.849 46.4583 63.2344ZM49.3958 65.0156C49.1145 65.1094 48.6692 65.2214 48.0598 65.3516C47.4504 65.4818 47.052 65.6094 46.8645 65.7344C46.5781 65.9375 46.4348 66.1953 46.4348 66.5078C46.4348 66.8151 46.5494 67.0807 46.7786 67.3047C47.0077 67.5286 47.2994 67.6406 47.6536 67.6406C48.0494 67.6406 48.427 67.5104 48.7864 67.25C49.052 67.0521 49.2265 66.8099 49.3098 66.5234C49.3671 66.3359 49.3958 65.9792 49.3958 65.4531V65.0156ZM53.6692 60.7031H55.6848V67.2266H58.2317V60.7031H60.2551V67.2266H62.7942V60.7031H64.8176V69H53.6692V60.7031ZM68.7083 63.2344L66.7161 62.875C66.94 62.0729 67.3254 61.4792 67.8723 61.0938C68.4192 60.7083 69.2317 60.5156 70.3098 60.5156C71.289 60.5156 72.0182 60.6328 72.4973 60.8672C72.9765 61.0964 73.3124 61.3906 73.5051 61.75C73.7031 62.1042 73.802 62.7578 73.802 63.7109L73.7786 66.2734C73.7786 67.0026 73.8124 67.5417 73.8801 67.8906C73.9531 68.2344 74.0859 68.6042 74.2786 69H72.1067C72.0494 68.8542 71.9791 68.638 71.8958 68.3516C71.8593 68.2214 71.8333 68.1354 71.8176 68.0938C71.4426 68.4583 71.0416 68.7318 70.6145 68.9141C70.1874 69.0964 69.7317 69.1875 69.2473 69.1875C68.3932 69.1875 67.7187 68.9557 67.2239 68.4922C66.7343 68.0286 66.4895 67.4427 66.4895 66.7344C66.4895 66.2656 66.6015 65.849 66.8254 65.4844C67.0494 65.1146 67.3619 64.8333 67.7629 64.6406C68.1692 64.4427 68.7525 64.2708 69.5129 64.125C70.539 63.9323 71.2499 63.7526 71.6458 63.5859V63.3672C71.6458 62.9453 71.5416 62.6458 71.3333 62.4688C71.1249 62.2865 70.7317 62.1953 70.1536 62.1953C69.7629 62.1953 69.4583 62.2734 69.2395 62.4297C69.0208 62.5807 68.8437 62.849 68.7083 63.2344ZM71.6458 65.0156C71.3645 65.1094 70.9192 65.2214 70.3098 65.3516C69.7004 65.4818 69.302 65.6094 69.1145 65.7344C68.8281 65.9375 68.6848 66.1953 68.6848 66.5078C68.6848 66.8151 68.7994 67.0807 69.0286 67.3047C69.2577 67.5286 69.5494 67.6406 69.9036 67.6406C70.2994 67.6406 70.677 67.5104 71.0364 67.25C71.302 67.0521 71.4765 66.8099 71.5598 66.5234C71.6171 66.3359 71.6458 65.9792 71.6458 65.4531V65.0156ZM79.4426 60.7031H86.9504V62.4766H84.2942V69H82.0989V62.4766H79.4426V60.7031ZM93.0754 66.3594L95.2629 66.7266C94.9817 67.5286 94.5364 68.1406 93.927 68.5625C93.3228 68.9792 92.565 69.1875 91.6536 69.1875C90.2109 69.1875 89.1432 68.7161 88.4504 67.7734C87.9036 67.0182 87.6301 66.0651 87.6301 64.9141C87.6301 63.5391 87.9895 62.4635 88.7083 61.6875C89.427 60.9062 90.3359 60.5156 91.4348 60.5156C92.6692 60.5156 93.6432 60.9245 94.3567 61.7422C95.0702 62.5547 95.4114 63.8021 95.3801 65.4844H89.8801C89.8958 66.1354 90.0728 66.6432 90.4114 67.0078C90.7499 67.3672 91.1718 67.5469 91.677 67.5469C92.0208 67.5469 92.3098 67.4531 92.5442 67.2656C92.7786 67.0781 92.9557 66.776 93.0754 66.3594ZM93.2004 64.1406C93.1848 63.5052 93.0208 63.0234 92.7083 62.6953C92.3958 62.362 92.0156 62.1953 91.5676 62.1953C91.0885 62.1953 90.6926 62.3698 90.3801 62.7188C90.0676 63.0677 89.914 63.5417 89.9192 64.1406H93.2004ZM97.0911 60.7031H99.2786V64.0938C99.6432 64.0521 99.901 63.9401 100.052 63.7578C100.203 63.5755 100.385 63.1771 100.599 62.5625C100.88 61.7448 101.187 61.2214 101.521 60.9922C101.854 60.763 102.292 60.6484 102.833 60.6484C103 60.6484 103.289 60.6615 103.7 60.6875L103.708 62.1406C103.13 62.1406 102.76 62.1953 102.599 62.3047C102.437 62.4193 102.263 62.7604 102.075 63.3281C101.82 64.0938 101.453 64.5651 100.974 64.7422C101.667 64.9349 102.253 65.5365 102.732 66.5469C102.758 66.599 102.786 66.6536 102.818 66.7109L104.044 69H101.685L100.591 66.6016C100.367 66.1172 100.172 65.8073 100.005 65.6719C99.8437 65.5312 99.6015 65.4609 99.2786 65.4609V69H97.0911V60.7031ZM104.154 60.7031H106.49L108.474 66.5938L110.411 60.7031H112.685L109.755 68.6875L109.232 70.1328C109.039 70.6172 108.854 70.987 108.677 71.2422C108.505 71.4974 108.305 71.7031 108.075 71.8594C107.851 72.0208 107.573 72.1458 107.24 72.2344C106.911 72.3229 106.539 72.3672 106.122 72.3672C105.7 72.3672 105.286 72.3229 104.88 72.2344L104.685 70.5156C105.029 70.5833 105.338 70.6172 105.615 70.6172C106.125 70.6172 106.503 70.4661 106.747 70.1641C106.992 69.8672 107.18 69.487 107.31 69.0234L104.154 60.7031ZM114.052 60.7031H116.075V67.2266H118.599V60.7031H120.622V67.2266H123.177V60.7031H125.2V67.2266H126.099V71.1875H124.325V69H114.052V60.7031ZM129.443 63.2344L127.45 62.875C127.674 62.0729 128.06 61.4792 128.607 61.0938C129.154 60.7083 129.966 60.5156 131.044 60.5156C132.023 60.5156 132.753 60.6328 133.232 60.8672C133.711 61.0964 134.047 61.3906 134.24 61.75C134.437 62.1042 134.536 62.7578 134.536 63.7109L134.513 66.2734C134.513 67.0026 134.547 67.5417 134.615 67.8906C134.687 68.2344 134.82 68.6042 135.013 69H132.841C132.784 68.8542 132.713 68.638 132.63 68.3516C132.594 68.2214 132.568 68.1354 132.552 68.0938C132.177 68.4583 131.776 68.7318 131.349 68.9141C130.922 69.0964 130.466 69.1875 129.982 69.1875C129.128 69.1875 128.453 68.9557 127.958 68.4922C127.469 68.0286 127.224 67.4427 127.224 66.7344C127.224 66.2656 127.336 65.849 127.56 65.4844C127.784 65.1146 128.096 64.8333 128.497 64.6406C128.904 64.4427 129.487 64.2708 130.247 64.125C131.273 63.9323 131.984 63.7526 132.38 63.5859V63.3672C132.38 62.9453 132.276 62.6458 132.068 62.4688C131.859 62.2865 131.466 62.1953 130.888 62.1953C130.497 62.1953 130.193 62.2734 129.974 62.4297C129.755 62.5807 129.578 62.849 129.443 63.2344ZM132.38 65.0156C132.099 65.1094 131.654 65.2214 131.044 65.3516C130.435 65.4818 130.036 65.6094 129.849 65.7344C129.562 65.9375 129.419 66.1953 129.419 66.5078C129.419 66.8151 129.534 67.0807 129.763 67.3047C129.992 67.5286 130.284 67.6406 130.638 67.6406C131.034 67.6406 131.411 67.5104 131.771 67.25C132.036 67.0521 132.211 66.8099 132.294 66.5234C132.351 66.3359 132.38 65.9792 132.38 65.4531V65.0156ZM143.818 60.7031V69H141.638V65.5547H141.435C140.961 65.5547 140.612 65.6172 140.388 65.7422C140.169 65.862 139.924 66.1198 139.654 66.5156L139.521 66.6797L138.075 69H135.521L137.091 66.5938C137.539 65.9062 137.945 65.5104 138.31 65.4062C137.695 65.3698 137.195 65.138 136.81 64.7109C136.43 64.2786 136.24 63.7292 136.24 63.0625C136.24 62.526 136.365 62.0677 136.615 61.6875C136.87 61.3073 137.206 61.0495 137.622 60.9141C138.044 60.7734 138.669 60.7031 139.497 60.7031H143.818ZM141.638 62.1172H140.068C139.49 62.1172 139.083 62.2005 138.849 62.3672C138.615 62.5286 138.497 62.7995 138.497 63.1797C138.497 63.5599 138.63 63.8333 138.896 64C139.161 64.1667 139.596 64.25 140.2 64.25H141.638V62.1172ZM157.74 63.1562L155.575 63.5469C155.503 63.1146 155.336 62.7891 155.075 62.5703C154.82 62.3516 154.487 62.2422 154.075 62.2422C153.529 62.2422 153.091 62.4323 152.763 62.8125C152.44 63.1875 152.279 63.8177 152.279 64.7031C152.279 65.6875 152.443 66.3828 152.771 66.7891C153.104 67.1953 153.549 67.3984 154.107 67.3984C154.523 67.3984 154.865 67.2812 155.13 67.0469C155.396 66.8073 155.583 66.3984 155.693 65.8203L157.849 66.1875C157.625 67.1771 157.195 67.9245 156.56 68.4297C155.924 68.9349 155.073 69.1875 154.005 69.1875C152.792 69.1875 151.823 68.8047 151.099 68.0391C150.38 67.2734 150.021 66.2135 150.021 64.8594C150.021 63.4896 150.383 62.4245 151.107 61.6641C151.831 60.8984 152.81 60.5156 154.044 60.5156C155.055 60.5156 155.857 60.7344 156.45 61.1719C157.049 61.6042 157.479 62.2656 157.74 63.1562ZM159.325 60.7031H161.513V64.0938C161.878 64.0521 162.135 63.9401 162.286 63.7578C162.437 63.5755 162.62 63.1771 162.833 62.5625C163.115 61.7448 163.422 61.2214 163.755 60.9922C164.088 60.763 164.526 60.6484 165.068 60.6484C165.234 60.6484 165.523 60.6615 165.935 60.6875L165.943 62.1406C165.365 62.1406 164.995 62.1953 164.833 62.3047C164.672 62.4193 164.497 62.7604 164.31 63.3281C164.055 64.0938 163.687 64.5651 163.208 64.7422C163.901 64.9349 164.487 65.5365 164.966 66.5469C164.992 66.599 165.021 66.6536 165.052 66.7109L166.279 69H163.919L162.825 66.6016C162.601 66.1172 162.406 65.8073 162.24 65.6719C162.078 65.5312 161.836 65.4609 161.513 65.4609V69H159.325V60.7031ZM167.372 60.7031H169.482V65.9141L172.857 60.7031H175.013V69H172.904V63.6953L169.482 69H167.372V60.7031ZM184.13 69H177.849V71.1875H176.068V67.2031H176.966C177.341 66.7865 177.651 66.1354 177.896 65.25C178.141 64.3646 178.286 62.849 178.333 60.7031H185.029V67.2031H185.919V71.1875H184.13V69ZM182.857 67.2031L182.865 62.5078H180.208C180.12 64.7995 179.755 66.3646 179.115 67.2031H182.857ZM187.341 60.7031H189.529V64.0938C189.893 64.0521 190.151 63.9401 190.302 63.7578C190.453 63.5755 190.635 63.1771 190.849 62.5625C191.13 61.7448 191.437 61.2214 191.771 60.9922C192.104 60.763 192.542 60.6484 193.083 60.6484C193.25 60.6484 193.539 60.6615 193.95 60.6875L193.958 62.1406C193.38 62.1406 193.01 62.1953 192.849 62.3047C192.687 62.4193 192.513 62.7604 192.325 63.3281C192.07 64.0938 191.703 64.5651 191.224 64.7422C191.917 64.9349 192.503 65.5365 192.982 66.5469C193.008 66.599 193.036 66.6536 193.068 66.7109L194.294 69H191.935L190.841 66.6016C190.617 66.1172 190.422 65.8073 190.255 65.6719C190.094 65.5312 189.851 65.4609 189.529 65.4609V69H187.341V60.7031ZM197.083 63.2344L195.091 62.875C195.315 62.0729 195.7 61.4792 196.247 61.0938C196.794 60.7083 197.607 60.5156 198.685 60.5156C199.664 60.5156 200.393 60.6328 200.872 60.8672C201.351 61.0964 201.687 61.3906 201.88 61.75C202.078 62.1042 202.177 62.7578 202.177 63.7109L202.154 66.2734C202.154 67.0026 202.187 67.5417 202.255 67.8906C202.328 68.2344 202.461 68.6042 202.654 69H200.482C200.424 68.8542 200.354 68.638 200.271 68.3516C200.234 68.2214 200.208 68.1354 200.193 68.0938C199.818 68.4583 199.417 68.7318 198.99 68.9141C198.562 69.0964 198.107 69.1875 197.622 69.1875C196.768 69.1875 196.094 68.9557 195.599 68.4922C195.109 68.0286 194.865 67.4427 194.865 66.7344C194.865 66.2656 194.976 65.849 195.2 65.4844C195.424 65.1146 195.737 64.8333 196.138 64.6406C196.544 64.4427 197.128 64.2708 197.888 64.125C198.914 63.9323 199.625 63.7526 200.021 63.5859V63.3672C200.021 62.9453 199.917 62.6458 199.708 62.4688C199.5 62.2865 199.107 62.1953 198.529 62.1953C198.138 62.1953 197.833 62.2734 197.615 62.4297C197.396 62.5807 197.219 62.849 197.083 63.2344ZM200.021 65.0156C199.74 65.1094 199.294 65.2214 198.685 65.3516C198.075 65.4818 197.677 65.6094 197.49 65.7344C197.203 65.9375 197.06 66.1953 197.06 66.5078C197.06 66.8151 197.174 67.0807 197.404 67.3047C197.633 67.5286 197.924 67.6406 198.279 67.6406C198.674 67.6406 199.052 67.5104 199.411 67.25C199.677 67.0521 199.851 66.8099 199.935 66.5234C199.992 66.3359 200.021 65.9792 200.021 65.4531V65.0156Z" fill="white"/>
<path d="M139.678 9.5762H144.808L124.214 47.6514H119.133L139.678 9.5762ZM109.407 18.937C109.407 17.2836 109.764 15.7113 110.477 14.2201C111.206 12.7289 112.308 11.5861 113.784 10.7919C115.275 9.98143 117.033 9.5762 119.06 9.5762C122.042 9.5762 124.392 10.4272 126.111 12.1291C127.829 13.8311 128.688 16.1004 128.688 18.937C128.688 21.7898 127.829 24.0671 126.111 25.7691C124.392 27.4711 122.042 28.322 119.06 28.322C117.033 28.322 115.275 27.9249 113.784 27.1307C112.308 26.3202 111.206 25.1694 110.477 23.6781C109.764 22.1869 109.407 20.6065 109.407 18.937ZM116.239 18.9856C116.239 20.9955 116.563 22.4543 117.212 23.3621C117.633 23.9618 118.249 24.2617 119.06 24.2617C119.87 24.2617 120.478 23.9618 120.883 23.3621C121.531 22.4543 121.856 20.9955 121.856 18.9856C121.856 16.9919 121.531 15.533 120.883 14.6091C120.478 14.0256 119.87 13.7338 119.06 13.7338C118.249 13.7338 117.633 14.0256 117.212 14.6091C116.563 15.5168 116.239 16.9757 116.239 18.9856ZM135.107 38.2177C135.107 36.5482 135.463 34.9759 136.176 33.5009C136.89 32.0096 137.992 30.8588 139.483 30.0483C140.974 29.2379 142.725 28.8326 144.735 28.8326C147.734 28.8326 150.092 29.6917 151.81 31.4099C153.528 33.1118 154.387 35.3811 154.387 38.2177C154.387 41.0543 153.528 43.3317 151.81 45.0498C150.092 46.7518 147.734 47.6028 144.735 47.6028C142.725 47.6028 140.974 47.1976 139.483 46.3871C137.992 45.5766 136.89 44.4339 136.176 42.9589C135.463 41.4676 135.107 39.8872 135.107 38.2177ZM141.939 38.2663C141.939 40.2763 142.263 41.7351 142.911 42.6428C143.317 43.2263 143.924 43.5181 144.735 43.5181C145.545 43.5181 146.161 43.2263 146.583 42.6428C147.231 41.7351 147.555 40.2763 147.555 38.2663C147.555 36.2564 147.231 34.7895 146.583 33.8656C146.161 33.282 145.545 32.9903 144.735 32.9903C143.924 32.9903 143.317 33.2901 142.911 33.8899C142.263 34.7976 141.939 36.2564 141.939 38.2663Z" fill="#900583"/>
<path d="M109.646 49H102.099V20.5601C99.342 23.1382 96.0924 25.0449 92.3506 26.2803V19.4321C94.32 18.7876 96.4595 17.5701 98.769 15.7798C101.079 13.9715 102.663 11.8678 103.522 9.46875H109.646V49Z" fill="#900583"/>
</svg>
