<svg width="253" height="79" viewBox="0 0 253 79" fill="none" xmlns="http://www.w3.org/2000/svg">
<path d="M251.5 38.3V33.6C251.5 31.6 249.9 29.9 247.8 29.9H242.8C244.8 29.9 246.5 28.3 246.5 26.2V21.7C246.5 19.7 244.9 18 242.8 18H132.2C130.2 18 128.5 19.6 128.5 21.7V26.4C128.5 28.4 130.1 30.1 132.2 30.1H137.2C135.2 30.1 133.5 31.7 133.5 33.8V38.5C133.5 40.5 135.1 42.2 137.2 42.2H132.2C130.2 42.2 128.5 43.8 128.5 45.9V50.6C128.5 52.6 130.1 54.3 132.2 54.3H137.2C135.2 54.3 133.5 55.9 133.5 58V62.7C133.5 64.7 135.1 66.4 137.2 66.4H132.2C130.2 66.4 128.5 68 128.5 70.1V74.8C128.5 76.8 130.1 78.5 132.2 78.5H242.9C244.9 78.5 246.6 76.9 246.6 74.8V70.1C246.6 68.1 245 66.4 242.9 66.4H247.9C249.9 66.4 251.6 64.8 251.6 62.7V58C251.6 56 250 54.3 247.9 54.3H242.9C244.9 54.3 246.6 52.7 246.6 50.6V45.9C246.6 43.9 245 42.2 242.9 42.2H247.9C249.9 42 251.5 40.4 251.5 38.3Z" fill="white"/>
<path d="M247.8 42.0004H137.2C135.2 42.0004 133.5 40.4004 133.5 38.3004V33.6004C133.5 31.6004 135.1 29.9004 137.2 29.9004H247.9C249.9 29.9004 251.6 31.5004 251.6 33.6004V38.3004C251.5 40.4004 249.9 42.0004 247.8 42.0004Z" stroke="#DDDDDD" stroke-miterlimit="10"/>
<path d="M242.8 30H132.2C130.2 30 128.5 28.4 128.5 26.3V21.7C128.5 19.7 130.1 18 132.2 18H242.9C244.9 18 246.6 19.6 246.6 21.7V26.4C246.5 28.4 244.9 30 242.8 30Z" stroke="#DDDDDD" stroke-miterlimit="10"/>
<path d="M242.8 78.0004H132.2C130.2 78.0004 128.5 76.4004 128.5 74.3004V69.6004C128.5 67.6004 130.1 65.9004 132.2 65.9004H242.9C244.9 65.9004 246.6 67.5004 246.6 69.6004V74.3004C246.5 76.4004 244.9 78.0004 242.8 78.0004Z" stroke="#DDDDDD" stroke-miterlimit="10"/>
<path d="M247.8 66.0004H137.2C135.2 66.0004 133.5 64.4004 133.5 62.3004V57.6004C133.5 55.6004 135.1 53.9004 137.2 53.9004H247.9C249.9 53.9004 251.6 55.5004 251.6 57.6004V62.3004C251.5 64.4004 249.9 66.0004 247.8 66.0004Z" stroke="#DDDDDD" stroke-miterlimit="10"/>
<path d="M242.8 54.0004H132.2C130.2 54.0004 128.5 52.4004 128.5 50.3004V45.6004C128.5 43.6004 130.1 41.9004 132.2 41.9004H242.9C244.9 41.9004 246.6 43.5004 246.6 45.6004V50.3004C246.5 52.4004 244.9 54.0004 242.8 54.0004Z" stroke="#DDDDDD" stroke-miterlimit="10"/>
<path d="M128.801 20H246.201" stroke="#DDDDDD" stroke-width="0.5" stroke-miterlimit="10"/>
<path d="M128.801 28H246.201" stroke="#DDDDDD" stroke-width="0.5" stroke-miterlimit="10"/>
<path d="M131.398 20V28" stroke="#DDDDDD" stroke-width="0.5" stroke-miterlimit="10"/>
<path d="M135.398 20V28" stroke="#DDDDDD" stroke-width="0.5" stroke-miterlimit="10"/>
<path d="M139.398 20V28" stroke="#DDDDDD" stroke-width="0.5" stroke-miterlimit="10"/>
<path d="M143.398 20V28" stroke="#DDDDDD" stroke-width="0.5" stroke-miterlimit="10"/>
<path d="M147.398 20V28" stroke="#DDDDDD" stroke-width="0.5" stroke-miterlimit="10"/>
<path d="M151.398 20V28" stroke="#DDDDDD" stroke-width="0.5" stroke-miterlimit="10"/>
<path d="M155.398 20V28" stroke="#DDDDDD" stroke-width="0.5" stroke-miterlimit="10"/>
<path d="M159.398 20V28" stroke="#DDDDDD" stroke-width="0.5" stroke-miterlimit="10"/>
<path d="M163.398 20V28" stroke="#DDDDDD" stroke-width="0.5" stroke-miterlimit="10"/>
<path d="M167.398 20V28" stroke="#DDDDDD" stroke-width="0.5" stroke-miterlimit="10"/>
<path d="M171.398 20V28" stroke="#DDDDDD" stroke-width="0.5" stroke-miterlimit="10"/>
<path d="M175.398 20V28" stroke="#DDDDDD" stroke-width="0.5" stroke-miterlimit="10"/>
<path d="M179.398 20V28" stroke="#DDDDDD" stroke-width="0.5" stroke-miterlimit="10"/>
<path d="M183.398 20V28" stroke="#DDDDDD" stroke-width="0.5" stroke-miterlimit="10"/>
<path d="M187.398 20V28" stroke="#DDDDDD" stroke-width="0.5" stroke-miterlimit="10"/>
<path d="M191.398 20V28" stroke="#DDDDDD" stroke-width="0.5" stroke-miterlimit="10"/>
<path d="M195.398 20V28" stroke="#DDDDDD" stroke-width="0.5" stroke-miterlimit="10"/>
<path d="M199.398 20V28" stroke="#DDDDDD" stroke-width="0.5" stroke-miterlimit="10"/>
<path d="M203.398 20V28" stroke="#DDDDDD" stroke-width="0.5" stroke-miterlimit="10"/>
<path d="M207.398 20V28" stroke="#DDDDDD" stroke-width="0.5" stroke-miterlimit="10"/>
<path d="M211.398 20V28" stroke="#DDDDDD" stroke-width="0.5" stroke-miterlimit="10"/>
<path d="M215.398 20V28" stroke="#DDDDDD" stroke-width="0.5" stroke-miterlimit="10"/>
<path d="M219.398 20V28" stroke="#DDDDDD" stroke-width="0.5" stroke-miterlimit="10"/>
<path d="M223.398 20V28" stroke="#DDDDDD" stroke-width="0.5" stroke-miterlimit="10"/>
<path d="M227.398 20V28" stroke="#DDDDDD" stroke-width="0.5" stroke-miterlimit="10"/>
<path d="M231.398 20V28" stroke="#DDDDDD" stroke-width="0.5" stroke-miterlimit="10"/>
<path d="M235.398 20V28" stroke="#DDDDDD" stroke-width="0.5" stroke-miterlimit="10"/>
<path d="M239.398 20V28" stroke="#DDDDDD" stroke-width="0.5" stroke-miterlimit="10"/>
<path d="M243.398 20V28" stroke="#DDDDDD" stroke-width="0.5" stroke-miterlimit="10"/>
<path d="M133.801 32H251.201" stroke="#DDDDDD" stroke-width="0.5" stroke-miterlimit="10"/>
<path d="M133.801 40H251.201" stroke="#DDDDDD" stroke-width="0.5" stroke-miterlimit="10"/>
<path d="M136.398 32V40" stroke="#DDDDDD" stroke-width="0.5" stroke-miterlimit="10"/>
<path d="M140.398 32V40" stroke="#DDDDDD" stroke-width="0.5" stroke-miterlimit="10"/>
<path d="M144.398 32V40" stroke="#DDDDDD" stroke-width="0.5" stroke-miterlimit="10"/>
<path d="M148.398 32V40" stroke="#DDDDDD" stroke-width="0.5" stroke-miterlimit="10"/>
<path d="M152.398 32V40" stroke="#DDDDDD" stroke-width="0.5" stroke-miterlimit="10"/>
<path d="M156.398 32V40" stroke="#DDDDDD" stroke-width="0.5" stroke-miterlimit="10"/>
<path d="M160.398 32V40" stroke="#DDDDDD" stroke-width="0.5" stroke-miterlimit="10"/>
<path d="M164.398 32V40" stroke="#DDDDDD" stroke-width="0.5" stroke-miterlimit="10"/>
<path d="M168.398 32V40" stroke="#DDDDDD" stroke-width="0.5" stroke-miterlimit="10"/>
<path d="M172.398 32V40" stroke="#DDDDDD" stroke-width="0.5" stroke-miterlimit="10"/>
<path d="M176.398 32V40" stroke="#DDDDDD" stroke-width="0.5" stroke-miterlimit="10"/>
<path d="M180.398 32V40" stroke="#DDDDDD" stroke-width="0.5" stroke-miterlimit="10"/>
<path d="M184.398 32V40" stroke="#DDDDDD" stroke-width="0.5" stroke-miterlimit="10"/>
<path d="M188.398 32V40" stroke="#DDDDDD" stroke-width="0.5" stroke-miterlimit="10"/>
<path d="M192.398 32V40" stroke="#DDDDDD" stroke-width="0.5" stroke-miterlimit="10"/>
<path d="M196.398 32V40" stroke="#DDDDDD" stroke-width="0.5" stroke-miterlimit="10"/>
<path d="M200.398 32V40" stroke="#DDDDDD" stroke-width="0.5" stroke-miterlimit="10"/>
<path d="M204.398 32V40" stroke="#DDDDDD" stroke-width="0.5" stroke-miterlimit="10"/>
<path d="M208.398 32V40" stroke="#DDDDDD" stroke-width="0.5" stroke-miterlimit="10"/>
<path d="M212.398 32V40" stroke="#DDDDDD" stroke-width="0.5" stroke-miterlimit="10"/>
<path d="M216.398 32V40" stroke="#DDDDDD" stroke-width="0.5" stroke-miterlimit="10"/>
<path d="M220.398 32V40" stroke="#DDDDDD" stroke-width="0.5" stroke-miterlimit="10"/>
<path d="M224.398 32V40" stroke="#DDDDDD" stroke-width="0.5" stroke-miterlimit="10"/>
<path d="M228.398 32V40" stroke="#DDDDDD" stroke-width="0.5" stroke-miterlimit="10"/>
<path d="M232.398 32V40" stroke="#DDDDDD" stroke-width="0.5" stroke-miterlimit="10"/>
<path d="M236.398 32V40" stroke="#DDDDDD" stroke-width="0.5" stroke-miterlimit="10"/>
<path d="M240.398 32V40" stroke="#DDDDDD" stroke-width="0.5" stroke-miterlimit="10"/>
<path d="M244.398 32V40" stroke="#DDDDDD" stroke-width="0.5" stroke-miterlimit="10"/>
<path d="M248.398 32V40" stroke="#DDDDDD" stroke-width="0.5" stroke-miterlimit="10"/>
<path d="M128.801 44H246.201" stroke="#DDDDDD" stroke-width="0.5" stroke-miterlimit="10"/>
<path d="M128.801 52H246.201" stroke="#DDDDDD" stroke-width="0.5" stroke-miterlimit="10"/>
<path d="M128.801 68H246.201" stroke="#DDDDDD" stroke-width="0.5" stroke-miterlimit="10"/>
<path d="M128.801 76H246.201" stroke="#DDDDDD" stroke-width="0.5" stroke-miterlimit="10"/>
<path d="M131.398 68V76" stroke="#DDDDDD" stroke-width="0.5" stroke-miterlimit="10"/>
<path d="M135.398 68V76" stroke="#DDDDDD" stroke-width="0.5" stroke-miterlimit="10"/>
<path d="M139.398 68V76" stroke="#DDDDDD" stroke-width="0.5" stroke-miterlimit="10"/>
<path d="M143.398 68V76" stroke="#DDDDDD" stroke-width="0.5" stroke-miterlimit="10"/>
<path d="M147.398 68V76" stroke="#DDDDDD" stroke-width="0.5" stroke-miterlimit="10"/>
<path d="M151.398 68V76" stroke="#DDDDDD" stroke-width="0.5" stroke-miterlimit="10"/>
<path d="M155.398 68V76" stroke="#DDDDDD" stroke-width="0.5" stroke-miterlimit="10"/>
<path d="M159.398 68V76" stroke="#DDDDDD" stroke-width="0.5" stroke-miterlimit="10"/>
<path d="M163.398 68V76" stroke="#DDDDDD" stroke-width="0.5" stroke-miterlimit="10"/>
<path d="M167.398 68V76" stroke="#DDDDDD" stroke-width="0.5" stroke-miterlimit="10"/>
<path d="M171.398 68V76" stroke="#DDDDDD" stroke-width="0.5" stroke-miterlimit="10"/>
<path d="M175.398 68V76" stroke="#DDDDDD" stroke-width="0.5" stroke-miterlimit="10"/>
<path d="M179.398 68V76" stroke="#DDDDDD" stroke-width="0.5" stroke-miterlimit="10"/>
<path d="M183.398 68V76" stroke="#DDDDDD" stroke-width="0.5" stroke-miterlimit="10"/>
<path d="M187.398 68V76" stroke="#DDDDDD" stroke-width="0.5" stroke-miterlimit="10"/>
<path d="M191.398 68V76" stroke="#DDDDDD" stroke-width="0.5" stroke-miterlimit="10"/>
<path d="M195.398 68V76" stroke="#DDDDDD" stroke-width="0.5" stroke-miterlimit="10"/>
<path d="M199.398 68V76" stroke="#DDDDDD" stroke-width="0.5" stroke-miterlimit="10"/>
<path d="M203.398 68V76" stroke="#DDDDDD" stroke-width="0.5" stroke-miterlimit="10"/>
<path d="M207.398 68V76" stroke="#DDDDDD" stroke-width="0.5" stroke-miterlimit="10"/>
<path d="M211.398 68V76" stroke="#DDDDDD" stroke-width="0.5" stroke-miterlimit="10"/>
<path d="M215.398 68V76" stroke="#DDDDDD" stroke-width="0.5" stroke-miterlimit="10"/>
<path d="M219.398 68V76" stroke="#DDDDDD" stroke-width="0.5" stroke-miterlimit="10"/>
<path d="M223.398 68V76" stroke="#DDDDDD" stroke-width="0.5" stroke-miterlimit="10"/>
<path d="M227.398 68V76" stroke="#DDDDDD" stroke-width="0.5" stroke-miterlimit="10"/>
<path d="M231.398 68V76" stroke="#DDDDDD" stroke-width="0.5" stroke-miterlimit="10"/>
<path d="M235.398 68V76" stroke="#DDDDDD" stroke-width="0.5" stroke-miterlimit="10"/>
<path d="M239.398 68V76" stroke="#DDDDDD" stroke-width="0.5" stroke-miterlimit="10"/>
<path d="M243.398 68V76" stroke="#DDDDDD" stroke-width="0.5" stroke-miterlimit="10"/>
<path d="M133.801 56H251.201" stroke="#DDDDDD" stroke-width="0.5" stroke-miterlimit="10"/>
<path d="M133.801 64H251.201" stroke="#DDDDDD" stroke-width="0.5" stroke-miterlimit="10"/>
<path d="M136.398 56V64" stroke="#DDDDDD" stroke-width="0.5" stroke-miterlimit="10"/>
<path d="M140.398 56V64" stroke="#DDDDDD" stroke-width="0.5" stroke-miterlimit="10"/>
<path d="M144.398 56V64" stroke="#DDDDDD" stroke-width="0.5" stroke-miterlimit="10"/>
<path d="M148.398 56V64" stroke="#DDDDDD" stroke-width="0.5" stroke-miterlimit="10"/>
<path d="M152.398 56V64" stroke="#DDDDDD" stroke-width="0.5" stroke-miterlimit="10"/>
<path d="M156.398 56V64" stroke="#DDDDDD" stroke-width="0.5" stroke-miterlimit="10"/>
<path d="M160.398 56V64" stroke="#DDDDDD" stroke-width="0.5" stroke-miterlimit="10"/>
<path d="M164.398 56V64" stroke="#DDDDDD" stroke-width="0.5" stroke-miterlimit="10"/>
<path d="M168.398 56V64" stroke="#DDDDDD" stroke-width="0.5" stroke-miterlimit="10"/>
<path d="M172.398 56V64" stroke="#DDDDDD" stroke-width="0.5" stroke-miterlimit="10"/>
<path d="M176.398 56V64" stroke="#DDDDDD" stroke-width="0.5" stroke-miterlimit="10"/>
<path d="M180.398 56V64" stroke="#DDDDDD" stroke-width="0.5" stroke-miterlimit="10"/>
<path d="M184.398 56V64" stroke="#DDDDDD" stroke-width="0.5" stroke-miterlimit="10"/>
<path d="M188.398 56V64" stroke="#DDDDDD" stroke-width="0.5" stroke-miterlimit="10"/>
<path d="M192.398 56V64" stroke="#DDDDDD" stroke-width="0.5" stroke-miterlimit="10"/>
<path d="M196.398 56V64" stroke="#DDDDDD" stroke-width="0.5" stroke-miterlimit="10"/>
<path d="M200.398 56V64" stroke="#DDDDDD" stroke-width="0.5" stroke-miterlimit="10"/>
<path d="M204.398 56V64" stroke="#DDDDDD" stroke-width="0.5" stroke-miterlimit="10"/>
<path d="M208.398 56V64" stroke="#DDDDDD" stroke-width="0.5" stroke-miterlimit="10"/>
<path d="M212.398 56V64" stroke="#DDDDDD" stroke-width="0.5" stroke-miterlimit="10"/>
<path d="M216.398 56V64" stroke="#DDDDDD" stroke-width="0.5" stroke-miterlimit="10"/>
<path d="M220.398 56V64" stroke="#DDDDDD" stroke-width="0.5" stroke-miterlimit="10"/>
<path d="M224.398 56V64" stroke="#DDDDDD" stroke-width="0.5" stroke-miterlimit="10"/>
<path d="M228.398 56V64" stroke="#DDDDDD" stroke-width="0.5" stroke-miterlimit="10"/>
<path d="M232.398 56V64" stroke="#DDDDDD" stroke-width="0.5" stroke-miterlimit="10"/>
<path d="M236.398 56V64" stroke="#DDDDDD" stroke-width="0.5" stroke-miterlimit="10"/>
<path d="M240.398 56V64" stroke="#DDDDDD" stroke-width="0.5" stroke-miterlimit="10"/>
<path d="M244.398 56V64" stroke="#DDDDDD" stroke-width="0.5" stroke-miterlimit="10"/>
<path d="M248.398 56V64" stroke="#DDDDDD" stroke-width="0.5" stroke-miterlimit="10"/>
<path d="M251.5 38.3V33.6C251.5 31.6 249.9 29.9 247.8 29.9H242.8C244.8 29.9 246.5 28.3 246.5 26.2V21.7C246.5 19.7 244.9 18 242.8 18H132.2C130.2 18 128.5 19.6 128.5 21.7V26.4C128.5 28.4 130.1 30.1 132.2 30.1H137.2C135.2 30.1 133.5 31.7 133.5 33.8V38.5C133.5 40.5 135.1 42.2 137.2 42.2H132.2C130.2 42.2 128.5 43.8 128.5 45.9V50.6C128.5 52.6 130.1 54.3 132.2 54.3H137.2C135.2 54.3 133.5 55.9 133.5 58V62.7C133.5 64.7 135.1 66.4 137.2 66.4H132.2C130.2 66.4 128.5 68 128.5 70.1V74.8C128.5 76.8 130.1 78.5 132.2 78.5H242.9C244.9 78.5 246.6 76.9 246.6 74.8V70.1C246.6 68.1 245 66.4 242.9 66.4H247.9C249.9 66.4 251.6 64.8 251.6 62.7V58C251.6 56 250 54.3 247.9 54.3H242.9C244.9 54.3 246.6 52.7 246.6 50.6V45.9C246.6 43.9 245 42.2 242.9 42.2H247.9C249.9 42 251.5 40.4 251.5 38.3Z" stroke="#808080" stroke-miterlimit="10"/>
<path d="M131.398 44V52" stroke="#DDDDDD" stroke-width="0.5" stroke-miterlimit="10"/>
<path d="M135.398 44V52" stroke="#DDDDDD" stroke-width="0.5" stroke-miterlimit="10"/>
<path d="M139.398 44V52" stroke="#DDDDDD" stroke-width="0.5" stroke-miterlimit="10"/>
<path d="M143.398 44V52" stroke="#DDDDDD" stroke-width="0.5" stroke-miterlimit="10"/>
<path d="M147.398 44V52" stroke="#DDDDDD" stroke-width="0.5" stroke-miterlimit="10"/>
<path d="M151.398 44V52" stroke="#DDDDDD" stroke-width="0.5" stroke-miterlimit="10"/>
<path d="M155.398 44V52" stroke="#DDDDDD" stroke-width="0.5" stroke-miterlimit="10"/>
<path d="M159.398 44V52" stroke="#DDDDDD" stroke-width="0.5" stroke-miterlimit="10"/>
<path d="M163.398 44V52" stroke="#DDDDDD" stroke-width="0.5" stroke-miterlimit="10"/>
<path d="M167.398 44V52" stroke="#DDDDDD" stroke-width="0.5" stroke-miterlimit="10"/>
<path d="M171.398 44V52" stroke="#DDDDDD" stroke-width="0.5" stroke-miterlimit="10"/>
<path d="M175.398 44V52" stroke="#DDDDDD" stroke-width="0.5" stroke-miterlimit="10"/>
<path d="M179.398 44V52" stroke="#DDDDDD" stroke-width="0.5" stroke-miterlimit="10"/>
<path d="M183.398 44V52" stroke="#DDDDDD" stroke-width="0.5" stroke-miterlimit="10"/>
<path d="M187.398 44V52" stroke="#DDDDDD" stroke-width="0.5" stroke-miterlimit="10"/>
<path d="M191.398 44V52" stroke="#DDDDDD" stroke-width="0.5" stroke-miterlimit="10"/>
<path d="M195.398 44V52" stroke="#DDDDDD" stroke-width="0.5" stroke-miterlimit="10"/>
<path d="M199.398 44V52" stroke="#DDDDDD" stroke-width="0.5" stroke-miterlimit="10"/>
<path d="M203.398 44V52" stroke="#DDDDDD" stroke-width="0.5" stroke-miterlimit="10"/>
<path d="M207.398 44V52" stroke="#DDDDDD" stroke-width="0.5" stroke-miterlimit="10"/>
<path d="M211.398 44V52" stroke="#DDDDDD" stroke-width="0.5" stroke-miterlimit="10"/>
<path d="M215.398 44V52" stroke="#DDDDDD" stroke-width="0.5" stroke-miterlimit="10"/>
<path d="M219.398 44V52" stroke="#DDDDDD" stroke-width="0.5" stroke-miterlimit="10"/>
<path d="M223.398 44V52" stroke="#DDDDDD" stroke-width="0.5" stroke-miterlimit="10"/>
<path d="M227.398 44V52" stroke="#DDDDDD" stroke-width="0.5" stroke-miterlimit="10"/>
<path d="M231.398 44V52" stroke="#DDDDDD" stroke-width="0.5" stroke-miterlimit="10"/>
<path d="M235.398 44V52" stroke="#DDDDDD" stroke-width="0.5" stroke-miterlimit="10"/>
<path d="M239.398 44V52" stroke="#DDDDDD" stroke-width="0.5" stroke-miterlimit="10"/>
<path d="M243.398 44V52" stroke="#DDDDDD" stroke-width="0.5" stroke-miterlimit="10"/>
<rect y="45" width="237" height="34" fill="#A0A0A0"/>
<path d="M33.2786 55.5469H37.8567C38.7629 55.5469 39.4374 55.5859 39.8801 55.6641C40.3281 55.737 40.7265 55.8932 41.0754 56.1328C41.4296 56.3724 41.7239 56.6927 41.9583 57.0938C42.1926 57.4896 42.3098 57.9349 42.3098 58.4297C42.3098 58.9661 42.164 59.4583 41.8723 59.9062C41.5859 60.3542 41.1952 60.6901 40.7004 60.9141C41.3984 61.1172 41.9348 61.4635 42.3098 61.9531C42.6848 62.4427 42.8723 63.0182 42.8723 63.6797C42.8723 64.2005 42.7499 64.7083 42.5051 65.2031C42.2656 65.6927 41.9348 66.0859 41.5129 66.3828C41.0963 66.6745 40.5807 66.8542 39.9661 66.9219C39.5807 66.9635 38.651 66.9896 37.177 67H33.2786V55.5469ZM35.5911 57.4531V60.1016H37.1067C38.0077 60.1016 38.5676 60.0885 38.7864 60.0625C39.1822 60.0156 39.4921 59.8802 39.7161 59.6562C39.9452 59.4271 40.0598 59.1276 40.0598 58.7578C40.0598 58.4036 39.9609 58.1172 39.7629 57.8984C39.5702 57.6745 39.2812 57.5391 38.8958 57.4922C38.6666 57.4661 38.0077 57.4531 36.9192 57.4531H35.5911ZM35.5911 62.0078V65.0703H37.7317C38.565 65.0703 39.0937 65.0469 39.3176 65C39.6614 64.9375 39.94 64.7865 40.1536 64.5469C40.3723 64.3021 40.4817 63.9766 40.4817 63.5703C40.4817 63.2266 40.3984 62.9349 40.2317 62.6953C40.065 62.4557 39.8228 62.2812 39.5051 62.1719C39.1926 62.0625 38.5103 62.0078 37.4583 62.0078H35.5911ZM46.4583 61.2344L44.4661 60.875C44.69 60.0729 45.0754 59.4792 45.6223 59.0938C46.1692 58.7083 46.9817 58.5156 48.0598 58.5156C49.039 58.5156 49.7682 58.6328 50.2473 58.8672C50.7265 59.0964 51.0624 59.3906 51.2551 59.75C51.4531 60.1042 51.552 60.7578 51.552 61.7109L51.5286 64.2734C51.5286 65.0026 51.5624 65.5417 51.6301 65.8906C51.7031 66.2344 51.8359 66.6042 52.0286 67H49.8567C49.7994 66.8542 49.7291 66.638 49.6458 66.3516C49.6093 66.2214 49.5833 66.1354 49.5676 66.0938C49.1926 66.4583 48.7916 66.7318 48.3645 66.9141C47.9374 67.0964 47.4817 67.1875 46.9973 67.1875C46.1432 67.1875 45.4687 66.9557 44.9739 66.4922C44.4843 66.0286 44.2395 65.4427 44.2395 64.7344C44.2395 64.2656 44.3515 63.849 44.5754 63.4844C44.7994 63.1146 45.1119 62.8333 45.5129 62.6406C45.9192 62.4427 46.5025 62.2708 47.2629 62.125C48.289 61.9323 48.9999 61.7526 49.3958 61.5859V61.3672C49.3958 60.9453 49.2916 60.6458 49.0833 60.4688C48.8749 60.2865 48.4817 60.1953 47.9036 60.1953C47.5129 60.1953 47.2083 60.2734 46.9895 60.4297C46.7708 60.5807 46.5937 60.849 46.4583 61.2344ZM49.3958 63.0156C49.1145 63.1094 48.6692 63.2214 48.0598 63.3516C47.4504 63.4818 47.052 63.6094 46.8645 63.7344C46.5781 63.9375 46.4348 64.1953 46.4348 64.5078C46.4348 64.8151 46.5494 65.0807 46.7786 65.3047C47.0077 65.5286 47.2994 65.6406 47.6536 65.6406C48.0494 65.6406 48.427 65.5104 48.7864 65.25C49.052 65.0521 49.2265 64.8099 49.3098 64.5234C49.3671 64.3359 49.3958 63.9792 49.3958 63.4531V63.0156ZM53.6692 58.7031H55.6848V65.2266H58.2317V58.7031H60.2551V65.2266H62.7942V58.7031H64.8176V67H53.6692V58.7031ZM68.7083 61.2344L66.7161 60.875C66.94 60.0729 67.3254 59.4792 67.8723 59.0938C68.4192 58.7083 69.2317 58.5156 70.3098 58.5156C71.289 58.5156 72.0182 58.6328 72.4973 58.8672C72.9765 59.0964 73.3124 59.3906 73.5051 59.75C73.7031 60.1042 73.802 60.7578 73.802 61.7109L73.7786 64.2734C73.7786 65.0026 73.8124 65.5417 73.8801 65.8906C73.9531 66.2344 74.0859 66.6042 74.2786 67H72.1067C72.0494 66.8542 71.9791 66.638 71.8958 66.3516C71.8593 66.2214 71.8333 66.1354 71.8176 66.0938C71.4426 66.4583 71.0416 66.7318 70.6145 66.9141C70.1874 67.0964 69.7317 67.1875 69.2473 67.1875C68.3932 67.1875 67.7187 66.9557 67.2239 66.4922C66.7343 66.0286 66.4895 65.4427 66.4895 64.7344C66.4895 64.2656 66.6015 63.849 66.8254 63.4844C67.0494 63.1146 67.3619 62.8333 67.7629 62.6406C68.1692 62.4427 68.7525 62.2708 69.5129 62.125C70.539 61.9323 71.2499 61.7526 71.6458 61.5859V61.3672C71.6458 60.9453 71.5416 60.6458 71.3333 60.4688C71.1249 60.2865 70.7317 60.1953 70.1536 60.1953C69.7629 60.1953 69.4583 60.2734 69.2395 60.4297C69.0208 60.5807 68.8437 60.849 68.7083 61.2344ZM71.6458 63.0156C71.3645 63.1094 70.9192 63.2214 70.3098 63.3516C69.7004 63.4818 69.302 63.6094 69.1145 63.7344C68.8281 63.9375 68.6848 64.1953 68.6848 64.5078C68.6848 64.8151 68.7994 65.0807 69.0286 65.3047C69.2577 65.5286 69.5494 65.6406 69.9036 65.6406C70.2994 65.6406 70.677 65.5104 71.0364 65.25C71.302 65.0521 71.4765 64.8099 71.5598 64.5234C71.6171 64.3359 71.6458 63.9792 71.6458 63.4531V63.0156ZM79.4426 58.7031H86.9504V60.4766H84.2942V67H82.0989V60.4766H79.4426V58.7031ZM93.0754 64.3594L95.2629 64.7266C94.9817 65.5286 94.5364 66.1406 93.927 66.5625C93.3228 66.9792 92.565 67.1875 91.6536 67.1875C90.2109 67.1875 89.1432 66.7161 88.4504 65.7734C87.9036 65.0182 87.6301 64.0651 87.6301 62.9141C87.6301 61.5391 87.9895 60.4635 88.7083 59.6875C89.427 58.9062 90.3359 58.5156 91.4348 58.5156C92.6692 58.5156 93.6432 58.9245 94.3567 59.7422C95.0702 60.5547 95.4114 61.8021 95.3801 63.4844H89.8801C89.8958 64.1354 90.0728 64.6432 90.4114 65.0078C90.7499 65.3672 91.1718 65.5469 91.677 65.5469C92.0208 65.5469 92.3098 65.4531 92.5442 65.2656C92.7786 65.0781 92.9557 64.776 93.0754 64.3594ZM93.2004 62.1406C93.1848 61.5052 93.0208 61.0234 92.7083 60.6953C92.3958 60.362 92.0156 60.1953 91.5676 60.1953C91.0885 60.1953 90.6926 60.3698 90.3801 60.7188C90.0676 61.0677 89.914 61.5417 89.9192 62.1406H93.2004ZM97.0911 58.7031H99.2786V62.0938C99.6432 62.0521 99.901 61.9401 100.052 61.7578C100.203 61.5755 100.385 61.1771 100.599 60.5625C100.88 59.7448 101.187 59.2214 101.521 58.9922C101.854 58.763 102.292 58.6484 102.833 58.6484C103 58.6484 103.289 58.6615 103.7 58.6875L103.708 60.1406C103.13 60.1406 102.76 60.1953 102.599 60.3047C102.437 60.4193 102.263 60.7604 102.075 61.3281C101.82 62.0938 101.453 62.5651 100.974 62.7422C101.667 62.9349 102.253 63.5365 102.732 64.5469C102.758 64.599 102.786 64.6536 102.818 64.7109L104.044 67H101.685L100.591 64.6016C100.367 64.1172 100.172 63.8073 100.005 63.6719C99.8437 63.5312 99.6015 63.4609 99.2786 63.4609V67H97.0911V58.7031ZM104.154 58.7031H106.49L108.474 64.5938L110.411 58.7031H112.685L109.755 66.6875L109.232 68.1328C109.039 68.6172 108.854 68.987 108.677 69.2422C108.505 69.4974 108.305 69.7031 108.075 69.8594C107.851 70.0208 107.573 70.1458 107.24 70.2344C106.911 70.3229 106.539 70.3672 106.122 70.3672C105.7 70.3672 105.286 70.3229 104.88 70.2344L104.685 68.5156C105.029 68.5833 105.338 68.6172 105.615 68.6172C106.125 68.6172 106.503 68.4661 106.747 68.1641C106.992 67.8672 107.18 67.487 107.31 67.0234L104.154 58.7031ZM114.052 58.7031H116.075V65.2266H118.599V58.7031H120.622V65.2266H123.177V58.7031H125.2V65.2266H126.099V69.1875H124.325V67H114.052V58.7031ZM129.443 61.2344L127.45 60.875C127.674 60.0729 128.06 59.4792 128.607 59.0938C129.154 58.7083 129.966 58.5156 131.044 58.5156C132.023 58.5156 132.753 58.6328 133.232 58.8672C133.711 59.0964 134.047 59.3906 134.24 59.75C134.437 60.1042 134.536 60.7578 134.536 61.7109L134.513 64.2734C134.513 65.0026 134.547 65.5417 134.615 65.8906C134.687 66.2344 134.82 66.6042 135.013 67H132.841C132.784 66.8542 132.713 66.638 132.63 66.3516C132.594 66.2214 132.568 66.1354 132.552 66.0938C132.177 66.4583 131.776 66.7318 131.349 66.9141C130.922 67.0964 130.466 67.1875 129.982 67.1875C129.128 67.1875 128.453 66.9557 127.958 66.4922C127.469 66.0286 127.224 65.4427 127.224 64.7344C127.224 64.2656 127.336 63.849 127.56 63.4844C127.784 63.1146 128.096 62.8333 128.497 62.6406C128.904 62.4427 129.487 62.2708 130.247 62.125C131.273 61.9323 131.984 61.7526 132.38 61.5859V61.3672C132.38 60.9453 132.276 60.6458 132.068 60.4688C131.859 60.2865 131.466 60.1953 130.888 60.1953C130.497 60.1953 130.193 60.2734 129.974 60.4297C129.755 60.5807 129.578 60.849 129.443 61.2344ZM132.38 63.0156C132.099 63.1094 131.654 63.2214 131.044 63.3516C130.435 63.4818 130.036 63.6094 129.849 63.7344C129.562 63.9375 129.419 64.1953 129.419 64.5078C129.419 64.8151 129.534 65.0807 129.763 65.3047C129.992 65.5286 130.284 65.6406 130.638 65.6406C131.034 65.6406 131.411 65.5104 131.771 65.25C132.036 65.0521 132.211 64.8099 132.294 64.5234C132.351 64.3359 132.38 63.9792 132.38 63.4531V63.0156ZM143.818 58.7031V67H141.638V63.5547H141.435C140.961 63.5547 140.612 63.6172 140.388 63.7422C140.169 63.862 139.924 64.1198 139.654 64.5156L139.521 64.6797L138.075 67H135.521L137.091 64.5938C137.539 63.9062 137.945 63.5104 138.31 63.4062C137.695 63.3698 137.195 63.138 136.81 62.7109C136.43 62.2786 136.24 61.7292 136.24 61.0625C136.24 60.526 136.365 60.0677 136.615 59.6875C136.87 59.3073 137.206 59.0495 137.622 58.9141C138.044 58.7734 138.669 58.7031 139.497 58.7031H143.818ZM141.638 60.1172H140.068C139.49 60.1172 139.083 60.2005 138.849 60.3672C138.615 60.5286 138.497 60.7995 138.497 61.1797C138.497 61.5599 138.63 61.8333 138.896 62C139.161 62.1667 139.596 62.25 140.2 62.25H141.638V60.1172ZM157.74 61.1562L155.575 61.5469C155.503 61.1146 155.336 60.7891 155.075 60.5703C154.82 60.3516 154.487 60.2422 154.075 60.2422C153.529 60.2422 153.091 60.4323 152.763 60.8125C152.44 61.1875 152.279 61.8177 152.279 62.7031C152.279 63.6875 152.443 64.3828 152.771 64.7891C153.104 65.1953 153.549 65.3984 154.107 65.3984C154.523 65.3984 154.865 65.2812 155.13 65.0469C155.396 64.8073 155.583 64.3984 155.693 63.8203L157.849 64.1875C157.625 65.1771 157.195 65.9245 156.56 66.4297C155.924 66.9349 155.073 67.1875 154.005 67.1875C152.792 67.1875 151.823 66.8047 151.099 66.0391C150.38 65.2734 150.021 64.2135 150.021 62.8594C150.021 61.4896 150.383 60.4245 151.107 59.6641C151.831 58.8984 152.81 58.5156 154.044 58.5156C155.055 58.5156 155.857 58.7344 156.45 59.1719C157.049 59.6042 157.479 60.2656 157.74 61.1562ZM159.325 58.7031H161.513V62.0938C161.878 62.0521 162.135 61.9401 162.286 61.7578C162.437 61.5755 162.62 61.1771 162.833 60.5625C163.115 59.7448 163.422 59.2214 163.755 58.9922C164.088 58.763 164.526 58.6484 165.068 58.6484C165.234 58.6484 165.523 58.6615 165.935 58.6875L165.943 60.1406C165.365 60.1406 164.995 60.1953 164.833 60.3047C164.672 60.4193 164.497 60.7604 164.31 61.3281C164.055 62.0938 163.687 62.5651 163.208 62.7422C163.901 62.9349 164.487 63.5365 164.966 64.5469C164.992 64.599 165.021 64.6536 165.052 64.7109L166.279 67H163.919L162.825 64.6016C162.601 64.1172 162.406 63.8073 162.24 63.6719C162.078 63.5312 161.836 63.4609 161.513 63.4609V67H159.325V58.7031ZM167.372 58.7031H169.482V63.9141L172.857 58.7031H175.013V67H172.904V61.6953L169.482 67H167.372V58.7031ZM184.13 67H177.849V69.1875H176.068V65.2031H176.966C177.341 64.7865 177.651 64.1354 177.896 63.25C178.141 62.3646 178.286 60.849 178.333 58.7031H185.029V65.2031H185.919V69.1875H184.13V67ZM182.857 65.2031L182.865 60.5078H180.208C180.12 62.7995 179.755 64.3646 179.115 65.2031H182.857ZM187.341 58.7031H189.529V62.0938C189.893 62.0521 190.151 61.9401 190.302 61.7578C190.453 61.5755 190.635 61.1771 190.849 60.5625C191.13 59.7448 191.437 59.2214 191.771 58.9922C192.104 58.763 192.542 58.6484 193.083 58.6484C193.25 58.6484 193.539 58.6615 193.95 58.6875L193.958 60.1406C193.38 60.1406 193.01 60.1953 192.849 60.3047C192.687 60.4193 192.513 60.7604 192.325 61.3281C192.07 62.0938 191.703 62.5651 191.224 62.7422C191.917 62.9349 192.503 63.5365 192.982 64.5469C193.008 64.599 193.036 64.6536 193.068 64.7109L194.294 67H191.935L190.841 64.6016C190.617 64.1172 190.422 63.8073 190.255 63.6719C190.094 63.5312 189.851 63.4609 189.529 63.4609V67H187.341V58.7031ZM197.083 61.2344L195.091 60.875C195.315 60.0729 195.7 59.4792 196.247 59.0938C196.794 58.7083 197.607 58.5156 198.685 58.5156C199.664 58.5156 200.393 58.6328 200.872 58.8672C201.351 59.0964 201.687 59.3906 201.88 59.75C202.078 60.1042 202.177 60.7578 202.177 61.7109L202.154 64.2734C202.154 65.0026 202.187 65.5417 202.255 65.8906C202.328 66.2344 202.461 66.6042 202.654 67H200.482C200.424 66.8542 200.354 66.638 200.271 66.3516C200.234 66.2214 200.208 66.1354 200.193 66.0938C199.818 66.4583 199.417 66.7318 198.99 66.9141C198.562 67.0964 198.107 67.1875 197.622 67.1875C196.768 67.1875 196.094 66.9557 195.599 66.4922C195.109 66.0286 194.865 65.4427 194.865 64.7344C194.865 64.2656 194.976 63.849 195.2 63.4844C195.424 63.1146 195.737 62.8333 196.138 62.6406C196.544 62.4427 197.128 62.2708 197.888 62.125C198.914 61.9323 199.625 61.7526 200.021 61.5859V61.3672C200.021 60.9453 199.917 60.6458 199.708 60.4688C199.5 60.2865 199.107 60.1953 198.529 60.1953C198.138 60.1953 197.833 60.2734 197.615 60.4297C197.396 60.5807 197.219 60.849 197.083 61.2344ZM200.021 63.0156C199.74 63.1094 199.294 63.2214 198.685 63.3516C198.075 63.4818 197.677 63.6094 197.49 63.7344C197.203 63.9375 197.06 64.1953 197.06 64.5078C197.06 64.8151 197.174 65.0807 197.404 65.3047C197.633 65.5286 197.924 65.6406 198.279 65.6406C198.674 65.6406 199.052 65.5104 199.411 65.25C199.677 65.0521 199.851 64.8099 199.935 64.5234C199.992 64.3359 200.021 63.9792 200.021 63.4531V63.0156Z" fill="white"/>
<path d="M139.678 8.74832H144.808L124.214 46.8235H119.133L139.678 8.74832ZM109.407 18.1091C109.407 16.4558 109.764 14.8835 110.477 13.3922C111.206 11.901 112.308 10.7582 113.784 9.964C115.275 9.15355 117.033 8.74832 119.06 8.74832C122.042 8.74832 124.392 9.5993 126.111 11.3013C127.829 13.0032 128.688 15.2725 128.688 18.1091C128.688 20.9619 127.829 23.2393 126.111 24.9412C124.392 26.6432 122.042 27.4942 119.06 27.4942C117.033 27.4942 115.275 27.097 113.784 26.3028C112.308 25.4923 111.206 24.3415 110.477 22.8502C109.764 21.359 109.407 19.7786 109.407 18.1091ZM116.239 18.1577C116.239 20.1676 116.563 21.6265 117.212 22.5342C117.633 23.1339 118.249 23.4338 119.06 23.4338C119.87 23.4338 120.478 23.1339 120.883 22.5342C121.531 21.6265 121.856 20.1676 121.856 18.1577C121.856 16.164 121.531 14.7052 120.883 13.7812C120.478 13.1977 119.87 12.906 119.06 12.906C118.249 12.906 117.633 13.1977 117.212 13.7812C116.563 14.689 116.239 16.1478 116.239 18.1577ZM135.107 37.3898C135.107 35.7203 135.463 34.148 136.176 32.673C136.89 31.1817 137.992 30.0309 139.483 29.2204C140.974 28.41 142.725 28.0047 144.735 28.0047C147.734 28.0047 150.092 28.8638 151.81 30.582C153.528 32.284 154.387 34.5532 154.387 37.3898C154.387 40.2264 153.528 42.5038 151.81 44.222C150.092 45.9239 147.734 46.7749 144.735 46.7749C142.725 46.7749 140.974 46.3697 139.483 45.5592C137.992 44.7488 136.89 43.606 136.176 42.131C135.463 40.6397 135.107 39.0594 135.107 37.3898ZM141.939 37.4384C141.939 39.4484 142.263 40.9072 142.911 41.8149C143.317 42.3984 143.924 42.6902 144.735 42.6902C145.545 42.6902 146.161 42.3984 146.583 41.8149C147.231 40.9072 147.555 39.4484 147.555 37.4384C147.555 35.4285 147.231 33.9616 146.583 33.0377C146.161 32.4541 145.545 32.1624 144.735 32.1624C143.924 32.1624 143.317 32.4623 142.911 33.062C142.263 33.9697 141.939 35.4285 141.939 37.4384Z" fill="#A0A0A0"/>
<path d="M109.646 48H102.099V19.5601C99.342 22.1382 96.0924 24.0449 92.3506 25.2803V18.4321C94.32 17.7876 96.4595 16.5701 98.769 14.7798C101.079 12.9715 102.663 10.8678 103.522 8.46875H109.646V48Z" fill="#A0A0A0"/>
</svg>
