<svg width="74" height="51" viewBox="0 0 74 51" fill="none" xmlns="http://www.w3.org/2000/svg">
<g clip-path="url(#clip0)">
<path d="M56.8081 9.92242V8.0421C56.8081 7.24196 56.168 6.56184 55.3278 6.56184H53.3275C54.1276 6.56184 54.8077 5.92173 54.8077 5.08159V3.28128C54.8077 2.48114 54.1676 1.80103 53.3275 1.80103H9.07986C8.27973 1.80103 7.59961 2.44114 7.59961 3.28128V5.1616C7.59961 5.96174 8.23972 6.64186 9.07986 6.64186H11.0802C10.2801 6.64186 9.59995 7.28197 9.59995 8.12211V10.0024C9.59995 10.8026 10.2401 11.4827 11.0802 11.4827H9.07986C8.27973 11.4827 7.59961 12.1228 7.59961 12.9629V14.8433C7.59961 15.6434 8.23972 16.3235 9.07986 16.3235H11.0802C10.2801 16.3235 9.59995 16.9636 9.59995 17.8038V19.6841C9.59995 20.4842 10.2401 21.1644 11.0802 21.1644H9.07986C8.27973 21.1644 7.59961 21.8045 7.59961 22.6446V24.5249C7.59961 25.3251 8.23972 26.0052 9.07986 26.0052H53.3675C54.1676 26.0052 54.8477 25.3651 54.8477 24.5249V22.6446C54.8477 21.8445 54.2076 21.1644 53.3675 21.1644H55.3678C56.168 21.1644 56.8481 20.5242 56.8481 19.6841V17.8038C56.8481 17.0036 56.208 16.3235 55.3678 16.3235H53.3675C54.1676 16.3235 54.8477 15.6834 54.8477 14.8433V12.9629C54.8477 12.1628 54.2076 11.4827 53.3675 11.4827H55.3678C56.168 11.4027 56.8081 10.7626 56.8081 9.92242Z" fill="white"/>
<path d="M55.4894 11.4026H11.2793C10.4798 11.4026 9.80029 10.7678 9.80029 9.93461V8.06983C9.80029 7.2763 10.4399 6.60181 11.2793 6.60181H55.5294C56.3289 6.60181 57.0084 7.23663 57.0084 8.06983V9.93461C56.9684 10.7678 56.3289 11.4026 55.4894 11.4026Z" stroke="#DDDDDD" stroke-width="0.382721" stroke-miterlimit="10"/>
<path d="M53.4894 6.60185H9.27929C8.47983 6.60185 7.80029 5.96174 7.80029 5.1216V3.28128C7.80029 2.48114 8.43986 1.80103 9.27929 1.80103H53.5294C54.3289 1.80103 55.0084 2.44114 55.0084 3.28128V5.1616C54.9684 5.96174 54.3289 6.60185 53.4894 6.60185Z" stroke="#DDDDDD" stroke-width="0.382721" stroke-miterlimit="10"/>
<path d="M53.4894 25.8042H9.27929C8.47983 25.8042 7.80029 25.1694 7.80029 24.3362V22.4714C7.80029 21.6779 8.43986 21.0034 9.27929 21.0034H53.5294C54.3289 21.0034 55.0084 21.6382 55.0084 22.4714V24.3362C54.9684 25.1694 54.3289 25.8042 53.4894 25.8042Z" stroke="#DDDDDD" stroke-width="0.382721" stroke-miterlimit="10"/>
<path d="M55.4894 21.0032H11.2793C10.4798 21.0032 9.80029 20.3684 9.80029 19.5352V17.6704C9.80029 16.8769 10.4399 16.2024 11.2793 16.2024H55.5294C56.3289 16.2024 57.0084 16.8372 57.0084 17.6704V19.5352C56.9684 20.3684 56.3289 21.0032 55.4894 21.0032Z" stroke="#DDDDDD" stroke-width="0.382721" stroke-miterlimit="10"/>
<path d="M53.4894 16.2024H9.27929C8.47983 16.2024 7.80029 15.5676 7.80029 14.7344V12.8696C7.80029 12.0761 8.43986 11.4016 9.27929 11.4016H53.5294C54.3289 11.4016 55.0084 12.0364 55.0084 12.8696V14.7344C54.9684 15.5676 54.3289 16.2024 53.4894 16.2024Z" stroke="#DDDDDD" stroke-width="0.382721" stroke-miterlimit="10"/>
<path d="M7.71875 2.60059H54.6868" stroke="#DDDDDD" stroke-width="0.191361" stroke-miterlimit="10"/>
<path d="M7.71875 5.80151H54.6868" stroke="#DDDDDD" stroke-width="0.191361" stroke-miterlimit="10"/>
<path d="M8.75928 2.59961V5.80016" stroke="#DDDDDD" stroke-width="0.191361" stroke-miterlimit="10"/>
<path d="M10.3584 2.59961V5.80016" stroke="#DDDDDD" stroke-width="0.191361" stroke-miterlimit="10"/>
<path d="M11.959 2.59961V5.80016" stroke="#DDDDDD" stroke-width="0.191361" stroke-miterlimit="10"/>
<path d="M13.5601 2.59961V5.80016" stroke="#DDDDDD" stroke-width="0.191361" stroke-miterlimit="10"/>
<path d="M15.1611 2.59961V5.80016" stroke="#DDDDDD" stroke-width="0.191361" stroke-miterlimit="10"/>
<path d="M16.7598 2.59961V5.80016" stroke="#DDDDDD" stroke-width="0.191361" stroke-miterlimit="10"/>
<path d="M18.3608 2.59961V5.80016" stroke="#DDDDDD" stroke-width="0.191361" stroke-miterlimit="10"/>
<path d="M19.96 2.59961V5.80016" stroke="#DDDDDD" stroke-width="0.191361" stroke-miterlimit="10"/>
<path d="M21.563 2.59961V5.80016" stroke="#DDDDDD" stroke-width="0.191361" stroke-miterlimit="10"/>
<path d="M23.1616 2.59961V5.80016" stroke="#DDDDDD" stroke-width="0.191361" stroke-miterlimit="10"/>
<path d="M24.7627 2.59961V5.80016" stroke="#DDDDDD" stroke-width="0.191361" stroke-miterlimit="10"/>
<path d="M26.3613 2.59961V5.80016" stroke="#DDDDDD" stroke-width="0.191361" stroke-miterlimit="10"/>
<path d="M27.9624 2.59961V5.80016" stroke="#DDDDDD" stroke-width="0.191361" stroke-miterlimit="10"/>
<path d="M29.5615 2.59961V5.80016" stroke="#DDDDDD" stroke-width="0.191361" stroke-miterlimit="10"/>
<path d="M31.1646 2.59961V5.80016" stroke="#DDDDDD" stroke-width="0.191361" stroke-miterlimit="10"/>
<path d="M32.7632 2.59961V5.80016" stroke="#DDDDDD" stroke-width="0.191361" stroke-miterlimit="10"/>
<path d="M34.3643 2.59961V5.80016" stroke="#DDDDDD" stroke-width="0.191361" stroke-miterlimit="10"/>
<path d="M35.9634 2.59961V5.80016" stroke="#DDDDDD" stroke-width="0.191361" stroke-miterlimit="10"/>
<path d="M37.564 2.59961V5.80016" stroke="#DDDDDD" stroke-width="0.191361" stroke-miterlimit="10"/>
<path d="M39.165 2.59961V5.80016" stroke="#DDDDDD" stroke-width="0.191361" stroke-miterlimit="10"/>
<path d="M40.7661 2.59961V5.80016" stroke="#DDDDDD" stroke-width="0.191361" stroke-miterlimit="10"/>
<path d="M42.3647 2.59961V5.80016" stroke="#DDDDDD" stroke-width="0.191361" stroke-miterlimit="10"/>
<path d="M43.9658 2.59961V5.80016" stroke="#DDDDDD" stroke-width="0.191361" stroke-miterlimit="10"/>
<path d="M45.5649 2.59961V5.80016" stroke="#DDDDDD" stroke-width="0.191361" stroke-miterlimit="10"/>
<path d="M47.1655 2.59961V5.80016" stroke="#DDDDDD" stroke-width="0.191361" stroke-miterlimit="10"/>
<path d="M48.7666 2.59961V5.80016" stroke="#DDDDDD" stroke-width="0.191361" stroke-miterlimit="10"/>
<path d="M50.3657 2.59961V5.80016" stroke="#DDDDDD" stroke-width="0.191361" stroke-miterlimit="10"/>
<path d="M51.9663 2.59961V5.80016" stroke="#DDDDDD" stroke-width="0.191361" stroke-miterlimit="10"/>
<path d="M53.5654 2.59961V5.80016" stroke="#DDDDDD" stroke-width="0.191361" stroke-miterlimit="10"/>
<path d="M9.72119 7.40137H56.6893" stroke="#DDDDDD" stroke-width="0.191361" stroke-miterlimit="10"/>
<path d="M9.72119 10.6023H56.6893" stroke="#DDDDDD" stroke-width="0.191361" stroke-miterlimit="10"/>
<path d="M10.7588 7.40137V10.6019" stroke="#DDDDDD" stroke-width="0.191361" stroke-miterlimit="10"/>
<path d="M12.3589 7.40039V10.6009" stroke="#DDDDDD" stroke-width="0.191361" stroke-miterlimit="10"/>
<path d="M13.9595 7.40039V10.6009" stroke="#DDDDDD" stroke-width="0.191361" stroke-miterlimit="10"/>
<path d="M15.5605 7.40039V10.6009" stroke="#DDDDDD" stroke-width="0.191361" stroke-miterlimit="10"/>
<path d="M17.1616 7.40039V10.6009" stroke="#DDDDDD" stroke-width="0.191361" stroke-miterlimit="10"/>
<path d="M18.7603 7.40039V10.6009" stroke="#DDDDDD" stroke-width="0.191361" stroke-miterlimit="10"/>
<path d="M20.3613 7.40039V10.6009" stroke="#DDDDDD" stroke-width="0.191361" stroke-miterlimit="10"/>
<path d="M21.9604 7.40039V10.6009" stroke="#DDDDDD" stroke-width="0.191361" stroke-miterlimit="10"/>
<path d="M23.563 7.40039V10.6009" stroke="#DDDDDD" stroke-width="0.191361" stroke-miterlimit="10"/>
<path d="M25.1621 7.40039V10.6009" stroke="#DDDDDD" stroke-width="0.191361" stroke-miterlimit="10"/>
<path d="M26.7632 7.40039V10.6009" stroke="#DDDDDD" stroke-width="0.191361" stroke-miterlimit="10"/>
<path d="M28.3618 7.40039V10.6009" stroke="#DDDDDD" stroke-width="0.191361" stroke-miterlimit="10"/>
<path d="M29.9629 7.40039V10.6009" stroke="#DDDDDD" stroke-width="0.191361" stroke-miterlimit="10"/>
<path d="M31.562 7.40039V10.6009" stroke="#DDDDDD" stroke-width="0.191361" stroke-miterlimit="10"/>
<path d="M33.165 7.40039V10.6009" stroke="#DDDDDD" stroke-width="0.191361" stroke-miterlimit="10"/>
<path d="M34.7637 7.40039V10.6009" stroke="#DDDDDD" stroke-width="0.191361" stroke-miterlimit="10"/>
<path d="M36.3647 7.40039V10.6009" stroke="#DDDDDD" stroke-width="0.191361" stroke-miterlimit="10"/>
<path d="M37.9634 7.40039V10.6009" stroke="#DDDDDD" stroke-width="0.191361" stroke-miterlimit="10"/>
<path d="M39.5645 7.40039V10.6009" stroke="#DDDDDD" stroke-width="0.191361" stroke-miterlimit="10"/>
<path d="M41.1655 7.40039V10.6009" stroke="#DDDDDD" stroke-width="0.191361" stroke-miterlimit="10"/>
<path d="M42.7666 7.40039V10.6009" stroke="#DDDDDD" stroke-width="0.191361" stroke-miterlimit="10"/>
<path d="M44.3652 7.40039V10.6009" stroke="#DDDDDD" stroke-width="0.191361" stroke-miterlimit="10"/>
<path d="M45.9663 7.40039V10.6009" stroke="#DDDDDD" stroke-width="0.191361" stroke-miterlimit="10"/>
<path d="M47.5654 7.40039V10.6009" stroke="#DDDDDD" stroke-width="0.191361" stroke-miterlimit="10"/>
<path d="M49.166 7.40039V10.6009" stroke="#DDDDDD" stroke-width="0.191361" stroke-miterlimit="10"/>
<path d="M50.7671 7.40039V10.6009" stroke="#DDDDDD" stroke-width="0.191361" stroke-miterlimit="10"/>
<path d="M52.3662 7.40039V10.6009" stroke="#DDDDDD" stroke-width="0.191361" stroke-miterlimit="10"/>
<path d="M53.9668 7.40039V10.6009" stroke="#DDDDDD" stroke-width="0.191361" stroke-miterlimit="10"/>
<path d="M55.5659 7.40039V10.6009" stroke="#DDDDDD" stroke-width="0.191361" stroke-miterlimit="10"/>
<path d="M7.71875 12.2021H54.6868" stroke="#DDDDDD" stroke-width="0.191361" stroke-miterlimit="10"/>
<path d="M7.71875 15.4031H54.6868" stroke="#DDDDDD" stroke-width="0.191361" stroke-miterlimit="10"/>
<path d="M7.71875 21.8037H54.6868" stroke="#DDDDDD" stroke-width="0.191361" stroke-miterlimit="10"/>
<path d="M7.71875 25.0046H54.6868" stroke="#DDDDDD" stroke-width="0.191361" stroke-miterlimit="10"/>
<path d="M8.75928 21.803V25.0035" stroke="#DDDDDD" stroke-width="0.191361" stroke-miterlimit="10"/>
<path d="M10.3584 21.803V25.0035" stroke="#DDDDDD" stroke-width="0.191361" stroke-miterlimit="10"/>
<path d="M11.959 21.803V25.0035" stroke="#DDDDDD" stroke-width="0.191361" stroke-miterlimit="10"/>
<path d="M13.5601 21.803V25.0035" stroke="#DDDDDD" stroke-width="0.191361" stroke-miterlimit="10"/>
<path d="M15.1611 21.803V25.0035" stroke="#DDDDDD" stroke-width="0.191361" stroke-miterlimit="10"/>
<path d="M16.7598 21.803V25.0035" stroke="#DDDDDD" stroke-width="0.191361" stroke-miterlimit="10"/>
<path d="M18.3608 21.803V25.0035" stroke="#DDDDDD" stroke-width="0.191361" stroke-miterlimit="10"/>
<path d="M19.96 21.803V25.0035" stroke="#DDDDDD" stroke-width="0.191361" stroke-miterlimit="10"/>
<path d="M21.563 21.803V25.0035" stroke="#DDDDDD" stroke-width="0.191361" stroke-miterlimit="10"/>
<path d="M23.1616 21.803V25.0035" stroke="#DDDDDD" stroke-width="0.191361" stroke-miterlimit="10"/>
<path d="M24.7627 21.803V25.0035" stroke="#DDDDDD" stroke-width="0.191361" stroke-miterlimit="10"/>
<path d="M26.3613 21.803V25.0035" stroke="#DDDDDD" stroke-width="0.191361" stroke-miterlimit="10"/>
<path d="M27.9624 21.803V25.0035" stroke="#DDDDDD" stroke-width="0.191361" stroke-miterlimit="10"/>
<path d="M29.5615 21.803V25.0035" stroke="#DDDDDD" stroke-width="0.191361" stroke-miterlimit="10"/>
<path d="M31.1646 21.803V25.0035" stroke="#DDDDDD" stroke-width="0.191361" stroke-miterlimit="10"/>
<path d="M32.7632 21.803V25.0035" stroke="#DDDDDD" stroke-width="0.191361" stroke-miterlimit="10"/>
<path d="M34.3643 21.803V25.0035" stroke="#DDDDDD" stroke-width="0.191361" stroke-miterlimit="10"/>
<path d="M35.9634 21.803V25.0035" stroke="#DDDDDD" stroke-width="0.191361" stroke-miterlimit="10"/>
<path d="M37.564 21.803V25.0035" stroke="#DDDDDD" stroke-width="0.191361" stroke-miterlimit="10"/>
<path d="M39.165 21.803V25.0035" stroke="#DDDDDD" stroke-width="0.191361" stroke-miterlimit="10"/>
<path d="M40.7661 21.803V25.0035" stroke="#DDDDDD" stroke-width="0.191361" stroke-miterlimit="10"/>
<path d="M42.3647 21.803V25.0035" stroke="#DDDDDD" stroke-width="0.191361" stroke-miterlimit="10"/>
<path d="M43.9658 21.803V25.0035" stroke="#DDDDDD" stroke-width="0.191361" stroke-miterlimit="10"/>
<path d="M45.5649 21.803V25.0035" stroke="#DDDDDD" stroke-width="0.191361" stroke-miterlimit="10"/>
<path d="M47.1655 21.803V25.0035" stroke="#DDDDDD" stroke-width="0.191361" stroke-miterlimit="10"/>
<path d="M48.7666 21.803V25.0035" stroke="#DDDDDD" stroke-width="0.191361" stroke-miterlimit="10"/>
<path d="M50.3657 21.803V25.0035" stroke="#DDDDDD" stroke-width="0.191361" stroke-miterlimit="10"/>
<path d="M51.9663 21.803V25.0035" stroke="#DDDDDD" stroke-width="0.191361" stroke-miterlimit="10"/>
<path d="M53.5654 21.803V25.0035" stroke="#DDDDDD" stroke-width="0.191361" stroke-miterlimit="10"/>
<path d="M9.72119 17.0029H56.6893" stroke="#DDDDDD" stroke-width="0.191361" stroke-miterlimit="10"/>
<path d="M9.72119 20.2039H56.6893" stroke="#DDDDDD" stroke-width="0.191361" stroke-miterlimit="10"/>
<path d="M10.7588 17.0029V20.2035" stroke="#DDDDDD" stroke-width="0.191361" stroke-miterlimit="10"/>
<path d="M12.3589 17.0029V20.2035" stroke="#DDDDDD" stroke-width="0.191361" stroke-miterlimit="10"/>
<path d="M13.9595 17.0029V20.2035" stroke="#DDDDDD" stroke-width="0.191361" stroke-miterlimit="10"/>
<path d="M15.5605 17.0029V20.2035" stroke="#DDDDDD" stroke-width="0.191361" stroke-miterlimit="10"/>
<path d="M17.1616 17.0029V20.2035" stroke="#DDDDDD" stroke-width="0.191361" stroke-miterlimit="10"/>
<path d="M18.7603 17.0029V20.2035" stroke="#DDDDDD" stroke-width="0.191361" stroke-miterlimit="10"/>
<path d="M20.3613 17.0029V20.2035" stroke="#DDDDDD" stroke-width="0.191361" stroke-miterlimit="10"/>
<path d="M21.9604 17.0029V20.2035" stroke="#DDDDDD" stroke-width="0.191361" stroke-miterlimit="10"/>
<path d="M23.563 17.0029V20.2035" stroke="#DDDDDD" stroke-width="0.191361" stroke-miterlimit="10"/>
<path d="M25.1621 17.0029V20.2035" stroke="#DDDDDD" stroke-width="0.191361" stroke-miterlimit="10"/>
<path d="M26.7632 17.0029V20.2035" stroke="#DDDDDD" stroke-width="0.191361" stroke-miterlimit="10"/>
<path d="M28.3618 17.0029V20.2035" stroke="#DDDDDD" stroke-width="0.191361" stroke-miterlimit="10"/>
<path d="M29.9629 17.0029V20.2035" stroke="#DDDDDD" stroke-width="0.191361" stroke-miterlimit="10"/>
<path d="M31.562 17.0029V20.2035" stroke="#DDDDDD" stroke-width="0.191361" stroke-miterlimit="10"/>
<path d="M33.165 17.0029V20.2035" stroke="#DDDDDD" stroke-width="0.191361" stroke-miterlimit="10"/>
<path d="M34.7637 17.0029V20.2035" stroke="#DDDDDD" stroke-width="0.191361" stroke-miterlimit="10"/>
<path d="M36.3647 17.0029V20.2035" stroke="#DDDDDD" stroke-width="0.191361" stroke-miterlimit="10"/>
<path d="M37.9634 17.0029V20.2035" stroke="#DDDDDD" stroke-width="0.191361" stroke-miterlimit="10"/>
<path d="M39.5645 17.0029V20.2035" stroke="#DDDDDD" stroke-width="0.191361" stroke-miterlimit="10"/>
<path d="M41.1655 17.0029V20.2035" stroke="#DDDDDD" stroke-width="0.191361" stroke-miterlimit="10"/>
<path d="M42.7666 17.0029V20.2035" stroke="#DDDDDD" stroke-width="0.191361" stroke-miterlimit="10"/>
<path d="M44.3652 17.0029V20.2035" stroke="#DDDDDD" stroke-width="0.191361" stroke-miterlimit="10"/>
<path d="M45.9663 17.0029V20.2035" stroke="#DDDDDD" stroke-width="0.191361" stroke-miterlimit="10"/>
<path d="M47.5654 17.0029V20.2035" stroke="#DDDDDD" stroke-width="0.191361" stroke-miterlimit="10"/>
<path d="M49.166 17.0029V20.2035" stroke="#DDDDDD" stroke-width="0.191361" stroke-miterlimit="10"/>
<path d="M50.7671 17.0029V20.2035" stroke="#DDDDDD" stroke-width="0.191361" stroke-miterlimit="10"/>
<path d="M52.3662 17.0029V20.2035" stroke="#DDDDDD" stroke-width="0.191361" stroke-miterlimit="10"/>
<path d="M53.9668 17.0029V20.2035" stroke="#DDDDDD" stroke-width="0.191361" stroke-miterlimit="10"/>
<path d="M55.5659 17.0029V20.2035" stroke="#DDDDDD" stroke-width="0.191361" stroke-miterlimit="10"/>
<path d="M56.9688 9.8553V7.99052C56.9688 7.19699 56.3292 6.5225 55.4897 6.5225H53.491C54.2905 6.5225 54.9701 5.88768 54.9701 5.05448V3.26905C54.9701 2.47552 54.3305 1.80103 53.491 1.80103H9.27934C8.47986 1.80103 7.80029 2.43585 7.80029 3.26905V5.13383C7.80029 5.92735 8.43988 6.60185 9.27934 6.60185H11.2781C10.4786 6.60185 9.79901 7.23667 9.79901 8.06987V9.93466C9.79901 10.7282 10.4386 11.4027 11.2781 11.4027H9.27934C8.47986 11.4027 7.80029 12.0375 7.80029 12.8707V14.7355C7.80029 15.529 8.43988 16.2035 9.27934 16.2035H11.2781C10.4786 16.2035 9.79901 16.8383 9.79901 17.6715V19.5363C9.79901 20.3298 10.4386 21.0043 11.2781 21.0043H9.27934C8.47986 21.0043 7.80029 21.6391 7.80029 22.4723V24.3371C7.80029 25.1307 8.43988 25.8052 9.27934 25.8052H53.531C54.3305 25.8052 55.01 25.1703 55.01 24.3371V22.4723C55.01 21.6788 54.3704 21.0043 53.531 21.0043H55.5297C56.3292 21.0043 57.0087 20.3695 57.0087 19.5363V17.6715C57.0087 16.878 56.3692 16.2035 55.5297 16.2035H53.531C54.3305 16.2035 55.01 15.5687 55.01 14.7355V12.8707C55.01 12.0772 54.3704 11.4027 53.531 11.4027H55.5297C56.3292 11.3233 56.9688 10.6885 56.9688 9.8553Z" stroke="#808080" stroke-width="0.382721" stroke-miterlimit="10"/>
<path d="M8.75928 12.2012V15.4017" stroke="#DDDDDD" stroke-width="0.191361" stroke-miterlimit="10"/>
<path d="M10.3584 12.2012V15.4017" stroke="#DDDDDD" stroke-width="0.191361" stroke-miterlimit="10"/>
<path d="M11.959 12.2012V15.4017" stroke="#DDDDDD" stroke-width="0.191361" stroke-miterlimit="10"/>
<path d="M13.5601 12.2012V15.4017" stroke="#DDDDDD" stroke-width="0.191361" stroke-miterlimit="10"/>
<path d="M15.1611 12.2012V15.4017" stroke="#DDDDDD" stroke-width="0.191361" stroke-miterlimit="10"/>
<path d="M16.7598 12.2012V15.4017" stroke="#DDDDDD" stroke-width="0.191361" stroke-miterlimit="10"/>
<path d="M18.3608 12.2012V15.4017" stroke="#DDDDDD" stroke-width="0.191361" stroke-miterlimit="10"/>
<path d="M19.96 12.2012V15.4017" stroke="#DDDDDD" stroke-width="0.191361" stroke-miterlimit="10"/>
<path d="M21.563 12.2012V15.4017" stroke="#DDDDDD" stroke-width="0.191361" stroke-miterlimit="10"/>
<path d="M23.1616 12.2012V15.4017" stroke="#DDDDDD" stroke-width="0.191361" stroke-miterlimit="10"/>
<path d="M24.7627 12.2012V15.4017" stroke="#DDDDDD" stroke-width="0.191361" stroke-miterlimit="10"/>
<path d="M26.3613 12.2012V15.4017" stroke="#DDDDDD" stroke-width="0.191361" stroke-miterlimit="10"/>
<path d="M27.9624 12.2012V15.4017" stroke="#DDDDDD" stroke-width="0.191361" stroke-miterlimit="10"/>
<path d="M29.5615 12.2012V15.4017" stroke="#DDDDDD" stroke-width="0.191361" stroke-miterlimit="10"/>
<path d="M31.1646 12.2012V15.4017" stroke="#DDDDDD" stroke-width="0.191361" stroke-miterlimit="10"/>
<path d="M32.7632 12.2012V15.4017" stroke="#DDDDDD" stroke-width="0.191361" stroke-miterlimit="10"/>
<path d="M34.3643 12.2012V15.4017" stroke="#DDDDDD" stroke-width="0.191361" stroke-miterlimit="10"/>
<path d="M35.9634 12.2012V15.4017" stroke="#DDDDDD" stroke-width="0.191361" stroke-miterlimit="10"/>
<path d="M37.564 12.2012V15.4017" stroke="#DDDDDD" stroke-width="0.191361" stroke-miterlimit="10"/>
<path d="M39.165 12.2012V15.4017" stroke="#DDDDDD" stroke-width="0.191361" stroke-miterlimit="10"/>
<path d="M40.7661 12.2012V15.4017" stroke="#DDDDDD" stroke-width="0.191361" stroke-miterlimit="10"/>
<path d="M42.3647 12.2012V15.4017" stroke="#DDDDDD" stroke-width="0.191361" stroke-miterlimit="10"/>
<path d="M43.9658 12.2012V15.4017" stroke="#DDDDDD" stroke-width="0.191361" stroke-miterlimit="10"/>
<path d="M45.5649 12.2012V15.4017" stroke="#DDDDDD" stroke-width="0.191361" stroke-miterlimit="10"/>
<path d="M47.1655 12.2012V15.4017" stroke="#DDDDDD" stroke-width="0.191361" stroke-miterlimit="10"/>
<path d="M48.7666 12.2012V15.4017" stroke="#DDDDDD" stroke-width="0.191361" stroke-miterlimit="10"/>
<path d="M50.3657 12.2012V15.4017" stroke="#DDDDDD" stroke-width="0.191361" stroke-miterlimit="10"/>
<path d="M51.9663 12.2012V15.4017" stroke="#DDDDDD" stroke-width="0.191361" stroke-miterlimit="10"/>
<path d="M53.5654 12.2012V15.4017" stroke="#DDDDDD" stroke-width="0.191361" stroke-miterlimit="10"/>
</g>
<path d="M2 25H74V44H6L2 25Z" fill="#900583"/>
<path d="M38 51L31 44H74L38 51Z" fill="#710167"/>
<path d="M12.6854 38.0273V36.3691L16.7987 34.752L12.6854 33.1523V31.5059L18.5799 34.0547V35.4609L12.6854 38.0273ZM27.6043 32.5137L26.0105 32.6895C25.9715 32.3613 25.8699 32.1191 25.7059 31.9629C25.5418 31.8066 25.3289 31.7285 25.0672 31.7285C24.7195 31.7285 24.4246 31.8848 24.1824 32.1973C23.9441 32.5098 23.7938 33.1602 23.7313 34.1484C24.1414 33.6641 24.6512 33.4219 25.2605 33.4219C25.948 33.4219 26.5359 33.6836 27.0242 34.207C27.5164 34.7305 27.7625 35.4062 27.7625 36.2344C27.7625 37.1133 27.5047 37.8184 26.9891 38.3496C26.4734 38.8809 25.8113 39.1465 25.0027 39.1465C24.1355 39.1465 23.4227 38.8105 22.8641 38.1387C22.3055 37.4629 22.0262 36.3574 22.0262 34.8223C22.0262 33.248 22.3172 32.1133 22.8992 31.418C23.4813 30.7227 24.2371 30.375 25.1668 30.375C25.8191 30.375 26.3582 30.5586 26.784 30.9258C27.2137 31.2891 27.4871 31.8184 27.6043 32.5137ZM23.8719 36.1055C23.8719 36.6406 23.9949 37.0547 24.241 37.3477C24.4871 37.6367 24.7684 37.7812 25.0848 37.7812C25.3895 37.7812 25.6434 37.6621 25.8465 37.4238C26.0496 37.1855 26.1512 36.7949 26.1512 36.252C26.1512 35.6934 26.0418 35.2852 25.823 35.0273C25.6043 34.7656 25.3309 34.6348 25.0027 34.6348C24.6863 34.6348 24.4188 34.7598 24.2 35.0098C23.9813 35.2559 23.8719 35.6211 23.8719 36.1055ZM31.0091 30.375C31.8411 30.375 32.4915 30.6719 32.9602 31.2656C33.5188 31.9688 33.7981 33.1348 33.7981 34.7637C33.7981 36.3887 33.5169 37.5566 32.9544 38.2676C32.4895 38.8535 31.8411 39.1465 31.0091 39.1465C30.1731 39.1465 29.4993 38.8262 28.9876 38.1855C28.4759 37.541 28.22 36.3945 28.22 34.7461C28.22 33.1289 28.5013 31.9648 29.0638 31.2539C29.5286 30.668 30.177 30.375 31.0091 30.375ZM31.0091 31.7402C30.8098 31.7402 30.6321 31.8047 30.4759 31.9336C30.3196 32.0586 30.1985 32.2852 30.1126 32.6133C29.9993 33.0391 29.9427 33.7559 29.9427 34.7637C29.9427 35.7715 29.9934 36.4648 30.095 36.8438C30.1966 37.2188 30.3235 37.4688 30.4759 37.5938C30.6321 37.7188 30.8098 37.7812 31.0091 37.7812C31.2083 37.7812 31.386 37.7188 31.5423 37.5938C31.6985 37.4648 31.8196 37.2363 31.9055 36.9082C32.0188 36.4863 32.0755 35.7715 32.0755 34.7637C32.0755 33.7559 32.0247 33.0645 31.9231 32.6895C31.8216 32.3105 31.6927 32.0586 31.5364 31.9336C31.3841 31.8047 31.2083 31.7402 31.0091 31.7402ZM40.0686 30.375C40.9006 30.375 41.551 30.6719 42.0198 31.2656C42.5784 31.9688 42.8577 33.1348 42.8577 34.7637C42.8577 36.3887 42.5764 37.5566 42.0139 38.2676C41.5491 38.8535 40.9006 39.1465 40.0686 39.1465C39.2327 39.1465 38.5588 38.8262 38.0471 38.1855C37.5354 37.541 37.2795 36.3945 37.2795 34.7461C37.2795 33.1289 37.5608 31.9648 38.1233 31.2539C38.5881 30.668 39.2366 30.375 40.0686 30.375ZM40.0686 31.7402C39.8694 31.7402 39.6916 31.8047 39.5354 31.9336C39.3791 32.0586 39.258 32.2852 39.1721 32.6133C39.0588 33.0391 39.0022 33.7559 39.0022 34.7637C39.0022 35.7715 39.053 36.4648 39.1545 36.8438C39.2561 37.2188 39.383 37.4688 39.5354 37.5938C39.6916 37.7188 39.8694 37.7812 40.0686 37.7812C40.2678 37.7812 40.4455 37.7188 40.6018 37.5938C40.758 37.4648 40.8791 37.2363 40.9651 36.9082C41.0784 36.4863 41.135 35.7715 41.135 34.7637C41.135 33.7559 41.0842 33.0645 40.9827 32.6895C40.8811 32.3105 40.7522 32.0586 40.5959 31.9336C40.4436 31.8047 40.2678 31.7402 40.0686 31.7402ZM46.2683 30.375C47.1003 30.375 47.7507 30.6719 48.2195 31.2656C48.778 31.9688 49.0573 33.1348 49.0573 34.7637C49.0573 36.3887 48.7761 37.5566 48.2136 38.2676C47.7487 38.8535 47.1003 39.1465 46.2683 39.1465C45.4323 39.1465 44.7585 38.8262 44.2468 38.1855C43.7351 37.541 43.4792 36.3945 43.4792 34.7461C43.4792 33.1289 43.7605 31.9648 44.323 31.2539C44.7878 30.668 45.4362 30.375 46.2683 30.375ZM46.2683 31.7402C46.0691 31.7402 45.8913 31.8047 45.7351 31.9336C45.5788 32.0586 45.4577 32.2852 45.3718 32.6133C45.2585 33.0391 45.2019 33.7559 45.2019 34.7637C45.2019 35.7715 45.2527 36.4648 45.3542 36.8438C45.4558 37.2188 45.5827 37.4688 45.7351 37.5938C45.8913 37.7188 46.0691 37.7812 46.2683 37.7812C46.4675 37.7812 46.6452 37.7188 46.8015 37.5938C46.9577 37.4648 47.0788 37.2363 47.1648 36.9082C47.278 36.4863 47.3347 35.7715 47.3347 34.7637C47.3347 33.7559 47.2839 33.0645 47.1823 32.6895C47.0808 32.3105 46.9519 32.0586 46.7956 31.9336C46.6433 31.8047 46.4675 31.7402 46.2683 31.7402ZM52.468 30.375C53.3 30.375 53.9504 30.6719 54.4191 31.2656C54.9777 31.9688 55.257 33.1348 55.257 34.7637C55.257 36.3887 54.9758 37.5566 54.4133 38.2676C53.9484 38.8535 53.3 39.1465 52.468 39.1465C51.632 39.1465 50.9582 38.8262 50.4465 38.1855C49.9348 37.541 49.6789 36.3945 49.6789 34.7461C49.6789 33.1289 49.9602 31.9648 50.5227 31.2539C50.9875 30.668 51.6359 30.375 52.468 30.375ZM52.468 31.7402C52.2687 31.7402 52.091 31.8047 51.9348 31.9336C51.7785 32.0586 51.6574 32.2852 51.5715 32.6133C51.4582 33.0391 51.4016 33.7559 51.4016 34.7637C51.4016 35.7715 51.4523 36.4648 51.5539 36.8438C51.6555 37.2188 51.7824 37.4688 51.9348 37.5938C52.091 37.7188 52.2687 37.7812 52.468 37.7812C52.6672 37.7812 52.8449 37.7188 53.0012 37.5938C53.1574 37.4648 53.2785 37.2363 53.3645 36.9082C53.4777 36.4863 53.5344 35.7715 53.5344 34.7637C53.5344 33.7559 53.4836 33.0645 53.382 32.6895C53.2805 32.3105 53.1516 32.0586 52.9953 31.9336C52.843 31.8047 52.6672 31.7402 52.468 31.7402ZM59.8185 35.676V36.468H58.4985V37.704H59.8185V39H61.5345V37.704H64.5825V36.468H61.5345V35.676H63.4305C64.3305 35.676 65.0385 35.436 65.5665 34.968C66.0945 34.5 66.3585 33.888 66.3585 33.132C66.3585 32.376 66.0945 31.776 65.5665 31.308C65.0385 30.84 64.3305 30.6 63.4305 30.6H59.8185V34.44H58.4985V35.676H59.8185ZM61.5345 32.112H63.2025C64.0785 32.112 64.6185 32.52 64.6185 33.276C64.6185 34.008 64.0785 34.44 63.2025 34.44H61.5345V32.112Z" fill="white"/>
<path d="M28.462 5.45705H31.2219L20.1433 25.94H17.4096L28.462 5.45705ZM12.1777 10.4928C12.1777 9.60333 12.3695 8.75751 12.7532 7.95528C13.1456 7.15306 13.7386 6.53831 14.5321 6.11104C15.3343 5.67504 16.2804 5.45705 17.3704 5.45705C18.9748 5.45705 20.2392 5.91484 21.1635 6.83042C22.0878 7.74601 22.55 8.96679 22.55 10.4928C22.55 12.0275 22.0878 13.2526 21.1635 14.1682C20.2392 15.0838 18.9748 15.5416 17.3704 15.5416C16.2804 15.5416 15.3343 15.3279 14.5321 14.9006C13.7386 14.4646 13.1456 13.8455 12.7532 13.0433C12.3695 12.2411 12.1777 11.3909 12.1777 10.4928ZM15.8531 10.5189C15.8531 11.6002 16.0275 12.385 16.3763 12.8733C16.603 13.1959 16.9344 13.3572 17.3704 13.3572C17.8064 13.3572 18.1334 13.1959 18.3514 12.8733C18.7002 12.385 18.8746 11.6002 18.8746 10.5189C18.8746 9.44638 18.7002 8.66159 18.3514 8.16456C18.1334 7.85065 17.8064 7.69369 17.3704 7.69369C16.9344 7.69369 16.603 7.85065 16.3763 8.16456C16.0275 8.65287 15.8531 9.43766 15.8531 10.5189ZM26.003 20.865C26.003 19.9669 26.1949 19.121 26.5785 18.3275C26.9622 17.5253 27.5552 16.9062 28.3574 16.4702C29.1596 16.0342 30.1014 15.8162 31.1826 15.8162C32.7958 15.8162 34.0645 16.2784 34.9888 17.2027C35.9131 18.1183 36.3753 19.339 36.3753 20.865C36.3753 22.391 35.9131 23.6161 34.9888 24.5404C34.0645 25.456 32.7958 25.9138 31.1826 25.9138C30.1014 25.9138 29.1596 25.6958 28.3574 25.2598C27.5552 24.8238 26.9622 24.2091 26.5785 23.4156C26.1949 22.6133 26.003 21.7632 26.003 20.865ZM29.6784 20.8912C29.6784 21.9724 29.8528 22.7572 30.2016 23.2455C30.4196 23.5594 30.7466 23.7164 31.1826 23.7164C31.6186 23.7164 31.95 23.5594 32.1767 23.2455C32.5255 22.7572 32.6999 21.9724 32.6999 20.8912C32.6999 19.8099 32.5255 19.0208 32.1767 18.5237C31.95 18.2098 31.6186 18.0529 31.1826 18.0529C30.7466 18.0529 30.4196 18.2142 30.2016 18.5368C29.8528 19.0251 29.6784 19.8099 29.6784 20.8912Z" fill="#900583"/>
<path d="M12.4745 27H8.12543V10.6098C6.53646 12.0956 4.66374 13.1945 2.50728 13.9064V9.95981C3.64226 9.58836 4.87526 8.88674 6.20628 7.85494C7.5373 6.81282 8.45045 5.60045 8.94571 4.21784H12.4745V27Z" fill="#900583"/>
<defs>
<clipPath id="clip0">
<rect width="50.4087" height="24.8043" fill="white" transform="translate(7 1.40039)"/>
</clipPath>
</defs>
</svg>
