<svg width="69" height="42" viewBox="0 0 69 42" fill="none" xmlns="http://www.w3.org/2000/svg">
<g clip-path="url(#clip0)">
<path d="M57.8061 9.92218V8.04185C57.8061 7.24172 57.166 6.5616 56.3259 6.5616H54.3255C55.1257 6.5616 55.8058 5.92149 55.8058 5.08134V3.28104C55.8058 2.4809 55.1657 1.80078 54.3255 1.80078H10.0779C9.27777 1.80078 8.59766 2.44089 8.59766 3.28104V5.16136C8.59766 5.9615 9.23777 6.64161 10.0779 6.64161H12.0783C11.2781 6.64161 10.598 7.28172 10.598 8.12187V10.0022C10.598 10.8023 11.2381 11.4824 12.0783 11.4824H10.0779C9.27777 11.4824 8.59766 12.1226 8.59766 12.9627V14.843C8.59766 15.6432 9.23777 16.3233 10.0779 16.3233H12.0783C11.2781 16.3233 10.598 16.9634 10.598 17.8035V19.6839C10.598 20.484 11.2381 21.1641 12.0783 21.1641H10.0779C9.27777 21.1641 8.59766 21.8042 8.59766 22.6444V24.5247C8.59766 25.3248 9.23777 26.0049 10.0779 26.0049H54.3655C55.1657 26.0049 55.8458 25.3648 55.8458 24.5247V22.6444C55.8458 21.8442 55.2057 21.1641 54.3655 21.1641H56.3659C57.166 21.1641 57.8461 20.524 57.8461 19.6839V17.8035C57.8461 17.0034 57.206 16.3233 56.3659 16.3233H54.3655C55.1657 16.3233 55.8458 15.6832 55.8458 14.843V12.9627C55.8458 12.1626 55.2057 11.4824 54.3655 11.4824H56.3659C57.166 11.4024 57.8061 10.7623 57.8061 9.92218Z" fill="white"/>
<path d="M56.4899 11.4024H12.2798C11.4803 11.4024 10.8008 10.7676 10.8008 9.93437V8.06958C10.8008 7.27606 11.4403 6.60156 12.2798 6.60156H56.5299C57.3294 6.60156 58.0089 7.23638 58.0089 8.06958V9.93437C57.9689 10.7676 57.3294 11.4024 56.4899 11.4024Z" stroke="#DDDDDD" stroke-width="0.382721" stroke-miterlimit="10"/>
<path d="M54.4899 6.60161H10.2798C9.48032 6.60161 8.80078 5.9615 8.80078 5.12135V3.28104C8.80078 2.4809 9.44035 1.80078 10.2798 1.80078H54.5299C55.3294 1.80078 56.0089 2.44089 56.0089 3.28104V5.16136C55.9689 5.9615 55.3294 6.60161 54.4899 6.60161Z" stroke="#DDDDDD" stroke-width="0.382721" stroke-miterlimit="10"/>
<path d="M54.4899 25.8047H10.2798C9.48032 25.8047 8.80078 25.1699 8.80078 24.3367V22.4719C8.80078 21.6784 9.44035 21.0039 10.2798 21.0039H54.5299C55.3294 21.0039 56.0089 21.6387 56.0089 22.4719V24.3367C55.9689 25.1699 55.3294 25.8047 54.4899 25.8047Z" stroke="#DDDDDD" stroke-width="0.382721" stroke-miterlimit="10"/>
<path d="M56.4899 21.0039H12.2798C11.4803 21.0039 10.8008 20.3691 10.8008 19.5359V17.6711C10.8008 16.8776 11.4403 16.2031 12.2798 16.2031H56.5299C57.3294 16.2031 58.0089 16.8379 58.0089 17.6711V19.5359C57.9689 20.3691 57.3294 21.0039 56.4899 21.0039Z" stroke="#DDDDDD" stroke-width="0.382721" stroke-miterlimit="10"/>
<path d="M54.4899 16.2032H10.2798C9.48032 16.2032 8.80078 15.5683 8.80078 14.7351V12.8704C8.80078 12.0768 9.44035 11.4023 10.2798 11.4023H54.5299C55.3294 11.4023 56.0089 12.0372 56.0089 12.8704V14.7351C55.9689 15.5683 55.3294 16.2032 54.4899 16.2032Z" stroke="#DDDDDD" stroke-width="0.382721" stroke-miterlimit="10"/>
<path d="M8.71875 2.59961H55.6868" stroke="#DDDDDD" stroke-width="0.191361" stroke-miterlimit="10"/>
<path d="M8.71875 5.80078H55.6868" stroke="#DDDDDD" stroke-width="0.191361" stroke-miterlimit="10"/>
<path d="M9.75781 2.59961V5.80016" stroke="#DDDDDD" stroke-width="0.191361" stroke-miterlimit="10"/>
<path d="M11.3555 2.59961V5.80016" stroke="#DDDDDD" stroke-width="0.191361" stroke-miterlimit="10"/>
<path d="M12.957 2.59961V5.80016" stroke="#DDDDDD" stroke-width="0.191361" stroke-miterlimit="10"/>
<path d="M14.5586 2.59961V5.80016" stroke="#DDDDDD" stroke-width="0.191361" stroke-miterlimit="10"/>
<path d="M16.1602 2.59961V5.80016" stroke="#DDDDDD" stroke-width="0.191361" stroke-miterlimit="10"/>
<path d="M17.7578 2.59961V5.80016" stroke="#DDDDDD" stroke-width="0.191361" stroke-miterlimit="10"/>
<path d="M19.3594 2.59961V5.80016" stroke="#DDDDDD" stroke-width="0.191361" stroke-miterlimit="10"/>
<path d="M20.957 2.59961V5.80016" stroke="#DDDDDD" stroke-width="0.191361" stroke-miterlimit="10"/>
<path d="M22.5625 2.59961V5.80016" stroke="#DDDDDD" stroke-width="0.191361" stroke-miterlimit="10"/>
<path d="M24.1602 2.59961V5.80016" stroke="#DDDDDD" stroke-width="0.191361" stroke-miterlimit="10"/>
<path d="M25.7617 2.59961V5.80016" stroke="#DDDDDD" stroke-width="0.191361" stroke-miterlimit="10"/>
<path d="M27.3594 2.59961V5.80016" stroke="#DDDDDD" stroke-width="0.191361" stroke-miterlimit="10"/>
<path d="M28.9609 2.59961V5.80016" stroke="#DDDDDD" stroke-width="0.191361" stroke-miterlimit="10"/>
<path d="M30.5586 2.59961V5.80016" stroke="#DDDDDD" stroke-width="0.191361" stroke-miterlimit="10"/>
<path d="M32.1641 2.59961V5.80016" stroke="#DDDDDD" stroke-width="0.191361" stroke-miterlimit="10"/>
<path d="M33.7617 2.59961V5.80016" stroke="#DDDDDD" stroke-width="0.191361" stroke-miterlimit="10"/>
<path d="M35.3633 2.59961V5.80016" stroke="#DDDDDD" stroke-width="0.191361" stroke-miterlimit="10"/>
<path d="M36.9609 2.59961V5.80016" stroke="#DDDDDD" stroke-width="0.191361" stroke-miterlimit="10"/>
<path d="M38.5625 2.59961V5.80016" stroke="#DDDDDD" stroke-width="0.191361" stroke-miterlimit="10"/>
<path d="M40.1641 2.59961V5.80016" stroke="#DDDDDD" stroke-width="0.191361" stroke-miterlimit="10"/>
<path d="M41.7656 2.59961V5.80016" stroke="#DDDDDD" stroke-width="0.191361" stroke-miterlimit="10"/>
<path d="M43.3633 2.59961V5.80016" stroke="#DDDDDD" stroke-width="0.191361" stroke-miterlimit="10"/>
<path d="M44.9648 2.59961V5.80016" stroke="#DDDDDD" stroke-width="0.191361" stroke-miterlimit="10"/>
<path d="M46.5625 2.59961V5.80016" stroke="#DDDDDD" stroke-width="0.191361" stroke-miterlimit="10"/>
<path d="M48.1641 2.59961V5.80016" stroke="#DDDDDD" stroke-width="0.191361" stroke-miterlimit="10"/>
<path d="M49.7656 2.59961V5.80016" stroke="#DDDDDD" stroke-width="0.191361" stroke-miterlimit="10"/>
<path d="M51.3633 2.59961V5.80016" stroke="#DDDDDD" stroke-width="0.191361" stroke-miterlimit="10"/>
<path d="M52.9648 2.59961V5.80016" stroke="#DDDDDD" stroke-width="0.191361" stroke-miterlimit="10"/>
<path d="M54.5625 2.59961V5.80016" stroke="#DDDDDD" stroke-width="0.191361" stroke-miterlimit="10"/>
<path d="M10.7227 7.40234H57.6907" stroke="#DDDDDD" stroke-width="0.191361" stroke-miterlimit="10"/>
<path d="M10.7227 10.6016H57.6907" stroke="#DDDDDD" stroke-width="0.191361" stroke-miterlimit="10"/>
<path d="M11.7578 7.40039V10.6009" stroke="#DDDDDD" stroke-width="0.191361" stroke-miterlimit="10"/>
<path d="M13.3594 7.40039V10.6009" stroke="#DDDDDD" stroke-width="0.191361" stroke-miterlimit="10"/>
<path d="M14.957 7.40039V10.6009" stroke="#DDDDDD" stroke-width="0.191361" stroke-miterlimit="10"/>
<path d="M16.5586 7.40039V10.6009" stroke="#DDDDDD" stroke-width="0.191361" stroke-miterlimit="10"/>
<path d="M18.1602 7.40039V10.6009" stroke="#DDDDDD" stroke-width="0.191361" stroke-miterlimit="10"/>
<path d="M19.7578 7.40039V10.6009" stroke="#DDDDDD" stroke-width="0.191361" stroke-miterlimit="10"/>
<path d="M21.3594 7.40039V10.6009" stroke="#DDDDDD" stroke-width="0.191361" stroke-miterlimit="10"/>
<path d="M22.9609 7.40039V10.6009" stroke="#DDDDDD" stroke-width="0.191361" stroke-miterlimit="10"/>
<path d="M24.5625 7.40039V10.6009" stroke="#DDDDDD" stroke-width="0.191361" stroke-miterlimit="10"/>
<path d="M26.1602 7.40039V10.6009" stroke="#DDDDDD" stroke-width="0.191361" stroke-miterlimit="10"/>
<path d="M27.7617 7.40039V10.6009" stroke="#DDDDDD" stroke-width="0.191361" stroke-miterlimit="10"/>
<path d="M29.3594 7.40039V10.6009" stroke="#DDDDDD" stroke-width="0.191361" stroke-miterlimit="10"/>
<path d="M30.9609 7.40039V10.6009" stroke="#DDDDDD" stroke-width="0.191361" stroke-miterlimit="10"/>
<path d="M32.5625 7.40039V10.6009" stroke="#DDDDDD" stroke-width="0.191361" stroke-miterlimit="10"/>
<path d="M34.1641 7.40039V10.6009" stroke="#DDDDDD" stroke-width="0.191361" stroke-miterlimit="10"/>
<path d="M35.7617 7.40039V10.6009" stroke="#DDDDDD" stroke-width="0.191361" stroke-miterlimit="10"/>
<path d="M37.3633 7.40039V10.6009" stroke="#DDDDDD" stroke-width="0.191361" stroke-miterlimit="10"/>
<path d="M38.9609 7.40039V10.6009" stroke="#DDDDDD" stroke-width="0.191361" stroke-miterlimit="10"/>
<path d="M40.5625 7.40039V10.6009" stroke="#DDDDDD" stroke-width="0.191361" stroke-miterlimit="10"/>
<path d="M42.1641 7.40039V10.6009" stroke="#DDDDDD" stroke-width="0.191361" stroke-miterlimit="10"/>
<path d="M43.7656 7.40039V10.6009" stroke="#DDDDDD" stroke-width="0.191361" stroke-miterlimit="10"/>
<path d="M45.3633 7.40039V10.6009" stroke="#DDDDDD" stroke-width="0.191361" stroke-miterlimit="10"/>
<path d="M46.9648 7.40039V10.6009" stroke="#DDDDDD" stroke-width="0.191361" stroke-miterlimit="10"/>
<path d="M48.5625 7.40039V10.6009" stroke="#DDDDDD" stroke-width="0.191361" stroke-miterlimit="10"/>
<path d="M50.1641 7.40039V10.6009" stroke="#DDDDDD" stroke-width="0.191361" stroke-miterlimit="10"/>
<path d="M51.7656 7.40039V10.6009" stroke="#DDDDDD" stroke-width="0.191361" stroke-miterlimit="10"/>
<path d="M53.3633 7.40039V10.6009" stroke="#DDDDDD" stroke-width="0.191361" stroke-miterlimit="10"/>
<path d="M54.9648 7.40039V10.6009" stroke="#DDDDDD" stroke-width="0.191361" stroke-miterlimit="10"/>
<path d="M56.5664 7.40039V10.6009" stroke="#DDDDDD" stroke-width="0.191361" stroke-miterlimit="10"/>
<path d="M8.71875 12.2031H55.6868" stroke="#DDDDDD" stroke-width="0.191361" stroke-miterlimit="10"/>
<path d="M8.71875 15.4023H55.6868" stroke="#DDDDDD" stroke-width="0.191361" stroke-miterlimit="10"/>
<path d="M8.71875 21.8047H55.6868" stroke="#DDDDDD" stroke-width="0.191361" stroke-miterlimit="10"/>
<path d="M8.71875 25.0039H55.6868" stroke="#DDDDDD" stroke-width="0.191361" stroke-miterlimit="10"/>
<path d="M9.75781 21.8027V25.0033" stroke="#DDDDDD" stroke-width="0.191361" stroke-miterlimit="10"/>
<path d="M11.3555 21.8027V25.0033" stroke="#DDDDDD" stroke-width="0.191361" stroke-miterlimit="10"/>
<path d="M12.957 21.8027V25.0033" stroke="#DDDDDD" stroke-width="0.191361" stroke-miterlimit="10"/>
<path d="M14.5586 21.8027V25.0033" stroke="#DDDDDD" stroke-width="0.191361" stroke-miterlimit="10"/>
<path d="M16.1602 21.8027V25.0033" stroke="#DDDDDD" stroke-width="0.191361" stroke-miterlimit="10"/>
<path d="M17.7578 21.8027V25.0033" stroke="#DDDDDD" stroke-width="0.191361" stroke-miterlimit="10"/>
<path d="M19.3594 21.8027V25.0033" stroke="#DDDDDD" stroke-width="0.191361" stroke-miterlimit="10"/>
<path d="M20.957 21.8027V25.0033" stroke="#DDDDDD" stroke-width="0.191361" stroke-miterlimit="10"/>
<path d="M22.5625 21.8027V25.0033" stroke="#DDDDDD" stroke-width="0.191361" stroke-miterlimit="10"/>
<path d="M24.1602 21.8027V25.0033" stroke="#DDDDDD" stroke-width="0.191361" stroke-miterlimit="10"/>
<path d="M25.7617 21.8027V25.0033" stroke="#DDDDDD" stroke-width="0.191361" stroke-miterlimit="10"/>
<path d="M27.3594 21.8027V25.0033" stroke="#DDDDDD" stroke-width="0.191361" stroke-miterlimit="10"/>
<path d="M28.9609 21.8027V25.0033" stroke="#DDDDDD" stroke-width="0.191361" stroke-miterlimit="10"/>
<path d="M30.5586 21.8027V25.0033" stroke="#DDDDDD" stroke-width="0.191361" stroke-miterlimit="10"/>
<path d="M32.1641 21.8027V25.0033" stroke="#DDDDDD" stroke-width="0.191361" stroke-miterlimit="10"/>
<path d="M33.7617 21.8027V25.0033" stroke="#DDDDDD" stroke-width="0.191361" stroke-miterlimit="10"/>
<path d="M35.3633 21.8027V25.0033" stroke="#DDDDDD" stroke-width="0.191361" stroke-miterlimit="10"/>
<path d="M36.9609 21.8027V25.0033" stroke="#DDDDDD" stroke-width="0.191361" stroke-miterlimit="10"/>
<path d="M38.5625 21.8027V25.0033" stroke="#DDDDDD" stroke-width="0.191361" stroke-miterlimit="10"/>
<path d="M40.1641 21.8027V25.0033" stroke="#DDDDDD" stroke-width="0.191361" stroke-miterlimit="10"/>
<path d="M41.7656 21.8027V25.0033" stroke="#DDDDDD" stroke-width="0.191361" stroke-miterlimit="10"/>
<path d="M43.3633 21.8027V25.0033" stroke="#DDDDDD" stroke-width="0.191361" stroke-miterlimit="10"/>
<path d="M44.9648 21.8027V25.0033" stroke="#DDDDDD" stroke-width="0.191361" stroke-miterlimit="10"/>
<path d="M46.5625 21.8027V25.0033" stroke="#DDDDDD" stroke-width="0.191361" stroke-miterlimit="10"/>
<path d="M48.1641 21.8027V25.0033" stroke="#DDDDDD" stroke-width="0.191361" stroke-miterlimit="10"/>
<path d="M49.7656 21.8027V25.0033" stroke="#DDDDDD" stroke-width="0.191361" stroke-miterlimit="10"/>
<path d="M51.3633 21.8027V25.0033" stroke="#DDDDDD" stroke-width="0.191361" stroke-miterlimit="10"/>
<path d="M52.9648 21.8027V25.0033" stroke="#DDDDDD" stroke-width="0.191361" stroke-miterlimit="10"/>
<path d="M54.5625 21.8027V25.0033" stroke="#DDDDDD" stroke-width="0.191361" stroke-miterlimit="10"/>
<path d="M10.7227 17.0039H57.6907" stroke="#DDDDDD" stroke-width="0.191361" stroke-miterlimit="10"/>
<path d="M10.7227 20.2031H57.6907" stroke="#DDDDDD" stroke-width="0.191361" stroke-miterlimit="10"/>
<path d="M11.7578 17.0039V20.2045" stroke="#DDDDDD" stroke-width="0.191361" stroke-miterlimit="10"/>
<path d="M13.3594 17.0039V20.2045" stroke="#DDDDDD" stroke-width="0.191361" stroke-miterlimit="10"/>
<path d="M14.957 17.0039V20.2045" stroke="#DDDDDD" stroke-width="0.191361" stroke-miterlimit="10"/>
<path d="M16.5586 17.0039V20.2045" stroke="#DDDDDD" stroke-width="0.191361" stroke-miterlimit="10"/>
<path d="M18.1602 17.0039V20.2045" stroke="#DDDDDD" stroke-width="0.191361" stroke-miterlimit="10"/>
<path d="M19.7578 17.0039V20.2045" stroke="#DDDDDD" stroke-width="0.191361" stroke-miterlimit="10"/>
<path d="M21.3594 17.0039V20.2045" stroke="#DDDDDD" stroke-width="0.191361" stroke-miterlimit="10"/>
<path d="M22.9609 17.0039V20.2045" stroke="#DDDDDD" stroke-width="0.191361" stroke-miterlimit="10"/>
<path d="M24.5625 17.0039V20.2045" stroke="#DDDDDD" stroke-width="0.191361" stroke-miterlimit="10"/>
<path d="M26.1602 17.0039V20.2045" stroke="#DDDDDD" stroke-width="0.191361" stroke-miterlimit="10"/>
<path d="M27.7617 17.0039V20.2045" stroke="#DDDDDD" stroke-width="0.191361" stroke-miterlimit="10"/>
<path d="M29.3594 17.0039V20.2045" stroke="#DDDDDD" stroke-width="0.191361" stroke-miterlimit="10"/>
<path d="M30.9609 17.0039V20.2045" stroke="#DDDDDD" stroke-width="0.191361" stroke-miterlimit="10"/>
<path d="M32.5625 17.0039V20.2045" stroke="#DDDDDD" stroke-width="0.191361" stroke-miterlimit="10"/>
<path d="M34.1641 17.0039V20.2045" stroke="#DDDDDD" stroke-width="0.191361" stroke-miterlimit="10"/>
<path d="M35.7617 17.0039V20.2045" stroke="#DDDDDD" stroke-width="0.191361" stroke-miterlimit="10"/>
<path d="M37.3633 17.0039V20.2045" stroke="#DDDDDD" stroke-width="0.191361" stroke-miterlimit="10"/>
<path d="M38.9609 17.0039V20.2045" stroke="#DDDDDD" stroke-width="0.191361" stroke-miterlimit="10"/>
<path d="M40.5625 17.0039V20.2045" stroke="#DDDDDD" stroke-width="0.191361" stroke-miterlimit="10"/>
<path d="M42.1641 17.0039V20.2045" stroke="#DDDDDD" stroke-width="0.191361" stroke-miterlimit="10"/>
<path d="M43.7656 17.0039V20.2045" stroke="#DDDDDD" stroke-width="0.191361" stroke-miterlimit="10"/>
<path d="M45.3633 17.0039V20.2045" stroke="#DDDDDD" stroke-width="0.191361" stroke-miterlimit="10"/>
<path d="M46.9648 17.0039V20.2045" stroke="#DDDDDD" stroke-width="0.191361" stroke-miterlimit="10"/>
<path d="M48.5625 17.0039V20.2045" stroke="#DDDDDD" stroke-width="0.191361" stroke-miterlimit="10"/>
<path d="M50.1641 17.0039V20.2045" stroke="#DDDDDD" stroke-width="0.191361" stroke-miterlimit="10"/>
<path d="M51.7656 17.0039V20.2045" stroke="#DDDDDD" stroke-width="0.191361" stroke-miterlimit="10"/>
<path d="M53.3633 17.0039V20.2045" stroke="#DDDDDD" stroke-width="0.191361" stroke-miterlimit="10"/>
<path d="M54.9648 17.0039V20.2045" stroke="#DDDDDD" stroke-width="0.191361" stroke-miterlimit="10"/>
<path d="M56.5664 17.0039V20.2045" stroke="#DDDDDD" stroke-width="0.191361" stroke-miterlimit="10"/>
<path d="M57.9693 9.85506V7.99028C57.9693 7.19675 57.3297 6.52225 56.4902 6.52225H54.4915C55.291 6.52225 55.9705 5.88743 55.9705 5.05423V3.2688C55.9705 2.47528 55.331 1.80078 54.4915 1.80078H10.2798C9.48035 1.80078 8.80078 2.4356 8.80078 3.2688V5.13359C8.80078 5.92711 9.44037 6.60161 10.2798 6.60161H12.2786C11.4791 6.60161 10.7995 7.23643 10.7995 8.06963V9.93441C10.7995 10.7279 11.4391 11.4024 12.2786 11.4024H10.2798C9.48035 11.4024 8.80078 12.0373 8.80078 12.8705V14.7352C8.80078 15.5288 9.44037 16.2033 10.2798 16.2033H12.2786C11.4791 16.2033 10.7995 16.8381 10.7995 17.6713V19.5361C10.7995 20.3296 11.4391 21.0041 12.2786 21.0041H10.2798C9.48035 21.0041 8.80078 21.6389 8.80078 22.4721V24.3369C8.80078 25.1304 9.44037 25.8049 10.2798 25.8049H54.5315C55.331 25.8049 56.0105 25.1701 56.0105 24.3369V22.4721C56.0105 21.6786 55.3709 21.0041 54.5315 21.0041H56.5302C57.3297 21.0041 58.0092 20.3693 58.0092 19.5361V17.6713C58.0092 16.8778 57.3696 16.2033 56.5302 16.2033H54.5315C55.331 16.2033 56.0105 15.5684 56.0105 14.7352V12.8705C56.0105 12.0769 55.3709 11.4024 54.5315 11.4024H56.5302C57.3297 11.3231 57.9693 10.6883 57.9693 9.85506Z" stroke="#808080" stroke-width="0.382721" stroke-miterlimit="10"/>
<path d="M9.75781 12.2012V15.4017" stroke="#DDDDDD" stroke-width="0.191361" stroke-miterlimit="10"/>
<path d="M11.3555 12.2012V15.4017" stroke="#DDDDDD" stroke-width="0.191361" stroke-miterlimit="10"/>
<path d="M12.957 12.2012V15.4017" stroke="#DDDDDD" stroke-width="0.191361" stroke-miterlimit="10"/>
<path d="M14.5586 12.2012V15.4017" stroke="#DDDDDD" stroke-width="0.191361" stroke-miterlimit="10"/>
<path d="M16.1602 12.2012V15.4017" stroke="#DDDDDD" stroke-width="0.191361" stroke-miterlimit="10"/>
<path d="M17.7578 12.2012V15.4017" stroke="#DDDDDD" stroke-width="0.191361" stroke-miterlimit="10"/>
<path d="M19.3594 12.2012V15.4017" stroke="#DDDDDD" stroke-width="0.191361" stroke-miterlimit="10"/>
<path d="M20.957 12.2012V15.4017" stroke="#DDDDDD" stroke-width="0.191361" stroke-miterlimit="10"/>
<path d="M22.5625 12.2012V15.4017" stroke="#DDDDDD" stroke-width="0.191361" stroke-miterlimit="10"/>
<path d="M24.1602 12.2012V15.4017" stroke="#DDDDDD" stroke-width="0.191361" stroke-miterlimit="10"/>
<path d="M25.7617 12.2012V15.4017" stroke="#DDDDDD" stroke-width="0.191361" stroke-miterlimit="10"/>
<path d="M27.3594 12.2012V15.4017" stroke="#DDDDDD" stroke-width="0.191361" stroke-miterlimit="10"/>
<path d="M28.9609 12.2012V15.4017" stroke="#DDDDDD" stroke-width="0.191361" stroke-miterlimit="10"/>
<path d="M30.5586 12.2012V15.4017" stroke="#DDDDDD" stroke-width="0.191361" stroke-miterlimit="10"/>
<path d="M32.1641 12.2012V15.4017" stroke="#DDDDDD" stroke-width="0.191361" stroke-miterlimit="10"/>
<path d="M33.7617 12.2012V15.4017" stroke="#DDDDDD" stroke-width="0.191361" stroke-miterlimit="10"/>
<path d="M35.3633 12.2012V15.4017" stroke="#DDDDDD" stroke-width="0.191361" stroke-miterlimit="10"/>
<path d="M36.9609 12.2012V15.4017" stroke="#DDDDDD" stroke-width="0.191361" stroke-miterlimit="10"/>
<path d="M38.5625 12.2012V15.4017" stroke="#DDDDDD" stroke-width="0.191361" stroke-miterlimit="10"/>
<path d="M40.1641 12.2012V15.4017" stroke="#DDDDDD" stroke-width="0.191361" stroke-miterlimit="10"/>
<path d="M41.7656 12.2012V15.4017" stroke="#DDDDDD" stroke-width="0.191361" stroke-miterlimit="10"/>
<path d="M43.3633 12.2012V15.4017" stroke="#DDDDDD" stroke-width="0.191361" stroke-miterlimit="10"/>
<path d="M44.9648 12.2012V15.4017" stroke="#DDDDDD" stroke-width="0.191361" stroke-miterlimit="10"/>
<path d="M46.5625 12.2012V15.4017" stroke="#DDDDDD" stroke-width="0.191361" stroke-miterlimit="10"/>
<path d="M48.1641 12.2012V15.4017" stroke="#DDDDDD" stroke-width="0.191361" stroke-miterlimit="10"/>
<path d="M49.7656 12.2012V15.4017" stroke="#DDDDDD" stroke-width="0.191361" stroke-miterlimit="10"/>
<path d="M51.3633 12.2012V15.4017" stroke="#DDDDDD" stroke-width="0.191361" stroke-miterlimit="10"/>
<path d="M52.9648 12.2012V15.4017" stroke="#DDDDDD" stroke-width="0.191361" stroke-miterlimit="10"/>
<path d="M54.5625 12.2012V15.4017" stroke="#DDDDDD" stroke-width="0.191361" stroke-miterlimit="10"/>
</g>
<rect x="3" y="24.9883" width="66" height="17" fill="#A0A0A0"/>
<path d="M11.8545 36.1777V34.7959L15.2822 33.4482L11.8545 32.1152V30.7432L16.7666 32.8672V34.0391L11.8545 36.1777ZM25.0869 31.583L23.7588 31.7295C23.7262 31.4561 23.6416 31.2542 23.5049 31.124C23.3682 30.9938 23.1908 30.9287 22.9727 30.9287C22.6829 30.9287 22.4372 31.0589 22.2354 31.3193C22.0368 31.5798 21.9115 32.1217 21.8594 32.9453C22.2012 32.5417 22.626 32.3398 23.1338 32.3398C23.7067 32.3398 24.1966 32.5579 24.6035 32.9941C25.0137 33.4303 25.2188 33.9935 25.2188 34.6836C25.2188 35.416 25.0039 36.0036 24.5742 36.4463C24.1445 36.889 23.5928 37.1104 22.9189 37.1104C22.1963 37.1104 21.6022 36.8304 21.1367 36.2705C20.6712 35.7074 20.4385 34.7861 20.4385 33.5068C20.4385 32.195 20.681 31.2493 21.166 30.6699C21.651 30.0905 22.2809 29.8008 23.0557 29.8008C23.5993 29.8008 24.0485 29.9538 24.4033 30.2598C24.7614 30.5625 24.9893 31.0036 25.0869 31.583ZM21.9766 34.5762C21.9766 35.0221 22.0791 35.3672 22.2842 35.6113C22.4893 35.8522 22.7236 35.9727 22.9873 35.9727C23.2412 35.9727 23.4528 35.8734 23.6221 35.6748C23.7913 35.4762 23.876 35.1507 23.876 34.6982C23.876 34.2327 23.7848 33.8926 23.6025 33.6777C23.4202 33.4596 23.1924 33.3506 22.9189 33.3506C22.6553 33.3506 22.4323 33.4548 22.25 33.6631C22.0677 33.8682 21.9766 34.1725 21.9766 34.5762ZM28.3242 29.8008C29.0176 29.8008 29.5596 30.0482 29.9502 30.543C30.4157 31.1289 30.6484 32.1006 30.6484 33.458C30.6484 34.8122 30.4141 35.7855 29.9453 36.3779C29.5579 36.8662 29.0176 37.1104 28.3242 37.1104C27.6276 37.1104 27.0661 36.8434 26.6396 36.3096C26.2132 35.7725 26 34.8171 26 33.4434C26 32.0957 26.2344 31.1257 26.7031 30.5332C27.0905 30.0449 27.6309 29.8008 28.3242 29.8008ZM28.3242 30.9385C28.1582 30.9385 28.0101 30.9922 27.8799 31.0996C27.7497 31.2038 27.6488 31.3926 27.5771 31.666C27.4827 32.0208 27.4355 32.6182 27.4355 33.458C27.4355 34.2979 27.4779 34.8757 27.5625 35.1914C27.6471 35.5039 27.7529 35.7122 27.8799 35.8164C28.0101 35.9206 28.1582 35.9727 28.3242 35.9727C28.4902 35.9727 28.6383 35.9206 28.7686 35.8164C28.8988 35.709 28.9997 35.5186 29.0713 35.2451C29.1657 34.8936 29.2129 34.2979 29.2129 33.458C29.2129 32.6182 29.1706 32.042 29.0859 31.7295C29.0013 31.4137 28.8939 31.2038 28.7637 31.0996C28.6367 30.9922 28.4902 30.9385 28.3242 30.9385ZM36.6738 29.8008C37.3672 29.8008 37.9092 30.0482 38.2998 30.543C38.7653 31.1289 38.998 32.1006 38.998 33.458C38.998 34.8122 38.7637 35.7855 38.2949 36.3779C37.9076 36.8662 37.3672 37.1104 36.6738 37.1104C35.9772 37.1104 35.4157 36.8434 34.9893 36.3096C34.5628 35.7725 34.3496 34.8171 34.3496 33.4434C34.3496 32.0957 34.584 31.1257 35.0527 30.5332C35.4401 30.0449 35.9805 29.8008 36.6738 29.8008ZM36.6738 30.9385C36.5078 30.9385 36.3597 30.9922 36.2295 31.0996C36.0993 31.2038 35.9984 31.3926 35.9268 31.666C35.8324 32.0208 35.7852 32.6182 35.7852 33.458C35.7852 34.2979 35.8275 34.8757 35.9121 35.1914C35.9967 35.5039 36.1025 35.7122 36.2295 35.8164C36.3597 35.9206 36.5078 35.9727 36.6738 35.9727C36.8398 35.9727 36.988 35.9206 37.1182 35.8164C37.2484 35.709 37.3493 35.5186 37.4209 35.2451C37.5153 34.8936 37.5625 34.2979 37.5625 33.458C37.5625 32.6182 37.5202 32.042 37.4355 31.7295C37.3509 31.4137 37.2435 31.2038 37.1133 31.0996C36.9863 30.9922 36.8398 30.9385 36.6738 30.9385ZM42.2402 29.8008C42.9336 29.8008 43.4756 30.0482 43.8662 30.543C44.3317 31.1289 44.5645 32.1006 44.5645 33.458C44.5645 34.8122 44.3301 35.7855 43.8613 36.3779C43.474 36.8662 42.9336 37.1104 42.2402 37.1104C41.5436 37.1104 40.9821 36.8434 40.5557 36.3096C40.1292 35.7725 39.916 34.8171 39.916 33.4434C39.916 32.0957 40.1504 31.1257 40.6191 30.5332C41.0065 30.0449 41.5469 29.8008 42.2402 29.8008ZM42.2402 30.9385C42.0742 30.9385 41.9261 30.9922 41.7959 31.0996C41.6657 31.2038 41.5648 31.3926 41.4932 31.666C41.3988 32.0208 41.3516 32.6182 41.3516 33.458C41.3516 34.2979 41.3939 34.8757 41.4785 35.1914C41.5632 35.5039 41.6689 35.7122 41.7959 35.8164C41.9261 35.9206 42.0742 35.9727 42.2402 35.9727C42.4062 35.9727 42.5544 35.9206 42.6846 35.8164C42.8148 35.709 42.9157 35.5186 42.9873 35.2451C43.0817 34.8936 43.1289 34.2979 43.1289 33.458C43.1289 32.6182 43.0866 32.042 43.002 31.7295C42.9173 31.4137 42.8099 31.2038 42.6797 31.0996C42.5527 30.9922 42.4062 30.9385 42.2402 30.9385ZM47.8066 29.8008C48.5 29.8008 49.042 30.0482 49.4326 30.543C49.8981 31.1289 50.1309 32.1006 50.1309 33.458C50.1309 34.8122 49.8965 35.7855 49.4277 36.3779C49.0404 36.8662 48.5 37.1104 47.8066 37.1104C47.11 37.1104 46.5485 36.8434 46.1221 36.3096C45.6956 35.7725 45.4824 34.8171 45.4824 33.4434C45.4824 32.0957 45.7168 31.1257 46.1855 30.5332C46.5729 30.0449 47.1133 29.8008 47.8066 29.8008ZM47.8066 30.9385C47.6406 30.9385 47.4925 30.9922 47.3623 31.0996C47.2321 31.2038 47.1312 31.3926 47.0596 31.666C46.9652 32.0208 46.918 32.6182 46.918 33.458C46.918 34.2979 46.9603 34.8757 47.0449 35.1914C47.1296 35.5039 47.2354 35.7122 47.3623 35.8164C47.4925 35.9206 47.6406 35.9727 47.8066 35.9727C47.9727 35.9727 48.1208 35.9206 48.251 35.8164C48.3812 35.709 48.4821 35.5186 48.5537 35.2451C48.6481 34.8936 48.6953 34.2979 48.6953 33.458C48.6953 32.6182 48.653 32.042 48.5684 31.7295C48.4837 31.4137 48.3763 31.2038 48.2461 31.0996C48.1191 30.9922 47.9727 30.9385 47.8066 30.9385ZM54.7321 34.2183V34.8783H53.6321V35.9083H54.7321V36.9883H56.1621V35.9083H58.7021V34.8783H56.1621V34.2183H57.7421C58.4921 34.2183 59.0821 34.0183 59.5221 33.6283C59.9621 33.2383 60.1821 32.7283 60.1821 32.0983C60.1821 31.4683 59.9621 30.9683 59.5221 30.5783C59.0821 30.1883 58.4921 29.9883 57.7421 29.9883H54.7321V33.1883H53.6321V34.2183H54.7321ZM56.1621 31.2483H57.5521C58.2821 31.2483 58.7321 31.5883 58.7321 32.2183C58.7321 32.8283 58.2821 33.1883 57.5521 33.1883H56.1621V31.2483Z" fill="white"/>
<path d="M27.462 5.45705H30.2219L19.1433 25.94H16.4096L27.462 5.45705ZM11.1777 10.4928C11.1777 9.60333 11.3695 8.75751 11.7532 7.95528C12.1456 7.15306 12.7386 6.53831 13.5321 6.11104C14.3343 5.67504 15.2804 5.45705 16.3704 5.45705C17.9748 5.45705 19.2392 5.91484 20.1635 6.83042C21.0878 7.74601 21.55 8.96679 21.55 10.4928C21.55 12.0275 21.0878 13.2526 20.1635 14.1682C19.2392 15.0838 17.9748 15.5416 16.3704 15.5416C15.2804 15.5416 14.3343 15.3279 13.5321 14.9006C12.7386 14.4646 12.1456 13.8455 11.7532 13.0433C11.3695 12.2411 11.1777 11.3909 11.1777 10.4928ZM14.8531 10.5189C14.8531 11.6002 15.0275 12.385 15.3763 12.8733C15.603 13.1959 15.9344 13.3572 16.3704 13.3572C16.8064 13.3572 17.1334 13.1959 17.3514 12.8733C17.7002 12.385 17.8746 11.6002 17.8746 10.5189C17.8746 9.44638 17.7002 8.66159 17.3514 8.16456C17.1334 7.85065 16.8064 7.69369 16.3704 7.69369C15.9344 7.69369 15.603 7.85065 15.3763 8.16456C15.0275 8.65287 14.8531 9.43766 14.8531 10.5189ZM25.003 20.865C25.003 19.9669 25.1949 19.121 25.5785 18.3275C25.9622 17.5253 26.5552 16.9062 27.3574 16.4702C28.1596 16.0342 29.1014 15.8162 30.1826 15.8162C31.7958 15.8162 33.0645 16.2784 33.9888 17.2027C34.9131 18.1183 35.3753 19.339 35.3753 20.865C35.3753 22.391 34.9131 23.6161 33.9888 24.5404C33.0645 25.456 31.7958 25.9138 30.1826 25.9138C29.1014 25.9138 28.1596 25.6958 27.3574 25.2598C26.5552 24.8238 25.9622 24.2091 25.5785 23.4156C25.1949 22.6133 25.003 21.7632 25.003 20.865ZM28.6784 20.8912C28.6784 21.9724 28.8528 22.7572 29.2016 23.2455C29.4196 23.5594 29.7466 23.7164 30.1826 23.7164C30.6186 23.7164 30.95 23.5594 31.1767 23.2455C31.5255 22.7572 31.6999 21.9724 31.6999 20.8912C31.6999 19.8099 31.5255 19.0208 31.1767 18.5237C30.95 18.2098 30.6186 18.0529 30.1826 18.0529C29.7466 18.0529 29.4196 18.2142 29.2016 18.5368C28.8528 19.0251 28.6784 19.8099 28.6784 20.8912Z" fill="#A0A0A0"/>
<path d="M12.4745 27H8.12543V10.6098C6.53646 12.0956 4.66374 13.1945 2.50728 13.9064V9.95981C3.64226 9.58836 4.87526 8.88674 6.20628 7.85494C7.5373 6.81282 8.45045 5.60045 8.94571 4.21784H12.4745V27Z" fill="#A0A0A0"/>
<defs>
<clipPath id="clip0">
<rect width="50.4087" height="24.8043" fill="white" transform="translate(8 1.40039)"/>
</clipPath>
</defs>
</svg>
