<svg width="253" height="99" viewBox="0 0 253 99" fill="none" xmlns="http://www.w3.org/2000/svg">
<path d="M251.5 44.3V39.6C251.5 37.6 249.9 35.9 247.8 35.9H242.8C244.8 35.9 246.5 34.3 246.5 32.2V27.7C246.5 25.7 244.9 24 242.8 24H132.2C130.2 24 128.5 25.6 128.5 27.7V32.4C128.5 34.4 130.1 36.1 132.2 36.1H137.2C135.2 36.1 133.5 37.7 133.5 39.8V44.5C133.5 46.5 135.1 48.2 137.2 48.2H132.2C130.2 48.2 128.5 49.8 128.5 51.9V56.6C128.5 58.6 130.1 60.3 132.2 60.3H137.2C135.2 60.3 133.5 61.9 133.5 64V68.7C133.5 70.7 135.1 72.4 137.2 72.4H132.2C130.2 72.4 128.5 74 128.5 76.1V80.8C128.5 82.8 130.1 84.5 132.2 84.5H242.9C244.9 84.5 246.6 82.9 246.6 80.8V76.1C246.6 74.1 245 72.4 242.9 72.4H247.9C249.9 72.4 251.6 70.8 251.6 68.7V64C251.6 62 250 60.3 247.9 60.3H242.9C244.9 60.3 246.6 58.7 246.6 56.6V51.9C246.6 49.9 245 48.2 242.9 48.2H247.9C249.9 48 251.5 46.4 251.5 44.3Z" fill="white"/>
<path d="M247.8 47.9999H137.2C135.2 47.9999 133.5 46.3999 133.5 44.2999V39.5999C133.5 37.5999 135.1 35.8999 137.2 35.8999H247.9C249.9 35.8999 251.6 37.4999 251.6 39.5999V44.2999C251.5 46.3999 249.9 47.9999 247.8 47.9999Z" stroke="#DDDDDD" stroke-miterlimit="10"/>
<path d="M242.8 36H132.2C130.2 36 128.5 34.4 128.5 32.3V27.7C128.5 25.7 130.1 24 132.2 24H242.9C244.9 24 246.6 25.6 246.6 27.7V32.4C246.5 34.4 244.9 36 242.8 36Z" stroke="#DDDDDD" stroke-miterlimit="10"/>
<path d="M242.8 83.9999H132.2C130.2 83.9999 128.5 82.3999 128.5 80.2999V75.5999C128.5 73.5999 130.1 71.8999 132.2 71.8999H242.9C244.9 71.8999 246.6 73.4999 246.6 75.5999V80.2999C246.5 82.3999 244.9 83.9999 242.8 83.9999Z" stroke="#DDDDDD" stroke-miterlimit="10"/>
<path d="M247.8 71.9999H137.2C135.2 71.9999 133.5 70.3999 133.5 68.2999V63.5999C133.5 61.5999 135.1 59.8999 137.2 59.8999H247.9C249.9 59.8999 251.6 61.4999 251.6 63.5999V68.2999C251.5 70.3999 249.9 71.9999 247.8 71.9999Z" stroke="#DDDDDD" stroke-miterlimit="10"/>
<path d="M242.8 59.9999H132.2C130.2 59.9999 128.5 58.3999 128.5 56.2999V51.5999C128.5 49.5999 130.1 47.8999 132.2 47.8999H242.9C244.9 47.8999 246.6 49.4999 246.6 51.5999V56.2999C246.5 58.3999 244.9 59.9999 242.8 59.9999Z" stroke="#DDDDDD" stroke-miterlimit="10"/>
<path d="M128.8 26H246.2" stroke="#DDDDDD" stroke-width="0.5" stroke-miterlimit="10"/>
<path d="M128.8 34H246.2" stroke="#DDDDDD" stroke-width="0.5" stroke-miterlimit="10"/>
<path d="M131.4 26V34" stroke="#DDDDDD" stroke-width="0.5" stroke-miterlimit="10"/>
<path d="M135.4 26V34" stroke="#DDDDDD" stroke-width="0.5" stroke-miterlimit="10"/>
<path d="M139.4 26V34" stroke="#DDDDDD" stroke-width="0.5" stroke-miterlimit="10"/>
<path d="M143.4 26V34" stroke="#DDDDDD" stroke-width="0.5" stroke-miterlimit="10"/>
<path d="M147.4 26V34" stroke="#DDDDDD" stroke-width="0.5" stroke-miterlimit="10"/>
<path d="M151.4 26V34" stroke="#DDDDDD" stroke-width="0.5" stroke-miterlimit="10"/>
<path d="M155.4 26V34" stroke="#DDDDDD" stroke-width="0.5" stroke-miterlimit="10"/>
<path d="M159.4 26V34" stroke="#DDDDDD" stroke-width="0.5" stroke-miterlimit="10"/>
<path d="M163.4 26V34" stroke="#DDDDDD" stroke-width="0.5" stroke-miterlimit="10"/>
<path d="M167.4 26V34" stroke="#DDDDDD" stroke-width="0.5" stroke-miterlimit="10"/>
<path d="M171.4 26V34" stroke="#DDDDDD" stroke-width="0.5" stroke-miterlimit="10"/>
<path d="M175.4 26V34" stroke="#DDDDDD" stroke-width="0.5" stroke-miterlimit="10"/>
<path d="M179.4 26V34" stroke="#DDDDDD" stroke-width="0.5" stroke-miterlimit="10"/>
<path d="M183.4 26V34" stroke="#DDDDDD" stroke-width="0.5" stroke-miterlimit="10"/>
<path d="M187.4 26V34" stroke="#DDDDDD" stroke-width="0.5" stroke-miterlimit="10"/>
<path d="M191.4 26V34" stroke="#DDDDDD" stroke-width="0.5" stroke-miterlimit="10"/>
<path d="M195.4 26V34" stroke="#DDDDDD" stroke-width="0.5" stroke-miterlimit="10"/>
<path d="M199.4 26V34" stroke="#DDDDDD" stroke-width="0.5" stroke-miterlimit="10"/>
<path d="M203.4 26V34" stroke="#DDDDDD" stroke-width="0.5" stroke-miterlimit="10"/>
<path d="M207.4 26V34" stroke="#DDDDDD" stroke-width="0.5" stroke-miterlimit="10"/>
<path d="M211.4 26V34" stroke="#DDDDDD" stroke-width="0.5" stroke-miterlimit="10"/>
<path d="M215.4 26V34" stroke="#DDDDDD" stroke-width="0.5" stroke-miterlimit="10"/>
<path d="M219.4 26V34" stroke="#DDDDDD" stroke-width="0.5" stroke-miterlimit="10"/>
<path d="M223.4 26V34" stroke="#DDDDDD" stroke-width="0.5" stroke-miterlimit="10"/>
<path d="M227.4 26V34" stroke="#DDDDDD" stroke-width="0.5" stroke-miterlimit="10"/>
<path d="M231.4 26V34" stroke="#DDDDDD" stroke-width="0.5" stroke-miterlimit="10"/>
<path d="M235.4 26V34" stroke="#DDDDDD" stroke-width="0.5" stroke-miterlimit="10"/>
<path d="M239.4 26V34" stroke="#DDDDDD" stroke-width="0.5" stroke-miterlimit="10"/>
<path d="M243.4 26V34" stroke="#DDDDDD" stroke-width="0.5" stroke-miterlimit="10"/>
<path d="M133.8 38H251.2" stroke="#DDDDDD" stroke-width="0.5" stroke-miterlimit="10"/>
<path d="M133.8 46H251.2" stroke="#DDDDDD" stroke-width="0.5" stroke-miterlimit="10"/>
<path d="M136.4 38V46" stroke="#DDDDDD" stroke-width="0.5" stroke-miterlimit="10"/>
<path d="M140.4 38V46" stroke="#DDDDDD" stroke-width="0.5" stroke-miterlimit="10"/>
<path d="M144.4 38V46" stroke="#DDDDDD" stroke-width="0.5" stroke-miterlimit="10"/>
<path d="M148.4 38V46" stroke="#DDDDDD" stroke-width="0.5" stroke-miterlimit="10"/>
<path d="M152.4 38V46" stroke="#DDDDDD" stroke-width="0.5" stroke-miterlimit="10"/>
<path d="M156.4 38V46" stroke="#DDDDDD" stroke-width="0.5" stroke-miterlimit="10"/>
<path d="M160.4 38V46" stroke="#DDDDDD" stroke-width="0.5" stroke-miterlimit="10"/>
<path d="M164.4 38V46" stroke="#DDDDDD" stroke-width="0.5" stroke-miterlimit="10"/>
<path d="M168.4 38V46" stroke="#DDDDDD" stroke-width="0.5" stroke-miterlimit="10"/>
<path d="M172.4 38V46" stroke="#DDDDDD" stroke-width="0.5" stroke-miterlimit="10"/>
<path d="M176.4 38V46" stroke="#DDDDDD" stroke-width="0.5" stroke-miterlimit="10"/>
<path d="M180.4 38V46" stroke="#DDDDDD" stroke-width="0.5" stroke-miterlimit="10"/>
<path d="M184.4 38V46" stroke="#DDDDDD" stroke-width="0.5" stroke-miterlimit="10"/>
<path d="M188.4 38V46" stroke="#DDDDDD" stroke-width="0.5" stroke-miterlimit="10"/>
<path d="M192.4 38V46" stroke="#DDDDDD" stroke-width="0.5" stroke-miterlimit="10"/>
<path d="M196.4 38V46" stroke="#DDDDDD" stroke-width="0.5" stroke-miterlimit="10"/>
<path d="M200.4 38V46" stroke="#DDDDDD" stroke-width="0.5" stroke-miterlimit="10"/>
<path d="M204.4 38V46" stroke="#DDDDDD" stroke-width="0.5" stroke-miterlimit="10"/>
<path d="M208.4 38V46" stroke="#DDDDDD" stroke-width="0.5" stroke-miterlimit="10"/>
<path d="M212.4 38V46" stroke="#DDDDDD" stroke-width="0.5" stroke-miterlimit="10"/>
<path d="M216.4 38V46" stroke="#DDDDDD" stroke-width="0.5" stroke-miterlimit="10"/>
<path d="M220.4 38V46" stroke="#DDDDDD" stroke-width="0.5" stroke-miterlimit="10"/>
<path d="M224.4 38V46" stroke="#DDDDDD" stroke-width="0.5" stroke-miterlimit="10"/>
<path d="M228.4 38V46" stroke="#DDDDDD" stroke-width="0.5" stroke-miterlimit="10"/>
<path d="M232.4 38V46" stroke="#DDDDDD" stroke-width="0.5" stroke-miterlimit="10"/>
<path d="M236.4 38V46" stroke="#DDDDDD" stroke-width="0.5" stroke-miterlimit="10"/>
<path d="M240.4 38V46" stroke="#DDDDDD" stroke-width="0.5" stroke-miterlimit="10"/>
<path d="M244.4 38V46" stroke="#DDDDDD" stroke-width="0.5" stroke-miterlimit="10"/>
<path d="M248.4 38V46" stroke="#DDDDDD" stroke-width="0.5" stroke-miterlimit="10"/>
<path d="M128.8 50H246.2" stroke="#DDDDDD" stroke-width="0.5" stroke-miterlimit="10"/>
<path d="M128.8 58H246.2" stroke="#DDDDDD" stroke-width="0.5" stroke-miterlimit="10"/>
<path d="M128.8 74H246.2" stroke="#DDDDDD" stroke-width="0.5" stroke-miterlimit="10"/>
<path d="M128.8 82H246.2" stroke="#DDDDDD" stroke-width="0.5" stroke-miterlimit="10"/>
<path d="M131.4 74V82" stroke="#DDDDDD" stroke-width="0.5" stroke-miterlimit="10"/>
<path d="M135.4 74V82" stroke="#DDDDDD" stroke-width="0.5" stroke-miterlimit="10"/>
<path d="M139.4 74V82" stroke="#DDDDDD" stroke-width="0.5" stroke-miterlimit="10"/>
<path d="M143.4 74V82" stroke="#DDDDDD" stroke-width="0.5" stroke-miterlimit="10"/>
<path d="M147.4 74V82" stroke="#DDDDDD" stroke-width="0.5" stroke-miterlimit="10"/>
<path d="M151.4 74V82" stroke="#DDDDDD" stroke-width="0.5" stroke-miterlimit="10"/>
<path d="M155.4 74V82" stroke="#DDDDDD" stroke-width="0.5" stroke-miterlimit="10"/>
<path d="M159.4 74V82" stroke="#DDDDDD" stroke-width="0.5" stroke-miterlimit="10"/>
<path d="M163.4 74V82" stroke="#DDDDDD" stroke-width="0.5" stroke-miterlimit="10"/>
<path d="M167.4 74V82" stroke="#DDDDDD" stroke-width="0.5" stroke-miterlimit="10"/>
<path d="M171.4 74V82" stroke="#DDDDDD" stroke-width="0.5" stroke-miterlimit="10"/>
<path d="M175.4 74V82" stroke="#DDDDDD" stroke-width="0.5" stroke-miterlimit="10"/>
<path d="M179.4 74V82" stroke="#DDDDDD" stroke-width="0.5" stroke-miterlimit="10"/>
<path d="M183.4 74V82" stroke="#DDDDDD" stroke-width="0.5" stroke-miterlimit="10"/>
<path d="M187.4 74V82" stroke="#DDDDDD" stroke-width="0.5" stroke-miterlimit="10"/>
<path d="M191.4 74V82" stroke="#DDDDDD" stroke-width="0.5" stroke-miterlimit="10"/>
<path d="M195.4 74V82" stroke="#DDDDDD" stroke-width="0.5" stroke-miterlimit="10"/>
<path d="M199.4 74V82" stroke="#DDDDDD" stroke-width="0.5" stroke-miterlimit="10"/>
<path d="M203.4 74V82" stroke="#DDDDDD" stroke-width="0.5" stroke-miterlimit="10"/>
<path d="M207.4 74V82" stroke="#DDDDDD" stroke-width="0.5" stroke-miterlimit="10"/>
<path d="M211.4 74V82" stroke="#DDDDDD" stroke-width="0.5" stroke-miterlimit="10"/>
<path d="M215.4 74V82" stroke="#DDDDDD" stroke-width="0.5" stroke-miterlimit="10"/>
<path d="M219.4 74V82" stroke="#DDDDDD" stroke-width="0.5" stroke-miterlimit="10"/>
<path d="M223.4 74V82" stroke="#DDDDDD" stroke-width="0.5" stroke-miterlimit="10"/>
<path d="M227.4 74V82" stroke="#DDDDDD" stroke-width="0.5" stroke-miterlimit="10"/>
<path d="M231.4 74V82" stroke="#DDDDDD" stroke-width="0.5" stroke-miterlimit="10"/>
<path d="M235.4 74V82" stroke="#DDDDDD" stroke-width="0.5" stroke-miterlimit="10"/>
<path d="M239.4 74V82" stroke="#DDDDDD" stroke-width="0.5" stroke-miterlimit="10"/>
<path d="M243.4 74V82" stroke="#DDDDDD" stroke-width="0.5" stroke-miterlimit="10"/>
<path d="M133.8 62H251.2" stroke="#DDDDDD" stroke-width="0.5" stroke-miterlimit="10"/>
<path d="M133.8 70H251.2" stroke="#DDDDDD" stroke-width="0.5" stroke-miterlimit="10"/>
<path d="M136.4 62V70" stroke="#DDDDDD" stroke-width="0.5" stroke-miterlimit="10"/>
<path d="M140.4 62V70" stroke="#DDDDDD" stroke-width="0.5" stroke-miterlimit="10"/>
<path d="M144.4 62V70" stroke="#DDDDDD" stroke-width="0.5" stroke-miterlimit="10"/>
<path d="M148.4 62V70" stroke="#DDDDDD" stroke-width="0.5" stroke-miterlimit="10"/>
<path d="M152.4 62V70" stroke="#DDDDDD" stroke-width="0.5" stroke-miterlimit="10"/>
<path d="M156.4 62V70" stroke="#DDDDDD" stroke-width="0.5" stroke-miterlimit="10"/>
<path d="M160.4 62V70" stroke="#DDDDDD" stroke-width="0.5" stroke-miterlimit="10"/>
<path d="M164.4 62V70" stroke="#DDDDDD" stroke-width="0.5" stroke-miterlimit="10"/>
<path d="M168.4 62V70" stroke="#DDDDDD" stroke-width="0.5" stroke-miterlimit="10"/>
<path d="M172.4 62V70" stroke="#DDDDDD" stroke-width="0.5" stroke-miterlimit="10"/>
<path d="M176.4 62V70" stroke="#DDDDDD" stroke-width="0.5" stroke-miterlimit="10"/>
<path d="M180.4 62V70" stroke="#DDDDDD" stroke-width="0.5" stroke-miterlimit="10"/>
<path d="M184.4 62V70" stroke="#DDDDDD" stroke-width="0.5" stroke-miterlimit="10"/>
<path d="M188.4 62V70" stroke="#DDDDDD" stroke-width="0.5" stroke-miterlimit="10"/>
<path d="M192.4 62V70" stroke="#DDDDDD" stroke-width="0.5" stroke-miterlimit="10"/>
<path d="M196.4 62V70" stroke="#DDDDDD" stroke-width="0.5" stroke-miterlimit="10"/>
<path d="M200.4 62V70" stroke="#DDDDDD" stroke-width="0.5" stroke-miterlimit="10"/>
<path d="M204.4 62V70" stroke="#DDDDDD" stroke-width="0.5" stroke-miterlimit="10"/>
<path d="M208.4 62V70" stroke="#DDDDDD" stroke-width="0.5" stroke-miterlimit="10"/>
<path d="M212.4 62V70" stroke="#DDDDDD" stroke-width="0.5" stroke-miterlimit="10"/>
<path d="M216.4 62V70" stroke="#DDDDDD" stroke-width="0.5" stroke-miterlimit="10"/>
<path d="M220.4 62V70" stroke="#DDDDDD" stroke-width="0.5" stroke-miterlimit="10"/>
<path d="M224.4 62V70" stroke="#DDDDDD" stroke-width="0.5" stroke-miterlimit="10"/>
<path d="M228.4 62V70" stroke="#DDDDDD" stroke-width="0.5" stroke-miterlimit="10"/>
<path d="M232.4 62V70" stroke="#DDDDDD" stroke-width="0.5" stroke-miterlimit="10"/>
<path d="M236.4 62V70" stroke="#DDDDDD" stroke-width="0.5" stroke-miterlimit="10"/>
<path d="M240.4 62V70" stroke="#DDDDDD" stroke-width="0.5" stroke-miterlimit="10"/>
<path d="M244.4 62V70" stroke="#DDDDDD" stroke-width="0.5" stroke-miterlimit="10"/>
<path d="M248.4 62V70" stroke="#DDDDDD" stroke-width="0.5" stroke-miterlimit="10"/>
<path d="M251.5 44.3V39.6C251.5 37.6 249.9 35.9 247.8 35.9H242.8C244.8 35.9 246.5 34.3 246.5 32.2V27.7C246.5 25.7 244.9 24 242.8 24H132.2C130.2 24 128.5 25.6 128.5 27.7V32.4C128.5 34.4 130.1 36.1 132.2 36.1H137.2C135.2 36.1 133.5 37.7 133.5 39.8V44.5C133.5 46.5 135.1 48.2 137.2 48.2H132.2C130.2 48.2 128.5 49.8 128.5 51.9V56.6C128.5 58.6 130.1 60.3 132.2 60.3H137.2C135.2 60.3 133.5 61.9 133.5 64V68.7C133.5 70.7 135.1 72.4 137.2 72.4H132.2C130.2 72.4 128.5 74 128.5 76.1V80.8C128.5 82.8 130.1 84.5 132.2 84.5H242.9C244.9 84.5 246.6 82.9 246.6 80.8V76.1C246.6 74.1 245 72.4 242.9 72.4H247.9C249.9 72.4 251.6 70.8 251.6 68.7V64C251.6 62 250 60.3 247.9 60.3H242.9C244.9 60.3 246.6 58.7 246.6 56.6V51.9C246.6 49.9 245 48.2 242.9 48.2H247.9C249.9 48 251.5 46.4 251.5 44.3Z" stroke="#808080" stroke-miterlimit="10"/>
<path d="M131.4 50V58" stroke="#DDDDDD" stroke-width="0.5" stroke-miterlimit="10"/>
<path d="M135.4 50V58" stroke="#DDDDDD" stroke-width="0.5" stroke-miterlimit="10"/>
<path d="M139.4 50V58" stroke="#DDDDDD" stroke-width="0.5" stroke-miterlimit="10"/>
<path d="M143.4 50V58" stroke="#DDDDDD" stroke-width="0.5" stroke-miterlimit="10"/>
<path d="M147.4 50V58" stroke="#DDDDDD" stroke-width="0.5" stroke-miterlimit="10"/>
<path d="M151.4 50V58" stroke="#DDDDDD" stroke-width="0.5" stroke-miterlimit="10"/>
<path d="M155.4 50V58" stroke="#DDDDDD" stroke-width="0.5" stroke-miterlimit="10"/>
<path d="M159.4 50V58" stroke="#DDDDDD" stroke-width="0.5" stroke-miterlimit="10"/>
<path d="M163.4 50V58" stroke="#DDDDDD" stroke-width="0.5" stroke-miterlimit="10"/>
<path d="M167.4 50V58" stroke="#DDDDDD" stroke-width="0.5" stroke-miterlimit="10"/>
<path d="M171.4 50V58" stroke="#DDDDDD" stroke-width="0.5" stroke-miterlimit="10"/>
<path d="M175.4 50V58" stroke="#DDDDDD" stroke-width="0.5" stroke-miterlimit="10"/>
<path d="M179.4 50V58" stroke="#DDDDDD" stroke-width="0.5" stroke-miterlimit="10"/>
<path d="M183.4 50V58" stroke="#DDDDDD" stroke-width="0.5" stroke-miterlimit="10"/>
<path d="M187.4 50V58" stroke="#DDDDDD" stroke-width="0.5" stroke-miterlimit="10"/>
<path d="M191.4 50V58" stroke="#DDDDDD" stroke-width="0.5" stroke-miterlimit="10"/>
<path d="M195.4 50V58" stroke="#DDDDDD" stroke-width="0.5" stroke-miterlimit="10"/>
<path d="M199.4 50V58" stroke="#DDDDDD" stroke-width="0.5" stroke-miterlimit="10"/>
<path d="M203.4 50V58" stroke="#DDDDDD" stroke-width="0.5" stroke-miterlimit="10"/>
<path d="M207.4 50V58" stroke="#DDDDDD" stroke-width="0.5" stroke-miterlimit="10"/>
<path d="M211.4 50V58" stroke="#DDDDDD" stroke-width="0.5" stroke-miterlimit="10"/>
<path d="M215.4 50V58" stroke="#DDDDDD" stroke-width="0.5" stroke-miterlimit="10"/>
<path d="M219.4 50V58" stroke="#DDDDDD" stroke-width="0.5" stroke-miterlimit="10"/>
<path d="M223.4 50V58" stroke="#DDDDDD" stroke-width="0.5" stroke-miterlimit="10"/>
<path d="M227.4 50V58" stroke="#DDDDDD" stroke-width="0.5" stroke-miterlimit="10"/>
<path d="M231.4 50V58" stroke="#DDDDDD" stroke-width="0.5" stroke-miterlimit="10"/>
<path d="M235.4 50V58" stroke="#DDDDDD" stroke-width="0.5" stroke-miterlimit="10"/>
<path d="M239.4 50V58" stroke="#DDDDDD" stroke-width="0.5" stroke-miterlimit="10"/>
<path d="M243.4 50V58" stroke="#DDDDDD" stroke-width="0.5" stroke-miterlimit="10"/>
<path d="M0 51H237V85H10L0 51Z" fill="#900583"/>
<path d="M117 99L103 85H235L117 99Z" fill="#620258"/>
<path d="M33.2786 61.5469H37.8567C38.7629 61.5469 39.4374 61.5859 39.8801 61.6641C40.3281 61.737 40.7265 61.8932 41.0754 62.1328C41.4296 62.3724 41.7239 62.6927 41.9583 63.0938C42.1926 63.4896 42.3098 63.9349 42.3098 64.4297C42.3098 64.9661 42.164 65.4583 41.8723 65.9062C41.5859 66.3542 41.1952 66.6901 40.7004 66.9141C41.3984 67.1172 41.9348 67.4635 42.3098 67.9531C42.6848 68.4427 42.8723 69.0182 42.8723 69.6797C42.8723 70.2005 42.7499 70.7083 42.5051 71.2031C42.2656 71.6927 41.9348 72.0859 41.5129 72.3828C41.0963 72.6745 40.5807 72.8542 39.9661 72.9219C39.5807 72.9635 38.651 72.9896 37.177 73H33.2786V61.5469ZM35.5911 63.4531V66.1016H37.1067C38.0077 66.1016 38.5676 66.0885 38.7864 66.0625C39.1822 66.0156 39.4921 65.8802 39.7161 65.6562C39.9452 65.4271 40.0598 65.1276 40.0598 64.7578C40.0598 64.4036 39.9609 64.1172 39.7629 63.8984C39.5702 63.6745 39.2812 63.5391 38.8958 63.4922C38.6666 63.4661 38.0077 63.4531 36.9192 63.4531H35.5911ZM35.5911 68.0078V71.0703H37.7317C38.565 71.0703 39.0937 71.0469 39.3176 71C39.6614 70.9375 39.94 70.7865 40.1536 70.5469C40.3723 70.3021 40.4817 69.9766 40.4817 69.5703C40.4817 69.2266 40.3984 68.9349 40.2317 68.6953C40.065 68.4557 39.8228 68.2812 39.5051 68.1719C39.1926 68.0625 38.5103 68.0078 37.4583 68.0078H35.5911ZM46.4583 67.2344L44.4661 66.875C44.69 66.0729 45.0754 65.4792 45.6223 65.0938C46.1692 64.7083 46.9817 64.5156 48.0598 64.5156C49.039 64.5156 49.7682 64.6328 50.2473 64.8672C50.7265 65.0964 51.0624 65.3906 51.2551 65.75C51.4531 66.1042 51.552 66.7578 51.552 67.7109L51.5286 70.2734C51.5286 71.0026 51.5624 71.5417 51.6301 71.8906C51.7031 72.2344 51.8359 72.6042 52.0286 73H49.8567C49.7994 72.8542 49.7291 72.638 49.6458 72.3516C49.6093 72.2214 49.5833 72.1354 49.5676 72.0938C49.1926 72.4583 48.7916 72.7318 48.3645 72.9141C47.9374 73.0964 47.4817 73.1875 46.9973 73.1875C46.1432 73.1875 45.4687 72.9557 44.9739 72.4922C44.4843 72.0286 44.2395 71.4427 44.2395 70.7344C44.2395 70.2656 44.3515 69.849 44.5754 69.4844C44.7994 69.1146 45.1119 68.8333 45.5129 68.6406C45.9192 68.4427 46.5025 68.2708 47.2629 68.125C48.289 67.9323 48.9999 67.7526 49.3958 67.5859V67.3672C49.3958 66.9453 49.2916 66.6458 49.0833 66.4688C48.8749 66.2865 48.4817 66.1953 47.9036 66.1953C47.5129 66.1953 47.2083 66.2734 46.9895 66.4297C46.7708 66.5807 46.5937 66.849 46.4583 67.2344ZM49.3958 69.0156C49.1145 69.1094 48.6692 69.2214 48.0598 69.3516C47.4504 69.4818 47.052 69.6094 46.8645 69.7344C46.5781 69.9375 46.4348 70.1953 46.4348 70.5078C46.4348 70.8151 46.5494 71.0807 46.7786 71.3047C47.0077 71.5286 47.2994 71.6406 47.6536 71.6406C48.0494 71.6406 48.427 71.5104 48.7864 71.25C49.052 71.0521 49.2265 70.8099 49.3098 70.5234C49.3671 70.3359 49.3958 69.9792 49.3958 69.4531V69.0156ZM53.6692 64.7031H55.6848V71.2266H58.2317V64.7031H60.2551V71.2266H62.7942V64.7031H64.8176V73H53.6692V64.7031ZM68.7083 67.2344L66.7161 66.875C66.94 66.0729 67.3254 65.4792 67.8723 65.0938C68.4192 64.7083 69.2317 64.5156 70.3098 64.5156C71.289 64.5156 72.0182 64.6328 72.4973 64.8672C72.9765 65.0964 73.3124 65.3906 73.5051 65.75C73.7031 66.1042 73.802 66.7578 73.802 67.7109L73.7786 70.2734C73.7786 71.0026 73.8124 71.5417 73.8801 71.8906C73.9531 72.2344 74.0859 72.6042 74.2786 73H72.1067C72.0494 72.8542 71.9791 72.638 71.8958 72.3516C71.8593 72.2214 71.8333 72.1354 71.8176 72.0938C71.4426 72.4583 71.0416 72.7318 70.6145 72.9141C70.1874 73.0964 69.7317 73.1875 69.2473 73.1875C68.3932 73.1875 67.7187 72.9557 67.2239 72.4922C66.7343 72.0286 66.4895 71.4427 66.4895 70.7344C66.4895 70.2656 66.6015 69.849 66.8254 69.4844C67.0494 69.1146 67.3619 68.8333 67.7629 68.6406C68.1692 68.4427 68.7525 68.2708 69.5129 68.125C70.539 67.9323 71.2499 67.7526 71.6458 67.5859V67.3672C71.6458 66.9453 71.5416 66.6458 71.3333 66.4688C71.1249 66.2865 70.7317 66.1953 70.1536 66.1953C69.7629 66.1953 69.4583 66.2734 69.2395 66.4297C69.0208 66.5807 68.8437 66.849 68.7083 67.2344ZM71.6458 69.0156C71.3645 69.1094 70.9192 69.2214 70.3098 69.3516C69.7004 69.4818 69.302 69.6094 69.1145 69.7344C68.8281 69.9375 68.6848 70.1953 68.6848 70.5078C68.6848 70.8151 68.7994 71.0807 69.0286 71.3047C69.2577 71.5286 69.5494 71.6406 69.9036 71.6406C70.2994 71.6406 70.677 71.5104 71.0364 71.25C71.302 71.0521 71.4765 70.8099 71.5598 70.5234C71.6171 70.3359 71.6458 69.9792 71.6458 69.4531V69.0156ZM79.4426 64.7031H86.9504V66.4766H84.2942V73H82.0989V66.4766H79.4426V64.7031ZM93.0754 70.3594L95.2629 70.7266C94.9817 71.5286 94.5364 72.1406 93.927 72.5625C93.3228 72.9792 92.565 73.1875 91.6536 73.1875C90.2109 73.1875 89.1432 72.7161 88.4504 71.7734C87.9036 71.0182 87.6301 70.0651 87.6301 68.9141C87.6301 67.5391 87.9895 66.4635 88.7083 65.6875C89.427 64.9062 90.3359 64.5156 91.4348 64.5156C92.6692 64.5156 93.6432 64.9245 94.3567 65.7422C95.0702 66.5547 95.4114 67.8021 95.3801 69.4844H89.8801C89.8958 70.1354 90.0728 70.6432 90.4114 71.0078C90.7499 71.3672 91.1718 71.5469 91.677 71.5469C92.0208 71.5469 92.3098 71.4531 92.5442 71.2656C92.7786 71.0781 92.9557 70.776 93.0754 70.3594ZM93.2004 68.1406C93.1848 67.5052 93.0208 67.0234 92.7083 66.6953C92.3958 66.362 92.0156 66.1953 91.5676 66.1953C91.0885 66.1953 90.6926 66.3698 90.3801 66.7188C90.0676 67.0677 89.914 67.5417 89.9192 68.1406H93.2004ZM97.0911 64.7031H99.2786V68.0938C99.6432 68.0521 99.901 67.9401 100.052 67.7578C100.203 67.5755 100.385 67.1771 100.599 66.5625C100.88 65.7448 101.187 65.2214 101.521 64.9922C101.854 64.763 102.292 64.6484 102.833 64.6484C103 64.6484 103.289 64.6615 103.7 64.6875L103.708 66.1406C103.13 66.1406 102.76 66.1953 102.599 66.3047C102.437 66.4193 102.263 66.7604 102.075 67.3281C101.82 68.0938 101.453 68.5651 100.974 68.7422C101.667 68.9349 102.253 69.5365 102.732 70.5469C102.758 70.599 102.786 70.6536 102.818 70.7109L104.044 73H101.685L100.591 70.6016C100.367 70.1172 100.172 69.8073 100.005 69.6719C99.8437 69.5312 99.6015 69.4609 99.2786 69.4609V73H97.0911V64.7031ZM104.154 64.7031H106.49L108.474 70.5938L110.411 64.7031H112.685L109.755 72.6875L109.232 74.1328C109.039 74.6172 108.854 74.987 108.677 75.2422C108.505 75.4974 108.305 75.7031 108.075 75.8594C107.851 76.0208 107.573 76.1458 107.24 76.2344C106.911 76.3229 106.539 76.3672 106.122 76.3672C105.7 76.3672 105.286 76.3229 104.88 76.2344L104.685 74.5156C105.029 74.5833 105.338 74.6172 105.615 74.6172C106.125 74.6172 106.503 74.4661 106.747 74.1641C106.992 73.8672 107.18 73.487 107.31 73.0234L104.154 64.7031ZM114.052 64.7031H116.075V71.2266H118.599V64.7031H120.622V71.2266H123.177V64.7031H125.2V71.2266H126.099V75.1875H124.325V73H114.052V64.7031ZM129.443 67.2344L127.45 66.875C127.674 66.0729 128.06 65.4792 128.607 65.0938C129.154 64.7083 129.966 64.5156 131.044 64.5156C132.023 64.5156 132.753 64.6328 133.232 64.8672C133.711 65.0964 134.047 65.3906 134.24 65.75C134.437 66.1042 134.536 66.7578 134.536 67.7109L134.513 70.2734C134.513 71.0026 134.547 71.5417 134.615 71.8906C134.687 72.2344 134.82 72.6042 135.013 73H132.841C132.784 72.8542 132.713 72.638 132.63 72.3516C132.594 72.2214 132.568 72.1354 132.552 72.0938C132.177 72.4583 131.776 72.7318 131.349 72.9141C130.922 73.0964 130.466 73.1875 129.982 73.1875C129.128 73.1875 128.453 72.9557 127.958 72.4922C127.469 72.0286 127.224 71.4427 127.224 70.7344C127.224 70.2656 127.336 69.849 127.56 69.4844C127.784 69.1146 128.096 68.8333 128.497 68.6406C128.904 68.4427 129.487 68.2708 130.247 68.125C131.273 67.9323 131.984 67.7526 132.38 67.5859V67.3672C132.38 66.9453 132.276 66.6458 132.068 66.4688C131.859 66.2865 131.466 66.1953 130.888 66.1953C130.497 66.1953 130.193 66.2734 129.974 66.4297C129.755 66.5807 129.578 66.849 129.443 67.2344ZM132.38 69.0156C132.099 69.1094 131.654 69.2214 131.044 69.3516C130.435 69.4818 130.036 69.6094 129.849 69.7344C129.562 69.9375 129.419 70.1953 129.419 70.5078C129.419 70.8151 129.534 71.0807 129.763 71.3047C129.992 71.5286 130.284 71.6406 130.638 71.6406C131.034 71.6406 131.411 71.5104 131.771 71.25C132.036 71.0521 132.211 70.8099 132.294 70.5234C132.351 70.3359 132.38 69.9792 132.38 69.4531V69.0156ZM143.818 64.7031V73H141.638V69.5547H141.435C140.961 69.5547 140.612 69.6172 140.388 69.7422C140.169 69.862 139.924 70.1198 139.654 70.5156L139.521 70.6797L138.075 73H135.521L137.091 70.5938C137.539 69.9062 137.945 69.5104 138.31 69.4062C137.695 69.3698 137.195 69.138 136.81 68.7109C136.43 68.2786 136.24 67.7292 136.24 67.0625C136.24 66.526 136.365 66.0677 136.615 65.6875C136.87 65.3073 137.206 65.0495 137.622 64.9141C138.044 64.7734 138.669 64.7031 139.497 64.7031H143.818ZM141.638 66.1172H140.068C139.49 66.1172 139.083 66.2005 138.849 66.3672C138.615 66.5286 138.497 66.7995 138.497 67.1797C138.497 67.5599 138.63 67.8333 138.896 68C139.161 68.1667 139.596 68.25 140.2 68.25H141.638V66.1172ZM157.74 67.1562L155.575 67.5469C155.503 67.1146 155.336 66.7891 155.075 66.5703C154.82 66.3516 154.487 66.2422 154.075 66.2422C153.529 66.2422 153.091 66.4323 152.763 66.8125C152.44 67.1875 152.279 67.8177 152.279 68.7031C152.279 69.6875 152.443 70.3828 152.771 70.7891C153.104 71.1953 153.549 71.3984 154.107 71.3984C154.523 71.3984 154.865 71.2812 155.13 71.0469C155.396 70.8073 155.583 70.3984 155.693 69.8203L157.849 70.1875C157.625 71.1771 157.195 71.9245 156.56 72.4297C155.924 72.9349 155.073 73.1875 154.005 73.1875C152.792 73.1875 151.823 72.8047 151.099 72.0391C150.38 71.2734 150.021 70.2135 150.021 68.8594C150.021 67.4896 150.383 66.4245 151.107 65.6641C151.831 64.8984 152.81 64.5156 154.044 64.5156C155.055 64.5156 155.857 64.7344 156.45 65.1719C157.049 65.6042 157.479 66.2656 157.74 67.1562ZM159.325 64.7031H161.513V68.0938C161.878 68.0521 162.135 67.9401 162.286 67.7578C162.437 67.5755 162.62 67.1771 162.833 66.5625C163.115 65.7448 163.422 65.2214 163.755 64.9922C164.088 64.763 164.526 64.6484 165.068 64.6484C165.234 64.6484 165.523 64.6615 165.935 64.6875L165.943 66.1406C165.365 66.1406 164.995 66.1953 164.833 66.3047C164.672 66.4193 164.497 66.7604 164.31 67.3281C164.055 68.0938 163.687 68.5651 163.208 68.7422C163.901 68.9349 164.487 69.5365 164.966 70.5469C164.992 70.599 165.021 70.6536 165.052 70.7109L166.279 73H163.919L162.825 70.6016C162.601 70.1172 162.406 69.8073 162.24 69.6719C162.078 69.5312 161.836 69.4609 161.513 69.4609V73H159.325V64.7031ZM167.372 64.7031H169.482V69.9141L172.857 64.7031H175.013V73H172.904V67.6953L169.482 73H167.372V64.7031ZM184.13 73H177.849V75.1875H176.068V71.2031H176.966C177.341 70.7865 177.651 70.1354 177.896 69.25C178.141 68.3646 178.286 66.849 178.333 64.7031H185.029V71.2031H185.919V75.1875H184.13V73ZM182.857 71.2031L182.865 66.5078H180.208C180.12 68.7995 179.755 70.3646 179.115 71.2031H182.857ZM187.341 64.7031H189.529V68.0938C189.893 68.0521 190.151 67.9401 190.302 67.7578C190.453 67.5755 190.635 67.1771 190.849 66.5625C191.13 65.7448 191.437 65.2214 191.771 64.9922C192.104 64.763 192.542 64.6484 193.083 64.6484C193.25 64.6484 193.539 64.6615 193.95 64.6875L193.958 66.1406C193.38 66.1406 193.01 66.1953 192.849 66.3047C192.687 66.4193 192.513 66.7604 192.325 67.3281C192.07 68.0938 191.703 68.5651 191.224 68.7422C191.917 68.9349 192.503 69.5365 192.982 70.5469C193.008 70.599 193.036 70.6536 193.068 70.7109L194.294 73H191.935L190.841 70.6016C190.617 70.1172 190.422 69.8073 190.255 69.6719C190.094 69.5312 189.851 69.4609 189.529 69.4609V73H187.341V64.7031ZM197.083 67.2344L195.091 66.875C195.315 66.0729 195.7 65.4792 196.247 65.0938C196.794 64.7083 197.607 64.5156 198.685 64.5156C199.664 64.5156 200.393 64.6328 200.872 64.8672C201.351 65.0964 201.687 65.3906 201.88 65.75C202.078 66.1042 202.177 66.7578 202.177 67.7109L202.154 70.2734C202.154 71.0026 202.187 71.5417 202.255 71.8906C202.328 72.2344 202.461 72.6042 202.654 73H200.482C200.424 72.8542 200.354 72.638 200.271 72.3516C200.234 72.2214 200.208 72.1354 200.193 72.0938C199.818 72.4583 199.417 72.7318 198.99 72.9141C198.562 73.0964 198.107 73.1875 197.622 73.1875C196.768 73.1875 196.094 72.9557 195.599 72.4922C195.109 72.0286 194.865 71.4427 194.865 70.7344C194.865 70.2656 194.976 69.849 195.2 69.4844C195.424 69.1146 195.737 68.8333 196.138 68.6406C196.544 68.4427 197.128 68.2708 197.888 68.125C198.914 67.9323 199.625 67.7526 200.021 67.5859V67.3672C200.021 66.9453 199.917 66.6458 199.708 66.4688C199.5 66.2865 199.107 66.1953 198.529 66.1953C198.138 66.1953 197.833 66.2734 197.615 66.4297C197.396 66.5807 197.219 66.849 197.083 67.2344ZM200.021 69.0156C199.74 69.1094 199.294 69.2214 198.685 69.3516C198.075 69.4818 197.677 69.6094 197.49 69.7344C197.203 69.9375 197.06 70.1953 197.06 70.5078C197.06 70.8151 197.174 71.0807 197.404 71.3047C197.633 71.5286 197.924 71.6406 198.279 71.6406C198.674 71.6406 199.052 71.5104 199.411 71.25C199.677 71.0521 199.851 70.8099 199.935 70.5234C199.992 70.3359 200.021 69.9792 200.021 69.4531V69.0156Z" fill="white"/>
<path d="M139.678 14.7483H144.808L124.214 52.8235H119.133L139.678 14.7483ZM109.407 24.1091C109.407 22.4558 109.764 20.8835 110.477 19.3922C111.206 17.901 112.308 16.7582 113.784 15.964C115.275 15.1535 117.033 14.7483 119.06 14.7483C122.042 14.7483 124.392 15.5993 126.111 17.3013C127.829 19.0032 128.688 21.2725 128.688 24.1091C128.688 26.9619 127.829 29.2393 126.111 30.9412C124.392 32.6432 122.042 33.4942 119.06 33.4942C117.033 33.4942 115.275 33.097 113.784 32.3028C112.308 31.4923 111.206 30.3415 110.477 28.8502C109.764 27.359 109.407 25.7786 109.407 24.1091ZM116.239 24.1577C116.239 26.1676 116.563 27.6265 117.212 28.5342C117.633 29.1339 118.249 29.4338 119.06 29.4338C119.87 29.4338 120.478 29.1339 120.883 28.5342C121.531 27.6265 121.856 26.1676 121.856 24.1577C121.856 22.164 121.531 20.7052 120.883 19.7812C120.478 19.1977 119.87 18.906 119.06 18.906C118.249 18.906 117.633 19.1977 117.212 19.7812C116.563 20.689 116.239 22.1478 116.239 24.1577ZM135.107 43.3898C135.107 41.7203 135.463 40.148 136.176 38.673C136.89 37.1817 137.992 36.0309 139.483 35.2204C140.974 34.41 142.725 34.0047 144.735 34.0047C147.734 34.0047 150.092 34.8638 151.81 36.582C153.528 38.284 154.387 40.5532 154.387 43.3898C154.387 46.2264 153.528 48.5038 151.81 50.222C150.092 51.9239 147.734 52.7749 144.735 52.7749C142.725 52.7749 140.974 52.3697 139.483 51.5592C137.992 50.7488 136.89 49.606 136.176 48.131C135.463 46.6397 135.107 45.0594 135.107 43.3898ZM141.939 43.4384C141.939 45.4484 142.263 46.9072 142.911 47.8149C143.317 48.3984 143.924 48.6902 144.735 48.6902C145.545 48.6902 146.161 48.3984 146.583 47.8149C147.231 46.9072 147.555 45.4484 147.555 43.4384C147.555 41.4285 147.231 39.9616 146.583 39.0377C146.161 38.4541 145.545 38.1624 144.735 38.1624C143.924 38.1624 143.317 38.4623 142.911 39.062C142.263 39.9697 141.939 41.4285 141.939 43.4384Z" fill="#900583"/>
<path d="M111.775 44.0986V52H81.9553C82.2782 49.013 83.247 46.1875 84.8616 43.5234C86.4762 40.8392 89.665 37.2871 94.428 32.8672C98.2626 29.2949 100.614 26.873 101.482 25.6016C102.652 23.8457 103.238 22.11 103.238 20.3945C103.238 18.4974 102.723 17.0443 101.694 16.0352C100.684 15.0059 99.2818 14.4912 97.4856 14.4912C95.7096 14.4912 94.2968 15.026 93.2473 16.0957C92.1978 17.1654 91.5924 18.9414 91.4309 21.4238L82.9543 20.5762C83.4589 15.8939 85.0432 12.5335 87.7073 10.4951C90.3713 8.45671 93.7014 7.4375 97.6975 7.4375C102.077 7.4375 105.518 8.61816 108.021 10.9795C110.523 13.3408 111.775 16.2773 111.775 19.7891C111.775 21.7871 111.411 23.6943 110.685 25.5107C109.978 27.307 108.848 29.194 107.294 31.1719C106.265 32.4837 104.408 34.3708 101.724 36.833C99.0396 39.2952 97.3342 40.93 96.6077 41.7373C95.9013 42.5446 95.3261 43.3317 94.8821 44.0986H111.775Z" fill="#900583"/>
</svg>
