<svg width="73" height="59" viewBox="0 0 73 59" fill="none" xmlns="http://www.w3.org/2000/svg">
<g clip-path="url(#clip0)">
<path d="M55.8051 8.52203V6.64171C55.8051 5.84157 55.165 5.16145 54.3249 5.16145H52.3245C53.1247 5.16145 53.8048 4.52134 53.8048 3.6812V1.88089C53.8048 1.08075 53.1647 0.400635 52.3245 0.400635H8.07693C7.2768 0.400635 6.59668 1.04074 6.59668 1.88089V3.76121C6.59668 4.56135 7.23679 5.24147 8.07693 5.24147H10.0773C9.27714 5.24147 8.59702 5.88158 8.59702 6.72172V8.60204C8.59702 9.40218 9.23713 10.0823 10.0773 10.0823H8.07693C7.2768 10.0823 6.59668 10.7224 6.59668 11.5626V13.4429C6.59668 14.243 7.23679 14.9231 8.07693 14.9231H10.0773C9.27714 14.9231 8.59702 15.5632 8.59702 16.4034V18.2837C8.59702 19.0838 9.23713 19.764 10.0773 19.764H8.07693C7.2768 19.764 6.59668 20.4041 6.59668 21.2442V23.1245C6.59668 23.9247 7.23679 24.6048 8.07693 24.6048H10.0773C9.27714 24.6048 8.59702 25.2449 8.59702 26.085V27.9654C8.59702 28.7655 9.23713 29.4456 10.0773 29.4456H8.07693C7.2768 29.4456 6.59668 30.0857 6.59668 30.9259V32.8062C6.59668 33.6063 7.23679 34.2865 8.07693 34.2865H52.3646C53.1647 34.2865 53.8448 33.6463 53.8448 32.8062V30.9259C53.8448 30.1257 53.2047 29.4456 52.3646 29.4456H54.3649C55.165 29.4456 55.8451 28.8055 55.8451 27.9654V26.085C55.8451 25.2849 55.205 24.6048 54.3649 24.6048H52.3646C53.1647 24.6048 53.8448 23.9647 53.8448 23.1245V21.2442C53.8448 20.4441 53.2047 19.764 52.3646 19.764H54.3649C55.165 19.764 55.8451 19.1239 55.8451 18.2837V16.4034C55.8451 15.6032 55.205 14.9231 54.3649 14.9231H52.3646C53.1647 14.9231 53.8448 14.283 53.8448 13.4429V11.5626C53.8448 10.7624 53.2047 10.0823 52.3646 10.0823H54.3649C55.165 10.0023 55.8051 9.36217 55.8051 8.52203Z" fill="white"/>
<path d="M54.4865 10.0022H10.2764C9.4769 10.0022 8.79736 9.36742 8.79736 8.53422V6.66944C8.79736 5.87591 9.43693 5.20142 10.2764 5.20142H54.5265C55.3259 5.20142 56.0055 5.83624 56.0055 6.66944V8.53422C55.9655 9.36742 55.3259 10.0022 54.4865 10.0022Z" stroke="#DDDDDD" stroke-width="0.382721" stroke-miterlimit="10"/>
<path d="M52.4885 5.20146H8.27832C7.47886 5.20146 6.79932 4.56135 6.79932 3.72121V1.88089C6.79932 1.08075 7.43888 0.400635 8.27832 0.400635H52.5284C53.3279 0.400635 54.0074 1.04074 54.0074 1.88089V3.76121C53.9675 4.56135 53.3279 5.20146 52.4885 5.20146Z" stroke="#DDDDDD" stroke-width="0.382721" stroke-miterlimit="10"/>
<path d="M54.4865 19.605H10.2764C9.4769 19.605 8.79736 18.9702 8.79736 18.137V16.2722C8.79736 15.4787 9.43693 14.8042 10.2764 14.8042H54.5265C55.3259 14.8042 56.0055 15.439 56.0055 16.2722V18.137C55.9655 18.9702 55.3259 19.605 54.4865 19.605Z" stroke="#DDDDDD" stroke-width="0.382721" stroke-miterlimit="10"/>
<path d="M52.4885 14.8042H8.27832C7.47886 14.8042 6.79932 14.1694 6.79932 13.3362V11.4714C6.79932 10.6779 7.43888 10.0034 8.27832 10.0034H52.5284C53.3279 10.0034 54.0074 10.6382 54.0074 11.4714V13.3362C53.9675 14.1694 53.3279 14.8042 52.4885 14.8042Z" stroke="#DDDDDD" stroke-width="0.382721" stroke-miterlimit="10"/>
<path d="M52.4885 34.0064H8.27832C7.47886 34.0064 6.79932 33.3716 6.79932 32.5384V30.6736C6.79932 29.8801 7.43888 29.2056 8.27832 29.2056H52.5284C53.3279 29.2056 54.0074 29.8404 54.0074 30.6736V32.5384C53.9675 33.3716 53.3279 34.0064 52.4885 34.0064Z" stroke="#DDDDDD" stroke-width="0.382721" stroke-miterlimit="10"/>
<path d="M54.4865 29.2056H10.2764C9.4769 29.2056 8.79736 28.5708 8.79736 27.7376V25.8728C8.79736 25.0793 9.43693 24.4048 10.2764 24.4048H54.5265C55.3259 24.4048 56.0055 25.0396 56.0055 25.8728V27.7376C55.9655 28.5708 55.3259 29.2056 54.4865 29.2056Z" stroke="#DDDDDD" stroke-width="0.382721" stroke-miterlimit="10"/>
<path d="M52.4885 24.4048H8.27832C7.47886 24.4048 6.79932 23.77 6.79932 22.9368V21.072C6.79932 20.2785 7.43888 19.604 8.27832 19.604H52.5284C53.3279 19.604 54.0074 20.2388 54.0074 21.072V22.9368C53.9675 23.77 53.3279 24.4048 52.4885 24.4048Z" stroke="#DDDDDD" stroke-width="0.382721" stroke-miterlimit="10"/>
<path d="M6.72217 1.20117H53.6902" stroke="#DDDDDD" stroke-width="0.191361" stroke-miterlimit="10"/>
<path d="M6.72217 4.4021H53.6902" stroke="#DDDDDD" stroke-width="0.191361" stroke-miterlimit="10"/>
<path d="M7.76416 1.2002V4.40074" stroke="#DDDDDD" stroke-width="0.191361" stroke-miterlimit="10"/>
<path d="M9.36523 1.20117V4.40172" stroke="#DDDDDD" stroke-width="0.191361" stroke-miterlimit="10"/>
<path d="M10.9639 1.20117V4.40172" stroke="#DDDDDD" stroke-width="0.191361" stroke-miterlimit="10"/>
<path d="M12.5649 1.20117V4.40172" stroke="#DDDDDD" stroke-width="0.191361" stroke-miterlimit="10"/>
<path d="M14.166 1.20117V4.40172" stroke="#DDDDDD" stroke-width="0.191361" stroke-miterlimit="10"/>
<path d="M15.7671 1.20117V4.40172" stroke="#DDDDDD" stroke-width="0.191361" stroke-miterlimit="10"/>
<path d="M17.3657 1.20117V4.40172" stroke="#DDDDDD" stroke-width="0.191361" stroke-miterlimit="10"/>
<path d="M18.9668 1.20117V4.40172" stroke="#DDDDDD" stroke-width="0.191361" stroke-miterlimit="10"/>
<path d="M20.5654 1.20117V4.40172" stroke="#DDDDDD" stroke-width="0.191361" stroke-miterlimit="10"/>
<path d="M22.1685 1.20117V4.40172" stroke="#DDDDDD" stroke-width="0.191361" stroke-miterlimit="10"/>
<path d="M23.7676 1.20117V4.40172" stroke="#DDDDDD" stroke-width="0.191361" stroke-miterlimit="10"/>
<path d="M25.3662 1.20117V4.40172" stroke="#DDDDDD" stroke-width="0.191361" stroke-miterlimit="10"/>
<path d="M26.9673 1.20117V4.40172" stroke="#DDDDDD" stroke-width="0.191361" stroke-miterlimit="10"/>
<path d="M28.5664 1.20117V4.40172" stroke="#DDDDDD" stroke-width="0.191361" stroke-miterlimit="10"/>
<path d="M30.1694 1.20117V4.40172" stroke="#DDDDDD" stroke-width="0.191361" stroke-miterlimit="10"/>
<path d="M31.7681 1.20117V4.40172" stroke="#DDDDDD" stroke-width="0.191361" stroke-miterlimit="10"/>
<path d="M33.3691 1.20117V4.40172" stroke="#DDDDDD" stroke-width="0.191361" stroke-miterlimit="10"/>
<path d="M34.9683 1.20117V4.40172" stroke="#DDDDDD" stroke-width="0.191361" stroke-miterlimit="10"/>
<path d="M36.5688 1.20117V4.40172" stroke="#DDDDDD" stroke-width="0.191361" stroke-miterlimit="10"/>
<path d="M38.1699 1.20117V4.40172" stroke="#DDDDDD" stroke-width="0.191361" stroke-miterlimit="10"/>
<path d="M39.771 1.20117V4.40172" stroke="#DDDDDD" stroke-width="0.191361" stroke-miterlimit="10"/>
<path d="M41.3696 1.20117V4.40172" stroke="#DDDDDD" stroke-width="0.191361" stroke-miterlimit="10"/>
<path d="M42.9707 1.20117V4.40172" stroke="#DDDDDD" stroke-width="0.191361" stroke-miterlimit="10"/>
<path d="M44.5698 1.20117V4.40172" stroke="#DDDDDD" stroke-width="0.191361" stroke-miterlimit="10"/>
<path d="M46.1729 1.20117V4.40172" stroke="#DDDDDD" stroke-width="0.191361" stroke-miterlimit="10"/>
<path d="M47.7715 1.20117V4.40172" stroke="#DDDDDD" stroke-width="0.191361" stroke-miterlimit="10"/>
<path d="M49.3726 1.20117V4.40172" stroke="#DDDDDD" stroke-width="0.191361" stroke-miterlimit="10"/>
<path d="M50.9712 1.20117V4.40172" stroke="#DDDDDD" stroke-width="0.191361" stroke-miterlimit="10"/>
<path d="M52.5723 1.20117V4.40172" stroke="#DDDDDD" stroke-width="0.191361" stroke-miterlimit="10"/>
<path d="M8.72266 6.00195H55.6907" stroke="#DDDDDD" stroke-width="0.191361" stroke-miterlimit="10"/>
<path d="M8.72266 9.20288H55.6907" stroke="#DDDDDD" stroke-width="0.191361" stroke-miterlimit="10"/>
<path d="M9.76074 6.00195V9.2025" stroke="#DDDDDD" stroke-width="0.191361" stroke-miterlimit="10"/>
<path d="M11.3599 6.00195V9.2025" stroke="#DDDDDD" stroke-width="0.191361" stroke-miterlimit="10"/>
<path d="M12.9604 6.00195V9.2025" stroke="#DDDDDD" stroke-width="0.191361" stroke-miterlimit="10"/>
<path d="M14.5596 6.00195V9.2025" stroke="#DDDDDD" stroke-width="0.191361" stroke-miterlimit="10"/>
<path d="M16.1626 6.00195V9.2025" stroke="#DDDDDD" stroke-width="0.191361" stroke-miterlimit="10"/>
<path d="M17.7612 6.00195V9.2025" stroke="#DDDDDD" stroke-width="0.191361" stroke-miterlimit="10"/>
<path d="M19.3623 6.00195V9.2025" stroke="#DDDDDD" stroke-width="0.191361" stroke-miterlimit="10"/>
<path d="M20.9614 6.00195V9.2025" stroke="#DDDDDD" stroke-width="0.191361" stroke-miterlimit="10"/>
<path d="M22.562 6.00195V9.2025" stroke="#DDDDDD" stroke-width="0.191361" stroke-miterlimit="10"/>
<path d="M24.1631 6.00195V9.2025" stroke="#DDDDDD" stroke-width="0.191361" stroke-miterlimit="10"/>
<path d="M25.7642 6.00195V9.2025" stroke="#DDDDDD" stroke-width="0.191361" stroke-miterlimit="10"/>
<path d="M27.3628 6.00195V9.2025" stroke="#DDDDDD" stroke-width="0.191361" stroke-miterlimit="10"/>
<path d="M28.9639 6.00195V9.2025" stroke="#DDDDDD" stroke-width="0.191361" stroke-miterlimit="10"/>
<path d="M30.563 6.00195V9.2025" stroke="#DDDDDD" stroke-width="0.191361" stroke-miterlimit="10"/>
<path d="M32.166 6.00195V9.2025" stroke="#DDDDDD" stroke-width="0.191361" stroke-miterlimit="10"/>
<path d="M33.7646 6.00195V9.2025" stroke="#DDDDDD" stroke-width="0.191361" stroke-miterlimit="10"/>
<path d="M35.3657 6.00195V9.2025" stroke="#DDDDDD" stroke-width="0.191361" stroke-miterlimit="10"/>
<path d="M36.9648 6.00195V9.2025" stroke="#DDDDDD" stroke-width="0.191361" stroke-miterlimit="10"/>
<path d="M38.5654 6.00195V9.2025" stroke="#DDDDDD" stroke-width="0.191361" stroke-miterlimit="10"/>
<path d="M40.1665 6.00195V9.2025" stroke="#DDDDDD" stroke-width="0.191361" stroke-miterlimit="10"/>
<path d="M41.7676 6.00195V9.2025" stroke="#DDDDDD" stroke-width="0.191361" stroke-miterlimit="10"/>
<path d="M43.3662 6.00195V9.2025" stroke="#DDDDDD" stroke-width="0.191361" stroke-miterlimit="10"/>
<path d="M44.9673 6.00195V9.2025" stroke="#DDDDDD" stroke-width="0.191361" stroke-miterlimit="10"/>
<path d="M46.5664 6.00195V9.2025" stroke="#DDDDDD" stroke-width="0.191361" stroke-miterlimit="10"/>
<path d="M48.165 6.00195V9.2025" stroke="#DDDDDD" stroke-width="0.191361" stroke-miterlimit="10"/>
<path d="M49.7681 6.00195V9.2025" stroke="#DDDDDD" stroke-width="0.191361" stroke-miterlimit="10"/>
<path d="M51.3672 6.00195V9.2025" stroke="#DDDDDD" stroke-width="0.191361" stroke-miterlimit="10"/>
<path d="M52.9678 6.00195V9.2025" stroke="#DDDDDD" stroke-width="0.191361" stroke-miterlimit="10"/>
<path d="M54.5669 6.00195V9.2025" stroke="#DDDDDD" stroke-width="0.191361" stroke-miterlimit="10"/>
<path d="M6.72217 10.8027H53.6902" stroke="#DDDDDD" stroke-width="0.191361" stroke-miterlimit="10"/>
<path d="M6.72217 14.0037H53.6902" stroke="#DDDDDD" stroke-width="0.191361" stroke-miterlimit="10"/>
<path d="M7.76367 10.8027V14.0033" stroke="#DDDDDD" stroke-width="0.191361" stroke-miterlimit="10"/>
<path d="M9.36475 10.8037V14.0043" stroke="#DDDDDD" stroke-width="0.191361" stroke-miterlimit="10"/>
<path d="M10.9639 10.8037V14.0043" stroke="#DDDDDD" stroke-width="0.191361" stroke-miterlimit="10"/>
<path d="M12.5649 10.8037V14.0043" stroke="#DDDDDD" stroke-width="0.191361" stroke-miterlimit="10"/>
<path d="M14.1655 10.8037V14.0043" stroke="#DDDDDD" stroke-width="0.191361" stroke-miterlimit="10"/>
<path d="M15.7666 10.8037V14.0043" stroke="#DDDDDD" stroke-width="0.191361" stroke-miterlimit="10"/>
<path d="M17.3657 10.8037V14.0043" stroke="#DDDDDD" stroke-width="0.191361" stroke-miterlimit="10"/>
<path d="M18.9668 10.8037V14.0043" stroke="#DDDDDD" stroke-width="0.191361" stroke-miterlimit="10"/>
<path d="M20.5654 10.8037V14.0043" stroke="#DDDDDD" stroke-width="0.191361" stroke-miterlimit="10"/>
<path d="M22.1685 10.8037V14.0043" stroke="#DDDDDD" stroke-width="0.191361" stroke-miterlimit="10"/>
<path d="M23.7676 10.8037V14.0043" stroke="#DDDDDD" stroke-width="0.191361" stroke-miterlimit="10"/>
<path d="M25.3662 10.8037V14.0043" stroke="#DDDDDD" stroke-width="0.191361" stroke-miterlimit="10"/>
<path d="M26.9673 10.8037V14.0043" stroke="#DDDDDD" stroke-width="0.191361" stroke-miterlimit="10"/>
<path d="M28.5659 10.8037V14.0043" stroke="#DDDDDD" stroke-width="0.191361" stroke-miterlimit="10"/>
<path d="M30.1689 10.8037V14.0043" stroke="#DDDDDD" stroke-width="0.191361" stroke-miterlimit="10"/>
<path d="M31.7681 10.8037V14.0043" stroke="#DDDDDD" stroke-width="0.191361" stroke-miterlimit="10"/>
<path d="M33.3691 10.8037V14.0043" stroke="#DDDDDD" stroke-width="0.191361" stroke-miterlimit="10"/>
<path d="M34.9678 10.8037V14.0043" stroke="#DDDDDD" stroke-width="0.191361" stroke-miterlimit="10"/>
<path d="M36.5688 10.8037V14.0043" stroke="#DDDDDD" stroke-width="0.191361" stroke-miterlimit="10"/>
<path d="M38.1699 10.8037V14.0043" stroke="#DDDDDD" stroke-width="0.191361" stroke-miterlimit="10"/>
<path d="M39.7705 10.8037V14.0043" stroke="#DDDDDD" stroke-width="0.191361" stroke-miterlimit="10"/>
<path d="M41.3696 10.8037V14.0043" stroke="#DDDDDD" stroke-width="0.191361" stroke-miterlimit="10"/>
<path d="M42.9707 10.8037V14.0043" stroke="#DDDDDD" stroke-width="0.191361" stroke-miterlimit="10"/>
<path d="M44.5693 10.8037V14.0043" stroke="#DDDDDD" stroke-width="0.191361" stroke-miterlimit="10"/>
<path d="M46.1724 10.8037V14.0043" stroke="#DDDDDD" stroke-width="0.191361" stroke-miterlimit="10"/>
<path d="M47.7715 10.8037V14.0043" stroke="#DDDDDD" stroke-width="0.191361" stroke-miterlimit="10"/>
<path d="M49.3721 10.8037V14.0043" stroke="#DDDDDD" stroke-width="0.191361" stroke-miterlimit="10"/>
<path d="M50.9712 10.8037V14.0043" stroke="#DDDDDD" stroke-width="0.191361" stroke-miterlimit="10"/>
<path d="M52.5723 10.8037V14.0043" stroke="#DDDDDD" stroke-width="0.191361" stroke-miterlimit="10"/>
<path d="M6.72217 20.4045H53.6902" stroke="#DDDDDD" stroke-width="0.191361" stroke-miterlimit="10"/>
<path d="M6.72217 23.6055H53.6902" stroke="#DDDDDD" stroke-width="0.191361" stroke-miterlimit="10"/>
<path d="M7.76367 20.4045V23.6051" stroke="#DDDDDD" stroke-width="0.191361" stroke-miterlimit="10"/>
<path d="M9.36475 20.4045V23.6051" stroke="#DDDDDD" stroke-width="0.191361" stroke-miterlimit="10"/>
<path d="M10.9639 20.4045V23.6051" stroke="#DDDDDD" stroke-width="0.191361" stroke-miterlimit="10"/>
<path d="M12.5649 20.4045V23.6051" stroke="#DDDDDD" stroke-width="0.191361" stroke-miterlimit="10"/>
<path d="M14.1655 20.4045V23.6051" stroke="#DDDDDD" stroke-width="0.191361" stroke-miterlimit="10"/>
<path d="M15.7666 20.4045V23.6051" stroke="#DDDDDD" stroke-width="0.191361" stroke-miterlimit="10"/>
<path d="M17.3657 20.4045V23.6051" stroke="#DDDDDD" stroke-width="0.191361" stroke-miterlimit="10"/>
<path d="M18.9668 20.4045V23.6051" stroke="#DDDDDD" stroke-width="0.191361" stroke-miterlimit="10"/>
<path d="M20.5654 20.4045V23.6051" stroke="#DDDDDD" stroke-width="0.191361" stroke-miterlimit="10"/>
<path d="M22.1685 20.4045V23.6051" stroke="#DDDDDD" stroke-width="0.191361" stroke-miterlimit="10"/>
<path d="M23.7676 20.4045V23.6051" stroke="#DDDDDD" stroke-width="0.191361" stroke-miterlimit="10"/>
<path d="M25.3662 20.4045V23.6051" stroke="#DDDDDD" stroke-width="0.191361" stroke-miterlimit="10"/>
<path d="M26.9673 20.4045V23.6051" stroke="#DDDDDD" stroke-width="0.191361" stroke-miterlimit="10"/>
<path d="M28.5659 20.4045V23.6051" stroke="#DDDDDD" stroke-width="0.191361" stroke-miterlimit="10"/>
<path d="M30.1689 20.4045V23.6051" stroke="#DDDDDD" stroke-width="0.191361" stroke-miterlimit="10"/>
<path d="M31.7681 20.4045V23.6051" stroke="#DDDDDD" stroke-width="0.191361" stroke-miterlimit="10"/>
<path d="M33.3691 20.4045V23.6051" stroke="#DDDDDD" stroke-width="0.191361" stroke-miterlimit="10"/>
<path d="M34.9678 20.4045V23.6051" stroke="#DDDDDD" stroke-width="0.191361" stroke-miterlimit="10"/>
<path d="M36.5688 20.4045V23.6051" stroke="#DDDDDD" stroke-width="0.191361" stroke-miterlimit="10"/>
<path d="M38.1699 20.4045V23.6051" stroke="#DDDDDD" stroke-width="0.191361" stroke-miterlimit="10"/>
<path d="M39.7705 20.4045V23.6051" stroke="#DDDDDD" stroke-width="0.191361" stroke-miterlimit="10"/>
<path d="M41.3696 20.4045V23.6051" stroke="#DDDDDD" stroke-width="0.191361" stroke-miterlimit="10"/>
<path d="M42.9707 20.4045V23.6051" stroke="#DDDDDD" stroke-width="0.191361" stroke-miterlimit="10"/>
<path d="M44.5693 20.4045V23.6051" stroke="#DDDDDD" stroke-width="0.191361" stroke-miterlimit="10"/>
<path d="M46.1724 20.4045V23.6051" stroke="#DDDDDD" stroke-width="0.191361" stroke-miterlimit="10"/>
<path d="M47.7715 20.4045V23.6051" stroke="#DDDDDD" stroke-width="0.191361" stroke-miterlimit="10"/>
<path d="M49.3721 20.4045V23.6051" stroke="#DDDDDD" stroke-width="0.191361" stroke-miterlimit="10"/>
<path d="M50.9712 20.4045V23.6051" stroke="#DDDDDD" stroke-width="0.191361" stroke-miterlimit="10"/>
<path d="M52.5723 20.4045V23.6051" stroke="#DDDDDD" stroke-width="0.191361" stroke-miterlimit="10"/>
<path d="M8.72266 25.2043H55.6907" stroke="#DDDDDD" stroke-width="0.191361" stroke-miterlimit="10"/>
<path d="M8.72266 28.4043H55.6907" stroke="#DDDDDD" stroke-width="0.191361" stroke-miterlimit="10"/>
<path d="M9.76074 25.2024V28.4029" stroke="#DDDDDD" stroke-width="0.191361" stroke-miterlimit="10"/>
<path d="M11.3599 25.2024V28.4029" stroke="#DDDDDD" stroke-width="0.191361" stroke-miterlimit="10"/>
<path d="M12.9604 25.2024V28.4029" stroke="#DDDDDD" stroke-width="0.191361" stroke-miterlimit="10"/>
<path d="M14.5596 25.2024V28.4029" stroke="#DDDDDD" stroke-width="0.191361" stroke-miterlimit="10"/>
<path d="M16.1626 25.2024V28.4029" stroke="#DDDDDD" stroke-width="0.191361" stroke-miterlimit="10"/>
<path d="M17.7612 25.2024V28.4029" stroke="#DDDDDD" stroke-width="0.191361" stroke-miterlimit="10"/>
<path d="M19.3623 25.2024V28.4029" stroke="#DDDDDD" stroke-width="0.191361" stroke-miterlimit="10"/>
<path d="M20.9614 25.2024V28.4029" stroke="#DDDDDD" stroke-width="0.191361" stroke-miterlimit="10"/>
<path d="M22.562 25.2024V28.4029" stroke="#DDDDDD" stroke-width="0.191361" stroke-miterlimit="10"/>
<path d="M24.1631 25.2024V28.4029" stroke="#DDDDDD" stroke-width="0.191361" stroke-miterlimit="10"/>
<path d="M25.7642 25.2024V28.4029" stroke="#DDDDDD" stroke-width="0.191361" stroke-miterlimit="10"/>
<path d="M27.3628 25.2024V28.4029" stroke="#DDDDDD" stroke-width="0.191361" stroke-miterlimit="10"/>
<path d="M28.9639 25.2024V28.4029" stroke="#DDDDDD" stroke-width="0.191361" stroke-miterlimit="10"/>
<path d="M30.563 25.2024V28.4029" stroke="#DDDDDD" stroke-width="0.191361" stroke-miterlimit="10"/>
<path d="M32.166 25.2024V28.4029" stroke="#DDDDDD" stroke-width="0.191361" stroke-miterlimit="10"/>
<path d="M33.7646 25.2024V28.4029" stroke="#DDDDDD" stroke-width="0.191361" stroke-miterlimit="10"/>
<path d="M35.3657 25.2024V28.4029" stroke="#DDDDDD" stroke-width="0.191361" stroke-miterlimit="10"/>
<path d="M36.9648 25.2024V28.4029" stroke="#DDDDDD" stroke-width="0.191361" stroke-miterlimit="10"/>
<path d="M38.5654 25.2024V28.4029" stroke="#DDDDDD" stroke-width="0.191361" stroke-miterlimit="10"/>
<path d="M40.1665 25.2024V28.4029" stroke="#DDDDDD" stroke-width="0.191361" stroke-miterlimit="10"/>
<path d="M41.7676 25.2024V28.4029" stroke="#DDDDDD" stroke-width="0.191361" stroke-miterlimit="10"/>
<path d="M43.3662 25.2024V28.4029" stroke="#DDDDDD" stroke-width="0.191361" stroke-miterlimit="10"/>
<path d="M44.9673 25.2024V28.4029" stroke="#DDDDDD" stroke-width="0.191361" stroke-miterlimit="10"/>
<path d="M46.5664 25.2024V28.4029" stroke="#DDDDDD" stroke-width="0.191361" stroke-miterlimit="10"/>
<path d="M48.165 25.2024V28.4029" stroke="#DDDDDD" stroke-width="0.191361" stroke-miterlimit="10"/>
<path d="M49.7681 25.2024V28.4029" stroke="#DDDDDD" stroke-width="0.191361" stroke-miterlimit="10"/>
<path d="M51.3672 25.2024V28.4029" stroke="#DDDDDD" stroke-width="0.191361" stroke-miterlimit="10"/>
<path d="M52.9678 25.2024V28.4029" stroke="#DDDDDD" stroke-width="0.191361" stroke-miterlimit="10"/>
<path d="M54.5669 25.2024V28.4029" stroke="#DDDDDD" stroke-width="0.191361" stroke-miterlimit="10"/>
<path d="M6.72217 30.0061H53.6902" stroke="#DDDDDD" stroke-width="0.191361" stroke-miterlimit="10"/>
<path d="M6.72217 33.207H53.6902" stroke="#DDDDDD" stroke-width="0.191361" stroke-miterlimit="10"/>
<path d="M7.76367 30.0061V33.2067" stroke="#DDDDDD" stroke-width="0.191361" stroke-miterlimit="10"/>
<path d="M9.36475 30.0061V33.2067" stroke="#DDDDDD" stroke-width="0.191361" stroke-miterlimit="10"/>
<path d="M10.9639 30.0061V33.2067" stroke="#DDDDDD" stroke-width="0.191361" stroke-miterlimit="10"/>
<path d="M12.5649 30.0061V33.2067" stroke="#DDDDDD" stroke-width="0.191361" stroke-miterlimit="10"/>
<path d="M14.1655 30.0061V33.2067" stroke="#DDDDDD" stroke-width="0.191361" stroke-miterlimit="10"/>
<path d="M15.7666 30.0061V33.2067" stroke="#DDDDDD" stroke-width="0.191361" stroke-miterlimit="10"/>
<path d="M17.3657 30.0061V33.2067" stroke="#DDDDDD" stroke-width="0.191361" stroke-miterlimit="10"/>
<path d="M18.9668 30.0061V33.2067" stroke="#DDDDDD" stroke-width="0.191361" stroke-miterlimit="10"/>
<path d="M20.5654 30.0061V33.2067" stroke="#DDDDDD" stroke-width="0.191361" stroke-miterlimit="10"/>
<path d="M22.1685 30.0061V33.2067" stroke="#DDDDDD" stroke-width="0.191361" stroke-miterlimit="10"/>
<path d="M23.7676 30.0061V33.2067" stroke="#DDDDDD" stroke-width="0.191361" stroke-miterlimit="10"/>
<path d="M25.3662 30.0061V33.2067" stroke="#DDDDDD" stroke-width="0.191361" stroke-miterlimit="10"/>
<path d="M26.9673 30.0061V33.2067" stroke="#DDDDDD" stroke-width="0.191361" stroke-miterlimit="10"/>
<path d="M28.5659 30.0061V33.2067" stroke="#DDDDDD" stroke-width="0.191361" stroke-miterlimit="10"/>
<path d="M30.1689 30.0061V33.2067" stroke="#DDDDDD" stroke-width="0.191361" stroke-miterlimit="10"/>
<path d="M31.7681 30.0061V33.2067" stroke="#DDDDDD" stroke-width="0.191361" stroke-miterlimit="10"/>
<path d="M33.3691 30.0061V33.2067" stroke="#DDDDDD" stroke-width="0.191361" stroke-miterlimit="10"/>
<path d="M34.9678 30.0061V33.2067" stroke="#DDDDDD" stroke-width="0.191361" stroke-miterlimit="10"/>
<path d="M36.5688 30.0061V33.2067" stroke="#DDDDDD" stroke-width="0.191361" stroke-miterlimit="10"/>
<path d="M38.1699 30.0061V33.2067" stroke="#DDDDDD" stroke-width="0.191361" stroke-miterlimit="10"/>
<path d="M39.7705 30.0061V33.2067" stroke="#DDDDDD" stroke-width="0.191361" stroke-miterlimit="10"/>
<path d="M41.3696 30.0061V33.2067" stroke="#DDDDDD" stroke-width="0.191361" stroke-miterlimit="10"/>
<path d="M42.9707 30.0061V33.2067" stroke="#DDDDDD" stroke-width="0.191361" stroke-miterlimit="10"/>
<path d="M44.5693 30.0061V33.2067" stroke="#DDDDDD" stroke-width="0.191361" stroke-miterlimit="10"/>
<path d="M46.1724 30.0061V33.2067" stroke="#DDDDDD" stroke-width="0.191361" stroke-miterlimit="10"/>
<path d="M47.7715 30.0061V33.2067" stroke="#DDDDDD" stroke-width="0.191361" stroke-miterlimit="10"/>
<path d="M49.3721 30.0061V33.2067" stroke="#DDDDDD" stroke-width="0.191361" stroke-miterlimit="10"/>
<path d="M50.9712 30.0061V33.2067" stroke="#DDDDDD" stroke-width="0.191361" stroke-miterlimit="10"/>
<path d="M52.5723 30.0061V33.2067" stroke="#DDDDDD" stroke-width="0.191361" stroke-miterlimit="10"/>
<path d="M8.72266 15.6035H55.6907" stroke="#DDDDDD" stroke-width="0.191361" stroke-miterlimit="10"/>
<path d="M8.72266 18.8044H55.6907" stroke="#DDDDDD" stroke-width="0.191361" stroke-miterlimit="10"/>
<path d="M9.76074 15.6035V18.8041" stroke="#DDDDDD" stroke-width="0.191361" stroke-miterlimit="10"/>
<path d="M11.3599 15.6035V18.8041" stroke="#DDDDDD" stroke-width="0.191361" stroke-miterlimit="10"/>
<path d="M12.9604 15.6035V18.8041" stroke="#DDDDDD" stroke-width="0.191361" stroke-miterlimit="10"/>
<path d="M14.5596 15.6035V18.8041" stroke="#DDDDDD" stroke-width="0.191361" stroke-miterlimit="10"/>
<path d="M16.1626 15.6035V18.8041" stroke="#DDDDDD" stroke-width="0.191361" stroke-miterlimit="10"/>
<path d="M17.7612 15.6035V18.8041" stroke="#DDDDDD" stroke-width="0.191361" stroke-miterlimit="10"/>
<path d="M19.3623 15.6035V18.8041" stroke="#DDDDDD" stroke-width="0.191361" stroke-miterlimit="10"/>
<path d="M20.9614 15.6035V18.8041" stroke="#DDDDDD" stroke-width="0.191361" stroke-miterlimit="10"/>
<path d="M22.562 15.6035V18.8041" stroke="#DDDDDD" stroke-width="0.191361" stroke-miterlimit="10"/>
<path d="M24.1631 15.6035V18.8041" stroke="#DDDDDD" stroke-width="0.191361" stroke-miterlimit="10"/>
<path d="M25.7642 15.6035V18.8041" stroke="#DDDDDD" stroke-width="0.191361" stroke-miterlimit="10"/>
<path d="M27.3628 15.6035V18.8041" stroke="#DDDDDD" stroke-width="0.191361" stroke-miterlimit="10"/>
<path d="M28.9639 15.6035V18.8041" stroke="#DDDDDD" stroke-width="0.191361" stroke-miterlimit="10"/>
<path d="M30.563 15.6035V18.8041" stroke="#DDDDDD" stroke-width="0.191361" stroke-miterlimit="10"/>
<path d="M32.166 15.6035V18.8041" stroke="#DDDDDD" stroke-width="0.191361" stroke-miterlimit="10"/>
<path d="M33.7646 15.6035V18.8041" stroke="#DDDDDD" stroke-width="0.191361" stroke-miterlimit="10"/>
<path d="M35.3657 15.6035V18.8041" stroke="#DDDDDD" stroke-width="0.191361" stroke-miterlimit="10"/>
<path d="M36.9648 15.6035V18.8041" stroke="#DDDDDD" stroke-width="0.191361" stroke-miterlimit="10"/>
<path d="M38.5654 15.6035V18.8041" stroke="#DDDDDD" stroke-width="0.191361" stroke-miterlimit="10"/>
<path d="M40.1665 15.6035V18.8041" stroke="#DDDDDD" stroke-width="0.191361" stroke-miterlimit="10"/>
<path d="M41.7676 15.6035V18.8041" stroke="#DDDDDD" stroke-width="0.191361" stroke-miterlimit="10"/>
<path d="M43.3662 15.6035V18.8041" stroke="#DDDDDD" stroke-width="0.191361" stroke-miterlimit="10"/>
<path d="M44.9673 15.6035V18.8041" stroke="#DDDDDD" stroke-width="0.191361" stroke-miterlimit="10"/>
<path d="M46.5664 15.6035V18.8041" stroke="#DDDDDD" stroke-width="0.191361" stroke-miterlimit="10"/>
<path d="M48.165 15.6035V18.8041" stroke="#DDDDDD" stroke-width="0.191361" stroke-miterlimit="10"/>
<path d="M49.7681 15.6035V18.8041" stroke="#DDDDDD" stroke-width="0.191361" stroke-miterlimit="10"/>
<path d="M51.3672 15.6035V18.8041" stroke="#DDDDDD" stroke-width="0.191361" stroke-miterlimit="10"/>
<path d="M52.9678 15.6035V18.8041" stroke="#DDDDDD" stroke-width="0.191361" stroke-miterlimit="10"/>
<path d="M54.5669 15.6035V18.8041" stroke="#DDDDDD" stroke-width="0.191361" stroke-miterlimit="10"/>
<path d="M55.9678 8.37556V6.51078C55.9678 5.71725 55.3282 5.04275 54.4887 5.04275H52.49C53.2895 5.04275 53.9691 4.40793 53.9691 3.57473V1.86866C53.9691 1.07513 53.3295 0.400635 52.49 0.400635H8.27837C7.47888 0.400635 6.79932 1.03545 6.79932 1.86866V3.73344C6.79932 4.52696 7.43891 5.20146 8.27837 5.20146H10.2771C9.4776 5.20146 8.79804 5.83628 8.79804 6.66948V8.53426C8.79804 9.32779 9.43763 10.0023 10.2771 10.0023H8.27837C7.47888 10.0023 6.79932 10.6371 6.79932 11.4703V13.3351C6.79932 14.1286 7.43891 14.8031 8.27837 14.8031H10.2771C9.4776 14.8031 8.79804 15.4379 8.79804 16.2711V18.1359C8.79804 18.9294 9.43763 19.6039 10.2771 19.6039H8.27837C7.47888 19.6039 6.79932 20.2388 6.79932 21.072V22.9367C6.79932 23.7303 7.43891 24.4048 8.27837 24.4048H10.2771C9.4776 24.4048 8.79804 25.0396 8.79804 25.8728V27.7376C8.79804 28.5311 9.43763 29.2056 10.2771 29.2056H8.27837C7.47888 29.2056 6.79932 29.8404 6.79932 30.6736V32.5384C6.79932 33.3319 7.43891 34.0064 8.27837 34.0064H52.53C53.3295 34.0064 54.0091 33.3716 54.0091 32.5384V30.6736C54.0091 29.8801 53.3695 29.2056 52.53 29.2056H54.5287C55.3282 29.2056 56.0078 28.5708 56.0078 27.7376V25.8728C56.0078 25.0793 55.3682 24.4048 54.5287 24.4048H52.53C53.3295 24.4048 54.0091 23.7699 54.0091 22.9367V21.072C54.0091 20.2784 53.3695 19.6039 52.53 19.6039H54.5287C55.3282 19.6039 56.0078 18.9691 56.0078 18.1359V16.2711C56.0078 15.4776 55.3682 14.8031 54.5287 14.8031H52.53C53.3295 14.8031 54.0091 14.1683 54.0091 13.3351V11.4703C54.0091 10.6768 53.3695 10.0023 52.53 10.0023H54.5287C55.3282 9.84358 55.9678 9.20876 55.9678 8.37556Z" stroke="#808080" stroke-width="0.382721" stroke-miterlimit="10"/>
</g>
<path d="M34.9028 12.1325H37.7453L26.3348 33.2291H23.5192L34.9028 12.1325ZM18.1306 17.3191C18.1306 16.403 18.3282 15.5319 18.7233 14.7056C19.1275 13.8793 19.7382 13.2462 20.5555 12.8061C21.3817 12.357 22.3562 12.1325 23.4788 12.1325C25.1313 12.1325 26.4336 12.604 27.3856 13.547C28.3376 14.4901 28.8136 15.7474 28.8136 17.3191C28.8136 18.8998 28.3376 20.1616 27.3856 21.1046C26.4336 22.0476 25.1313 22.5192 23.4788 22.5192C22.3562 22.5192 21.3817 22.2991 20.5555 21.859C19.7382 21.41 19.1275 20.7723 18.7233 19.9461C18.3282 19.1198 18.1306 18.2442 18.1306 17.3191ZM21.9161 17.346C21.9161 18.4597 22.0957 19.268 22.455 19.7709C22.6885 20.1032 23.0298 20.2694 23.4788 20.2694C23.9279 20.2694 24.2647 20.1032 24.4892 19.7709C24.8484 19.268 25.0281 18.4597 25.0281 17.346C25.0281 16.2414 24.8484 15.4331 24.4892 14.9211C24.2647 14.5978 23.9279 14.4362 23.4788 14.4362C23.0298 14.4362 22.6885 14.5978 22.455 14.9211C22.0957 15.4241 21.9161 16.2324 21.9161 17.346ZM32.3701 28.0021C32.3701 27.0771 32.5677 26.2059 32.9629 25.3886C33.358 24.5624 33.9687 23.9247 34.795 23.4756C35.6213 23.0266 36.5912 22.8021 37.7049 22.8021C39.3664 22.8021 40.6731 23.2781 41.6251 24.2301C42.5771 25.1731 43.0531 26.4304 43.0531 28.0021C43.0531 29.5738 42.5771 30.8357 41.6251 31.7877C40.6731 32.7307 39.3664 33.2022 37.7049 33.2022C36.5912 33.2022 35.6213 32.9777 34.795 32.5286C33.9687 32.0795 33.358 31.4464 32.9629 30.6291C32.5677 29.8028 32.3701 28.9272 32.3701 28.0021ZM36.1556 28.0291C36.1556 29.1427 36.3353 29.951 36.6945 30.454C36.919 30.7773 37.2558 30.9389 37.7049 30.9389C38.1539 30.9389 38.4952 30.7773 38.7287 30.454C39.088 29.951 39.2676 29.1427 39.2676 28.0291C39.2676 26.9154 39.088 26.1026 38.7287 25.5907C38.4952 25.2674 38.1539 25.1057 37.7049 25.1057C37.2558 25.1057 36.919 25.2719 36.6945 25.6042C36.3353 26.1071 36.1556 26.9154 36.1556 28.0291Z" fill="#900583"/>
<path d="M1 33H73V52H6L1 33Z" fill="#900583"/>
<path d="M8.58555 46.0273V44.3691L12.6988 42.752L8.58555 41.1523V39.5059L14.4801 42.0547V43.4609L8.58555 46.0273ZM22.1392 47H20.4927V40.7949C19.8912 41.3574 19.1822 41.7734 18.3658 42.043V40.5488C18.7955 40.4082 19.2623 40.1426 19.7662 39.752C20.2701 39.3574 20.6158 38.8984 20.8033 38.375H22.1392V47ZM29.6866 45.4707V47H23.9151C23.9776 46.4219 24.1651 45.875 24.4776 45.3594C24.7901 44.8398 25.4073 44.1523 26.3291 43.2969C27.0713 42.6055 27.5264 42.1367 27.6944 41.8906C27.9209 41.5508 28.0342 41.2148 28.0342 40.8828C28.0342 40.5156 27.9346 40.2344 27.7354 40.0391C27.5401 39.8398 27.2686 39.7402 26.9209 39.7402C26.5772 39.7402 26.3037 39.8438 26.1006 40.0508C25.8975 40.2578 25.7803 40.6016 25.7491 41.082L24.1084 40.918C24.2061 40.0117 24.5127 39.3613 25.0284 38.9668C25.544 38.5723 26.1885 38.375 26.962 38.375C27.8096 38.375 28.4756 38.6035 28.96 39.0605C29.4444 39.5176 29.6866 40.0859 29.6866 40.7656C29.6866 41.1523 29.6162 41.5215 29.4756 41.873C29.3389 42.2207 29.1202 42.5859 28.8194 42.9688C28.6202 43.2227 28.2608 43.5879 27.7412 44.0645C27.2217 44.541 26.8916 44.8574 26.751 45.0137C26.6143 45.1699 26.503 45.3223 26.417 45.4707H29.6866ZM33.1089 38.375C33.9409 38.375 34.5913 38.6719 35.0601 39.2656C35.6187 39.9688 35.898 41.1348 35.898 42.7637C35.898 44.3887 35.6167 45.5566 35.0542 46.2676C34.5894 46.8535 33.9409 47.1465 33.1089 47.1465C32.273 47.1465 31.5991 46.8262 31.0874 46.1855C30.5757 45.541 30.3198 44.3945 30.3198 42.7461C30.3198 41.1289 30.6011 39.9648 31.1636 39.2539C31.6284 38.668 32.2769 38.375 33.1089 38.375ZM33.1089 39.7402C32.9097 39.7402 32.732 39.8047 32.5757 39.9336C32.4195 40.0586 32.2984 40.2852 32.2124 40.6133C32.0991 41.0391 32.0425 41.7559 32.0425 42.7637C32.0425 43.7715 32.0933 44.4648 32.1948 44.8438C32.2964 45.2188 32.4234 45.4688 32.5757 45.5938C32.732 45.7188 32.9097 45.7812 33.1089 45.7812C33.3081 45.7812 33.4859 45.7188 33.6421 45.5938C33.7984 45.4648 33.9195 45.2363 34.0054 44.9082C34.1187 44.4863 34.1753 43.7715 34.1753 42.7637C34.1753 41.7559 34.1245 41.0645 34.023 40.6895C33.9214 40.3105 33.7925 40.0586 33.6362 39.9336C33.4839 39.8047 33.3081 39.7402 33.1089 39.7402ZM42.1684 38.375C43.0005 38.375 43.6509 38.6719 44.1196 39.2656C44.6782 39.9688 44.9575 41.1348 44.9575 42.7637C44.9575 44.3887 44.6763 45.5566 44.1138 46.2676C43.6489 46.8535 43.0005 47.1465 42.1684 47.1465C41.3325 47.1465 40.6587 46.8262 40.147 46.1855C39.6352 45.541 39.3794 44.3945 39.3794 42.7461C39.3794 41.1289 39.6606 39.9648 40.2231 39.2539C40.688 38.668 41.3364 38.375 42.1684 38.375ZM42.1684 39.7402C41.9692 39.7402 41.7915 39.8047 41.6352 39.9336C41.479 40.0586 41.3579 40.2852 41.272 40.6133C41.1587 41.0391 41.102 41.7559 41.102 42.7637C41.102 43.7715 41.1528 44.4648 41.2544 44.8438C41.3559 45.2188 41.4829 45.4688 41.6352 45.5938C41.7915 45.7188 41.9692 45.7812 42.1684 45.7812C42.3677 45.7812 42.5454 45.7188 42.7016 45.5938C42.8579 45.4648 42.979 45.2363 43.0649 44.9082C43.1782 44.4863 43.2348 43.7715 43.2348 42.7637C43.2348 41.7559 43.1841 41.0645 43.0825 40.6895C42.9809 40.3105 42.852 40.0586 42.6958 39.9336C42.5434 39.8047 42.3677 39.7402 42.1684 39.7402ZM48.3681 38.375C49.2002 38.375 49.8505 38.6719 50.3193 39.2656C50.8779 39.9688 51.1572 41.1348 51.1572 42.7637C51.1572 44.3887 50.8759 45.5566 50.3134 46.2676C49.8486 46.8535 49.2002 47.1465 48.3681 47.1465C47.5322 47.1465 46.8584 46.8262 46.3466 46.1855C45.8349 45.541 45.5791 44.3945 45.5791 42.7461C45.5791 41.1289 45.8603 39.9648 46.4228 39.2539C46.8877 38.668 47.5361 38.375 48.3681 38.375ZM48.3681 39.7402C48.1689 39.7402 47.9912 39.8047 47.8349 39.9336C47.6787 40.0586 47.5576 40.2852 47.4716 40.6133C47.3584 41.0391 47.3017 41.7559 47.3017 42.7637C47.3017 43.7715 47.3525 44.4648 47.4541 44.8438C47.5556 45.2188 47.6826 45.4688 47.8349 45.5938C47.9912 45.7188 48.1689 45.7812 48.3681 45.7812C48.5673 45.7812 48.7451 45.7188 48.9013 45.5938C49.0576 45.4648 49.1787 45.2363 49.2646 44.9082C49.3779 44.4863 49.4345 43.7715 49.4345 42.7637C49.4345 41.7559 49.3838 41.0645 49.2822 40.6895C49.1806 40.3105 49.0517 40.0586 48.8955 39.9336C48.7431 39.8047 48.5673 39.7402 48.3681 39.7402ZM54.5678 38.375C55.3998 38.375 56.0502 38.6719 56.519 39.2656C57.0776 39.9688 57.3569 41.1348 57.3569 42.7637C57.3569 44.3887 57.0756 45.5566 56.5131 46.2676C56.0483 46.8535 55.3998 47.1465 54.5678 47.1465C53.7319 47.1465 53.058 46.8262 52.5463 46.1855C52.0346 45.541 51.7787 44.3945 51.7787 42.7461C51.7787 41.1289 52.06 39.9648 52.6225 39.2539C53.0873 38.668 53.7358 38.375 54.5678 38.375ZM54.5678 39.7402C54.3686 39.7402 54.1909 39.8047 54.0346 39.9336C53.8784 40.0586 53.7573 40.2852 53.6713 40.6133C53.558 41.0391 53.5014 41.7559 53.5014 42.7637C53.5014 43.7715 53.5522 44.4648 53.6537 44.8438C53.7553 45.2188 53.8823 45.4688 54.0346 45.5938C54.1909 45.7188 54.3686 45.7812 54.5678 45.7812C54.767 45.7812 54.9448 45.7188 55.101 45.5938C55.2573 45.4648 55.3784 45.2363 55.4643 44.9082C55.5776 44.4863 55.6342 43.7715 55.6342 42.7637C55.6342 41.7559 55.5834 41.0645 55.4819 40.6895C55.3803 40.3105 55.2514 40.0586 55.0952 39.9336C54.9428 39.8047 54.767 39.7402 54.5678 39.7402ZM61.9184 43.676V44.468H60.5984V45.704H61.9184V47H63.6344V45.704H66.6824V44.468H63.6344V43.676H65.5304C66.4304 43.676 67.1384 43.436 67.6664 42.968C68.1944 42.5 68.4584 41.888 68.4584 41.132C68.4584 40.376 68.1944 39.776 67.6664 39.308C67.1384 38.84 66.4304 38.6 65.5304 38.6H61.9184V42.44H60.5984V43.676H61.9184ZM63.6344 40.112H65.3024C66.1784 40.112 66.7184 40.52 66.7184 41.276C66.7184 42.008 66.1784 42.44 65.3024 42.44H63.6344V40.112Z" fill="white"/>
<path d="M37 59L30 52H73L37 59Z" fill="#710167"/>
<path d="M19.0594 28.3878V33.1895H0.938252C1.13449 31.3743 1.7232 29.6572 2.70437 28.0383C3.68555 26.4071 5.62338 24.2485 8.51786 21.5625C10.8482 19.3916 12.277 17.9199 12.8044 17.1472C13.5157 16.0801 13.8714 15.0254 13.8714 13.9829C13.8714 12.83 13.5587 11.9469 12.9332 11.3337C12.3199 10.7082 11.4675 10.3954 10.376 10.3954C9.29667 10.3954 8.43814 10.7205 7.80037 11.3705C7.16261 12.0205 6.79466 13.0998 6.69655 14.6084L1.54536 14.0933C1.85198 11.2478 2.81476 9.20576 4.4337 7.96702C6.05265 6.72829 8.07633 6.10892 10.5047 6.10892C13.1662 6.10892 15.2573 6.8264 16.7782 8.26138C18.299 9.69635 19.0594 11.4809 19.0594 13.6149C19.0594 14.8291 18.8386 15.9882 18.3971 17.092C17.9678 18.1835 17.281 19.3303 16.3366 20.5322C15.7111 21.3295 14.5828 22.4762 12.9516 23.9725C11.3204 25.4688 10.284 26.4622 9.84245 26.9528C9.41318 27.4434 9.06364 27.9217 8.79382 28.3878H19.0594Z" fill="#900583"/>
<defs>
<clipPath id="clip0">
<rect width="50.4087" height="34.4059" fill="white" transform="translate(6)"/>
</clipPath>
</defs>
</svg>
