<svg width="67" height="51" viewBox="0 0 67 51" fill="none" xmlns="http://www.w3.org/2000/svg">
<g clip-path="url(#clip0)">
<path d="M55.8061 8.52179V6.64146C55.8061 5.84133 55.166 5.16121 54.3259 5.16121H52.3255C53.1257 5.16121 53.8058 4.5211 53.8058 3.68095V1.88064C53.8058 1.08051 53.1657 0.400391 52.3255 0.400391H8.07791C7.27777 0.400391 6.59766 1.0405 6.59766 1.88064V3.76097C6.59766 4.56111 7.23777 5.24122 8.07791 5.24122H10.0783C9.27812 5.24122 8.598 5.88133 8.598 6.72148V8.6018C8.598 9.40194 9.23811 10.0821 10.0783 10.0821H8.07791C7.27777 10.0821 6.59766 10.7222 6.59766 11.5623V13.4426C6.59766 14.2428 7.23777 14.9229 8.07791 14.9229H10.0783C9.27812 14.9229 8.598 15.563 8.598 16.4031V18.2835C8.598 19.0836 9.23811 19.7637 10.0783 19.7637H8.07791C7.27777 19.7637 6.59766 20.4038 6.59766 21.244V23.1243C6.59766 23.9244 7.23777 24.6046 8.07791 24.6046H10.0783C9.27812 24.6046 8.598 25.2447 8.598 26.0848V27.9651C8.598 28.7653 9.23811 29.4454 10.0783 29.4454H8.07791C7.27777 29.4454 6.59766 30.0855 6.59766 30.9256V32.806C6.59766 33.6061 7.23777 34.2862 8.07791 34.2862H52.3655C53.1657 34.2862 53.8458 33.6461 53.8458 32.806V30.9256C53.8458 30.1255 53.2057 29.4454 52.3655 29.4454H54.3659C55.166 29.4454 55.8461 28.8053 55.8461 27.9651V26.0848C55.8461 25.2847 55.206 24.6046 54.3659 24.6046H52.3655C53.1657 24.6046 53.8458 23.9644 53.8458 23.1243V21.244C53.8458 20.4438 53.2057 19.7637 52.3655 19.7637H54.3659C55.166 19.7637 55.8461 19.1236 55.8461 18.2835V16.4031C55.8461 15.603 55.206 14.9229 54.3659 14.9229H52.3655C53.1657 14.9229 53.8458 14.2828 53.8458 13.4426V11.5623C53.8458 10.7622 53.2057 10.0821 52.3655 10.0821H54.3659C55.166 10.002 55.8061 9.36193 55.8061 8.52179Z" fill="white"/>
<path d="M54.486 10.002H10.2759C9.47642 10.002 8.79688 9.36718 8.79688 8.53398V6.66919C8.79688 5.87567 9.43644 5.20117 10.2759 5.20117H54.526C55.3255 5.20117 56.005 5.83599 56.005 6.66919V8.53398C55.965 9.36718 55.3255 10.002 54.486 10.002Z" stroke="#DDDDDD" stroke-width="0.382721" stroke-miterlimit="10"/>
<path d="M52.4899 5.20122H8.27978C7.48032 5.20122 6.80078 4.56111 6.80078 3.72096V1.88064C6.80078 1.08051 7.44035 0.400391 8.27978 0.400391H52.5299C53.3294 0.400391 54.0089 1.0405 54.0089 1.88064V3.76097C53.9689 4.56111 53.3294 5.20122 52.4899 5.20122Z" stroke="#DDDDDD" stroke-width="0.382721" stroke-miterlimit="10"/>
<path d="M54.486 19.6055H10.2759C9.47642 19.6055 8.79688 18.9707 8.79688 18.1375V16.2727C8.79688 15.4792 9.43644 14.8047 10.2759 14.8047H54.526C55.3255 14.8047 56.005 15.4395 56.005 16.2727V18.1375C55.965 18.9707 55.3255 19.6055 54.486 19.6055Z" stroke="#DDDDDD" stroke-width="0.382721" stroke-miterlimit="10"/>
<path d="M52.4899 14.8047H8.27978C7.48032 14.8047 6.80078 14.1699 6.80078 13.3367V11.4719C6.80078 10.6784 7.44035 10.0039 8.27978 10.0039H52.5299C53.3294 10.0039 54.0089 10.6387 54.0089 11.4719V13.3367C53.9689 14.1699 53.3294 14.8047 52.4899 14.8047Z" stroke="#DDDDDD" stroke-width="0.382721" stroke-miterlimit="10"/>
<path d="M52.4899 34.0059H8.27978C7.48032 34.0059 6.80078 33.3711 6.80078 32.5379V30.6731C6.80078 29.8796 7.44035 29.2051 8.27978 29.2051H52.5299C53.3294 29.2051 54.0089 29.8399 54.0089 30.6731V32.5379C53.9689 33.3711 53.3294 34.0059 52.4899 34.0059Z" stroke="#DDDDDD" stroke-width="0.382721" stroke-miterlimit="10"/>
<path d="M54.486 29.2051H10.2759C9.47642 29.2051 8.79688 28.5703 8.79688 27.7371V25.8723C8.79688 25.0788 9.43644 24.4043 10.2759 24.4043H54.526C55.3255 24.4043 56.005 25.0391 56.005 25.8723V27.7371C55.965 28.5703 55.3255 29.2051 54.486 29.2051Z" stroke="#DDDDDD" stroke-width="0.382721" stroke-miterlimit="10"/>
<path d="M52.4899 24.4043H8.27978C7.48032 24.4043 6.80078 23.7695 6.80078 22.9363V21.0715C6.80078 20.278 7.44035 19.6035 8.27978 19.6035H52.5299C53.3294 19.6035 54.0089 20.2383 54.0089 21.0715V22.9363C53.9689 23.7695 53.3294 24.4043 52.4899 24.4043Z" stroke="#DDDDDD" stroke-width="0.382721" stroke-miterlimit="10"/>
<path d="M6.72266 1.20117H53.6907" stroke="#DDDDDD" stroke-width="0.191361" stroke-miterlimit="10"/>
<path d="M6.72266 4.40234H53.6907" stroke="#DDDDDD" stroke-width="0.191361" stroke-miterlimit="10"/>
<path d="M7.76562 1.20117V4.40172" stroke="#DDDDDD" stroke-width="0.191361" stroke-miterlimit="10"/>
<path d="M9.36719 1.20117V4.40172" stroke="#DDDDDD" stroke-width="0.191361" stroke-miterlimit="10"/>
<path d="M10.9648 1.20117V4.40172" stroke="#DDDDDD" stroke-width="0.191361" stroke-miterlimit="10"/>
<path d="M12.5664 1.20117V4.40172" stroke="#DDDDDD" stroke-width="0.191361" stroke-miterlimit="10"/>
<path d="M14.168 1.20117V4.40172" stroke="#DDDDDD" stroke-width="0.191361" stroke-miterlimit="10"/>
<path d="M15.7695 1.20117V4.40172" stroke="#DDDDDD" stroke-width="0.191361" stroke-miterlimit="10"/>
<path d="M17.3672 1.20117V4.40172" stroke="#DDDDDD" stroke-width="0.191361" stroke-miterlimit="10"/>
<path d="M18.9688 1.20117V4.40172" stroke="#DDDDDD" stroke-width="0.191361" stroke-miterlimit="10"/>
<path d="M20.5664 1.20117V4.40172" stroke="#DDDDDD" stroke-width="0.191361" stroke-miterlimit="10"/>
<path d="M22.1719 1.20117V4.40172" stroke="#DDDDDD" stroke-width="0.191361" stroke-miterlimit="10"/>
<path d="M23.7695 1.20117V4.40172" stroke="#DDDDDD" stroke-width="0.191361" stroke-miterlimit="10"/>
<path d="M25.3672 1.20117V4.40172" stroke="#DDDDDD" stroke-width="0.191361" stroke-miterlimit="10"/>
<path d="M26.9688 1.20117V4.40172" stroke="#DDDDDD" stroke-width="0.191361" stroke-miterlimit="10"/>
<path d="M28.5664 1.20117V4.40172" stroke="#DDDDDD" stroke-width="0.191361" stroke-miterlimit="10"/>
<path d="M30.1719 1.20117V4.40172" stroke="#DDDDDD" stroke-width="0.191361" stroke-miterlimit="10"/>
<path d="M31.7695 1.20117V4.40172" stroke="#DDDDDD" stroke-width="0.191361" stroke-miterlimit="10"/>
<path d="M33.3711 1.20117V4.40172" stroke="#DDDDDD" stroke-width="0.191361" stroke-miterlimit="10"/>
<path d="M34.9688 1.20117V4.40172" stroke="#DDDDDD" stroke-width="0.191361" stroke-miterlimit="10"/>
<path d="M36.5703 1.20117V4.40172" stroke="#DDDDDD" stroke-width="0.191361" stroke-miterlimit="10"/>
<path d="M38.1719 1.20117V4.40172" stroke="#DDDDDD" stroke-width="0.191361" stroke-miterlimit="10"/>
<path d="M39.7734 1.20117V4.40172" stroke="#DDDDDD" stroke-width="0.191361" stroke-miterlimit="10"/>
<path d="M41.3711 1.20117V4.40172" stroke="#DDDDDD" stroke-width="0.191361" stroke-miterlimit="10"/>
<path d="M42.9727 1.20117V4.40172" stroke="#DDDDDD" stroke-width="0.191361" stroke-miterlimit="10"/>
<path d="M44.5703 1.20117V4.40172" stroke="#DDDDDD" stroke-width="0.191361" stroke-miterlimit="10"/>
<path d="M46.1758 1.20117V4.40172" stroke="#DDDDDD" stroke-width="0.191361" stroke-miterlimit="10"/>
<path d="M47.7734 1.20117V4.40172" stroke="#DDDDDD" stroke-width="0.191361" stroke-miterlimit="10"/>
<path d="M49.375 1.20117V4.40172" stroke="#DDDDDD" stroke-width="0.191361" stroke-miterlimit="10"/>
<path d="M50.9727 1.20117V4.40172" stroke="#DDDDDD" stroke-width="0.191361" stroke-miterlimit="10"/>
<path d="M52.5742 1.20117V4.40172" stroke="#DDDDDD" stroke-width="0.191361" stroke-miterlimit="10"/>
<path d="M8.72266 6.00195H55.6907" stroke="#DDDDDD" stroke-width="0.191361" stroke-miterlimit="10"/>
<path d="M8.72266 9.20312H55.6907" stroke="#DDDDDD" stroke-width="0.191361" stroke-miterlimit="10"/>
<path d="M9.76172 6.00195V9.2025" stroke="#DDDDDD" stroke-width="0.191361" stroke-miterlimit="10"/>
<path d="M11.3594 6.00195V9.2025" stroke="#DDDDDD" stroke-width="0.191361" stroke-miterlimit="10"/>
<path d="M12.9609 6.00195V9.2025" stroke="#DDDDDD" stroke-width="0.191361" stroke-miterlimit="10"/>
<path d="M14.5586 6.00195V9.2025" stroke="#DDDDDD" stroke-width="0.191361" stroke-miterlimit="10"/>
<path d="M16.1641 6.00195V9.2025" stroke="#DDDDDD" stroke-width="0.191361" stroke-miterlimit="10"/>
<path d="M17.7617 6.00195V9.2025" stroke="#DDDDDD" stroke-width="0.191361" stroke-miterlimit="10"/>
<path d="M19.3633 6.00195V9.2025" stroke="#DDDDDD" stroke-width="0.191361" stroke-miterlimit="10"/>
<path d="M20.9609 6.00195V9.2025" stroke="#DDDDDD" stroke-width="0.191361" stroke-miterlimit="10"/>
<path d="M22.5625 6.00195V9.2025" stroke="#DDDDDD" stroke-width="0.191361" stroke-miterlimit="10"/>
<path d="M24.1641 6.00195V9.2025" stroke="#DDDDDD" stroke-width="0.191361" stroke-miterlimit="10"/>
<path d="M25.7656 6.00195V9.2025" stroke="#DDDDDD" stroke-width="0.191361" stroke-miterlimit="10"/>
<path d="M27.3633 6.00195V9.2025" stroke="#DDDDDD" stroke-width="0.191361" stroke-miterlimit="10"/>
<path d="M28.9648 6.00195V9.2025" stroke="#DDDDDD" stroke-width="0.191361" stroke-miterlimit="10"/>
<path d="M30.5625 6.00195V9.2025" stroke="#DDDDDD" stroke-width="0.191361" stroke-miterlimit="10"/>
<path d="M32.168 6.00195V9.2025" stroke="#DDDDDD" stroke-width="0.191361" stroke-miterlimit="10"/>
<path d="M33.7656 6.00195V9.2025" stroke="#DDDDDD" stroke-width="0.191361" stroke-miterlimit="10"/>
<path d="M35.3672 6.00195V9.2025" stroke="#DDDDDD" stroke-width="0.191361" stroke-miterlimit="10"/>
<path d="M36.9648 6.00195V9.2025" stroke="#DDDDDD" stroke-width="0.191361" stroke-miterlimit="10"/>
<path d="M38.5664 6.00195V9.2025" stroke="#DDDDDD" stroke-width="0.191361" stroke-miterlimit="10"/>
<path d="M40.168 6.00195V9.2025" stroke="#DDDDDD" stroke-width="0.191361" stroke-miterlimit="10"/>
<path d="M41.7695 6.00195V9.2025" stroke="#DDDDDD" stroke-width="0.191361" stroke-miterlimit="10"/>
<path d="M43.3672 6.00195V9.2025" stroke="#DDDDDD" stroke-width="0.191361" stroke-miterlimit="10"/>
<path d="M44.9688 6.00195V9.2025" stroke="#DDDDDD" stroke-width="0.191361" stroke-miterlimit="10"/>
<path d="M46.5664 6.00195V9.2025" stroke="#DDDDDD" stroke-width="0.191361" stroke-miterlimit="10"/>
<path d="M48.168 6.00195V9.2025" stroke="#DDDDDD" stroke-width="0.191361" stroke-miterlimit="10"/>
<path d="M49.7695 6.00195V9.2025" stroke="#DDDDDD" stroke-width="0.191361" stroke-miterlimit="10"/>
<path d="M51.3672 6.00195V9.2025" stroke="#DDDDDD" stroke-width="0.191361" stroke-miterlimit="10"/>
<path d="M52.9688 6.00195V9.2025" stroke="#DDDDDD" stroke-width="0.191361" stroke-miterlimit="10"/>
<path d="M54.5664 6.00195V9.2025" stroke="#DDDDDD" stroke-width="0.191361" stroke-miterlimit="10"/>
<path d="M6.72266 10.8027H53.6907" stroke="#DDDDDD" stroke-width="0.191361" stroke-miterlimit="10"/>
<path d="M6.72266 14.0039H53.6907" stroke="#DDDDDD" stroke-width="0.191361" stroke-miterlimit="10"/>
<path d="M7.76562 10.8027V14.0033" stroke="#DDDDDD" stroke-width="0.191361" stroke-miterlimit="10"/>
<path d="M9.36719 10.8027V14.0033" stroke="#DDDDDD" stroke-width="0.191361" stroke-miterlimit="10"/>
<path d="M10.9648 10.8027V14.0033" stroke="#DDDDDD" stroke-width="0.191361" stroke-miterlimit="10"/>
<path d="M12.5664 10.8027V14.0033" stroke="#DDDDDD" stroke-width="0.191361" stroke-miterlimit="10"/>
<path d="M14.168 10.8027V14.0033" stroke="#DDDDDD" stroke-width="0.191361" stroke-miterlimit="10"/>
<path d="M15.7695 10.8027V14.0033" stroke="#DDDDDD" stroke-width="0.191361" stroke-miterlimit="10"/>
<path d="M17.3672 10.8027V14.0033" stroke="#DDDDDD" stroke-width="0.191361" stroke-miterlimit="10"/>
<path d="M18.9688 10.8027V14.0033" stroke="#DDDDDD" stroke-width="0.191361" stroke-miterlimit="10"/>
<path d="M20.5664 10.8027V14.0033" stroke="#DDDDDD" stroke-width="0.191361" stroke-miterlimit="10"/>
<path d="M22.1719 10.8027V14.0033" stroke="#DDDDDD" stroke-width="0.191361" stroke-miterlimit="10"/>
<path d="M23.7695 10.8027V14.0033" stroke="#DDDDDD" stroke-width="0.191361" stroke-miterlimit="10"/>
<path d="M25.3672 10.8027V14.0033" stroke="#DDDDDD" stroke-width="0.191361" stroke-miterlimit="10"/>
<path d="M26.9688 10.8027V14.0033" stroke="#DDDDDD" stroke-width="0.191361" stroke-miterlimit="10"/>
<path d="M28.5664 10.8027V14.0033" stroke="#DDDDDD" stroke-width="0.191361" stroke-miterlimit="10"/>
<path d="M30.1719 10.8027V14.0033" stroke="#DDDDDD" stroke-width="0.191361" stroke-miterlimit="10"/>
<path d="M31.7695 10.8027V14.0033" stroke="#DDDDDD" stroke-width="0.191361" stroke-miterlimit="10"/>
<path d="M33.3711 10.8027V14.0033" stroke="#DDDDDD" stroke-width="0.191361" stroke-miterlimit="10"/>
<path d="M34.9688 10.8027V14.0033" stroke="#DDDDDD" stroke-width="0.191361" stroke-miterlimit="10"/>
<path d="M36.5703 10.8027V14.0033" stroke="#DDDDDD" stroke-width="0.191361" stroke-miterlimit="10"/>
<path d="M38.1719 10.8027V14.0033" stroke="#DDDDDD" stroke-width="0.191361" stroke-miterlimit="10"/>
<path d="M39.7734 10.8027V14.0033" stroke="#DDDDDD" stroke-width="0.191361" stroke-miterlimit="10"/>
<path d="M41.3711 10.8027V14.0033" stroke="#DDDDDD" stroke-width="0.191361" stroke-miterlimit="10"/>
<path d="M42.9727 10.8027V14.0033" stroke="#DDDDDD" stroke-width="0.191361" stroke-miterlimit="10"/>
<path d="M44.5703 10.8027V14.0033" stroke="#DDDDDD" stroke-width="0.191361" stroke-miterlimit="10"/>
<path d="M46.1758 10.8027V14.0033" stroke="#DDDDDD" stroke-width="0.191361" stroke-miterlimit="10"/>
<path d="M47.7734 10.8027V14.0033" stroke="#DDDDDD" stroke-width="0.191361" stroke-miterlimit="10"/>
<path d="M49.375 10.8027V14.0033" stroke="#DDDDDD" stroke-width="0.191361" stroke-miterlimit="10"/>
<path d="M50.9727 10.8027V14.0033" stroke="#DDDDDD" stroke-width="0.191361" stroke-miterlimit="10"/>
<path d="M52.5742 10.8027V14.0033" stroke="#DDDDDD" stroke-width="0.191361" stroke-miterlimit="10"/>
<path d="M6.72266 20.4043H53.6907" stroke="#DDDDDD" stroke-width="0.191361" stroke-miterlimit="10"/>
<path d="M6.72266 23.6055H53.6907" stroke="#DDDDDD" stroke-width="0.191361" stroke-miterlimit="10"/>
<path d="M7.76562 20.4043V23.6048" stroke="#DDDDDD" stroke-width="0.191361" stroke-miterlimit="10"/>
<path d="M9.36719 20.4043V23.6048" stroke="#DDDDDD" stroke-width="0.191361" stroke-miterlimit="10"/>
<path d="M10.9648 20.4043V23.6048" stroke="#DDDDDD" stroke-width="0.191361" stroke-miterlimit="10"/>
<path d="M12.5664 20.4043V23.6048" stroke="#DDDDDD" stroke-width="0.191361" stroke-miterlimit="10"/>
<path d="M14.168 20.4043V23.6048" stroke="#DDDDDD" stroke-width="0.191361" stroke-miterlimit="10"/>
<path d="M15.7695 20.4043V23.6048" stroke="#DDDDDD" stroke-width="0.191361" stroke-miterlimit="10"/>
<path d="M17.3672 20.4043V23.6048" stroke="#DDDDDD" stroke-width="0.191361" stroke-miterlimit="10"/>
<path d="M18.9688 20.4043V23.6048" stroke="#DDDDDD" stroke-width="0.191361" stroke-miterlimit="10"/>
<path d="M20.5664 20.4043V23.6048" stroke="#DDDDDD" stroke-width="0.191361" stroke-miterlimit="10"/>
<path d="M22.1719 20.4043V23.6048" stroke="#DDDDDD" stroke-width="0.191361" stroke-miterlimit="10"/>
<path d="M23.7695 20.4043V23.6048" stroke="#DDDDDD" stroke-width="0.191361" stroke-miterlimit="10"/>
<path d="M25.3672 20.4043V23.6048" stroke="#DDDDDD" stroke-width="0.191361" stroke-miterlimit="10"/>
<path d="M26.9688 20.4043V23.6048" stroke="#DDDDDD" stroke-width="0.191361" stroke-miterlimit="10"/>
<path d="M28.5664 20.4043V23.6048" stroke="#DDDDDD" stroke-width="0.191361" stroke-miterlimit="10"/>
<path d="M30.1719 20.4043V23.6048" stroke="#DDDDDD" stroke-width="0.191361" stroke-miterlimit="10"/>
<path d="M31.7695 20.4043V23.6048" stroke="#DDDDDD" stroke-width="0.191361" stroke-miterlimit="10"/>
<path d="M33.3711 20.4043V23.6048" stroke="#DDDDDD" stroke-width="0.191361" stroke-miterlimit="10"/>
<path d="M34.9688 20.4043V23.6048" stroke="#DDDDDD" stroke-width="0.191361" stroke-miterlimit="10"/>
<path d="M36.5703 20.4043V23.6048" stroke="#DDDDDD" stroke-width="0.191361" stroke-miterlimit="10"/>
<path d="M38.1719 20.4043V23.6048" stroke="#DDDDDD" stroke-width="0.191361" stroke-miterlimit="10"/>
<path d="M39.7734 20.4043V23.6048" stroke="#DDDDDD" stroke-width="0.191361" stroke-miterlimit="10"/>
<path d="M41.3711 20.4043V23.6048" stroke="#DDDDDD" stroke-width="0.191361" stroke-miterlimit="10"/>
<path d="M42.9727 20.4043V23.6048" stroke="#DDDDDD" stroke-width="0.191361" stroke-miterlimit="10"/>
<path d="M44.5703 20.4043V23.6048" stroke="#DDDDDD" stroke-width="0.191361" stroke-miterlimit="10"/>
<path d="M46.1758 20.4043V23.6048" stroke="#DDDDDD" stroke-width="0.191361" stroke-miterlimit="10"/>
<path d="M47.7734 20.4043V23.6048" stroke="#DDDDDD" stroke-width="0.191361" stroke-miterlimit="10"/>
<path d="M49.375 20.4043V23.6048" stroke="#DDDDDD" stroke-width="0.191361" stroke-miterlimit="10"/>
<path d="M50.9727 20.4043V23.6048" stroke="#DDDDDD" stroke-width="0.191361" stroke-miterlimit="10"/>
<path d="M52.5742 20.4043V23.6048" stroke="#DDDDDD" stroke-width="0.191361" stroke-miterlimit="10"/>
<path d="M8.72266 25.2051H55.6907" stroke="#DDDDDD" stroke-width="0.191361" stroke-miterlimit="10"/>
<path d="M8.72266 28.4043H55.6907" stroke="#DDDDDD" stroke-width="0.191361" stroke-miterlimit="10"/>
<path d="M9.76172 25.2031V28.4037" stroke="#DDDDDD" stroke-width="0.191361" stroke-miterlimit="10"/>
<path d="M11.3594 25.2031V28.4037" stroke="#DDDDDD" stroke-width="0.191361" stroke-miterlimit="10"/>
<path d="M12.9609 25.2031V28.4037" stroke="#DDDDDD" stroke-width="0.191361" stroke-miterlimit="10"/>
<path d="M14.5586 25.2031V28.4037" stroke="#DDDDDD" stroke-width="0.191361" stroke-miterlimit="10"/>
<path d="M16.1641 25.2031V28.4037" stroke="#DDDDDD" stroke-width="0.191361" stroke-miterlimit="10"/>
<path d="M17.7617 25.2031V28.4037" stroke="#DDDDDD" stroke-width="0.191361" stroke-miterlimit="10"/>
<path d="M19.3633 25.2031V28.4037" stroke="#DDDDDD" stroke-width="0.191361" stroke-miterlimit="10"/>
<path d="M20.9609 25.2031V28.4037" stroke="#DDDDDD" stroke-width="0.191361" stroke-miterlimit="10"/>
<path d="M22.5625 25.2031V28.4037" stroke="#DDDDDD" stroke-width="0.191361" stroke-miterlimit="10"/>
<path d="M24.1641 25.2031V28.4037" stroke="#DDDDDD" stroke-width="0.191361" stroke-miterlimit="10"/>
<path d="M25.7656 25.2031V28.4037" stroke="#DDDDDD" stroke-width="0.191361" stroke-miterlimit="10"/>
<path d="M27.3633 25.2031V28.4037" stroke="#DDDDDD" stroke-width="0.191361" stroke-miterlimit="10"/>
<path d="M28.9648 25.2031V28.4037" stroke="#DDDDDD" stroke-width="0.191361" stroke-miterlimit="10"/>
<path d="M30.5625 25.2031V28.4037" stroke="#DDDDDD" stroke-width="0.191361" stroke-miterlimit="10"/>
<path d="M32.168 25.2031V28.4037" stroke="#DDDDDD" stroke-width="0.191361" stroke-miterlimit="10"/>
<path d="M33.7656 25.2031V28.4037" stroke="#DDDDDD" stroke-width="0.191361" stroke-miterlimit="10"/>
<path d="M35.3672 25.2031V28.4037" stroke="#DDDDDD" stroke-width="0.191361" stroke-miterlimit="10"/>
<path d="M36.9648 25.2031V28.4037" stroke="#DDDDDD" stroke-width="0.191361" stroke-miterlimit="10"/>
<path d="M38.5664 25.2031V28.4037" stroke="#DDDDDD" stroke-width="0.191361" stroke-miterlimit="10"/>
<path d="M40.168 25.2031V28.4037" stroke="#DDDDDD" stroke-width="0.191361" stroke-miterlimit="10"/>
<path d="M41.7695 25.2031V28.4037" stroke="#DDDDDD" stroke-width="0.191361" stroke-miterlimit="10"/>
<path d="M43.3672 25.2031V28.4037" stroke="#DDDDDD" stroke-width="0.191361" stroke-miterlimit="10"/>
<path d="M44.9688 25.2031V28.4037" stroke="#DDDDDD" stroke-width="0.191361" stroke-miterlimit="10"/>
<path d="M46.5664 25.2031V28.4037" stroke="#DDDDDD" stroke-width="0.191361" stroke-miterlimit="10"/>
<path d="M48.168 25.2031V28.4037" stroke="#DDDDDD" stroke-width="0.191361" stroke-miterlimit="10"/>
<path d="M49.7695 25.2031V28.4037" stroke="#DDDDDD" stroke-width="0.191361" stroke-miterlimit="10"/>
<path d="M51.3672 25.2031V28.4037" stroke="#DDDDDD" stroke-width="0.191361" stroke-miterlimit="10"/>
<path d="M52.9688 25.2031V28.4037" stroke="#DDDDDD" stroke-width="0.191361" stroke-miterlimit="10"/>
<path d="M54.5664 25.2031V28.4037" stroke="#DDDDDD" stroke-width="0.191361" stroke-miterlimit="10"/>
<path d="M6.72266 30.0059H53.6907" stroke="#DDDDDD" stroke-width="0.191361" stroke-miterlimit="10"/>
<path d="M6.72266 33.207H53.6907" stroke="#DDDDDD" stroke-width="0.191361" stroke-miterlimit="10"/>
<path d="M7.76562 30.0059V33.2064" stroke="#DDDDDD" stroke-width="0.191361" stroke-miterlimit="10"/>
<path d="M9.36719 30.0059V33.2064" stroke="#DDDDDD" stroke-width="0.191361" stroke-miterlimit="10"/>
<path d="M10.9648 30.0059V33.2064" stroke="#DDDDDD" stroke-width="0.191361" stroke-miterlimit="10"/>
<path d="M12.5664 30.0059V33.2064" stroke="#DDDDDD" stroke-width="0.191361" stroke-miterlimit="10"/>
<path d="M14.168 30.0059V33.2064" stroke="#DDDDDD" stroke-width="0.191361" stroke-miterlimit="10"/>
<path d="M15.7695 30.0059V33.2064" stroke="#DDDDDD" stroke-width="0.191361" stroke-miterlimit="10"/>
<path d="M17.3672 30.0059V33.2064" stroke="#DDDDDD" stroke-width="0.191361" stroke-miterlimit="10"/>
<path d="M18.9688 30.0059V33.2064" stroke="#DDDDDD" stroke-width="0.191361" stroke-miterlimit="10"/>
<path d="M20.5664 30.0059V33.2064" stroke="#DDDDDD" stroke-width="0.191361" stroke-miterlimit="10"/>
<path d="M22.1719 30.0059V33.2064" stroke="#DDDDDD" stroke-width="0.191361" stroke-miterlimit="10"/>
<path d="M23.7695 30.0059V33.2064" stroke="#DDDDDD" stroke-width="0.191361" stroke-miterlimit="10"/>
<path d="M25.3672 30.0059V33.2064" stroke="#DDDDDD" stroke-width="0.191361" stroke-miterlimit="10"/>
<path d="M26.9688 30.0059V33.2064" stroke="#DDDDDD" stroke-width="0.191361" stroke-miterlimit="10"/>
<path d="M28.5664 30.0059V33.2064" stroke="#DDDDDD" stroke-width="0.191361" stroke-miterlimit="10"/>
<path d="M30.1719 30.0059V33.2064" stroke="#DDDDDD" stroke-width="0.191361" stroke-miterlimit="10"/>
<path d="M31.7695 30.0059V33.2064" stroke="#DDDDDD" stroke-width="0.191361" stroke-miterlimit="10"/>
<path d="M33.3711 30.0059V33.2064" stroke="#DDDDDD" stroke-width="0.191361" stroke-miterlimit="10"/>
<path d="M34.9688 30.0059V33.2064" stroke="#DDDDDD" stroke-width="0.191361" stroke-miterlimit="10"/>
<path d="M36.5703 30.0059V33.2064" stroke="#DDDDDD" stroke-width="0.191361" stroke-miterlimit="10"/>
<path d="M38.1719 30.0059V33.2064" stroke="#DDDDDD" stroke-width="0.191361" stroke-miterlimit="10"/>
<path d="M39.7734 30.0059V33.2064" stroke="#DDDDDD" stroke-width="0.191361" stroke-miterlimit="10"/>
<path d="M41.3711 30.0059V33.2064" stroke="#DDDDDD" stroke-width="0.191361" stroke-miterlimit="10"/>
<path d="M42.9727 30.0059V33.2064" stroke="#DDDDDD" stroke-width="0.191361" stroke-miterlimit="10"/>
<path d="M44.5703 30.0059V33.2064" stroke="#DDDDDD" stroke-width="0.191361" stroke-miterlimit="10"/>
<path d="M46.1758 30.0059V33.2064" stroke="#DDDDDD" stroke-width="0.191361" stroke-miterlimit="10"/>
<path d="M47.7734 30.0059V33.2064" stroke="#DDDDDD" stroke-width="0.191361" stroke-miterlimit="10"/>
<path d="M49.375 30.0059V33.2064" stroke="#DDDDDD" stroke-width="0.191361" stroke-miterlimit="10"/>
<path d="M50.9727 30.0059V33.2064" stroke="#DDDDDD" stroke-width="0.191361" stroke-miterlimit="10"/>
<path d="M52.5742 30.0059V33.2064" stroke="#DDDDDD" stroke-width="0.191361" stroke-miterlimit="10"/>
<path d="M8.72266 15.6035H55.6907" stroke="#DDDDDD" stroke-width="0.191361" stroke-miterlimit="10"/>
<path d="M8.72266 18.8047H55.6907" stroke="#DDDDDD" stroke-width="0.191361" stroke-miterlimit="10"/>
<path d="M9.76172 15.6035V18.8041" stroke="#DDDDDD" stroke-width="0.191361" stroke-miterlimit="10"/>
<path d="M11.3594 15.6035V18.8041" stroke="#DDDDDD" stroke-width="0.191361" stroke-miterlimit="10"/>
<path d="M12.9609 15.6035V18.8041" stroke="#DDDDDD" stroke-width="0.191361" stroke-miterlimit="10"/>
<path d="M14.5586 15.6035V18.8041" stroke="#DDDDDD" stroke-width="0.191361" stroke-miterlimit="10"/>
<path d="M16.1641 15.6035V18.8041" stroke="#DDDDDD" stroke-width="0.191361" stroke-miterlimit="10"/>
<path d="M17.7617 15.6035V18.8041" stroke="#DDDDDD" stroke-width="0.191361" stroke-miterlimit="10"/>
<path d="M19.3633 15.6035V18.8041" stroke="#DDDDDD" stroke-width="0.191361" stroke-miterlimit="10"/>
<path d="M20.9609 15.6035V18.8041" stroke="#DDDDDD" stroke-width="0.191361" stroke-miterlimit="10"/>
<path d="M22.5625 15.6035V18.8041" stroke="#DDDDDD" stroke-width="0.191361" stroke-miterlimit="10"/>
<path d="M24.1641 15.6035V18.8041" stroke="#DDDDDD" stroke-width="0.191361" stroke-miterlimit="10"/>
<path d="M25.7656 15.6035V18.8041" stroke="#DDDDDD" stroke-width="0.191361" stroke-miterlimit="10"/>
<path d="M27.3633 15.6035V18.8041" stroke="#DDDDDD" stroke-width="0.191361" stroke-miterlimit="10"/>
<path d="M28.9648 15.6035V18.8041" stroke="#DDDDDD" stroke-width="0.191361" stroke-miterlimit="10"/>
<path d="M30.5625 15.6035V18.8041" stroke="#DDDDDD" stroke-width="0.191361" stroke-miterlimit="10"/>
<path d="M32.168 15.6035V18.8041" stroke="#DDDDDD" stroke-width="0.191361" stroke-miterlimit="10"/>
<path d="M33.7656 15.6035V18.8041" stroke="#DDDDDD" stroke-width="0.191361" stroke-miterlimit="10"/>
<path d="M35.3672 15.6035V18.8041" stroke="#DDDDDD" stroke-width="0.191361" stroke-miterlimit="10"/>
<path d="M36.9648 15.6035V18.8041" stroke="#DDDDDD" stroke-width="0.191361" stroke-miterlimit="10"/>
<path d="M38.5664 15.6035V18.8041" stroke="#DDDDDD" stroke-width="0.191361" stroke-miterlimit="10"/>
<path d="M40.168 15.6035V18.8041" stroke="#DDDDDD" stroke-width="0.191361" stroke-miterlimit="10"/>
<path d="M41.7695 15.6035V18.8041" stroke="#DDDDDD" stroke-width="0.191361" stroke-miterlimit="10"/>
<path d="M43.3672 15.6035V18.8041" stroke="#DDDDDD" stroke-width="0.191361" stroke-miterlimit="10"/>
<path d="M44.9688 15.6035V18.8041" stroke="#DDDDDD" stroke-width="0.191361" stroke-miterlimit="10"/>
<path d="M46.5664 15.6035V18.8041" stroke="#DDDDDD" stroke-width="0.191361" stroke-miterlimit="10"/>
<path d="M48.168 15.6035V18.8041" stroke="#DDDDDD" stroke-width="0.191361" stroke-miterlimit="10"/>
<path d="M49.7695 15.6035V18.8041" stroke="#DDDDDD" stroke-width="0.191361" stroke-miterlimit="10"/>
<path d="M51.3672 15.6035V18.8041" stroke="#DDDDDD" stroke-width="0.191361" stroke-miterlimit="10"/>
<path d="M52.9688 15.6035V18.8041" stroke="#DDDDDD" stroke-width="0.191361" stroke-miterlimit="10"/>
<path d="M54.5664 15.6035V18.8041" stroke="#DDDDDD" stroke-width="0.191361" stroke-miterlimit="10"/>
<path d="M55.9693 8.37532V6.51053C55.9693 5.71701 55.3297 5.04251 54.4902 5.04251H52.4915C53.291 5.04251 53.9705 4.40769 53.9705 3.57449V1.86841C53.9705 1.07489 53.331 0.400391 52.4915 0.400391H8.27983C7.48035 0.400391 6.80078 1.03521 6.80078 1.86841V3.73319C6.80078 4.52672 7.44037 5.20122 8.27983 5.20122H10.2786C9.47906 5.20122 8.7995 5.83604 8.7995 6.66924V8.53402C8.7995 9.32754 9.43909 10.002 10.2786 10.002H8.27983C7.48035 10.002 6.80078 10.6369 6.80078 11.4701V13.3348C6.80078 14.1284 7.44037 14.8029 8.27983 14.8029H10.2786C9.47906 14.8029 8.7995 15.4377 8.7995 16.2709V18.1357C8.7995 18.9292 9.43909 19.6037 10.2786 19.6037H8.27983C7.48035 19.6037 6.80078 20.2385 6.80078 21.0717V22.9365C6.80078 23.73 7.44037 24.4045 8.27983 24.4045H10.2786C9.47906 24.4045 8.7995 25.0393 8.7995 25.8725V27.7373C8.7995 28.5308 9.43909 29.2053 10.2786 29.2053H8.27983C7.48035 29.2053 6.80078 29.8402 6.80078 30.6734V32.5381C6.80078 33.3317 7.44037 34.0062 8.27983 34.0062H52.5315C53.331 34.0062 54.0105 33.3713 54.0105 32.5381V30.6734C54.0105 29.8798 53.3709 29.2053 52.5315 29.2053H54.5302C55.3297 29.2053 56.0092 28.5705 56.0092 27.7373V25.8725C56.0092 25.079 55.3696 24.4045 54.5302 24.4045H52.5315C53.331 24.4045 54.0105 23.7697 54.0105 22.9365V21.0717C54.0105 20.2782 53.3709 19.6037 52.5315 19.6037H54.5302C55.3297 19.6037 56.0092 18.9689 56.0092 18.1357V16.2709C56.0092 15.4774 55.3696 14.8029 54.5302 14.8029H52.5315C53.331 14.8029 54.0105 14.168 54.0105 13.3348V11.4701C54.0105 10.6765 53.3709 10.002 52.5315 10.002H54.5302C55.3297 9.84334 55.9693 9.20852 55.9693 8.37532Z" stroke="#808080" stroke-width="0.382721" stroke-miterlimit="10"/>
</g>
<path d="M34.9028 13.1325H37.7453L26.3348 34.2291H23.5192L34.9028 13.1325ZM18.1306 18.3191C18.1306 17.403 18.3282 16.5319 18.7233 15.7056C19.1275 14.8793 19.7382 14.2462 20.5555 13.8061C21.3817 13.357 22.3562 13.1325 23.4788 13.1325C25.1313 13.1325 26.4336 13.604 27.3856 14.547C28.3376 15.4901 28.8136 16.7474 28.8136 18.3191C28.8136 19.8998 28.3376 21.1616 27.3856 22.1046C26.4336 23.0476 25.1313 23.5192 23.4788 23.5192C22.3562 23.5192 21.3817 23.2991 20.5555 22.859C19.7382 22.41 19.1275 21.7723 18.7233 20.9461C18.3282 20.1198 18.1306 19.2442 18.1306 18.3191ZM21.9161 18.346C21.9161 19.4597 22.0957 20.268 22.455 20.7709C22.6885 21.1032 23.0298 21.2694 23.4788 21.2694C23.9279 21.2694 24.2647 21.1032 24.4892 20.7709C24.8484 20.268 25.0281 19.4597 25.0281 18.346C25.0281 17.2414 24.8484 16.4331 24.4892 15.9211C24.2647 15.5978 23.9279 15.4362 23.4788 15.4362C23.0298 15.4362 22.6885 15.5978 22.455 15.9211C22.0957 16.4241 21.9161 17.2324 21.9161 18.346ZM32.3701 29.0021C32.3701 28.0771 32.5677 27.2059 32.9629 26.3886C33.358 25.5624 33.9687 24.9247 34.795 24.4756C35.6213 24.0266 36.5912 23.8021 37.7049 23.8021C39.3664 23.8021 40.6731 24.2781 41.6251 25.2301C42.5771 26.1731 43.0531 27.4304 43.0531 29.0021C43.0531 30.5738 42.5771 31.8357 41.6251 32.7877C40.6731 33.7307 39.3664 34.2022 37.7049 34.2022C36.5912 34.2022 35.6213 33.9777 34.795 33.5286C33.9687 33.0795 33.358 32.4464 32.9629 31.6291C32.5677 30.8028 32.3701 29.9272 32.3701 29.0021ZM36.1556 29.0291C36.1556 30.1427 36.3353 30.951 36.6945 31.454C36.919 31.7773 37.2558 31.9389 37.7049 31.9389C38.1539 31.9389 38.4952 31.7773 38.7287 31.454C39.088 30.951 39.2676 30.1427 39.2676 29.0291C39.2676 27.9154 39.088 27.1026 38.7287 26.5907C38.4952 26.2674 38.1539 26.1057 37.7049 26.1057C37.2558 26.1057 36.919 26.2719 36.6945 26.6042C36.3353 27.1071 36.1556 27.9154 36.1556 29.0291Z" fill="#A0A0A0"/>
<rect x="1" y="33.1895" width="66" height="17" fill="#A0A0A0"/>
<path d="M7.07129 44.3789V42.9971L10.499 41.6494L7.07129 40.3164V38.9443L11.9834 41.0684V42.2402L7.07129 44.3789ZM19.166 45.1895H17.7939V40.0186C17.2926 40.4873 16.7018 40.834 16.0215 41.0586V39.8135C16.3796 39.6963 16.7686 39.4749 17.1885 39.1494C17.6084 38.8206 17.8965 38.4382 18.0527 38.002H19.166V45.1895ZM25.8555 43.915V45.1895H21.0459C21.098 44.7077 21.2542 44.252 21.5146 43.8223C21.7751 43.3893 22.2894 42.8164 23.0576 42.1035C23.6761 41.5273 24.0553 41.1367 24.1953 40.9316C24.3841 40.6484 24.4785 40.3685 24.4785 40.0918C24.4785 39.7858 24.3955 39.5514 24.2295 39.3887C24.0667 39.2227 23.8405 39.1396 23.5508 39.1396C23.2643 39.1396 23.0365 39.2259 22.8672 39.3984C22.6979 39.571 22.6003 39.8574 22.5742 40.2578L21.207 40.1211C21.2884 39.3659 21.5439 38.8239 21.9736 38.4951C22.4033 38.1663 22.9404 38.002 23.585 38.002C24.2913 38.002 24.8464 38.1924 25.25 38.5732C25.6536 38.9541 25.8555 39.4277 25.8555 39.9941C25.8555 40.3164 25.7969 40.624 25.6797 40.917C25.5658 41.2067 25.3835 41.5111 25.1328 41.8301C24.9668 42.0417 24.6673 42.346 24.2344 42.7432C23.8014 43.1403 23.5264 43.404 23.4092 43.5342C23.2952 43.6644 23.2025 43.7913 23.1309 43.915H25.8555ZM29.1074 38.002C29.8008 38.002 30.3428 38.2493 30.7334 38.7441C31.1989 39.3301 31.4316 40.3018 31.4316 41.6592C31.4316 43.0133 31.1973 43.9867 30.7285 44.5791C30.3411 45.0674 29.8008 45.3115 29.1074 45.3115C28.4108 45.3115 27.8493 45.0446 27.4229 44.5107C26.9964 43.9736 26.7832 43.0182 26.7832 41.6445C26.7832 40.2969 27.0176 39.3268 27.4863 38.7344C27.8737 38.2461 28.4141 38.002 29.1074 38.002ZM29.1074 39.1396C28.9414 39.1396 28.7933 39.1934 28.6631 39.3008C28.5329 39.4049 28.432 39.5938 28.3604 39.8672C28.266 40.222 28.2188 40.8193 28.2188 41.6592C28.2188 42.499 28.2611 43.0768 28.3457 43.3926C28.4303 43.7051 28.5361 43.9134 28.6631 44.0176C28.7933 44.1217 28.9414 44.1738 29.1074 44.1738C29.2734 44.1738 29.4215 44.1217 29.5518 44.0176C29.682 43.9102 29.7829 43.7197 29.8545 43.4463C29.9489 43.0947 29.9961 42.499 29.9961 41.6592C29.9961 40.8193 29.9538 40.2432 29.8691 39.9307C29.7845 39.6149 29.6771 39.4049 29.5469 39.3008C29.4199 39.1934 29.2734 39.1396 29.1074 39.1396ZM37.457 38.002C38.1504 38.002 38.6924 38.2493 39.083 38.7441C39.5485 39.3301 39.7812 40.3018 39.7812 41.6592C39.7812 43.0133 39.5469 43.9867 39.0781 44.5791C38.6908 45.0674 38.1504 45.3115 37.457 45.3115C36.7604 45.3115 36.1989 45.0446 35.7725 44.5107C35.346 43.9736 35.1328 43.0182 35.1328 41.6445C35.1328 40.2969 35.3672 39.3268 35.8359 38.7344C36.2233 38.2461 36.7637 38.002 37.457 38.002ZM37.457 39.1396C37.291 39.1396 37.1429 39.1934 37.0127 39.3008C36.8825 39.4049 36.7816 39.5938 36.71 39.8672C36.6156 40.222 36.5684 40.8193 36.5684 41.6592C36.5684 42.499 36.6107 43.0768 36.6953 43.3926C36.7799 43.7051 36.8857 43.9134 37.0127 44.0176C37.1429 44.1217 37.291 44.1738 37.457 44.1738C37.623 44.1738 37.7712 44.1217 37.9014 44.0176C38.0316 43.9102 38.1325 43.7197 38.2041 43.4463C38.2985 43.0947 38.3457 42.499 38.3457 41.6592C38.3457 40.8193 38.3034 40.2432 38.2188 39.9307C38.1341 39.6149 38.0267 39.4049 37.8965 39.3008C37.7695 39.1934 37.623 39.1396 37.457 39.1396ZM43.0234 38.002C43.7168 38.002 44.2588 38.2493 44.6494 38.7441C45.1149 39.3301 45.3477 40.3018 45.3477 41.6592C45.3477 43.0133 45.1133 43.9867 44.6445 44.5791C44.2572 45.0674 43.7168 45.3115 43.0234 45.3115C42.3268 45.3115 41.7653 45.0446 41.3389 44.5107C40.9124 43.9736 40.6992 43.0182 40.6992 41.6445C40.6992 40.2969 40.9336 39.3268 41.4023 38.7344C41.7897 38.2461 42.3301 38.002 43.0234 38.002ZM43.0234 39.1396C42.8574 39.1396 42.7093 39.1934 42.5791 39.3008C42.4489 39.4049 42.348 39.5938 42.2764 39.8672C42.182 40.222 42.1348 40.8193 42.1348 41.6592C42.1348 42.499 42.1771 43.0768 42.2617 43.3926C42.3464 43.7051 42.4521 43.9134 42.5791 44.0176C42.7093 44.1217 42.8574 44.1738 43.0234 44.1738C43.1895 44.1738 43.3376 44.1217 43.4678 44.0176C43.598 43.9102 43.6989 43.7197 43.7705 43.4463C43.8649 43.0947 43.9121 42.499 43.9121 41.6592C43.9121 40.8193 43.8698 40.2432 43.7852 39.9307C43.7005 39.6149 43.5931 39.4049 43.4629 39.3008C43.3359 39.1934 43.1895 39.1396 43.0234 39.1396ZM48.5898 38.002C49.2832 38.002 49.8252 38.2493 50.2158 38.7441C50.6813 39.3301 50.9141 40.3018 50.9141 41.6592C50.9141 43.0133 50.6797 43.9867 50.2109 44.5791C49.8236 45.0674 49.2832 45.3115 48.5898 45.3115C47.8932 45.3115 47.3317 45.0446 46.9053 44.5107C46.4788 43.9736 46.2656 43.0182 46.2656 41.6445C46.2656 40.2969 46.5 39.3268 46.9688 38.7344C47.3561 38.2461 47.8965 38.002 48.5898 38.002ZM48.5898 39.1396C48.4238 39.1396 48.2757 39.1934 48.1455 39.3008C48.0153 39.4049 47.9144 39.5938 47.8428 39.8672C47.7484 40.222 47.7012 40.8193 47.7012 41.6592C47.7012 42.499 47.7435 43.0768 47.8281 43.3926C47.9128 43.7051 48.0186 43.9134 48.1455 44.0176C48.2757 44.1217 48.4238 44.1738 48.5898 44.1738C48.7559 44.1738 48.904 44.1217 49.0342 44.0176C49.1644 43.9102 49.2653 43.7197 49.3369 43.4463C49.4313 43.0947 49.4785 42.499 49.4785 41.6592C49.4785 40.8193 49.4362 40.2432 49.3516 39.9307C49.2669 39.6149 49.1595 39.4049 49.0293 39.3008C48.9023 39.1934 48.7559 39.1396 48.5898 39.1396ZM55.5153 42.4195V43.0795H54.4153V44.1095H55.5153V45.1895H56.9453V44.1095H59.4853V43.0795H56.9453V42.4195H58.5253C59.2753 42.4195 59.8653 42.2195 60.3053 41.8295C60.7453 41.4395 60.9653 40.9295 60.9653 40.2995C60.9653 39.6695 60.7453 39.1695 60.3053 38.7795C59.8653 38.3895 59.2753 38.1895 58.5253 38.1895H55.5153V41.3895H54.4153V42.4195H55.5153ZM56.9453 39.4495H58.3353C59.0653 39.4495 59.5153 39.7895 59.5153 40.4195C59.5153 41.0295 59.0653 41.3895 58.3353 41.3895H56.9453V39.4495Z" fill="white"/>
<path d="M19.0594 29.3878V34.1895H0.938252C1.13449 32.3743 1.7232 30.6572 2.70437 29.0383C3.68555 27.4071 5.62338 25.2485 8.51786 22.5625C10.8482 20.3916 12.277 18.9199 12.8044 18.1472C13.5157 17.0801 13.8714 16.0254 13.8714 14.9829C13.8714 13.83 13.5587 12.9469 12.9332 12.3337C12.3199 11.7082 11.4675 11.3954 10.376 11.3954C9.29667 11.3954 8.43814 11.7205 7.80037 12.3705C7.16261 13.0205 6.79466 14.0998 6.69655 15.6084L1.54536 15.0933C1.85198 12.2478 2.81476 10.2058 4.4337 8.96702C6.05265 7.72829 8.07633 7.10892 10.5047 7.10892C13.1662 7.10892 15.2573 7.8264 16.7782 9.26138C18.299 10.6964 19.0594 12.4809 19.0594 14.6149C19.0594 15.8291 18.8386 16.9882 18.3971 18.092C17.9678 19.1835 17.281 20.3303 16.3366 21.5322C15.7111 22.3295 14.5828 23.4762 12.9516 24.9725C11.3204 26.4688 10.284 27.4622 9.84245 27.9528C9.41318 28.4434 9.06364 28.9217 8.79382 29.3878H19.0594Z" fill="#A0A0A0"/>
<defs>
<clipPath id="clip0">
<rect width="50.4087" height="34.4059" fill="white" transform="translate(6)"/>
</clipPath>
</defs>
</svg>
