<svg width="253" height="108" viewBox="0 0 253 108" fill="none" xmlns="http://www.w3.org/2000/svg">
<path d="M251.5 53.3V48.6C251.5 46.6 249.9 44.9 247.8 44.9H242.8C244.8 44.9 246.5 43.3 246.5 41.2V36.7C246.5 34.7 244.9 33 242.8 33H132.2C130.2 33 128.5 34.6 128.5 36.7V41.4C128.5 43.4 130.1 45.1 132.2 45.1H137.2C135.2 45.1 133.5 46.7 133.5 48.8V53.5C133.5 55.5 135.1 57.2 137.2 57.2H132.2C130.2 57.2 128.5 58.8 128.5 60.9V65.6C128.5 67.6 130.1 69.3 132.2 69.3H137.2C135.2 69.3 133.5 70.9 133.5 73V77.7C133.5 79.7 135.1 81.4 137.2 81.4H132.2C130.2 81.4 128.5 83 128.5 85.1V89.8C128.5 91.8 130.1 93.5 132.2 93.5H242.9C244.9 93.5 246.6 91.9 246.6 89.8V85.1C246.6 83.1 245 81.4 242.9 81.4H247.9C249.9 81.4 251.6 79.8 251.6 77.7V73C251.6 71 250 69.3 247.9 69.3H242.9C244.9 69.3 246.6 67.7 246.6 65.6V60.9C246.6 58.9 245 57.2 242.9 57.2H247.9C249.9 57 251.5 55.4 251.5 53.3Z" fill="white"/>
<path d="M247.8 56.9999H137.2C135.2 56.9999 133.5 55.3999 133.5 53.2999V48.5999C133.5 46.5999 135.1 44.8999 137.2 44.8999H247.9C249.9 44.8999 251.6 46.4999 251.6 48.5999V53.2999C251.5 55.3999 249.9 56.9999 247.8 56.9999Z" stroke="#DDDDDD" stroke-miterlimit="10"/>
<path d="M242.8 45H132.2C130.2 45 128.5 43.4 128.5 41.3V36.7C128.5 34.7 130.1 33 132.2 33H242.9C244.9 33 246.6 34.6 246.6 36.7V41.4C246.5 43.4 244.9 45 242.8 45Z" stroke="#DDDDDD" stroke-miterlimit="10"/>
<path d="M242.8 92.9999H132.2C130.2 92.9999 128.5 91.3999 128.5 89.2999V84.5999C128.5 82.5999 130.1 80.8999 132.2 80.8999H242.9C244.9 80.8999 246.6 82.4999 246.6 84.5999V89.2999C246.5 91.3999 244.9 92.9999 242.8 92.9999Z" stroke="#DDDDDD" stroke-miterlimit="10"/>
<path d="M247.8 80.9999H137.2C135.2 80.9999 133.5 79.3999 133.5 77.2999V72.5999C133.5 70.5999 135.1 68.8999 137.2 68.8999H247.9C249.9 68.8999 251.6 70.4999 251.6 72.5999V77.2999C251.5 79.3999 249.9 80.9999 247.8 80.9999Z" stroke="#DDDDDD" stroke-miterlimit="10"/>
<path d="M242.8 68.9999H132.2C130.2 68.9999 128.5 67.3999 128.5 65.2999V60.5999C128.5 58.5999 130.1 56.8999 132.2 56.8999H242.9C244.9 56.8999 246.6 58.4999 246.6 60.5999V65.2999C246.5 67.3999 244.9 68.9999 242.8 68.9999Z" stroke="#DDDDDD" stroke-miterlimit="10"/>
<path d="M128.8 35H246.2" stroke="#DDDDDD" stroke-width="0.5" stroke-miterlimit="10"/>
<path d="M128.8 43H246.2" stroke="#DDDDDD" stroke-width="0.5" stroke-miterlimit="10"/>
<path d="M131.4 35V43" stroke="#DDDDDD" stroke-width="0.5" stroke-miterlimit="10"/>
<path d="M135.4 35V43" stroke="#DDDDDD" stroke-width="0.5" stroke-miterlimit="10"/>
<path d="M139.4 35V43" stroke="#DDDDDD" stroke-width="0.5" stroke-miterlimit="10"/>
<path d="M143.4 35V43" stroke="#DDDDDD" stroke-width="0.5" stroke-miterlimit="10"/>
<path d="M147.4 35V43" stroke="#DDDDDD" stroke-width="0.5" stroke-miterlimit="10"/>
<path d="M151.4 35V43" stroke="#DDDDDD" stroke-width="0.5" stroke-miterlimit="10"/>
<path d="M155.4 35V43" stroke="#DDDDDD" stroke-width="0.5" stroke-miterlimit="10"/>
<path d="M159.4 35V43" stroke="#DDDDDD" stroke-width="0.5" stroke-miterlimit="10"/>
<path d="M163.4 35V43" stroke="#DDDDDD" stroke-width="0.5" stroke-miterlimit="10"/>
<path d="M167.4 35V43" stroke="#DDDDDD" stroke-width="0.5" stroke-miterlimit="10"/>
<path d="M171.4 35V43" stroke="#DDDDDD" stroke-width="0.5" stroke-miterlimit="10"/>
<path d="M175.4 35V43" stroke="#DDDDDD" stroke-width="0.5" stroke-miterlimit="10"/>
<path d="M179.4 35V43" stroke="#DDDDDD" stroke-width="0.5" stroke-miterlimit="10"/>
<path d="M183.4 35V43" stroke="#DDDDDD" stroke-width="0.5" stroke-miterlimit="10"/>
<path d="M187.4 35V43" stroke="#DDDDDD" stroke-width="0.5" stroke-miterlimit="10"/>
<path d="M191.4 35V43" stroke="#DDDDDD" stroke-width="0.5" stroke-miterlimit="10"/>
<path d="M195.4 35V43" stroke="#DDDDDD" stroke-width="0.5" stroke-miterlimit="10"/>
<path d="M199.4 35V43" stroke="#DDDDDD" stroke-width="0.5" stroke-miterlimit="10"/>
<path d="M203.4 35V43" stroke="#DDDDDD" stroke-width="0.5" stroke-miterlimit="10"/>
<path d="M207.4 35V43" stroke="#DDDDDD" stroke-width="0.5" stroke-miterlimit="10"/>
<path d="M211.4 35V43" stroke="#DDDDDD" stroke-width="0.5" stroke-miterlimit="10"/>
<path d="M215.4 35V43" stroke="#DDDDDD" stroke-width="0.5" stroke-miterlimit="10"/>
<path d="M219.4 35V43" stroke="#DDDDDD" stroke-width="0.5" stroke-miterlimit="10"/>
<path d="M223.4 35V43" stroke="#DDDDDD" stroke-width="0.5" stroke-miterlimit="10"/>
<path d="M227.4 35V43" stroke="#DDDDDD" stroke-width="0.5" stroke-miterlimit="10"/>
<path d="M231.4 35V43" stroke="#DDDDDD" stroke-width="0.5" stroke-miterlimit="10"/>
<path d="M235.4 35V43" stroke="#DDDDDD" stroke-width="0.5" stroke-miterlimit="10"/>
<path d="M239.4 35V43" stroke="#DDDDDD" stroke-width="0.5" stroke-miterlimit="10"/>
<path d="M243.4 35V43" stroke="#DDDDDD" stroke-width="0.5" stroke-miterlimit="10"/>
<path d="M133.8 47H251.2" stroke="#DDDDDD" stroke-width="0.5" stroke-miterlimit="10"/>
<path d="M133.8 55H251.2" stroke="#DDDDDD" stroke-width="0.5" stroke-miterlimit="10"/>
<path d="M136.4 47V55" stroke="#DDDDDD" stroke-width="0.5" stroke-miterlimit="10"/>
<path d="M140.4 47V55" stroke="#DDDDDD" stroke-width="0.5" stroke-miterlimit="10"/>
<path d="M144.4 47V55" stroke="#DDDDDD" stroke-width="0.5" stroke-miterlimit="10"/>
<path d="M148.4 47V55" stroke="#DDDDDD" stroke-width="0.5" stroke-miterlimit="10"/>
<path d="M152.4 47V55" stroke="#DDDDDD" stroke-width="0.5" stroke-miterlimit="10"/>
<path d="M156.4 47V55" stroke="#DDDDDD" stroke-width="0.5" stroke-miterlimit="10"/>
<path d="M160.4 47V55" stroke="#DDDDDD" stroke-width="0.5" stroke-miterlimit="10"/>
<path d="M164.4 47V55" stroke="#DDDDDD" stroke-width="0.5" stroke-miterlimit="10"/>
<path d="M168.4 47V55" stroke="#DDDDDD" stroke-width="0.5" stroke-miterlimit="10"/>
<path d="M172.4 47V55" stroke="#DDDDDD" stroke-width="0.5" stroke-miterlimit="10"/>
<path d="M176.4 47V55" stroke="#DDDDDD" stroke-width="0.5" stroke-miterlimit="10"/>
<path d="M180.4 47V55" stroke="#DDDDDD" stroke-width="0.5" stroke-miterlimit="10"/>
<path d="M184.4 47V55" stroke="#DDDDDD" stroke-width="0.5" stroke-miterlimit="10"/>
<path d="M188.4 47V55" stroke="#DDDDDD" stroke-width="0.5" stroke-miterlimit="10"/>
<path d="M192.4 47V55" stroke="#DDDDDD" stroke-width="0.5" stroke-miterlimit="10"/>
<path d="M196.4 47V55" stroke="#DDDDDD" stroke-width="0.5" stroke-miterlimit="10"/>
<path d="M200.4 47V55" stroke="#DDDDDD" stroke-width="0.5" stroke-miterlimit="10"/>
<path d="M204.4 47V55" stroke="#DDDDDD" stroke-width="0.5" stroke-miterlimit="10"/>
<path d="M208.4 47V55" stroke="#DDDDDD" stroke-width="0.5" stroke-miterlimit="10"/>
<path d="M212.4 47V55" stroke="#DDDDDD" stroke-width="0.5" stroke-miterlimit="10"/>
<path d="M216.4 47V55" stroke="#DDDDDD" stroke-width="0.5" stroke-miterlimit="10"/>
<path d="M220.4 47V55" stroke="#DDDDDD" stroke-width="0.5" stroke-miterlimit="10"/>
<path d="M224.4 47V55" stroke="#DDDDDD" stroke-width="0.5" stroke-miterlimit="10"/>
<path d="M228.4 47V55" stroke="#DDDDDD" stroke-width="0.5" stroke-miterlimit="10"/>
<path d="M232.4 47V55" stroke="#DDDDDD" stroke-width="0.5" stroke-miterlimit="10"/>
<path d="M236.4 47V55" stroke="#DDDDDD" stroke-width="0.5" stroke-miterlimit="10"/>
<path d="M240.4 47V55" stroke="#DDDDDD" stroke-width="0.5" stroke-miterlimit="10"/>
<path d="M244.4 47V55" stroke="#DDDDDD" stroke-width="0.5" stroke-miterlimit="10"/>
<path d="M248.4 47V55" stroke="#DDDDDD" stroke-width="0.5" stroke-miterlimit="10"/>
<path d="M128.8 59H246.2" stroke="#DDDDDD" stroke-width="0.5" stroke-miterlimit="10"/>
<path d="M128.8 67H246.2" stroke="#DDDDDD" stroke-width="0.5" stroke-miterlimit="10"/>
<path d="M128.8 83H246.2" stroke="#DDDDDD" stroke-width="0.5" stroke-miterlimit="10"/>
<path d="M128.8 91H246.2" stroke="#DDDDDD" stroke-width="0.5" stroke-miterlimit="10"/>
<path d="M131.4 83V91" stroke="#DDDDDD" stroke-width="0.5" stroke-miterlimit="10"/>
<path d="M135.4 83V91" stroke="#DDDDDD" stroke-width="0.5" stroke-miterlimit="10"/>
<path d="M139.4 83V91" stroke="#DDDDDD" stroke-width="0.5" stroke-miterlimit="10"/>
<path d="M143.4 83V91" stroke="#DDDDDD" stroke-width="0.5" stroke-miterlimit="10"/>
<path d="M147.4 83V91" stroke="#DDDDDD" stroke-width="0.5" stroke-miterlimit="10"/>
<path d="M151.4 83V91" stroke="#DDDDDD" stroke-width="0.5" stroke-miterlimit="10"/>
<path d="M155.4 83V91" stroke="#DDDDDD" stroke-width="0.5" stroke-miterlimit="10"/>
<path d="M159.4 83V91" stroke="#DDDDDD" stroke-width="0.5" stroke-miterlimit="10"/>
<path d="M163.4 83V91" stroke="#DDDDDD" stroke-width="0.5" stroke-miterlimit="10"/>
<path d="M167.4 83V91" stroke="#DDDDDD" stroke-width="0.5" stroke-miterlimit="10"/>
<path d="M171.4 83V91" stroke="#DDDDDD" stroke-width="0.5" stroke-miterlimit="10"/>
<path d="M175.4 83V91" stroke="#DDDDDD" stroke-width="0.5" stroke-miterlimit="10"/>
<path d="M179.4 83V91" stroke="#DDDDDD" stroke-width="0.5" stroke-miterlimit="10"/>
<path d="M183.4 83V91" stroke="#DDDDDD" stroke-width="0.5" stroke-miterlimit="10"/>
<path d="M187.4 83V91" stroke="#DDDDDD" stroke-width="0.5" stroke-miterlimit="10"/>
<path d="M191.4 83V91" stroke="#DDDDDD" stroke-width="0.5" stroke-miterlimit="10"/>
<path d="M195.4 83V91" stroke="#DDDDDD" stroke-width="0.5" stroke-miterlimit="10"/>
<path d="M199.4 83V91" stroke="#DDDDDD" stroke-width="0.5" stroke-miterlimit="10"/>
<path d="M203.4 83V91" stroke="#DDDDDD" stroke-width="0.5" stroke-miterlimit="10"/>
<path d="M207.4 83V91" stroke="#DDDDDD" stroke-width="0.5" stroke-miterlimit="10"/>
<path d="M211.4 83V91" stroke="#DDDDDD" stroke-width="0.5" stroke-miterlimit="10"/>
<path d="M215.4 83V91" stroke="#DDDDDD" stroke-width="0.5" stroke-miterlimit="10"/>
<path d="M219.4 83V91" stroke="#DDDDDD" stroke-width="0.5" stroke-miterlimit="10"/>
<path d="M223.4 83V91" stroke="#DDDDDD" stroke-width="0.5" stroke-miterlimit="10"/>
<path d="M227.4 83V91" stroke="#DDDDDD" stroke-width="0.5" stroke-miterlimit="10"/>
<path d="M231.4 83V91" stroke="#DDDDDD" stroke-width="0.5" stroke-miterlimit="10"/>
<path d="M235.4 83V91" stroke="#DDDDDD" stroke-width="0.5" stroke-miterlimit="10"/>
<path d="M239.4 83V91" stroke="#DDDDDD" stroke-width="0.5" stroke-miterlimit="10"/>
<path d="M243.4 83V91" stroke="#DDDDDD" stroke-width="0.5" stroke-miterlimit="10"/>
<path d="M133.8 71H251.2" stroke="#DDDDDD" stroke-width="0.5" stroke-miterlimit="10"/>
<path d="M133.8 79H251.2" stroke="#DDDDDD" stroke-width="0.5" stroke-miterlimit="10"/>
<path d="M136.4 71V79" stroke="#DDDDDD" stroke-width="0.5" stroke-miterlimit="10"/>
<path d="M140.4 71V79" stroke="#DDDDDD" stroke-width="0.5" stroke-miterlimit="10"/>
<path d="M144.4 71V79" stroke="#DDDDDD" stroke-width="0.5" stroke-miterlimit="10"/>
<path d="M148.4 71V79" stroke="#DDDDDD" stroke-width="0.5" stroke-miterlimit="10"/>
<path d="M152.4 71V79" stroke="#DDDDDD" stroke-width="0.5" stroke-miterlimit="10"/>
<path d="M156.4 71V79" stroke="#DDDDDD" stroke-width="0.5" stroke-miterlimit="10"/>
<path d="M160.4 71V79" stroke="#DDDDDD" stroke-width="0.5" stroke-miterlimit="10"/>
<path d="M164.4 71V79" stroke="#DDDDDD" stroke-width="0.5" stroke-miterlimit="10"/>
<path d="M168.4 71V79" stroke="#DDDDDD" stroke-width="0.5" stroke-miterlimit="10"/>
<path d="M172.4 71V79" stroke="#DDDDDD" stroke-width="0.5" stroke-miterlimit="10"/>
<path d="M176.4 71V79" stroke="#DDDDDD" stroke-width="0.5" stroke-miterlimit="10"/>
<path d="M180.4 71V79" stroke="#DDDDDD" stroke-width="0.5" stroke-miterlimit="10"/>
<path d="M184.4 71V79" stroke="#DDDDDD" stroke-width="0.5" stroke-miterlimit="10"/>
<path d="M188.4 71V79" stroke="#DDDDDD" stroke-width="0.5" stroke-miterlimit="10"/>
<path d="M192.4 71V79" stroke="#DDDDDD" stroke-width="0.5" stroke-miterlimit="10"/>
<path d="M196.4 71V79" stroke="#DDDDDD" stroke-width="0.5" stroke-miterlimit="10"/>
<path d="M200.4 71V79" stroke="#DDDDDD" stroke-width="0.5" stroke-miterlimit="10"/>
<path d="M204.4 71V79" stroke="#DDDDDD" stroke-width="0.5" stroke-miterlimit="10"/>
<path d="M208.4 71V79" stroke="#DDDDDD" stroke-width="0.5" stroke-miterlimit="10"/>
<path d="M212.4 71V79" stroke="#DDDDDD" stroke-width="0.5" stroke-miterlimit="10"/>
<path d="M216.4 71V79" stroke="#DDDDDD" stroke-width="0.5" stroke-miterlimit="10"/>
<path d="M220.4 71V79" stroke="#DDDDDD" stroke-width="0.5" stroke-miterlimit="10"/>
<path d="M224.4 71V79" stroke="#DDDDDD" stroke-width="0.5" stroke-miterlimit="10"/>
<path d="M228.4 71V79" stroke="#DDDDDD" stroke-width="0.5" stroke-miterlimit="10"/>
<path d="M232.4 71V79" stroke="#DDDDDD" stroke-width="0.5" stroke-miterlimit="10"/>
<path d="M236.4 71V79" stroke="#DDDDDD" stroke-width="0.5" stroke-miterlimit="10"/>
<path d="M240.4 71V79" stroke="#DDDDDD" stroke-width="0.5" stroke-miterlimit="10"/>
<path d="M244.4 71V79" stroke="#DDDDDD" stroke-width="0.5" stroke-miterlimit="10"/>
<path d="M248.4 71V79" stroke="#DDDDDD" stroke-width="0.5" stroke-miterlimit="10"/>
<path d="M251.5 53.3V48.6C251.5 46.6 249.9 44.9 247.8 44.9H242.8C244.8 44.9 246.5 43.3 246.5 41.2V36.7C246.5 34.7 244.9 33 242.8 33H132.2C130.2 33 128.5 34.6 128.5 36.7V41.4C128.5 43.4 130.1 45.1 132.2 45.1H137.2C135.2 45.1 133.5 46.7 133.5 48.8V53.5C133.5 55.5 135.1 57.2 137.2 57.2H132.2C130.2 57.2 128.5 58.8 128.5 60.9V65.6C128.5 67.6 130.1 69.3 132.2 69.3H137.2C135.2 69.3 133.5 70.9 133.5 73V77.7C133.5 79.7 135.1 81.4 137.2 81.4H132.2C130.2 81.4 128.5 83 128.5 85.1V89.8C128.5 91.8 130.1 93.5 132.2 93.5H242.9C244.9 93.5 246.6 91.9 246.6 89.8V85.1C246.6 83.1 245 81.4 242.9 81.4H247.9C249.9 81.4 251.6 79.8 251.6 77.7V73C251.6 71 250 69.3 247.9 69.3H242.9C244.9 69.3 246.6 67.7 246.6 65.6V60.9C246.6 58.9 245 57.2 242.9 57.2H247.9C249.9 57 251.5 55.4 251.5 53.3Z" stroke="#808080" stroke-miterlimit="10"/>
<path d="M131.4 59V67" stroke="#DDDDDD" stroke-width="0.5" stroke-miterlimit="10"/>
<path d="M135.4 59V67" stroke="#DDDDDD" stroke-width="0.5" stroke-miterlimit="10"/>
<path d="M139.4 59V67" stroke="#DDDDDD" stroke-width="0.5" stroke-miterlimit="10"/>
<path d="M143.4 59V67" stroke="#DDDDDD" stroke-width="0.5" stroke-miterlimit="10"/>
<path d="M147.4 59V67" stroke="#DDDDDD" stroke-width="0.5" stroke-miterlimit="10"/>
<path d="M151.4 59V67" stroke="#DDDDDD" stroke-width="0.5" stroke-miterlimit="10"/>
<path d="M155.4 59V67" stroke="#DDDDDD" stroke-width="0.5" stroke-miterlimit="10"/>
<path d="M159.4 59V67" stroke="#DDDDDD" stroke-width="0.5" stroke-miterlimit="10"/>
<path d="M163.4 59V67" stroke="#DDDDDD" stroke-width="0.5" stroke-miterlimit="10"/>
<path d="M167.4 59V67" stroke="#DDDDDD" stroke-width="0.5" stroke-miterlimit="10"/>
<path d="M171.4 59V67" stroke="#DDDDDD" stroke-width="0.5" stroke-miterlimit="10"/>
<path d="M175.4 59V67" stroke="#DDDDDD" stroke-width="0.5" stroke-miterlimit="10"/>
<path d="M179.4 59V67" stroke="#DDDDDD" stroke-width="0.5" stroke-miterlimit="10"/>
<path d="M183.4 59V67" stroke="#DDDDDD" stroke-width="0.5" stroke-miterlimit="10"/>
<path d="M187.4 59V67" stroke="#DDDDDD" stroke-width="0.5" stroke-miterlimit="10"/>
<path d="M191.4 59V67" stroke="#DDDDDD" stroke-width="0.5" stroke-miterlimit="10"/>
<path d="M195.4 59V67" stroke="#DDDDDD" stroke-width="0.5" stroke-miterlimit="10"/>
<path d="M199.4 59V67" stroke="#DDDDDD" stroke-width="0.5" stroke-miterlimit="10"/>
<path d="M203.4 59V67" stroke="#DDDDDD" stroke-width="0.5" stroke-miterlimit="10"/>
<path d="M207.4 59V67" stroke="#DDDDDD" stroke-width="0.5" stroke-miterlimit="10"/>
<path d="M211.4 59V67" stroke="#DDDDDD" stroke-width="0.5" stroke-miterlimit="10"/>
<path d="M215.4 59V67" stroke="#DDDDDD" stroke-width="0.5" stroke-miterlimit="10"/>
<path d="M219.4 59V67" stroke="#DDDDDD" stroke-width="0.5" stroke-miterlimit="10"/>
<path d="M223.4 59V67" stroke="#DDDDDD" stroke-width="0.5" stroke-miterlimit="10"/>
<path d="M227.4 59V67" stroke="#DDDDDD" stroke-width="0.5" stroke-miterlimit="10"/>
<path d="M231.4 59V67" stroke="#DDDDDD" stroke-width="0.5" stroke-miterlimit="10"/>
<path d="M235.4 59V67" stroke="#DDDDDD" stroke-width="0.5" stroke-miterlimit="10"/>
<path d="M239.4 59V67" stroke="#DDDDDD" stroke-width="0.5" stroke-miterlimit="10"/>
<path d="M243.4 59V67" stroke="#DDDDDD" stroke-width="0.5" stroke-miterlimit="10"/>
<path d="M0 59.9995H237V93.9995H10L0 59.9995Z" fill="#900583"/>
<path d="M119 108L105 94H237L119 108Z" fill="#620258"/>
<path d="M33.2786 70.5464H37.8567C38.7629 70.5464 39.4374 70.5854 39.8801 70.6636C40.3281 70.7365 40.7265 70.8927 41.0754 71.1323C41.4296 71.3719 41.7239 71.6922 41.9583 72.0933C42.1926 72.4891 42.3098 72.9344 42.3098 73.4292C42.3098 73.9657 42.164 74.4578 41.8723 74.9058C41.5859 75.3537 41.1952 75.6896 40.7004 75.9136C41.3984 76.1167 41.9348 76.4631 42.3098 76.9526C42.6848 77.4422 42.8723 78.0177 42.8723 78.6792C42.8723 79.2 42.7499 79.7078 42.5051 80.2026C42.2656 80.6922 41.9348 81.0854 41.5129 81.3823C41.0963 81.674 40.5807 81.8537 39.9661 81.9214C39.5807 81.9631 38.651 81.9891 37.177 81.9995H33.2786V70.5464ZM35.5911 72.4526V75.1011H37.1067C38.0077 75.1011 38.5676 75.0881 38.7864 75.062C39.1822 75.0151 39.4921 74.8797 39.7161 74.6558C39.9452 74.4266 40.0598 74.1271 40.0598 73.7573C40.0598 73.4032 39.9609 73.1167 39.7629 72.8979C39.5702 72.674 39.2812 72.5386 38.8958 72.4917C38.6666 72.4657 38.0077 72.4526 36.9192 72.4526H35.5911ZM35.5911 77.0073V80.0698H37.7317C38.565 80.0698 39.0937 80.0464 39.3176 79.9995C39.6614 79.937 39.94 79.786 40.1536 79.5464C40.3723 79.3016 40.4817 78.9761 40.4817 78.5698C40.4817 78.2261 40.3984 77.9344 40.2317 77.6948C40.065 77.4552 39.8228 77.2808 39.5051 77.1714C39.1926 77.062 38.5103 77.0073 37.4583 77.0073H35.5911ZM46.4583 76.2339L44.4661 75.8745C44.69 75.0724 45.0754 74.4787 45.6223 74.0933C46.1692 73.7078 46.9817 73.5151 48.0598 73.5151C49.039 73.5151 49.7682 73.6323 50.2473 73.8667C50.7265 74.0959 51.0624 74.3901 51.2551 74.7495C51.4531 75.1037 51.552 75.7573 51.552 76.7104L51.5286 79.2729C51.5286 80.0021 51.5624 80.5412 51.6301 80.8901C51.7031 81.2339 51.8359 81.6037 52.0286 81.9995H49.8567C49.7994 81.8537 49.7291 81.6375 49.6458 81.3511C49.6093 81.2209 49.5833 81.1349 49.5676 81.0933C49.1926 81.4578 48.7916 81.7313 48.3645 81.9136C47.9374 82.0959 47.4817 82.187 46.9973 82.187C46.1432 82.187 45.4687 81.9552 44.9739 81.4917C44.4843 81.0282 44.2395 80.4422 44.2395 79.7339C44.2395 79.2651 44.3515 78.8485 44.5754 78.4839C44.7994 78.1141 45.1119 77.8328 45.5129 77.6401C45.9192 77.4422 46.5025 77.2703 47.2629 77.1245C48.289 76.9318 48.9999 76.7521 49.3958 76.5854V76.3667C49.3958 75.9448 49.2916 75.6453 49.0833 75.4683C48.8749 75.286 48.4817 75.1948 47.9036 75.1948C47.5129 75.1948 47.2083 75.2729 46.9895 75.4292C46.7708 75.5802 46.5937 75.8485 46.4583 76.2339ZM49.3958 78.0151C49.1145 78.1089 48.6692 78.2209 48.0598 78.3511C47.4504 78.4813 47.052 78.6089 46.8645 78.7339C46.5781 78.937 46.4348 79.1948 46.4348 79.5073C46.4348 79.8146 46.5494 80.0802 46.7786 80.3042C47.0077 80.5282 47.2994 80.6401 47.6536 80.6401C48.0494 80.6401 48.427 80.5099 48.7864 80.2495C49.052 80.0516 49.2265 79.8094 49.3098 79.5229C49.3671 79.3354 49.3958 78.9787 49.3958 78.4526V78.0151ZM53.6692 73.7026H55.6848V80.2261H58.2317V73.7026H60.2551V80.2261H62.7942V73.7026H64.8176V81.9995H53.6692V73.7026ZM68.7083 76.2339L66.7161 75.8745C66.94 75.0724 67.3254 74.4787 67.8723 74.0933C68.4192 73.7078 69.2317 73.5151 70.3098 73.5151C71.289 73.5151 72.0182 73.6323 72.4973 73.8667C72.9765 74.0959 73.3124 74.3901 73.5051 74.7495C73.7031 75.1037 73.802 75.7573 73.802 76.7104L73.7786 79.2729C73.7786 80.0021 73.8124 80.5412 73.8801 80.8901C73.9531 81.2339 74.0859 81.6037 74.2786 81.9995H72.1067C72.0494 81.8537 71.9791 81.6375 71.8958 81.3511C71.8593 81.2209 71.8333 81.1349 71.8176 81.0933C71.4426 81.4578 71.0416 81.7313 70.6145 81.9136C70.1874 82.0959 69.7317 82.187 69.2473 82.187C68.3932 82.187 67.7187 81.9552 67.2239 81.4917C66.7343 81.0282 66.4895 80.4422 66.4895 79.7339C66.4895 79.2651 66.6015 78.8485 66.8254 78.4839C67.0494 78.1141 67.3619 77.8328 67.7629 77.6401C68.1692 77.4422 68.7525 77.2703 69.5129 77.1245C70.539 76.9318 71.2499 76.7521 71.6458 76.5854V76.3667C71.6458 75.9448 71.5416 75.6453 71.3333 75.4683C71.1249 75.286 70.7317 75.1948 70.1536 75.1948C69.7629 75.1948 69.4583 75.2729 69.2395 75.4292C69.0208 75.5802 68.8437 75.8485 68.7083 76.2339ZM71.6458 78.0151C71.3645 78.1089 70.9192 78.2209 70.3098 78.3511C69.7004 78.4813 69.302 78.6089 69.1145 78.7339C68.8281 78.937 68.6848 79.1948 68.6848 79.5073C68.6848 79.8146 68.7994 80.0802 69.0286 80.3042C69.2577 80.5282 69.5494 80.6401 69.9036 80.6401C70.2994 80.6401 70.677 80.5099 71.0364 80.2495C71.302 80.0516 71.4765 79.8094 71.5598 79.5229C71.6171 79.3354 71.6458 78.9787 71.6458 78.4526V78.0151ZM79.4426 73.7026H86.9504V75.4761H84.2942V81.9995H82.0989V75.4761H79.4426V73.7026ZM93.0754 79.3589L95.2629 79.7261C94.9817 80.5282 94.5364 81.1401 93.927 81.562C93.3228 81.9787 92.565 82.187 91.6536 82.187C90.2109 82.187 89.1432 81.7157 88.4504 80.7729C87.9036 80.0177 87.6301 79.0646 87.6301 77.9136C87.6301 76.5386 87.9895 75.4631 88.7083 74.687C89.427 73.9058 90.3359 73.5151 91.4348 73.5151C92.6692 73.5151 93.6432 73.924 94.3567 74.7417C95.0702 75.5542 95.4114 76.8016 95.3801 78.4839H89.8801C89.8958 79.1349 90.0728 79.6427 90.4114 80.0073C90.7499 80.3667 91.1718 80.5464 91.677 80.5464C92.0208 80.5464 92.3098 80.4526 92.5442 80.2651C92.7786 80.0776 92.9557 79.7756 93.0754 79.3589ZM93.2004 77.1401C93.1848 76.5047 93.0208 76.0229 92.7083 75.6948C92.3958 75.3615 92.0156 75.1948 91.5676 75.1948C91.0885 75.1948 90.6926 75.3693 90.3801 75.7183C90.0676 76.0672 89.914 76.5412 89.9192 77.1401H93.2004ZM97.0911 73.7026H99.2786V77.0933C99.6432 77.0516 99.901 76.9396 100.052 76.7573C100.203 76.575 100.385 76.1766 100.599 75.562C100.88 74.7443 101.187 74.2209 101.521 73.9917C101.854 73.7625 102.292 73.6479 102.833 73.6479C103 73.6479 103.289 73.661 103.7 73.687L103.708 75.1401C103.13 75.1401 102.76 75.1948 102.599 75.3042C102.437 75.4188 102.263 75.7599 102.075 76.3276C101.82 77.0933 101.453 77.5646 100.974 77.7417C101.667 77.9344 102.253 78.536 102.732 79.5464C102.758 79.5985 102.786 79.6532 102.818 79.7104L104.044 81.9995H101.685L100.591 79.6011C100.367 79.1167 100.172 78.8068 100.005 78.6714C99.8437 78.5308 99.6015 78.4604 99.2786 78.4604V81.9995H97.0911V73.7026ZM104.154 73.7026H106.49L108.474 79.5933L110.411 73.7026H112.685L109.755 81.687L109.232 83.1323C109.039 83.6167 108.854 83.9865 108.677 84.2417C108.505 84.4969 108.305 84.7026 108.075 84.8589C107.851 85.0203 107.573 85.1453 107.24 85.2339C106.911 85.3224 106.539 85.3667 106.122 85.3667C105.7 85.3667 105.286 85.3224 104.88 85.2339L104.685 83.5151C105.029 83.5828 105.338 83.6167 105.615 83.6167C106.125 83.6167 106.503 83.4657 106.747 83.1636C106.992 82.8667 107.18 82.4865 107.31 82.0229L104.154 73.7026ZM114.052 73.7026H116.075V80.2261H118.599V73.7026H120.622V80.2261H123.177V73.7026H125.2V80.2261H126.099V84.187H124.325V81.9995H114.052V73.7026ZM129.443 76.2339L127.45 75.8745C127.674 75.0724 128.06 74.4787 128.607 74.0933C129.154 73.7078 129.966 73.5151 131.044 73.5151C132.023 73.5151 132.753 73.6323 133.232 73.8667C133.711 74.0959 134.047 74.3901 134.24 74.7495C134.437 75.1037 134.536 75.7573 134.536 76.7104L134.513 79.2729C134.513 80.0021 134.547 80.5412 134.615 80.8901C134.687 81.2339 134.82 81.6037 135.013 81.9995H132.841C132.784 81.8537 132.713 81.6375 132.63 81.3511C132.594 81.2209 132.568 81.1349 132.552 81.0933C132.177 81.4578 131.776 81.7313 131.349 81.9136C130.922 82.0959 130.466 82.187 129.982 82.187C129.128 82.187 128.453 81.9552 127.958 81.4917C127.469 81.0282 127.224 80.4422 127.224 79.7339C127.224 79.2651 127.336 78.8485 127.56 78.4839C127.784 78.1141 128.096 77.8328 128.497 77.6401C128.904 77.4422 129.487 77.2703 130.247 77.1245C131.273 76.9318 131.984 76.7521 132.38 76.5854V76.3667C132.38 75.9448 132.276 75.6453 132.068 75.4683C131.859 75.286 131.466 75.1948 130.888 75.1948C130.497 75.1948 130.193 75.2729 129.974 75.4292C129.755 75.5802 129.578 75.8485 129.443 76.2339ZM132.38 78.0151C132.099 78.1089 131.654 78.2209 131.044 78.3511C130.435 78.4813 130.036 78.6089 129.849 78.7339C129.562 78.937 129.419 79.1948 129.419 79.5073C129.419 79.8146 129.534 80.0802 129.763 80.3042C129.992 80.5282 130.284 80.6401 130.638 80.6401C131.034 80.6401 131.411 80.5099 131.771 80.2495C132.036 80.0516 132.211 79.8094 132.294 79.5229C132.351 79.3354 132.38 78.9787 132.38 78.4526V78.0151ZM143.818 73.7026V81.9995H141.638V78.5542H141.435C140.961 78.5542 140.612 78.6167 140.388 78.7417C140.169 78.8615 139.924 79.1193 139.654 79.5151L139.521 79.6792L138.075 81.9995H135.521L137.091 79.5933C137.539 78.9058 137.945 78.5099 138.31 78.4058C137.695 78.3693 137.195 78.1375 136.81 77.7104C136.43 77.2782 136.24 76.7287 136.24 76.062C136.24 75.5256 136.365 75.0672 136.615 74.687C136.87 74.3068 137.206 74.049 137.622 73.9136C138.044 73.7729 138.669 73.7026 139.497 73.7026H143.818ZM141.638 75.1167H140.068C139.49 75.1167 139.083 75.2 138.849 75.3667C138.615 75.5282 138.497 75.799 138.497 76.1792C138.497 76.5594 138.63 76.8328 138.896 76.9995C139.161 77.1662 139.596 77.2495 140.2 77.2495H141.638V75.1167ZM157.74 76.1558L155.575 76.5464C155.503 76.1141 155.336 75.7886 155.075 75.5698C154.82 75.3511 154.487 75.2417 154.075 75.2417C153.529 75.2417 153.091 75.4318 152.763 75.812C152.44 76.187 152.279 76.8172 152.279 77.7026C152.279 78.687 152.443 79.3823 152.771 79.7886C153.104 80.1948 153.549 80.3979 154.107 80.3979C154.523 80.3979 154.865 80.2808 155.13 80.0464C155.396 79.8068 155.583 79.3979 155.693 78.8198L157.849 79.187C157.625 80.1766 157.195 80.924 156.56 81.4292C155.924 81.9344 155.073 82.187 154.005 82.187C152.792 82.187 151.823 81.8042 151.099 81.0386C150.38 80.2729 150.021 79.2131 150.021 77.8589C150.021 76.4891 150.383 75.424 151.107 74.6636C151.831 73.8979 152.81 73.5151 154.044 73.5151C155.055 73.5151 155.857 73.7339 156.45 74.1714C157.049 74.6037 157.479 75.2651 157.74 76.1558ZM159.325 73.7026H161.513V77.0933C161.878 77.0516 162.135 76.9396 162.286 76.7573C162.437 76.575 162.62 76.1766 162.833 75.562C163.115 74.7443 163.422 74.2209 163.755 73.9917C164.088 73.7625 164.526 73.6479 165.068 73.6479C165.234 73.6479 165.523 73.661 165.935 73.687L165.943 75.1401C165.365 75.1401 164.995 75.1948 164.833 75.3042C164.672 75.4188 164.497 75.7599 164.31 76.3276C164.055 77.0933 163.687 77.5646 163.208 77.7417C163.901 77.9344 164.487 78.536 164.966 79.5464C164.992 79.5985 165.021 79.6532 165.052 79.7104L166.279 81.9995H163.919L162.825 79.6011C162.601 79.1167 162.406 78.8068 162.24 78.6714C162.078 78.5308 161.836 78.4604 161.513 78.4604V81.9995H159.325V73.7026ZM167.372 73.7026H169.482V78.9136L172.857 73.7026H175.013V81.9995H172.904V76.6948L169.482 81.9995H167.372V73.7026ZM184.13 81.9995H177.849V84.187H176.068V80.2026H176.966C177.341 79.786 177.651 79.1349 177.896 78.2495C178.141 77.3641 178.286 75.8485 178.333 73.7026H185.029V80.2026H185.919V84.187H184.13V81.9995ZM182.857 80.2026L182.865 75.5073H180.208C180.12 77.799 179.755 79.3641 179.115 80.2026H182.857ZM187.341 73.7026H189.529V77.0933C189.893 77.0516 190.151 76.9396 190.302 76.7573C190.453 76.575 190.635 76.1766 190.849 75.562C191.13 74.7443 191.437 74.2209 191.771 73.9917C192.104 73.7625 192.542 73.6479 193.083 73.6479C193.25 73.6479 193.539 73.661 193.95 73.687L193.958 75.1401C193.38 75.1401 193.01 75.1948 192.849 75.3042C192.687 75.4188 192.513 75.7599 192.325 76.3276C192.07 77.0933 191.703 77.5646 191.224 77.7417C191.917 77.9344 192.503 78.536 192.982 79.5464C193.008 79.5985 193.036 79.6532 193.068 79.7104L194.294 81.9995H191.935L190.841 79.6011C190.617 79.1167 190.422 78.8068 190.255 78.6714C190.094 78.5308 189.851 78.4604 189.529 78.4604V81.9995H187.341V73.7026ZM197.083 76.2339L195.091 75.8745C195.315 75.0724 195.7 74.4787 196.247 74.0933C196.794 73.7078 197.607 73.5151 198.685 73.5151C199.664 73.5151 200.393 73.6323 200.872 73.8667C201.351 74.0959 201.687 74.3901 201.88 74.7495C202.078 75.1037 202.177 75.7573 202.177 76.7104L202.154 79.2729C202.154 80.0021 202.187 80.5412 202.255 80.8901C202.328 81.2339 202.461 81.6037 202.654 81.9995H200.482C200.424 81.8537 200.354 81.6375 200.271 81.3511C200.234 81.2209 200.208 81.1349 200.193 81.0933C199.818 81.4578 199.417 81.7313 198.99 81.9136C198.562 82.0959 198.107 82.187 197.622 82.187C196.768 82.187 196.094 81.9552 195.599 81.4917C195.109 81.0282 194.865 80.4422 194.865 79.7339C194.865 79.2651 194.976 78.8485 195.2 78.4839C195.424 78.1141 195.737 77.8328 196.138 77.6401C196.544 77.4422 197.128 77.2703 197.888 77.1245C198.914 76.9318 199.625 76.7521 200.021 76.5854V76.3667C200.021 75.9448 199.917 75.6453 199.708 75.4683C199.5 75.286 199.107 75.1948 198.529 75.1948C198.138 75.1948 197.833 75.2729 197.615 75.4292C197.396 75.5802 197.219 75.8485 197.083 76.2339ZM200.021 78.0151C199.74 78.1089 199.294 78.2209 198.685 78.3511C198.075 78.4813 197.677 78.6089 197.49 78.7339C197.203 78.937 197.06 79.1948 197.06 79.5073C197.06 79.8146 197.174 80.0802 197.404 80.3042C197.633 80.5282 197.924 80.6401 198.279 80.6401C198.674 80.6401 199.052 80.5099 199.411 80.2495C199.677 80.0516 199.851 79.8094 199.935 79.5229C199.992 79.3354 200.021 78.9787 200.021 78.4526V78.0151Z" fill="white"/>
<path d="M139.678 23.7478H144.808L124.214 61.823H119.133L139.678 23.7478ZM109.407 33.1086C109.407 31.4553 109.764 29.883 110.477 28.3917C111.206 26.9005 112.308 25.7578 113.784 24.9635C115.275 24.1531 117.033 23.7478 119.06 23.7478C122.042 23.7478 124.392 24.5988 126.111 26.3008C127.829 28.0027 128.688 30.272 128.688 33.1086C128.688 35.9614 127.829 38.2388 126.111 39.9407C124.392 41.6427 122.042 42.4937 119.06 42.4937C117.033 42.4937 115.275 42.0965 113.784 41.3023C112.308 40.4918 111.206 39.341 110.477 37.8498C109.764 36.3585 109.407 34.7781 109.407 33.1086ZM116.239 33.1572C116.239 35.1672 116.563 36.626 117.212 37.5337C117.633 38.1334 118.249 38.4333 119.06 38.4333C119.87 38.4333 120.478 38.1334 120.883 37.5337C121.531 36.626 121.856 35.1672 121.856 33.1572C121.856 31.1635 121.531 29.7047 120.883 28.7808C120.478 28.1972 119.87 27.9055 119.06 27.9055C118.249 27.9055 117.633 28.1972 117.212 28.7808C116.563 29.6885 116.239 31.1473 116.239 33.1572ZM135.107 52.3893C135.107 50.7198 135.463 49.1475 136.176 47.6725C136.89 46.1812 137.992 45.0304 139.483 44.2199C140.974 43.4095 142.725 43.0043 144.735 43.0043C147.734 43.0043 150.092 43.8633 151.81 45.5815C153.528 47.2835 154.387 49.5527 154.387 52.3893C154.387 55.2259 153.528 57.5033 151.81 59.2215C150.092 60.9234 147.734 61.7744 144.735 61.7744C142.725 61.7744 140.974 61.3692 139.483 60.5587C137.992 59.7483 136.89 58.6055 136.176 57.1305C135.463 55.6393 135.107 54.0589 135.107 52.3893ZM141.939 52.438C141.939 54.4479 142.263 55.9067 142.911 56.8144C143.317 57.3979 143.924 57.6897 144.735 57.6897C145.545 57.6897 146.161 57.3979 146.583 56.8144C147.231 55.9067 147.555 54.4479 147.555 52.438C147.555 50.428 147.231 48.9611 146.583 48.0372C146.161 47.4537 145.545 47.1619 144.735 47.1619C143.924 47.1619 143.317 47.4618 142.911 48.0615C142.263 48.9692 141.939 50.428 141.939 52.438Z" fill="#900583"/>
<path d="M79.6575 46.893L89.0448 45.7541C89.3439 48.147 90.1492 49.9762 91.4607 51.2416C92.7722 52.5071 94.3597 53.1398 96.2234 53.1398C98.2251 53.1398 99.9047 52.3805 101.262 50.862C102.643 49.3434 103.333 47.2957 103.333 44.7188C103.333 42.2799 102.677 40.3472 101.366 38.9207C100.054 37.4942 98.4552 36.7809 96.5685 36.7809C95.3261 36.7809 93.842 37.0225 92.1164 37.5057L93.1863 29.6023C95.8092 29.6714 97.811 29.1077 99.1915 27.9112C100.572 26.6918 101.262 25.0812 101.262 23.0795C101.262 21.3769 100.756 20.0194 99.7437 19.0071C98.7313 17.9947 97.3853 17.4885 95.7057 17.4885C94.0491 17.4885 92.6341 18.0637 91.4607 19.2141C90.2873 20.3645 89.574 22.0441 89.3209 24.2529L80.3822 22.7344C81.0034 19.6743 81.9353 17.2354 83.1777 15.4178C84.4432 13.5771 86.1918 12.1391 88.4236 11.1037C90.6784 10.0453 93.1978 9.51615 95.9818 9.51615C100.745 9.51615 104.564 11.0347 107.44 14.0718C109.81 16.5567 110.995 19.3637 110.995 22.4928C110.995 26.9334 108.567 30.4767 103.713 33.1226C106.612 33.7438 108.924 35.1358 110.65 37.2986C112.398 39.4614 113.273 42.0728 113.273 45.1329C113.273 49.5735 111.65 53.3584 108.406 56.4875C105.162 59.6166 101.124 61.1812 96.2924 61.1812C91.7138 61.1812 87.9174 59.8697 84.9033 57.2468C81.8893 54.6008 80.1406 51.1496 79.6575 46.893Z" fill="#900583"/>
</svg>
