<svg width="68" height="70" viewBox="0 0 68 70" fill="none" xmlns="http://www.w3.org/2000/svg">
<g clip-path="url(#clip0)">
<path d="M56.3296 8.44177V6.56145C56.3296 5.76131 55.6894 5.0812 54.8493 5.0812H52.849C53.6491 5.0812 54.3292 4.44109 54.3292 3.60094V1.88065C54.3292 1.08051 53.6891 0.400391 52.849 0.400391H8.60135C7.80121 0.400391 7.12109 1.0405 7.12109 1.88065V3.76097C7.12109 4.56111 7.7612 5.24122 8.60135 5.24122H10.6017C9.80155 5.24122 9.12144 5.88133 9.12144 6.72148V8.6018C9.12144 9.40194 9.76155 10.0821 10.6017 10.0821H8.60135C7.80121 10.0821 7.12109 10.7222 7.12109 11.5623V13.4426C7.12109 14.2428 7.7612 14.9229 8.60135 14.9229H10.6017C9.80155 14.9229 9.12144 15.563 9.12144 16.4031V18.2835C9.12144 19.0836 9.76155 19.7637 10.6017 19.7637H8.60135C7.80121 19.7637 7.12109 20.4038 7.12109 21.244V23.1243C7.12109 23.9244 7.7612 24.6046 8.60135 24.6046H10.6017C9.80155 24.6046 9.12144 25.2447 9.12144 26.0848V27.9651C9.12144 28.7653 9.76155 29.4454 10.6017 29.4454H8.60135C7.80121 29.4454 7.12109 30.0855 7.12109 30.9256V32.806C7.12109 33.6061 7.7612 34.2862 8.60135 34.2862H10.6017C9.80155 34.2862 9.12144 34.9263 9.12144 35.7665V37.6468C9.12144 38.4469 9.76155 39.1271 10.6017 39.1271H8.60135C7.80121 39.1271 7.12109 39.7672 7.12109 40.6073V42.4876C7.12109 43.2878 7.7612 43.9679 8.60135 43.9679H10.6017C9.80155 43.9679 9.12144 44.608 9.12144 45.4481V47.3285C9.12144 48.1286 9.76155 48.8087 10.6017 48.8087H8.60135C7.80121 48.8087 7.12109 49.4488 7.12109 50.289V52.1693C7.12109 52.9694 7.7612 53.6495 8.60135 53.6495H52.889C53.6891 53.6495 54.3692 53.0094 54.3692 52.1693V50.289C54.3692 49.4888 53.7291 48.8087 52.889 48.8087H54.8893C55.6894 48.8087 56.3696 48.1686 56.3696 47.3285V45.4481C56.3696 44.648 55.7295 43.9679 54.8893 43.9679H52.889C53.6891 43.9679 54.3692 43.3278 54.3692 42.4876V40.6073C54.3692 39.8072 53.7291 39.1271 52.889 39.1271H54.8893C55.6894 39.1271 56.3696 38.4869 56.3696 37.6468V35.7665C56.3696 34.9663 55.7295 34.2862 54.8893 34.2862H52.889C53.6891 34.2862 54.3692 33.6461 54.3692 32.806V30.9256C54.3692 30.1255 53.7291 29.4454 52.889 29.4454H54.8893C55.6894 29.4454 56.3696 28.8053 56.3696 27.9651V26.0848C56.3696 25.2847 55.7295 24.6046 54.8893 24.6046H52.889C53.6891 24.6046 54.3692 23.9644 54.3692 23.1243V21.244C54.3692 20.4438 53.7291 19.7637 52.889 19.7637H54.8893C55.6894 19.7637 56.3696 19.1236 56.3696 18.2835V16.4031C56.3696 15.603 55.7295 14.9229 54.8893 14.9229H52.889C53.6891 14.9229 54.3692 14.2828 54.3692 13.4426V11.5623C54.3692 10.7622 53.7291 10.0821 52.889 10.0821H54.8893C55.6894 9.92203 56.3296 9.28192 56.3296 8.44177Z" fill="white"/>
<path d="M55.0095 10.002H10.7993C9.99985 10.002 9.32031 9.36718 9.32031 8.53398V6.66919C9.32031 5.87567 9.95988 5.20117 10.7993 5.20117H55.0494C55.8489 5.20117 56.5284 5.83599 56.5284 6.66919V8.53398C56.4885 9.36718 55.8489 10.002 55.0095 10.002Z" stroke="#DDDDDD" stroke-width="0.382721" stroke-miterlimit="10"/>
<path d="M53.0095 5.20122H8.79931C7.99985 5.20122 7.32031 4.56111 7.32031 3.72096V1.88064C7.32031 1.08051 7.95988 0.400391 8.79931 0.400391H53.0494C53.8489 0.400391 54.5284 1.0405 54.5284 1.88064V3.76097C54.4885 4.56111 53.8489 5.20122 53.0095 5.20122Z" stroke="#DDDDDD" stroke-width="0.382721" stroke-miterlimit="10"/>
<path d="M55.0095 29.2051H10.7993C9.99985 29.2051 9.32031 28.5703 9.32031 27.7371V25.8723C9.32031 25.0788 9.95988 24.4043 10.7993 24.4043H55.0494C55.8489 24.4043 56.5284 25.0391 56.5284 25.8723V27.7371C56.4885 28.5703 55.8489 29.2051 55.0095 29.2051Z" stroke="#DDDDDD" stroke-width="0.382721" stroke-miterlimit="10"/>
<path d="M53.0095 24.4043H8.79931C7.99985 24.4043 7.32031 23.7695 7.32031 22.9363V21.0715C7.32031 20.278 7.95988 19.6035 8.79931 19.6035H53.0494C53.8489 19.6035 54.5284 20.2383 54.5284 21.0715V22.9363C54.4885 23.7695 53.8489 24.4043 53.0095 24.4043Z" stroke="#DDDDDD" stroke-width="0.382721" stroke-miterlimit="10"/>
<path d="M55.0095 19.6036H10.7993C9.99985 19.6036 9.32031 18.9687 9.32031 18.1355V16.2708C9.32031 15.4772 9.95988 14.8027 10.7993 14.8027H55.0494C55.8489 14.8027 56.5284 15.4376 56.5284 16.2708V18.1355C56.4885 18.9687 55.8489 19.6036 55.0095 19.6036Z" stroke="#DDDDDD" stroke-width="0.382721" stroke-miterlimit="10"/>
<path d="M53.0095 14.8028H8.79931C7.99985 14.8028 7.32031 14.168 7.32031 13.3348V11.47C7.32031 10.6764 7.95988 10.002 8.79931 10.002H53.0494C53.8489 10.002 54.5284 10.6368 54.5284 11.47V13.3348C54.4885 14.168 53.8489 14.8028 53.0095 14.8028Z" stroke="#DDDDDD" stroke-width="0.382721" stroke-miterlimit="10"/>
<path d="M55.0095 38.8086H10.7993C9.99985 38.8086 9.32031 38.1738 9.32031 37.3406V35.4758C9.32031 34.6823 9.95988 34.0078 10.7993 34.0078H55.0494C55.8489 34.0078 56.5284 34.6426 56.5284 35.4758V37.3406C56.4885 38.1738 55.8489 38.8086 55.0095 38.8086Z" stroke="#DDDDDD" stroke-width="0.382721" stroke-miterlimit="10"/>
<path d="M53.0095 34.0059H8.79931C7.99985 34.0059 7.32031 33.3711 7.32031 32.5379V30.6731C7.32031 29.8796 7.95988 29.2051 8.79931 29.2051H53.0494C53.8489 29.2051 54.5284 29.8399 54.5284 30.6731V32.5379C54.4885 33.3711 53.8489 34.0059 53.0095 34.0059Z" stroke="#DDDDDD" stroke-width="0.382721" stroke-miterlimit="10"/>
<path d="M53.0095 53.209H8.79931C7.99985 53.209 7.32031 52.5742 7.32031 51.741V49.8762C7.32031 49.0827 7.95988 48.4082 8.79931 48.4082H53.0494C53.8489 48.4082 54.5284 49.043 54.5284 49.8762V51.741C54.4885 52.5742 53.8489 53.209 53.0095 53.209Z" stroke="#DDDDDD" stroke-width="0.382721" stroke-miterlimit="10"/>
<path d="M55.0095 48.4082H10.7993C9.99985 48.4082 9.32031 47.7734 9.32031 46.9402V45.0754C9.32031 44.2819 9.95988 43.6074 10.7993 43.6074H55.0494C55.8489 43.6074 56.5284 44.2422 56.5284 45.0754V46.9402C56.4885 47.7734 55.8489 48.4082 55.0095 48.4082Z" stroke="#DDDDDD" stroke-width="0.382721" stroke-miterlimit="10"/>
<path d="M53.0095 43.6075H8.79931C7.99985 43.6075 7.32031 42.9726 7.32031 42.1394V40.2747C7.32031 39.4811 7.95988 38.8066 8.79931 38.8066H53.0494C53.8489 38.8066 54.5284 39.4415 54.5284 40.2747V42.1394C54.4885 42.9726 53.8489 43.6075 53.0095 43.6075Z" stroke="#DDDDDD" stroke-width="0.382721" stroke-miterlimit="10"/>
<path d="M7.23828 1.20117H54.2064" stroke="#DDDDDD" stroke-width="0.191361" stroke-miterlimit="10"/>
<path d="M7.23828 4.40234H54.2064" stroke="#DDDDDD" stroke-width="0.191361" stroke-miterlimit="10"/>
<path d="M8.27734 1.20312V4.40368" stroke="#DDDDDD" stroke-width="0.191361" stroke-miterlimit="10"/>
<path d="M9.875 1.20312V4.40368" stroke="#DDDDDD" stroke-width="0.191361" stroke-miterlimit="10"/>
<path d="M11.4766 1.20312V4.40368" stroke="#DDDDDD" stroke-width="0.191361" stroke-miterlimit="10"/>
<path d="M13.0781 1.20312V4.40368" stroke="#DDDDDD" stroke-width="0.191361" stroke-miterlimit="10"/>
<path d="M14.6797 1.20312V4.40368" stroke="#DDDDDD" stroke-width="0.191361" stroke-miterlimit="10"/>
<path d="M16.2773 1.20312V4.40368" stroke="#DDDDDD" stroke-width="0.191361" stroke-miterlimit="10"/>
<path d="M17.8789 1.20312V4.40368" stroke="#DDDDDD" stroke-width="0.191361" stroke-miterlimit="10"/>
<path d="M19.4766 1.20312V4.40368" stroke="#DDDDDD" stroke-width="0.191361" stroke-miterlimit="10"/>
<path d="M21.082 1.20312V4.40368" stroke="#DDDDDD" stroke-width="0.191361" stroke-miterlimit="10"/>
<path d="M22.6797 1.20312V4.40368" stroke="#DDDDDD" stroke-width="0.191361" stroke-miterlimit="10"/>
<path d="M24.2812 1.20312V4.40368" stroke="#DDDDDD" stroke-width="0.191361" stroke-miterlimit="10"/>
<path d="M25.8789 1.20312V4.40368" stroke="#DDDDDD" stroke-width="0.191361" stroke-miterlimit="10"/>
<path d="M27.4805 1.20312V4.40368" stroke="#DDDDDD" stroke-width="0.191361" stroke-miterlimit="10"/>
<path d="M29.0781 1.20312V4.40368" stroke="#DDDDDD" stroke-width="0.191361" stroke-miterlimit="10"/>
<path d="M30.6836 1.20312V4.40368" stroke="#DDDDDD" stroke-width="0.191361" stroke-miterlimit="10"/>
<path d="M32.2812 1.20312V4.40368" stroke="#DDDDDD" stroke-width="0.191361" stroke-miterlimit="10"/>
<path d="M33.8828 1.20312V4.40368" stroke="#DDDDDD" stroke-width="0.191361" stroke-miterlimit="10"/>
<path d="M35.4805 1.20312V4.40368" stroke="#DDDDDD" stroke-width="0.191361" stroke-miterlimit="10"/>
<path d="M37.082 1.20312V4.40368" stroke="#DDDDDD" stroke-width="0.191361" stroke-miterlimit="10"/>
<path d="M38.6836 1.20312V4.40368" stroke="#DDDDDD" stroke-width="0.191361" stroke-miterlimit="10"/>
<path d="M40.2852 1.20312V4.40368" stroke="#DDDDDD" stroke-width="0.191361" stroke-miterlimit="10"/>
<path d="M41.8828 1.20312V4.40368" stroke="#DDDDDD" stroke-width="0.191361" stroke-miterlimit="10"/>
<path d="M43.4844 1.20312V4.40368" stroke="#DDDDDD" stroke-width="0.191361" stroke-miterlimit="10"/>
<path d="M45.082 1.20312V4.40368" stroke="#DDDDDD" stroke-width="0.191361" stroke-miterlimit="10"/>
<path d="M46.6836 1.20312V4.40368" stroke="#DDDDDD" stroke-width="0.191361" stroke-miterlimit="10"/>
<path d="M48.2852 1.20312V4.40368" stroke="#DDDDDD" stroke-width="0.191361" stroke-miterlimit="10"/>
<path d="M49.8828 1.20312V4.40368" stroke="#DDDDDD" stroke-width="0.191361" stroke-miterlimit="10"/>
<path d="M51.4844 1.20312V4.40368" stroke="#DDDDDD" stroke-width="0.191361" stroke-miterlimit="10"/>
<path d="M53.082 1.20312V4.40368" stroke="#DDDDDD" stroke-width="0.191361" stroke-miterlimit="10"/>
<path d="M9.24219 6.00195H56.2103" stroke="#DDDDDD" stroke-width="0.191361" stroke-miterlimit="10"/>
<path d="M9.24219 9.20312H56.2103" stroke="#DDDDDD" stroke-width="0.191361" stroke-miterlimit="10"/>
<path d="M10.2812 6.00195V9.2025" stroke="#DDDDDD" stroke-width="0.191361" stroke-miterlimit="10"/>
<path d="M11.8789 6.00195V9.2025" stroke="#DDDDDD" stroke-width="0.191361" stroke-miterlimit="10"/>
<path d="M13.4805 6.00195V9.2025" stroke="#DDDDDD" stroke-width="0.191361" stroke-miterlimit="10"/>
<path d="M15.082 6.00195V9.2025" stroke="#DDDDDD" stroke-width="0.191361" stroke-miterlimit="10"/>
<path d="M16.6836 6.00195V9.2025" stroke="#DDDDDD" stroke-width="0.191361" stroke-miterlimit="10"/>
<path d="M18.2812 6.00195V9.2025" stroke="#DDDDDD" stroke-width="0.191361" stroke-miterlimit="10"/>
<path d="M19.8828 6.00195V9.2025" stroke="#DDDDDD" stroke-width="0.191361" stroke-miterlimit="10"/>
<path d="M21.4805 6.00195V9.2025" stroke="#DDDDDD" stroke-width="0.191361" stroke-miterlimit="10"/>
<path d="M23.0859 6.00195V9.2025" stroke="#DDDDDD" stroke-width="0.191361" stroke-miterlimit="10"/>
<path d="M24.6836 6.00195V9.2025" stroke="#DDDDDD" stroke-width="0.191361" stroke-miterlimit="10"/>
<path d="M26.2852 6.00195V9.2025" stroke="#DDDDDD" stroke-width="0.191361" stroke-miterlimit="10"/>
<path d="M27.8828 6.00195V9.2025" stroke="#DDDDDD" stroke-width="0.191361" stroke-miterlimit="10"/>
<path d="M29.4844 6.00195V9.2025" stroke="#DDDDDD" stroke-width="0.191361" stroke-miterlimit="10"/>
<path d="M31.082 6.00195V9.2025" stroke="#DDDDDD" stroke-width="0.191361" stroke-miterlimit="10"/>
<path d="M32.6875 6.00195V9.2025" stroke="#DDDDDD" stroke-width="0.191361" stroke-miterlimit="10"/>
<path d="M34.2852 6.00195V9.2025" stroke="#DDDDDD" stroke-width="0.191361" stroke-miterlimit="10"/>
<path d="M35.8828 6.00195V9.2025" stroke="#DDDDDD" stroke-width="0.191361" stroke-miterlimit="10"/>
<path d="M37.4844 6.00195V9.2025" stroke="#DDDDDD" stroke-width="0.191361" stroke-miterlimit="10"/>
<path d="M39.0859 6.00195V9.2025" stroke="#DDDDDD" stroke-width="0.191361" stroke-miterlimit="10"/>
<path d="M40.6875 6.00195V9.2025" stroke="#DDDDDD" stroke-width="0.191361" stroke-miterlimit="10"/>
<path d="M42.2852 6.00195V9.2025" stroke="#DDDDDD" stroke-width="0.191361" stroke-miterlimit="10"/>
<path d="M43.8867 6.00195V9.2025" stroke="#DDDDDD" stroke-width="0.191361" stroke-miterlimit="10"/>
<path d="M45.4844 6.00195V9.2025" stroke="#DDDDDD" stroke-width="0.191361" stroke-miterlimit="10"/>
<path d="M47.0859 6.00195V9.2025" stroke="#DDDDDD" stroke-width="0.191361" stroke-miterlimit="10"/>
<path d="M48.6875 6.00195V9.2025" stroke="#DDDDDD" stroke-width="0.191361" stroke-miterlimit="10"/>
<path d="M50.2891 6.00195V9.2025" stroke="#DDDDDD" stroke-width="0.191361" stroke-miterlimit="10"/>
<path d="M51.8867 6.00195V9.2025" stroke="#DDDDDD" stroke-width="0.191361" stroke-miterlimit="10"/>
<path d="M53.4883 6.00195V9.2025" stroke="#DDDDDD" stroke-width="0.191361" stroke-miterlimit="10"/>
<path d="M55.0859 6.00195V9.2025" stroke="#DDDDDD" stroke-width="0.191361" stroke-miterlimit="10"/>
<path d="M7.23828 10.8027H54.2064" stroke="#DDDDDD" stroke-width="0.191361" stroke-miterlimit="10"/>
<path d="M7.23828 14.002H54.2064" stroke="#DDDDDD" stroke-width="0.191361" stroke-miterlimit="10"/>
<path d="M8.27734 10.8008V14.0013" stroke="#DDDDDD" stroke-width="0.191361" stroke-miterlimit="10"/>
<path d="M9.875 10.8008V14.0013" stroke="#DDDDDD" stroke-width="0.191361" stroke-miterlimit="10"/>
<path d="M11.4766 10.8008V14.0013" stroke="#DDDDDD" stroke-width="0.191361" stroke-miterlimit="10"/>
<path d="M13.0781 10.8008V14.0013" stroke="#DDDDDD" stroke-width="0.191361" stroke-miterlimit="10"/>
<path d="M14.6797 10.8008V14.0013" stroke="#DDDDDD" stroke-width="0.191361" stroke-miterlimit="10"/>
<path d="M16.2773 10.8008V14.0013" stroke="#DDDDDD" stroke-width="0.191361" stroke-miterlimit="10"/>
<path d="M17.8789 10.8008V14.0013" stroke="#DDDDDD" stroke-width="0.191361" stroke-miterlimit="10"/>
<path d="M19.4766 10.8008V14.0013" stroke="#DDDDDD" stroke-width="0.191361" stroke-miterlimit="10"/>
<path d="M21.082 10.8008V14.0013" stroke="#DDDDDD" stroke-width="0.191361" stroke-miterlimit="10"/>
<path d="M22.6797 10.8008V14.0013" stroke="#DDDDDD" stroke-width="0.191361" stroke-miterlimit="10"/>
<path d="M24.2812 10.8008V14.0013" stroke="#DDDDDD" stroke-width="0.191361" stroke-miterlimit="10"/>
<path d="M25.8789 10.8008V14.0013" stroke="#DDDDDD" stroke-width="0.191361" stroke-miterlimit="10"/>
<path d="M27.4805 10.8008V14.0013" stroke="#DDDDDD" stroke-width="0.191361" stroke-miterlimit="10"/>
<path d="M29.0781 10.8008V14.0013" stroke="#DDDDDD" stroke-width="0.191361" stroke-miterlimit="10"/>
<path d="M30.6836 10.8008V14.0013" stroke="#DDDDDD" stroke-width="0.191361" stroke-miterlimit="10"/>
<path d="M32.2812 10.8008V14.0013" stroke="#DDDDDD" stroke-width="0.191361" stroke-miterlimit="10"/>
<path d="M33.8828 10.8008V14.0013" stroke="#DDDDDD" stroke-width="0.191361" stroke-miterlimit="10"/>
<path d="M35.4805 10.8008V14.0013" stroke="#DDDDDD" stroke-width="0.191361" stroke-miterlimit="10"/>
<path d="M37.082 10.8008V14.0013" stroke="#DDDDDD" stroke-width="0.191361" stroke-miterlimit="10"/>
<path d="M38.6836 10.8008V14.0013" stroke="#DDDDDD" stroke-width="0.191361" stroke-miterlimit="10"/>
<path d="M40.2852 10.8008V14.0013" stroke="#DDDDDD" stroke-width="0.191361" stroke-miterlimit="10"/>
<path d="M41.8828 10.8008V14.0013" stroke="#DDDDDD" stroke-width="0.191361" stroke-miterlimit="10"/>
<path d="M43.4844 10.8008V14.0013" stroke="#DDDDDD" stroke-width="0.191361" stroke-miterlimit="10"/>
<path d="M45.082 10.8008V14.0013" stroke="#DDDDDD" stroke-width="0.191361" stroke-miterlimit="10"/>
<path d="M46.6836 10.8008V14.0013" stroke="#DDDDDD" stroke-width="0.191361" stroke-miterlimit="10"/>
<path d="M48.2852 10.8008V14.0013" stroke="#DDDDDD" stroke-width="0.191361" stroke-miterlimit="10"/>
<path d="M49.8828 10.8008V14.0013" stroke="#DDDDDD" stroke-width="0.191361" stroke-miterlimit="10"/>
<path d="M51.4844 10.8008V14.0013" stroke="#DDDDDD" stroke-width="0.191361" stroke-miterlimit="10"/>
<path d="M53.082 10.8008V14.0013" stroke="#DDDDDD" stroke-width="0.191361" stroke-miterlimit="10"/>
<path d="M9.24219 15.6055H56.2103" stroke="#DDDDDD" stroke-width="0.191361" stroke-miterlimit="10"/>
<path d="M9.24219 18.8027H56.2103" stroke="#DDDDDD" stroke-width="0.191361" stroke-miterlimit="10"/>
<path d="M10.2812 15.6035V18.8041" stroke="#DDDDDD" stroke-width="0.191361" stroke-miterlimit="10"/>
<path d="M11.8789 15.6035V18.8041" stroke="#DDDDDD" stroke-width="0.191361" stroke-miterlimit="10"/>
<path d="M13.4805 15.6035V18.8041" stroke="#DDDDDD" stroke-width="0.191361" stroke-miterlimit="10"/>
<path d="M15.082 15.6035V18.8041" stroke="#DDDDDD" stroke-width="0.191361" stroke-miterlimit="10"/>
<path d="M16.6836 15.6035V18.8041" stroke="#DDDDDD" stroke-width="0.191361" stroke-miterlimit="10"/>
<path d="M18.2812 15.6035V18.8041" stroke="#DDDDDD" stroke-width="0.191361" stroke-miterlimit="10"/>
<path d="M19.8828 15.6035V18.8041" stroke="#DDDDDD" stroke-width="0.191361" stroke-miterlimit="10"/>
<path d="M21.4805 15.6035V18.8041" stroke="#DDDDDD" stroke-width="0.191361" stroke-miterlimit="10"/>
<path d="M23.0859 15.6035V18.8041" stroke="#DDDDDD" stroke-width="0.191361" stroke-miterlimit="10"/>
<path d="M24.6836 15.6035V18.8041" stroke="#DDDDDD" stroke-width="0.191361" stroke-miterlimit="10"/>
<path d="M26.2852 15.6035V18.8041" stroke="#DDDDDD" stroke-width="0.191361" stroke-miterlimit="10"/>
<path d="M27.8828 15.6035V18.8041" stroke="#DDDDDD" stroke-width="0.191361" stroke-miterlimit="10"/>
<path d="M29.4844 15.6035V18.8041" stroke="#DDDDDD" stroke-width="0.191361" stroke-miterlimit="10"/>
<path d="M31.082 15.6035V18.8041" stroke="#DDDDDD" stroke-width="0.191361" stroke-miterlimit="10"/>
<path d="M32.6875 15.6035V18.8041" stroke="#DDDDDD" stroke-width="0.191361" stroke-miterlimit="10"/>
<path d="M34.2852 15.6035V18.8041" stroke="#DDDDDD" stroke-width="0.191361" stroke-miterlimit="10"/>
<path d="M35.8828 15.6035V18.8041" stroke="#DDDDDD" stroke-width="0.191361" stroke-miterlimit="10"/>
<path d="M37.4844 15.6035V18.8041" stroke="#DDDDDD" stroke-width="0.191361" stroke-miterlimit="10"/>
<path d="M39.0859 15.6035V18.8041" stroke="#DDDDDD" stroke-width="0.191361" stroke-miterlimit="10"/>
<path d="M40.6875 15.6035V18.8041" stroke="#DDDDDD" stroke-width="0.191361" stroke-miterlimit="10"/>
<path d="M42.2852 15.6035V18.8041" stroke="#DDDDDD" stroke-width="0.191361" stroke-miterlimit="10"/>
<path d="M43.8867 15.6035V18.8041" stroke="#DDDDDD" stroke-width="0.191361" stroke-miterlimit="10"/>
<path d="M45.4844 15.6035V18.8041" stroke="#DDDDDD" stroke-width="0.191361" stroke-miterlimit="10"/>
<path d="M47.0859 15.6035V18.8041" stroke="#DDDDDD" stroke-width="0.191361" stroke-miterlimit="10"/>
<path d="M48.6875 15.6035V18.8041" stroke="#DDDDDD" stroke-width="0.191361" stroke-miterlimit="10"/>
<path d="M50.2891 15.6035V18.8041" stroke="#DDDDDD" stroke-width="0.191361" stroke-miterlimit="10"/>
<path d="M51.8867 15.6035V18.8041" stroke="#DDDDDD" stroke-width="0.191361" stroke-miterlimit="10"/>
<path d="M53.4883 15.6035V18.8041" stroke="#DDDDDD" stroke-width="0.191361" stroke-miterlimit="10"/>
<path d="M55.0859 15.6035V18.8041" stroke="#DDDDDD" stroke-width="0.191361" stroke-miterlimit="10"/>
<path d="M7.23828 20.4043H54.2064" stroke="#DDDDDD" stroke-width="0.191361" stroke-miterlimit="10"/>
<path d="M7.23828 23.6055H54.2064" stroke="#DDDDDD" stroke-width="0.191361" stroke-miterlimit="10"/>
<path d="M8.27734 20.4043V23.6048" stroke="#DDDDDD" stroke-width="0.191361" stroke-miterlimit="10"/>
<path d="M9.875 20.4043V23.6048" stroke="#DDDDDD" stroke-width="0.191361" stroke-miterlimit="10"/>
<path d="M11.4766 20.4043V23.6048" stroke="#DDDDDD" stroke-width="0.191361" stroke-miterlimit="10"/>
<path d="M13.0781 20.4043V23.6048" stroke="#DDDDDD" stroke-width="0.191361" stroke-miterlimit="10"/>
<path d="M14.6797 20.4043V23.6048" stroke="#DDDDDD" stroke-width="0.191361" stroke-miterlimit="10"/>
<path d="M16.2773 20.4043V23.6048" stroke="#DDDDDD" stroke-width="0.191361" stroke-miterlimit="10"/>
<path d="M17.8789 20.4043V23.6048" stroke="#DDDDDD" stroke-width="0.191361" stroke-miterlimit="10"/>
<path d="M19.4766 20.4043V23.6048" stroke="#DDDDDD" stroke-width="0.191361" stroke-miterlimit="10"/>
<path d="M21.082 20.4043V23.6048" stroke="#DDDDDD" stroke-width="0.191361" stroke-miterlimit="10"/>
<path d="M22.6797 20.4043V23.6048" stroke="#DDDDDD" stroke-width="0.191361" stroke-miterlimit="10"/>
<path d="M24.2812 20.4043V23.6048" stroke="#DDDDDD" stroke-width="0.191361" stroke-miterlimit="10"/>
<path d="M25.8789 20.4043V23.6048" stroke="#DDDDDD" stroke-width="0.191361" stroke-miterlimit="10"/>
<path d="M27.4805 20.4043V23.6048" stroke="#DDDDDD" stroke-width="0.191361" stroke-miterlimit="10"/>
<path d="M29.0781 20.4043V23.6048" stroke="#DDDDDD" stroke-width="0.191361" stroke-miterlimit="10"/>
<path d="M30.6836 20.4043V23.6048" stroke="#DDDDDD" stroke-width="0.191361" stroke-miterlimit="10"/>
<path d="M32.2812 20.4043V23.6048" stroke="#DDDDDD" stroke-width="0.191361" stroke-miterlimit="10"/>
<path d="M33.8828 20.4043V23.6048" stroke="#DDDDDD" stroke-width="0.191361" stroke-miterlimit="10"/>
<path d="M35.4805 20.4043V23.6048" stroke="#DDDDDD" stroke-width="0.191361" stroke-miterlimit="10"/>
<path d="M37.082 20.4043V23.6048" stroke="#DDDDDD" stroke-width="0.191361" stroke-miterlimit="10"/>
<path d="M38.6836 20.4043V23.6048" stroke="#DDDDDD" stroke-width="0.191361" stroke-miterlimit="10"/>
<path d="M40.2852 20.4043V23.6048" stroke="#DDDDDD" stroke-width="0.191361" stroke-miterlimit="10"/>
<path d="M41.8828 20.4043V23.6048" stroke="#DDDDDD" stroke-width="0.191361" stroke-miterlimit="10"/>
<path d="M43.4844 20.4043V23.6048" stroke="#DDDDDD" stroke-width="0.191361" stroke-miterlimit="10"/>
<path d="M45.082 20.4043V23.6048" stroke="#DDDDDD" stroke-width="0.191361" stroke-miterlimit="10"/>
<path d="M46.6836 20.4043V23.6048" stroke="#DDDDDD" stroke-width="0.191361" stroke-miterlimit="10"/>
<path d="M48.2852 20.4043V23.6048" stroke="#DDDDDD" stroke-width="0.191361" stroke-miterlimit="10"/>
<path d="M49.8828 20.4043V23.6048" stroke="#DDDDDD" stroke-width="0.191361" stroke-miterlimit="10"/>
<path d="M51.4844 20.4043V23.6048" stroke="#DDDDDD" stroke-width="0.191361" stroke-miterlimit="10"/>
<path d="M53.082 20.4043V23.6048" stroke="#DDDDDD" stroke-width="0.191361" stroke-miterlimit="10"/>
<path d="M9.24219 25.2051H56.2103" stroke="#DDDDDD" stroke-width="0.191361" stroke-miterlimit="10"/>
<path d="M9.24219 28.4062H56.2103" stroke="#DDDDDD" stroke-width="0.191361" stroke-miterlimit="10"/>
<path d="M10.2812 25.2051V28.4056" stroke="#DDDDDD" stroke-width="0.191361" stroke-miterlimit="10"/>
<path d="M11.8789 25.2051V28.4056" stroke="#DDDDDD" stroke-width="0.191361" stroke-miterlimit="10"/>
<path d="M13.4805 25.2051V28.4056" stroke="#DDDDDD" stroke-width="0.191361" stroke-miterlimit="10"/>
<path d="M15.082 25.2051V28.4056" stroke="#DDDDDD" stroke-width="0.191361" stroke-miterlimit="10"/>
<path d="M16.6836 25.2051V28.4056" stroke="#DDDDDD" stroke-width="0.191361" stroke-miterlimit="10"/>
<path d="M18.2812 25.2051V28.4056" stroke="#DDDDDD" stroke-width="0.191361" stroke-miterlimit="10"/>
<path d="M19.8828 25.2051V28.4056" stroke="#DDDDDD" stroke-width="0.191361" stroke-miterlimit="10"/>
<path d="M21.4805 25.2051V28.4056" stroke="#DDDDDD" stroke-width="0.191361" stroke-miterlimit="10"/>
<path d="M23.0859 25.2051V28.4056" stroke="#DDDDDD" stroke-width="0.191361" stroke-miterlimit="10"/>
<path d="M24.6836 25.2051V28.4056" stroke="#DDDDDD" stroke-width="0.191361" stroke-miterlimit="10"/>
<path d="M26.2852 25.2051V28.4056" stroke="#DDDDDD" stroke-width="0.191361" stroke-miterlimit="10"/>
<path d="M27.8828 25.2051V28.4056" stroke="#DDDDDD" stroke-width="0.191361" stroke-miterlimit="10"/>
<path d="M29.4844 25.2051V28.4056" stroke="#DDDDDD" stroke-width="0.191361" stroke-miterlimit="10"/>
<path d="M31.082 25.2051V28.4056" stroke="#DDDDDD" stroke-width="0.191361" stroke-miterlimit="10"/>
<path d="M32.6875 25.2051V28.4056" stroke="#DDDDDD" stroke-width="0.191361" stroke-miterlimit="10"/>
<path d="M34.2852 25.2051V28.4056" stroke="#DDDDDD" stroke-width="0.191361" stroke-miterlimit="10"/>
<path d="M35.8828 25.2051V28.4056" stroke="#DDDDDD" stroke-width="0.191361" stroke-miterlimit="10"/>
<path d="M37.4844 25.2051V28.4056" stroke="#DDDDDD" stroke-width="0.191361" stroke-miterlimit="10"/>
<path d="M39.0859 25.2051V28.4056" stroke="#DDDDDD" stroke-width="0.191361" stroke-miterlimit="10"/>
<path d="M40.6875 25.2051V28.4056" stroke="#DDDDDD" stroke-width="0.191361" stroke-miterlimit="10"/>
<path d="M42.2852 25.2051V28.4056" stroke="#DDDDDD" stroke-width="0.191361" stroke-miterlimit="10"/>
<path d="M43.8867 25.2051V28.4056" stroke="#DDDDDD" stroke-width="0.191361" stroke-miterlimit="10"/>
<path d="M45.4844 25.2051V28.4056" stroke="#DDDDDD" stroke-width="0.191361" stroke-miterlimit="10"/>
<path d="M47.0859 25.2051V28.4056" stroke="#DDDDDD" stroke-width="0.191361" stroke-miterlimit="10"/>
<path d="M48.6875 25.2051V28.4056" stroke="#DDDDDD" stroke-width="0.191361" stroke-miterlimit="10"/>
<path d="M50.2891 25.2051V28.4056" stroke="#DDDDDD" stroke-width="0.191361" stroke-miterlimit="10"/>
<path d="M51.8867 25.2051V28.4056" stroke="#DDDDDD" stroke-width="0.191361" stroke-miterlimit="10"/>
<path d="M53.4883 25.2051V28.4056" stroke="#DDDDDD" stroke-width="0.191361" stroke-miterlimit="10"/>
<path d="M55.0859 25.2051V28.4056" stroke="#DDDDDD" stroke-width="0.191361" stroke-miterlimit="10"/>
<path d="M7.23828 30.0078H54.2064" stroke="#DDDDDD" stroke-width="0.191361" stroke-miterlimit="10"/>
<path d="M7.23828 33.207H54.2064" stroke="#DDDDDD" stroke-width="0.191361" stroke-miterlimit="10"/>
<path d="M8.27734 30.0059V33.2064" stroke="#DDDDDD" stroke-width="0.191361" stroke-miterlimit="10"/>
<path d="M9.875 30.0059V33.2064" stroke="#DDDDDD" stroke-width="0.191361" stroke-miterlimit="10"/>
<path d="M11.4766 30.0059V33.2064" stroke="#DDDDDD" stroke-width="0.191361" stroke-miterlimit="10"/>
<path d="M13.0781 30.0059V33.2064" stroke="#DDDDDD" stroke-width="0.191361" stroke-miterlimit="10"/>
<path d="M14.6797 30.0059V33.2064" stroke="#DDDDDD" stroke-width="0.191361" stroke-miterlimit="10"/>
<path d="M16.2773 30.0059V33.2064" stroke="#DDDDDD" stroke-width="0.191361" stroke-miterlimit="10"/>
<path d="M17.8789 30.0059V33.2064" stroke="#DDDDDD" stroke-width="0.191361" stroke-miterlimit="10"/>
<path d="M19.4766 30.0059V33.2064" stroke="#DDDDDD" stroke-width="0.191361" stroke-miterlimit="10"/>
<path d="M21.082 30.0059V33.2064" stroke="#DDDDDD" stroke-width="0.191361" stroke-miterlimit="10"/>
<path d="M22.6797 30.0059V33.2064" stroke="#DDDDDD" stroke-width="0.191361" stroke-miterlimit="10"/>
<path d="M24.2812 30.0059V33.2064" stroke="#DDDDDD" stroke-width="0.191361" stroke-miterlimit="10"/>
<path d="M25.8789 30.0059V33.2064" stroke="#DDDDDD" stroke-width="0.191361" stroke-miterlimit="10"/>
<path d="M27.4805 30.0059V33.2064" stroke="#DDDDDD" stroke-width="0.191361" stroke-miterlimit="10"/>
<path d="M29.0781 30.0059V33.2064" stroke="#DDDDDD" stroke-width="0.191361" stroke-miterlimit="10"/>
<path d="M30.6836 30.0059V33.2064" stroke="#DDDDDD" stroke-width="0.191361" stroke-miterlimit="10"/>
<path d="M32.2812 30.0059V33.2064" stroke="#DDDDDD" stroke-width="0.191361" stroke-miterlimit="10"/>
<path d="M33.8828 30.0059V33.2064" stroke="#DDDDDD" stroke-width="0.191361" stroke-miterlimit="10"/>
<path d="M35.4805 30.0059V33.2064" stroke="#DDDDDD" stroke-width="0.191361" stroke-miterlimit="10"/>
<path d="M37.082 30.0059V33.2064" stroke="#DDDDDD" stroke-width="0.191361" stroke-miterlimit="10"/>
<path d="M38.6836 30.0059V33.2064" stroke="#DDDDDD" stroke-width="0.191361" stroke-miterlimit="10"/>
<path d="M40.2852 30.0059V33.2064" stroke="#DDDDDD" stroke-width="0.191361" stroke-miterlimit="10"/>
<path d="M41.8828 30.0059V33.2064" stroke="#DDDDDD" stroke-width="0.191361" stroke-miterlimit="10"/>
<path d="M43.4844 30.0059V33.2064" stroke="#DDDDDD" stroke-width="0.191361" stroke-miterlimit="10"/>
<path d="M45.082 30.0059V33.2064" stroke="#DDDDDD" stroke-width="0.191361" stroke-miterlimit="10"/>
<path d="M46.6836 30.0059V33.2064" stroke="#DDDDDD" stroke-width="0.191361" stroke-miterlimit="10"/>
<path d="M48.2852 30.0059V33.2064" stroke="#DDDDDD" stroke-width="0.191361" stroke-miterlimit="10"/>
<path d="M49.8828 30.0059V33.2064" stroke="#DDDDDD" stroke-width="0.191361" stroke-miterlimit="10"/>
<path d="M51.4844 30.0059V33.2064" stroke="#DDDDDD" stroke-width="0.191361" stroke-miterlimit="10"/>
<path d="M53.082 30.0059V33.2064" stroke="#DDDDDD" stroke-width="0.191361" stroke-miterlimit="10"/>
<path d="M9.24219 34.8066H56.2103" stroke="#DDDDDD" stroke-width="0.191361" stroke-miterlimit="10"/>
<path d="M9.24219 38.0078H56.2103" stroke="#DDDDDD" stroke-width="0.191361" stroke-miterlimit="10"/>
<path d="M10.2812 34.8066V38.0072" stroke="#DDDDDD" stroke-width="0.191361" stroke-miterlimit="10"/>
<path d="M11.8789 34.8066V38.0072" stroke="#DDDDDD" stroke-width="0.191361" stroke-miterlimit="10"/>
<path d="M13.4805 34.8066V38.0072" stroke="#DDDDDD" stroke-width="0.191361" stroke-miterlimit="10"/>
<path d="M15.082 34.8066V38.0072" stroke="#DDDDDD" stroke-width="0.191361" stroke-miterlimit="10"/>
<path d="M16.6836 34.8066V38.0072" stroke="#DDDDDD" stroke-width="0.191361" stroke-miterlimit="10"/>
<path d="M18.2812 34.8066V38.0072" stroke="#DDDDDD" stroke-width="0.191361" stroke-miterlimit="10"/>
<path d="M19.8828 34.8066V38.0072" stroke="#DDDDDD" stroke-width="0.191361" stroke-miterlimit="10"/>
<path d="M21.4805 34.8066V38.0072" stroke="#DDDDDD" stroke-width="0.191361" stroke-miterlimit="10"/>
<path d="M23.0859 34.8066V38.0072" stroke="#DDDDDD" stroke-width="0.191361" stroke-miterlimit="10"/>
<path d="M24.6836 34.8066V38.0072" stroke="#DDDDDD" stroke-width="0.191361" stroke-miterlimit="10"/>
<path d="M26.2852 34.8066V38.0072" stroke="#DDDDDD" stroke-width="0.191361" stroke-miterlimit="10"/>
<path d="M27.8828 34.8066V38.0072" stroke="#DDDDDD" stroke-width="0.191361" stroke-miterlimit="10"/>
<path d="M29.4844 34.8066V38.0072" stroke="#DDDDDD" stroke-width="0.191361" stroke-miterlimit="10"/>
<path d="M31.082 34.8066V38.0072" stroke="#DDDDDD" stroke-width="0.191361" stroke-miterlimit="10"/>
<path d="M32.6875 34.8066V38.0072" stroke="#DDDDDD" stroke-width="0.191361" stroke-miterlimit="10"/>
<path d="M34.2852 34.8066V38.0072" stroke="#DDDDDD" stroke-width="0.191361" stroke-miterlimit="10"/>
<path d="M35.8828 34.8066V38.0072" stroke="#DDDDDD" stroke-width="0.191361" stroke-miterlimit="10"/>
<path d="M37.4844 34.8066V38.0072" stroke="#DDDDDD" stroke-width="0.191361" stroke-miterlimit="10"/>
<path d="M39.0859 34.8066V38.0072" stroke="#DDDDDD" stroke-width="0.191361" stroke-miterlimit="10"/>
<path d="M40.6875 34.8066V38.0072" stroke="#DDDDDD" stroke-width="0.191361" stroke-miterlimit="10"/>
<path d="M42.2852 34.8066V38.0072" stroke="#DDDDDD" stroke-width="0.191361" stroke-miterlimit="10"/>
<path d="M43.8867 34.8066V38.0072" stroke="#DDDDDD" stroke-width="0.191361" stroke-miterlimit="10"/>
<path d="M45.4844 34.8066V38.0072" stroke="#DDDDDD" stroke-width="0.191361" stroke-miterlimit="10"/>
<path d="M47.0859 34.8066V38.0072" stroke="#DDDDDD" stroke-width="0.191361" stroke-miterlimit="10"/>
<path d="M48.6875 34.8066V38.0072" stroke="#DDDDDD" stroke-width="0.191361" stroke-miterlimit="10"/>
<path d="M50.2891 34.8066V38.0072" stroke="#DDDDDD" stroke-width="0.191361" stroke-miterlimit="10"/>
<path d="M51.8867 34.8066V38.0072" stroke="#DDDDDD" stroke-width="0.191361" stroke-miterlimit="10"/>
<path d="M53.4883 34.8066V38.0072" stroke="#DDDDDD" stroke-width="0.191361" stroke-miterlimit="10"/>
<path d="M55.0859 34.8066V38.0072" stroke="#DDDDDD" stroke-width="0.191361" stroke-miterlimit="10"/>
<path d="M7.23828 39.6074H54.2064" stroke="#DDDDDD" stroke-width="0.191361" stroke-miterlimit="10"/>
<path d="M7.23828 42.8086H54.2064" stroke="#DDDDDD" stroke-width="0.191361" stroke-miterlimit="10"/>
<path d="M8.27734 39.6074V42.808" stroke="#DDDDDD" stroke-width="0.191361" stroke-miterlimit="10"/>
<path d="M9.875 39.6074V42.808" stroke="#DDDDDD" stroke-width="0.191361" stroke-miterlimit="10"/>
<path d="M11.4766 39.6074V42.808" stroke="#DDDDDD" stroke-width="0.191361" stroke-miterlimit="10"/>
<path d="M13.0781 39.6074V42.808" stroke="#DDDDDD" stroke-width="0.191361" stroke-miterlimit="10"/>
<path d="M14.6797 39.6074V42.808" stroke="#DDDDDD" stroke-width="0.191361" stroke-miterlimit="10"/>
<path d="M16.2773 39.6074V42.808" stroke="#DDDDDD" stroke-width="0.191361" stroke-miterlimit="10"/>
<path d="M17.8789 39.6074V42.808" stroke="#DDDDDD" stroke-width="0.191361" stroke-miterlimit="10"/>
<path d="M19.4766 39.6074V42.808" stroke="#DDDDDD" stroke-width="0.191361" stroke-miterlimit="10"/>
<path d="M21.082 39.6074V42.808" stroke="#DDDDDD" stroke-width="0.191361" stroke-miterlimit="10"/>
<path d="M22.6797 39.6074V42.808" stroke="#DDDDDD" stroke-width="0.191361" stroke-miterlimit="10"/>
<path d="M24.2812 39.6074V42.808" stroke="#DDDDDD" stroke-width="0.191361" stroke-miterlimit="10"/>
<path d="M25.8789 39.6074V42.808" stroke="#DDDDDD" stroke-width="0.191361" stroke-miterlimit="10"/>
<path d="M27.4805 39.6074V42.808" stroke="#DDDDDD" stroke-width="0.191361" stroke-miterlimit="10"/>
<path d="M29.0781 39.6074V42.808" stroke="#DDDDDD" stroke-width="0.191361" stroke-miterlimit="10"/>
<path d="M30.6836 39.6074V42.808" stroke="#DDDDDD" stroke-width="0.191361" stroke-miterlimit="10"/>
<path d="M32.2812 39.6074V42.808" stroke="#DDDDDD" stroke-width="0.191361" stroke-miterlimit="10"/>
<path d="M33.8828 39.6074V42.808" stroke="#DDDDDD" stroke-width="0.191361" stroke-miterlimit="10"/>
<path d="M35.4805 39.6074V42.808" stroke="#DDDDDD" stroke-width="0.191361" stroke-miterlimit="10"/>
<path d="M37.082 39.6074V42.808" stroke="#DDDDDD" stroke-width="0.191361" stroke-miterlimit="10"/>
<path d="M38.6836 39.6074V42.808" stroke="#DDDDDD" stroke-width="0.191361" stroke-miterlimit="10"/>
<path d="M40.2852 39.6074V42.808" stroke="#DDDDDD" stroke-width="0.191361" stroke-miterlimit="10"/>
<path d="M41.8828 39.6074V42.808" stroke="#DDDDDD" stroke-width="0.191361" stroke-miterlimit="10"/>
<path d="M43.4844 39.6074V42.808" stroke="#DDDDDD" stroke-width="0.191361" stroke-miterlimit="10"/>
<path d="M45.082 39.6074V42.808" stroke="#DDDDDD" stroke-width="0.191361" stroke-miterlimit="10"/>
<path d="M46.6836 39.6074V42.808" stroke="#DDDDDD" stroke-width="0.191361" stroke-miterlimit="10"/>
<path d="M48.2852 39.6074V42.808" stroke="#DDDDDD" stroke-width="0.191361" stroke-miterlimit="10"/>
<path d="M49.8828 39.6074V42.808" stroke="#DDDDDD" stroke-width="0.191361" stroke-miterlimit="10"/>
<path d="M51.4844 39.6074V42.808" stroke="#DDDDDD" stroke-width="0.191361" stroke-miterlimit="10"/>
<path d="M53.082 39.6074V42.808" stroke="#DDDDDD" stroke-width="0.191361" stroke-miterlimit="10"/>
<path d="M9.24219 44.4062H56.2103" stroke="#DDDDDD" stroke-width="0.191361" stroke-miterlimit="10"/>
<path d="M9.24219 47.6074H56.2103" stroke="#DDDDDD" stroke-width="0.191361" stroke-miterlimit="10"/>
<path d="M10.2812 44.4062V47.6068" stroke="#DDDDDD" stroke-width="0.191361" stroke-miterlimit="10"/>
<path d="M11.8789 44.4062V47.6068" stroke="#DDDDDD" stroke-width="0.191361" stroke-miterlimit="10"/>
<path d="M13.4805 44.4062V47.6068" stroke="#DDDDDD" stroke-width="0.191361" stroke-miterlimit="10"/>
<path d="M15.082 44.4062V47.6068" stroke="#DDDDDD" stroke-width="0.191361" stroke-miterlimit="10"/>
<path d="M16.6836 44.4062V47.6068" stroke="#DDDDDD" stroke-width="0.191361" stroke-miterlimit="10"/>
<path d="M18.2812 44.4062V47.6068" stroke="#DDDDDD" stroke-width="0.191361" stroke-miterlimit="10"/>
<path d="M19.8828 44.4062V47.6068" stroke="#DDDDDD" stroke-width="0.191361" stroke-miterlimit="10"/>
<path d="M21.4805 44.4062V47.6068" stroke="#DDDDDD" stroke-width="0.191361" stroke-miterlimit="10"/>
<path d="M23.0859 44.4062V47.6068" stroke="#DDDDDD" stroke-width="0.191361" stroke-miterlimit="10"/>
<path d="M24.6836 44.4062V47.6068" stroke="#DDDDDD" stroke-width="0.191361" stroke-miterlimit="10"/>
<path d="M26.2852 44.4062V47.6068" stroke="#DDDDDD" stroke-width="0.191361" stroke-miterlimit="10"/>
<path d="M27.8828 44.4062V47.6068" stroke="#DDDDDD" stroke-width="0.191361" stroke-miterlimit="10"/>
<path d="M29.4844 44.4062V47.6068" stroke="#DDDDDD" stroke-width="0.191361" stroke-miterlimit="10"/>
<path d="M31.082 44.4062V47.6068" stroke="#DDDDDD" stroke-width="0.191361" stroke-miterlimit="10"/>
<path d="M32.6875 44.4062V47.6068" stroke="#DDDDDD" stroke-width="0.191361" stroke-miterlimit="10"/>
<path d="M34.2852 44.4062V47.6068" stroke="#DDDDDD" stroke-width="0.191361" stroke-miterlimit="10"/>
<path d="M35.8828 44.4062V47.6068" stroke="#DDDDDD" stroke-width="0.191361" stroke-miterlimit="10"/>
<path d="M37.4844 44.4062V47.6068" stroke="#DDDDDD" stroke-width="0.191361" stroke-miterlimit="10"/>
<path d="M39.0859 44.4062V47.6068" stroke="#DDDDDD" stroke-width="0.191361" stroke-miterlimit="10"/>
<path d="M40.6875 44.4062V47.6068" stroke="#DDDDDD" stroke-width="0.191361" stroke-miterlimit="10"/>
<path d="M42.2852 44.4062V47.6068" stroke="#DDDDDD" stroke-width="0.191361" stroke-miterlimit="10"/>
<path d="M43.8867 44.4062V47.6068" stroke="#DDDDDD" stroke-width="0.191361" stroke-miterlimit="10"/>
<path d="M45.4844 44.4062V47.6068" stroke="#DDDDDD" stroke-width="0.191361" stroke-miterlimit="10"/>
<path d="M47.0859 44.4062V47.6068" stroke="#DDDDDD" stroke-width="0.191361" stroke-miterlimit="10"/>
<path d="M48.6875 44.4062V47.6068" stroke="#DDDDDD" stroke-width="0.191361" stroke-miterlimit="10"/>
<path d="M50.2891 44.4062V47.6068" stroke="#DDDDDD" stroke-width="0.191361" stroke-miterlimit="10"/>
<path d="M51.8867 44.4062V47.6068" stroke="#DDDDDD" stroke-width="0.191361" stroke-miterlimit="10"/>
<path d="M53.4883 44.4062V47.6068" stroke="#DDDDDD" stroke-width="0.191361" stroke-miterlimit="10"/>
<path d="M55.0859 44.4062V47.6068" stroke="#DDDDDD" stroke-width="0.191361" stroke-miterlimit="10"/>
<path d="M7.23828 49.207H54.2064" stroke="#DDDDDD" stroke-width="0.191361" stroke-miterlimit="10"/>
<path d="M7.23828 52.4082H54.2064" stroke="#DDDDDD" stroke-width="0.191361" stroke-miterlimit="10"/>
<path d="M8.27734 49.209V52.4095" stroke="#DDDDDD" stroke-width="0.191361" stroke-miterlimit="10"/>
<path d="M9.875 49.209V52.4095" stroke="#DDDDDD" stroke-width="0.191361" stroke-miterlimit="10"/>
<path d="M11.4766 49.209V52.4095" stroke="#DDDDDD" stroke-width="0.191361" stroke-miterlimit="10"/>
<path d="M13.0781 49.209V52.4095" stroke="#DDDDDD" stroke-width="0.191361" stroke-miterlimit="10"/>
<path d="M14.6797 49.209V52.4095" stroke="#DDDDDD" stroke-width="0.191361" stroke-miterlimit="10"/>
<path d="M16.2773 49.209V52.4095" stroke="#DDDDDD" stroke-width="0.191361" stroke-miterlimit="10"/>
<path d="M17.8789 49.209V52.4095" stroke="#DDDDDD" stroke-width="0.191361" stroke-miterlimit="10"/>
<path d="M19.4766 49.209V52.4095" stroke="#DDDDDD" stroke-width="0.191361" stroke-miterlimit="10"/>
<path d="M21.082 49.209V52.4095" stroke="#DDDDDD" stroke-width="0.191361" stroke-miterlimit="10"/>
<path d="M22.6797 49.209V52.4095" stroke="#DDDDDD" stroke-width="0.191361" stroke-miterlimit="10"/>
<path d="M24.2812 49.209V52.4095" stroke="#DDDDDD" stroke-width="0.191361" stroke-miterlimit="10"/>
<path d="M25.8789 49.209V52.4095" stroke="#DDDDDD" stroke-width="0.191361" stroke-miterlimit="10"/>
<path d="M27.4805 49.209V52.4095" stroke="#DDDDDD" stroke-width="0.191361" stroke-miterlimit="10"/>
<path d="M29.0781 49.209V52.4095" stroke="#DDDDDD" stroke-width="0.191361" stroke-miterlimit="10"/>
<path d="M30.6836 49.209V52.4095" stroke="#DDDDDD" stroke-width="0.191361" stroke-miterlimit="10"/>
<path d="M32.2812 49.209V52.4095" stroke="#DDDDDD" stroke-width="0.191361" stroke-miterlimit="10"/>
<path d="M33.8828 49.209V52.4095" stroke="#DDDDDD" stroke-width="0.191361" stroke-miterlimit="10"/>
<path d="M35.4805 49.209V52.4095" stroke="#DDDDDD" stroke-width="0.191361" stroke-miterlimit="10"/>
<path d="M37.082 49.209V52.4095" stroke="#DDDDDD" stroke-width="0.191361" stroke-miterlimit="10"/>
<path d="M38.6836 49.209V52.4095" stroke="#DDDDDD" stroke-width="0.191361" stroke-miterlimit="10"/>
<path d="M40.2852 49.209V52.4095" stroke="#DDDDDD" stroke-width="0.191361" stroke-miterlimit="10"/>
<path d="M41.8828 49.209V52.4095" stroke="#DDDDDD" stroke-width="0.191361" stroke-miterlimit="10"/>
<path d="M43.4844 49.209V52.4095" stroke="#DDDDDD" stroke-width="0.191361" stroke-miterlimit="10"/>
<path d="M45.082 49.209V52.4095" stroke="#DDDDDD" stroke-width="0.191361" stroke-miterlimit="10"/>
<path d="M46.6836 49.209V52.4095" stroke="#DDDDDD" stroke-width="0.191361" stroke-miterlimit="10"/>
<path d="M48.2852 49.209V52.4095" stroke="#DDDDDD" stroke-width="0.191361" stroke-miterlimit="10"/>
<path d="M49.8828 49.209V52.4095" stroke="#DDDDDD" stroke-width="0.191361" stroke-miterlimit="10"/>
<path d="M51.4844 49.209V52.4095" stroke="#DDDDDD" stroke-width="0.191361" stroke-miterlimit="10"/>
<path d="M53.082 49.209V52.4095" stroke="#DDDDDD" stroke-width="0.191361" stroke-miterlimit="10"/>
<path d="M56.4888 8.37531V6.51053C56.4888 5.71701 55.8492 5.04251 55.0097 5.04251H53.011C53.8105 5.04251 54.4901 4.40769 54.4901 3.57449V1.86841C54.4901 1.07489 53.8505 0.400391 53.011 0.400391H8.79936C7.99988 0.400391 7.32031 1.03521 7.32031 1.86841V3.73319C7.32031 4.52672 7.9599 5.20122 8.79936 5.20122H10.7981C9.9986 5.20122 9.31903 5.83603 9.31903 6.66924V8.53402C9.31903 9.32754 9.95862 10.002 10.7981 10.002H8.79936C7.99988 10.002 7.32031 10.6369 7.32031 11.4701V13.3348C7.32031 14.1284 7.9599 14.8029 8.79936 14.8029H10.7981C9.9986 14.8029 9.31903 15.4377 9.31903 16.2709V18.1357C9.31903 18.9292 9.95862 19.6037 10.7981 19.6037H8.79936C7.99988 19.6037 7.32031 20.2385 7.32031 21.0717V22.9365C7.32031 23.73 7.9599 24.4045 8.79936 24.4045H10.7981C9.9986 24.4045 9.31903 25.0393 9.31903 25.8725V27.7373C9.31903 28.5308 9.95862 29.2053 10.7981 29.2053H8.79936C7.99988 29.2053 7.32031 29.8402 7.32031 30.6734V32.5381C7.32031 33.3317 7.9599 34.0062 8.79936 34.0062H10.7981C9.9986 34.0062 9.31903 34.641 9.31903 35.4742V37.339C9.31903 38.1325 9.95862 38.807 10.7981 38.807H8.79936C7.99988 38.807 7.32031 39.4418 7.32031 40.275V42.1398C7.32031 42.9333 7.9599 43.6078 8.79936 43.6078H10.7981C9.9986 43.6078 9.31903 44.2426 9.31903 45.0758V46.9406C9.31903 47.7341 9.95862 48.4086 10.7981 48.4086H8.79936C7.99988 48.4086 7.32031 49.0435 7.32031 49.8767V51.7414C7.32031 52.535 7.9599 53.2095 8.79936 53.2095H53.051C53.8505 53.2095 54.5301 52.5746 54.5301 51.7414V49.8767C54.5301 49.0831 53.8905 48.4086 53.051 48.4086H55.0497C55.8492 48.4086 56.5288 47.7738 56.5288 46.9406V45.0758C56.5288 44.2823 55.8892 43.6078 55.0497 43.6078H53.051C53.8505 43.6078 54.5301 42.973 54.5301 42.1398V40.275C54.5301 39.4815 53.8905 38.807 53.051 38.807H55.0497C55.8492 38.807 56.5288 38.1722 56.5288 37.339V35.4742C56.5288 34.6807 55.8892 34.0062 55.0497 34.0062H53.051C53.8505 34.0062 54.5301 33.3713 54.5301 32.5381V30.6734C54.5301 29.8798 53.8905 29.2053 53.051 29.2053H55.0497C55.8492 29.2053 56.5288 28.5705 56.5288 27.7373V25.8725C56.5288 25.079 55.8892 24.4045 55.0497 24.4045H53.051C53.8505 24.4045 54.5301 23.7697 54.5301 22.9365V21.0717C54.5301 20.2782 53.8905 19.6037 53.051 19.6037H55.0497C55.8492 19.6037 56.5288 18.9689 56.5288 18.1357V16.2709C56.5288 15.4774 55.8892 14.8029 55.0497 14.8029H53.051C53.8505 14.8029 54.5301 14.168 54.5301 13.3348V11.4701C54.5301 10.6765 53.8905 10.002 53.051 10.002H55.0497C55.8492 9.84334 56.4888 9.20852 56.4888 8.37531Z" stroke="#808080" stroke-width="0.382721" stroke-miterlimit="10"/>
</g>
<path d="M37.8286 33.1105H40.5485L29.6303 53.2969H26.9362L37.8286 33.1105ZM21.7801 38.0733C21.7801 37.1967 21.9691 36.3632 22.3472 35.5725C22.7339 34.7819 23.3183 34.1761 24.1003 33.755C24.8909 33.3253 25.8234 33.1105 26.8976 33.1105C28.4788 33.1105 29.7248 33.5616 30.6358 34.464C31.5467 35.3663 32.0022 36.5694 32.0022 38.0733C32.0022 39.5858 31.5467 40.7932 30.6358 41.6955C29.7248 42.5978 28.4788 43.049 26.8976 43.049C25.8234 43.049 24.8909 42.8384 24.1003 42.4173C23.3183 41.9877 22.7339 41.3775 22.3472 40.5869C21.9691 39.7963 21.7801 38.9584 21.7801 38.0733ZM25.4023 38.0991C25.4023 39.1647 25.5741 39.9381 25.9179 40.4193C26.1413 40.7373 26.4679 40.8963 26.8976 40.8963C27.3272 40.8963 27.6495 40.7373 27.8643 40.4193C28.2081 39.9381 28.3799 39.1647 28.3799 38.0991C28.3799 37.042 28.2081 36.2686 27.8643 35.7788C27.6495 35.4694 27.3272 35.3147 26.8976 35.3147C26.4679 35.3147 26.1413 35.4694 25.9179 35.7788C25.5741 36.26 25.4023 37.0335 25.4023 38.0991ZM35.4052 48.2954C35.4052 47.4102 35.5943 46.5767 35.9724 45.7946C36.3505 45.004 36.9349 44.3939 37.7255 43.9642C38.5161 43.5345 39.4442 43.3197 40.5098 43.3197C42.0996 43.3197 43.35 43.7751 44.2609 44.6861C45.1719 45.5884 45.6273 46.7915 45.6273 48.2954C45.6273 49.7993 45.1719 51.0067 44.2609 51.9176C43.35 52.8199 42.0996 53.2711 40.5098 53.2711C39.4442 53.2711 38.5161 53.0562 37.7255 52.6266C36.9349 52.1969 36.3505 51.591 35.9724 50.809C35.5943 50.0184 35.4052 49.1805 35.4052 48.2954ZM39.0274 48.3212C39.0274 49.3868 39.1993 50.1602 39.543 50.6414C39.7579 50.9508 40.0802 51.1055 40.5098 51.1055C40.9395 51.1055 41.2661 50.9508 41.4895 50.6414C41.8332 50.1602 42.0051 49.3868 42.0051 48.3212C42.0051 47.2556 41.8332 46.4778 41.4895 45.988C41.2661 45.6786 40.9395 45.5239 40.5098 45.5239C40.0802 45.5239 39.7579 45.6829 39.543 46.0009C39.1993 46.4821 39.0274 47.2556 39.0274 48.3212Z" fill="#A0A0A0"/>
<rect x="1.51953" y="52.3926" width="66" height="17" fill="#A0A0A0"/>
<path d="M7.59082 63.582V62.2002L11.0186 60.8525L7.59082 59.5195V58.1475L12.5029 60.2715V61.4434L7.59082 63.582ZM20.8086 63.1182V64.3926H15.999C16.0511 63.9108 16.2074 63.4551 16.4678 63.0254C16.7282 62.5924 17.2425 62.0195 18.0107 61.3066C18.6292 60.7305 19.0085 60.3398 19.1484 60.1348C19.3372 59.8516 19.4316 59.5716 19.4316 59.2949C19.4316 58.9889 19.3486 58.7546 19.1826 58.5918C19.0199 58.4258 18.7936 58.3428 18.5039 58.3428C18.2174 58.3428 17.9896 58.429 17.8203 58.6016C17.651 58.7741 17.5534 59.0605 17.5273 59.4609L16.1602 59.3242C16.2415 58.569 16.4971 58.027 16.9268 57.6982C17.3564 57.3695 17.8936 57.2051 18.5381 57.2051C19.2445 57.2051 19.7995 57.3955 20.2031 57.7764C20.6068 58.1572 20.8086 58.6309 20.8086 59.1973C20.8086 59.5195 20.75 59.8271 20.6328 60.1201C20.5189 60.4098 20.3366 60.7142 20.0859 61.0332C19.9199 61.2448 19.6204 61.5492 19.1875 61.9463C18.7546 62.3434 18.4795 62.6071 18.3623 62.7373C18.2484 62.8675 18.1556 62.9945 18.084 63.1182H20.8086ZM24.4316 64.3926V62.9521H21.502V61.751L24.6074 57.2051H25.7598V61.7461H26.6484V62.9521H25.7598V64.3926H24.4316ZM24.4316 61.7461V59.2998L22.7861 61.7461H24.4316ZM29.627 57.2051C30.3203 57.2051 30.8623 57.4525 31.2529 57.9473C31.7184 58.5332 31.9512 59.5049 31.9512 60.8623C31.9512 62.2165 31.7168 63.1898 31.248 63.7822C30.8607 64.2705 30.3203 64.5146 29.627 64.5146C28.9303 64.5146 28.3688 64.2477 27.9424 63.7139C27.516 63.1768 27.3027 62.2214 27.3027 60.8477C27.3027 59.5 27.5371 58.5299 28.0059 57.9375C28.3932 57.4492 28.9336 57.2051 29.627 57.2051ZM29.627 58.3428C29.4609 58.3428 29.3128 58.3965 29.1826 58.5039C29.0524 58.6081 28.9515 58.7969 28.8799 59.0703C28.7855 59.4251 28.7383 60.0225 28.7383 60.8623C28.7383 61.7021 28.7806 62.2799 28.8652 62.5957C28.9499 62.9082 29.0557 63.1165 29.1826 63.2207C29.3128 63.3249 29.4609 63.377 29.627 63.377C29.793 63.377 29.9411 63.3249 30.0713 63.2207C30.2015 63.1133 30.3024 62.9229 30.374 62.6494C30.4684 62.2979 30.5156 61.7021 30.5156 60.8623C30.5156 60.0225 30.4733 59.4463 30.3887 59.1338C30.304 58.818 30.1966 58.6081 30.0664 58.5039C29.9395 58.3965 29.793 58.3428 29.627 58.3428ZM37.9766 57.2051C38.6699 57.2051 39.2119 57.4525 39.6025 57.9473C40.068 58.5332 40.3008 59.5049 40.3008 60.8623C40.3008 62.2165 40.0664 63.1898 39.5977 63.7822C39.2103 64.2705 38.6699 64.5146 37.9766 64.5146C37.2799 64.5146 36.7184 64.2477 36.292 63.7139C35.8656 63.1768 35.6523 62.2214 35.6523 60.8477C35.6523 59.5 35.8867 58.5299 36.3555 57.9375C36.7428 57.4492 37.2832 57.2051 37.9766 57.2051ZM37.9766 58.3428C37.8105 58.3428 37.6624 58.3965 37.5322 58.5039C37.402 58.6081 37.3011 58.7969 37.2295 59.0703C37.1351 59.4251 37.0879 60.0225 37.0879 60.8623C37.0879 61.7021 37.1302 62.2799 37.2148 62.5957C37.2995 62.9082 37.4053 63.1165 37.5322 63.2207C37.6624 63.3249 37.8105 63.377 37.9766 63.377C38.1426 63.377 38.2907 63.3249 38.4209 63.2207C38.5511 63.1133 38.652 62.9229 38.7236 62.6494C38.818 62.2979 38.8652 61.7021 38.8652 60.8623C38.8652 60.0225 38.8229 59.4463 38.7383 59.1338C38.6536 58.818 38.5462 58.6081 38.416 58.5039C38.2891 58.3965 38.1426 58.3428 37.9766 58.3428ZM43.543 57.2051C44.2363 57.2051 44.7783 57.4525 45.1689 57.9473C45.6344 58.5332 45.8672 59.5049 45.8672 60.8623C45.8672 62.2165 45.6328 63.1898 45.1641 63.7822C44.7767 64.2705 44.2363 64.5146 43.543 64.5146C42.8464 64.5146 42.2848 64.2477 41.8584 63.7139C41.432 63.1768 41.2188 62.2214 41.2188 60.8477C41.2188 59.5 41.4531 58.5299 41.9219 57.9375C42.3092 57.4492 42.8496 57.2051 43.543 57.2051ZM43.543 58.3428C43.377 58.3428 43.2288 58.3965 43.0986 58.5039C42.9684 58.6081 42.8675 58.7969 42.7959 59.0703C42.7015 59.4251 42.6543 60.0225 42.6543 60.8623C42.6543 61.7021 42.6966 62.2799 42.7812 62.5957C42.8659 62.9082 42.9717 63.1165 43.0986 63.2207C43.2288 63.3249 43.377 63.377 43.543 63.377C43.709 63.377 43.8571 63.3249 43.9873 63.2207C44.1175 63.1133 44.2184 62.9229 44.29 62.6494C44.3844 62.2979 44.4316 61.7021 44.4316 60.8623C44.4316 60.0225 44.3893 59.4463 44.3047 59.1338C44.2201 58.818 44.1126 58.6081 43.9824 58.5039C43.8555 58.3965 43.709 58.3428 43.543 58.3428ZM49.1094 57.2051C49.8027 57.2051 50.3447 57.4525 50.7354 57.9473C51.2008 58.5332 51.4336 59.5049 51.4336 60.8623C51.4336 62.2165 51.1992 63.1898 50.7305 63.7822C50.3431 64.2705 49.8027 64.5146 49.1094 64.5146C48.4128 64.5146 47.8512 64.2477 47.4248 63.7139C46.9984 63.1768 46.7852 62.2214 46.7852 60.8477C46.7852 59.5 47.0195 58.5299 47.4883 57.9375C47.8757 57.4492 48.416 57.2051 49.1094 57.2051ZM49.1094 58.3428C48.9434 58.3428 48.7952 58.3965 48.665 58.5039C48.5348 58.6081 48.4339 58.7969 48.3623 59.0703C48.2679 59.4251 48.2207 60.0225 48.2207 60.8623C48.2207 61.7021 48.263 62.2799 48.3477 62.5957C48.4323 62.9082 48.5381 63.1165 48.665 63.2207C48.7952 63.3249 48.9434 63.377 49.1094 63.377C49.2754 63.377 49.4235 63.3249 49.5537 63.2207C49.6839 63.1133 49.7848 62.9229 49.8564 62.6494C49.9508 62.2979 49.998 61.7021 49.998 60.8623C49.998 60.0225 49.9557 59.4463 49.8711 59.1338C49.7865 58.818 49.679 58.6081 49.5488 58.5039C49.4219 58.3965 49.2754 58.3428 49.1094 58.3428ZM56.0348 61.6226V62.2826H54.9348V63.3126H56.0348V64.3926H57.4648V63.3126H60.0048V62.2826H57.4648V61.6226H59.0448C59.7948 61.6226 60.3848 61.4226 60.8248 61.0326C61.2648 60.6426 61.4848 60.1326 61.4848 59.5026C61.4848 58.8726 61.2648 58.3726 60.8248 57.9826C60.3848 57.5926 59.7948 57.3926 59.0448 57.3926H56.0348V60.5926H54.9348V61.6226H56.0348ZM57.4648 58.6526H58.8548C59.5848 58.6526 60.0348 58.9926 60.0348 59.6226C60.0348 60.2326 59.5848 60.5926 58.8548 60.5926H57.4648V58.6526Z" fill="white"/>
<path d="M1.71426 43.9803L7.76981 43.2456C7.96276 44.7892 8.48223 45.9691 9.32822 46.7854C10.1742 47.6018 11.1983 48.0099 12.4005 48.0099C13.6918 48.0099 14.7753 47.5201 15.6509 46.5405C16.5415 45.561 16.9867 44.24 16.9867 42.5777C16.9867 41.0045 16.5637 39.7577 15.7177 38.8375C14.8717 37.9173 13.8402 37.4572 12.6232 37.4572C11.8217 37.4572 10.8644 37.6131 9.75122 37.9247L10.4414 32.8265C12.1334 32.871 13.4246 32.5074 14.3151 31.7356C15.2057 30.949 15.6509 29.91 15.6509 28.6188C15.6509 27.5205 15.3244 26.6448 14.6714 25.9917C14.0183 25.3387 13.15 25.0122 12.0666 25.0122C10.998 25.0122 10.0852 25.3832 9.32822 26.1253C8.57128 26.8674 8.11118 27.9509 7.94791 29.3757L2.18178 28.3961C2.58252 26.4222 3.18362 24.8489 3.98509 23.6764C4.8014 22.489 5.9294 21.5614 7.36907 20.8935C8.82359 20.2108 10.4488 19.8694 12.2447 19.8694C15.317 19.8694 17.7808 20.849 19.636 22.8081C21.1648 24.4111 21.9291 26.2218 21.9291 28.2403C21.9291 31.1048 20.3633 33.3905 17.2316 35.0973C19.1017 35.4981 20.5933 36.396 21.7065 37.7912C22.8345 39.1863 23.3985 40.8709 23.3985 42.8449C23.3985 45.7094 22.3521 48.1509 20.2594 50.1694C18.1667 52.1879 15.5619 53.1972 12.4451 53.1972C9.49149 53.1972 7.04255 52.3512 5.09824 50.6592C3.15393 48.9524 2.02594 46.7261 1.71426 43.9803Z" fill="#A0A0A0"/>
<defs>
<clipPath id="clip0">
<rect width="50.4087" height="53.6092" fill="white" transform="translate(6.51953)"/>
</clipPath>
</defs>
</svg>
