<svg width="74" height="78" viewBox="0 0 74 78" fill="none" xmlns="http://www.w3.org/2000/svg">
<g clip-path="url(#clip0)">
<path d="M56.331 8.44202V6.56169C56.331 5.76156 55.6909 5.08144 54.8508 5.08144H52.8504C53.6506 5.08144 54.3307 4.44133 54.3307 3.60119V1.88089C54.3307 1.08075 53.6906 0.400635 52.8504 0.400635H8.60281C7.80268 0.400635 7.12256 1.04074 7.12256 1.88089V3.76121C7.12256 4.56135 7.76267 5.24147 8.60281 5.24147H10.6032C9.80302 5.24147 9.1229 5.88158 9.1229 6.72172V8.60205C9.1229 9.40218 9.76301 10.0823 10.6032 10.0823H8.60281C7.80268 10.0823 7.12256 10.7224 7.12256 11.5626V13.4429C7.12256 14.243 7.76267 14.9231 8.60281 14.9231H10.6032C9.80302 14.9231 9.1229 15.5632 9.1229 16.4034V18.2837C9.1229 19.0838 9.76301 19.764 10.6032 19.764H8.60281C7.80268 19.764 7.12256 20.4041 7.12256 21.2442V23.1245C7.12256 23.9247 7.76267 24.6048 8.60281 24.6048H10.6032C9.80302 24.6048 9.1229 25.2449 9.1229 26.0851V27.9654C9.1229 28.7655 9.76301 29.4456 10.6032 29.4456H8.60281C7.80268 29.4456 7.12256 30.0857 7.12256 30.9259V32.8062C7.12256 33.6063 7.76267 34.2865 8.60281 34.2865H10.6032C9.80302 34.2865 9.1229 34.9266 9.1229 35.7667V37.647C9.1229 38.4472 9.76301 39.1273 10.6032 39.1273H8.60281C7.80268 39.1273 7.12256 39.7674 7.12256 40.6075V42.4879C7.12256 43.288 7.76267 43.9681 8.60281 43.9681H10.6032C9.80302 43.9681 9.1229 44.6082 9.1229 45.4484V47.3287C9.1229 48.1288 9.76301 48.809 10.6032 48.809H8.60281C7.80268 48.809 7.12256 49.4491 7.12256 50.2892V52.1695C7.12256 52.9697 7.76267 53.6498 8.60281 53.6498H52.8904C53.6906 53.6498 54.3707 53.0097 54.3707 52.1695V50.2892C54.3707 49.4891 53.7306 48.809 52.8904 48.809H54.8908C55.6909 48.809 56.371 48.1688 56.371 47.3287V45.4484C56.371 44.6482 55.7309 43.9681 54.8908 43.9681H52.8904C53.6906 43.9681 54.3707 43.328 54.3707 42.4879V40.6075C54.3707 39.8074 53.7306 39.1273 52.8904 39.1273H54.8908C55.6909 39.1273 56.371 38.4872 56.371 37.647V35.7667C56.371 34.9666 55.7309 34.2865 54.8908 34.2865H52.8904C53.6906 34.2865 54.3707 33.6464 54.3707 32.8062V30.9259C54.3707 30.1257 53.7306 29.4456 52.8904 29.4456H54.8908C55.6909 29.4456 56.371 28.8055 56.371 27.9654V26.0851C56.371 25.2849 55.7309 24.6048 54.8908 24.6048H52.8904C53.6906 24.6048 54.3707 23.9647 54.3707 23.1245V21.2442C54.3707 20.4441 53.7306 19.764 52.8904 19.764H54.8908C55.6909 19.764 56.371 19.1239 56.371 18.2837V16.4034C56.371 15.6032 55.7309 14.9231 54.8908 14.9231H52.8904C53.6906 14.9231 54.3707 14.283 54.3707 13.4429V11.5626C54.3707 10.7624 53.7306 10.0823 52.8904 10.0823H54.8908C55.6909 9.92227 56.331 9.28216 56.331 8.44202Z" fill="white"/>
<path d="M55.0109 10.0022H10.8008C10.0013 10.0022 9.32178 9.36742 9.32178 8.53422V6.66944C9.32178 5.87591 9.96135 5.20142 10.8008 5.20142H55.0509C55.8504 5.20142 56.5299 5.83624 56.5299 6.66944V8.53422C56.4899 9.36742 55.8504 10.0022 55.0109 10.0022Z" stroke="#DDDDDD" stroke-width="0.382721" stroke-miterlimit="10"/>
<path d="M53.0104 5.20146H8.80029C8.00083 5.20146 7.32129 4.56135 7.32129 3.72121V1.88089C7.32129 1.08075 7.96086 0.400635 8.80029 0.400635H53.0504C53.8499 0.400635 54.5294 1.04074 54.5294 1.88089V3.76121C54.4894 4.56135 53.8499 5.20146 53.0104 5.20146Z" stroke="#DDDDDD" stroke-width="0.382721" stroke-miterlimit="10"/>
<path d="M55.0109 29.2054H10.8008C10.0013 29.2054 9.32178 28.5705 9.32178 27.7373V25.8726C9.32178 25.079 9.96135 24.4045 10.8008 24.4045H55.0509C55.8504 24.4045 56.5299 25.0394 56.5299 25.8726V27.7373C56.4899 28.5705 55.8504 29.2054 55.0109 29.2054Z" stroke="#DDDDDD" stroke-width="0.382721" stroke-miterlimit="10"/>
<path d="M53.0104 24.4046H8.80029C8.00083 24.4046 7.32129 23.7698 7.32129 22.9366V21.0718C7.32129 20.2783 7.96086 19.6038 8.80029 19.6038H53.0504C53.8499 19.6038 54.5294 20.2386 54.5294 21.0718V22.9366C54.4894 23.7698 53.8499 24.4046 53.0104 24.4046Z" stroke="#DDDDDD" stroke-width="0.382721" stroke-miterlimit="10"/>
<path d="M55.0109 19.6038H10.8008C10.0013 19.6038 9.32178 18.969 9.32178 18.1358V16.271C9.32178 15.4775 9.96135 14.803 10.8008 14.803H55.0509C55.8504 14.803 56.5299 15.4378 56.5299 16.271V18.1358C56.4899 18.969 55.8504 19.6038 55.0109 19.6038Z" stroke="#DDDDDD" stroke-width="0.382721" stroke-miterlimit="10"/>
<path d="M53.0104 14.803H8.80029C8.00083 14.803 7.32129 14.1682 7.32129 13.335V11.4702C7.32129 10.6767 7.96086 10.0022 8.80029 10.0022H53.0504C53.8499 10.0022 54.5294 10.637 54.5294 11.4702V13.335C54.4894 14.1682 53.8499 14.803 53.0104 14.803Z" stroke="#DDDDDD" stroke-width="0.382721" stroke-miterlimit="10"/>
<path d="M55.0109 38.8082H10.8008C10.0013 38.8082 9.32178 38.1733 9.32178 37.3401V35.4753C9.32178 34.6818 9.96135 34.0073 10.8008 34.0073H55.0509C55.8504 34.0073 56.5299 34.6421 56.5299 35.4753V37.3401C56.4899 38.1733 55.8504 38.8082 55.0109 38.8082Z" stroke="#DDDDDD" stroke-width="0.382721" stroke-miterlimit="10"/>
<path d="M53.0104 34.0061H8.80029C8.00083 34.0061 7.32129 33.3713 7.32129 32.5381V30.6733C7.32129 29.8798 7.96086 29.2053 8.80029 29.2053H53.0504C53.8499 29.2053 54.5294 29.8401 54.5294 30.6733V32.5381C54.4894 33.3713 53.8499 34.0061 53.0104 34.0061Z" stroke="#DDDDDD" stroke-width="0.382721" stroke-miterlimit="10"/>
<path d="M53.0104 53.2095H8.80029C8.00083 53.2095 7.32129 52.5747 7.32129 51.7415V49.8767C7.32129 49.0832 7.96086 48.4087 8.80029 48.4087H53.0504C53.8499 48.4087 54.5294 49.0435 54.5294 49.8767V51.7415C54.4894 52.5747 53.8499 53.2095 53.0104 53.2095Z" stroke="#DDDDDD" stroke-width="0.382721" stroke-miterlimit="10"/>
<path d="M55.0109 48.4087H10.8008C10.0013 48.4087 9.32178 47.7739 9.32178 46.9407V45.0759C9.32178 44.2824 9.96135 43.6079 10.8008 43.6079H55.0509C55.8504 43.6079 56.5299 44.2427 56.5299 45.0759V46.9407C56.4899 47.7739 55.8504 48.4087 55.0109 48.4087Z" stroke="#DDDDDD" stroke-width="0.382721" stroke-miterlimit="10"/>
<path d="M53.0104 43.608H8.80029C8.00083 43.608 7.32129 42.9731 7.32129 42.1399V40.2751C7.32129 39.4816 7.96086 38.8071 8.80029 38.8071H53.0504C53.8499 38.8071 54.5294 39.4419 54.5294 40.2751V42.1399C54.4894 42.9731 53.8499 43.608 53.0104 43.608Z" stroke="#DDDDDD" stroke-width="0.382721" stroke-miterlimit="10"/>
<path d="M7.23828 1.20093H54.2064" stroke="#DDDDDD" stroke-width="0.191361" stroke-miterlimit="10"/>
<path d="M7.23828 4.40186H54.2064" stroke="#DDDDDD" stroke-width="0.191361" stroke-miterlimit="10"/>
<path d="M8.27637 1.20288V4.40343" stroke="#DDDDDD" stroke-width="0.191361" stroke-miterlimit="10"/>
<path d="M9.87549 1.20288V4.40343" stroke="#DDDDDD" stroke-width="0.191361" stroke-miterlimit="10"/>
<path d="M11.4761 1.20288V4.40343" stroke="#DDDDDD" stroke-width="0.191361" stroke-miterlimit="10"/>
<path d="M13.0771 1.20288V4.40343" stroke="#DDDDDD" stroke-width="0.191361" stroke-miterlimit="10"/>
<path d="M14.6782 1.20288V4.40343" stroke="#DDDDDD" stroke-width="0.191361" stroke-miterlimit="10"/>
<path d="M16.2769 1.20288V4.40343" stroke="#DDDDDD" stroke-width="0.191361" stroke-miterlimit="10"/>
<path d="M17.8779 1.20288V4.40343" stroke="#DDDDDD" stroke-width="0.191361" stroke-miterlimit="10"/>
<path d="M19.4771 1.20288V4.40343" stroke="#DDDDDD" stroke-width="0.191361" stroke-miterlimit="10"/>
<path d="M21.0801 1.20288V4.40343" stroke="#DDDDDD" stroke-width="0.191361" stroke-miterlimit="10"/>
<path d="M22.6787 1.20288V4.40343" stroke="#DDDDDD" stroke-width="0.191361" stroke-miterlimit="10"/>
<path d="M24.2798 1.20288V4.40343" stroke="#DDDDDD" stroke-width="0.191361" stroke-miterlimit="10"/>
<path d="M25.8784 1.20288V4.40343" stroke="#DDDDDD" stroke-width="0.191361" stroke-miterlimit="10"/>
<path d="M27.4795 1.20288V4.40343" stroke="#DDDDDD" stroke-width="0.191361" stroke-miterlimit="10"/>
<path d="M29.0786 1.20288V4.40343" stroke="#DDDDDD" stroke-width="0.191361" stroke-miterlimit="10"/>
<path d="M30.6816 1.20288V4.40343" stroke="#DDDDDD" stroke-width="0.191361" stroke-miterlimit="10"/>
<path d="M32.2803 1.20288V4.40343" stroke="#DDDDDD" stroke-width="0.191361" stroke-miterlimit="10"/>
<path d="M33.8813 1.20288V4.40343" stroke="#DDDDDD" stroke-width="0.191361" stroke-miterlimit="10"/>
<path d="M35.4805 1.20288V4.40343" stroke="#DDDDDD" stroke-width="0.191361" stroke-miterlimit="10"/>
<path d="M37.0811 1.20288V4.40343" stroke="#DDDDDD" stroke-width="0.191361" stroke-miterlimit="10"/>
<path d="M38.6821 1.20288V4.40343" stroke="#DDDDDD" stroke-width="0.191361" stroke-miterlimit="10"/>
<path d="M40.2832 1.20288V4.40343" stroke="#DDDDDD" stroke-width="0.191361" stroke-miterlimit="10"/>
<path d="M41.8818 1.20288V4.40343" stroke="#DDDDDD" stroke-width="0.191361" stroke-miterlimit="10"/>
<path d="M43.4829 1.20288V4.40343" stroke="#DDDDDD" stroke-width="0.191361" stroke-miterlimit="10"/>
<path d="M45.082 1.20288V4.40343" stroke="#DDDDDD" stroke-width="0.191361" stroke-miterlimit="10"/>
<path d="M46.6826 1.20288V4.40343" stroke="#DDDDDD" stroke-width="0.191361" stroke-miterlimit="10"/>
<path d="M48.2837 1.20288V4.40343" stroke="#DDDDDD" stroke-width="0.191361" stroke-miterlimit="10"/>
<path d="M49.8828 1.20288V4.40343" stroke="#DDDDDD" stroke-width="0.191361" stroke-miterlimit="10"/>
<path d="M51.4834 1.20288V4.40343" stroke="#DDDDDD" stroke-width="0.191361" stroke-miterlimit="10"/>
<path d="M53.0825 1.20288V4.40343" stroke="#DDDDDD" stroke-width="0.191361" stroke-miterlimit="10"/>
<path d="M9.24268 6.00195H56.2108" stroke="#DDDDDD" stroke-width="0.191361" stroke-miterlimit="10"/>
<path d="M9.24316 9.20264H56.2112" stroke="#DDDDDD" stroke-width="0.191361" stroke-miterlimit="10"/>
<path d="M10.2837 6.00146V9.20201" stroke="#DDDDDD" stroke-width="0.191361" stroke-miterlimit="10"/>
<path d="M11.8828 6.00146V9.20201" stroke="#DDDDDD" stroke-width="0.191361" stroke-miterlimit="10"/>
<path d="M13.4834 6.00146V9.20201" stroke="#DDDDDD" stroke-width="0.191361" stroke-miterlimit="10"/>
<path d="M15.0845 6.00146V9.20201" stroke="#DDDDDD" stroke-width="0.191361" stroke-miterlimit="10"/>
<path d="M16.6855 6.00146V9.20201" stroke="#DDDDDD" stroke-width="0.191361" stroke-miterlimit="10"/>
<path d="M18.2842 6.00146V9.20201" stroke="#DDDDDD" stroke-width="0.191361" stroke-miterlimit="10"/>
<path d="M19.8853 6.00146V9.20201" stroke="#DDDDDD" stroke-width="0.191361" stroke-miterlimit="10"/>
<path d="M21.4844 6.00146V9.20201" stroke="#DDDDDD" stroke-width="0.191361" stroke-miterlimit="10"/>
<path d="M23.0874 6.00146V9.20201" stroke="#DDDDDD" stroke-width="0.191361" stroke-miterlimit="10"/>
<path d="M24.686 6.00146V9.20201" stroke="#DDDDDD" stroke-width="0.191361" stroke-miterlimit="10"/>
<path d="M26.2871 6.00146V9.20201" stroke="#DDDDDD" stroke-width="0.191361" stroke-miterlimit="10"/>
<path d="M27.8857 6.00146V9.20201" stroke="#DDDDDD" stroke-width="0.191361" stroke-miterlimit="10"/>
<path d="M29.4868 6.00146V9.20201" stroke="#DDDDDD" stroke-width="0.191361" stroke-miterlimit="10"/>
<path d="M31.0859 6.00146V9.20201" stroke="#DDDDDD" stroke-width="0.191361" stroke-miterlimit="10"/>
<path d="M32.689 6.00146V9.20201" stroke="#DDDDDD" stroke-width="0.191361" stroke-miterlimit="10"/>
<path d="M34.2876 6.00146V9.20201" stroke="#DDDDDD" stroke-width="0.191361" stroke-miterlimit="10"/>
<path d="M35.8867 6.00146V9.20201" stroke="#DDDDDD" stroke-width="0.191361" stroke-miterlimit="10"/>
<path d="M37.4878 6.00146V9.20201" stroke="#DDDDDD" stroke-width="0.191361" stroke-miterlimit="10"/>
<path d="M39.0864 6.00146V9.20201" stroke="#DDDDDD" stroke-width="0.191361" stroke-miterlimit="10"/>
<path d="M40.6895 6.00146V9.20201" stroke="#DDDDDD" stroke-width="0.191361" stroke-miterlimit="10"/>
<path d="M42.2886 6.00146V9.20201" stroke="#DDDDDD" stroke-width="0.191361" stroke-miterlimit="10"/>
<path d="M43.8892 6.00146V9.20201" stroke="#DDDDDD" stroke-width="0.191361" stroke-miterlimit="10"/>
<path d="M45.4883 6.00146V9.20201" stroke="#DDDDDD" stroke-width="0.191361" stroke-miterlimit="10"/>
<path d="M47.0894 6.00146V9.20201" stroke="#DDDDDD" stroke-width="0.191361" stroke-miterlimit="10"/>
<path d="M48.6899 6.00146V9.20201" stroke="#DDDDDD" stroke-width="0.191361" stroke-miterlimit="10"/>
<path d="M50.291 6.00146V9.20201" stroke="#DDDDDD" stroke-width="0.191361" stroke-miterlimit="10"/>
<path d="M51.8901 6.00146V9.20201" stroke="#DDDDDD" stroke-width="0.191361" stroke-miterlimit="10"/>
<path d="M53.4907 6.00146V9.20201" stroke="#DDDDDD" stroke-width="0.191361" stroke-miterlimit="10"/>
<path d="M55.0898 6.00146V9.20201" stroke="#DDDDDD" stroke-width="0.191361" stroke-miterlimit="10"/>
<path d="M7.23828 10.8015H54.2064" stroke="#DDDDDD" stroke-width="0.191361" stroke-miterlimit="10"/>
<path d="M7.23828 14.0015H54.2064" stroke="#DDDDDD" stroke-width="0.191361" stroke-miterlimit="10"/>
<path d="M8.27686 10.8005V14.0011" stroke="#DDDDDD" stroke-width="0.191361" stroke-miterlimit="10"/>
<path d="M9.87598 10.8005V14.0011" stroke="#DDDDDD" stroke-width="0.191361" stroke-miterlimit="10"/>
<path d="M11.4766 10.8005V14.0011" stroke="#DDDDDD" stroke-width="0.191361" stroke-miterlimit="10"/>
<path d="M13.0776 10.8005V14.0011" stroke="#DDDDDD" stroke-width="0.191361" stroke-miterlimit="10"/>
<path d="M14.6787 10.8005V14.0011" stroke="#DDDDDD" stroke-width="0.191361" stroke-miterlimit="10"/>
<path d="M16.2773 10.8005V14.0011" stroke="#DDDDDD" stroke-width="0.191361" stroke-miterlimit="10"/>
<path d="M17.8784 10.8005V14.0011" stroke="#DDDDDD" stroke-width="0.191361" stroke-miterlimit="10"/>
<path d="M19.4775 10.8005V14.0011" stroke="#DDDDDD" stroke-width="0.191361" stroke-miterlimit="10"/>
<path d="M21.0806 10.8005V14.0011" stroke="#DDDDDD" stroke-width="0.191361" stroke-miterlimit="10"/>
<path d="M22.6792 10.8005V14.0011" stroke="#DDDDDD" stroke-width="0.191361" stroke-miterlimit="10"/>
<path d="M24.2803 10.8005V14.0011" stroke="#DDDDDD" stroke-width="0.191361" stroke-miterlimit="10"/>
<path d="M25.8789 10.8005V14.0011" stroke="#DDDDDD" stroke-width="0.191361" stroke-miterlimit="10"/>
<path d="M27.48 10.8005V14.0011" stroke="#DDDDDD" stroke-width="0.191361" stroke-miterlimit="10"/>
<path d="M29.0791 10.8005V14.0011" stroke="#DDDDDD" stroke-width="0.191361" stroke-miterlimit="10"/>
<path d="M30.6821 10.8005V14.0011" stroke="#DDDDDD" stroke-width="0.191361" stroke-miterlimit="10"/>
<path d="M32.2808 10.8005V14.0011" stroke="#DDDDDD" stroke-width="0.191361" stroke-miterlimit="10"/>
<path d="M33.8818 10.8005V14.0011" stroke="#DDDDDD" stroke-width="0.191361" stroke-miterlimit="10"/>
<path d="M35.481 10.8005V14.0011" stroke="#DDDDDD" stroke-width="0.191361" stroke-miterlimit="10"/>
<path d="M37.0815 10.8005V14.0011" stroke="#DDDDDD" stroke-width="0.191361" stroke-miterlimit="10"/>
<path d="M38.6826 10.8005V14.0011" stroke="#DDDDDD" stroke-width="0.191361" stroke-miterlimit="10"/>
<path d="M40.2837 10.8005V14.0011" stroke="#DDDDDD" stroke-width="0.191361" stroke-miterlimit="10"/>
<path d="M41.8823 10.8005V14.0011" stroke="#DDDDDD" stroke-width="0.191361" stroke-miterlimit="10"/>
<path d="M43.4834 10.8005V14.0011" stroke="#DDDDDD" stroke-width="0.191361" stroke-miterlimit="10"/>
<path d="M45.0825 10.8005V14.0011" stroke="#DDDDDD" stroke-width="0.191361" stroke-miterlimit="10"/>
<path d="M46.6831 10.8005V14.0011" stroke="#DDDDDD" stroke-width="0.191361" stroke-miterlimit="10"/>
<path d="M48.2842 10.8005V14.0011" stroke="#DDDDDD" stroke-width="0.191361" stroke-miterlimit="10"/>
<path d="M49.8833 10.8005V14.0011" stroke="#DDDDDD" stroke-width="0.191361" stroke-miterlimit="10"/>
<path d="M51.4839 10.8005V14.0011" stroke="#DDDDDD" stroke-width="0.191361" stroke-miterlimit="10"/>
<path d="M53.083 10.8005V14.0011" stroke="#DDDDDD" stroke-width="0.191361" stroke-miterlimit="10"/>
<path d="M9.24268 15.6045H56.2107" stroke="#DDDDDD" stroke-width="0.191361" stroke-miterlimit="10"/>
<path d="M9.24316 18.8032H56.2112" stroke="#DDDDDD" stroke-width="0.191361" stroke-miterlimit="10"/>
<path d="M10.2837 15.6035V18.8041" stroke="#DDDDDD" stroke-width="0.191361" stroke-miterlimit="10"/>
<path d="M11.8828 15.6035V18.8041" stroke="#DDDDDD" stroke-width="0.191361" stroke-miterlimit="10"/>
<path d="M13.4834 15.6035V18.8041" stroke="#DDDDDD" stroke-width="0.191361" stroke-miterlimit="10"/>
<path d="M15.0845 15.6035V18.8041" stroke="#DDDDDD" stroke-width="0.191361" stroke-miterlimit="10"/>
<path d="M16.6855 15.6035V18.8041" stroke="#DDDDDD" stroke-width="0.191361" stroke-miterlimit="10"/>
<path d="M18.2842 15.6035V18.8041" stroke="#DDDDDD" stroke-width="0.191361" stroke-miterlimit="10"/>
<path d="M19.8853 15.6035V18.8041" stroke="#DDDDDD" stroke-width="0.191361" stroke-miterlimit="10"/>
<path d="M21.4844 15.6035V18.8041" stroke="#DDDDDD" stroke-width="0.191361" stroke-miterlimit="10"/>
<path d="M23.0874 15.6035V18.8041" stroke="#DDDDDD" stroke-width="0.191361" stroke-miterlimit="10"/>
<path d="M24.686 15.6035V18.8041" stroke="#DDDDDD" stroke-width="0.191361" stroke-miterlimit="10"/>
<path d="M26.2871 15.6035V18.8041" stroke="#DDDDDD" stroke-width="0.191361" stroke-miterlimit="10"/>
<path d="M27.8857 15.6035V18.8041" stroke="#DDDDDD" stroke-width="0.191361" stroke-miterlimit="10"/>
<path d="M29.4868 15.6035V18.8041" stroke="#DDDDDD" stroke-width="0.191361" stroke-miterlimit="10"/>
<path d="M31.0859 15.6035V18.8041" stroke="#DDDDDD" stroke-width="0.191361" stroke-miterlimit="10"/>
<path d="M32.689 15.6035V18.8041" stroke="#DDDDDD" stroke-width="0.191361" stroke-miterlimit="10"/>
<path d="M34.2876 15.6035V18.8041" stroke="#DDDDDD" stroke-width="0.191361" stroke-miterlimit="10"/>
<path d="M35.8867 15.6035V18.8041" stroke="#DDDDDD" stroke-width="0.191361" stroke-miterlimit="10"/>
<path d="M37.4878 15.6035V18.8041" stroke="#DDDDDD" stroke-width="0.191361" stroke-miterlimit="10"/>
<path d="M39.0864 15.6035V18.8041" stroke="#DDDDDD" stroke-width="0.191361" stroke-miterlimit="10"/>
<path d="M40.6895 15.6035V18.8041" stroke="#DDDDDD" stroke-width="0.191361" stroke-miterlimit="10"/>
<path d="M42.2886 15.6035V18.8041" stroke="#DDDDDD" stroke-width="0.191361" stroke-miterlimit="10"/>
<path d="M43.8892 15.6035V18.8041" stroke="#DDDDDD" stroke-width="0.191361" stroke-miterlimit="10"/>
<path d="M45.4883 15.6035V18.8041" stroke="#DDDDDD" stroke-width="0.191361" stroke-miterlimit="10"/>
<path d="M47.0894 15.6035V18.8041" stroke="#DDDDDD" stroke-width="0.191361" stroke-miterlimit="10"/>
<path d="M48.6899 15.6035V18.8041" stroke="#DDDDDD" stroke-width="0.191361" stroke-miterlimit="10"/>
<path d="M50.291 15.6035V18.8041" stroke="#DDDDDD" stroke-width="0.191361" stroke-miterlimit="10"/>
<path d="M51.8901 15.6035V18.8041" stroke="#DDDDDD" stroke-width="0.191361" stroke-miterlimit="10"/>
<path d="M53.4907 15.6035V18.8041" stroke="#DDDDDD" stroke-width="0.191361" stroke-miterlimit="10"/>
<path d="M55.0898 15.6035V18.8041" stroke="#DDDDDD" stroke-width="0.191361" stroke-miterlimit="10"/>
<path d="M7.23828 20.4043H54.2064" stroke="#DDDDDD" stroke-width="0.191361" stroke-miterlimit="10"/>
<path d="M7.23828 23.6052H54.2064" stroke="#DDDDDD" stroke-width="0.191361" stroke-miterlimit="10"/>
<path d="M8.27686 20.4043V23.6048" stroke="#DDDDDD" stroke-width="0.191361" stroke-miterlimit="10"/>
<path d="M9.87598 20.4043V23.6048" stroke="#DDDDDD" stroke-width="0.191361" stroke-miterlimit="10"/>
<path d="M11.4766 20.4043V23.6048" stroke="#DDDDDD" stroke-width="0.191361" stroke-miterlimit="10"/>
<path d="M13.0776 20.4043V23.6048" stroke="#DDDDDD" stroke-width="0.191361" stroke-miterlimit="10"/>
<path d="M14.6787 20.4043V23.6048" stroke="#DDDDDD" stroke-width="0.191361" stroke-miterlimit="10"/>
<path d="M16.2773 20.4043V23.6048" stroke="#DDDDDD" stroke-width="0.191361" stroke-miterlimit="10"/>
<path d="M17.8784 20.4043V23.6048" stroke="#DDDDDD" stroke-width="0.191361" stroke-miterlimit="10"/>
<path d="M19.4775 20.4043V23.6048" stroke="#DDDDDD" stroke-width="0.191361" stroke-miterlimit="10"/>
<path d="M21.0806 20.4043V23.6048" stroke="#DDDDDD" stroke-width="0.191361" stroke-miterlimit="10"/>
<path d="M22.6792 20.4043V23.6048" stroke="#DDDDDD" stroke-width="0.191361" stroke-miterlimit="10"/>
<path d="M24.2803 20.4043V23.6048" stroke="#DDDDDD" stroke-width="0.191361" stroke-miterlimit="10"/>
<path d="M25.8789 20.4043V23.6048" stroke="#DDDDDD" stroke-width="0.191361" stroke-miterlimit="10"/>
<path d="M27.48 20.4043V23.6048" stroke="#DDDDDD" stroke-width="0.191361" stroke-miterlimit="10"/>
<path d="M29.0791 20.4043V23.6048" stroke="#DDDDDD" stroke-width="0.191361" stroke-miterlimit="10"/>
<path d="M30.6821 20.4043V23.6048" stroke="#DDDDDD" stroke-width="0.191361" stroke-miterlimit="10"/>
<path d="M32.2808 20.4043V23.6048" stroke="#DDDDDD" stroke-width="0.191361" stroke-miterlimit="10"/>
<path d="M33.8818 20.4043V23.6048" stroke="#DDDDDD" stroke-width="0.191361" stroke-miterlimit="10"/>
<path d="M35.481 20.4043V23.6048" stroke="#DDDDDD" stroke-width="0.191361" stroke-miterlimit="10"/>
<path d="M37.0815 20.4043V23.6048" stroke="#DDDDDD" stroke-width="0.191361" stroke-miterlimit="10"/>
<path d="M38.6826 20.4043V23.6048" stroke="#DDDDDD" stroke-width="0.191361" stroke-miterlimit="10"/>
<path d="M40.2837 20.4043V23.6048" stroke="#DDDDDD" stroke-width="0.191361" stroke-miterlimit="10"/>
<path d="M41.8823 20.4043V23.6048" stroke="#DDDDDD" stroke-width="0.191361" stroke-miterlimit="10"/>
<path d="M43.4834 20.4043V23.6048" stroke="#DDDDDD" stroke-width="0.191361" stroke-miterlimit="10"/>
<path d="M45.0825 20.4043V23.6048" stroke="#DDDDDD" stroke-width="0.191361" stroke-miterlimit="10"/>
<path d="M46.6831 20.4043V23.6048" stroke="#DDDDDD" stroke-width="0.191361" stroke-miterlimit="10"/>
<path d="M48.2842 20.4043V23.6048" stroke="#DDDDDD" stroke-width="0.191361" stroke-miterlimit="10"/>
<path d="M49.8833 20.4043V23.6048" stroke="#DDDDDD" stroke-width="0.191361" stroke-miterlimit="10"/>
<path d="M51.4839 20.4043V23.6048" stroke="#DDDDDD" stroke-width="0.191361" stroke-miterlimit="10"/>
<path d="M53.083 20.4043V23.6048" stroke="#DDDDDD" stroke-width="0.191361" stroke-miterlimit="10"/>
<path d="M9.24268 25.2051H56.2107" stroke="#DDDDDD" stroke-width="0.191361" stroke-miterlimit="10"/>
<path d="M9.24316 28.406H56.2112" stroke="#DDDDDD" stroke-width="0.191361" stroke-miterlimit="10"/>
<path d="M10.2837 25.2051V28.4056" stroke="#DDDDDD" stroke-width="0.191361" stroke-miterlimit="10"/>
<path d="M11.8828 25.2051V28.4056" stroke="#DDDDDD" stroke-width="0.191361" stroke-miterlimit="10"/>
<path d="M13.4834 25.2051V28.4056" stroke="#DDDDDD" stroke-width="0.191361" stroke-miterlimit="10"/>
<path d="M15.0845 25.2051V28.4056" stroke="#DDDDDD" stroke-width="0.191361" stroke-miterlimit="10"/>
<path d="M16.6855 25.2051V28.4056" stroke="#DDDDDD" stroke-width="0.191361" stroke-miterlimit="10"/>
<path d="M18.2842 25.2051V28.4056" stroke="#DDDDDD" stroke-width="0.191361" stroke-miterlimit="10"/>
<path d="M19.8853 25.2051V28.4056" stroke="#DDDDDD" stroke-width="0.191361" stroke-miterlimit="10"/>
<path d="M21.4844 25.2051V28.4056" stroke="#DDDDDD" stroke-width="0.191361" stroke-miterlimit="10"/>
<path d="M23.0874 25.2051V28.4056" stroke="#DDDDDD" stroke-width="0.191361" stroke-miterlimit="10"/>
<path d="M24.686 25.2051V28.4056" stroke="#DDDDDD" stroke-width="0.191361" stroke-miterlimit="10"/>
<path d="M26.2871 25.2051V28.4056" stroke="#DDDDDD" stroke-width="0.191361" stroke-miterlimit="10"/>
<path d="M27.8857 25.2051V28.4056" stroke="#DDDDDD" stroke-width="0.191361" stroke-miterlimit="10"/>
<path d="M29.4868 25.2051V28.4056" stroke="#DDDDDD" stroke-width="0.191361" stroke-miterlimit="10"/>
<path d="M31.0859 25.2051V28.4056" stroke="#DDDDDD" stroke-width="0.191361" stroke-miterlimit="10"/>
<path d="M32.689 25.2051V28.4056" stroke="#DDDDDD" stroke-width="0.191361" stroke-miterlimit="10"/>
<path d="M34.2876 25.2051V28.4056" stroke="#DDDDDD" stroke-width="0.191361" stroke-miterlimit="10"/>
<path d="M35.8867 25.2051V28.4056" stroke="#DDDDDD" stroke-width="0.191361" stroke-miterlimit="10"/>
<path d="M37.4878 25.2051V28.4056" stroke="#DDDDDD" stroke-width="0.191361" stroke-miterlimit="10"/>
<path d="M39.0864 25.2051V28.4056" stroke="#DDDDDD" stroke-width="0.191361" stroke-miterlimit="10"/>
<path d="M40.6895 25.2051V28.4056" stroke="#DDDDDD" stroke-width="0.191361" stroke-miterlimit="10"/>
<path d="M42.2886 25.2051V28.4056" stroke="#DDDDDD" stroke-width="0.191361" stroke-miterlimit="10"/>
<path d="M43.8892 25.2051V28.4056" stroke="#DDDDDD" stroke-width="0.191361" stroke-miterlimit="10"/>
<path d="M45.4883 25.2051V28.4056" stroke="#DDDDDD" stroke-width="0.191361" stroke-miterlimit="10"/>
<path d="M47.0894 25.2051V28.4056" stroke="#DDDDDD" stroke-width="0.191361" stroke-miterlimit="10"/>
<path d="M48.6899 25.2051V28.4056" stroke="#DDDDDD" stroke-width="0.191361" stroke-miterlimit="10"/>
<path d="M50.291 25.2051V28.4056" stroke="#DDDDDD" stroke-width="0.191361" stroke-miterlimit="10"/>
<path d="M51.8901 25.2051V28.4056" stroke="#DDDDDD" stroke-width="0.191361" stroke-miterlimit="10"/>
<path d="M53.4907 25.2051V28.4056" stroke="#DDDDDD" stroke-width="0.191361" stroke-miterlimit="10"/>
<path d="M55.0898 25.2051V28.4056" stroke="#DDDDDD" stroke-width="0.191361" stroke-miterlimit="10"/>
<path d="M7.23828 30.0068H54.2064" stroke="#DDDDDD" stroke-width="0.191361" stroke-miterlimit="10"/>
<path d="M7.23828 33.2068H54.2064" stroke="#DDDDDD" stroke-width="0.191361" stroke-miterlimit="10"/>
<path d="M8.27686 30.0059V33.2064" stroke="#DDDDDD" stroke-width="0.191361" stroke-miterlimit="10"/>
<path d="M9.87598 30.0059V33.2064" stroke="#DDDDDD" stroke-width="0.191361" stroke-miterlimit="10"/>
<path d="M11.4766 30.0059V33.2064" stroke="#DDDDDD" stroke-width="0.191361" stroke-miterlimit="10"/>
<path d="M13.0776 30.0059V33.2064" stroke="#DDDDDD" stroke-width="0.191361" stroke-miterlimit="10"/>
<path d="M14.6787 30.0059V33.2064" stroke="#DDDDDD" stroke-width="0.191361" stroke-miterlimit="10"/>
<path d="M16.2773 30.0059V33.2064" stroke="#DDDDDD" stroke-width="0.191361" stroke-miterlimit="10"/>
<path d="M17.8784 30.0059V33.2064" stroke="#DDDDDD" stroke-width="0.191361" stroke-miterlimit="10"/>
<path d="M19.4775 30.0059V33.2064" stroke="#DDDDDD" stroke-width="0.191361" stroke-miterlimit="10"/>
<path d="M21.0806 30.0059V33.2064" stroke="#DDDDDD" stroke-width="0.191361" stroke-miterlimit="10"/>
<path d="M22.6792 30.0059V33.2064" stroke="#DDDDDD" stroke-width="0.191361" stroke-miterlimit="10"/>
<path d="M24.2803 30.0059V33.2064" stroke="#DDDDDD" stroke-width="0.191361" stroke-miterlimit="10"/>
<path d="M25.8789 30.0059V33.2064" stroke="#DDDDDD" stroke-width="0.191361" stroke-miterlimit="10"/>
<path d="M27.48 30.0059V33.2064" stroke="#DDDDDD" stroke-width="0.191361" stroke-miterlimit="10"/>
<path d="M29.0791 30.0059V33.2064" stroke="#DDDDDD" stroke-width="0.191361" stroke-miterlimit="10"/>
<path d="M30.6821 30.0059V33.2064" stroke="#DDDDDD" stroke-width="0.191361" stroke-miterlimit="10"/>
<path d="M32.2808 30.0059V33.2064" stroke="#DDDDDD" stroke-width="0.191361" stroke-miterlimit="10"/>
<path d="M33.8818 30.0059V33.2064" stroke="#DDDDDD" stroke-width="0.191361" stroke-miterlimit="10"/>
<path d="M35.481 30.0059V33.2064" stroke="#DDDDDD" stroke-width="0.191361" stroke-miterlimit="10"/>
<path d="M37.0815 30.0059V33.2064" stroke="#DDDDDD" stroke-width="0.191361" stroke-miterlimit="10"/>
<path d="M38.6826 30.0059V33.2064" stroke="#DDDDDD" stroke-width="0.191361" stroke-miterlimit="10"/>
<path d="M40.2837 30.0059V33.2064" stroke="#DDDDDD" stroke-width="0.191361" stroke-miterlimit="10"/>
<path d="M41.8823 30.0059V33.2064" stroke="#DDDDDD" stroke-width="0.191361" stroke-miterlimit="10"/>
<path d="M43.4834 30.0059V33.2064" stroke="#DDDDDD" stroke-width="0.191361" stroke-miterlimit="10"/>
<path d="M45.0825 30.0059V33.2064" stroke="#DDDDDD" stroke-width="0.191361" stroke-miterlimit="10"/>
<path d="M46.6831 30.0059V33.2064" stroke="#DDDDDD" stroke-width="0.191361" stroke-miterlimit="10"/>
<path d="M48.2842 30.0059V33.2064" stroke="#DDDDDD" stroke-width="0.191361" stroke-miterlimit="10"/>
<path d="M49.8833 30.0059V33.2064" stroke="#DDDDDD" stroke-width="0.191361" stroke-miterlimit="10"/>
<path d="M51.4839 30.0059V33.2064" stroke="#DDDDDD" stroke-width="0.191361" stroke-miterlimit="10"/>
<path d="M53.083 30.0059V33.2064" stroke="#DDDDDD" stroke-width="0.191361" stroke-miterlimit="10"/>
<path d="M9.24268 34.8066H56.2108" stroke="#DDDDDD" stroke-width="0.191361" stroke-miterlimit="10"/>
<path d="M9.24316 38.0076H56.2112" stroke="#DDDDDD" stroke-width="0.191361" stroke-miterlimit="10"/>
<path d="M10.2837 34.8066V38.0072" stroke="#DDDDDD" stroke-width="0.191361" stroke-miterlimit="10"/>
<path d="M11.8828 34.8066V38.0072" stroke="#DDDDDD" stroke-width="0.191361" stroke-miterlimit="10"/>
<path d="M13.4834 34.8066V38.0072" stroke="#DDDDDD" stroke-width="0.191361" stroke-miterlimit="10"/>
<path d="M15.0845 34.8066V38.0072" stroke="#DDDDDD" stroke-width="0.191361" stroke-miterlimit="10"/>
<path d="M16.6855 34.8066V38.0072" stroke="#DDDDDD" stroke-width="0.191361" stroke-miterlimit="10"/>
<path d="M18.2842 34.8066V38.0072" stroke="#DDDDDD" stroke-width="0.191361" stroke-miterlimit="10"/>
<path d="M19.8853 34.8066V38.0072" stroke="#DDDDDD" stroke-width="0.191361" stroke-miterlimit="10"/>
<path d="M21.4844 34.8066V38.0072" stroke="#DDDDDD" stroke-width="0.191361" stroke-miterlimit="10"/>
<path d="M23.0874 34.8066V38.0072" stroke="#DDDDDD" stroke-width="0.191361" stroke-miterlimit="10"/>
<path d="M24.686 34.8066V38.0072" stroke="#DDDDDD" stroke-width="0.191361" stroke-miterlimit="10"/>
<path d="M26.2871 34.8066V38.0072" stroke="#DDDDDD" stroke-width="0.191361" stroke-miterlimit="10"/>
<path d="M27.8857 34.8066V38.0072" stroke="#DDDDDD" stroke-width="0.191361" stroke-miterlimit="10"/>
<path d="M29.4868 34.8066V38.0072" stroke="#DDDDDD" stroke-width="0.191361" stroke-miterlimit="10"/>
<path d="M31.0859 34.8066V38.0072" stroke="#DDDDDD" stroke-width="0.191361" stroke-miterlimit="10"/>
<path d="M32.689 34.8066V38.0072" stroke="#DDDDDD" stroke-width="0.191361" stroke-miterlimit="10"/>
<path d="M34.2876 34.8066V38.0072" stroke="#DDDDDD" stroke-width="0.191361" stroke-miterlimit="10"/>
<path d="M35.8867 34.8066V38.0072" stroke="#DDDDDD" stroke-width="0.191361" stroke-miterlimit="10"/>
<path d="M37.4878 34.8066V38.0072" stroke="#DDDDDD" stroke-width="0.191361" stroke-miterlimit="10"/>
<path d="M39.0864 34.8066V38.0072" stroke="#DDDDDD" stroke-width="0.191361" stroke-miterlimit="10"/>
<path d="M40.6895 34.8066V38.0072" stroke="#DDDDDD" stroke-width="0.191361" stroke-miterlimit="10"/>
<path d="M42.2886 34.8066V38.0072" stroke="#DDDDDD" stroke-width="0.191361" stroke-miterlimit="10"/>
<path d="M43.8892 34.8066V38.0072" stroke="#DDDDDD" stroke-width="0.191361" stroke-miterlimit="10"/>
<path d="M45.4883 34.8066V38.0072" stroke="#DDDDDD" stroke-width="0.191361" stroke-miterlimit="10"/>
<path d="M47.0894 34.8066V38.0072" stroke="#DDDDDD" stroke-width="0.191361" stroke-miterlimit="10"/>
<path d="M48.6899 34.8066V38.0072" stroke="#DDDDDD" stroke-width="0.191361" stroke-miterlimit="10"/>
<path d="M50.291 34.8066V38.0072" stroke="#DDDDDD" stroke-width="0.191361" stroke-miterlimit="10"/>
<path d="M51.8901 34.8066V38.0072" stroke="#DDDDDD" stroke-width="0.191361" stroke-miterlimit="10"/>
<path d="M53.4907 34.8066V38.0072" stroke="#DDDDDD" stroke-width="0.191361" stroke-miterlimit="10"/>
<path d="M55.0898 34.8066V38.0072" stroke="#DDDDDD" stroke-width="0.191361" stroke-miterlimit="10"/>
<path d="M7.23828 39.6077H54.2064" stroke="#DDDDDD" stroke-width="0.191361" stroke-miterlimit="10"/>
<path d="M7.23828 42.8086H54.2064" stroke="#DDDDDD" stroke-width="0.191361" stroke-miterlimit="10"/>
<path d="M8.27686 39.6077V42.8082" stroke="#DDDDDD" stroke-width="0.191361" stroke-miterlimit="10"/>
<path d="M9.87598 39.6077V42.8082" stroke="#DDDDDD" stroke-width="0.191361" stroke-miterlimit="10"/>
<path d="M11.4766 39.6077V42.8082" stroke="#DDDDDD" stroke-width="0.191361" stroke-miterlimit="10"/>
<path d="M13.0776 39.6077V42.8082" stroke="#DDDDDD" stroke-width="0.191361" stroke-miterlimit="10"/>
<path d="M14.6787 39.6077V42.8082" stroke="#DDDDDD" stroke-width="0.191361" stroke-miterlimit="10"/>
<path d="M16.2773 39.6077V42.8082" stroke="#DDDDDD" stroke-width="0.191361" stroke-miterlimit="10"/>
<path d="M17.8784 39.6077V42.8082" stroke="#DDDDDD" stroke-width="0.191361" stroke-miterlimit="10"/>
<path d="M19.4775 39.6077V42.8082" stroke="#DDDDDD" stroke-width="0.191361" stroke-miterlimit="10"/>
<path d="M21.0806 39.6077V42.8082" stroke="#DDDDDD" stroke-width="0.191361" stroke-miterlimit="10"/>
<path d="M22.6792 39.6077V42.8082" stroke="#DDDDDD" stroke-width="0.191361" stroke-miterlimit="10"/>
<path d="M24.2803 39.6077V42.8082" stroke="#DDDDDD" stroke-width="0.191361" stroke-miterlimit="10"/>
<path d="M25.8789 39.6077V42.8082" stroke="#DDDDDD" stroke-width="0.191361" stroke-miterlimit="10"/>
<path d="M27.48 39.6077V42.8082" stroke="#DDDDDD" stroke-width="0.191361" stroke-miterlimit="10"/>
<path d="M29.0791 39.6077V42.8082" stroke="#DDDDDD" stroke-width="0.191361" stroke-miterlimit="10"/>
<path d="M30.6821 39.6077V42.8082" stroke="#DDDDDD" stroke-width="0.191361" stroke-miterlimit="10"/>
<path d="M32.2808 39.6077V42.8082" stroke="#DDDDDD" stroke-width="0.191361" stroke-miterlimit="10"/>
<path d="M33.8818 39.6077V42.8082" stroke="#DDDDDD" stroke-width="0.191361" stroke-miterlimit="10"/>
<path d="M35.481 39.6077V42.8082" stroke="#DDDDDD" stroke-width="0.191361" stroke-miterlimit="10"/>
<path d="M37.0815 39.6077V42.8082" stroke="#DDDDDD" stroke-width="0.191361" stroke-miterlimit="10"/>
<path d="M38.6826 39.6077V42.8082" stroke="#DDDDDD" stroke-width="0.191361" stroke-miterlimit="10"/>
<path d="M40.2837 39.6077V42.8082" stroke="#DDDDDD" stroke-width="0.191361" stroke-miterlimit="10"/>
<path d="M41.8823 39.6077V42.8082" stroke="#DDDDDD" stroke-width="0.191361" stroke-miterlimit="10"/>
<path d="M43.4834 39.6077V42.8082" stroke="#DDDDDD" stroke-width="0.191361" stroke-miterlimit="10"/>
<path d="M45.0825 39.6077V42.8082" stroke="#DDDDDD" stroke-width="0.191361" stroke-miterlimit="10"/>
<path d="M46.6831 39.6077V42.8082" stroke="#DDDDDD" stroke-width="0.191361" stroke-miterlimit="10"/>
<path d="M48.2842 39.6077V42.8082" stroke="#DDDDDD" stroke-width="0.191361" stroke-miterlimit="10"/>
<path d="M49.8833 39.6077V42.8082" stroke="#DDDDDD" stroke-width="0.191361" stroke-miterlimit="10"/>
<path d="M51.4839 39.6077V42.8082" stroke="#DDDDDD" stroke-width="0.191361" stroke-miterlimit="10"/>
<path d="M53.083 39.6077V42.8082" stroke="#DDDDDD" stroke-width="0.191361" stroke-miterlimit="10"/>
<path d="M9.24268 44.4072H56.2107" stroke="#DDDDDD" stroke-width="0.191361" stroke-miterlimit="10"/>
<path d="M9.24316 47.6072H56.2112" stroke="#DDDDDD" stroke-width="0.191361" stroke-miterlimit="10"/>
<path d="M10.2837 44.4062V47.6068" stroke="#DDDDDD" stroke-width="0.191361" stroke-miterlimit="10"/>
<path d="M11.8828 44.4062V47.6068" stroke="#DDDDDD" stroke-width="0.191361" stroke-miterlimit="10"/>
<path d="M13.4834 44.4062V47.6068" stroke="#DDDDDD" stroke-width="0.191361" stroke-miterlimit="10"/>
<path d="M15.0845 44.4062V47.6068" stroke="#DDDDDD" stroke-width="0.191361" stroke-miterlimit="10"/>
<path d="M16.6855 44.4062V47.6068" stroke="#DDDDDD" stroke-width="0.191361" stroke-miterlimit="10"/>
<path d="M18.2842 44.4062V47.6068" stroke="#DDDDDD" stroke-width="0.191361" stroke-miterlimit="10"/>
<path d="M19.8853 44.4062V47.6068" stroke="#DDDDDD" stroke-width="0.191361" stroke-miterlimit="10"/>
<path d="M21.4844 44.4062V47.6068" stroke="#DDDDDD" stroke-width="0.191361" stroke-miterlimit="10"/>
<path d="M23.0874 44.4062V47.6068" stroke="#DDDDDD" stroke-width="0.191361" stroke-miterlimit="10"/>
<path d="M24.686 44.4062V47.6068" stroke="#DDDDDD" stroke-width="0.191361" stroke-miterlimit="10"/>
<path d="M26.2871 44.4062V47.6068" stroke="#DDDDDD" stroke-width="0.191361" stroke-miterlimit="10"/>
<path d="M27.8857 44.4062V47.6068" stroke="#DDDDDD" stroke-width="0.191361" stroke-miterlimit="10"/>
<path d="M29.4868 44.4062V47.6068" stroke="#DDDDDD" stroke-width="0.191361" stroke-miterlimit="10"/>
<path d="M31.0859 44.4062V47.6068" stroke="#DDDDDD" stroke-width="0.191361" stroke-miterlimit="10"/>
<path d="M32.689 44.4062V47.6068" stroke="#DDDDDD" stroke-width="0.191361" stroke-miterlimit="10"/>
<path d="M34.2876 44.4062V47.6068" stroke="#DDDDDD" stroke-width="0.191361" stroke-miterlimit="10"/>
<path d="M35.8867 44.4062V47.6068" stroke="#DDDDDD" stroke-width="0.191361" stroke-miterlimit="10"/>
<path d="M37.4878 44.4062V47.6068" stroke="#DDDDDD" stroke-width="0.191361" stroke-miterlimit="10"/>
<path d="M39.0864 44.4062V47.6068" stroke="#DDDDDD" stroke-width="0.191361" stroke-miterlimit="10"/>
<path d="M40.6895 44.4062V47.6068" stroke="#DDDDDD" stroke-width="0.191361" stroke-miterlimit="10"/>
<path d="M42.2886 44.4062V47.6068" stroke="#DDDDDD" stroke-width="0.191361" stroke-miterlimit="10"/>
<path d="M43.8892 44.4062V47.6068" stroke="#DDDDDD" stroke-width="0.191361" stroke-miterlimit="10"/>
<path d="M45.4883 44.4062V47.6068" stroke="#DDDDDD" stroke-width="0.191361" stroke-miterlimit="10"/>
<path d="M47.0894 44.4062V47.6068" stroke="#DDDDDD" stroke-width="0.191361" stroke-miterlimit="10"/>
<path d="M48.6899 44.4062V47.6068" stroke="#DDDDDD" stroke-width="0.191361" stroke-miterlimit="10"/>
<path d="M50.291 44.4062V47.6068" stroke="#DDDDDD" stroke-width="0.191361" stroke-miterlimit="10"/>
<path d="M51.8901 44.4062V47.6068" stroke="#DDDDDD" stroke-width="0.191361" stroke-miterlimit="10"/>
<path d="M53.4907 44.4062V47.6068" stroke="#DDDDDD" stroke-width="0.191361" stroke-miterlimit="10"/>
<path d="M55.0898 44.4062V47.6068" stroke="#DDDDDD" stroke-width="0.191361" stroke-miterlimit="10"/>
<path d="M7.23828 49.2073H54.2064" stroke="#DDDDDD" stroke-width="0.191361" stroke-miterlimit="10"/>
<path d="M7.23828 52.4082H54.2064" stroke="#DDDDDD" stroke-width="0.191361" stroke-miterlimit="10"/>
<path d="M8.27637 49.2085V52.409" stroke="#DDDDDD" stroke-width="0.191361" stroke-miterlimit="10"/>
<path d="M9.87549 49.2085V52.409" stroke="#DDDDDD" stroke-width="0.191361" stroke-miterlimit="10"/>
<path d="M11.4761 49.2085V52.409" stroke="#DDDDDD" stroke-width="0.191361" stroke-miterlimit="10"/>
<path d="M13.0771 49.2085V52.409" stroke="#DDDDDD" stroke-width="0.191361" stroke-miterlimit="10"/>
<path d="M14.6782 49.2085V52.409" stroke="#DDDDDD" stroke-width="0.191361" stroke-miterlimit="10"/>
<path d="M16.2769 49.2085V52.409" stroke="#DDDDDD" stroke-width="0.191361" stroke-miterlimit="10"/>
<path d="M17.8779 49.2085V52.409" stroke="#DDDDDD" stroke-width="0.191361" stroke-miterlimit="10"/>
<path d="M19.4771 49.2085V52.409" stroke="#DDDDDD" stroke-width="0.191361" stroke-miterlimit="10"/>
<path d="M21.0801 49.2085V52.409" stroke="#DDDDDD" stroke-width="0.191361" stroke-miterlimit="10"/>
<path d="M22.6787 49.2085V52.409" stroke="#DDDDDD" stroke-width="0.191361" stroke-miterlimit="10"/>
<path d="M24.2798 49.2085V52.409" stroke="#DDDDDD" stroke-width="0.191361" stroke-miterlimit="10"/>
<path d="M25.8784 49.2085V52.409" stroke="#DDDDDD" stroke-width="0.191361" stroke-miterlimit="10"/>
<path d="M27.4795 49.2085V52.409" stroke="#DDDDDD" stroke-width="0.191361" stroke-miterlimit="10"/>
<path d="M29.0786 49.2085V52.409" stroke="#DDDDDD" stroke-width="0.191361" stroke-miterlimit="10"/>
<path d="M30.6816 49.2085V52.409" stroke="#DDDDDD" stroke-width="0.191361" stroke-miterlimit="10"/>
<path d="M32.2803 49.2085V52.409" stroke="#DDDDDD" stroke-width="0.191361" stroke-miterlimit="10"/>
<path d="M33.8813 49.2085V52.409" stroke="#DDDDDD" stroke-width="0.191361" stroke-miterlimit="10"/>
<path d="M35.4805 49.2085V52.409" stroke="#DDDDDD" stroke-width="0.191361" stroke-miterlimit="10"/>
<path d="M37.0811 49.2085V52.409" stroke="#DDDDDD" stroke-width="0.191361" stroke-miterlimit="10"/>
<path d="M38.6821 49.2085V52.409" stroke="#DDDDDD" stroke-width="0.191361" stroke-miterlimit="10"/>
<path d="M40.2832 49.2085V52.409" stroke="#DDDDDD" stroke-width="0.191361" stroke-miterlimit="10"/>
<path d="M41.8818 49.2085V52.409" stroke="#DDDDDD" stroke-width="0.191361" stroke-miterlimit="10"/>
<path d="M43.4829 49.2085V52.409" stroke="#DDDDDD" stroke-width="0.191361" stroke-miterlimit="10"/>
<path d="M45.082 49.2085V52.409" stroke="#DDDDDD" stroke-width="0.191361" stroke-miterlimit="10"/>
<path d="M46.6826 49.2085V52.409" stroke="#DDDDDD" stroke-width="0.191361" stroke-miterlimit="10"/>
<path d="M48.2837 49.2085V52.409" stroke="#DDDDDD" stroke-width="0.191361" stroke-miterlimit="10"/>
<path d="M49.8828 49.2085V52.409" stroke="#DDDDDD" stroke-width="0.191361" stroke-miterlimit="10"/>
<path d="M51.4834 49.2085V52.409" stroke="#DDDDDD" stroke-width="0.191361" stroke-miterlimit="10"/>
<path d="M53.0825 49.2085V52.409" stroke="#DDDDDD" stroke-width="0.191361" stroke-miterlimit="10"/>
<path d="M56.4898 8.37556V6.51078C56.4898 5.71725 55.8502 5.04275 55.0107 5.04275H53.012C53.8115 5.04275 54.4911 4.40793 54.4911 3.57473V1.86866C54.4911 1.07513 53.8515 0.400635 53.012 0.400635H8.80034C8.00085 0.400635 7.32129 1.03545 7.32129 1.86866V3.73344C7.32129 4.52696 7.96088 5.20146 8.80034 5.20146H10.7991C9.99957 5.20146 9.32001 5.83628 9.32001 6.66948V8.53426C9.32001 9.32779 9.9596 10.0023 10.7991 10.0023H8.80034C8.00085 10.0023 7.32129 10.6371 7.32129 11.4703V13.3351C7.32129 14.1286 7.96088 14.8031 8.80034 14.8031H10.7991C9.99957 14.8031 9.32001 15.4379 9.32001 16.2711V18.1359C9.32001 18.9294 9.9596 19.6039 10.7991 19.6039H8.80034C8.00085 19.6039 7.32129 20.2388 7.32129 21.072V22.9367C7.32129 23.7303 7.96088 24.4048 8.80034 24.4048H10.7991C9.99957 24.4048 9.32001 25.0396 9.32001 25.8728V27.7376C9.32001 28.5311 9.9596 29.2056 10.7991 29.2056H8.80034C8.00085 29.2056 7.32129 29.8404 7.32129 30.6736V32.5384C7.32129 33.3319 7.96088 34.0064 8.80034 34.0064H10.7991C9.99957 34.0064 9.32001 34.6412 9.32001 35.4744V37.3392C9.32001 38.1327 9.9596 38.8072 10.7991 38.8072H8.80034C8.00085 38.8072 7.32129 39.4421 7.32129 40.2753V42.14C7.32129 42.9336 7.96088 43.6081 8.80034 43.6081H10.7991C9.99957 43.6081 9.32001 44.2429 9.32001 45.0761V46.9409C9.32001 47.7344 9.9596 48.4089 10.7991 48.4089H8.80034C8.00085 48.4089 7.32129 49.0437 7.32129 49.8769V51.7417C7.32129 52.5352 7.96088 53.2097 8.80034 53.2097H53.052C53.8515 53.2097 54.531 52.5749 54.531 51.7417V49.8769C54.531 49.0834 53.8914 48.4089 53.052 48.4089H55.0507C55.8502 48.4089 56.5297 47.7741 56.5297 46.9409V45.0761C56.5297 44.2826 55.8902 43.6081 55.0507 43.6081H53.052C53.8515 43.6081 54.531 42.9732 54.531 42.14V40.2753C54.531 39.4817 53.8914 38.8072 53.052 38.8072H55.0507C55.8502 38.8072 56.5297 38.1724 56.5297 37.3392V35.4744C56.5297 34.6809 55.8902 34.0064 55.0507 34.0064H53.052C53.8515 34.0064 54.531 33.3716 54.531 32.5384V30.6736C54.531 29.8801 53.8914 29.2056 53.052 29.2056H55.0507C55.8502 29.2056 56.5297 28.5708 56.5297 27.7376V25.8728C56.5297 25.0793 55.8902 24.4048 55.0507 24.4048H53.052C53.8515 24.4048 54.531 23.7699 54.531 22.9367V21.072C54.531 20.2784 53.8914 19.6039 53.052 19.6039H55.0507C55.8502 19.6039 56.5297 18.9691 56.5297 18.1359V16.2711C56.5297 15.4776 55.8902 14.8031 55.0507 14.8031H53.052C53.8515 14.8031 54.531 14.1683 54.531 13.3351V11.4703C54.531 10.6768 53.8914 10.0023 53.052 10.0023H55.0507C55.8502 9.84358 56.4898 9.20876 56.4898 8.37556Z" stroke="#808080" stroke-width="0.382721" stroke-miterlimit="10"/>
</g>
<path d="M37.8286 32.1105H40.5485L29.6303 52.2969H26.9362L37.8286 32.1105ZM21.7801 37.0733C21.7801 36.1967 21.9691 35.3632 22.3472 34.5725C22.7339 33.7819 23.3183 33.1761 24.1003 32.755C24.8909 32.3253 25.8234 32.1105 26.8976 32.1105C28.4788 32.1105 29.7248 32.5616 30.6358 33.464C31.5467 34.3663 32.0022 35.5694 32.0022 37.0733C32.0022 38.5858 31.5467 39.7932 30.6358 40.6955C29.7248 41.5978 28.4788 42.049 26.8976 42.049C25.8234 42.049 24.8909 41.8384 24.1003 41.4173C23.3183 40.9877 22.7339 40.3775 22.3472 39.5869C21.9691 38.7963 21.7801 37.9584 21.7801 37.0733ZM25.4023 37.0991C25.4023 38.1647 25.5741 38.9381 25.9179 39.4193C26.1413 39.7373 26.4679 39.8963 26.8976 39.8963C27.3272 39.8963 27.6495 39.7373 27.8643 39.4193C28.2081 38.9381 28.3799 38.1647 28.3799 37.0991C28.3799 36.042 28.2081 35.2686 27.8643 34.7788C27.6495 34.4694 27.3272 34.3147 26.8976 34.3147C26.4679 34.3147 26.1413 34.4694 25.9179 34.7788C25.5741 35.26 25.4023 36.0335 25.4023 37.0991ZM35.4052 47.2954C35.4052 46.4102 35.5943 45.5767 35.9724 44.7946C36.3505 44.004 36.9349 43.3939 37.7255 42.9642C38.5161 42.5345 39.4442 42.3197 40.5098 42.3197C42.0996 42.3197 43.35 42.7751 44.2609 43.6861C45.1719 44.5884 45.6273 45.7915 45.6273 47.2954C45.6273 48.7993 45.1719 50.0067 44.2609 50.9176C43.35 51.8199 42.0996 52.2711 40.5098 52.2711C39.4442 52.2711 38.5161 52.0562 37.7255 51.6266C36.9349 51.1969 36.3505 50.591 35.9724 49.809C35.5943 49.0184 35.4052 48.1805 35.4052 47.2954ZM39.0274 47.3212C39.0274 48.3868 39.1993 49.1602 39.543 49.6414C39.7579 49.9508 40.0802 50.1055 40.5098 50.1055C40.9395 50.1055 41.2661 49.9508 41.4895 49.6414C41.8332 49.1602 42.0051 48.3868 42.0051 47.3212C42.0051 46.2556 41.8332 45.4778 41.4895 44.988C41.2661 44.6786 40.9395 44.5239 40.5098 44.5239C40.0802 44.5239 39.7579 44.6829 39.543 45.0009C39.1993 45.4821 39.0274 46.2556 39.0274 47.3212Z" fill="#900583"/>
<path d="M2 52H74V71H7L2 52Z" fill="#900583"/>
<path d="M9.58555 65.0273V63.3691L13.6988 61.752L9.58555 60.1523V58.5059L15.4801 61.0547V62.4609L9.58555 65.0273ZM24.4869 64.4707V66H18.7154C18.7779 65.4219 18.9654 64.875 19.2779 64.3594C19.5904 63.8398 20.2076 63.1523 21.1295 62.2969C21.8716 61.6055 22.3267 61.1367 22.4947 60.8906C22.7212 60.5508 22.8345 60.2148 22.8345 59.8828C22.8345 59.5156 22.7349 59.2344 22.5357 59.0391C22.3404 58.8398 22.0689 58.7402 21.7212 58.7402C21.3775 58.7402 21.1041 58.8438 20.9009 59.0508C20.6978 59.2578 20.5806 59.6016 20.5494 60.082L18.9087 59.918C19.0064 59.0117 19.313 58.3613 19.8287 57.9668C20.3443 57.5723 20.9888 57.375 21.7623 57.375C22.6099 57.375 23.2759 57.6035 23.7603 58.0605C24.2447 58.5176 24.4869 59.0859 24.4869 59.7656C24.4869 60.1523 24.4166 60.5215 24.2759 60.873C24.1392 61.2207 23.9205 61.5859 23.6197 61.9688C23.4205 62.2227 23.0611 62.5879 22.5416 63.0645C22.022 63.541 21.692 63.8574 21.5513 64.0137C21.4146 64.1699 21.3033 64.3223 21.2173 64.4707H24.4869ZM28.3545 66V64.2715H24.8389V62.8301L28.5655 57.375H29.9483V62.8242H31.0147V64.2715H29.9483V66H28.3545ZM28.3545 62.8242V59.8887L26.3799 62.8242H28.3545ZM34.1089 57.375C34.9409 57.375 35.5913 57.6719 36.0601 58.2656C36.6187 58.9688 36.898 60.1348 36.898 61.7637C36.898 63.3887 36.6167 64.5566 36.0542 65.2676C35.5894 65.8535 34.9409 66.1465 34.1089 66.1465C33.273 66.1465 32.5991 65.8262 32.0874 65.1855C31.5757 64.541 31.3198 63.3945 31.3198 61.7461C31.3198 60.1289 31.6011 58.9648 32.1636 58.2539C32.6284 57.668 33.2769 57.375 34.1089 57.375ZM34.1089 58.7402C33.9097 58.7402 33.732 58.8047 33.5757 58.9336C33.4195 59.0586 33.2984 59.2852 33.2124 59.6133C33.0991 60.0391 33.0425 60.7559 33.0425 61.7637C33.0425 62.7715 33.0933 63.4648 33.1948 63.8438C33.2964 64.2188 33.4234 64.4688 33.5757 64.5938C33.732 64.7188 33.9097 64.7812 34.1089 64.7812C34.3081 64.7812 34.4859 64.7188 34.6421 64.5938C34.7984 64.4648 34.9195 64.2363 35.0054 63.9082C35.1187 63.4863 35.1753 62.7715 35.1753 61.7637C35.1753 60.7559 35.1245 60.0645 35.023 59.6895C34.9214 59.3105 34.7925 59.0586 34.6362 58.9336C34.4839 58.8047 34.3081 58.7402 34.1089 58.7402ZM43.1684 57.375C44.0005 57.375 44.6509 57.6719 45.1196 58.2656C45.6782 58.9688 45.9575 60.1348 45.9575 61.7637C45.9575 63.3887 45.6763 64.5566 45.1138 65.2676C44.6489 65.8535 44.0005 66.1465 43.1684 66.1465C42.3325 66.1465 41.6587 65.8262 41.147 65.1855C40.6352 64.541 40.3794 63.3945 40.3794 61.7461C40.3794 60.1289 40.6606 58.9648 41.2231 58.2539C41.688 57.668 42.3364 57.375 43.1684 57.375ZM43.1684 58.7402C42.9692 58.7402 42.7915 58.8047 42.6352 58.9336C42.479 59.0586 42.3579 59.2852 42.272 59.6133C42.1587 60.0391 42.102 60.7559 42.102 61.7637C42.102 62.7715 42.1528 63.4648 42.2544 63.8438C42.3559 64.2188 42.4829 64.4688 42.6352 64.5938C42.7915 64.7188 42.9692 64.7812 43.1684 64.7812C43.3677 64.7812 43.5454 64.7188 43.7016 64.5938C43.8579 64.4648 43.979 64.2363 44.0649 63.9082C44.1782 63.4863 44.2348 62.7715 44.2348 61.7637C44.2348 60.7559 44.1841 60.0645 44.0825 59.6895C43.9809 59.3105 43.852 59.0586 43.6958 58.9336C43.5434 58.8047 43.3677 58.7402 43.1684 58.7402ZM49.3681 57.375C50.2002 57.375 50.8505 57.6719 51.3193 58.2656C51.8779 58.9688 52.1572 60.1348 52.1572 61.7637C52.1572 63.3887 51.8759 64.5566 51.3134 65.2676C50.8486 65.8535 50.2002 66.1465 49.3681 66.1465C48.5322 66.1465 47.8584 65.8262 47.3466 65.1855C46.8349 64.541 46.5791 63.3945 46.5791 61.7461C46.5791 60.1289 46.8603 58.9648 47.4228 58.2539C47.8877 57.668 48.5361 57.375 49.3681 57.375ZM49.3681 58.7402C49.1689 58.7402 48.9912 58.8047 48.8349 58.9336C48.6787 59.0586 48.5576 59.2852 48.4716 59.6133C48.3584 60.0391 48.3017 60.7559 48.3017 61.7637C48.3017 62.7715 48.3525 63.4648 48.4541 63.8438C48.5556 64.2188 48.6826 64.4688 48.8349 64.5938C48.9912 64.7188 49.1689 64.7812 49.3681 64.7812C49.5673 64.7812 49.7451 64.7188 49.9013 64.5938C50.0576 64.4648 50.1787 64.2363 50.2646 63.9082C50.3779 63.4863 50.4345 62.7715 50.4345 61.7637C50.4345 60.7559 50.3838 60.0645 50.2822 59.6895C50.1806 59.3105 50.0517 59.0586 49.8955 58.9336C49.7431 58.8047 49.5673 58.7402 49.3681 58.7402ZM55.5678 57.375C56.3998 57.375 57.0502 57.6719 57.519 58.2656C58.0776 58.9688 58.3569 60.1348 58.3569 61.7637C58.3569 63.3887 58.0756 64.5566 57.5131 65.2676C57.0483 65.8535 56.3998 66.1465 55.5678 66.1465C54.7319 66.1465 54.058 65.8262 53.5463 65.1855C53.0346 64.541 52.7787 63.3945 52.7787 61.7461C52.7787 60.1289 53.06 58.9648 53.6225 58.2539C54.0873 57.668 54.7358 57.375 55.5678 57.375ZM55.5678 58.7402C55.3686 58.7402 55.1909 58.8047 55.0346 58.9336C54.8784 59.0586 54.7573 59.2852 54.6713 59.6133C54.558 60.0391 54.5014 60.7559 54.5014 61.7637C54.5014 62.7715 54.5522 63.4648 54.6537 63.8438C54.7553 64.2188 54.8823 64.4688 55.0346 64.5938C55.1909 64.7188 55.3686 64.7812 55.5678 64.7812C55.767 64.7812 55.9448 64.7188 56.101 64.5938C56.2573 64.4648 56.3784 64.2363 56.4643 63.9082C56.5776 63.4863 56.6342 62.7715 56.6342 61.7637C56.6342 60.7559 56.5834 60.0645 56.4819 59.6895C56.3803 59.3105 56.2514 59.0586 56.0952 58.9336C55.9428 58.8047 55.767 58.7402 55.5678 58.7402ZM62.9184 62.676V63.468H61.5984V64.704H62.9184V66H64.6344V64.704H67.6824V63.468H64.6344V62.676H66.5304C67.4304 62.676 68.1384 62.436 68.6664 61.968C69.1944 61.5 69.4584 60.888 69.4584 60.132C69.4584 59.376 69.1944 58.776 68.6664 58.308C68.1384 57.84 67.4304 57.6 66.5304 57.6H62.9184V61.44H61.5984V62.676H62.9184ZM64.6344 59.112H66.3024C67.1784 59.112 67.7184 59.52 67.7184 60.276C67.7184 61.008 67.1784 61.44 66.3024 61.44H64.6344V59.112Z" fill="white"/>
<path d="M1.71426 43.9803L7.76981 43.2456C7.96276 44.7892 8.48223 45.9691 9.32822 46.7854C10.1742 47.6018 11.1983 48.0099 12.4005 48.0099C13.6918 48.0099 14.7753 47.5201 15.6509 46.5405C16.5415 45.561 16.9867 44.24 16.9867 42.5777C16.9867 41.0045 16.5637 39.7577 15.7177 38.8375C14.8717 37.9173 13.8402 37.4572 12.6232 37.4572C11.8217 37.4572 10.8644 37.6131 9.75122 37.9247L10.4414 32.8265C12.1334 32.871 13.4246 32.5074 14.3151 31.7356C15.2057 30.949 15.6509 29.91 15.6509 28.6188C15.6509 27.5205 15.3244 26.6448 14.6714 25.9917C14.0183 25.3387 13.15 25.0122 12.0666 25.0122C10.998 25.0122 10.0852 25.3832 9.32822 26.1253C8.57128 26.8674 8.11118 27.9509 7.94791 29.3757L2.18178 28.3961C2.58252 26.4222 3.18362 24.8489 3.98509 23.6764C4.8014 22.489 5.9294 21.5614 7.36907 20.8935C8.82359 20.2108 10.4488 19.8694 12.2447 19.8694C15.317 19.8694 17.7808 20.849 19.636 22.8081C21.1648 24.4111 21.9291 26.2218 21.9291 28.2403C21.9291 31.1048 20.3633 33.3905 17.2316 35.0973C19.1017 35.4981 20.5933 36.396 21.7065 37.7912C22.8345 39.1863 23.3985 40.8709 23.3985 42.8449C23.3985 45.7094 22.3521 48.1509 20.2594 50.1694C18.1667 52.1879 15.5619 53.1972 12.4451 53.1972C9.49149 53.1972 7.04255 52.3512 5.09824 50.6592C3.15393 48.9524 2.02594 46.7261 1.71426 43.9803Z" fill="#900583"/>
<path d="M38 78L31 71H74L38 78Z" fill="#710167"/>
<defs>
<clipPath id="clip0">
<rect width="50.4087" height="53.6092" fill="white" transform="translate(6.51953)"/>
</clipPath>
</defs>
</svg>
