<svg width="253" height="117" viewBox="0 0 253 117" fill="none" xmlns="http://www.w3.org/2000/svg">
<path d="M251.5 62.3V57.6C251.5 55.6 249.9 53.9 247.8 53.9H242.8C244.8 53.9 246.5 52.3 246.5 50.2V45.7C246.5 43.7 244.9 42 242.8 42H132.2C130.2 42 128.5 43.6 128.5 45.7V50.4C128.5 52.4 130.1 54.1 132.2 54.1H137.2C135.2 54.1 133.5 55.7 133.5 57.8V62.5C133.5 64.5 135.1 66.2 137.2 66.2H132.2C130.2 66.2 128.5 67.8 128.5 69.9V74.6C128.5 76.6 130.1 78.3 132.2 78.3H137.2C135.2 78.3 133.5 79.9 133.5 82V86.7C133.5 88.7 135.1 90.4 137.2 90.4H132.2C130.2 90.4 128.5 92 128.5 94.1V98.8C128.5 100.8 130.1 102.5 132.2 102.5H242.9C244.9 102.5 246.6 100.9 246.6 98.8V94.1C246.6 92.1 245 90.4 242.9 90.4H247.9C249.9 90.4 251.6 88.8 251.6 86.7V82C251.6 80 250 78.3 247.9 78.3H242.9C244.9 78.3 246.6 76.7 246.6 74.6V69.9C246.6 67.9 245 66.2 242.9 66.2H247.9C249.9 66 251.5 64.4 251.5 62.3Z" fill="white"/>
<path d="M247.8 65.9999H137.2C135.2 65.9999 133.5 64.3999 133.5 62.2999V57.5999C133.5 55.5999 135.1 53.8999 137.2 53.8999H247.9C249.9 53.8999 251.6 55.4999 251.6 57.5999V62.2999C251.5 64.3999 249.9 65.9999 247.8 65.9999Z" stroke="#DDDDDD" stroke-miterlimit="10"/>
<path d="M242.8 54H132.2C130.2 54 128.5 52.4 128.5 50.3V45.7C128.5 43.7 130.1 42 132.2 42H242.9C244.9 42 246.6 43.6 246.6 45.7V50.4C246.5 52.4 244.9 54 242.8 54Z" stroke="#DDDDDD" stroke-miterlimit="10"/>
<path d="M242.8 102H132.2C130.2 102 128.5 100.4 128.5 98.2999V93.5999C128.5 91.5999 130.1 89.8999 132.2 89.8999H242.9C244.9 89.8999 246.6 91.4999 246.6 93.5999V98.2999C246.5 100.4 244.9 102 242.8 102Z" stroke="#DDDDDD" stroke-miterlimit="10"/>
<path d="M247.8 89.9999H137.2C135.2 89.9999 133.5 88.3999 133.5 86.2999V81.5999C133.5 79.5999 135.1 77.8999 137.2 77.8999H247.9C249.9 77.8999 251.6 79.4999 251.6 81.5999V86.2999C251.5 88.3999 249.9 89.9999 247.8 89.9999Z" stroke="#DDDDDD" stroke-miterlimit="10"/>
<path d="M242.8 77.9999H132.2C130.2 77.9999 128.5 76.3999 128.5 74.2999V69.5999C128.5 67.5999 130.1 65.8999 132.2 65.8999H242.9C244.9 65.8999 246.6 67.4999 246.6 69.5999V74.2999C246.5 76.3999 244.9 77.9999 242.8 77.9999Z" stroke="#DDDDDD" stroke-miterlimit="10"/>
<path d="M128.8 44H246.2" stroke="#DDDDDD" stroke-width="0.5" stroke-miterlimit="10"/>
<path d="M128.8 52H246.2" stroke="#DDDDDD" stroke-width="0.5" stroke-miterlimit="10"/>
<path d="M131.4 44V52" stroke="#DDDDDD" stroke-width="0.5" stroke-miterlimit="10"/>
<path d="M135.4 44V52" stroke="#DDDDDD" stroke-width="0.5" stroke-miterlimit="10"/>
<path d="M139.4 44V52" stroke="#DDDDDD" stroke-width="0.5" stroke-miterlimit="10"/>
<path d="M143.4 44V52" stroke="#DDDDDD" stroke-width="0.5" stroke-miterlimit="10"/>
<path d="M147.4 44V52" stroke="#DDDDDD" stroke-width="0.5" stroke-miterlimit="10"/>
<path d="M151.4 44V52" stroke="#DDDDDD" stroke-width="0.5" stroke-miterlimit="10"/>
<path d="M155.4 44V52" stroke="#DDDDDD" stroke-width="0.5" stroke-miterlimit="10"/>
<path d="M159.4 44V52" stroke="#DDDDDD" stroke-width="0.5" stroke-miterlimit="10"/>
<path d="M163.4 44V52" stroke="#DDDDDD" stroke-width="0.5" stroke-miterlimit="10"/>
<path d="M167.4 44V52" stroke="#DDDDDD" stroke-width="0.5" stroke-miterlimit="10"/>
<path d="M171.4 44V52" stroke="#DDDDDD" stroke-width="0.5" stroke-miterlimit="10"/>
<path d="M175.4 44V52" stroke="#DDDDDD" stroke-width="0.5" stroke-miterlimit="10"/>
<path d="M179.4 44V52" stroke="#DDDDDD" stroke-width="0.5" stroke-miterlimit="10"/>
<path d="M183.4 44V52" stroke="#DDDDDD" stroke-width="0.5" stroke-miterlimit="10"/>
<path d="M187.4 44V52" stroke="#DDDDDD" stroke-width="0.5" stroke-miterlimit="10"/>
<path d="M191.4 44V52" stroke="#DDDDDD" stroke-width="0.5" stroke-miterlimit="10"/>
<path d="M195.4 44V52" stroke="#DDDDDD" stroke-width="0.5" stroke-miterlimit="10"/>
<path d="M199.4 44V52" stroke="#DDDDDD" stroke-width="0.5" stroke-miterlimit="10"/>
<path d="M203.4 44V52" stroke="#DDDDDD" stroke-width="0.5" stroke-miterlimit="10"/>
<path d="M207.4 44V52" stroke="#DDDDDD" stroke-width="0.5" stroke-miterlimit="10"/>
<path d="M211.4 44V52" stroke="#DDDDDD" stroke-width="0.5" stroke-miterlimit="10"/>
<path d="M215.4 44V52" stroke="#DDDDDD" stroke-width="0.5" stroke-miterlimit="10"/>
<path d="M219.4 44V52" stroke="#DDDDDD" stroke-width="0.5" stroke-miterlimit="10"/>
<path d="M223.4 44V52" stroke="#DDDDDD" stroke-width="0.5" stroke-miterlimit="10"/>
<path d="M227.4 44V52" stroke="#DDDDDD" stroke-width="0.5" stroke-miterlimit="10"/>
<path d="M231.4 44V52" stroke="#DDDDDD" stroke-width="0.5" stroke-miterlimit="10"/>
<path d="M235.4 44V52" stroke="#DDDDDD" stroke-width="0.5" stroke-miterlimit="10"/>
<path d="M239.4 44V52" stroke="#DDDDDD" stroke-width="0.5" stroke-miterlimit="10"/>
<path d="M243.4 44V52" stroke="#DDDDDD" stroke-width="0.5" stroke-miterlimit="10"/>
<path d="M133.8 56H251.2" stroke="#DDDDDD" stroke-width="0.5" stroke-miterlimit="10"/>
<path d="M133.8 64H251.2" stroke="#DDDDDD" stroke-width="0.5" stroke-miterlimit="10"/>
<path d="M136.4 56V64" stroke="#DDDDDD" stroke-width="0.5" stroke-miterlimit="10"/>
<path d="M140.4 56V64" stroke="#DDDDDD" stroke-width="0.5" stroke-miterlimit="10"/>
<path d="M144.4 56V64" stroke="#DDDDDD" stroke-width="0.5" stroke-miterlimit="10"/>
<path d="M148.4 56V64" stroke="#DDDDDD" stroke-width="0.5" stroke-miterlimit="10"/>
<path d="M152.4 56V64" stroke="#DDDDDD" stroke-width="0.5" stroke-miterlimit="10"/>
<path d="M156.4 56V64" stroke="#DDDDDD" stroke-width="0.5" stroke-miterlimit="10"/>
<path d="M160.4 56V64" stroke="#DDDDDD" stroke-width="0.5" stroke-miterlimit="10"/>
<path d="M164.4 56V64" stroke="#DDDDDD" stroke-width="0.5" stroke-miterlimit="10"/>
<path d="M168.4 56V64" stroke="#DDDDDD" stroke-width="0.5" stroke-miterlimit="10"/>
<path d="M172.4 56V64" stroke="#DDDDDD" stroke-width="0.5" stroke-miterlimit="10"/>
<path d="M176.4 56V64" stroke="#DDDDDD" stroke-width="0.5" stroke-miterlimit="10"/>
<path d="M180.4 56V64" stroke="#DDDDDD" stroke-width="0.5" stroke-miterlimit="10"/>
<path d="M184.4 56V64" stroke="#DDDDDD" stroke-width="0.5" stroke-miterlimit="10"/>
<path d="M188.4 56V64" stroke="#DDDDDD" stroke-width="0.5" stroke-miterlimit="10"/>
<path d="M192.4 56V64" stroke="#DDDDDD" stroke-width="0.5" stroke-miterlimit="10"/>
<path d="M196.4 56V64" stroke="#DDDDDD" stroke-width="0.5" stroke-miterlimit="10"/>
<path d="M200.4 56V64" stroke="#DDDDDD" stroke-width="0.5" stroke-miterlimit="10"/>
<path d="M204.4 56V64" stroke="#DDDDDD" stroke-width="0.5" stroke-miterlimit="10"/>
<path d="M208.4 56V64" stroke="#DDDDDD" stroke-width="0.5" stroke-miterlimit="10"/>
<path d="M212.4 56V64" stroke="#DDDDDD" stroke-width="0.5" stroke-miterlimit="10"/>
<path d="M216.4 56V64" stroke="#DDDDDD" stroke-width="0.5" stroke-miterlimit="10"/>
<path d="M220.4 56V64" stroke="#DDDDDD" stroke-width="0.5" stroke-miterlimit="10"/>
<path d="M224.4 56V64" stroke="#DDDDDD" stroke-width="0.5" stroke-miterlimit="10"/>
<path d="M228.4 56V64" stroke="#DDDDDD" stroke-width="0.5" stroke-miterlimit="10"/>
<path d="M232.4 56V64" stroke="#DDDDDD" stroke-width="0.5" stroke-miterlimit="10"/>
<path d="M236.4 56V64" stroke="#DDDDDD" stroke-width="0.5" stroke-miterlimit="10"/>
<path d="M240.4 56V64" stroke="#DDDDDD" stroke-width="0.5" stroke-miterlimit="10"/>
<path d="M244.4 56V64" stroke="#DDDDDD" stroke-width="0.5" stroke-miterlimit="10"/>
<path d="M248.4 56V64" stroke="#DDDDDD" stroke-width="0.5" stroke-miterlimit="10"/>
<path d="M128.8 68H246.2" stroke="#DDDDDD" stroke-width="0.5" stroke-miterlimit="10"/>
<path d="M128.8 76H246.2" stroke="#DDDDDD" stroke-width="0.5" stroke-miterlimit="10"/>
<path d="M128.8 92H246.2" stroke="#DDDDDD" stroke-width="0.5" stroke-miterlimit="10"/>
<path d="M128.8 100H246.2" stroke="#DDDDDD" stroke-width="0.5" stroke-miterlimit="10"/>
<path d="M131.4 92V100" stroke="#DDDDDD" stroke-width="0.5" stroke-miterlimit="10"/>
<path d="M135.4 92V100" stroke="#DDDDDD" stroke-width="0.5" stroke-miterlimit="10"/>
<path d="M139.4 92V100" stroke="#DDDDDD" stroke-width="0.5" stroke-miterlimit="10"/>
<path d="M143.4 92V100" stroke="#DDDDDD" stroke-width="0.5" stroke-miterlimit="10"/>
<path d="M147.4 92V100" stroke="#DDDDDD" stroke-width="0.5" stroke-miterlimit="10"/>
<path d="M151.4 92V100" stroke="#DDDDDD" stroke-width="0.5" stroke-miterlimit="10"/>
<path d="M155.4 92V100" stroke="#DDDDDD" stroke-width="0.5" stroke-miterlimit="10"/>
<path d="M159.4 92V100" stroke="#DDDDDD" stroke-width="0.5" stroke-miterlimit="10"/>
<path d="M163.4 92V100" stroke="#DDDDDD" stroke-width="0.5" stroke-miterlimit="10"/>
<path d="M167.4 92V100" stroke="#DDDDDD" stroke-width="0.5" stroke-miterlimit="10"/>
<path d="M171.4 92V100" stroke="#DDDDDD" stroke-width="0.5" stroke-miterlimit="10"/>
<path d="M175.4 92V100" stroke="#DDDDDD" stroke-width="0.5" stroke-miterlimit="10"/>
<path d="M179.4 92V100" stroke="#DDDDDD" stroke-width="0.5" stroke-miterlimit="10"/>
<path d="M183.4 92V100" stroke="#DDDDDD" stroke-width="0.5" stroke-miterlimit="10"/>
<path d="M187.4 92V100" stroke="#DDDDDD" stroke-width="0.5" stroke-miterlimit="10"/>
<path d="M191.4 92V100" stroke="#DDDDDD" stroke-width="0.5" stroke-miterlimit="10"/>
<path d="M195.4 92V100" stroke="#DDDDDD" stroke-width="0.5" stroke-miterlimit="10"/>
<path d="M199.4 92V100" stroke="#DDDDDD" stroke-width="0.5" stroke-miterlimit="10"/>
<path d="M203.4 92V100" stroke="#DDDDDD" stroke-width="0.5" stroke-miterlimit="10"/>
<path d="M207.4 92V100" stroke="#DDDDDD" stroke-width="0.5" stroke-miterlimit="10"/>
<path d="M211.4 92V100" stroke="#DDDDDD" stroke-width="0.5" stroke-miterlimit="10"/>
<path d="M215.4 92V100" stroke="#DDDDDD" stroke-width="0.5" stroke-miterlimit="10"/>
<path d="M219.4 92V100" stroke="#DDDDDD" stroke-width="0.5" stroke-miterlimit="10"/>
<path d="M223.4 92V100" stroke="#DDDDDD" stroke-width="0.5" stroke-miterlimit="10"/>
<path d="M227.4 92V100" stroke="#DDDDDD" stroke-width="0.5" stroke-miterlimit="10"/>
<path d="M231.4 92V100" stroke="#DDDDDD" stroke-width="0.5" stroke-miterlimit="10"/>
<path d="M235.4 92V100" stroke="#DDDDDD" stroke-width="0.5" stroke-miterlimit="10"/>
<path d="M239.4 92V100" stroke="#DDDDDD" stroke-width="0.5" stroke-miterlimit="10"/>
<path d="M243.4 92V100" stroke="#DDDDDD" stroke-width="0.5" stroke-miterlimit="10"/>
<path d="M133.8 80H251.2" stroke="#DDDDDD" stroke-width="0.5" stroke-miterlimit="10"/>
<path d="M133.8 88H251.2" stroke="#DDDDDD" stroke-width="0.5" stroke-miterlimit="10"/>
<path d="M136.4 80V88" stroke="#DDDDDD" stroke-width="0.5" stroke-miterlimit="10"/>
<path d="M140.4 80V88" stroke="#DDDDDD" stroke-width="0.5" stroke-miterlimit="10"/>
<path d="M144.4 80V88" stroke="#DDDDDD" stroke-width="0.5" stroke-miterlimit="10"/>
<path d="M148.4 80V88" stroke="#DDDDDD" stroke-width="0.5" stroke-miterlimit="10"/>
<path d="M152.4 80V88" stroke="#DDDDDD" stroke-width="0.5" stroke-miterlimit="10"/>
<path d="M156.4 80V88" stroke="#DDDDDD" stroke-width="0.5" stroke-miterlimit="10"/>
<path d="M160.4 80V88" stroke="#DDDDDD" stroke-width="0.5" stroke-miterlimit="10"/>
<path d="M164.4 80V88" stroke="#DDDDDD" stroke-width="0.5" stroke-miterlimit="10"/>
<path d="M168.4 80V88" stroke="#DDDDDD" stroke-width="0.5" stroke-miterlimit="10"/>
<path d="M172.4 80V88" stroke="#DDDDDD" stroke-width="0.5" stroke-miterlimit="10"/>
<path d="M176.4 80V88" stroke="#DDDDDD" stroke-width="0.5" stroke-miterlimit="10"/>
<path d="M180.4 80V88" stroke="#DDDDDD" stroke-width="0.5" stroke-miterlimit="10"/>
<path d="M184.4 80V88" stroke="#DDDDDD" stroke-width="0.5" stroke-miterlimit="10"/>
<path d="M188.4 80V88" stroke="#DDDDDD" stroke-width="0.5" stroke-miterlimit="10"/>
<path d="M192.4 80V88" stroke="#DDDDDD" stroke-width="0.5" stroke-miterlimit="10"/>
<path d="M196.4 80V88" stroke="#DDDDDD" stroke-width="0.5" stroke-miterlimit="10"/>
<path d="M200.4 80V88" stroke="#DDDDDD" stroke-width="0.5" stroke-miterlimit="10"/>
<path d="M204.4 80V88" stroke="#DDDDDD" stroke-width="0.5" stroke-miterlimit="10"/>
<path d="M208.4 80V88" stroke="#DDDDDD" stroke-width="0.5" stroke-miterlimit="10"/>
<path d="M212.4 80V88" stroke="#DDDDDD" stroke-width="0.5" stroke-miterlimit="10"/>
<path d="M216.4 80V88" stroke="#DDDDDD" stroke-width="0.5" stroke-miterlimit="10"/>
<path d="M220.4 80V88" stroke="#DDDDDD" stroke-width="0.5" stroke-miterlimit="10"/>
<path d="M224.4 80V88" stroke="#DDDDDD" stroke-width="0.5" stroke-miterlimit="10"/>
<path d="M228.4 80V88" stroke="#DDDDDD" stroke-width="0.5" stroke-miterlimit="10"/>
<path d="M232.4 80V88" stroke="#DDDDDD" stroke-width="0.5" stroke-miterlimit="10"/>
<path d="M236.4 80V88" stroke="#DDDDDD" stroke-width="0.5" stroke-miterlimit="10"/>
<path d="M240.4 80V88" stroke="#DDDDDD" stroke-width="0.5" stroke-miterlimit="10"/>
<path d="M244.4 80V88" stroke="#DDDDDD" stroke-width="0.5" stroke-miterlimit="10"/>
<path d="M248.4 80V88" stroke="#DDDDDD" stroke-width="0.5" stroke-miterlimit="10"/>
<path d="M251.5 62.3V57.6C251.5 55.6 249.9 53.9 247.8 53.9H242.8C244.8 53.9 246.5 52.3 246.5 50.2V45.7C246.5 43.7 244.9 42 242.8 42H132.2C130.2 42 128.5 43.6 128.5 45.7V50.4C128.5 52.4 130.1 54.1 132.2 54.1H137.2C135.2 54.1 133.5 55.7 133.5 57.8V62.5C133.5 64.5 135.1 66.2 137.2 66.2H132.2C130.2 66.2 128.5 67.8 128.5 69.9V74.6C128.5 76.6 130.1 78.3 132.2 78.3H137.2C135.2 78.3 133.5 79.9 133.5 82V86.7C133.5 88.7 135.1 90.4 137.2 90.4H132.2C130.2 90.4 128.5 92 128.5 94.1V98.8C128.5 100.8 130.1 102.5 132.2 102.5H242.9C244.9 102.5 246.6 100.9 246.6 98.8V94.1C246.6 92.1 245 90.4 242.9 90.4H247.9C249.9 90.4 251.6 88.8 251.6 86.7V82C251.6 80 250 78.3 247.9 78.3H242.9C244.9 78.3 246.6 76.7 246.6 74.6V69.9C246.6 67.9 245 66.2 242.9 66.2H247.9C249.9 66 251.5 64.4 251.5 62.3Z" stroke="#808080" stroke-miterlimit="10"/>
<path d="M131.4 68V76" stroke="#DDDDDD" stroke-width="0.5" stroke-miterlimit="10"/>
<path d="M135.4 68V76" stroke="#DDDDDD" stroke-width="0.5" stroke-miterlimit="10"/>
<path d="M139.4 68V76" stroke="#DDDDDD" stroke-width="0.5" stroke-miterlimit="10"/>
<path d="M143.4 68V76" stroke="#DDDDDD" stroke-width="0.5" stroke-miterlimit="10"/>
<path d="M147.4 68V76" stroke="#DDDDDD" stroke-width="0.5" stroke-miterlimit="10"/>
<path d="M151.4 68V76" stroke="#DDDDDD" stroke-width="0.5" stroke-miterlimit="10"/>
<path d="M155.4 68V76" stroke="#DDDDDD" stroke-width="0.5" stroke-miterlimit="10"/>
<path d="M159.4 68V76" stroke="#DDDDDD" stroke-width="0.5" stroke-miterlimit="10"/>
<path d="M163.4 68V76" stroke="#DDDDDD" stroke-width="0.5" stroke-miterlimit="10"/>
<path d="M167.4 68V76" stroke="#DDDDDD" stroke-width="0.5" stroke-miterlimit="10"/>
<path d="M171.4 68V76" stroke="#DDDDDD" stroke-width="0.5" stroke-miterlimit="10"/>
<path d="M175.4 68V76" stroke="#DDDDDD" stroke-width="0.5" stroke-miterlimit="10"/>
<path d="M179.4 68V76" stroke="#DDDDDD" stroke-width="0.5" stroke-miterlimit="10"/>
<path d="M183.4 68V76" stroke="#DDDDDD" stroke-width="0.5" stroke-miterlimit="10"/>
<path d="M187.4 68V76" stroke="#DDDDDD" stroke-width="0.5" stroke-miterlimit="10"/>
<path d="M191.4 68V76" stroke="#DDDDDD" stroke-width="0.5" stroke-miterlimit="10"/>
<path d="M195.4 68V76" stroke="#DDDDDD" stroke-width="0.5" stroke-miterlimit="10"/>
<path d="M199.4 68V76" stroke="#DDDDDD" stroke-width="0.5" stroke-miterlimit="10"/>
<path d="M203.4 68V76" stroke="#DDDDDD" stroke-width="0.5" stroke-miterlimit="10"/>
<path d="M207.4 68V76" stroke="#DDDDDD" stroke-width="0.5" stroke-miterlimit="10"/>
<path d="M211.4 68V76" stroke="#DDDDDD" stroke-width="0.5" stroke-miterlimit="10"/>
<path d="M215.4 68V76" stroke="#DDDDDD" stroke-width="0.5" stroke-miterlimit="10"/>
<path d="M219.4 68V76" stroke="#DDDDDD" stroke-width="0.5" stroke-miterlimit="10"/>
<path d="M223.4 68V76" stroke="#DDDDDD" stroke-width="0.5" stroke-miterlimit="10"/>
<path d="M227.4 68V76" stroke="#DDDDDD" stroke-width="0.5" stroke-miterlimit="10"/>
<path d="M231.4 68V76" stroke="#DDDDDD" stroke-width="0.5" stroke-miterlimit="10"/>
<path d="M235.4 68V76" stroke="#DDDDDD" stroke-width="0.5" stroke-miterlimit="10"/>
<path d="M239.4 68V76" stroke="#DDDDDD" stroke-width="0.5" stroke-miterlimit="10"/>
<path d="M243.4 68V76" stroke="#DDDDDD" stroke-width="0.5" stroke-miterlimit="10"/>
<path d="M0 68.999H237V102.999H10L0 68.999Z" fill="#900583"/>
<path d="M119 117L105 103H237L119 117Z" fill="#620258"/>
<path d="M33.2786 79.5459H37.8567C38.7629 79.5459 39.4374 79.585 39.8801 79.6631C40.3281 79.736 40.7265 79.8923 41.0754 80.1318C41.4296 80.3714 41.7239 80.6917 41.9583 81.0928C42.1926 81.4886 42.3098 81.9339 42.3098 82.4287C42.3098 82.9652 42.164 83.4574 41.8723 83.9053C41.5859 84.3532 41.1952 84.6891 40.7004 84.9131C41.3984 85.1162 41.9348 85.4626 42.3098 85.9521C42.6848 86.4417 42.8723 87.0173 42.8723 87.6787C42.8723 88.1995 42.7499 88.7074 42.5051 89.2021C42.2656 89.6917 41.9348 90.085 41.5129 90.3818C41.0963 90.6735 40.5807 90.8532 39.9661 90.9209C39.5807 90.9626 38.651 90.9886 37.177 90.999H33.2786V79.5459ZM35.5911 81.4521V84.1006H37.1067C38.0077 84.1006 38.5676 84.0876 38.7864 84.0615C39.1822 84.0146 39.4921 83.8792 39.7161 83.6553C39.9452 83.4261 40.0598 83.1266 40.0598 82.7568C40.0598 82.4027 39.9609 82.1162 39.7629 81.8975C39.5702 81.6735 39.2812 81.5381 38.8958 81.4912C38.6666 81.4652 38.0077 81.4521 36.9192 81.4521H35.5911ZM35.5911 86.0068V89.0693H37.7317C38.565 89.0693 39.0937 89.0459 39.3176 88.999C39.6614 88.9365 39.94 88.7855 40.1536 88.5459C40.3723 88.3011 40.4817 87.9756 40.4817 87.5693C40.4817 87.2256 40.3984 86.9339 40.2317 86.6943C40.065 86.4548 39.8228 86.2803 39.5051 86.1709C39.1926 86.0615 38.5103 86.0068 37.4583 86.0068H35.5911ZM46.4583 85.2334L44.4661 84.874C44.69 84.0719 45.0754 83.4782 45.6223 83.0928C46.1692 82.7074 46.9817 82.5146 48.0598 82.5146C49.039 82.5146 49.7682 82.6318 50.2473 82.8662C50.7265 83.0954 51.0624 83.3896 51.2551 83.749C51.4531 84.1032 51.552 84.7568 51.552 85.71L51.5286 88.2725C51.5286 89.0016 51.5624 89.5407 51.6301 89.8896C51.7031 90.2334 51.8359 90.6032 52.0286 90.999H49.8567C49.7994 90.8532 49.7291 90.637 49.6458 90.3506C49.6093 90.2204 49.5833 90.1344 49.5676 90.0928C49.1926 90.4574 48.7916 90.7308 48.3645 90.9131C47.9374 91.0954 47.4817 91.1865 46.9973 91.1865C46.1432 91.1865 45.4687 90.9548 44.9739 90.4912C44.4843 90.0277 44.2395 89.4417 44.2395 88.7334C44.2395 88.2646 44.3515 87.848 44.5754 87.4834C44.7994 87.1136 45.1119 86.8324 45.5129 86.6396C45.9192 86.4417 46.5025 86.2699 47.2629 86.124C48.289 85.9313 48.9999 85.7516 49.3958 85.585V85.3662C49.3958 84.9443 49.2916 84.6449 49.0833 84.4678C48.8749 84.2855 48.4817 84.1943 47.9036 84.1943C47.5129 84.1943 47.2083 84.2725 46.9895 84.4287C46.7708 84.5798 46.5937 84.848 46.4583 85.2334ZM49.3958 87.0146C49.1145 87.1084 48.6692 87.2204 48.0598 87.3506C47.4504 87.4808 47.052 87.6084 46.8645 87.7334C46.5781 87.9365 46.4348 88.1943 46.4348 88.5068C46.4348 88.8141 46.5494 89.0798 46.7786 89.3037C47.0077 89.5277 47.2994 89.6396 47.6536 89.6396C48.0494 89.6396 48.427 89.5094 48.7864 89.249C49.052 89.0511 49.2265 88.8089 49.3098 88.5225C49.3671 88.335 49.3958 87.9782 49.3958 87.4521V87.0146ZM53.6692 82.7021H55.6848V89.2256H58.2317V82.7021H60.2551V89.2256H62.7942V82.7021H64.8176V90.999H53.6692V82.7021ZM68.7083 85.2334L66.7161 84.874C66.94 84.0719 67.3254 83.4782 67.8723 83.0928C68.4192 82.7074 69.2317 82.5146 70.3098 82.5146C71.289 82.5146 72.0182 82.6318 72.4973 82.8662C72.9765 83.0954 73.3124 83.3896 73.5051 83.749C73.7031 84.1032 73.802 84.7568 73.802 85.71L73.7786 88.2725C73.7786 89.0016 73.8124 89.5407 73.8801 89.8896C73.9531 90.2334 74.0859 90.6032 74.2786 90.999H72.1067C72.0494 90.8532 71.9791 90.637 71.8958 90.3506C71.8593 90.2204 71.8333 90.1344 71.8176 90.0928C71.4426 90.4574 71.0416 90.7308 70.6145 90.9131C70.1874 91.0954 69.7317 91.1865 69.2473 91.1865C68.3932 91.1865 67.7187 90.9548 67.2239 90.4912C66.7343 90.0277 66.4895 89.4417 66.4895 88.7334C66.4895 88.2646 66.6015 87.848 66.8254 87.4834C67.0494 87.1136 67.3619 86.8324 67.7629 86.6396C68.1692 86.4417 68.7525 86.2699 69.5129 86.124C70.539 85.9313 71.2499 85.7516 71.6458 85.585V85.3662C71.6458 84.9443 71.5416 84.6449 71.3333 84.4678C71.1249 84.2855 70.7317 84.1943 70.1536 84.1943C69.7629 84.1943 69.4583 84.2725 69.2395 84.4287C69.0208 84.5798 68.8437 84.848 68.7083 85.2334ZM71.6458 87.0146C71.3645 87.1084 70.9192 87.2204 70.3098 87.3506C69.7004 87.4808 69.302 87.6084 69.1145 87.7334C68.8281 87.9365 68.6848 88.1943 68.6848 88.5068C68.6848 88.8141 68.7994 89.0798 69.0286 89.3037C69.2577 89.5277 69.5494 89.6396 69.9036 89.6396C70.2994 89.6396 70.677 89.5094 71.0364 89.249C71.302 89.0511 71.4765 88.8089 71.5598 88.5225C71.6171 88.335 71.6458 87.9782 71.6458 87.4521V87.0146ZM79.4426 82.7021H86.9504V84.4756H84.2942V90.999H82.0989V84.4756H79.4426V82.7021ZM93.0754 88.3584L95.2629 88.7256C94.9817 89.5277 94.5364 90.1396 93.927 90.5615C93.3228 90.9782 92.565 91.1865 91.6536 91.1865C90.2109 91.1865 89.1432 90.7152 88.4504 89.7725C87.9036 89.0173 87.6301 88.0641 87.6301 86.9131C87.6301 85.5381 87.9895 84.4626 88.7083 83.6865C89.427 82.9053 90.3359 82.5146 91.4348 82.5146C92.6692 82.5146 93.6432 82.9235 94.3567 83.7412C95.0702 84.5537 95.4114 85.8011 95.3801 87.4834H89.8801C89.8958 88.1344 90.0728 88.6423 90.4114 89.0068C90.7499 89.3662 91.1718 89.5459 91.677 89.5459C92.0208 89.5459 92.3098 89.4521 92.5442 89.2646C92.7786 89.0771 92.9557 88.7751 93.0754 88.3584ZM93.2004 86.1396C93.1848 85.5042 93.0208 85.0225 92.7083 84.6943C92.3958 84.361 92.0156 84.1943 91.5676 84.1943C91.0885 84.1943 90.6926 84.3688 90.3801 84.7178C90.0676 85.0667 89.914 85.5407 89.9192 86.1396H93.2004ZM97.0911 82.7021H99.2786V86.0928C99.6432 86.0511 99.901 85.9391 100.052 85.7568C100.203 85.5745 100.385 85.1761 100.599 84.5615C100.88 83.7438 101.187 83.2204 101.521 82.9912C101.854 82.762 102.292 82.6475 102.833 82.6475C103 82.6475 103.289 82.6605 103.7 82.6865L103.708 84.1396C103.13 84.1396 102.76 84.1943 102.599 84.3037C102.437 84.4183 102.263 84.7594 102.075 85.3271C101.82 86.0928 101.453 86.5641 100.974 86.7412C101.667 86.9339 102.253 87.5355 102.732 88.5459C102.758 88.598 102.786 88.6527 102.818 88.71L104.044 90.999H101.685L100.591 88.6006C100.367 88.1162 100.172 87.8063 100.005 87.6709C99.8437 87.5303 99.6015 87.46 99.2786 87.46V90.999H97.0911V82.7021ZM104.154 82.7021H106.49L108.474 88.5928L110.411 82.7021H112.685L109.755 90.6865L109.232 92.1318C109.039 92.6162 108.854 92.986 108.677 93.2412C108.505 93.4964 108.305 93.7021 108.075 93.8584C107.851 94.0199 107.573 94.1449 107.24 94.2334C106.911 94.3219 106.539 94.3662 106.122 94.3662C105.7 94.3662 105.286 94.3219 104.88 94.2334L104.685 92.5146C105.029 92.5824 105.338 92.6162 105.615 92.6162C106.125 92.6162 106.503 92.4652 106.747 92.1631C106.992 91.8662 107.18 91.486 107.31 91.0225L104.154 82.7021ZM114.052 82.7021H116.075V89.2256H118.599V82.7021H120.622V89.2256H123.177V82.7021H125.2V89.2256H126.099V93.1865H124.325V90.999H114.052V82.7021ZM129.443 85.2334L127.45 84.874C127.674 84.0719 128.06 83.4782 128.607 83.0928C129.154 82.7074 129.966 82.5146 131.044 82.5146C132.023 82.5146 132.753 82.6318 133.232 82.8662C133.711 83.0954 134.047 83.3896 134.24 83.749C134.437 84.1032 134.536 84.7568 134.536 85.71L134.513 88.2725C134.513 89.0016 134.547 89.5407 134.615 89.8896C134.687 90.2334 134.82 90.6032 135.013 90.999H132.841C132.784 90.8532 132.713 90.637 132.63 90.3506C132.594 90.2204 132.568 90.1344 132.552 90.0928C132.177 90.4574 131.776 90.7308 131.349 90.9131C130.922 91.0954 130.466 91.1865 129.982 91.1865C129.128 91.1865 128.453 90.9548 127.958 90.4912C127.469 90.0277 127.224 89.4417 127.224 88.7334C127.224 88.2646 127.336 87.848 127.56 87.4834C127.784 87.1136 128.096 86.8324 128.497 86.6396C128.904 86.4417 129.487 86.2699 130.247 86.124C131.273 85.9313 131.984 85.7516 132.38 85.585V85.3662C132.38 84.9443 132.276 84.6449 132.068 84.4678C131.859 84.2855 131.466 84.1943 130.888 84.1943C130.497 84.1943 130.193 84.2725 129.974 84.4287C129.755 84.5798 129.578 84.848 129.443 85.2334ZM132.38 87.0146C132.099 87.1084 131.654 87.2204 131.044 87.3506C130.435 87.4808 130.036 87.6084 129.849 87.7334C129.562 87.9365 129.419 88.1943 129.419 88.5068C129.419 88.8141 129.534 89.0798 129.763 89.3037C129.992 89.5277 130.284 89.6396 130.638 89.6396C131.034 89.6396 131.411 89.5094 131.771 89.249C132.036 89.0511 132.211 88.8089 132.294 88.5225C132.351 88.335 132.38 87.9782 132.38 87.4521V87.0146ZM143.818 82.7021V90.999H141.638V87.5537H141.435C140.961 87.5537 140.612 87.6162 140.388 87.7412C140.169 87.861 139.924 88.1188 139.654 88.5146L139.521 88.6787L138.075 90.999H135.521L137.091 88.5928C137.539 87.9053 137.945 87.5094 138.31 87.4053C137.695 87.3688 137.195 87.137 136.81 86.71C136.43 86.2777 136.24 85.7282 136.24 85.0615C136.24 84.5251 136.365 84.0667 136.615 83.6865C136.87 83.3063 137.206 83.0485 137.622 82.9131C138.044 82.7725 138.669 82.7021 139.497 82.7021H143.818ZM141.638 84.1162H140.068C139.49 84.1162 139.083 84.1995 138.849 84.3662C138.615 84.5277 138.497 84.7985 138.497 85.1787C138.497 85.5589 138.63 85.8324 138.896 85.999C139.161 86.1657 139.596 86.249 140.2 86.249H141.638V84.1162ZM157.74 85.1553L155.575 85.5459C155.503 85.1136 155.336 84.7881 155.075 84.5693C154.82 84.3506 154.487 84.2412 154.075 84.2412C153.529 84.2412 153.091 84.4313 152.763 84.8115C152.44 85.1865 152.279 85.8167 152.279 86.7021C152.279 87.6865 152.443 88.3818 152.771 88.7881C153.104 89.1943 153.549 89.3975 154.107 89.3975C154.523 89.3975 154.865 89.2803 155.13 89.0459C155.396 88.8063 155.583 88.3975 155.693 87.8193L157.849 88.1865C157.625 89.1761 157.195 89.9235 156.56 90.4287C155.924 90.9339 155.073 91.1865 154.005 91.1865C152.792 91.1865 151.823 90.8037 151.099 90.0381C150.38 89.2725 150.021 88.2126 150.021 86.8584C150.021 85.4886 150.383 84.4235 151.107 83.6631C151.831 82.8975 152.81 82.5146 154.044 82.5146C155.055 82.5146 155.857 82.7334 156.45 83.1709C157.049 83.6032 157.479 84.2646 157.74 85.1553ZM159.325 82.7021H161.513V86.0928C161.878 86.0511 162.135 85.9391 162.286 85.7568C162.437 85.5745 162.62 85.1761 162.833 84.5615C163.115 83.7438 163.422 83.2204 163.755 82.9912C164.088 82.762 164.526 82.6475 165.068 82.6475C165.234 82.6475 165.523 82.6605 165.935 82.6865L165.943 84.1396C165.365 84.1396 164.995 84.1943 164.833 84.3037C164.672 84.4183 164.497 84.7594 164.31 85.3271C164.055 86.0928 163.687 86.5641 163.208 86.7412C163.901 86.9339 164.487 87.5355 164.966 88.5459C164.992 88.598 165.021 88.6527 165.052 88.71L166.279 90.999H163.919L162.825 88.6006C162.601 88.1162 162.406 87.8063 162.24 87.6709C162.078 87.5303 161.836 87.46 161.513 87.46V90.999H159.325V82.7021ZM167.372 82.7021H169.482V87.9131L172.857 82.7021H175.013V90.999H172.904V85.6943L169.482 90.999H167.372V82.7021ZM184.13 90.999H177.849V93.1865H176.068V89.2021H176.966C177.341 88.7855 177.651 88.1344 177.896 87.249C178.141 86.3636 178.286 84.848 178.333 82.7021H185.029V89.2021H185.919V93.1865H184.13V90.999ZM182.857 89.2021L182.865 84.5068H180.208C180.12 86.7985 179.755 88.3636 179.115 89.2021H182.857ZM187.341 82.7021H189.529V86.0928C189.893 86.0511 190.151 85.9391 190.302 85.7568C190.453 85.5745 190.635 85.1761 190.849 84.5615C191.13 83.7438 191.437 83.2204 191.771 82.9912C192.104 82.762 192.542 82.6475 193.083 82.6475C193.25 82.6475 193.539 82.6605 193.95 82.6865L193.958 84.1396C193.38 84.1396 193.01 84.1943 192.849 84.3037C192.687 84.4183 192.513 84.7594 192.325 85.3271C192.07 86.0928 191.703 86.5641 191.224 86.7412C191.917 86.9339 192.503 87.5355 192.982 88.5459C193.008 88.598 193.036 88.6527 193.068 88.71L194.294 90.999H191.935L190.841 88.6006C190.617 88.1162 190.422 87.8063 190.255 87.6709C190.094 87.5303 189.851 87.46 189.529 87.46V90.999H187.341V82.7021ZM197.083 85.2334L195.091 84.874C195.315 84.0719 195.7 83.4782 196.247 83.0928C196.794 82.7074 197.607 82.5146 198.685 82.5146C199.664 82.5146 200.393 82.6318 200.872 82.8662C201.351 83.0954 201.687 83.3896 201.88 83.749C202.078 84.1032 202.177 84.7568 202.177 85.71L202.154 88.2725C202.154 89.0016 202.187 89.5407 202.255 89.8896C202.328 90.2334 202.461 90.6032 202.654 90.999H200.482C200.424 90.8532 200.354 90.637 200.271 90.3506C200.234 90.2204 200.208 90.1344 200.193 90.0928C199.818 90.4574 199.417 90.7308 198.99 90.9131C198.562 91.0954 198.107 91.1865 197.622 91.1865C196.768 91.1865 196.094 90.9548 195.599 90.4912C195.109 90.0277 194.865 89.4417 194.865 88.7334C194.865 88.2646 194.976 87.848 195.2 87.4834C195.424 87.1136 195.737 86.8324 196.138 86.6396C196.544 86.4417 197.128 86.2699 197.888 86.124C198.914 85.9313 199.625 85.7516 200.021 85.585V85.3662C200.021 84.9443 199.917 84.6449 199.708 84.4678C199.5 84.2855 199.107 84.1943 198.529 84.1943C198.138 84.1943 197.833 84.2725 197.615 84.4287C197.396 84.5798 197.219 84.848 197.083 85.2334ZM200.021 87.0146C199.74 87.1084 199.294 87.2204 198.685 87.3506C198.075 87.4808 197.677 87.6084 197.49 87.7334C197.203 87.9365 197.06 88.1943 197.06 88.5068C197.06 88.8141 197.174 89.0798 197.404 89.3037C197.633 89.5277 197.924 89.6396 198.279 89.6396C198.674 89.6396 199.052 89.5094 199.411 89.249C199.677 89.0511 199.851 88.8089 199.935 88.5225C199.992 88.335 200.021 87.9782 200.021 87.4521V87.0146Z" fill="white"/>
<path d="M139.678 32.7473H144.808L124.214 70.8225H119.133L139.678 32.7473ZM109.407 42.1081C109.407 40.4548 109.764 38.8825 110.477 37.3913C111.206 35.9 112.308 34.7573 113.784 33.963C115.275 33.1526 117.033 32.7473 119.06 32.7473C122.042 32.7473 124.392 33.5983 126.111 35.3003C127.829 37.0022 128.688 39.2715 128.688 42.1081C128.688 44.9609 127.829 47.2383 126.111 48.9402C124.392 50.6422 122.042 51.4932 119.06 51.4932C117.033 51.4932 115.275 51.0961 113.784 50.3018C112.308 49.4914 111.206 48.3405 110.477 46.8493C109.764 45.358 109.407 43.7776 109.407 42.1081ZM116.239 42.1567C116.239 44.1667 116.563 45.6255 117.212 46.5332C117.633 47.1329 118.249 47.4328 119.06 47.4328C119.87 47.4328 120.478 47.1329 120.883 46.5332C121.531 45.6255 121.856 44.1667 121.856 42.1567C121.856 40.163 121.531 38.7042 120.883 37.7803C120.478 37.1967 119.87 36.905 119.06 36.905C118.249 36.905 117.633 37.1967 117.212 37.7803C116.563 38.688 116.239 40.1468 116.239 42.1567ZM135.107 61.3888C135.107 59.7193 135.463 58.147 136.176 56.672C136.89 55.1808 137.992 54.0299 139.483 53.2195C140.974 52.409 142.725 52.0038 144.735 52.0038C147.734 52.0038 150.092 52.8629 151.81 54.581C153.528 56.283 154.387 58.5523 154.387 61.3888C154.387 64.2254 153.528 66.5028 151.81 68.221C150.092 69.9229 147.734 70.7739 144.735 70.7739C142.725 70.7739 140.974 70.3687 139.483 69.5582C137.992 68.7478 136.89 67.605 136.176 66.13C135.463 64.6388 135.107 63.0584 135.107 61.3888ZM141.939 61.4375C141.939 63.4474 142.263 64.9062 142.911 65.8139C143.317 66.3975 143.924 66.6892 144.735 66.6892C145.545 66.6892 146.161 66.3975 146.583 65.8139C147.231 64.9062 147.555 63.4474 147.555 61.4375C147.555 59.4275 147.231 57.9606 146.583 57.0367C146.161 56.4532 145.545 56.1614 144.735 56.1614C143.924 56.1614 143.317 56.4613 142.911 57.061C142.263 57.9687 141.939 59.4275 141.939 61.4375Z" fill="#900583"/>
<path d="M95.8623 70.0938V58.1355H71.5404V48.1635L97.3216 10.4239H106.888V48.1229H114.266V58.1355H106.888V70.0938H95.8623ZM95.8623 48.1229V27.8141L82.2015 48.1229H95.8623Z" fill="#900583"/>
</svg>
