<svg width="73" height="97" viewBox="0 0 73 97" fill="none" xmlns="http://www.w3.org/2000/svg">
<g clip-path="url(#clip0)">
<path d="M55.6386 8.44275V6.56243C55.6386 5.76229 54.9985 5.08217 54.1584 5.08217H52.158C52.9582 5.08217 53.6383 4.44206 53.6383 3.60192V1.88162C53.6383 1.08148 52.9982 0.401367 52.158 0.401367H7.91043C7.11029 0.401367 6.43018 1.04148 6.43018 1.88162V3.76194C6.43018 4.56208 7.07029 5.2422 7.91043 5.2422H9.91077C9.11064 5.2422 8.43052 5.88231 8.43052 6.72245V8.60278C8.43052 9.40292 9.07063 10.083 9.91077 10.083H7.91043C7.11029 10.083 6.43018 10.7231 6.43018 11.5633V13.4436C6.43018 14.2437 7.07029 14.9239 7.91043 14.9239H9.91077C9.11064 14.9239 8.43052 15.564 8.43052 16.4041V18.2844C8.43052 19.0846 9.07063 19.7647 9.91077 19.7647H7.91043C7.11029 19.7647 6.43018 20.4048 6.43018 21.245V23.1253C6.43018 23.9254 7.07029 24.6055 7.91043 24.6055H9.91077C9.11064 24.6055 8.43052 25.2456 8.43052 26.0858V27.9661C8.43052 28.7662 9.07063 29.4464 9.91077 29.4464H7.91043C7.11029 29.4464 6.43018 30.0865 6.43018 30.9266V32.8069C6.43018 33.6071 7.07029 34.2872 7.91043 34.2872H9.91077C9.11064 34.2872 8.43052 34.9273 8.43052 35.7674V37.6478C8.43052 38.4479 9.07063 39.128 9.91077 39.128H7.91043C7.11029 39.128 6.43018 39.7681 6.43018 40.6083V42.4886C6.43018 43.2887 7.07029 43.9689 7.91043 43.9689H9.91077C9.11064 43.9689 8.43052 44.609 8.43052 45.4491V47.3294C8.43052 48.1296 9.07063 48.8097 9.91077 48.8097H7.91043C7.11029 48.8097 6.43018 49.4498 6.43018 50.2899V52.1703C6.43018 52.9704 7.07029 53.6505 7.91043 53.6505H9.91077C9.11064 53.6505 8.43052 54.2906 8.43052 55.1308V57.0111C8.43052 57.8112 9.07063 58.4914 9.91077 58.4914H7.91043C7.11029 58.4914 6.43018 59.1315 6.43018 59.9716V61.8519C6.43018 62.6521 7.07029 63.3322 7.91043 63.3322H9.91077C9.11064 63.3322 8.43052 63.9723 8.43052 64.8124V66.6928C8.43052 67.4929 9.07063 68.173 9.91077 68.173H7.91043C7.11029 68.173 6.43018 68.8131 6.43018 69.6533V71.5336C6.43018 72.3337 7.07029 73.0139 7.91043 73.0139H52.198C52.9982 73.0139 53.6783 72.3737 53.6783 71.5336V69.6533C53.6783 68.8531 53.0382 68.173 52.198 68.173H54.1984C54.9985 68.173 55.6786 67.5329 55.6786 66.6928V64.8124C55.6786 64.0123 55.0385 63.3322 54.1984 63.3322H52.198C52.9982 63.3322 53.6783 62.6921 53.6783 61.8519V59.9716C53.6783 59.1715 53.0382 58.4914 52.198 58.4914H54.1984C54.9985 58.4914 55.6786 57.8512 55.6786 57.0111V55.1308C55.6786 54.3306 55.0385 53.6505 54.1984 53.6505H52.198C52.9982 53.6505 53.6783 53.0104 53.6783 52.1703V50.2899C53.6783 49.4898 53.0382 48.8097 52.198 48.8097H54.1984C54.9985 48.8097 55.6786 48.1696 55.6786 47.3294V45.4491C55.6786 44.649 55.0385 43.9689 54.1984 43.9689H52.198C52.9982 43.9689 53.6783 43.3287 53.6783 42.4886V40.6083C53.6783 39.8081 53.0382 39.128 52.198 39.128H54.1984C54.9985 39.128 55.6786 38.4879 55.6786 37.6478V35.7674C55.6786 34.9673 55.0385 34.2872 54.1984 34.2872H52.198C52.9982 34.2872 53.6783 33.6471 53.6783 32.8069V30.9266C53.6783 30.1265 53.0382 29.4464 52.198 29.4464H54.1984C54.9985 29.4464 55.6786 28.8063 55.6786 27.9661V26.0858C55.6786 25.2856 55.0385 24.6055 54.1984 24.6055H52.198C52.9982 24.6055 53.6783 23.9654 53.6783 23.1253V21.245C53.6783 20.4448 53.0382 19.7647 52.198 19.7647H54.1984C54.9985 19.7647 55.6786 19.1246 55.6786 18.2844V16.4041C55.6786 15.604 55.0385 14.9239 54.1984 14.9239H52.198C52.9982 14.9239 53.6783 14.2838 53.6783 13.4436V11.5633C53.6783 10.7631 53.0382 10.083 52.198 10.083H54.1984C54.9985 9.92301 55.6386 9.28289 55.6386 8.44275Z" fill="white"/>
<path d="M54.32 10.003H10.1099C9.3104 10.003 8.63086 9.36815 8.63086 8.53495V6.67017C8.63086 5.87664 9.27043 5.20215 10.1099 5.20215H54.36C55.1594 5.20215 55.839 5.83697 55.839 6.67017V8.53495C55.799 9.36815 55.1594 10.003 54.32 10.003Z" stroke="#DDDDDD" stroke-width="0.382721" stroke-miterlimit="10"/>
<path d="M52.3176 5.20219H8.10742C7.30796 5.20219 6.62842 4.56208 6.62842 3.72194V1.88162C6.62842 1.08148 7.26799 0.401367 8.10742 0.401367H52.3575C53.157 0.401367 53.8365 1.04148 53.8365 1.88162V3.76194C53.7966 4.56208 53.157 5.20219 52.3176 5.20219Z" stroke="#DDDDDD" stroke-width="0.382721" stroke-miterlimit="10"/>
<path d="M54.32 29.2051H10.1099C9.3104 29.2051 8.63086 28.5703 8.63086 27.7371V25.8723C8.63086 25.0788 9.27043 24.4043 10.1099 24.4043H54.36C55.1594 24.4043 55.839 25.0391 55.839 25.8723V27.7371C55.799 28.5703 55.1594 29.2051 54.32 29.2051Z" stroke="#DDDDDD" stroke-width="0.382721" stroke-miterlimit="10"/>
<path d="M52.3176 24.4043H8.10742C7.30796 24.4043 6.62842 23.7695 6.62842 22.9363V21.0715C6.62842 20.278 7.26799 19.6035 8.10742 19.6035H52.3575C53.157 19.6035 53.8365 20.2383 53.8365 21.0715V22.9363C53.7966 23.7695 53.157 24.4043 52.3176 24.4043Z" stroke="#DDDDDD" stroke-width="0.382721" stroke-miterlimit="10"/>
<path d="M54.32 19.6036H10.1099C9.3104 19.6036 8.63086 18.9687 8.63086 18.1355V16.2708C8.63086 15.4772 9.27043 14.8027 10.1099 14.8027H54.36C55.1594 14.8027 55.839 15.4376 55.839 16.2708V18.1355C55.799 18.9687 55.1594 19.6036 54.32 19.6036Z" stroke="#DDDDDD" stroke-width="0.382721" stroke-miterlimit="10"/>
<path d="M52.3176 14.8038H8.10742C7.30796 14.8038 6.62842 14.1689 6.62842 13.3357V11.471C6.62842 10.6774 7.26799 10.0029 8.10742 10.0029H52.3575C53.157 10.0029 53.8365 10.6377 53.8365 11.471V13.3357C53.7966 14.1689 53.157 14.8038 52.3176 14.8038Z" stroke="#DDDDDD" stroke-width="0.382721" stroke-miterlimit="10"/>
<path d="M54.32 48.4095H10.1099C9.3104 48.4095 8.63086 47.7746 8.63086 46.9414V45.0767C8.63086 44.2831 9.27043 43.6086 10.1099 43.6086H54.36C55.1594 43.6086 55.839 44.2435 55.839 45.0767V46.9414C55.799 47.7746 55.1594 48.4095 54.32 48.4095Z" stroke="#DDDDDD" stroke-width="0.382721" stroke-miterlimit="10"/>
<path d="M52.3176 43.6087H8.10742C7.30796 43.6087 6.62842 42.9739 6.62842 42.1407V40.2759C6.62842 39.4824 7.26799 38.8079 8.10742 38.8079H52.3575C53.157 38.8079 53.8365 39.4427 53.8365 40.2759V42.1407C53.7966 42.9739 53.157 43.6087 52.3176 43.6087Z" stroke="#DDDDDD" stroke-width="0.382721" stroke-miterlimit="10"/>
<path d="M54.32 38.8079H10.1099C9.3104 38.8079 8.63086 38.1731 8.63086 37.3399V35.4751C8.63086 34.6816 9.27043 34.0071 10.1099 34.0071H54.36C55.1594 34.0071 55.839 34.6419 55.839 35.4751V37.3399C55.799 38.1731 55.1594 38.8079 54.32 38.8079Z" stroke="#DDDDDD" stroke-width="0.382721" stroke-miterlimit="10"/>
<path d="M52.3176 34.0071H8.10742C7.30796 34.0071 6.62842 33.3723 6.62842 32.5391V30.6743C6.62842 29.8808 7.26799 29.2063 8.10742 29.2063H52.3575C53.157 29.2063 53.8365 29.8411 53.8365 30.6743V32.5391C53.7966 33.3723 53.157 34.0071 52.3176 34.0071Z" stroke="#DDDDDD" stroke-width="0.382721" stroke-miterlimit="10"/>
<path d="M54.32 58.0101H10.1099C9.3104 58.0101 8.63086 57.3752 8.63086 56.542V54.6773C8.63086 53.8837 9.27043 53.2092 10.1099 53.2092H54.36C55.1594 53.2092 55.839 53.8441 55.839 54.6773V56.542C55.799 57.3752 55.1594 58.0101 54.32 58.0101Z" stroke="#DDDDDD" stroke-width="0.382721" stroke-miterlimit="10"/>
<path d="M52.3176 53.2093H8.10742C7.30796 53.2093 6.62842 52.5745 6.62842 51.7413V49.8765C6.62842 49.0829 7.26799 48.4084 8.10742 48.4084H52.3575C53.157 48.4084 53.8365 49.0433 53.8365 49.8765V51.7413C53.7966 52.5745 53.157 53.2093 52.3176 53.2093Z" stroke="#DDDDDD" stroke-width="0.382721" stroke-miterlimit="10"/>
<path d="M52.3176 72.4134H8.10742C7.30796 72.4134 6.62842 71.7786 6.62842 70.9454V69.0806C6.62842 68.287 7.26799 67.6125 8.10742 67.6125H52.3575C53.157 67.6125 53.8365 68.2474 53.8365 69.0806V70.9454C53.7966 71.7786 53.157 72.4134 52.3176 72.4134Z" stroke="#DDDDDD" stroke-width="0.382721" stroke-miterlimit="10"/>
<path d="M54.32 67.6126H10.1099C9.3104 67.6126 8.63086 66.9778 8.63086 66.1446V64.2798C8.63086 63.4863 9.27043 62.8118 10.1099 62.8118H54.36C55.1594 62.8118 55.839 63.4466 55.839 64.2798V66.1446C55.799 66.9778 55.1594 67.6126 54.32 67.6126Z" stroke="#DDDDDD" stroke-width="0.382721" stroke-miterlimit="10"/>
<path d="M52.3176 62.8118H8.10742C7.30796 62.8118 6.62842 62.177 6.62842 61.3438V59.479C6.62842 58.6855 7.26799 58.011 8.10742 58.011H52.3575C53.157 58.011 53.8365 58.6458 53.8365 59.479V61.3438C53.7966 62.177 53.157 62.8118 52.3176 62.8118Z" stroke="#DDDDDD" stroke-width="0.382721" stroke-miterlimit="10"/>
<path d="M6.54736 1.20117H53.5154" stroke="#DDDDDD" stroke-width="0.191361" stroke-miterlimit="10"/>
<path d="M6.54785 4.40259H53.5159" stroke="#DDDDDD" stroke-width="0.191361" stroke-miterlimit="10"/>
<path d="M7.58984 1.2019V4.40245" stroke="#DDDDDD" stroke-width="0.191361" stroke-miterlimit="10"/>
<path d="M9.18799 1.20166V4.40221" stroke="#DDDDDD" stroke-width="0.191361" stroke-miterlimit="10"/>
<path d="M10.7891 1.20166V4.40221" stroke="#DDDDDD" stroke-width="0.191361" stroke-miterlimit="10"/>
<path d="M12.3901 1.20166V4.40221" stroke="#DDDDDD" stroke-width="0.191361" stroke-miterlimit="10"/>
<path d="M13.9907 1.20166V4.40221" stroke="#DDDDDD" stroke-width="0.191361" stroke-miterlimit="10"/>
<path d="M15.5898 1.20166V4.40221" stroke="#DDDDDD" stroke-width="0.191361" stroke-miterlimit="10"/>
<path d="M17.1909 1.20166V4.40221" stroke="#DDDDDD" stroke-width="0.191361" stroke-miterlimit="10"/>
<path d="M18.7896 1.20166V4.40221" stroke="#DDDDDD" stroke-width="0.191361" stroke-miterlimit="10"/>
<path d="M20.3926 1.20166V4.40221" stroke="#DDDDDD" stroke-width="0.191361" stroke-miterlimit="10"/>
<path d="M21.9917 1.20166V4.40221" stroke="#DDDDDD" stroke-width="0.191361" stroke-miterlimit="10"/>
<path d="M23.5923 1.20166V4.40221" stroke="#DDDDDD" stroke-width="0.191361" stroke-miterlimit="10"/>
<path d="M25.1914 1.20166V4.40221" stroke="#DDDDDD" stroke-width="0.191361" stroke-miterlimit="10"/>
<path d="M26.7905 1.20166V4.40221" stroke="#DDDDDD" stroke-width="0.191361" stroke-miterlimit="10"/>
<path d="M28.3931 1.20166V4.40221" stroke="#DDDDDD" stroke-width="0.191361" stroke-miterlimit="10"/>
<path d="M29.9922 1.20166V4.40221" stroke="#DDDDDD" stroke-width="0.191361" stroke-miterlimit="10"/>
<path d="M31.5933 1.20166V4.40221" stroke="#DDDDDD" stroke-width="0.191361" stroke-miterlimit="10"/>
<path d="M33.1919 1.20166V4.40221" stroke="#DDDDDD" stroke-width="0.191361" stroke-miterlimit="10"/>
<path d="M34.793 1.20166V4.40221" stroke="#DDDDDD" stroke-width="0.191361" stroke-miterlimit="10"/>
<path d="M36.394 1.20166V4.40221" stroke="#DDDDDD" stroke-width="0.191361" stroke-miterlimit="10"/>
<path d="M37.9951 1.20166V4.40221" stroke="#DDDDDD" stroke-width="0.191361" stroke-miterlimit="10"/>
<path d="M39.5938 1.20166V4.40221" stroke="#DDDDDD" stroke-width="0.191361" stroke-miterlimit="10"/>
<path d="M41.1948 1.20166V4.40221" stroke="#DDDDDD" stroke-width="0.191361" stroke-miterlimit="10"/>
<path d="M42.7935 1.20166V4.40221" stroke="#DDDDDD" stroke-width="0.191361" stroke-miterlimit="10"/>
<path d="M44.3965 1.20166V4.40221" stroke="#DDDDDD" stroke-width="0.191361" stroke-miterlimit="10"/>
<path d="M45.9956 1.20166V4.40221" stroke="#DDDDDD" stroke-width="0.191361" stroke-miterlimit="10"/>
<path d="M47.5967 1.20166V4.40221" stroke="#DDDDDD" stroke-width="0.191361" stroke-miterlimit="10"/>
<path d="M49.1953 1.20166V4.40221" stroke="#DDDDDD" stroke-width="0.191361" stroke-miterlimit="10"/>
<path d="M50.7964 1.20166V4.40221" stroke="#DDDDDD" stroke-width="0.191361" stroke-miterlimit="10"/>
<path d="M52.3975 1.20166V4.40221" stroke="#DDDDDD" stroke-width="0.191361" stroke-miterlimit="10"/>
<path d="M8.55273 6.00073H55.5208" stroke="#DDDDDD" stroke-width="0.191361" stroke-miterlimit="10"/>
<path d="M8.55273 9.20215H55.5208" stroke="#DDDDDD" stroke-width="0.191361" stroke-miterlimit="10"/>
<path d="M9.59424 6.00122V9.20177" stroke="#DDDDDD" stroke-width="0.191361" stroke-miterlimit="10"/>
<path d="M11.1948 6.00098V9.20153" stroke="#DDDDDD" stroke-width="0.191361" stroke-miterlimit="10"/>
<path d="M12.7939 6.00098V9.20153" stroke="#DDDDDD" stroke-width="0.191361" stroke-miterlimit="10"/>
<path d="M14.3965 6.00098V9.20153" stroke="#DDDDDD" stroke-width="0.191361" stroke-miterlimit="10"/>
<path d="M15.9956 6.00098V9.20153" stroke="#DDDDDD" stroke-width="0.191361" stroke-miterlimit="10"/>
<path d="M17.5947 6.00098V9.20153" stroke="#DDDDDD" stroke-width="0.191361" stroke-miterlimit="10"/>
<path d="M19.1953 6.00098V9.20153" stroke="#DDDDDD" stroke-width="0.191361" stroke-miterlimit="10"/>
<path d="M20.7944 6.00098V9.20153" stroke="#DDDDDD" stroke-width="0.191361" stroke-miterlimit="10"/>
<path d="M22.3975 6.00098V9.20153" stroke="#DDDDDD" stroke-width="0.191361" stroke-miterlimit="10"/>
<path d="M23.9961 6.00098V9.20153" stroke="#DDDDDD" stroke-width="0.191361" stroke-miterlimit="10"/>
<path d="M25.5972 6.00098V9.20153" stroke="#DDDDDD" stroke-width="0.191361" stroke-miterlimit="10"/>
<path d="M27.1963 6.00098V9.20153" stroke="#DDDDDD" stroke-width="0.191361" stroke-miterlimit="10"/>
<path d="M28.7969 6.00098V9.20153" stroke="#DDDDDD" stroke-width="0.191361" stroke-miterlimit="10"/>
<path d="M30.3979 6.00098V9.20153" stroke="#DDDDDD" stroke-width="0.191361" stroke-miterlimit="10"/>
<path d="M31.999 6.00098V9.20153" stroke="#DDDDDD" stroke-width="0.191361" stroke-miterlimit="10"/>
<path d="M33.5977 6.00098V9.20153" stroke="#DDDDDD" stroke-width="0.191361" stroke-miterlimit="10"/>
<path d="M35.1987 6.00098V9.20153" stroke="#DDDDDD" stroke-width="0.191361" stroke-miterlimit="10"/>
<path d="M36.7979 6.00098V9.20153" stroke="#DDDDDD" stroke-width="0.191361" stroke-miterlimit="10"/>
<path d="M38.4009 6.00098V9.20153" stroke="#DDDDDD" stroke-width="0.191361" stroke-miterlimit="10"/>
<path d="M39.9995 6.00098V9.20153" stroke="#DDDDDD" stroke-width="0.191361" stroke-miterlimit="10"/>
<path d="M41.6006 6.00098V9.20153" stroke="#DDDDDD" stroke-width="0.191361" stroke-miterlimit="10"/>
<path d="M43.1997 6.00098V9.20153" stroke="#DDDDDD" stroke-width="0.191361" stroke-miterlimit="10"/>
<path d="M44.8003 6.00098V9.20153" stroke="#DDDDDD" stroke-width="0.191361" stroke-miterlimit="10"/>
<path d="M46.3994 6.00098V9.20153" stroke="#DDDDDD" stroke-width="0.191361" stroke-miterlimit="10"/>
<path d="M48.0024 6.00098V9.20153" stroke="#DDDDDD" stroke-width="0.191361" stroke-miterlimit="10"/>
<path d="M49.6011 6.00098V9.20153" stroke="#DDDDDD" stroke-width="0.191361" stroke-miterlimit="10"/>
<path d="M51.2021 6.00098V9.20153" stroke="#DDDDDD" stroke-width="0.191361" stroke-miterlimit="10"/>
<path d="M52.8013 6.00098V9.20153" stroke="#DDDDDD" stroke-width="0.191361" stroke-miterlimit="10"/>
<path d="M54.3999 6.00098V9.20153" stroke="#DDDDDD" stroke-width="0.191361" stroke-miterlimit="10"/>
<path d="M6.54834 10.8015H53.5164" stroke="#DDDDDD" stroke-width="0.191361" stroke-miterlimit="10"/>
<path d="M6.54834 14.0029H53.5164" stroke="#DDDDDD" stroke-width="0.191361" stroke-miterlimit="10"/>
<path d="M7.58984 10.802V14.0026" stroke="#DDDDDD" stroke-width="0.191361" stroke-miterlimit="10"/>
<path d="M9.18799 10.8018V14.0023" stroke="#DDDDDD" stroke-width="0.191361" stroke-miterlimit="10"/>
<path d="M10.7891 10.8018V14.0023" stroke="#DDDDDD" stroke-width="0.191361" stroke-miterlimit="10"/>
<path d="M12.3901 10.8018V14.0023" stroke="#DDDDDD" stroke-width="0.191361" stroke-miterlimit="10"/>
<path d="M13.9907 10.8018V14.0023" stroke="#DDDDDD" stroke-width="0.191361" stroke-miterlimit="10"/>
<path d="M15.5898 10.8018V14.0023" stroke="#DDDDDD" stroke-width="0.191361" stroke-miterlimit="10"/>
<path d="M17.1909 10.8018V14.0023" stroke="#DDDDDD" stroke-width="0.191361" stroke-miterlimit="10"/>
<path d="M18.7896 10.8018V14.0023" stroke="#DDDDDD" stroke-width="0.191361" stroke-miterlimit="10"/>
<path d="M20.3926 10.8018V14.0023" stroke="#DDDDDD" stroke-width="0.191361" stroke-miterlimit="10"/>
<path d="M21.9917 10.8018V14.0023" stroke="#DDDDDD" stroke-width="0.191361" stroke-miterlimit="10"/>
<path d="M23.5923 10.8018V14.0023" stroke="#DDDDDD" stroke-width="0.191361" stroke-miterlimit="10"/>
<path d="M25.1914 10.8018V14.0023" stroke="#DDDDDD" stroke-width="0.191361" stroke-miterlimit="10"/>
<path d="M26.7905 10.8018V14.0023" stroke="#DDDDDD" stroke-width="0.191361" stroke-miterlimit="10"/>
<path d="M28.3931 10.8018V14.0023" stroke="#DDDDDD" stroke-width="0.191361" stroke-miterlimit="10"/>
<path d="M29.9922 10.8018V14.0023" stroke="#DDDDDD" stroke-width="0.191361" stroke-miterlimit="10"/>
<path d="M31.5933 10.8018V14.0023" stroke="#DDDDDD" stroke-width="0.191361" stroke-miterlimit="10"/>
<path d="M33.1919 10.8018V14.0023" stroke="#DDDDDD" stroke-width="0.191361" stroke-miterlimit="10"/>
<path d="M34.793 10.8018V14.0023" stroke="#DDDDDD" stroke-width="0.191361" stroke-miterlimit="10"/>
<path d="M36.394 10.8018V14.0023" stroke="#DDDDDD" stroke-width="0.191361" stroke-miterlimit="10"/>
<path d="M37.9951 10.8018V14.0023" stroke="#DDDDDD" stroke-width="0.191361" stroke-miterlimit="10"/>
<path d="M39.5938 10.8018V14.0023" stroke="#DDDDDD" stroke-width="0.191361" stroke-miterlimit="10"/>
<path d="M41.1948 10.8018V14.0023" stroke="#DDDDDD" stroke-width="0.191361" stroke-miterlimit="10"/>
<path d="M42.7935 10.8018V14.0023" stroke="#DDDDDD" stroke-width="0.191361" stroke-miterlimit="10"/>
<path d="M44.3965 10.8018V14.0023" stroke="#DDDDDD" stroke-width="0.191361" stroke-miterlimit="10"/>
<path d="M45.9956 10.8018V14.0023" stroke="#DDDDDD" stroke-width="0.191361" stroke-miterlimit="10"/>
<path d="M47.5967 10.8018V14.0023" stroke="#DDDDDD" stroke-width="0.191361" stroke-miterlimit="10"/>
<path d="M49.1953 10.8018V14.0023" stroke="#DDDDDD" stroke-width="0.191361" stroke-miterlimit="10"/>
<path d="M50.7964 10.8018V14.0023" stroke="#DDDDDD" stroke-width="0.191361" stroke-miterlimit="10"/>
<path d="M52.3975 10.8018V14.0023" stroke="#DDDDDD" stroke-width="0.191361" stroke-miterlimit="10"/>
<path d="M8.55176 15.6023H55.5198" stroke="#DDDDDD" stroke-width="0.191361" stroke-miterlimit="10"/>
<path d="M8.55273 18.8037H55.5208" stroke="#DDDDDD" stroke-width="0.191361" stroke-miterlimit="10"/>
<path d="M9.59424 15.603V18.8036" stroke="#DDDDDD" stroke-width="0.191361" stroke-miterlimit="10"/>
<path d="M11.1948 15.6038V18.8043" stroke="#DDDDDD" stroke-width="0.191361" stroke-miterlimit="10"/>
<path d="M12.7939 15.6038V18.8043" stroke="#DDDDDD" stroke-width="0.191361" stroke-miterlimit="10"/>
<path d="M14.3965 15.6038V18.8043" stroke="#DDDDDD" stroke-width="0.191361" stroke-miterlimit="10"/>
<path d="M15.9956 15.6038V18.8043" stroke="#DDDDDD" stroke-width="0.191361" stroke-miterlimit="10"/>
<path d="M17.5947 15.6038V18.8043" stroke="#DDDDDD" stroke-width="0.191361" stroke-miterlimit="10"/>
<path d="M19.1953 15.6038V18.8043" stroke="#DDDDDD" stroke-width="0.191361" stroke-miterlimit="10"/>
<path d="M20.7944 15.6038V18.8043" stroke="#DDDDDD" stroke-width="0.191361" stroke-miterlimit="10"/>
<path d="M22.3975 15.6038V18.8043" stroke="#DDDDDD" stroke-width="0.191361" stroke-miterlimit="10"/>
<path d="M23.9961 15.6038V18.8043" stroke="#DDDDDD" stroke-width="0.191361" stroke-miterlimit="10"/>
<path d="M25.5972 15.6038V18.8043" stroke="#DDDDDD" stroke-width="0.191361" stroke-miterlimit="10"/>
<path d="M27.1963 15.6038V18.8043" stroke="#DDDDDD" stroke-width="0.191361" stroke-miterlimit="10"/>
<path d="M28.7969 15.6038V18.8043" stroke="#DDDDDD" stroke-width="0.191361" stroke-miterlimit="10"/>
<path d="M30.3979 15.6038V18.8043" stroke="#DDDDDD" stroke-width="0.191361" stroke-miterlimit="10"/>
<path d="M31.999 15.6038V18.8043" stroke="#DDDDDD" stroke-width="0.191361" stroke-miterlimit="10"/>
<path d="M33.5977 15.6038V18.8043" stroke="#DDDDDD" stroke-width="0.191361" stroke-miterlimit="10"/>
<path d="M35.1987 15.6038V18.8043" stroke="#DDDDDD" stroke-width="0.191361" stroke-miterlimit="10"/>
<path d="M36.7979 15.6038V18.8043" stroke="#DDDDDD" stroke-width="0.191361" stroke-miterlimit="10"/>
<path d="M38.4009 15.6038V18.8043" stroke="#DDDDDD" stroke-width="0.191361" stroke-miterlimit="10"/>
<path d="M39.9995 15.6038V18.8043" stroke="#DDDDDD" stroke-width="0.191361" stroke-miterlimit="10"/>
<path d="M41.6006 15.6038V18.8043" stroke="#DDDDDD" stroke-width="0.191361" stroke-miterlimit="10"/>
<path d="M43.1997 15.6038V18.8043" stroke="#DDDDDD" stroke-width="0.191361" stroke-miterlimit="10"/>
<path d="M44.8003 15.6038V18.8043" stroke="#DDDDDD" stroke-width="0.191361" stroke-miterlimit="10"/>
<path d="M46.3994 15.6038V18.8043" stroke="#DDDDDD" stroke-width="0.191361" stroke-miterlimit="10"/>
<path d="M48.0024 15.6038V18.8043" stroke="#DDDDDD" stroke-width="0.191361" stroke-miterlimit="10"/>
<path d="M49.6011 15.6038V18.8043" stroke="#DDDDDD" stroke-width="0.191361" stroke-miterlimit="10"/>
<path d="M51.2021 15.6038V18.8043" stroke="#DDDDDD" stroke-width="0.191361" stroke-miterlimit="10"/>
<path d="M52.8013 15.6038V18.8043" stroke="#DDDDDD" stroke-width="0.191361" stroke-miterlimit="10"/>
<path d="M54.3999 15.6038V18.8043" stroke="#DDDDDD" stroke-width="0.191361" stroke-miterlimit="10"/>
<path d="M6.54834 20.4033H53.5164" stroke="#DDDDDD" stroke-width="0.191361" stroke-miterlimit="10"/>
<path d="M6.54834 23.6047H53.5164" stroke="#DDDDDD" stroke-width="0.191361" stroke-miterlimit="10"/>
<path d="M7.58984 20.4038V23.6044" stroke="#DDDDDD" stroke-width="0.191361" stroke-miterlimit="10"/>
<path d="M9.18799 20.4036V23.6041" stroke="#DDDDDD" stroke-width="0.191361" stroke-miterlimit="10"/>
<path d="M10.7891 20.4036V23.6041" stroke="#DDDDDD" stroke-width="0.191361" stroke-miterlimit="10"/>
<path d="M12.3901 20.4036V23.6041" stroke="#DDDDDD" stroke-width="0.191361" stroke-miterlimit="10"/>
<path d="M13.9907 20.4036V23.6041" stroke="#DDDDDD" stroke-width="0.191361" stroke-miterlimit="10"/>
<path d="M15.5898 20.4036V23.6041" stroke="#DDDDDD" stroke-width="0.191361" stroke-miterlimit="10"/>
<path d="M17.1909 20.4036V23.6041" stroke="#DDDDDD" stroke-width="0.191361" stroke-miterlimit="10"/>
<path d="M18.7896 20.4036V23.6041" stroke="#DDDDDD" stroke-width="0.191361" stroke-miterlimit="10"/>
<path d="M20.3926 20.4036V23.6041" stroke="#DDDDDD" stroke-width="0.191361" stroke-miterlimit="10"/>
<path d="M21.9917 20.4036V23.6041" stroke="#DDDDDD" stroke-width="0.191361" stroke-miterlimit="10"/>
<path d="M23.5923 20.4036V23.6041" stroke="#DDDDDD" stroke-width="0.191361" stroke-miterlimit="10"/>
<path d="M25.1914 20.4036V23.6041" stroke="#DDDDDD" stroke-width="0.191361" stroke-miterlimit="10"/>
<path d="M26.7905 20.4036V23.6041" stroke="#DDDDDD" stroke-width="0.191361" stroke-miterlimit="10"/>
<path d="M28.3931 20.4036V23.6041" stroke="#DDDDDD" stroke-width="0.191361" stroke-miterlimit="10"/>
<path d="M29.9922 20.4036V23.6041" stroke="#DDDDDD" stroke-width="0.191361" stroke-miterlimit="10"/>
<path d="M31.5933 20.4036V23.6041" stroke="#DDDDDD" stroke-width="0.191361" stroke-miterlimit="10"/>
<path d="M33.1919 20.4036V23.6041" stroke="#DDDDDD" stroke-width="0.191361" stroke-miterlimit="10"/>
<path d="M34.793 20.4036V23.6041" stroke="#DDDDDD" stroke-width="0.191361" stroke-miterlimit="10"/>
<path d="M36.394 20.4036V23.6041" stroke="#DDDDDD" stroke-width="0.191361" stroke-miterlimit="10"/>
<path d="M37.9951 20.4036V23.6041" stroke="#DDDDDD" stroke-width="0.191361" stroke-miterlimit="10"/>
<path d="M39.5938 20.4036V23.6041" stroke="#DDDDDD" stroke-width="0.191361" stroke-miterlimit="10"/>
<path d="M41.1948 20.4036V23.6041" stroke="#DDDDDD" stroke-width="0.191361" stroke-miterlimit="10"/>
<path d="M42.7935 20.4036V23.6041" stroke="#DDDDDD" stroke-width="0.191361" stroke-miterlimit="10"/>
<path d="M44.3965 20.4036V23.6041" stroke="#DDDDDD" stroke-width="0.191361" stroke-miterlimit="10"/>
<path d="M45.9956 20.4036V23.6041" stroke="#DDDDDD" stroke-width="0.191361" stroke-miterlimit="10"/>
<path d="M47.5967 20.4036V23.6041" stroke="#DDDDDD" stroke-width="0.191361" stroke-miterlimit="10"/>
<path d="M49.1953 20.4036V23.6041" stroke="#DDDDDD" stroke-width="0.191361" stroke-miterlimit="10"/>
<path d="M50.7964 20.4036V23.6041" stroke="#DDDDDD" stroke-width="0.191361" stroke-miterlimit="10"/>
<path d="M52.3975 20.4036V23.6041" stroke="#DDDDDD" stroke-width="0.191361" stroke-miterlimit="10"/>
<path d="M8.55176 25.2051H55.5198" stroke="#DDDDDD" stroke-width="0.191361" stroke-miterlimit="10"/>
<path d="M8.55273 28.4055H55.5208" stroke="#DDDDDD" stroke-width="0.191361" stroke-miterlimit="10"/>
<path d="M9.59424 25.2046V28.4051" stroke="#DDDDDD" stroke-width="0.191361" stroke-miterlimit="10"/>
<path d="M11.1929 25.2043V28.4049" stroke="#DDDDDD" stroke-width="0.191361" stroke-miterlimit="10"/>
<path d="M12.7939 25.2043V28.4049" stroke="#DDDDDD" stroke-width="0.191361" stroke-miterlimit="10"/>
<path d="M14.3945 25.2043V28.4049" stroke="#DDDDDD" stroke-width="0.191361" stroke-miterlimit="10"/>
<path d="M15.9956 25.2043V28.4049" stroke="#DDDDDD" stroke-width="0.191361" stroke-miterlimit="10"/>
<path d="M17.5947 25.2043V28.4049" stroke="#DDDDDD" stroke-width="0.191361" stroke-miterlimit="10"/>
<path d="M19.1953 25.2043V28.4049" stroke="#DDDDDD" stroke-width="0.191361" stroke-miterlimit="10"/>
<path d="M20.7944 25.2043V28.4049" stroke="#DDDDDD" stroke-width="0.191361" stroke-miterlimit="10"/>
<path d="M22.3975 25.2043V28.4049" stroke="#DDDDDD" stroke-width="0.191361" stroke-miterlimit="10"/>
<path d="M23.9961 25.2043V28.4049" stroke="#DDDDDD" stroke-width="0.191361" stroke-miterlimit="10"/>
<path d="M25.5972 25.2043V28.4049" stroke="#DDDDDD" stroke-width="0.191361" stroke-miterlimit="10"/>
<path d="M27.1963 25.2043V28.4049" stroke="#DDDDDD" stroke-width="0.191361" stroke-miterlimit="10"/>
<path d="M28.7969 25.2043V28.4049" stroke="#DDDDDD" stroke-width="0.191361" stroke-miterlimit="10"/>
<path d="M30.3979 25.2043V28.4049" stroke="#DDDDDD" stroke-width="0.191361" stroke-miterlimit="10"/>
<path d="M31.999 25.2043V28.4049" stroke="#DDDDDD" stroke-width="0.191361" stroke-miterlimit="10"/>
<path d="M33.5977 25.2043V28.4049" stroke="#DDDDDD" stroke-width="0.191361" stroke-miterlimit="10"/>
<path d="M35.1987 25.2043V28.4049" stroke="#DDDDDD" stroke-width="0.191361" stroke-miterlimit="10"/>
<path d="M36.7979 25.2043V28.4049" stroke="#DDDDDD" stroke-width="0.191361" stroke-miterlimit="10"/>
<path d="M38.4009 25.2043V28.4049" stroke="#DDDDDD" stroke-width="0.191361" stroke-miterlimit="10"/>
<path d="M39.9995 25.2043V28.4049" stroke="#DDDDDD" stroke-width="0.191361" stroke-miterlimit="10"/>
<path d="M41.6006 25.2043V28.4049" stroke="#DDDDDD" stroke-width="0.191361" stroke-miterlimit="10"/>
<path d="M43.1997 25.2043V28.4049" stroke="#DDDDDD" stroke-width="0.191361" stroke-miterlimit="10"/>
<path d="M44.8003 25.2043V28.4049" stroke="#DDDDDD" stroke-width="0.191361" stroke-miterlimit="10"/>
<path d="M46.3994 25.2043V28.4049" stroke="#DDDDDD" stroke-width="0.191361" stroke-miterlimit="10"/>
<path d="M48.0005 25.2043V28.4049" stroke="#DDDDDD" stroke-width="0.191361" stroke-miterlimit="10"/>
<path d="M49.6011 25.2043V28.4049" stroke="#DDDDDD" stroke-width="0.191361" stroke-miterlimit="10"/>
<path d="M51.2002 25.2043V28.4049" stroke="#DDDDDD" stroke-width="0.191361" stroke-miterlimit="10"/>
<path d="M52.8013 25.2043V28.4049" stroke="#DDDDDD" stroke-width="0.191361" stroke-miterlimit="10"/>
<path d="M54.3999 25.2043V28.4049" stroke="#DDDDDD" stroke-width="0.191361" stroke-miterlimit="10"/>
<path d="M6.54736 30.0046H53.5154" stroke="#DDDDDD" stroke-width="0.191361" stroke-miterlimit="10"/>
<path d="M6.54785 33.2063H53.5159" stroke="#DDDDDD" stroke-width="0.191361" stroke-miterlimit="10"/>
<path d="M7.58984 30.0054V33.2059" stroke="#DDDDDD" stroke-width="0.191361" stroke-miterlimit="10"/>
<path d="M9.18799 30.0061V33.2067" stroke="#DDDDDD" stroke-width="0.191361" stroke-miterlimit="10"/>
<path d="M10.7891 30.0061V33.2067" stroke="#DDDDDD" stroke-width="0.191361" stroke-miterlimit="10"/>
<path d="M12.3901 30.0061V33.2067" stroke="#DDDDDD" stroke-width="0.191361" stroke-miterlimit="10"/>
<path d="M13.9907 30.0061V33.2067" stroke="#DDDDDD" stroke-width="0.191361" stroke-miterlimit="10"/>
<path d="M15.5898 30.0061V33.2067" stroke="#DDDDDD" stroke-width="0.191361" stroke-miterlimit="10"/>
<path d="M17.1909 30.0061V33.2067" stroke="#DDDDDD" stroke-width="0.191361" stroke-miterlimit="10"/>
<path d="M18.7896 30.0061V33.2067" stroke="#DDDDDD" stroke-width="0.191361" stroke-miterlimit="10"/>
<path d="M20.3926 30.0061V33.2067" stroke="#DDDDDD" stroke-width="0.191361" stroke-miterlimit="10"/>
<path d="M21.9917 30.0061V33.2067" stroke="#DDDDDD" stroke-width="0.191361" stroke-miterlimit="10"/>
<path d="M23.5923 30.0061V33.2067" stroke="#DDDDDD" stroke-width="0.191361" stroke-miterlimit="10"/>
<path d="M25.1914 30.0061V33.2067" stroke="#DDDDDD" stroke-width="0.191361" stroke-miterlimit="10"/>
<path d="M26.7905 30.0061V33.2067" stroke="#DDDDDD" stroke-width="0.191361" stroke-miterlimit="10"/>
<path d="M28.3931 30.0061V33.2067" stroke="#DDDDDD" stroke-width="0.191361" stroke-miterlimit="10"/>
<path d="M29.9922 30.0061V33.2067" stroke="#DDDDDD" stroke-width="0.191361" stroke-miterlimit="10"/>
<path d="M31.5933 30.0061V33.2067" stroke="#DDDDDD" stroke-width="0.191361" stroke-miterlimit="10"/>
<path d="M33.1919 30.0061V33.2067" stroke="#DDDDDD" stroke-width="0.191361" stroke-miterlimit="10"/>
<path d="M34.793 30.0061V33.2067" stroke="#DDDDDD" stroke-width="0.191361" stroke-miterlimit="10"/>
<path d="M36.394 30.0061V33.2067" stroke="#DDDDDD" stroke-width="0.191361" stroke-miterlimit="10"/>
<path d="M37.9951 30.0061V33.2067" stroke="#DDDDDD" stroke-width="0.191361" stroke-miterlimit="10"/>
<path d="M39.5938 30.0061V33.2067" stroke="#DDDDDD" stroke-width="0.191361" stroke-miterlimit="10"/>
<path d="M41.1948 30.0061V33.2067" stroke="#DDDDDD" stroke-width="0.191361" stroke-miterlimit="10"/>
<path d="M42.7935 30.0061V33.2067" stroke="#DDDDDD" stroke-width="0.191361" stroke-miterlimit="10"/>
<path d="M44.3965 30.0061V33.2067" stroke="#DDDDDD" stroke-width="0.191361" stroke-miterlimit="10"/>
<path d="M45.9956 30.0061V33.2067" stroke="#DDDDDD" stroke-width="0.191361" stroke-miterlimit="10"/>
<path d="M47.5967 30.0061V33.2067" stroke="#DDDDDD" stroke-width="0.191361" stroke-miterlimit="10"/>
<path d="M49.1953 30.0061V33.2067" stroke="#DDDDDD" stroke-width="0.191361" stroke-miterlimit="10"/>
<path d="M50.7964 30.0061V33.2067" stroke="#DDDDDD" stroke-width="0.191361" stroke-miterlimit="10"/>
<path d="M52.3975 30.0061V33.2067" stroke="#DDDDDD" stroke-width="0.191361" stroke-miterlimit="10"/>
<path d="M8.55176 34.8074H55.5198" stroke="#DDDDDD" stroke-width="0.191361" stroke-miterlimit="10"/>
<path d="M8.55273 38.009H55.5208" stroke="#DDDDDD" stroke-width="0.191361" stroke-miterlimit="10"/>
<path d="M9.59424 34.8081V38.0086" stroke="#DDDDDD" stroke-width="0.191361" stroke-miterlimit="10"/>
<path d="M11.1948 34.8088V38.0094" stroke="#DDDDDD" stroke-width="0.191361" stroke-miterlimit="10"/>
<path d="M12.7939 34.8088V38.0094" stroke="#DDDDDD" stroke-width="0.191361" stroke-miterlimit="10"/>
<path d="M14.3965 34.8088V38.0094" stroke="#DDDDDD" stroke-width="0.191361" stroke-miterlimit="10"/>
<path d="M15.9956 34.8088V38.0094" stroke="#DDDDDD" stroke-width="0.191361" stroke-miterlimit="10"/>
<path d="M17.5947 34.8088V38.0094" stroke="#DDDDDD" stroke-width="0.191361" stroke-miterlimit="10"/>
<path d="M19.1953 34.8088V38.0094" stroke="#DDDDDD" stroke-width="0.191361" stroke-miterlimit="10"/>
<path d="M20.7944 34.8088V38.0094" stroke="#DDDDDD" stroke-width="0.191361" stroke-miterlimit="10"/>
<path d="M22.3975 34.8088V38.0094" stroke="#DDDDDD" stroke-width="0.191361" stroke-miterlimit="10"/>
<path d="M23.9961 34.8088V38.0094" stroke="#DDDDDD" stroke-width="0.191361" stroke-miterlimit="10"/>
<path d="M25.5972 34.8088V38.0094" stroke="#DDDDDD" stroke-width="0.191361" stroke-miterlimit="10"/>
<path d="M27.1963 34.8088V38.0094" stroke="#DDDDDD" stroke-width="0.191361" stroke-miterlimit="10"/>
<path d="M28.7969 34.8088V38.0094" stroke="#DDDDDD" stroke-width="0.191361" stroke-miterlimit="10"/>
<path d="M30.3979 34.8088V38.0094" stroke="#DDDDDD" stroke-width="0.191361" stroke-miterlimit="10"/>
<path d="M31.999 34.8088V38.0094" stroke="#DDDDDD" stroke-width="0.191361" stroke-miterlimit="10"/>
<path d="M33.5977 34.8088V38.0094" stroke="#DDDDDD" stroke-width="0.191361" stroke-miterlimit="10"/>
<path d="M35.1987 34.8088V38.0094" stroke="#DDDDDD" stroke-width="0.191361" stroke-miterlimit="10"/>
<path d="M36.7979 34.8088V38.0094" stroke="#DDDDDD" stroke-width="0.191361" stroke-miterlimit="10"/>
<path d="M38.4009 34.8088V38.0094" stroke="#DDDDDD" stroke-width="0.191361" stroke-miterlimit="10"/>
<path d="M39.9995 34.8088V38.0094" stroke="#DDDDDD" stroke-width="0.191361" stroke-miterlimit="10"/>
<path d="M41.6006 34.8088V38.0094" stroke="#DDDDDD" stroke-width="0.191361" stroke-miterlimit="10"/>
<path d="M43.1997 34.8088V38.0094" stroke="#DDDDDD" stroke-width="0.191361" stroke-miterlimit="10"/>
<path d="M44.8003 34.8088V38.0094" stroke="#DDDDDD" stroke-width="0.191361" stroke-miterlimit="10"/>
<path d="M46.3994 34.8088V38.0094" stroke="#DDDDDD" stroke-width="0.191361" stroke-miterlimit="10"/>
<path d="M48.0024 34.8088V38.0094" stroke="#DDDDDD" stroke-width="0.191361" stroke-miterlimit="10"/>
<path d="M49.6011 34.8088V38.0094" stroke="#DDDDDD" stroke-width="0.191361" stroke-miterlimit="10"/>
<path d="M51.2021 34.8088V38.0094" stroke="#DDDDDD" stroke-width="0.191361" stroke-miterlimit="10"/>
<path d="M52.8013 34.8088V38.0094" stroke="#DDDDDD" stroke-width="0.191361" stroke-miterlimit="10"/>
<path d="M54.3999 34.8088V38.0094" stroke="#DDDDDD" stroke-width="0.191361" stroke-miterlimit="10"/>
<path d="M6.54736 39.6074H53.5154" stroke="#DDDDDD" stroke-width="0.191361" stroke-miterlimit="10"/>
<path d="M6.54785 42.8079H53.5159" stroke="#DDDDDD" stroke-width="0.191361" stroke-miterlimit="10"/>
<path d="M7.58984 39.6072V42.8077" stroke="#DDDDDD" stroke-width="0.191361" stroke-miterlimit="10"/>
<path d="M9.18799 39.6069V42.8075" stroke="#DDDDDD" stroke-width="0.191361" stroke-miterlimit="10"/>
<path d="M10.7891 39.6069V42.8075" stroke="#DDDDDD" stroke-width="0.191361" stroke-miterlimit="10"/>
<path d="M12.3901 39.6069V42.8075" stroke="#DDDDDD" stroke-width="0.191361" stroke-miterlimit="10"/>
<path d="M13.9907 39.6069V42.8075" stroke="#DDDDDD" stroke-width="0.191361" stroke-miterlimit="10"/>
<path d="M15.5898 39.6069V42.8075" stroke="#DDDDDD" stroke-width="0.191361" stroke-miterlimit="10"/>
<path d="M17.1909 39.6069V42.8075" stroke="#DDDDDD" stroke-width="0.191361" stroke-miterlimit="10"/>
<path d="M18.7896 39.6069V42.8075" stroke="#DDDDDD" stroke-width="0.191361" stroke-miterlimit="10"/>
<path d="M20.3926 39.6069V42.8075" stroke="#DDDDDD" stroke-width="0.191361" stroke-miterlimit="10"/>
<path d="M21.9917 39.6069V42.8075" stroke="#DDDDDD" stroke-width="0.191361" stroke-miterlimit="10"/>
<path d="M23.5923 39.6069V42.8075" stroke="#DDDDDD" stroke-width="0.191361" stroke-miterlimit="10"/>
<path d="M25.1914 39.6069V42.8075" stroke="#DDDDDD" stroke-width="0.191361" stroke-miterlimit="10"/>
<path d="M26.7905 39.6069V42.8075" stroke="#DDDDDD" stroke-width="0.191361" stroke-miterlimit="10"/>
<path d="M28.3931 39.6069V42.8075" stroke="#DDDDDD" stroke-width="0.191361" stroke-miterlimit="10"/>
<path d="M29.9922 39.6069V42.8075" stroke="#DDDDDD" stroke-width="0.191361" stroke-miterlimit="10"/>
<path d="M31.5933 39.6069V42.8075" stroke="#DDDDDD" stroke-width="0.191361" stroke-miterlimit="10"/>
<path d="M33.1919 39.6069V42.8075" stroke="#DDDDDD" stroke-width="0.191361" stroke-miterlimit="10"/>
<path d="M34.793 39.6069V42.8075" stroke="#DDDDDD" stroke-width="0.191361" stroke-miterlimit="10"/>
<path d="M36.394 39.6069V42.8075" stroke="#DDDDDD" stroke-width="0.191361" stroke-miterlimit="10"/>
<path d="M37.9951 39.6069V42.8075" stroke="#DDDDDD" stroke-width="0.191361" stroke-miterlimit="10"/>
<path d="M39.5938 39.6069V42.8075" stroke="#DDDDDD" stroke-width="0.191361" stroke-miterlimit="10"/>
<path d="M41.1948 39.6069V42.8075" stroke="#DDDDDD" stroke-width="0.191361" stroke-miterlimit="10"/>
<path d="M42.7935 39.6069V42.8075" stroke="#DDDDDD" stroke-width="0.191361" stroke-miterlimit="10"/>
<path d="M44.3965 39.6069V42.8075" stroke="#DDDDDD" stroke-width="0.191361" stroke-miterlimit="10"/>
<path d="M45.9956 39.6069V42.8075" stroke="#DDDDDD" stroke-width="0.191361" stroke-miterlimit="10"/>
<path d="M47.5967 39.6069V42.8075" stroke="#DDDDDD" stroke-width="0.191361" stroke-miterlimit="10"/>
<path d="M49.1953 39.6069V42.8075" stroke="#DDDDDD" stroke-width="0.191361" stroke-miterlimit="10"/>
<path d="M50.7964 39.6069V42.8075" stroke="#DDDDDD" stroke-width="0.191361" stroke-miterlimit="10"/>
<path d="M52.3975 39.6069V42.8075" stroke="#DDDDDD" stroke-width="0.191361" stroke-miterlimit="10"/>
<path d="M8.55176 44.4082H55.5198" stroke="#DDDDDD" stroke-width="0.191361" stroke-miterlimit="10"/>
<path d="M8.55273 47.6086H55.5208" stroke="#DDDDDD" stroke-width="0.191361" stroke-miterlimit="10"/>
<path d="M9.59424 44.408V47.6085" stroke="#DDDDDD" stroke-width="0.191361" stroke-miterlimit="10"/>
<path d="M11.1948 44.4077V47.6083" stroke="#DDDDDD" stroke-width="0.191361" stroke-miterlimit="10"/>
<path d="M12.7939 44.4077V47.6083" stroke="#DDDDDD" stroke-width="0.191361" stroke-miterlimit="10"/>
<path d="M14.3965 44.4077V47.6083" stroke="#DDDDDD" stroke-width="0.191361" stroke-miterlimit="10"/>
<path d="M15.9956 44.4077V47.6083" stroke="#DDDDDD" stroke-width="0.191361" stroke-miterlimit="10"/>
<path d="M17.5947 44.4077V47.6083" stroke="#DDDDDD" stroke-width="0.191361" stroke-miterlimit="10"/>
<path d="M19.1953 44.4077V47.6083" stroke="#DDDDDD" stroke-width="0.191361" stroke-miterlimit="10"/>
<path d="M20.7944 44.4077V47.6083" stroke="#DDDDDD" stroke-width="0.191361" stroke-miterlimit="10"/>
<path d="M22.3975 44.4077V47.6083" stroke="#DDDDDD" stroke-width="0.191361" stroke-miterlimit="10"/>
<path d="M23.9961 44.4077V47.6083" stroke="#DDDDDD" stroke-width="0.191361" stroke-miterlimit="10"/>
<path d="M25.5972 44.4077V47.6083" stroke="#DDDDDD" stroke-width="0.191361" stroke-miterlimit="10"/>
<path d="M27.1963 44.4077V47.6083" stroke="#DDDDDD" stroke-width="0.191361" stroke-miterlimit="10"/>
<path d="M28.7969 44.4077V47.6083" stroke="#DDDDDD" stroke-width="0.191361" stroke-miterlimit="10"/>
<path d="M30.3979 44.4077V47.6083" stroke="#DDDDDD" stroke-width="0.191361" stroke-miterlimit="10"/>
<path d="M31.999 44.4077V47.6083" stroke="#DDDDDD" stroke-width="0.191361" stroke-miterlimit="10"/>
<path d="M33.5977 44.4077V47.6083" stroke="#DDDDDD" stroke-width="0.191361" stroke-miterlimit="10"/>
<path d="M35.1987 44.4077V47.6083" stroke="#DDDDDD" stroke-width="0.191361" stroke-miterlimit="10"/>
<path d="M36.7979 44.4077V47.6083" stroke="#DDDDDD" stroke-width="0.191361" stroke-miterlimit="10"/>
<path d="M38.4009 44.4077V47.6083" stroke="#DDDDDD" stroke-width="0.191361" stroke-miterlimit="10"/>
<path d="M39.9995 44.4077V47.6083" stroke="#DDDDDD" stroke-width="0.191361" stroke-miterlimit="10"/>
<path d="M41.6006 44.4077V47.6083" stroke="#DDDDDD" stroke-width="0.191361" stroke-miterlimit="10"/>
<path d="M43.1997 44.4077V47.6083" stroke="#DDDDDD" stroke-width="0.191361" stroke-miterlimit="10"/>
<path d="M44.8003 44.4077V47.6083" stroke="#DDDDDD" stroke-width="0.191361" stroke-miterlimit="10"/>
<path d="M46.3994 44.4077V47.6083" stroke="#DDDDDD" stroke-width="0.191361" stroke-miterlimit="10"/>
<path d="M48.0024 44.4077V47.6083" stroke="#DDDDDD" stroke-width="0.191361" stroke-miterlimit="10"/>
<path d="M49.6011 44.4077V47.6083" stroke="#DDDDDD" stroke-width="0.191361" stroke-miterlimit="10"/>
<path d="M51.2021 44.4077V47.6083" stroke="#DDDDDD" stroke-width="0.191361" stroke-miterlimit="10"/>
<path d="M52.8013 44.4077V47.6083" stroke="#DDDDDD" stroke-width="0.191361" stroke-miterlimit="10"/>
<path d="M54.3999 44.4077V47.6083" stroke="#DDDDDD" stroke-width="0.191361" stroke-miterlimit="10"/>
<path d="M6.54736 49.21H53.5154" stroke="#DDDDDD" stroke-width="0.191361" stroke-miterlimit="10"/>
<path d="M6.54785 52.4116H53.5159" stroke="#DDDDDD" stroke-width="0.191361" stroke-miterlimit="10"/>
<path d="M7.58984 49.2109V52.4115" stroke="#DDDDDD" stroke-width="0.191361" stroke-miterlimit="10"/>
<path d="M9.18799 49.2119V52.4125" stroke="#DDDDDD" stroke-width="0.191361" stroke-miterlimit="10"/>
<path d="M10.7891 49.2119V52.4125" stroke="#DDDDDD" stroke-width="0.191361" stroke-miterlimit="10"/>
<path d="M12.3901 49.2119V52.4125" stroke="#DDDDDD" stroke-width="0.191361" stroke-miterlimit="10"/>
<path d="M13.9907 49.2119V52.4125" stroke="#DDDDDD" stroke-width="0.191361" stroke-miterlimit="10"/>
<path d="M15.5898 49.2119V52.4125" stroke="#DDDDDD" stroke-width="0.191361" stroke-miterlimit="10"/>
<path d="M17.1909 49.2119V52.4125" stroke="#DDDDDD" stroke-width="0.191361" stroke-miterlimit="10"/>
<path d="M18.7896 49.2119V52.4125" stroke="#DDDDDD" stroke-width="0.191361" stroke-miterlimit="10"/>
<path d="M20.3926 49.2119V52.4125" stroke="#DDDDDD" stroke-width="0.191361" stroke-miterlimit="10"/>
<path d="M21.9917 49.2119V52.4125" stroke="#DDDDDD" stroke-width="0.191361" stroke-miterlimit="10"/>
<path d="M23.5923 49.2119V52.4125" stroke="#DDDDDD" stroke-width="0.191361" stroke-miterlimit="10"/>
<path d="M25.1914 49.2119V52.4125" stroke="#DDDDDD" stroke-width="0.191361" stroke-miterlimit="10"/>
<path d="M26.7905 49.2119V52.4125" stroke="#DDDDDD" stroke-width="0.191361" stroke-miterlimit="10"/>
<path d="M28.3931 49.2119V52.4125" stroke="#DDDDDD" stroke-width="0.191361" stroke-miterlimit="10"/>
<path d="M29.9922 49.2119V52.4125" stroke="#DDDDDD" stroke-width="0.191361" stroke-miterlimit="10"/>
<path d="M31.5933 49.2119V52.4125" stroke="#DDDDDD" stroke-width="0.191361" stroke-miterlimit="10"/>
<path d="M33.1919 49.2119V52.4125" stroke="#DDDDDD" stroke-width="0.191361" stroke-miterlimit="10"/>
<path d="M34.793 49.2119V52.4125" stroke="#DDDDDD" stroke-width="0.191361" stroke-miterlimit="10"/>
<path d="M36.394 49.2119V52.4125" stroke="#DDDDDD" stroke-width="0.191361" stroke-miterlimit="10"/>
<path d="M37.9951 49.2119V52.4125" stroke="#DDDDDD" stroke-width="0.191361" stroke-miterlimit="10"/>
<path d="M39.5938 49.2119V52.4125" stroke="#DDDDDD" stroke-width="0.191361" stroke-miterlimit="10"/>
<path d="M41.1948 49.2119V52.4125" stroke="#DDDDDD" stroke-width="0.191361" stroke-miterlimit="10"/>
<path d="M42.7935 49.2119V52.4125" stroke="#DDDDDD" stroke-width="0.191361" stroke-miterlimit="10"/>
<path d="M44.3965 49.2119V52.4125" stroke="#DDDDDD" stroke-width="0.191361" stroke-miterlimit="10"/>
<path d="M45.9956 49.2119V52.4125" stroke="#DDDDDD" stroke-width="0.191361" stroke-miterlimit="10"/>
<path d="M47.5967 49.2119V52.4125" stroke="#DDDDDD" stroke-width="0.191361" stroke-miterlimit="10"/>
<path d="M49.1953 49.2119V52.4125" stroke="#DDDDDD" stroke-width="0.191361" stroke-miterlimit="10"/>
<path d="M50.7964 49.2119V52.4125" stroke="#DDDDDD" stroke-width="0.191361" stroke-miterlimit="10"/>
<path d="M52.3975 49.2119V52.4125" stroke="#DDDDDD" stroke-width="0.191361" stroke-miterlimit="10"/>
<path d="M8.55176 54.0098H55.5198" stroke="#DDDDDD" stroke-width="0.191361" stroke-miterlimit="10"/>
<path d="M8.55273 57.2104H55.5208" stroke="#DDDDDD" stroke-width="0.191361" stroke-miterlimit="10"/>
<path d="M9.59424 54.0095V57.2101" stroke="#DDDDDD" stroke-width="0.191361" stroke-miterlimit="10"/>
<path d="M11.1929 54.0095V57.2101" stroke="#DDDDDD" stroke-width="0.191361" stroke-miterlimit="10"/>
<path d="M12.7939 54.0095V57.2101" stroke="#DDDDDD" stroke-width="0.191361" stroke-miterlimit="10"/>
<path d="M14.3945 54.0095V57.2101" stroke="#DDDDDD" stroke-width="0.191361" stroke-miterlimit="10"/>
<path d="M15.9956 54.0095V57.2101" stroke="#DDDDDD" stroke-width="0.191361" stroke-miterlimit="10"/>
<path d="M17.5947 54.0095V57.2101" stroke="#DDDDDD" stroke-width="0.191361" stroke-miterlimit="10"/>
<path d="M19.1953 54.0095V57.2101" stroke="#DDDDDD" stroke-width="0.191361" stroke-miterlimit="10"/>
<path d="M20.7944 54.0095V57.2101" stroke="#DDDDDD" stroke-width="0.191361" stroke-miterlimit="10"/>
<path d="M22.3975 54.0095V57.2101" stroke="#DDDDDD" stroke-width="0.191361" stroke-miterlimit="10"/>
<path d="M23.9961 54.0095V57.2101" stroke="#DDDDDD" stroke-width="0.191361" stroke-miterlimit="10"/>
<path d="M25.5972 54.0095V57.2101" stroke="#DDDDDD" stroke-width="0.191361" stroke-miterlimit="10"/>
<path d="M27.1963 54.0095V57.2101" stroke="#DDDDDD" stroke-width="0.191361" stroke-miterlimit="10"/>
<path d="M28.7969 54.0095V57.2101" stroke="#DDDDDD" stroke-width="0.191361" stroke-miterlimit="10"/>
<path d="M30.3979 54.0095V57.2101" stroke="#DDDDDD" stroke-width="0.191361" stroke-miterlimit="10"/>
<path d="M31.999 54.0095V57.2101" stroke="#DDDDDD" stroke-width="0.191361" stroke-miterlimit="10"/>
<path d="M33.5977 54.0095V57.2101" stroke="#DDDDDD" stroke-width="0.191361" stroke-miterlimit="10"/>
<path d="M35.1987 54.0095V57.2101" stroke="#DDDDDD" stroke-width="0.191361" stroke-miterlimit="10"/>
<path d="M36.7979 54.0095V57.2101" stroke="#DDDDDD" stroke-width="0.191361" stroke-miterlimit="10"/>
<path d="M38.4009 54.0095V57.2101" stroke="#DDDDDD" stroke-width="0.191361" stroke-miterlimit="10"/>
<path d="M39.9995 54.0095V57.2101" stroke="#DDDDDD" stroke-width="0.191361" stroke-miterlimit="10"/>
<path d="M41.6006 54.0095V57.2101" stroke="#DDDDDD" stroke-width="0.191361" stroke-miterlimit="10"/>
<path d="M43.1997 54.0095V57.2101" stroke="#DDDDDD" stroke-width="0.191361" stroke-miterlimit="10"/>
<path d="M44.8003 54.0095V57.2101" stroke="#DDDDDD" stroke-width="0.191361" stroke-miterlimit="10"/>
<path d="M46.3994 54.0095V57.2101" stroke="#DDDDDD" stroke-width="0.191361" stroke-miterlimit="10"/>
<path d="M48.0005 54.0095V57.2101" stroke="#DDDDDD" stroke-width="0.191361" stroke-miterlimit="10"/>
<path d="M49.6011 54.0095V57.2101" stroke="#DDDDDD" stroke-width="0.191361" stroke-miterlimit="10"/>
<path d="M51.2002 54.0095V57.2101" stroke="#DDDDDD" stroke-width="0.191361" stroke-miterlimit="10"/>
<path d="M52.8013 54.0095V57.2101" stroke="#DDDDDD" stroke-width="0.191361" stroke-miterlimit="10"/>
<path d="M54.3999 54.0095V57.2101" stroke="#DDDDDD" stroke-width="0.191361" stroke-miterlimit="10"/>
<path d="M6.54736 58.8105H53.5154" stroke="#DDDDDD" stroke-width="0.191361" stroke-miterlimit="10"/>
<path d="M6.54785 62.0112H53.5159" stroke="#DDDDDD" stroke-width="0.191361" stroke-miterlimit="10"/>
<path d="M7.58984 58.8105V62.0111" stroke="#DDDDDD" stroke-width="0.191361" stroke-miterlimit="10"/>
<path d="M9.18799 58.8105V62.0111" stroke="#DDDDDD" stroke-width="0.191361" stroke-miterlimit="10"/>
<path d="M10.7891 58.8105V62.0111" stroke="#DDDDDD" stroke-width="0.191361" stroke-miterlimit="10"/>
<path d="M12.3901 58.8105V62.0111" stroke="#DDDDDD" stroke-width="0.191361" stroke-miterlimit="10"/>
<path d="M13.9907 58.8105V62.0111" stroke="#DDDDDD" stroke-width="0.191361" stroke-miterlimit="10"/>
<path d="M15.5898 58.8105V62.0111" stroke="#DDDDDD" stroke-width="0.191361" stroke-miterlimit="10"/>
<path d="M17.1909 58.8105V62.0111" stroke="#DDDDDD" stroke-width="0.191361" stroke-miterlimit="10"/>
<path d="M18.7896 58.8105V62.0111" stroke="#DDDDDD" stroke-width="0.191361" stroke-miterlimit="10"/>
<path d="M20.3926 58.8105V62.0111" stroke="#DDDDDD" stroke-width="0.191361" stroke-miterlimit="10"/>
<path d="M21.9917 58.8105V62.0111" stroke="#DDDDDD" stroke-width="0.191361" stroke-miterlimit="10"/>
<path d="M23.5923 58.8105V62.0111" stroke="#DDDDDD" stroke-width="0.191361" stroke-miterlimit="10"/>
<path d="M25.1914 58.8105V62.0111" stroke="#DDDDDD" stroke-width="0.191361" stroke-miterlimit="10"/>
<path d="M26.7905 58.8105V62.0111" stroke="#DDDDDD" stroke-width="0.191361" stroke-miterlimit="10"/>
<path d="M28.3931 58.8105V62.0111" stroke="#DDDDDD" stroke-width="0.191361" stroke-miterlimit="10"/>
<path d="M29.9922 58.8105V62.0111" stroke="#DDDDDD" stroke-width="0.191361" stroke-miterlimit="10"/>
<path d="M31.5933 58.8105V62.0111" stroke="#DDDDDD" stroke-width="0.191361" stroke-miterlimit="10"/>
<path d="M33.1919 58.8105V62.0111" stroke="#DDDDDD" stroke-width="0.191361" stroke-miterlimit="10"/>
<path d="M34.793 58.8105V62.0111" stroke="#DDDDDD" stroke-width="0.191361" stroke-miterlimit="10"/>
<path d="M36.394 58.8105V62.0111" stroke="#DDDDDD" stroke-width="0.191361" stroke-miterlimit="10"/>
<path d="M37.9951 58.8105V62.0111" stroke="#DDDDDD" stroke-width="0.191361" stroke-miterlimit="10"/>
<path d="M39.5938 58.8105V62.0111" stroke="#DDDDDD" stroke-width="0.191361" stroke-miterlimit="10"/>
<path d="M41.1948 58.8105V62.0111" stroke="#DDDDDD" stroke-width="0.191361" stroke-miterlimit="10"/>
<path d="M42.7935 58.8105V62.0111" stroke="#DDDDDD" stroke-width="0.191361" stroke-miterlimit="10"/>
<path d="M44.3965 58.8105V62.0111" stroke="#DDDDDD" stroke-width="0.191361" stroke-miterlimit="10"/>
<path d="M45.9956 58.8105V62.0111" stroke="#DDDDDD" stroke-width="0.191361" stroke-miterlimit="10"/>
<path d="M47.5967 58.8105V62.0111" stroke="#DDDDDD" stroke-width="0.191361" stroke-miterlimit="10"/>
<path d="M49.1953 58.8105V62.0111" stroke="#DDDDDD" stroke-width="0.191361" stroke-miterlimit="10"/>
<path d="M50.7964 58.8105V62.0111" stroke="#DDDDDD" stroke-width="0.191361" stroke-miterlimit="10"/>
<path d="M52.3975 58.8105V62.0111" stroke="#DDDDDD" stroke-width="0.191361" stroke-miterlimit="10"/>
<path d="M8.55371 63.6111H55.5218" stroke="#DDDDDD" stroke-width="0.191361" stroke-miterlimit="10"/>
<path d="M8.55371 66.811H55.5218" stroke="#DDDDDD" stroke-width="0.191361" stroke-miterlimit="10"/>
<path d="M9.59521 63.6101V66.8107" stroke="#DDDDDD" stroke-width="0.191361" stroke-miterlimit="10"/>
<path d="M11.1958 63.6111V66.8116" stroke="#DDDDDD" stroke-width="0.191361" stroke-miterlimit="10"/>
<path d="M12.7949 63.6111V66.8116" stroke="#DDDDDD" stroke-width="0.191361" stroke-miterlimit="10"/>
<path d="M14.3975 63.6111V66.8116" stroke="#DDDDDD" stroke-width="0.191361" stroke-miterlimit="10"/>
<path d="M15.9966 63.6111V66.8116" stroke="#DDDDDD" stroke-width="0.191361" stroke-miterlimit="10"/>
<path d="M17.5957 63.6111V66.8116" stroke="#DDDDDD" stroke-width="0.191361" stroke-miterlimit="10"/>
<path d="M19.1963 63.6111V66.8116" stroke="#DDDDDD" stroke-width="0.191361" stroke-miterlimit="10"/>
<path d="M20.7954 63.6111V66.8116" stroke="#DDDDDD" stroke-width="0.191361" stroke-miterlimit="10"/>
<path d="M22.3984 63.6111V66.8116" stroke="#DDDDDD" stroke-width="0.191361" stroke-miterlimit="10"/>
<path d="M23.9971 63.6111V66.8116" stroke="#DDDDDD" stroke-width="0.191361" stroke-miterlimit="10"/>
<path d="M25.5981 63.6111V66.8116" stroke="#DDDDDD" stroke-width="0.191361" stroke-miterlimit="10"/>
<path d="M27.1973 63.6111V66.8116" stroke="#DDDDDD" stroke-width="0.191361" stroke-miterlimit="10"/>
<path d="M28.7979 63.6111V66.8116" stroke="#DDDDDD" stroke-width="0.191361" stroke-miterlimit="10"/>
<path d="M30.3989 63.6111V66.8116" stroke="#DDDDDD" stroke-width="0.191361" stroke-miterlimit="10"/>
<path d="M32 63.6111V66.8116" stroke="#DDDDDD" stroke-width="0.191361" stroke-miterlimit="10"/>
<path d="M33.5986 63.6111V66.8116" stroke="#DDDDDD" stroke-width="0.191361" stroke-miterlimit="10"/>
<path d="M35.1997 63.6111V66.8116" stroke="#DDDDDD" stroke-width="0.191361" stroke-miterlimit="10"/>
<path d="M36.7988 63.6111V66.8116" stroke="#DDDDDD" stroke-width="0.191361" stroke-miterlimit="10"/>
<path d="M38.4019 63.6111V66.8116" stroke="#DDDDDD" stroke-width="0.191361" stroke-miterlimit="10"/>
<path d="M40.0005 63.6111V66.8116" stroke="#DDDDDD" stroke-width="0.191361" stroke-miterlimit="10"/>
<path d="M41.6016 63.6111V66.8116" stroke="#DDDDDD" stroke-width="0.191361" stroke-miterlimit="10"/>
<path d="M43.2007 63.6111V66.8116" stroke="#DDDDDD" stroke-width="0.191361" stroke-miterlimit="10"/>
<path d="M44.8013 63.6111V66.8116" stroke="#DDDDDD" stroke-width="0.191361" stroke-miterlimit="10"/>
<path d="M46.4004 63.6111V66.8116" stroke="#DDDDDD" stroke-width="0.191361" stroke-miterlimit="10"/>
<path d="M48.0034 63.6111V66.8116" stroke="#DDDDDD" stroke-width="0.191361" stroke-miterlimit="10"/>
<path d="M49.6021 63.6111V66.8116" stroke="#DDDDDD" stroke-width="0.191361" stroke-miterlimit="10"/>
<path d="M51.2031 63.6111V66.8116" stroke="#DDDDDD" stroke-width="0.191361" stroke-miterlimit="10"/>
<path d="M52.8022 63.6111V66.8116" stroke="#DDDDDD" stroke-width="0.191361" stroke-miterlimit="10"/>
<path d="M54.4009 63.6111V66.8116" stroke="#DDDDDD" stroke-width="0.191361" stroke-miterlimit="10"/>
<path d="M6.54736 68.4121H53.5154" stroke="#DDDDDD" stroke-width="0.191361" stroke-miterlimit="10"/>
<path d="M6.54785 71.613H53.5159" stroke="#DDDDDD" stroke-width="0.191361" stroke-miterlimit="10"/>
<path d="M7.58984 68.4121V71.6127" stroke="#DDDDDD" stroke-width="0.191361" stroke-miterlimit="10"/>
<path d="M9.18799 68.4121V71.6127" stroke="#DDDDDD" stroke-width="0.191361" stroke-miterlimit="10"/>
<path d="M10.7891 68.4121V71.6127" stroke="#DDDDDD" stroke-width="0.191361" stroke-miterlimit="10"/>
<path d="M12.3901 68.4121V71.6127" stroke="#DDDDDD" stroke-width="0.191361" stroke-miterlimit="10"/>
<path d="M13.9907 68.4121V71.6127" stroke="#DDDDDD" stroke-width="0.191361" stroke-miterlimit="10"/>
<path d="M15.5898 68.4121V71.6127" stroke="#DDDDDD" stroke-width="0.191361" stroke-miterlimit="10"/>
<path d="M17.1909 68.4121V71.6127" stroke="#DDDDDD" stroke-width="0.191361" stroke-miterlimit="10"/>
<path d="M18.7896 68.4121V71.6127" stroke="#DDDDDD" stroke-width="0.191361" stroke-miterlimit="10"/>
<path d="M20.3926 68.4121V71.6127" stroke="#DDDDDD" stroke-width="0.191361" stroke-miterlimit="10"/>
<path d="M21.9917 68.4121V71.6127" stroke="#DDDDDD" stroke-width="0.191361" stroke-miterlimit="10"/>
<path d="M23.5923 68.4121V71.6127" stroke="#DDDDDD" stroke-width="0.191361" stroke-miterlimit="10"/>
<path d="M25.1914 68.4121V71.6127" stroke="#DDDDDD" stroke-width="0.191361" stroke-miterlimit="10"/>
<path d="M26.7905 68.4121V71.6127" stroke="#DDDDDD" stroke-width="0.191361" stroke-miterlimit="10"/>
<path d="M28.3931 68.4121V71.6127" stroke="#DDDDDD" stroke-width="0.191361" stroke-miterlimit="10"/>
<path d="M29.9922 68.4121V71.6127" stroke="#DDDDDD" stroke-width="0.191361" stroke-miterlimit="10"/>
<path d="M31.5933 68.4121V71.6127" stroke="#DDDDDD" stroke-width="0.191361" stroke-miterlimit="10"/>
<path d="M33.1919 68.4121V71.6127" stroke="#DDDDDD" stroke-width="0.191361" stroke-miterlimit="10"/>
<path d="M34.793 68.4121V71.6127" stroke="#DDDDDD" stroke-width="0.191361" stroke-miterlimit="10"/>
<path d="M36.394 68.4121V71.6127" stroke="#DDDDDD" stroke-width="0.191361" stroke-miterlimit="10"/>
<path d="M37.9951 68.4121V71.6127" stroke="#DDDDDD" stroke-width="0.191361" stroke-miterlimit="10"/>
<path d="M39.5938 68.4121V71.6127" stroke="#DDDDDD" stroke-width="0.191361" stroke-miterlimit="10"/>
<path d="M41.1948 68.4121V71.6127" stroke="#DDDDDD" stroke-width="0.191361" stroke-miterlimit="10"/>
<path d="M42.7935 68.4121V71.6127" stroke="#DDDDDD" stroke-width="0.191361" stroke-miterlimit="10"/>
<path d="M44.3965 68.4121V71.6127" stroke="#DDDDDD" stroke-width="0.191361" stroke-miterlimit="10"/>
<path d="M45.9956 68.4121V71.6127" stroke="#DDDDDD" stroke-width="0.191361" stroke-miterlimit="10"/>
<path d="M47.5967 68.4121V71.6127" stroke="#DDDDDD" stroke-width="0.191361" stroke-miterlimit="10"/>
<path d="M49.1953 68.4121V71.6127" stroke="#DDDDDD" stroke-width="0.191361" stroke-miterlimit="10"/>
<path d="M50.7964 68.4121V71.6127" stroke="#DDDDDD" stroke-width="0.191361" stroke-miterlimit="10"/>
<path d="M52.3975 68.4121V71.6127" stroke="#DDDDDD" stroke-width="0.191361" stroke-miterlimit="10"/>
<path d="M55.7969 8.37629V6.51151C55.7969 5.71798 55.1573 5.04349 54.3179 5.04349H52.3191C53.1186 5.04349 53.7982 4.40867 53.7982 3.57547V1.86939C53.7982 1.07586 53.1586 0.401367 52.3191 0.401367H8.10747C7.30798 0.401367 6.62842 1.03619 6.62842 1.86939V3.73417C6.62842 4.5277 7.26801 5.20219 8.10747 5.20219H10.1062C9.3067 5.20219 8.62714 5.83701 8.62714 6.67021V8.535C8.62714 9.32852 9.26673 10.003 10.1062 10.003H8.10747C7.30798 10.003 6.62842 10.6378 6.62842 11.471V13.3358C6.62842 14.1293 7.26801 14.8038 8.10747 14.8038H10.1062C9.3067 14.8038 8.62714 15.4387 8.62714 16.2719V18.1366C8.62714 18.9302 9.26673 19.6047 10.1062 19.6047H8.10747C7.30798 19.6047 6.62842 20.2395 6.62842 21.0727V22.9375C6.62842 23.731 7.26801 24.4055 8.10747 24.4055H10.1062C9.3067 24.4055 8.62714 25.0403 8.62714 25.8735V27.7383C8.62714 28.5318 9.26673 29.2063 10.1062 29.2063H8.10747C7.30798 29.2063 6.62842 29.8411 6.62842 30.6743V32.5391C6.62842 33.3326 7.26801 34.0071 8.10747 34.0071H10.1062C9.3067 34.0071 8.62714 34.642 8.62714 35.4752V37.3399C8.62714 38.1335 9.26673 38.808 10.1062 38.808H8.10747C7.30798 38.808 6.62842 39.4428 6.62842 40.276V42.1408C6.62842 42.9343 7.26801 43.6088 8.10747 43.6088H10.1062C9.3067 43.6088 8.62714 44.2436 8.62714 45.0768V46.9416C8.62714 47.7351 9.26673 48.4096 10.1062 48.4096H8.10747C7.30798 48.4096 6.62842 49.0444 6.62842 49.8776V51.7424C6.62842 52.5359 7.26801 53.2104 8.10747 53.2104H10.1062C9.3067 53.2104 8.62714 53.8453 8.62714 54.6785V56.5433C8.62714 57.3368 9.26673 58.0113 10.1062 58.0113H8.10747C7.30798 58.0113 6.62842 58.6461 6.62842 59.4793V61.3441C6.62842 62.1376 7.26801 62.8121 8.10747 62.8121H10.1062C9.3067 62.8121 8.62714 63.4469 8.62714 64.2801V66.1449C8.62714 66.9384 9.26673 67.6129 10.1062 67.6129H8.10747C7.30798 67.6129 6.62842 68.2477 6.62842 69.0809V70.9457C6.62842 71.7393 7.26801 72.4137 8.10747 72.4137H52.3591C53.1586 72.4137 53.8382 71.7789 53.8382 70.9457V69.0809C53.8382 68.2874 53.1986 67.6129 52.3591 67.6129H54.3578C55.1573 67.6129 55.8369 66.9781 55.8369 66.1449V64.2801C55.8369 63.4866 55.1973 62.8121 54.3578 62.8121H52.3591C53.1586 62.8121 53.8382 62.1773 53.8382 61.3441V59.4793C53.8382 58.6858 53.1986 58.0113 52.3591 58.0113H54.3578C55.1573 58.0113 55.8369 57.3765 55.8369 56.5433V54.6785C55.8369 53.8849 55.1973 53.2104 54.3578 53.2104H52.3591C53.1586 53.2104 53.8382 52.5756 53.8382 51.7424V49.8776C53.8382 49.0841 53.1986 48.4096 52.3591 48.4096H54.3578C55.1573 48.4096 55.8369 47.7748 55.8369 46.9416V45.0768C55.8369 44.2833 55.1973 43.6088 54.3578 43.6088H52.3591C53.1586 43.6088 53.8382 42.974 53.8382 42.1408V40.276C53.8382 39.4825 53.1986 38.808 52.3591 38.808H54.3578C55.1573 38.808 55.8369 38.1731 55.8369 37.3399V35.4752C55.8369 34.6816 55.1973 34.0071 54.3578 34.0071H52.3591C53.1586 34.0071 53.8382 33.3723 53.8382 32.5391V30.6743C53.8382 29.8808 53.1986 29.2063 52.3591 29.2063H54.3578C55.1573 29.2063 55.8369 28.5715 55.8369 27.7383V25.8735C55.8369 25.08 55.1973 24.4055 54.3578 24.4055H52.3591C53.1586 24.4055 53.8382 23.7707 53.8382 22.9375V21.0727C53.8382 20.2792 53.1986 19.6047 52.3591 19.6047H54.3578C55.1573 19.6047 55.8369 18.9698 55.8369 18.1366V16.2719C55.8369 15.4783 55.1973 14.8038 54.3578 14.8038H52.3591C53.1586 14.8038 53.8382 14.169 53.8382 13.3358V11.471C53.8382 10.6775 53.1986 10.003 52.3591 10.003H54.3578C55.1573 9.84431 55.7969 9.20949 55.7969 8.37629Z" stroke="#808080" stroke-width="0.382721" stroke-miterlimit="10"/>
</g>
<path d="M42.5917 52.5628H45.1959L34.7421 71.8905H32.1626L42.5917 52.5628ZM27.2258 57.3145C27.2258 56.4752 27.4068 55.6771 27.7688 54.9201C28.1391 54.1631 28.6986 53.5831 29.4473 53.1799C30.2043 52.7685 31.0971 52.5628 32.1256 52.5628C33.6395 52.5628 34.8326 52.9948 35.7048 53.8587C36.577 54.7227 37.0131 55.8746 37.0131 57.3145C37.0131 58.7626 36.577 59.9187 35.7048 60.7826C34.8326 61.6466 33.6395 62.0785 32.1256 62.0785C31.0971 62.0785 30.2043 61.877 29.4473 61.4738C28.6986 61.0624 28.1391 60.4782 27.7688 59.7212C27.4068 58.9642 27.2258 58.162 27.2258 57.3145ZM30.6939 57.3392C30.6939 58.3595 30.8585 59.1 31.1876 59.5608C31.4015 59.8652 31.7142 60.0174 32.1256 60.0174C32.537 60.0174 32.8455 59.8652 33.0512 59.5608C33.3804 59.1 33.5449 58.3595 33.5449 57.3392C33.5449 56.3271 33.3804 55.5866 33.0512 55.1176C32.8455 54.8214 32.537 54.6733 32.1256 54.6733C31.7142 54.6733 31.4015 54.8214 31.1876 55.1176C30.8585 55.5784 30.6939 56.3189 30.6939 57.3392ZM40.2714 67.1018C40.2714 66.2543 40.4524 65.4562 40.8144 64.7074C41.1764 63.9504 41.736 63.3662 42.4929 62.9548C43.2499 62.5434 44.1386 62.3377 45.1588 62.3377C46.681 62.3377 47.8782 62.7738 48.7504 63.646C49.6226 64.5099 50.0586 65.6619 50.0586 67.1018C50.0586 68.5417 49.6226 69.6977 48.7504 70.5699C47.8782 71.4338 46.681 71.8658 45.1588 71.8658C44.1386 71.8658 43.2499 71.6601 42.4929 71.2487C41.736 70.8373 41.1764 70.2572 40.8144 69.5085C40.4524 68.7515 40.2714 67.9493 40.2714 67.1018ZM43.7395 67.1265C43.7395 68.1467 43.9041 68.8873 44.2332 69.348C44.4389 69.6442 44.7474 69.7923 45.1588 69.7923C45.5702 69.7923 45.8829 69.6442 46.0968 69.348C46.426 68.8873 46.5905 68.1467 46.5905 67.1265C46.5905 66.1062 46.426 65.3615 46.0968 64.8925C45.8829 64.5963 45.5702 64.4482 45.1588 64.4482C44.7474 64.4482 44.4389 64.6004 44.2332 64.9049C43.9041 65.3656 43.7395 66.1062 43.7395 67.1265Z" fill="#900583"/>
<path d="M1 71H73V90H6L1 71Z" fill="#900583"/>
<path d="M8.58555 84.0273V82.3691L12.6988 80.752L8.58555 79.1523V77.5059L14.4801 80.0547V81.4609L8.58555 84.0273ZM21.1548 85V83.2715H17.6392V81.8301L21.3658 76.375H22.7486V81.8242H23.815V83.2715H22.7486V85H21.1548ZM21.1548 81.8242V78.8887L19.1802 81.8242H21.1548ZM25.5381 80.3652C25.1123 80.1855 24.8018 79.9395 24.6065 79.627C24.4151 79.3105 24.3194 78.9648 24.3194 78.5898C24.3194 77.9492 24.542 77.4199 24.9873 77.002C25.4366 76.584 26.0733 76.375 26.8975 76.375C27.7139 76.375 28.3467 76.584 28.7959 77.002C29.2491 77.4199 29.4756 77.9492 29.4756 78.5898C29.4756 78.9883 29.3721 79.3438 29.1651 79.6562C28.958 79.9648 28.667 80.2012 28.292 80.3652C28.7686 80.5566 29.1299 80.8359 29.376 81.2031C29.626 81.5703 29.751 81.9941 29.751 82.4746C29.751 83.2676 29.4971 83.9121 28.9893 84.4082C28.4854 84.9043 27.8135 85.1523 26.9737 85.1523C26.1924 85.1523 25.542 84.9473 25.0225 84.5371C24.4092 84.0527 24.1026 83.3887 24.1026 82.5449C24.1026 82.0801 24.2178 81.6543 24.4483 81.2676C24.6787 80.877 25.042 80.5762 25.5381 80.3652ZM25.878 78.707C25.878 79.0352 25.9698 79.291 26.1534 79.4746C26.3409 79.6582 26.5889 79.75 26.8975 79.75C27.21 79.75 27.46 79.6582 27.6475 79.4746C27.835 79.2871 27.9287 79.0293 27.9287 78.7012C27.9287 78.3926 27.835 78.1465 27.6475 77.9629C27.4639 77.7754 27.2198 77.6816 26.9151 77.6816C26.5987 77.6816 26.3467 77.7754 26.1592 77.9629C25.9717 78.1504 25.878 78.3984 25.878 78.707ZM25.7256 82.3867C25.7256 82.8398 25.8409 83.1934 26.0713 83.4473C26.3057 83.7012 26.5967 83.8281 26.9444 83.8281C27.2842 83.8281 27.5655 83.707 27.7881 83.4648C28.0108 83.2188 28.1221 82.8652 28.1221 82.4043C28.1221 82.002 28.0088 81.6797 27.7823 81.4375C27.5557 81.1914 27.2686 81.0684 26.9209 81.0684C26.5186 81.0684 26.2178 81.207 26.0186 81.4844C25.8233 81.7617 25.7256 82.0625 25.7256 82.3867ZM33.1089 76.375C33.9409 76.375 34.5913 76.6719 35.0601 77.2656C35.6187 77.9688 35.898 79.1348 35.898 80.7637C35.898 82.3887 35.6167 83.5566 35.0542 84.2676C34.5894 84.8535 33.9409 85.1465 33.1089 85.1465C32.273 85.1465 31.5991 84.8262 31.0874 84.1855C30.5757 83.541 30.3198 82.3945 30.3198 80.7461C30.3198 79.1289 30.6011 77.9648 31.1636 77.2539C31.6284 76.668 32.2769 76.375 33.1089 76.375ZM33.1089 77.7402C32.9097 77.7402 32.732 77.8047 32.5757 77.9336C32.4195 78.0586 32.2984 78.2852 32.2124 78.6133C32.0991 79.0391 32.0425 79.7559 32.0425 80.7637C32.0425 81.7715 32.0933 82.4648 32.1948 82.8438C32.2964 83.2188 32.4234 83.4688 32.5757 83.5938C32.732 83.7188 32.9097 83.7812 33.1089 83.7812C33.3081 83.7812 33.4859 83.7188 33.6421 83.5938C33.7984 83.4648 33.9195 83.2363 34.0054 82.9082C34.1187 82.4863 34.1753 81.7715 34.1753 80.7637C34.1753 79.7559 34.1245 79.0645 34.023 78.6895C33.9214 78.3105 33.7925 78.0586 33.6362 77.9336C33.4839 77.8047 33.3081 77.7402 33.1089 77.7402ZM42.1684 76.375C43.0005 76.375 43.6509 76.6719 44.1196 77.2656C44.6782 77.9688 44.9575 79.1348 44.9575 80.7637C44.9575 82.3887 44.6763 83.5566 44.1138 84.2676C43.6489 84.8535 43.0005 85.1465 42.1684 85.1465C41.3325 85.1465 40.6587 84.8262 40.147 84.1855C39.6352 83.541 39.3794 82.3945 39.3794 80.7461C39.3794 79.1289 39.6606 77.9648 40.2231 77.2539C40.688 76.668 41.3364 76.375 42.1684 76.375ZM42.1684 77.7402C41.9692 77.7402 41.7915 77.8047 41.6352 77.9336C41.479 78.0586 41.3579 78.2852 41.272 78.6133C41.1587 79.0391 41.102 79.7559 41.102 80.7637C41.102 81.7715 41.1528 82.4648 41.2544 82.8438C41.3559 83.2188 41.4829 83.4688 41.6352 83.5938C41.7915 83.7188 41.9692 83.7812 42.1684 83.7812C42.3677 83.7812 42.5454 83.7188 42.7016 83.5938C42.8579 83.4648 42.979 83.2363 43.0649 82.9082C43.1782 82.4863 43.2348 81.7715 43.2348 80.7637C43.2348 79.7559 43.1841 79.0645 43.0825 78.6895C42.9809 78.3105 42.852 78.0586 42.6958 77.9336C42.5434 77.8047 42.3677 77.7402 42.1684 77.7402ZM48.3681 76.375C49.2002 76.375 49.8505 76.6719 50.3193 77.2656C50.8779 77.9688 51.1572 79.1348 51.1572 80.7637C51.1572 82.3887 50.8759 83.5566 50.3134 84.2676C49.8486 84.8535 49.2002 85.1465 48.3681 85.1465C47.5322 85.1465 46.8584 84.8262 46.3466 84.1855C45.8349 83.541 45.5791 82.3945 45.5791 80.7461C45.5791 79.1289 45.8603 77.9648 46.4228 77.2539C46.8877 76.668 47.5361 76.375 48.3681 76.375ZM48.3681 77.7402C48.1689 77.7402 47.9912 77.8047 47.8349 77.9336C47.6787 78.0586 47.5576 78.2852 47.4716 78.6133C47.3584 79.0391 47.3017 79.7559 47.3017 80.7637C47.3017 81.7715 47.3525 82.4648 47.4541 82.8438C47.5556 83.2188 47.6826 83.4688 47.8349 83.5938C47.9912 83.7188 48.1689 83.7812 48.3681 83.7812C48.5673 83.7812 48.7451 83.7188 48.9013 83.5938C49.0576 83.4648 49.1787 83.2363 49.2646 82.9082C49.3779 82.4863 49.4345 81.7715 49.4345 80.7637C49.4345 79.7559 49.3838 79.0645 49.2822 78.6895C49.1806 78.3105 49.0517 78.0586 48.8955 77.9336C48.7431 77.8047 48.5673 77.7402 48.3681 77.7402ZM54.5678 76.375C55.3998 76.375 56.0502 76.6719 56.519 77.2656C57.0776 77.9688 57.3569 79.1348 57.3569 80.7637C57.3569 82.3887 57.0756 83.5566 56.5131 84.2676C56.0483 84.8535 55.3998 85.1465 54.5678 85.1465C53.7319 85.1465 53.058 84.8262 52.5463 84.1855C52.0346 83.541 51.7787 82.3945 51.7787 80.7461C51.7787 79.1289 52.06 77.9648 52.6225 77.2539C53.0873 76.668 53.7358 76.375 54.5678 76.375ZM54.5678 77.7402C54.3686 77.7402 54.1909 77.8047 54.0346 77.9336C53.8784 78.0586 53.7573 78.2852 53.6713 78.6133C53.558 79.0391 53.5014 79.7559 53.5014 80.7637C53.5014 81.7715 53.5522 82.4648 53.6537 82.8438C53.7553 83.2188 53.8823 83.4688 54.0346 83.5938C54.1909 83.7188 54.3686 83.7812 54.5678 83.7812C54.767 83.7812 54.9448 83.7188 55.101 83.5938C55.2573 83.4648 55.3784 83.2363 55.4643 82.9082C55.5776 82.4863 55.6342 81.7715 55.6342 80.7637C55.6342 79.7559 55.5834 79.0645 55.4819 78.6895C55.3803 78.3105 55.2514 78.0586 55.0952 77.9336C54.9428 77.8047 54.767 77.7402 54.5678 77.7402ZM61.9184 81.676V82.468H60.5984V83.704H61.9184V85H63.6344V83.704H66.6824V82.468H63.6344V81.676H65.5304C66.4304 81.676 67.1384 81.436 67.6664 80.968C68.1944 80.5 68.4584 79.888 68.4584 79.132C68.4584 78.376 68.1944 77.776 67.6664 77.308C67.1384 76.84 66.4304 76.6 65.5304 76.6H61.9184V80.44H60.5984V81.676H61.9184ZM63.6344 78.112H65.3024C66.1784 78.112 66.7184 78.52 66.7184 79.276C66.7184 80.008 66.1784 80.44 65.3024 80.44H63.6344V78.112Z" fill="white"/>
<path d="M16.7623 73.6777V65.9271H0.998384V59.4639L17.7082 35.0035H23.9087V59.4376H28.6904V65.9271H23.9087V73.6777H16.7623ZM16.7623 59.4376V46.2747L7.90825 59.4376H16.7623Z" fill="#900583"/>
<path d="M37 97L30 90H73L37 97Z" fill="#710167"/>
<defs>
<clipPath id="clip0">
<rect width="50.4087" height="72.8125" fill="white" transform="translate(5.83203)"/>
</clipPath>
</defs>
</svg>
