<svg width="67" height="89" viewBox="0 0 67 89" fill="none" xmlns="http://www.w3.org/2000/svg">
<g clip-path="url(#clip0)">
<path d="M55.6381 8.44373V6.5634C55.6381 5.76327 54.998 5.08315 54.1579 5.08315H52.1576C52.9577 5.08315 53.6378 4.44304 53.6378 3.60289V1.8826C53.6378 1.08246 52.9977 0.402344 52.1576 0.402344H7.90994C7.1098 0.402344 6.42969 1.04245 6.42969 1.8826V3.76292C6.42969 4.56306 7.0698 5.24318 7.90994 5.24318H9.91029C9.11015 5.24318 8.43003 5.88329 8.43003 6.72343V8.60375C8.43003 9.40389 9.07014 10.084 9.91029 10.084H7.90994C7.1098 10.084 6.42969 10.7241 6.42969 11.5643V13.4446C6.42969 14.2447 7.0698 14.9248 7.90994 14.9248H9.91029C9.11015 14.9248 8.43003 15.565 8.43003 16.4051V18.2854C8.43003 19.0856 9.07014 19.7657 9.91029 19.7657H7.90994C7.1098 19.7657 6.42969 20.4058 6.42969 21.2459V23.1263C6.42969 23.9264 7.0698 24.6065 7.90994 24.6065H9.91029C9.11015 24.6065 8.43003 25.2466 8.43003 26.0868V27.9671C8.43003 28.7672 9.07014 29.4473 9.91029 29.4473H7.90994C7.1098 29.4473 6.42969 30.0875 6.42969 30.9276V32.8079C6.42969 33.6081 7.0698 34.2882 7.90994 34.2882H9.91029C9.11015 34.2882 8.43003 34.9283 8.43003 35.7684V37.6487C8.43003 38.4489 9.07014 39.129 9.91029 39.129H7.90994C7.1098 39.129 6.42969 39.7691 6.42969 40.6093V42.4896C6.42969 43.2897 7.0698 43.9698 7.90994 43.9698H9.91029C9.11015 43.9698 8.43003 44.6099 8.43003 45.4501V47.3304C8.43003 48.1306 9.07014 48.8107 9.91029 48.8107H7.90994C7.1098 48.8107 6.42969 49.4508 6.42969 50.2909V52.1712C6.42969 52.9714 7.0698 53.6515 7.90994 53.6515H9.91029C9.11015 53.6515 8.43003 54.2916 8.43003 55.1318V57.0121C8.43003 57.8122 9.07014 58.4923 9.91029 58.4923H7.90994C7.1098 58.4923 6.42969 59.1324 6.42969 59.9726V61.8529C6.42969 62.653 7.0698 63.3332 7.90994 63.3332H9.91029C9.11015 63.3332 8.43003 63.9733 8.43003 64.8134V66.6937C8.43003 67.4939 9.07014 68.174 9.91029 68.174H7.90994C7.1098 68.174 6.42969 68.8141 6.42969 69.6543V71.5346C6.42969 72.3347 7.0698 73.0148 7.90994 73.0148H52.1976C52.9977 73.0148 53.6778 72.3747 53.6778 71.5346V69.6543C53.6778 68.8541 53.0377 68.174 52.1976 68.174H54.1979C54.998 68.174 55.6782 67.5339 55.6782 66.6937V64.8134C55.6782 64.0133 55.038 63.3332 54.1979 63.3332H52.1976C52.9977 63.3332 53.6778 62.6931 53.6778 61.8529V59.9726C53.6778 59.1724 53.0377 58.4923 52.1976 58.4923H54.1979C54.998 58.4923 55.6782 57.8522 55.6782 57.0121V55.1318C55.6782 54.3316 55.038 53.6515 54.1979 53.6515H52.1976C52.9977 53.6515 53.6778 53.0114 53.6778 52.1712V50.2909C53.6778 49.4908 53.0377 48.8107 52.1976 48.8107H54.1979C54.998 48.8107 55.6782 48.1706 55.6782 47.3304V45.4501C55.6782 44.65 55.038 43.9698 54.1979 43.9698H52.1976C52.9977 43.9698 53.6778 43.3297 53.6778 42.4896V40.6093C53.6778 39.8091 53.0377 39.129 52.1976 39.129H54.1979C54.998 39.129 55.6782 38.4889 55.6782 37.6487V35.7684C55.6782 34.9683 55.038 34.2882 54.1979 34.2882H52.1976C52.9977 34.2882 53.6778 33.6481 53.6778 32.8079V30.9276C53.6778 30.1275 53.0377 29.4473 52.1976 29.4473H54.1979C54.998 29.4473 55.6782 28.8072 55.6782 27.9671V26.0868C55.6782 25.2866 55.038 24.6065 54.1979 24.6065H52.1976C52.9977 24.6065 53.6778 23.9664 53.6778 23.1263V21.2459C53.6778 20.4458 53.0377 19.7657 52.1976 19.7657H54.1979C54.998 19.7657 55.6782 19.1256 55.6782 18.2854V16.4051C55.6782 15.605 55.038 14.9248 54.1979 14.9248H52.1976C52.9977 14.9248 53.6778 14.2847 53.6778 13.4446V11.5643C53.6778 10.7641 53.0377 10.084 52.1976 10.084H54.1979C54.998 9.92398 55.6381 9.28387 55.6381 8.44373Z" fill="white"/>
<path d="M54.3181 10.004H10.1079C9.30845 10.004 8.62891 9.36913 8.62891 8.53593V6.67115C8.62891 5.87762 9.26847 5.20312 10.1079 5.20312H54.358C55.1575 5.20312 55.837 5.83795 55.837 6.67115V8.53593C55.7971 9.36913 55.1575 10.004 54.3181 10.004Z" stroke="#DDDDDD" stroke-width="0.382721" stroke-miterlimit="10"/>
<path d="M52.3181 5.20317H8.10791C7.30845 5.20317 6.62891 4.56306 6.62891 3.72291V1.8826C6.62891 1.08246 7.26847 0.402344 8.10791 0.402344H52.358C53.1575 0.402344 53.837 1.04245 53.837 1.8826V3.76292C53.7971 4.56306 53.1575 5.20317 52.3181 5.20317Z" stroke="#DDDDDD" stroke-width="0.382721" stroke-miterlimit="10"/>
<path d="M54.3181 29.2051H10.1079C9.30845 29.2051 8.62891 28.5703 8.62891 27.7371V25.8723C8.62891 25.0788 9.26847 24.4043 10.1079 24.4043H54.358C55.1575 24.4043 55.837 25.0391 55.837 25.8723V27.7371C55.7971 28.5703 55.1575 29.2051 54.3181 29.2051Z" stroke="#DDDDDD" stroke-width="0.382721" stroke-miterlimit="10"/>
<path d="M52.3181 24.4043H8.10791C7.30845 24.4043 6.62891 23.7695 6.62891 22.9363V21.0715C6.62891 20.278 7.26847 19.6035 8.10791 19.6035H52.358C53.1575 19.6035 53.837 20.2383 53.837 21.0715V22.9363C53.7971 23.7695 53.1575 24.4043 52.3181 24.4043Z" stroke="#DDDDDD" stroke-width="0.382721" stroke-miterlimit="10"/>
<path d="M54.3181 19.6036H10.1079C9.30845 19.6036 8.62891 18.9687 8.62891 18.1355V16.2708C8.62891 15.4772 9.26847 14.8027 10.1079 14.8027H54.358C55.1575 14.8027 55.837 15.4376 55.837 16.2708V18.1355C55.7971 18.9687 55.1575 19.6036 54.3181 19.6036Z" stroke="#DDDDDD" stroke-width="0.382721" stroke-miterlimit="10"/>
<path d="M52.3181 14.8047H8.10791C7.30845 14.8047 6.62891 14.1699 6.62891 13.3367V11.4719C6.62891 10.6784 7.26847 10.0039 8.10791 10.0039H52.358C53.1575 10.0039 53.837 10.6387 53.837 11.4719V13.3367C53.7971 14.1699 53.1575 14.8047 52.3181 14.8047Z" stroke="#DDDDDD" stroke-width="0.382721" stroke-miterlimit="10"/>
<path d="M54.3181 48.4102H10.1079C9.30845 48.4102 8.62891 47.7754 8.62891 46.9422V45.0774C8.62891 44.2839 9.26847 43.6094 10.1079 43.6094H54.358C55.1575 43.6094 55.837 44.2442 55.837 45.0774V46.9422C55.7971 47.7754 55.1575 48.4102 54.3181 48.4102Z" stroke="#DDDDDD" stroke-width="0.382721" stroke-miterlimit="10"/>
<path d="M52.3181 43.6094H8.10791C7.30845 43.6094 6.62891 42.9746 6.62891 42.1414V40.2766C6.62891 39.4831 7.26847 38.8086 8.10791 38.8086H52.358C53.1575 38.8086 53.837 39.4434 53.837 40.2766V42.1414C53.7971 42.9746 53.1575 43.6094 52.3181 43.6094Z" stroke="#DDDDDD" stroke-width="0.382721" stroke-miterlimit="10"/>
<path d="M54.3181 38.8086H10.1079C9.30845 38.8086 8.62891 38.1738 8.62891 37.3406V35.4758C8.62891 34.6823 9.26847 34.0078 10.1079 34.0078H54.358C55.1575 34.0078 55.837 34.6426 55.837 35.4758V37.3406C55.7971 38.1738 55.1575 38.8086 54.3181 38.8086Z" stroke="#DDDDDD" stroke-width="0.382721" stroke-miterlimit="10"/>
<path d="M52.3181 34.0079H8.10791C7.30845 34.0079 6.62891 33.373 6.62891 32.5398V30.6751C6.62891 29.8815 7.26847 29.207 8.10791 29.207H52.358C53.1575 29.207 53.837 29.8419 53.837 30.6751V32.5398C53.7971 33.373 53.1575 34.0079 52.3181 34.0079Z" stroke="#DDDDDD" stroke-width="0.382721" stroke-miterlimit="10"/>
<path d="M54.3181 58.0098H10.1079C9.30845 58.0098 8.62891 57.375 8.62891 56.5418V54.677C8.62891 53.8835 9.26847 53.209 10.1079 53.209H54.358C55.1575 53.209 55.837 53.8438 55.837 54.677V56.5418C55.7971 57.375 55.1575 58.0098 54.3181 58.0098Z" stroke="#DDDDDD" stroke-width="0.382721" stroke-miterlimit="10"/>
<path d="M52.3181 53.209H8.10791C7.30845 53.209 6.62891 52.5742 6.62891 51.741V49.8762C6.62891 49.0827 7.26847 48.4082 8.10791 48.4082H52.358C53.1575 48.4082 53.837 49.043 53.837 49.8762V51.741C53.7971 52.5742 53.1575 53.209 52.3181 53.209Z" stroke="#DDDDDD" stroke-width="0.382721" stroke-miterlimit="10"/>
<path d="M52.3181 72.4141H8.10791C7.30845 72.4141 6.62891 71.7793 6.62891 70.9461V69.0813C6.62891 68.2878 7.26847 67.6133 8.10791 67.6133H52.358C53.1575 67.6133 53.837 68.2481 53.837 69.0813V70.9461C53.7971 71.7793 53.1575 72.4141 52.3181 72.4141Z" stroke="#DDDDDD" stroke-width="0.382721" stroke-miterlimit="10"/>
<path d="M54.3181 67.6133H10.1079C9.30845 67.6133 8.62891 66.9785 8.62891 66.1453V64.2805C8.62891 63.487 9.26847 62.8125 10.1079 62.8125H54.358C55.1575 62.8125 55.837 63.4473 55.837 64.2805V66.1453C55.7971 66.9785 55.1575 67.6133 54.3181 67.6133Z" stroke="#DDDDDD" stroke-width="0.382721" stroke-miterlimit="10"/>
<path d="M52.3181 62.8125H8.10791C7.30845 62.8125 6.62891 62.1777 6.62891 61.3445V59.4797C6.62891 58.6862 7.26847 58.0117 8.10791 58.0117H52.358C53.1575 58.0117 53.837 58.6465 53.837 59.4797V61.3445C53.7971 62.1777 53.1575 62.8125 52.3181 62.8125Z" stroke="#DDDDDD" stroke-width="0.382721" stroke-miterlimit="10"/>
<path d="M6.54688 1.20117H53.5149" stroke="#DDDDDD" stroke-width="0.191361" stroke-miterlimit="10"/>
<path d="M6.54688 4.40234H53.5149" stroke="#DDDDDD" stroke-width="0.191361" stroke-miterlimit="10"/>
<path d="M7.58984 1.20117V4.40172" stroke="#DDDDDD" stroke-width="0.191361" stroke-miterlimit="10"/>
<path d="M9.1875 1.20117V4.40172" stroke="#DDDDDD" stroke-width="0.191361" stroke-miterlimit="10"/>
<path d="M10.7891 1.20117V4.40172" stroke="#DDDDDD" stroke-width="0.191361" stroke-miterlimit="10"/>
<path d="M12.3906 1.20117V4.40172" stroke="#DDDDDD" stroke-width="0.191361" stroke-miterlimit="10"/>
<path d="M13.9922 1.20117V4.40172" stroke="#DDDDDD" stroke-width="0.191361" stroke-miterlimit="10"/>
<path d="M15.5898 1.20117V4.40172" stroke="#DDDDDD" stroke-width="0.191361" stroke-miterlimit="10"/>
<path d="M17.1914 1.20117V4.40172" stroke="#DDDDDD" stroke-width="0.191361" stroke-miterlimit="10"/>
<path d="M18.7891 1.20117V4.40172" stroke="#DDDDDD" stroke-width="0.191361" stroke-miterlimit="10"/>
<path d="M20.3945 1.20117V4.40172" stroke="#DDDDDD" stroke-width="0.191361" stroke-miterlimit="10"/>
<path d="M21.9922 1.20117V4.40172" stroke="#DDDDDD" stroke-width="0.191361" stroke-miterlimit="10"/>
<path d="M23.5938 1.20117V4.40172" stroke="#DDDDDD" stroke-width="0.191361" stroke-miterlimit="10"/>
<path d="M25.1914 1.20117V4.40172" stroke="#DDDDDD" stroke-width="0.191361" stroke-miterlimit="10"/>
<path d="M26.7891 1.20117V4.40172" stroke="#DDDDDD" stroke-width="0.191361" stroke-miterlimit="10"/>
<path d="M28.3945 1.20117V4.40172" stroke="#DDDDDD" stroke-width="0.191361" stroke-miterlimit="10"/>
<path d="M29.9922 1.20117V4.40172" stroke="#DDDDDD" stroke-width="0.191361" stroke-miterlimit="10"/>
<path d="M31.5938 1.20117V4.40172" stroke="#DDDDDD" stroke-width="0.191361" stroke-miterlimit="10"/>
<path d="M33.1914 1.20117V4.40172" stroke="#DDDDDD" stroke-width="0.191361" stroke-miterlimit="10"/>
<path d="M34.793 1.20117V4.40172" stroke="#DDDDDD" stroke-width="0.191361" stroke-miterlimit="10"/>
<path d="M36.3945 1.20117V4.40172" stroke="#DDDDDD" stroke-width="0.191361" stroke-miterlimit="10"/>
<path d="M37.9961 1.20117V4.40172" stroke="#DDDDDD" stroke-width="0.191361" stroke-miterlimit="10"/>
<path d="M39.5938 1.20117V4.40172" stroke="#DDDDDD" stroke-width="0.191361" stroke-miterlimit="10"/>
<path d="M41.1953 1.20117V4.40172" stroke="#DDDDDD" stroke-width="0.191361" stroke-miterlimit="10"/>
<path d="M42.793 1.20117V4.40172" stroke="#DDDDDD" stroke-width="0.191361" stroke-miterlimit="10"/>
<path d="M44.3984 1.20117V4.40172" stroke="#DDDDDD" stroke-width="0.191361" stroke-miterlimit="10"/>
<path d="M45.9961 1.20117V4.40172" stroke="#DDDDDD" stroke-width="0.191361" stroke-miterlimit="10"/>
<path d="M47.5977 1.20117V4.40172" stroke="#DDDDDD" stroke-width="0.191361" stroke-miterlimit="10"/>
<path d="M49.1953 1.20117V4.40172" stroke="#DDDDDD" stroke-width="0.191361" stroke-miterlimit="10"/>
<path d="M50.7969 1.20117V4.40172" stroke="#DDDDDD" stroke-width="0.191361" stroke-miterlimit="10"/>
<path d="M52.3984 1.20117V4.40172" stroke="#DDDDDD" stroke-width="0.191361" stroke-miterlimit="10"/>
<path d="M8.55078 6H55.5189" stroke="#DDDDDD" stroke-width="0.191361" stroke-miterlimit="10"/>
<path d="M8.55078 9.20117H55.5189" stroke="#DDDDDD" stroke-width="0.191361" stroke-miterlimit="10"/>
<path d="M9.59375 6V9.20055" stroke="#DDDDDD" stroke-width="0.191361" stroke-miterlimit="10"/>
<path d="M11.1953 6V9.20055" stroke="#DDDDDD" stroke-width="0.191361" stroke-miterlimit="10"/>
<path d="M12.793 6V9.20055" stroke="#DDDDDD" stroke-width="0.191361" stroke-miterlimit="10"/>
<path d="M14.3945 6V9.20055" stroke="#DDDDDD" stroke-width="0.191361" stroke-miterlimit="10"/>
<path d="M15.9961 6V9.20055" stroke="#DDDDDD" stroke-width="0.191361" stroke-miterlimit="10"/>
<path d="M17.5938 6V9.20055" stroke="#DDDDDD" stroke-width="0.191361" stroke-miterlimit="10"/>
<path d="M19.1953 6V9.20055" stroke="#DDDDDD" stroke-width="0.191361" stroke-miterlimit="10"/>
<path d="M20.793 6V9.20055" stroke="#DDDDDD" stroke-width="0.191361" stroke-miterlimit="10"/>
<path d="M22.3984 6V9.20055" stroke="#DDDDDD" stroke-width="0.191361" stroke-miterlimit="10"/>
<path d="M23.9961 6V9.20055" stroke="#DDDDDD" stroke-width="0.191361" stroke-miterlimit="10"/>
<path d="M25.5977 6V9.20055" stroke="#DDDDDD" stroke-width="0.191361" stroke-miterlimit="10"/>
<path d="M27.1953 6V9.20055" stroke="#DDDDDD" stroke-width="0.191361" stroke-miterlimit="10"/>
<path d="M28.7969 6V9.20055" stroke="#DDDDDD" stroke-width="0.191361" stroke-miterlimit="10"/>
<path d="M30.3984 6V9.20055" stroke="#DDDDDD" stroke-width="0.191361" stroke-miterlimit="10"/>
<path d="M32 6V9.20055" stroke="#DDDDDD" stroke-width="0.191361" stroke-miterlimit="10"/>
<path d="M33.5977 6V9.20055" stroke="#DDDDDD" stroke-width="0.191361" stroke-miterlimit="10"/>
<path d="M35.1992 6V9.20055" stroke="#DDDDDD" stroke-width="0.191361" stroke-miterlimit="10"/>
<path d="M36.7969 6V9.20055" stroke="#DDDDDD" stroke-width="0.191361" stroke-miterlimit="10"/>
<path d="M38.3984 6V9.20055" stroke="#DDDDDD" stroke-width="0.191361" stroke-miterlimit="10"/>
<path d="M40 6V9.20055" stroke="#DDDDDD" stroke-width="0.191361" stroke-miterlimit="10"/>
<path d="M41.6016 6V9.20055" stroke="#DDDDDD" stroke-width="0.191361" stroke-miterlimit="10"/>
<path d="M43.1992 6V9.20055" stroke="#DDDDDD" stroke-width="0.191361" stroke-miterlimit="10"/>
<path d="M44.8008 6V9.20055" stroke="#DDDDDD" stroke-width="0.191361" stroke-miterlimit="10"/>
<path d="M46.3984 6V9.20055" stroke="#DDDDDD" stroke-width="0.191361" stroke-miterlimit="10"/>
<path d="M48 6V9.20055" stroke="#DDDDDD" stroke-width="0.191361" stroke-miterlimit="10"/>
<path d="M49.6016 6V9.20055" stroke="#DDDDDD" stroke-width="0.191361" stroke-miterlimit="10"/>
<path d="M51.2031 6V9.20055" stroke="#DDDDDD" stroke-width="0.191361" stroke-miterlimit="10"/>
<path d="M52.8008 6V9.20055" stroke="#DDDDDD" stroke-width="0.191361" stroke-miterlimit="10"/>
<path d="M54.3984 6V9.20055" stroke="#DDDDDD" stroke-width="0.191361" stroke-miterlimit="10"/>
<path d="M6.54688 10.8008H53.5149" stroke="#DDDDDD" stroke-width="0.191361" stroke-miterlimit="10"/>
<path d="M6.54688 14.002H53.5149" stroke="#DDDDDD" stroke-width="0.191361" stroke-miterlimit="10"/>
<path d="M7.58984 10.8008V14.0013" stroke="#DDDDDD" stroke-width="0.191361" stroke-miterlimit="10"/>
<path d="M9.1875 10.8008V14.0013" stroke="#DDDDDD" stroke-width="0.191361" stroke-miterlimit="10"/>
<path d="M10.7891 10.8008V14.0013" stroke="#DDDDDD" stroke-width="0.191361" stroke-miterlimit="10"/>
<path d="M12.3906 10.8008V14.0013" stroke="#DDDDDD" stroke-width="0.191361" stroke-miterlimit="10"/>
<path d="M13.9922 10.8008V14.0013" stroke="#DDDDDD" stroke-width="0.191361" stroke-miterlimit="10"/>
<path d="M15.5898 10.8008V14.0013" stroke="#DDDDDD" stroke-width="0.191361" stroke-miterlimit="10"/>
<path d="M17.1914 10.8008V14.0013" stroke="#DDDDDD" stroke-width="0.191361" stroke-miterlimit="10"/>
<path d="M18.7891 10.8008V14.0013" stroke="#DDDDDD" stroke-width="0.191361" stroke-miterlimit="10"/>
<path d="M20.3945 10.8008V14.0013" stroke="#DDDDDD" stroke-width="0.191361" stroke-miterlimit="10"/>
<path d="M21.9922 10.8008V14.0013" stroke="#DDDDDD" stroke-width="0.191361" stroke-miterlimit="10"/>
<path d="M23.5938 10.8008V14.0013" stroke="#DDDDDD" stroke-width="0.191361" stroke-miterlimit="10"/>
<path d="M25.1914 10.8008V14.0013" stroke="#DDDDDD" stroke-width="0.191361" stroke-miterlimit="10"/>
<path d="M26.7891 10.8008V14.0013" stroke="#DDDDDD" stroke-width="0.191361" stroke-miterlimit="10"/>
<path d="M28.3945 10.8008V14.0013" stroke="#DDDDDD" stroke-width="0.191361" stroke-miterlimit="10"/>
<path d="M29.9922 10.8008V14.0013" stroke="#DDDDDD" stroke-width="0.191361" stroke-miterlimit="10"/>
<path d="M31.5938 10.8008V14.0013" stroke="#DDDDDD" stroke-width="0.191361" stroke-miterlimit="10"/>
<path d="M33.1914 10.8008V14.0013" stroke="#DDDDDD" stroke-width="0.191361" stroke-miterlimit="10"/>
<path d="M34.793 10.8008V14.0013" stroke="#DDDDDD" stroke-width="0.191361" stroke-miterlimit="10"/>
<path d="M36.3945 10.8008V14.0013" stroke="#DDDDDD" stroke-width="0.191361" stroke-miterlimit="10"/>
<path d="M37.9961 10.8008V14.0013" stroke="#DDDDDD" stroke-width="0.191361" stroke-miterlimit="10"/>
<path d="M39.5938 10.8008V14.0013" stroke="#DDDDDD" stroke-width="0.191361" stroke-miterlimit="10"/>
<path d="M41.1953 10.8008V14.0013" stroke="#DDDDDD" stroke-width="0.191361" stroke-miterlimit="10"/>
<path d="M42.793 10.8008V14.0013" stroke="#DDDDDD" stroke-width="0.191361" stroke-miterlimit="10"/>
<path d="M44.3984 10.8008V14.0013" stroke="#DDDDDD" stroke-width="0.191361" stroke-miterlimit="10"/>
<path d="M45.9961 10.8008V14.0013" stroke="#DDDDDD" stroke-width="0.191361" stroke-miterlimit="10"/>
<path d="M47.5977 10.8008V14.0013" stroke="#DDDDDD" stroke-width="0.191361" stroke-miterlimit="10"/>
<path d="M49.1953 10.8008V14.0013" stroke="#DDDDDD" stroke-width="0.191361" stroke-miterlimit="10"/>
<path d="M50.7969 10.8008V14.0013" stroke="#DDDDDD" stroke-width="0.191361" stroke-miterlimit="10"/>
<path d="M52.3984 10.8008V14.0013" stroke="#DDDDDD" stroke-width="0.191361" stroke-miterlimit="10"/>
<path d="M8.55078 15.6016H55.5189" stroke="#DDDDDD" stroke-width="0.191361" stroke-miterlimit="10"/>
<path d="M8.55078 18.8027H55.5189" stroke="#DDDDDD" stroke-width="0.191361" stroke-miterlimit="10"/>
<path d="M9.59375 15.6016V18.8021" stroke="#DDDDDD" stroke-width="0.191361" stroke-miterlimit="10"/>
<path d="M11.1953 15.6016V18.8021" stroke="#DDDDDD" stroke-width="0.191361" stroke-miterlimit="10"/>
<path d="M12.793 15.6016V18.8021" stroke="#DDDDDD" stroke-width="0.191361" stroke-miterlimit="10"/>
<path d="M14.3945 15.6016V18.8021" stroke="#DDDDDD" stroke-width="0.191361" stroke-miterlimit="10"/>
<path d="M15.9961 15.6016V18.8021" stroke="#DDDDDD" stroke-width="0.191361" stroke-miterlimit="10"/>
<path d="M17.5938 15.6016V18.8021" stroke="#DDDDDD" stroke-width="0.191361" stroke-miterlimit="10"/>
<path d="M19.1953 15.6016V18.8021" stroke="#DDDDDD" stroke-width="0.191361" stroke-miterlimit="10"/>
<path d="M20.793 15.6016V18.8021" stroke="#DDDDDD" stroke-width="0.191361" stroke-miterlimit="10"/>
<path d="M22.3984 15.6016V18.8021" stroke="#DDDDDD" stroke-width="0.191361" stroke-miterlimit="10"/>
<path d="M23.9961 15.6016V18.8021" stroke="#DDDDDD" stroke-width="0.191361" stroke-miterlimit="10"/>
<path d="M25.5977 15.6016V18.8021" stroke="#DDDDDD" stroke-width="0.191361" stroke-miterlimit="10"/>
<path d="M27.1953 15.6016V18.8021" stroke="#DDDDDD" stroke-width="0.191361" stroke-miterlimit="10"/>
<path d="M28.7969 15.6016V18.8021" stroke="#DDDDDD" stroke-width="0.191361" stroke-miterlimit="10"/>
<path d="M30.3984 15.6016V18.8021" stroke="#DDDDDD" stroke-width="0.191361" stroke-miterlimit="10"/>
<path d="M32 15.6016V18.8021" stroke="#DDDDDD" stroke-width="0.191361" stroke-miterlimit="10"/>
<path d="M33.5977 15.6016V18.8021" stroke="#DDDDDD" stroke-width="0.191361" stroke-miterlimit="10"/>
<path d="M35.1992 15.6016V18.8021" stroke="#DDDDDD" stroke-width="0.191361" stroke-miterlimit="10"/>
<path d="M36.7969 15.6016V18.8021" stroke="#DDDDDD" stroke-width="0.191361" stroke-miterlimit="10"/>
<path d="M38.3984 15.6016V18.8021" stroke="#DDDDDD" stroke-width="0.191361" stroke-miterlimit="10"/>
<path d="M40 15.6016V18.8021" stroke="#DDDDDD" stroke-width="0.191361" stroke-miterlimit="10"/>
<path d="M41.6016 15.6016V18.8021" stroke="#DDDDDD" stroke-width="0.191361" stroke-miterlimit="10"/>
<path d="M43.1992 15.6016V18.8021" stroke="#DDDDDD" stroke-width="0.191361" stroke-miterlimit="10"/>
<path d="M44.8008 15.6016V18.8021" stroke="#DDDDDD" stroke-width="0.191361" stroke-miterlimit="10"/>
<path d="M46.3984 15.6016V18.8021" stroke="#DDDDDD" stroke-width="0.191361" stroke-miterlimit="10"/>
<path d="M48 15.6016V18.8021" stroke="#DDDDDD" stroke-width="0.191361" stroke-miterlimit="10"/>
<path d="M49.6016 15.6016V18.8021" stroke="#DDDDDD" stroke-width="0.191361" stroke-miterlimit="10"/>
<path d="M51.2031 15.6016V18.8021" stroke="#DDDDDD" stroke-width="0.191361" stroke-miterlimit="10"/>
<path d="M52.8008 15.6016V18.8021" stroke="#DDDDDD" stroke-width="0.191361" stroke-miterlimit="10"/>
<path d="M54.3984 15.6016V18.8021" stroke="#DDDDDD" stroke-width="0.191361" stroke-miterlimit="10"/>
<path d="M6.54688 20.4023H53.5149" stroke="#DDDDDD" stroke-width="0.191361" stroke-miterlimit="10"/>
<path d="M6.54688 23.6035H53.5149" stroke="#DDDDDD" stroke-width="0.191361" stroke-miterlimit="10"/>
<path d="M7.58984 20.4023V23.6029" stroke="#DDDDDD" stroke-width="0.191361" stroke-miterlimit="10"/>
<path d="M9.1875 20.4023V23.6029" stroke="#DDDDDD" stroke-width="0.191361" stroke-miterlimit="10"/>
<path d="M10.7891 20.4023V23.6029" stroke="#DDDDDD" stroke-width="0.191361" stroke-miterlimit="10"/>
<path d="M12.3906 20.4023V23.6029" stroke="#DDDDDD" stroke-width="0.191361" stroke-miterlimit="10"/>
<path d="M13.9922 20.4023V23.6029" stroke="#DDDDDD" stroke-width="0.191361" stroke-miterlimit="10"/>
<path d="M15.5898 20.4023V23.6029" stroke="#DDDDDD" stroke-width="0.191361" stroke-miterlimit="10"/>
<path d="M17.1914 20.4023V23.6029" stroke="#DDDDDD" stroke-width="0.191361" stroke-miterlimit="10"/>
<path d="M18.7891 20.4023V23.6029" stroke="#DDDDDD" stroke-width="0.191361" stroke-miterlimit="10"/>
<path d="M20.3945 20.4023V23.6029" stroke="#DDDDDD" stroke-width="0.191361" stroke-miterlimit="10"/>
<path d="M21.9922 20.4023V23.6029" stroke="#DDDDDD" stroke-width="0.191361" stroke-miterlimit="10"/>
<path d="M23.5938 20.4023V23.6029" stroke="#DDDDDD" stroke-width="0.191361" stroke-miterlimit="10"/>
<path d="M25.1914 20.4023V23.6029" stroke="#DDDDDD" stroke-width="0.191361" stroke-miterlimit="10"/>
<path d="M26.7891 20.4023V23.6029" stroke="#DDDDDD" stroke-width="0.191361" stroke-miterlimit="10"/>
<path d="M28.3945 20.4023V23.6029" stroke="#DDDDDD" stroke-width="0.191361" stroke-miterlimit="10"/>
<path d="M29.9922 20.4023V23.6029" stroke="#DDDDDD" stroke-width="0.191361" stroke-miterlimit="10"/>
<path d="M31.5938 20.4023V23.6029" stroke="#DDDDDD" stroke-width="0.191361" stroke-miterlimit="10"/>
<path d="M33.1914 20.4023V23.6029" stroke="#DDDDDD" stroke-width="0.191361" stroke-miterlimit="10"/>
<path d="M34.793 20.4023V23.6029" stroke="#DDDDDD" stroke-width="0.191361" stroke-miterlimit="10"/>
<path d="M36.3945 20.4023V23.6029" stroke="#DDDDDD" stroke-width="0.191361" stroke-miterlimit="10"/>
<path d="M37.9961 20.4023V23.6029" stroke="#DDDDDD" stroke-width="0.191361" stroke-miterlimit="10"/>
<path d="M39.5938 20.4023V23.6029" stroke="#DDDDDD" stroke-width="0.191361" stroke-miterlimit="10"/>
<path d="M41.1953 20.4023V23.6029" stroke="#DDDDDD" stroke-width="0.191361" stroke-miterlimit="10"/>
<path d="M42.793 20.4023V23.6029" stroke="#DDDDDD" stroke-width="0.191361" stroke-miterlimit="10"/>
<path d="M44.3984 20.4023V23.6029" stroke="#DDDDDD" stroke-width="0.191361" stroke-miterlimit="10"/>
<path d="M45.9961 20.4023V23.6029" stroke="#DDDDDD" stroke-width="0.191361" stroke-miterlimit="10"/>
<path d="M47.5977 20.4023V23.6029" stroke="#DDDDDD" stroke-width="0.191361" stroke-miterlimit="10"/>
<path d="M49.1953 20.4023V23.6029" stroke="#DDDDDD" stroke-width="0.191361" stroke-miterlimit="10"/>
<path d="M50.7969 20.4023V23.6029" stroke="#DDDDDD" stroke-width="0.191361" stroke-miterlimit="10"/>
<path d="M52.3984 20.4023V23.6029" stroke="#DDDDDD" stroke-width="0.191361" stroke-miterlimit="10"/>
<path d="M8.55078 25.2051H55.5189" stroke="#DDDDDD" stroke-width="0.191361" stroke-miterlimit="10"/>
<path d="M8.55078 28.4062H55.5189" stroke="#DDDDDD" stroke-width="0.191361" stroke-miterlimit="10"/>
<path d="M9.59375 25.2051V28.4056" stroke="#DDDDDD" stroke-width="0.191361" stroke-miterlimit="10"/>
<path d="M11.1914 25.2051V28.4056" stroke="#DDDDDD" stroke-width="0.191361" stroke-miterlimit="10"/>
<path d="M12.793 25.2051V28.4056" stroke="#DDDDDD" stroke-width="0.191361" stroke-miterlimit="10"/>
<path d="M14.3945 25.2051V28.4056" stroke="#DDDDDD" stroke-width="0.191361" stroke-miterlimit="10"/>
<path d="M15.9961 25.2051V28.4056" stroke="#DDDDDD" stroke-width="0.191361" stroke-miterlimit="10"/>
<path d="M17.5938 25.2051V28.4056" stroke="#DDDDDD" stroke-width="0.191361" stroke-miterlimit="10"/>
<path d="M19.1953 25.2051V28.4056" stroke="#DDDDDD" stroke-width="0.191361" stroke-miterlimit="10"/>
<path d="M20.793 25.2051V28.4056" stroke="#DDDDDD" stroke-width="0.191361" stroke-miterlimit="10"/>
<path d="M22.3984 25.2051V28.4056" stroke="#DDDDDD" stroke-width="0.191361" stroke-miterlimit="10"/>
<path d="M23.9961 25.2051V28.4056" stroke="#DDDDDD" stroke-width="0.191361" stroke-miterlimit="10"/>
<path d="M25.5977 25.2051V28.4056" stroke="#DDDDDD" stroke-width="0.191361" stroke-miterlimit="10"/>
<path d="M27.1953 25.2051V28.4056" stroke="#DDDDDD" stroke-width="0.191361" stroke-miterlimit="10"/>
<path d="M28.7969 25.2051V28.4056" stroke="#DDDDDD" stroke-width="0.191361" stroke-miterlimit="10"/>
<path d="M30.3984 25.2051V28.4056" stroke="#DDDDDD" stroke-width="0.191361" stroke-miterlimit="10"/>
<path d="M32 25.2051V28.4056" stroke="#DDDDDD" stroke-width="0.191361" stroke-miterlimit="10"/>
<path d="M33.5977 25.2051V28.4056" stroke="#DDDDDD" stroke-width="0.191361" stroke-miterlimit="10"/>
<path d="M35.1992 25.2051V28.4056" stroke="#DDDDDD" stroke-width="0.191361" stroke-miterlimit="10"/>
<path d="M36.7969 25.2051V28.4056" stroke="#DDDDDD" stroke-width="0.191361" stroke-miterlimit="10"/>
<path d="M38.3984 25.2051V28.4056" stroke="#DDDDDD" stroke-width="0.191361" stroke-miterlimit="10"/>
<path d="M40 25.2051V28.4056" stroke="#DDDDDD" stroke-width="0.191361" stroke-miterlimit="10"/>
<path d="M41.6016 25.2051V28.4056" stroke="#DDDDDD" stroke-width="0.191361" stroke-miterlimit="10"/>
<path d="M43.1992 25.2051V28.4056" stroke="#DDDDDD" stroke-width="0.191361" stroke-miterlimit="10"/>
<path d="M44.8008 25.2051V28.4056" stroke="#DDDDDD" stroke-width="0.191361" stroke-miterlimit="10"/>
<path d="M46.3984 25.2051V28.4056" stroke="#DDDDDD" stroke-width="0.191361" stroke-miterlimit="10"/>
<path d="M48 25.2051V28.4056" stroke="#DDDDDD" stroke-width="0.191361" stroke-miterlimit="10"/>
<path d="M49.6016 25.2051V28.4056" stroke="#DDDDDD" stroke-width="0.191361" stroke-miterlimit="10"/>
<path d="M51.1992 25.2051V28.4056" stroke="#DDDDDD" stroke-width="0.191361" stroke-miterlimit="10"/>
<path d="M52.8008 25.2051V28.4056" stroke="#DDDDDD" stroke-width="0.191361" stroke-miterlimit="10"/>
<path d="M54.3984 25.2051V28.4056" stroke="#DDDDDD" stroke-width="0.191361" stroke-miterlimit="10"/>
<path d="M6.54688 30.0039H53.5149" stroke="#DDDDDD" stroke-width="0.191361" stroke-miterlimit="10"/>
<path d="M6.54688 33.2051H53.5149" stroke="#DDDDDD" stroke-width="0.191361" stroke-miterlimit="10"/>
<path d="M7.58984 30.0039V33.2045" stroke="#DDDDDD" stroke-width="0.191361" stroke-miterlimit="10"/>
<path d="M9.1875 30.0039V33.2045" stroke="#DDDDDD" stroke-width="0.191361" stroke-miterlimit="10"/>
<path d="M10.7891 30.0039V33.2045" stroke="#DDDDDD" stroke-width="0.191361" stroke-miterlimit="10"/>
<path d="M12.3906 30.0039V33.2045" stroke="#DDDDDD" stroke-width="0.191361" stroke-miterlimit="10"/>
<path d="M13.9922 30.0039V33.2045" stroke="#DDDDDD" stroke-width="0.191361" stroke-miterlimit="10"/>
<path d="M15.5898 30.0039V33.2045" stroke="#DDDDDD" stroke-width="0.191361" stroke-miterlimit="10"/>
<path d="M17.1914 30.0039V33.2045" stroke="#DDDDDD" stroke-width="0.191361" stroke-miterlimit="10"/>
<path d="M18.7891 30.0039V33.2045" stroke="#DDDDDD" stroke-width="0.191361" stroke-miterlimit="10"/>
<path d="M20.3945 30.0039V33.2045" stroke="#DDDDDD" stroke-width="0.191361" stroke-miterlimit="10"/>
<path d="M21.9922 30.0039V33.2045" stroke="#DDDDDD" stroke-width="0.191361" stroke-miterlimit="10"/>
<path d="M23.5938 30.0039V33.2045" stroke="#DDDDDD" stroke-width="0.191361" stroke-miterlimit="10"/>
<path d="M25.1914 30.0039V33.2045" stroke="#DDDDDD" stroke-width="0.191361" stroke-miterlimit="10"/>
<path d="M26.7891 30.0039V33.2045" stroke="#DDDDDD" stroke-width="0.191361" stroke-miterlimit="10"/>
<path d="M28.3945 30.0039V33.2045" stroke="#DDDDDD" stroke-width="0.191361" stroke-miterlimit="10"/>
<path d="M29.9922 30.0039V33.2045" stroke="#DDDDDD" stroke-width="0.191361" stroke-miterlimit="10"/>
<path d="M31.5938 30.0039V33.2045" stroke="#DDDDDD" stroke-width="0.191361" stroke-miterlimit="10"/>
<path d="M33.1914 30.0039V33.2045" stroke="#DDDDDD" stroke-width="0.191361" stroke-miterlimit="10"/>
<path d="M34.793 30.0039V33.2045" stroke="#DDDDDD" stroke-width="0.191361" stroke-miterlimit="10"/>
<path d="M36.3945 30.0039V33.2045" stroke="#DDDDDD" stroke-width="0.191361" stroke-miterlimit="10"/>
<path d="M37.9961 30.0039V33.2045" stroke="#DDDDDD" stroke-width="0.191361" stroke-miterlimit="10"/>
<path d="M39.5938 30.0039V33.2045" stroke="#DDDDDD" stroke-width="0.191361" stroke-miterlimit="10"/>
<path d="M41.1953 30.0039V33.2045" stroke="#DDDDDD" stroke-width="0.191361" stroke-miterlimit="10"/>
<path d="M42.793 30.0039V33.2045" stroke="#DDDDDD" stroke-width="0.191361" stroke-miterlimit="10"/>
<path d="M44.3984 30.0039V33.2045" stroke="#DDDDDD" stroke-width="0.191361" stroke-miterlimit="10"/>
<path d="M45.9961 30.0039V33.2045" stroke="#DDDDDD" stroke-width="0.191361" stroke-miterlimit="10"/>
<path d="M47.5977 30.0039V33.2045" stroke="#DDDDDD" stroke-width="0.191361" stroke-miterlimit="10"/>
<path d="M49.1953 30.0039V33.2045" stroke="#DDDDDD" stroke-width="0.191361" stroke-miterlimit="10"/>
<path d="M50.7969 30.0039V33.2045" stroke="#DDDDDD" stroke-width="0.191361" stroke-miterlimit="10"/>
<path d="M52.3984 30.0039V33.2045" stroke="#DDDDDD" stroke-width="0.191361" stroke-miterlimit="10"/>
<path d="M8.55078 34.8066H55.5189" stroke="#DDDDDD" stroke-width="0.191361" stroke-miterlimit="10"/>
<path d="M8.55078 38.0078H55.5189" stroke="#DDDDDD" stroke-width="0.191361" stroke-miterlimit="10"/>
<path d="M9.59375 34.8066V38.0072" stroke="#DDDDDD" stroke-width="0.191361" stroke-miterlimit="10"/>
<path d="M11.1953 34.8066V38.0072" stroke="#DDDDDD" stroke-width="0.191361" stroke-miterlimit="10"/>
<path d="M12.793 34.8066V38.0072" stroke="#DDDDDD" stroke-width="0.191361" stroke-miterlimit="10"/>
<path d="M14.3945 34.8066V38.0072" stroke="#DDDDDD" stroke-width="0.191361" stroke-miterlimit="10"/>
<path d="M15.9961 34.8066V38.0072" stroke="#DDDDDD" stroke-width="0.191361" stroke-miterlimit="10"/>
<path d="M17.5938 34.8066V38.0072" stroke="#DDDDDD" stroke-width="0.191361" stroke-miterlimit="10"/>
<path d="M19.1953 34.8066V38.0072" stroke="#DDDDDD" stroke-width="0.191361" stroke-miterlimit="10"/>
<path d="M20.793 34.8066V38.0072" stroke="#DDDDDD" stroke-width="0.191361" stroke-miterlimit="10"/>
<path d="M22.3984 34.8066V38.0072" stroke="#DDDDDD" stroke-width="0.191361" stroke-miterlimit="10"/>
<path d="M23.9961 34.8066V38.0072" stroke="#DDDDDD" stroke-width="0.191361" stroke-miterlimit="10"/>
<path d="M25.5977 34.8066V38.0072" stroke="#DDDDDD" stroke-width="0.191361" stroke-miterlimit="10"/>
<path d="M27.1953 34.8066V38.0072" stroke="#DDDDDD" stroke-width="0.191361" stroke-miterlimit="10"/>
<path d="M28.7969 34.8066V38.0072" stroke="#DDDDDD" stroke-width="0.191361" stroke-miterlimit="10"/>
<path d="M30.3984 34.8066V38.0072" stroke="#DDDDDD" stroke-width="0.191361" stroke-miterlimit="10"/>
<path d="M32 34.8066V38.0072" stroke="#DDDDDD" stroke-width="0.191361" stroke-miterlimit="10"/>
<path d="M33.5977 34.8066V38.0072" stroke="#DDDDDD" stroke-width="0.191361" stroke-miterlimit="10"/>
<path d="M35.1992 34.8066V38.0072" stroke="#DDDDDD" stroke-width="0.191361" stroke-miterlimit="10"/>
<path d="M36.7969 34.8066V38.0072" stroke="#DDDDDD" stroke-width="0.191361" stroke-miterlimit="10"/>
<path d="M38.3984 34.8066V38.0072" stroke="#DDDDDD" stroke-width="0.191361" stroke-miterlimit="10"/>
<path d="M40 34.8066V38.0072" stroke="#DDDDDD" stroke-width="0.191361" stroke-miterlimit="10"/>
<path d="M41.6016 34.8066V38.0072" stroke="#DDDDDD" stroke-width="0.191361" stroke-miterlimit="10"/>
<path d="M43.1992 34.8066V38.0072" stroke="#DDDDDD" stroke-width="0.191361" stroke-miterlimit="10"/>
<path d="M44.8008 34.8066V38.0072" stroke="#DDDDDD" stroke-width="0.191361" stroke-miterlimit="10"/>
<path d="M46.3984 34.8066V38.0072" stroke="#DDDDDD" stroke-width="0.191361" stroke-miterlimit="10"/>
<path d="M48 34.8066V38.0072" stroke="#DDDDDD" stroke-width="0.191361" stroke-miterlimit="10"/>
<path d="M49.6016 34.8066V38.0072" stroke="#DDDDDD" stroke-width="0.191361" stroke-miterlimit="10"/>
<path d="M51.2031 34.8066V38.0072" stroke="#DDDDDD" stroke-width="0.191361" stroke-miterlimit="10"/>
<path d="M52.8008 34.8066V38.0072" stroke="#DDDDDD" stroke-width="0.191361" stroke-miterlimit="10"/>
<path d="M54.3984 34.8066V38.0072" stroke="#DDDDDD" stroke-width="0.191361" stroke-miterlimit="10"/>
<path d="M6.54688 39.6074H53.5149" stroke="#DDDDDD" stroke-width="0.191361" stroke-miterlimit="10"/>
<path d="M6.54688 42.8086H53.5149" stroke="#DDDDDD" stroke-width="0.191361" stroke-miterlimit="10"/>
<path d="M7.58984 39.6074V42.808" stroke="#DDDDDD" stroke-width="0.191361" stroke-miterlimit="10"/>
<path d="M9.1875 39.6074V42.808" stroke="#DDDDDD" stroke-width="0.191361" stroke-miterlimit="10"/>
<path d="M10.7891 39.6074V42.808" stroke="#DDDDDD" stroke-width="0.191361" stroke-miterlimit="10"/>
<path d="M12.3906 39.6074V42.808" stroke="#DDDDDD" stroke-width="0.191361" stroke-miterlimit="10"/>
<path d="M13.9922 39.6074V42.808" stroke="#DDDDDD" stroke-width="0.191361" stroke-miterlimit="10"/>
<path d="M15.5898 39.6074V42.808" stroke="#DDDDDD" stroke-width="0.191361" stroke-miterlimit="10"/>
<path d="M17.1914 39.6074V42.808" stroke="#DDDDDD" stroke-width="0.191361" stroke-miterlimit="10"/>
<path d="M18.7891 39.6074V42.808" stroke="#DDDDDD" stroke-width="0.191361" stroke-miterlimit="10"/>
<path d="M20.3945 39.6074V42.808" stroke="#DDDDDD" stroke-width="0.191361" stroke-miterlimit="10"/>
<path d="M21.9922 39.6074V42.808" stroke="#DDDDDD" stroke-width="0.191361" stroke-miterlimit="10"/>
<path d="M23.5938 39.6074V42.808" stroke="#DDDDDD" stroke-width="0.191361" stroke-miterlimit="10"/>
<path d="M25.1914 39.6074V42.808" stroke="#DDDDDD" stroke-width="0.191361" stroke-miterlimit="10"/>
<path d="M26.7891 39.6074V42.808" stroke="#DDDDDD" stroke-width="0.191361" stroke-miterlimit="10"/>
<path d="M28.3945 39.6074V42.808" stroke="#DDDDDD" stroke-width="0.191361" stroke-miterlimit="10"/>
<path d="M29.9922 39.6074V42.808" stroke="#DDDDDD" stroke-width="0.191361" stroke-miterlimit="10"/>
<path d="M31.5938 39.6074V42.808" stroke="#DDDDDD" stroke-width="0.191361" stroke-miterlimit="10"/>
<path d="M33.1914 39.6074V42.808" stroke="#DDDDDD" stroke-width="0.191361" stroke-miterlimit="10"/>
<path d="M34.793 39.6074V42.808" stroke="#DDDDDD" stroke-width="0.191361" stroke-miterlimit="10"/>
<path d="M36.3945 39.6074V42.808" stroke="#DDDDDD" stroke-width="0.191361" stroke-miterlimit="10"/>
<path d="M37.9961 39.6074V42.808" stroke="#DDDDDD" stroke-width="0.191361" stroke-miterlimit="10"/>
<path d="M39.5938 39.6074V42.808" stroke="#DDDDDD" stroke-width="0.191361" stroke-miterlimit="10"/>
<path d="M41.1953 39.6074V42.808" stroke="#DDDDDD" stroke-width="0.191361" stroke-miterlimit="10"/>
<path d="M42.793 39.6074V42.808" stroke="#DDDDDD" stroke-width="0.191361" stroke-miterlimit="10"/>
<path d="M44.3984 39.6074V42.808" stroke="#DDDDDD" stroke-width="0.191361" stroke-miterlimit="10"/>
<path d="M45.9961 39.6074V42.808" stroke="#DDDDDD" stroke-width="0.191361" stroke-miterlimit="10"/>
<path d="M47.5977 39.6074V42.808" stroke="#DDDDDD" stroke-width="0.191361" stroke-miterlimit="10"/>
<path d="M49.1953 39.6074V42.808" stroke="#DDDDDD" stroke-width="0.191361" stroke-miterlimit="10"/>
<path d="M50.7969 39.6074V42.808" stroke="#DDDDDD" stroke-width="0.191361" stroke-miterlimit="10"/>
<path d="M52.3984 39.6074V42.808" stroke="#DDDDDD" stroke-width="0.191361" stroke-miterlimit="10"/>
<path d="M8.55078 44.4082H55.5189" stroke="#DDDDDD" stroke-width="0.191361" stroke-miterlimit="10"/>
<path d="M8.55078 47.6094H55.5189" stroke="#DDDDDD" stroke-width="0.191361" stroke-miterlimit="10"/>
<path d="M9.59375 44.4082V47.6088" stroke="#DDDDDD" stroke-width="0.191361" stroke-miterlimit="10"/>
<path d="M11.1953 44.4082V47.6088" stroke="#DDDDDD" stroke-width="0.191361" stroke-miterlimit="10"/>
<path d="M12.793 44.4082V47.6088" stroke="#DDDDDD" stroke-width="0.191361" stroke-miterlimit="10"/>
<path d="M14.3945 44.4082V47.6088" stroke="#DDDDDD" stroke-width="0.191361" stroke-miterlimit="10"/>
<path d="M15.9961 44.4082V47.6088" stroke="#DDDDDD" stroke-width="0.191361" stroke-miterlimit="10"/>
<path d="M17.5938 44.4082V47.6088" stroke="#DDDDDD" stroke-width="0.191361" stroke-miterlimit="10"/>
<path d="M19.1953 44.4082V47.6088" stroke="#DDDDDD" stroke-width="0.191361" stroke-miterlimit="10"/>
<path d="M20.793 44.4082V47.6088" stroke="#DDDDDD" stroke-width="0.191361" stroke-miterlimit="10"/>
<path d="M22.3984 44.4082V47.6088" stroke="#DDDDDD" stroke-width="0.191361" stroke-miterlimit="10"/>
<path d="M23.9961 44.4082V47.6088" stroke="#DDDDDD" stroke-width="0.191361" stroke-miterlimit="10"/>
<path d="M25.5977 44.4082V47.6088" stroke="#DDDDDD" stroke-width="0.191361" stroke-miterlimit="10"/>
<path d="M27.1953 44.4082V47.6088" stroke="#DDDDDD" stroke-width="0.191361" stroke-miterlimit="10"/>
<path d="M28.7969 44.4082V47.6088" stroke="#DDDDDD" stroke-width="0.191361" stroke-miterlimit="10"/>
<path d="M30.3984 44.4082V47.6088" stroke="#DDDDDD" stroke-width="0.191361" stroke-miterlimit="10"/>
<path d="M32 44.4082V47.6088" stroke="#DDDDDD" stroke-width="0.191361" stroke-miterlimit="10"/>
<path d="M33.5977 44.4082V47.6088" stroke="#DDDDDD" stroke-width="0.191361" stroke-miterlimit="10"/>
<path d="M35.1992 44.4082V47.6088" stroke="#DDDDDD" stroke-width="0.191361" stroke-miterlimit="10"/>
<path d="M36.7969 44.4082V47.6088" stroke="#DDDDDD" stroke-width="0.191361" stroke-miterlimit="10"/>
<path d="M38.3984 44.4082V47.6088" stroke="#DDDDDD" stroke-width="0.191361" stroke-miterlimit="10"/>
<path d="M40 44.4082V47.6088" stroke="#DDDDDD" stroke-width="0.191361" stroke-miterlimit="10"/>
<path d="M41.6016 44.4082V47.6088" stroke="#DDDDDD" stroke-width="0.191361" stroke-miterlimit="10"/>
<path d="M43.1992 44.4082V47.6088" stroke="#DDDDDD" stroke-width="0.191361" stroke-miterlimit="10"/>
<path d="M44.8008 44.4082V47.6088" stroke="#DDDDDD" stroke-width="0.191361" stroke-miterlimit="10"/>
<path d="M46.3984 44.4082V47.6088" stroke="#DDDDDD" stroke-width="0.191361" stroke-miterlimit="10"/>
<path d="M48 44.4082V47.6088" stroke="#DDDDDD" stroke-width="0.191361" stroke-miterlimit="10"/>
<path d="M49.6016 44.4082V47.6088" stroke="#DDDDDD" stroke-width="0.191361" stroke-miterlimit="10"/>
<path d="M51.2031 44.4082V47.6088" stroke="#DDDDDD" stroke-width="0.191361" stroke-miterlimit="10"/>
<path d="M52.8008 44.4082V47.6088" stroke="#DDDDDD" stroke-width="0.191361" stroke-miterlimit="10"/>
<path d="M54.3984 44.4082V47.6088" stroke="#DDDDDD" stroke-width="0.191361" stroke-miterlimit="10"/>
<path d="M6.54688 49.209H53.5149" stroke="#DDDDDD" stroke-width="0.191361" stroke-miterlimit="10"/>
<path d="M6.54688 52.4102H53.5149" stroke="#DDDDDD" stroke-width="0.191361" stroke-miterlimit="10"/>
<path d="M7.58984 49.209V52.4095" stroke="#DDDDDD" stroke-width="0.191361" stroke-miterlimit="10"/>
<path d="M9.1875 49.209V52.4095" stroke="#DDDDDD" stroke-width="0.191361" stroke-miterlimit="10"/>
<path d="M10.7891 49.209V52.4095" stroke="#DDDDDD" stroke-width="0.191361" stroke-miterlimit="10"/>
<path d="M12.3906 49.209V52.4095" stroke="#DDDDDD" stroke-width="0.191361" stroke-miterlimit="10"/>
<path d="M13.9922 49.209V52.4095" stroke="#DDDDDD" stroke-width="0.191361" stroke-miterlimit="10"/>
<path d="M15.5898 49.209V52.4095" stroke="#DDDDDD" stroke-width="0.191361" stroke-miterlimit="10"/>
<path d="M17.1914 49.209V52.4095" stroke="#DDDDDD" stroke-width="0.191361" stroke-miterlimit="10"/>
<path d="M18.7891 49.209V52.4095" stroke="#DDDDDD" stroke-width="0.191361" stroke-miterlimit="10"/>
<path d="M20.3945 49.209V52.4095" stroke="#DDDDDD" stroke-width="0.191361" stroke-miterlimit="10"/>
<path d="M21.9922 49.209V52.4095" stroke="#DDDDDD" stroke-width="0.191361" stroke-miterlimit="10"/>
<path d="M23.5938 49.209V52.4095" stroke="#DDDDDD" stroke-width="0.191361" stroke-miterlimit="10"/>
<path d="M25.1914 49.209V52.4095" stroke="#DDDDDD" stroke-width="0.191361" stroke-miterlimit="10"/>
<path d="M26.7891 49.209V52.4095" stroke="#DDDDDD" stroke-width="0.191361" stroke-miterlimit="10"/>
<path d="M28.3945 49.209V52.4095" stroke="#DDDDDD" stroke-width="0.191361" stroke-miterlimit="10"/>
<path d="M29.9922 49.209V52.4095" stroke="#DDDDDD" stroke-width="0.191361" stroke-miterlimit="10"/>
<path d="M31.5938 49.209V52.4095" stroke="#DDDDDD" stroke-width="0.191361" stroke-miterlimit="10"/>
<path d="M33.1914 49.209V52.4095" stroke="#DDDDDD" stroke-width="0.191361" stroke-miterlimit="10"/>
<path d="M34.793 49.209V52.4095" stroke="#DDDDDD" stroke-width="0.191361" stroke-miterlimit="10"/>
<path d="M36.3945 49.209V52.4095" stroke="#DDDDDD" stroke-width="0.191361" stroke-miterlimit="10"/>
<path d="M37.9961 49.209V52.4095" stroke="#DDDDDD" stroke-width="0.191361" stroke-miterlimit="10"/>
<path d="M39.5938 49.209V52.4095" stroke="#DDDDDD" stroke-width="0.191361" stroke-miterlimit="10"/>
<path d="M41.1953 49.209V52.4095" stroke="#DDDDDD" stroke-width="0.191361" stroke-miterlimit="10"/>
<path d="M42.793 49.209V52.4095" stroke="#DDDDDD" stroke-width="0.191361" stroke-miterlimit="10"/>
<path d="M44.3984 49.209V52.4095" stroke="#DDDDDD" stroke-width="0.191361" stroke-miterlimit="10"/>
<path d="M45.9961 49.209V52.4095" stroke="#DDDDDD" stroke-width="0.191361" stroke-miterlimit="10"/>
<path d="M47.5977 49.209V52.4095" stroke="#DDDDDD" stroke-width="0.191361" stroke-miterlimit="10"/>
<path d="M49.1953 49.209V52.4095" stroke="#DDDDDD" stroke-width="0.191361" stroke-miterlimit="10"/>
<path d="M50.7969 49.209V52.4095" stroke="#DDDDDD" stroke-width="0.191361" stroke-miterlimit="10"/>
<path d="M52.3984 49.209V52.4095" stroke="#DDDDDD" stroke-width="0.191361" stroke-miterlimit="10"/>
<path d="M8.55078 54.0098H55.5189" stroke="#DDDDDD" stroke-width="0.191361" stroke-miterlimit="10"/>
<path d="M8.55078 57.2109H55.5189" stroke="#DDDDDD" stroke-width="0.191361" stroke-miterlimit="10"/>
<path d="M9.59375 54.0098V57.2103" stroke="#DDDDDD" stroke-width="0.191361" stroke-miterlimit="10"/>
<path d="M11.1914 54.0098V57.2103" stroke="#DDDDDD" stroke-width="0.191361" stroke-miterlimit="10"/>
<path d="M12.793 54.0098V57.2103" stroke="#DDDDDD" stroke-width="0.191361" stroke-miterlimit="10"/>
<path d="M14.3945 54.0098V57.2103" stroke="#DDDDDD" stroke-width="0.191361" stroke-miterlimit="10"/>
<path d="M15.9961 54.0098V57.2103" stroke="#DDDDDD" stroke-width="0.191361" stroke-miterlimit="10"/>
<path d="M17.5938 54.0098V57.2103" stroke="#DDDDDD" stroke-width="0.191361" stroke-miterlimit="10"/>
<path d="M19.1953 54.0098V57.2103" stroke="#DDDDDD" stroke-width="0.191361" stroke-miterlimit="10"/>
<path d="M20.793 54.0098V57.2103" stroke="#DDDDDD" stroke-width="0.191361" stroke-miterlimit="10"/>
<path d="M22.3984 54.0098V57.2103" stroke="#DDDDDD" stroke-width="0.191361" stroke-miterlimit="10"/>
<path d="M23.9961 54.0098V57.2103" stroke="#DDDDDD" stroke-width="0.191361" stroke-miterlimit="10"/>
<path d="M25.5977 54.0098V57.2103" stroke="#DDDDDD" stroke-width="0.191361" stroke-miterlimit="10"/>
<path d="M27.1953 54.0098V57.2103" stroke="#DDDDDD" stroke-width="0.191361" stroke-miterlimit="10"/>
<path d="M28.7969 54.0098V57.2103" stroke="#DDDDDD" stroke-width="0.191361" stroke-miterlimit="10"/>
<path d="M30.3984 54.0098V57.2103" stroke="#DDDDDD" stroke-width="0.191361" stroke-miterlimit="10"/>
<path d="M32 54.0098V57.2103" stroke="#DDDDDD" stroke-width="0.191361" stroke-miterlimit="10"/>
<path d="M33.5977 54.0098V57.2103" stroke="#DDDDDD" stroke-width="0.191361" stroke-miterlimit="10"/>
<path d="M35.1992 54.0098V57.2103" stroke="#DDDDDD" stroke-width="0.191361" stroke-miterlimit="10"/>
<path d="M36.7969 54.0098V57.2103" stroke="#DDDDDD" stroke-width="0.191361" stroke-miterlimit="10"/>
<path d="M38.3984 54.0098V57.2103" stroke="#DDDDDD" stroke-width="0.191361" stroke-miterlimit="10"/>
<path d="M40 54.0098V57.2103" stroke="#DDDDDD" stroke-width="0.191361" stroke-miterlimit="10"/>
<path d="M41.6016 54.0098V57.2103" stroke="#DDDDDD" stroke-width="0.191361" stroke-miterlimit="10"/>
<path d="M43.1992 54.0098V57.2103" stroke="#DDDDDD" stroke-width="0.191361" stroke-miterlimit="10"/>
<path d="M44.8008 54.0098V57.2103" stroke="#DDDDDD" stroke-width="0.191361" stroke-miterlimit="10"/>
<path d="M46.3984 54.0098V57.2103" stroke="#DDDDDD" stroke-width="0.191361" stroke-miterlimit="10"/>
<path d="M48 54.0098V57.2103" stroke="#DDDDDD" stroke-width="0.191361" stroke-miterlimit="10"/>
<path d="M49.6016 54.0098V57.2103" stroke="#DDDDDD" stroke-width="0.191361" stroke-miterlimit="10"/>
<path d="M51.1992 54.0098V57.2103" stroke="#DDDDDD" stroke-width="0.191361" stroke-miterlimit="10"/>
<path d="M52.8008 54.0098V57.2103" stroke="#DDDDDD" stroke-width="0.191361" stroke-miterlimit="10"/>
<path d="M54.3984 54.0098V57.2103" stroke="#DDDDDD" stroke-width="0.191361" stroke-miterlimit="10"/>
<path d="M6.54688 58.8105H53.5149" stroke="#DDDDDD" stroke-width="0.191361" stroke-miterlimit="10"/>
<path d="M6.54688 62.0117H53.5149" stroke="#DDDDDD" stroke-width="0.191361" stroke-miterlimit="10"/>
<path d="M7.58984 58.8105V62.0111" stroke="#DDDDDD" stroke-width="0.191361" stroke-miterlimit="10"/>
<path d="M9.1875 58.8105V62.0111" stroke="#DDDDDD" stroke-width="0.191361" stroke-miterlimit="10"/>
<path d="M10.7891 58.8105V62.0111" stroke="#DDDDDD" stroke-width="0.191361" stroke-miterlimit="10"/>
<path d="M12.3906 58.8105V62.0111" stroke="#DDDDDD" stroke-width="0.191361" stroke-miterlimit="10"/>
<path d="M13.9922 58.8105V62.0111" stroke="#DDDDDD" stroke-width="0.191361" stroke-miterlimit="10"/>
<path d="M15.5898 58.8105V62.0111" stroke="#DDDDDD" stroke-width="0.191361" stroke-miterlimit="10"/>
<path d="M17.1914 58.8105V62.0111" stroke="#DDDDDD" stroke-width="0.191361" stroke-miterlimit="10"/>
<path d="M18.7891 58.8105V62.0111" stroke="#DDDDDD" stroke-width="0.191361" stroke-miterlimit="10"/>
<path d="M20.3945 58.8105V62.0111" stroke="#DDDDDD" stroke-width="0.191361" stroke-miterlimit="10"/>
<path d="M21.9922 58.8105V62.0111" stroke="#DDDDDD" stroke-width="0.191361" stroke-miterlimit="10"/>
<path d="M23.5938 58.8105V62.0111" stroke="#DDDDDD" stroke-width="0.191361" stroke-miterlimit="10"/>
<path d="M25.1914 58.8105V62.0111" stroke="#DDDDDD" stroke-width="0.191361" stroke-miterlimit="10"/>
<path d="M26.7891 58.8105V62.0111" stroke="#DDDDDD" stroke-width="0.191361" stroke-miterlimit="10"/>
<path d="M28.3945 58.8105V62.0111" stroke="#DDDDDD" stroke-width="0.191361" stroke-miterlimit="10"/>
<path d="M29.9922 58.8105V62.0111" stroke="#DDDDDD" stroke-width="0.191361" stroke-miterlimit="10"/>
<path d="M31.5938 58.8105V62.0111" stroke="#DDDDDD" stroke-width="0.191361" stroke-miterlimit="10"/>
<path d="M33.1914 58.8105V62.0111" stroke="#DDDDDD" stroke-width="0.191361" stroke-miterlimit="10"/>
<path d="M34.793 58.8105V62.0111" stroke="#DDDDDD" stroke-width="0.191361" stroke-miterlimit="10"/>
<path d="M36.3945 58.8105V62.0111" stroke="#DDDDDD" stroke-width="0.191361" stroke-miterlimit="10"/>
<path d="M37.9961 58.8105V62.0111" stroke="#DDDDDD" stroke-width="0.191361" stroke-miterlimit="10"/>
<path d="M39.5938 58.8105V62.0111" stroke="#DDDDDD" stroke-width="0.191361" stroke-miterlimit="10"/>
<path d="M41.1953 58.8105V62.0111" stroke="#DDDDDD" stroke-width="0.191361" stroke-miterlimit="10"/>
<path d="M42.793 58.8105V62.0111" stroke="#DDDDDD" stroke-width="0.191361" stroke-miterlimit="10"/>
<path d="M44.3984 58.8105V62.0111" stroke="#DDDDDD" stroke-width="0.191361" stroke-miterlimit="10"/>
<path d="M45.9961 58.8105V62.0111" stroke="#DDDDDD" stroke-width="0.191361" stroke-miterlimit="10"/>
<path d="M47.5977 58.8105V62.0111" stroke="#DDDDDD" stroke-width="0.191361" stroke-miterlimit="10"/>
<path d="M49.1953 58.8105V62.0111" stroke="#DDDDDD" stroke-width="0.191361" stroke-miterlimit="10"/>
<path d="M50.7969 58.8105V62.0111" stroke="#DDDDDD" stroke-width="0.191361" stroke-miterlimit="10"/>
<path d="M52.3984 58.8105V62.0111" stroke="#DDDDDD" stroke-width="0.191361" stroke-miterlimit="10"/>
<path d="M8.55469 63.6113H55.5228" stroke="#DDDDDD" stroke-width="0.191361" stroke-miterlimit="10"/>
<path d="M8.55469 66.8105H55.5228" stroke="#DDDDDD" stroke-width="0.191361" stroke-miterlimit="10"/>
<path d="M9.59766 63.6094V66.8099" stroke="#DDDDDD" stroke-width="0.191361" stroke-miterlimit="10"/>
<path d="M11.1992 63.6094V66.8099" stroke="#DDDDDD" stroke-width="0.191361" stroke-miterlimit="10"/>
<path d="M12.7969 63.6094V66.8099" stroke="#DDDDDD" stroke-width="0.191361" stroke-miterlimit="10"/>
<path d="M14.3984 63.6094V66.8099" stroke="#DDDDDD" stroke-width="0.191361" stroke-miterlimit="10"/>
<path d="M16 63.6094V66.8099" stroke="#DDDDDD" stroke-width="0.191361" stroke-miterlimit="10"/>
<path d="M17.5977 63.6094V66.8099" stroke="#DDDDDD" stroke-width="0.191361" stroke-miterlimit="10"/>
<path d="M19.1992 63.6094V66.8099" stroke="#DDDDDD" stroke-width="0.191361" stroke-miterlimit="10"/>
<path d="M20.7969 63.6094V66.8099" stroke="#DDDDDD" stroke-width="0.191361" stroke-miterlimit="10"/>
<path d="M22.4023 63.6094V66.8099" stroke="#DDDDDD" stroke-width="0.191361" stroke-miterlimit="10"/>
<path d="M24 63.6094V66.8099" stroke="#DDDDDD" stroke-width="0.191361" stroke-miterlimit="10"/>
<path d="M25.6016 63.6094V66.8099" stroke="#DDDDDD" stroke-width="0.191361" stroke-miterlimit="10"/>
<path d="M27.1992 63.6094V66.8099" stroke="#DDDDDD" stroke-width="0.191361" stroke-miterlimit="10"/>
<path d="M28.8008 63.6094V66.8099" stroke="#DDDDDD" stroke-width="0.191361" stroke-miterlimit="10"/>
<path d="M30.4023 63.6094V66.8099" stroke="#DDDDDD" stroke-width="0.191361" stroke-miterlimit="10"/>
<path d="M32.0039 63.6094V66.8099" stroke="#DDDDDD" stroke-width="0.191361" stroke-miterlimit="10"/>
<path d="M33.6016 63.6094V66.8099" stroke="#DDDDDD" stroke-width="0.191361" stroke-miterlimit="10"/>
<path d="M35.2031 63.6094V66.8099" stroke="#DDDDDD" stroke-width="0.191361" stroke-miterlimit="10"/>
<path d="M36.8008 63.6094V66.8099" stroke="#DDDDDD" stroke-width="0.191361" stroke-miterlimit="10"/>
<path d="M38.4023 63.6094V66.8099" stroke="#DDDDDD" stroke-width="0.191361" stroke-miterlimit="10"/>
<path d="M40.0039 63.6094V66.8099" stroke="#DDDDDD" stroke-width="0.191361" stroke-miterlimit="10"/>
<path d="M41.6055 63.6094V66.8099" stroke="#DDDDDD" stroke-width="0.191361" stroke-miterlimit="10"/>
<path d="M43.2031 63.6094V66.8099" stroke="#DDDDDD" stroke-width="0.191361" stroke-miterlimit="10"/>
<path d="M44.8047 63.6094V66.8099" stroke="#DDDDDD" stroke-width="0.191361" stroke-miterlimit="10"/>
<path d="M46.4023 63.6094V66.8099" stroke="#DDDDDD" stroke-width="0.191361" stroke-miterlimit="10"/>
<path d="M48.0039 63.6094V66.8099" stroke="#DDDDDD" stroke-width="0.191361" stroke-miterlimit="10"/>
<path d="M49.6055 63.6094V66.8099" stroke="#DDDDDD" stroke-width="0.191361" stroke-miterlimit="10"/>
<path d="M51.207 63.6094V66.8099" stroke="#DDDDDD" stroke-width="0.191361" stroke-miterlimit="10"/>
<path d="M52.8047 63.6094V66.8099" stroke="#DDDDDD" stroke-width="0.191361" stroke-miterlimit="10"/>
<path d="M54.4023 63.6094V66.8099" stroke="#DDDDDD" stroke-width="0.191361" stroke-miterlimit="10"/>
<path d="M6.54688 68.4121H53.5149" stroke="#DDDDDD" stroke-width="0.191361" stroke-miterlimit="10"/>
<path d="M6.54688 71.6133H53.5149" stroke="#DDDDDD" stroke-width="0.191361" stroke-miterlimit="10"/>
<path d="M7.58984 68.4121V71.6127" stroke="#DDDDDD" stroke-width="0.191361" stroke-miterlimit="10"/>
<path d="M9.1875 68.4121V71.6127" stroke="#DDDDDD" stroke-width="0.191361" stroke-miterlimit="10"/>
<path d="M10.7891 68.4121V71.6127" stroke="#DDDDDD" stroke-width="0.191361" stroke-miterlimit="10"/>
<path d="M12.3906 68.4121V71.6127" stroke="#DDDDDD" stroke-width="0.191361" stroke-miterlimit="10"/>
<path d="M13.9922 68.4121V71.6127" stroke="#DDDDDD" stroke-width="0.191361" stroke-miterlimit="10"/>
<path d="M15.5898 68.4121V71.6127" stroke="#DDDDDD" stroke-width="0.191361" stroke-miterlimit="10"/>
<path d="M17.1914 68.4121V71.6127" stroke="#DDDDDD" stroke-width="0.191361" stroke-miterlimit="10"/>
<path d="M18.7891 68.4121V71.6127" stroke="#DDDDDD" stroke-width="0.191361" stroke-miterlimit="10"/>
<path d="M20.3945 68.4121V71.6127" stroke="#DDDDDD" stroke-width="0.191361" stroke-miterlimit="10"/>
<path d="M21.9922 68.4121V71.6127" stroke="#DDDDDD" stroke-width="0.191361" stroke-miterlimit="10"/>
<path d="M23.5938 68.4121V71.6127" stroke="#DDDDDD" stroke-width="0.191361" stroke-miterlimit="10"/>
<path d="M25.1914 68.4121V71.6127" stroke="#DDDDDD" stroke-width="0.191361" stroke-miterlimit="10"/>
<path d="M26.7891 68.4121V71.6127" stroke="#DDDDDD" stroke-width="0.191361" stroke-miterlimit="10"/>
<path d="M28.3945 68.4121V71.6127" stroke="#DDDDDD" stroke-width="0.191361" stroke-miterlimit="10"/>
<path d="M29.9922 68.4121V71.6127" stroke="#DDDDDD" stroke-width="0.191361" stroke-miterlimit="10"/>
<path d="M31.5938 68.4121V71.6127" stroke="#DDDDDD" stroke-width="0.191361" stroke-miterlimit="10"/>
<path d="M33.1914 68.4121V71.6127" stroke="#DDDDDD" stroke-width="0.191361" stroke-miterlimit="10"/>
<path d="M34.793 68.4121V71.6127" stroke="#DDDDDD" stroke-width="0.191361" stroke-miterlimit="10"/>
<path d="M36.3945 68.4121V71.6127" stroke="#DDDDDD" stroke-width="0.191361" stroke-miterlimit="10"/>
<path d="M37.9961 68.4121V71.6127" stroke="#DDDDDD" stroke-width="0.191361" stroke-miterlimit="10"/>
<path d="M39.5938 68.4121V71.6127" stroke="#DDDDDD" stroke-width="0.191361" stroke-miterlimit="10"/>
<path d="M41.1953 68.4121V71.6127" stroke="#DDDDDD" stroke-width="0.191361" stroke-miterlimit="10"/>
<path d="M42.793 68.4121V71.6127" stroke="#DDDDDD" stroke-width="0.191361" stroke-miterlimit="10"/>
<path d="M44.3984 68.4121V71.6127" stroke="#DDDDDD" stroke-width="0.191361" stroke-miterlimit="10"/>
<path d="M45.9961 68.4121V71.6127" stroke="#DDDDDD" stroke-width="0.191361" stroke-miterlimit="10"/>
<path d="M47.5977 68.4121V71.6127" stroke="#DDDDDD" stroke-width="0.191361" stroke-miterlimit="10"/>
<path d="M49.1953 68.4121V71.6127" stroke="#DDDDDD" stroke-width="0.191361" stroke-miterlimit="10"/>
<path d="M50.7969 68.4121V71.6127" stroke="#DDDDDD" stroke-width="0.191361" stroke-miterlimit="10"/>
<path d="M52.3984 68.4121V71.6127" stroke="#DDDDDD" stroke-width="0.191361" stroke-miterlimit="10"/>
<path d="M55.7974 8.37727V6.51249C55.7974 5.71896 55.1578 5.04446 54.3183 5.04446H52.3196C53.1191 5.04446 53.7987 4.40964 53.7987 3.57644V1.87036C53.7987 1.07684 53.1591 0.402344 52.3196 0.402344H8.10796C7.30847 0.402344 6.62891 1.03716 6.62891 1.87036V3.73515C6.62891 4.52867 7.2685 5.20317 8.10796 5.20317H10.1067C9.30719 5.20317 8.62763 5.83799 8.62763 6.67119V8.53597C8.62763 9.3295 9.26722 10.004 10.1067 10.004H8.10796C7.30847 10.004 6.62891 10.6388 6.62891 11.472V13.3368C6.62891 14.1303 7.2685 14.8048 8.10796 14.8048H10.1067C9.30719 14.8048 8.62763 15.4396 8.62763 16.2728V18.1376C8.62763 18.9311 9.26722 19.6056 10.1067 19.6056H8.10796C7.30847 19.6056 6.62891 20.2405 6.62891 21.0737V22.9384C6.62891 23.732 7.2685 24.4065 8.10796 24.4065H10.1067C9.30719 24.4065 8.62763 25.0413 8.62763 25.8745V27.7393C8.62763 28.5328 9.26722 29.2073 10.1067 29.2073H8.10796C7.30847 29.2073 6.62891 29.8421 6.62891 30.6753V32.5401C6.62891 33.3336 7.2685 34.0081 8.10796 34.0081H10.1067C9.30719 34.0081 8.62763 34.6429 8.62763 35.4761V37.3409C8.62763 38.1345 9.26722 38.8089 10.1067 38.8089H8.10796C7.30847 38.8089 6.62891 39.4438 6.62891 40.277V42.1418C6.62891 42.9353 7.2685 43.6098 8.10796 43.6098H10.1067C9.30719 43.6098 8.62763 44.2446 8.62763 45.0778V46.9426C8.62763 47.7361 9.26722 48.4106 10.1067 48.4106H8.10796C7.30847 48.4106 6.62891 49.0454 6.62891 49.8786V51.7434C6.62891 52.5369 7.2685 53.2114 8.10796 53.2114H10.1067C9.30719 53.2114 8.62763 53.8462 8.62763 54.6794V56.5442C8.62763 57.3378 9.26722 58.0122 10.1067 58.0122H8.10796C7.30847 58.0122 6.62891 58.6471 6.62891 59.4803V61.3451C6.62891 62.1386 7.2685 62.8131 8.10796 62.8131H10.1067C9.30719 62.8131 8.62763 63.4479 8.62763 64.2811V66.1459C8.62763 66.9394 9.26722 67.6139 10.1067 67.6139H8.10796C7.30847 67.6139 6.62891 68.2487 6.62891 69.0819V70.9467C6.62891 71.7402 7.2685 72.4147 8.10796 72.4147H52.3596C53.1591 72.4147 53.8386 71.7799 53.8386 70.9467V69.0819C53.8386 68.2884 53.1991 67.6139 52.3596 67.6139H54.3583C55.1578 67.6139 55.8374 66.9791 55.8374 66.1459V64.2811C55.8374 63.4876 55.1978 62.8131 54.3583 62.8131H52.3596C53.1591 62.8131 53.8386 62.1783 53.8386 61.3451V59.4803C53.8386 58.6867 53.1991 58.0122 52.3596 58.0122H54.3583C55.1578 58.0122 55.8374 57.3774 55.8374 56.5442V54.6794C55.8374 53.8859 55.1978 53.2114 54.3583 53.2114H52.3596C53.1591 53.2114 53.8386 52.5766 53.8386 51.7434V49.8786C53.8386 49.0851 53.1991 48.4106 52.3596 48.4106H54.3583C55.1578 48.4106 55.8374 47.7758 55.8374 46.9426V45.0778C55.8374 44.2843 55.1978 43.6098 54.3583 43.6098H52.3596C53.1591 43.6098 53.8386 42.975 53.8386 42.1418V40.277C53.8386 39.4834 53.1991 38.8089 52.3596 38.8089H54.3583C55.1578 38.8089 55.8374 38.1741 55.8374 37.3409V35.4761C55.8374 34.6826 55.1978 34.0081 54.3583 34.0081H52.3596C53.1591 34.0081 53.8386 33.3733 53.8386 32.5401V30.6753C53.8386 29.8818 53.1991 29.2073 52.3596 29.2073H54.3583C55.1578 29.2073 55.8374 28.5725 55.8374 27.7393V25.8745C55.8374 25.081 55.1978 24.4065 54.3583 24.4065H52.3596C53.1591 24.4065 53.8386 23.7717 53.8386 22.9384V21.0737C53.8386 20.2801 53.1991 19.6056 52.3596 19.6056H54.3583C55.1578 19.6056 55.8374 18.9708 55.8374 18.1376V16.2728C55.8374 15.4793 55.1978 14.8048 54.3583 14.8048H52.3596C53.1591 14.8048 53.8386 14.17 53.8386 13.3368V11.472C53.8386 10.6785 53.1991 10.004 52.3596 10.004H54.3583C55.1578 9.84529 55.7974 9.21047 55.7974 8.37727Z" stroke="#808080" stroke-width="0.382721" stroke-miterlimit="10"/>
</g>
<path d="M42.5917 52.5628H45.1959L34.7421 71.8905H32.1626L42.5917 52.5628ZM27.2258 57.3145C27.2258 56.4752 27.4068 55.6771 27.7688 54.9201C28.1391 54.1631 28.6986 53.5831 29.4473 53.1799C30.2043 52.7685 31.0971 52.5628 32.1256 52.5628C33.6395 52.5628 34.8326 52.9948 35.7048 53.8587C36.577 54.7227 37.0131 55.8746 37.0131 57.3145C37.0131 58.7626 36.577 59.9187 35.7048 60.7826C34.8326 61.6466 33.6395 62.0785 32.1256 62.0785C31.0971 62.0785 30.2043 61.877 29.4473 61.4738C28.6986 61.0624 28.1391 60.4782 27.7688 59.7212C27.4068 58.9642 27.2258 58.162 27.2258 57.3145ZM30.6939 57.3392C30.6939 58.3595 30.8585 59.1 31.1876 59.5608C31.4015 59.8652 31.7142 60.0174 32.1256 60.0174C32.537 60.0174 32.8455 59.8652 33.0512 59.5608C33.3804 59.1 33.5449 58.3595 33.5449 57.3392C33.5449 56.3271 33.3804 55.5866 33.0512 55.1176C32.8455 54.8214 32.537 54.6733 32.1256 54.6733C31.7142 54.6733 31.4015 54.8214 31.1876 55.1176C30.8585 55.5784 30.6939 56.3189 30.6939 57.3392ZM40.2714 67.1018C40.2714 66.2543 40.4524 65.4562 40.8144 64.7074C41.1764 63.9504 41.736 63.3662 42.4929 62.9548C43.2499 62.5434 44.1386 62.3377 45.1588 62.3377C46.681 62.3377 47.8782 62.7738 48.7504 63.646C49.6226 64.5099 50.0586 65.6619 50.0586 67.1018C50.0586 68.5417 49.6226 69.6977 48.7504 70.5699C47.8782 71.4338 46.681 71.8658 45.1588 71.8658C44.1386 71.8658 43.2499 71.6601 42.4929 71.2487C41.736 70.8373 41.1764 70.2572 40.8144 69.5085C40.4524 68.7515 40.2714 67.9493 40.2714 67.1018ZM43.7395 67.1265C43.7395 68.1467 43.9041 68.8873 44.2332 69.348C44.4389 69.6442 44.7474 69.7923 45.1588 69.7923C45.5702 69.7923 45.8829 69.6442 46.0968 69.348C46.426 68.8873 46.5905 68.1467 46.5905 67.1265C46.5905 66.1062 46.426 65.3615 46.0968 64.8925C45.8829 64.5963 45.5702 64.4482 45.1588 64.4482C44.7474 64.4482 44.4389 64.6004 44.2332 64.9049C43.9041 65.3656 43.7395 66.1062 43.7395 67.1265Z" fill="#A0A0A0"/>
<rect x="0.832031" y="71.1953" width="66" height="17" fill="#A0A0A0"/>
<path d="M6.90332 82.3848V81.0029L10.3311 79.6553L6.90332 78.3223V76.9502L11.8154 79.0742V80.2461L6.90332 82.3848ZM18.1777 83.1953V81.7549H15.248V80.5537L18.3535 76.0078H19.5059V80.5488H20.3945V81.7549H19.5059V83.1953H18.1777ZM18.1777 80.5488V78.1025L16.5322 80.5488H18.1777ZM22.2305 79.333C21.8757 79.1833 21.6169 78.9782 21.4541 78.7178C21.2946 78.4541 21.2148 78.166 21.2148 77.8535C21.2148 77.3197 21.4004 76.8786 21.7715 76.5303C22.1458 76.182 22.6764 76.0078 23.3633 76.0078C24.0436 76.0078 24.571 76.182 24.9453 76.5303C25.3229 76.8786 25.5117 77.3197 25.5117 77.8535C25.5117 78.1855 25.4255 78.4818 25.2529 78.7422C25.0804 78.9993 24.8379 79.1963 24.5254 79.333C24.9225 79.4925 25.2236 79.7253 25.4287 80.0312C25.637 80.3372 25.7412 80.6904 25.7412 81.0908C25.7412 81.7516 25.5296 82.2887 25.1064 82.7021C24.6865 83.1156 24.1266 83.3223 23.4268 83.3223C22.7757 83.3223 22.2337 83.1514 21.8008 82.8096C21.2897 82.4059 21.0342 81.8525 21.0342 81.1494C21.0342 80.762 21.1302 80.4072 21.3223 80.085C21.5143 79.7594 21.8171 79.5088 22.2305 79.333ZM22.5137 77.9512C22.5137 78.2246 22.5902 78.4378 22.7432 78.5908C22.8994 78.7438 23.1061 78.8203 23.3633 78.8203C23.6237 78.8203 23.832 78.7438 23.9883 78.5908C24.1445 78.4346 24.2227 78.2197 24.2227 77.9463C24.2227 77.6891 24.1445 77.484 23.9883 77.3311C23.8353 77.1748 23.6318 77.0967 23.3779 77.0967C23.1143 77.0967 22.9043 77.1748 22.748 77.3311C22.5918 77.4873 22.5137 77.694 22.5137 77.9512ZM22.3867 81.0176C22.3867 81.3952 22.4827 81.6898 22.6748 81.9014C22.8701 82.113 23.1126 82.2188 23.4023 82.2188C23.6855 82.2188 23.9199 82.1178 24.1055 81.916C24.291 81.7109 24.3838 81.4163 24.3838 81.0322C24.3838 80.6969 24.2894 80.4284 24.1006 80.2266C23.9118 80.0215 23.6725 79.9189 23.3828 79.9189C23.0475 79.9189 22.7969 80.0345 22.6309 80.2656C22.4681 80.4967 22.3867 80.7474 22.3867 81.0176ZM28.9395 76.0078C29.6328 76.0078 30.1748 76.2552 30.5654 76.75C31.0309 77.3359 31.2637 78.3076 31.2637 79.665C31.2637 81.0192 31.0293 81.9925 30.5605 82.585C30.1732 83.0732 29.6328 83.3174 28.9395 83.3174C28.2428 83.3174 27.6813 83.0505 27.2549 82.5166C26.8285 81.9795 26.6152 81.0241 26.6152 79.6504C26.6152 78.3027 26.8496 77.3327 27.3184 76.7402C27.7057 76.252 28.2461 76.0078 28.9395 76.0078ZM28.9395 77.1455C28.7734 77.1455 28.6253 77.1992 28.4951 77.3066C28.3649 77.4108 28.264 77.5996 28.1924 77.873C28.098 78.2279 28.0508 78.8252 28.0508 79.665C28.0508 80.5049 28.0931 81.0827 28.1777 81.3984C28.2624 81.7109 28.3682 81.9193 28.4951 82.0234C28.6253 82.1276 28.7734 82.1797 28.9395 82.1797C29.1055 82.1797 29.2536 82.1276 29.3838 82.0234C29.514 81.916 29.6149 81.7256 29.6865 81.4521C29.7809 81.1006 29.8281 80.5049 29.8281 79.665C29.8281 78.8252 29.7858 78.249 29.7012 77.9365C29.6165 77.6208 29.5091 77.4108 29.3789 77.3066C29.252 77.1992 29.1055 77.1455 28.9395 77.1455ZM37.2891 76.0078C37.9824 76.0078 38.5244 76.2552 38.915 76.75C39.3805 77.3359 39.6133 78.3076 39.6133 79.665C39.6133 81.0192 39.3789 81.9925 38.9102 82.585C38.5228 83.0732 37.9824 83.3174 37.2891 83.3174C36.5924 83.3174 36.0309 83.0505 35.6045 82.5166C35.1781 81.9795 34.9648 81.0241 34.9648 79.6504C34.9648 78.3027 35.1992 77.3327 35.668 76.7402C36.0553 76.252 36.5957 76.0078 37.2891 76.0078ZM37.2891 77.1455C37.123 77.1455 36.9749 77.1992 36.8447 77.3066C36.7145 77.4108 36.6136 77.5996 36.542 77.873C36.4476 78.2279 36.4004 78.8252 36.4004 79.665C36.4004 80.5049 36.4427 81.0827 36.5273 81.3984C36.612 81.7109 36.7178 81.9193 36.8447 82.0234C36.9749 82.1276 37.123 82.1797 37.2891 82.1797C37.4551 82.1797 37.6032 82.1276 37.7334 82.0234C37.8636 81.916 37.9645 81.7256 38.0361 81.4521C38.1305 81.1006 38.1777 80.5049 38.1777 79.665C38.1777 78.8252 38.1354 78.249 38.0508 77.9365C37.9661 77.6208 37.8587 77.4108 37.7285 77.3066C37.6016 77.1992 37.4551 77.1455 37.2891 77.1455ZM42.8555 76.0078C43.5488 76.0078 44.0908 76.2552 44.4814 76.75C44.9469 77.3359 45.1797 78.3076 45.1797 79.665C45.1797 81.0192 44.9453 81.9925 44.4766 82.585C44.0892 83.0732 43.5488 83.3174 42.8555 83.3174C42.1589 83.3174 41.5973 83.0505 41.1709 82.5166C40.7445 81.9795 40.5312 81.0241 40.5312 79.6504C40.5312 78.3027 40.7656 77.3327 41.2344 76.7402C41.6217 76.252 42.1621 76.0078 42.8555 76.0078ZM42.8555 77.1455C42.6895 77.1455 42.5413 77.1992 42.4111 77.3066C42.2809 77.4108 42.18 77.5996 42.1084 77.873C42.014 78.2279 41.9668 78.8252 41.9668 79.665C41.9668 80.5049 42.0091 81.0827 42.0938 81.3984C42.1784 81.7109 42.2842 81.9193 42.4111 82.0234C42.5413 82.1276 42.6895 82.1797 42.8555 82.1797C43.0215 82.1797 43.1696 82.1276 43.2998 82.0234C43.43 81.916 43.5309 81.7256 43.6025 81.4521C43.6969 81.1006 43.7441 80.5049 43.7441 79.665C43.7441 78.8252 43.7018 78.249 43.6172 77.9365C43.5326 77.6208 43.4251 77.4108 43.2949 77.3066C43.168 77.1992 43.0215 77.1455 42.8555 77.1455ZM48.4219 76.0078C49.1152 76.0078 49.6572 76.2552 50.0479 76.75C50.5133 77.3359 50.7461 78.3076 50.7461 79.665C50.7461 81.0192 50.5117 81.9925 50.043 82.585C49.6556 83.0732 49.1152 83.3174 48.4219 83.3174C47.7253 83.3174 47.1637 83.0505 46.7373 82.5166C46.3109 81.9795 46.0977 81.0241 46.0977 79.6504C46.0977 78.3027 46.332 77.3327 46.8008 76.7402C47.1882 76.252 47.7285 76.0078 48.4219 76.0078ZM48.4219 77.1455C48.2559 77.1455 48.1077 77.1992 47.9775 77.3066C47.8473 77.4108 47.7464 77.5996 47.6748 77.873C47.5804 78.2279 47.5332 78.8252 47.5332 79.665C47.5332 80.5049 47.5755 81.0827 47.6602 81.3984C47.7448 81.7109 47.8506 81.9193 47.9775 82.0234C48.1077 82.1276 48.2559 82.1797 48.4219 82.1797C48.5879 82.1797 48.736 82.1276 48.8662 82.0234C48.9964 81.916 49.0973 81.7256 49.1689 81.4521C49.2633 81.1006 49.3105 80.5049 49.3105 79.665C49.3105 78.8252 49.2682 78.249 49.1836 77.9365C49.099 77.6208 48.9915 77.4108 48.8613 77.3066C48.7344 77.1992 48.5879 77.1455 48.4219 77.1455ZM55.3473 80.4253V81.0853H54.2473V82.1153H55.3473V83.1953H56.7773V82.1153H59.3173V81.0853H56.7773V80.4253H58.3573C59.1073 80.4253 59.6973 80.2253 60.1373 79.8353C60.5773 79.4453 60.7973 78.9353 60.7973 78.3053C60.7973 77.6753 60.5773 77.1753 60.1373 76.7853C59.6973 76.3953 59.1073 76.1953 58.3573 76.1953H55.3473V79.3953H54.2473V80.4253H55.3473ZM56.7773 77.4553H58.1673C58.8973 77.4553 59.3473 77.7953 59.3473 78.4253C59.3473 79.0353 58.8973 79.3953 58.1673 79.3953H56.7773V77.4553Z" fill="white"/>
<path d="M16.7623 73.6777V65.9271H0.998384V59.4639L17.7082 35.0035H23.9087V59.4376H28.6904V65.9271H23.9087V73.6777H16.7623ZM16.7623 59.4376V46.2747L7.90825 59.4376H16.7623Z" fill="#A0A0A0"/>
<defs>
<clipPath id="clip0">
<rect width="50.4087" height="72.8125" fill="white" transform="translate(5.83203)"/>
</clipPath>
</defs>
</svg>
