<svg width="253" height="125" viewBox="0 0 253 125" fill="none" xmlns="http://www.w3.org/2000/svg">
<g clip-path="url(#clip0)">
<path d="M251.5 69.8469V65.1469C251.5 63.1469 249.9 61.4469 247.8 61.4469H242.8C244.8 61.4469 246.5 59.8469 246.5 57.7469V53.2469C246.5 51.2469 244.9 49.5469 242.8 49.5469H132.2C130.2 49.5469 128.5 51.1469 128.5 53.2469V57.9469C128.5 59.9469 130.1 61.6469 132.2 61.6469H137.2C135.2 61.6469 133.5 63.2469 133.5 65.3469V70.0469C133.5 72.0469 135.1 73.7469 137.2 73.7469H132.2C130.2 73.7469 128.5 75.3469 128.5 77.4469V82.1469C128.5 84.1469 130.1 85.8469 132.2 85.8469H137.2C135.2 85.8469 133.5 87.4469 133.5 89.5469V94.2469C133.5 96.2469 135.1 97.9469 137.2 97.9469H132.2C130.2 97.9469 128.5 99.5469 128.5 101.647V106.347C128.5 108.347 130.1 110.047 132.2 110.047H242.9C244.9 110.047 246.6 108.447 246.6 106.347V101.647C246.6 99.6469 245 97.9469 242.9 97.9469H247.9C249.9 97.9469 251.6 96.3469 251.6 94.2469V89.5469C251.6 87.5469 250 85.8469 247.9 85.8469H242.9C244.9 85.8469 246.6 84.2469 246.6 82.1469V77.4469C246.6 75.4469 245 73.7469 242.9 73.7469H247.9C249.9 73.5469 251.5 71.9469 251.5 69.8469Z" fill="white"/>
<path d="M247.8 73.5468H137.2C135.2 73.5468 133.5 71.9468 133.5 69.8468V65.1468C133.5 63.1468 135.1 61.4468 137.2 61.4468H247.9C249.9 61.4468 251.6 63.0468 251.6 65.1468V69.8468C251.5 71.9468 249.9 73.5468 247.8 73.5468Z" stroke="#DDDDDD" stroke-miterlimit="10"/>
<path d="M242.8 61.5469H132.2C130.2 61.5469 128.5 59.9469 128.5 57.8469V53.2469C128.5 51.2469 130.1 49.5469 132.2 49.5469H242.9C244.9 49.5469 246.6 51.1469 246.6 53.2469V57.9469C246.5 59.9469 244.9 61.5469 242.8 61.5469Z" stroke="#DDDDDD" stroke-miterlimit="10"/>
<path d="M242.8 109.547H132.2C130.2 109.547 128.5 107.947 128.5 105.847V101.147C128.5 99.1468 130.1 97.4468 132.2 97.4468H242.9C244.9 97.4468 246.6 99.0468 246.6 101.147V105.847C246.5 107.947 244.9 109.547 242.8 109.547Z" stroke="#DDDDDD" stroke-miterlimit="10"/>
<path d="M247.8 97.5468H137.2C135.2 97.5468 133.5 95.9468 133.5 93.8468V89.1468C133.5 87.1468 135.1 85.4468 137.2 85.4468H247.9C249.9 85.4468 251.6 87.0468 251.6 89.1468V93.8468C251.5 95.9468 249.9 97.5468 247.8 97.5468Z" stroke="#DDDDDD" stroke-miterlimit="10"/>
<path d="M242.8 85.5468H132.2C130.2 85.5468 128.5 83.9468 128.5 81.8468V77.1468C128.5 75.1468 130.1 73.4468 132.2 73.4468H242.9C244.9 73.4468 246.6 75.0468 246.6 77.1468V81.8468C246.5 83.9468 244.9 85.5468 242.8 85.5468Z" stroke="#DDDDDD" stroke-miterlimit="10"/>
<path d="M128.8 51.5469H246.2" stroke="#DDDDDD" stroke-width="0.5" stroke-miterlimit="10"/>
<path d="M128.8 59.5469H246.2" stroke="#DDDDDD" stroke-width="0.5" stroke-miterlimit="10"/>
<path d="M131.4 51.5469V59.5469" stroke="#DDDDDD" stroke-width="0.5" stroke-miterlimit="10"/>
<path d="M135.4 51.5469V59.5469" stroke="#DDDDDD" stroke-width="0.5" stroke-miterlimit="10"/>
<path d="M139.4 51.5469V59.5469" stroke="#DDDDDD" stroke-width="0.5" stroke-miterlimit="10"/>
<path d="M143.4 51.5469V59.5469" stroke="#DDDDDD" stroke-width="0.5" stroke-miterlimit="10"/>
<path d="M147.4 51.5469V59.5469" stroke="#DDDDDD" stroke-width="0.5" stroke-miterlimit="10"/>
<path d="M151.4 51.5469V59.5469" stroke="#DDDDDD" stroke-width="0.5" stroke-miterlimit="10"/>
<path d="M155.4 51.5469V59.5469" stroke="#DDDDDD" stroke-width="0.5" stroke-miterlimit="10"/>
<path d="M159.4 51.5469V59.5469" stroke="#DDDDDD" stroke-width="0.5" stroke-miterlimit="10"/>
<path d="M163.4 51.5469V59.5469" stroke="#DDDDDD" stroke-width="0.5" stroke-miterlimit="10"/>
<path d="M167.4 51.5469V59.5469" stroke="#DDDDDD" stroke-width="0.5" stroke-miterlimit="10"/>
<path d="M171.4 51.5469V59.5469" stroke="#DDDDDD" stroke-width="0.5" stroke-miterlimit="10"/>
<path d="M175.4 51.5469V59.5469" stroke="#DDDDDD" stroke-width="0.5" stroke-miterlimit="10"/>
<path d="M179.4 51.5469V59.5469" stroke="#DDDDDD" stroke-width="0.5" stroke-miterlimit="10"/>
<path d="M183.4 51.5469V59.5469" stroke="#DDDDDD" stroke-width="0.5" stroke-miterlimit="10"/>
<path d="M187.4 51.5469V59.5469" stroke="#DDDDDD" stroke-width="0.5" stroke-miterlimit="10"/>
<path d="M191.4 51.5469V59.5469" stroke="#DDDDDD" stroke-width="0.5" stroke-miterlimit="10"/>
<path d="M195.4 51.5469V59.5469" stroke="#DDDDDD" stroke-width="0.5" stroke-miterlimit="10"/>
<path d="M199.4 51.5469V59.5469" stroke="#DDDDDD" stroke-width="0.5" stroke-miterlimit="10"/>
<path d="M203.4 51.5469V59.5469" stroke="#DDDDDD" stroke-width="0.5" stroke-miterlimit="10"/>
<path d="M207.4 51.5469V59.5469" stroke="#DDDDDD" stroke-width="0.5" stroke-miterlimit="10"/>
<path d="M211.4 51.5469V59.5469" stroke="#DDDDDD" stroke-width="0.5" stroke-miterlimit="10"/>
<path d="M215.4 51.5469V59.5469" stroke="#DDDDDD" stroke-width="0.5" stroke-miterlimit="10"/>
<path d="M219.4 51.5469V59.5469" stroke="#DDDDDD" stroke-width="0.5" stroke-miterlimit="10"/>
<path d="M223.4 51.5469V59.5469" stroke="#DDDDDD" stroke-width="0.5" stroke-miterlimit="10"/>
<path d="M227.4 51.5469V59.5469" stroke="#DDDDDD" stroke-width="0.5" stroke-miterlimit="10"/>
<path d="M231.4 51.5469V59.5469" stroke="#DDDDDD" stroke-width="0.5" stroke-miterlimit="10"/>
<path d="M235.4 51.5469V59.5469" stroke="#DDDDDD" stroke-width="0.5" stroke-miterlimit="10"/>
<path d="M239.4 51.5469V59.5469" stroke="#DDDDDD" stroke-width="0.5" stroke-miterlimit="10"/>
<path d="M243.4 51.5469V59.5469" stroke="#DDDDDD" stroke-width="0.5" stroke-miterlimit="10"/>
<path d="M133.8 63.5469H251.2" stroke="#DDDDDD" stroke-width="0.5" stroke-miterlimit="10"/>
<path d="M133.8 71.5469H251.2" stroke="#DDDDDD" stroke-width="0.5" stroke-miterlimit="10"/>
<path d="M136.4 63.5469V71.5469" stroke="#DDDDDD" stroke-width="0.5" stroke-miterlimit="10"/>
<path d="M140.4 63.5469V71.5469" stroke="#DDDDDD" stroke-width="0.5" stroke-miterlimit="10"/>
<path d="M144.4 63.5469V71.5469" stroke="#DDDDDD" stroke-width="0.5" stroke-miterlimit="10"/>
<path d="M148.4 63.5469V71.5469" stroke="#DDDDDD" stroke-width="0.5" stroke-miterlimit="10"/>
<path d="M152.4 63.5469V71.5469" stroke="#DDDDDD" stroke-width="0.5" stroke-miterlimit="10"/>
<path d="M156.4 63.5469V71.5469" stroke="#DDDDDD" stroke-width="0.5" stroke-miterlimit="10"/>
<path d="M160.4 63.5469V71.5469" stroke="#DDDDDD" stroke-width="0.5" stroke-miterlimit="10"/>
<path d="M164.4 63.5469V71.5469" stroke="#DDDDDD" stroke-width="0.5" stroke-miterlimit="10"/>
<path d="M168.4 63.5469V71.5469" stroke="#DDDDDD" stroke-width="0.5" stroke-miterlimit="10"/>
<path d="M172.4 63.5469V71.5469" stroke="#DDDDDD" stroke-width="0.5" stroke-miterlimit="10"/>
<path d="M176.4 63.5469V71.5469" stroke="#DDDDDD" stroke-width="0.5" stroke-miterlimit="10"/>
<path d="M180.4 63.5469V71.5469" stroke="#DDDDDD" stroke-width="0.5" stroke-miterlimit="10"/>
<path d="M184.4 63.5469V71.5469" stroke="#DDDDDD" stroke-width="0.5" stroke-miterlimit="10"/>
<path d="M188.4 63.5469V71.5469" stroke="#DDDDDD" stroke-width="0.5" stroke-miterlimit="10"/>
<path d="M192.4 63.5469V71.5469" stroke="#DDDDDD" stroke-width="0.5" stroke-miterlimit="10"/>
<path d="M196.4 63.5469V71.5469" stroke="#DDDDDD" stroke-width="0.5" stroke-miterlimit="10"/>
<path d="M200.4 63.5469V71.5469" stroke="#DDDDDD" stroke-width="0.5" stroke-miterlimit="10"/>
<path d="M204.4 63.5469V71.5469" stroke="#DDDDDD" stroke-width="0.5" stroke-miterlimit="10"/>
<path d="M208.4 63.5469V71.5469" stroke="#DDDDDD" stroke-width="0.5" stroke-miterlimit="10"/>
<path d="M212.4 63.5469V71.5469" stroke="#DDDDDD" stroke-width="0.5" stroke-miterlimit="10"/>
<path d="M216.4 63.5469V71.5469" stroke="#DDDDDD" stroke-width="0.5" stroke-miterlimit="10"/>
<path d="M220.4 63.5469V71.5469" stroke="#DDDDDD" stroke-width="0.5" stroke-miterlimit="10"/>
<path d="M224.4 63.5469V71.5469" stroke="#DDDDDD" stroke-width="0.5" stroke-miterlimit="10"/>
<path d="M228.4 63.5469V71.5469" stroke="#DDDDDD" stroke-width="0.5" stroke-miterlimit="10"/>
<path d="M232.4 63.5469V71.5469" stroke="#DDDDDD" stroke-width="0.5" stroke-miterlimit="10"/>
<path d="M236.4 63.5469V71.5469" stroke="#DDDDDD" stroke-width="0.5" stroke-miterlimit="10"/>
<path d="M240.4 63.5469V71.5469" stroke="#DDDDDD" stroke-width="0.5" stroke-miterlimit="10"/>
<path d="M244.4 63.5469V71.5469" stroke="#DDDDDD" stroke-width="0.5" stroke-miterlimit="10"/>
<path d="M248.4 63.5469V71.5469" stroke="#DDDDDD" stroke-width="0.5" stroke-miterlimit="10"/>
<path d="M128.8 75.5469H246.2" stroke="#DDDDDD" stroke-width="0.5" stroke-miterlimit="10"/>
<path d="M128.8 83.5469H246.2" stroke="#DDDDDD" stroke-width="0.5" stroke-miterlimit="10"/>
<path d="M128.8 99.5469H246.2" stroke="#DDDDDD" stroke-width="0.5" stroke-miterlimit="10"/>
<path d="M128.8 107.547H246.2" stroke="#DDDDDD" stroke-width="0.5" stroke-miterlimit="10"/>
<path d="M131.4 99.5469V107.547" stroke="#DDDDDD" stroke-width="0.5" stroke-miterlimit="10"/>
<path d="M135.4 99.5469V107.547" stroke="#DDDDDD" stroke-width="0.5" stroke-miterlimit="10"/>
<path d="M139.4 99.5469V107.547" stroke="#DDDDDD" stroke-width="0.5" stroke-miterlimit="10"/>
<path d="M143.4 99.5469V107.547" stroke="#DDDDDD" stroke-width="0.5" stroke-miterlimit="10"/>
<path d="M147.4 99.5469V107.547" stroke="#DDDDDD" stroke-width="0.5" stroke-miterlimit="10"/>
<path d="M151.4 99.5469V107.547" stroke="#DDDDDD" stroke-width="0.5" stroke-miterlimit="10"/>
<path d="M155.4 99.5469V107.547" stroke="#DDDDDD" stroke-width="0.5" stroke-miterlimit="10"/>
<path d="M159.4 99.5469V107.547" stroke="#DDDDDD" stroke-width="0.5" stroke-miterlimit="10"/>
<path d="M163.4 99.5469V107.547" stroke="#DDDDDD" stroke-width="0.5" stroke-miterlimit="10"/>
<path d="M167.4 99.5469V107.547" stroke="#DDDDDD" stroke-width="0.5" stroke-miterlimit="10"/>
<path d="M171.4 99.5469V107.547" stroke="#DDDDDD" stroke-width="0.5" stroke-miterlimit="10"/>
<path d="M175.4 99.5469V107.547" stroke="#DDDDDD" stroke-width="0.5" stroke-miterlimit="10"/>
<path d="M179.4 99.5469V107.547" stroke="#DDDDDD" stroke-width="0.5" stroke-miterlimit="10"/>
<path d="M183.4 99.5469V107.547" stroke="#DDDDDD" stroke-width="0.5" stroke-miterlimit="10"/>
<path d="M187.4 99.5469V107.547" stroke="#DDDDDD" stroke-width="0.5" stroke-miterlimit="10"/>
<path d="M191.4 99.5469V107.547" stroke="#DDDDDD" stroke-width="0.5" stroke-miterlimit="10"/>
<path d="M195.4 99.5469V107.547" stroke="#DDDDDD" stroke-width="0.5" stroke-miterlimit="10"/>
<path d="M199.4 99.5469V107.547" stroke="#DDDDDD" stroke-width="0.5" stroke-miterlimit="10"/>
<path d="M203.4 99.5469V107.547" stroke="#DDDDDD" stroke-width="0.5" stroke-miterlimit="10"/>
<path d="M207.4 99.5469V107.547" stroke="#DDDDDD" stroke-width="0.5" stroke-miterlimit="10"/>
<path d="M211.4 99.5469V107.547" stroke="#DDDDDD" stroke-width="0.5" stroke-miterlimit="10"/>
<path d="M215.4 99.5469V107.547" stroke="#DDDDDD" stroke-width="0.5" stroke-miterlimit="10"/>
<path d="M219.4 99.5469V107.547" stroke="#DDDDDD" stroke-width="0.5" stroke-miterlimit="10"/>
<path d="M223.4 99.5469V107.547" stroke="#DDDDDD" stroke-width="0.5" stroke-miterlimit="10"/>
<path d="M227.4 99.5469V107.547" stroke="#DDDDDD" stroke-width="0.5" stroke-miterlimit="10"/>
<path d="M231.4 99.5469V107.547" stroke="#DDDDDD" stroke-width="0.5" stroke-miterlimit="10"/>
<path d="M235.4 99.5469V107.547" stroke="#DDDDDD" stroke-width="0.5" stroke-miterlimit="10"/>
<path d="M239.4 99.5469V107.547" stroke="#DDDDDD" stroke-width="0.5" stroke-miterlimit="10"/>
<path d="M243.4 99.5469V107.547" stroke="#DDDDDD" stroke-width="0.5" stroke-miterlimit="10"/>
<path d="M133.8 87.5469H251.2" stroke="#DDDDDD" stroke-width="0.5" stroke-miterlimit="10"/>
<path d="M133.8 95.5469H251.2" stroke="#DDDDDD" stroke-width="0.5" stroke-miterlimit="10"/>
<path d="M136.4 87.5469V95.5469" stroke="#DDDDDD" stroke-width="0.5" stroke-miterlimit="10"/>
<path d="M140.4 87.5469V95.5469" stroke="#DDDDDD" stroke-width="0.5" stroke-miterlimit="10"/>
<path d="M144.4 87.5469V95.5469" stroke="#DDDDDD" stroke-width="0.5" stroke-miterlimit="10"/>
<path d="M148.4 87.5469V95.5469" stroke="#DDDDDD" stroke-width="0.5" stroke-miterlimit="10"/>
<path d="M152.4 87.5469V95.5469" stroke="#DDDDDD" stroke-width="0.5" stroke-miterlimit="10"/>
<path d="M156.4 87.5469V95.5469" stroke="#DDDDDD" stroke-width="0.5" stroke-miterlimit="10"/>
<path d="M160.4 87.5469V95.5469" stroke="#DDDDDD" stroke-width="0.5" stroke-miterlimit="10"/>
<path d="M164.4 87.5469V95.5469" stroke="#DDDDDD" stroke-width="0.5" stroke-miterlimit="10"/>
<path d="M168.4 87.5469V95.5469" stroke="#DDDDDD" stroke-width="0.5" stroke-miterlimit="10"/>
<path d="M172.4 87.5469V95.5469" stroke="#DDDDDD" stroke-width="0.5" stroke-miterlimit="10"/>
<path d="M176.4 87.5469V95.5469" stroke="#DDDDDD" stroke-width="0.5" stroke-miterlimit="10"/>
<path d="M180.4 87.5469V95.5469" stroke="#DDDDDD" stroke-width="0.5" stroke-miterlimit="10"/>
<path d="M184.4 87.5469V95.5469" stroke="#DDDDDD" stroke-width="0.5" stroke-miterlimit="10"/>
<path d="M188.4 87.5469V95.5469" stroke="#DDDDDD" stroke-width="0.5" stroke-miterlimit="10"/>
<path d="M192.4 87.5469V95.5469" stroke="#DDDDDD" stroke-width="0.5" stroke-miterlimit="10"/>
<path d="M196.4 87.5469V95.5469" stroke="#DDDDDD" stroke-width="0.5" stroke-miterlimit="10"/>
<path d="M200.4 87.5469V95.5469" stroke="#DDDDDD" stroke-width="0.5" stroke-miterlimit="10"/>
<path d="M204.4 87.5469V95.5469" stroke="#DDDDDD" stroke-width="0.5" stroke-miterlimit="10"/>
<path d="M208.4 87.5469V95.5469" stroke="#DDDDDD" stroke-width="0.5" stroke-miterlimit="10"/>
<path d="M212.4 87.5469V95.5469" stroke="#DDDDDD" stroke-width="0.5" stroke-miterlimit="10"/>
<path d="M216.4 87.5469V95.5469" stroke="#DDDDDD" stroke-width="0.5" stroke-miterlimit="10"/>
<path d="M220.4 87.5469V95.5469" stroke="#DDDDDD" stroke-width="0.5" stroke-miterlimit="10"/>
<path d="M224.4 87.5469V95.5469" stroke="#DDDDDD" stroke-width="0.5" stroke-miterlimit="10"/>
<path d="M228.4 87.5469V95.5469" stroke="#DDDDDD" stroke-width="0.5" stroke-miterlimit="10"/>
<path d="M232.4 87.5469V95.5469" stroke="#DDDDDD" stroke-width="0.5" stroke-miterlimit="10"/>
<path d="M236.4 87.5469V95.5469" stroke="#DDDDDD" stroke-width="0.5" stroke-miterlimit="10"/>
<path d="M240.4 87.5469V95.5469" stroke="#DDDDDD" stroke-width="0.5" stroke-miterlimit="10"/>
<path d="M244.4 87.5469V95.5469" stroke="#DDDDDD" stroke-width="0.5" stroke-miterlimit="10"/>
<path d="M248.4 87.5469V95.5469" stroke="#DDDDDD" stroke-width="0.5" stroke-miterlimit="10"/>
<path d="M251.5 69.8469V65.1469C251.5 63.1469 249.9 61.4469 247.8 61.4469H242.8C244.8 61.4469 246.5 59.8469 246.5 57.7469V53.2469C246.5 51.2469 244.9 49.5469 242.8 49.5469H132.2C130.2 49.5469 128.5 51.1469 128.5 53.2469V57.9469C128.5 59.9469 130.1 61.6469 132.2 61.6469H137.2C135.2 61.6469 133.5 63.2469 133.5 65.3469V70.0469C133.5 72.0469 135.1 73.7469 137.2 73.7469H132.2C130.2 73.7469 128.5 75.3469 128.5 77.4469V82.1469C128.5 84.1469 130.1 85.8469 132.2 85.8469H137.2C135.2 85.8469 133.5 87.4469 133.5 89.5469V94.2469C133.5 96.2469 135.1 97.9469 137.2 97.9469H132.2C130.2 97.9469 128.5 99.5469 128.5 101.647V106.347C128.5 108.347 130.1 110.047 132.2 110.047H242.9C244.9 110.047 246.6 108.447 246.6 106.347V101.647C246.6 99.6469 245 97.9469 242.9 97.9469H247.9C249.9 97.9469 251.6 96.3469 251.6 94.2469V89.5469C251.6 87.5469 250 85.8469 247.9 85.8469H242.9C244.9 85.8469 246.6 84.2469 246.6 82.1469V77.4469C246.6 75.4469 245 73.7469 242.9 73.7469H247.9C249.9 73.5469 251.5 71.9469 251.5 69.8469Z" stroke="#808080" stroke-miterlimit="10"/>
<path d="M131.4 75.5469V83.5469" stroke="#DDDDDD" stroke-width="0.5" stroke-miterlimit="10"/>
<path d="M135.4 75.5469V83.5469" stroke="#DDDDDD" stroke-width="0.5" stroke-miterlimit="10"/>
<path d="M139.4 75.5469V83.5469" stroke="#DDDDDD" stroke-width="0.5" stroke-miterlimit="10"/>
<path d="M143.4 75.5469V83.5469" stroke="#DDDDDD" stroke-width="0.5" stroke-miterlimit="10"/>
<path d="M147.4 75.5469V83.5469" stroke="#DDDDDD" stroke-width="0.5" stroke-miterlimit="10"/>
<path d="M151.4 75.5469V83.5469" stroke="#DDDDDD" stroke-width="0.5" stroke-miterlimit="10"/>
<path d="M155.4 75.5469V83.5469" stroke="#DDDDDD" stroke-width="0.5" stroke-miterlimit="10"/>
<path d="M159.4 75.5469V83.5469" stroke="#DDDDDD" stroke-width="0.5" stroke-miterlimit="10"/>
<path d="M163.4 75.5469V83.5469" stroke="#DDDDDD" stroke-width="0.5" stroke-miterlimit="10"/>
<path d="M167.4 75.5469V83.5469" stroke="#DDDDDD" stroke-width="0.5" stroke-miterlimit="10"/>
<path d="M171.4 75.5469V83.5469" stroke="#DDDDDD" stroke-width="0.5" stroke-miterlimit="10"/>
<path d="M175.4 75.5469V83.5469" stroke="#DDDDDD" stroke-width="0.5" stroke-miterlimit="10"/>
<path d="M179.4 75.5469V83.5469" stroke="#DDDDDD" stroke-width="0.5" stroke-miterlimit="10"/>
<path d="M183.4 75.5469V83.5469" stroke="#DDDDDD" stroke-width="0.5" stroke-miterlimit="10"/>
<path d="M187.4 75.5469V83.5469" stroke="#DDDDDD" stroke-width="0.5" stroke-miterlimit="10"/>
<path d="M191.4 75.5469V83.5469" stroke="#DDDDDD" stroke-width="0.5" stroke-miterlimit="10"/>
<path d="M195.4 75.5469V83.5469" stroke="#DDDDDD" stroke-width="0.5" stroke-miterlimit="10"/>
<path d="M199.4 75.5469V83.5469" stroke="#DDDDDD" stroke-width="0.5" stroke-miterlimit="10"/>
<path d="M203.4 75.5469V83.5469" stroke="#DDDDDD" stroke-width="0.5" stroke-miterlimit="10"/>
<path d="M207.4 75.5469V83.5469" stroke="#DDDDDD" stroke-width="0.5" stroke-miterlimit="10"/>
<path d="M211.4 75.5469V83.5469" stroke="#DDDDDD" stroke-width="0.5" stroke-miterlimit="10"/>
<path d="M215.4 75.5469V83.5469" stroke="#DDDDDD" stroke-width="0.5" stroke-miterlimit="10"/>
<path d="M219.4 75.5469V83.5469" stroke="#DDDDDD" stroke-width="0.5" stroke-miterlimit="10"/>
<path d="M223.4 75.5469V83.5469" stroke="#DDDDDD" stroke-width="0.5" stroke-miterlimit="10"/>
<path d="M227.4 75.5469V83.5469" stroke="#DDDDDD" stroke-width="0.5" stroke-miterlimit="10"/>
<path d="M231.4 75.5469V83.5469" stroke="#DDDDDD" stroke-width="0.5" stroke-miterlimit="10"/>
<path d="M235.4 75.5469V83.5469" stroke="#DDDDDD" stroke-width="0.5" stroke-miterlimit="10"/>
<path d="M239.4 75.5469V83.5469" stroke="#DDDDDD" stroke-width="0.5" stroke-miterlimit="10"/>
<path d="M243.4 75.5469V83.5469" stroke="#DDDDDD" stroke-width="0.5" stroke-miterlimit="10"/>
</g>
<path d="M0 76.5469H237V110.547H10L0 76.5469Z" fill="#900583"/>
<path d="M119 125L105 111H237L119 125Z" fill="#620258"/>
<path d="M22.7317 86.6621H27.8821C28.9016 86.6621 29.6604 86.7061 30.1585 86.7939C30.6624 86.876 31.1106 87.0518 31.5032 87.3213C31.9016 87.5908 32.2327 87.9512 32.4963 88.4023C32.76 88.8477 32.8919 89.3486 32.8919 89.9053C32.8919 90.5088 32.7278 91.0625 32.3997 91.5664C32.0774 92.0703 31.6379 92.4482 31.0813 92.7002C31.8665 92.9287 32.47 93.3184 32.8919 93.8691C33.3137 94.4199 33.5247 95.0674 33.5247 95.8115C33.5247 96.3975 33.387 96.9688 33.1116 97.5254C32.842 98.0762 32.47 98.5186 31.9954 98.8525C31.5266 99.1807 30.9465 99.3828 30.2551 99.459C29.8215 99.5059 28.7756 99.5352 27.1174 99.5469H22.7317V86.6621ZM25.3333 88.8066V91.7861H27.0383C28.052 91.7861 28.6819 91.7715 28.928 91.7422C29.3733 91.6895 29.7219 91.5371 29.9739 91.2852C30.2317 91.0273 30.3606 90.6904 30.3606 90.2744C30.3606 89.876 30.2493 89.5537 30.0266 89.3076C29.8098 89.0557 29.4846 88.9033 29.051 88.8506C28.7932 88.8213 28.052 88.8066 26.8274 88.8066H25.3333ZM25.3333 93.9307V97.376H27.7415C28.679 97.376 29.2737 97.3496 29.5256 97.2969C29.9124 97.2266 30.2258 97.0566 30.4661 96.7871C30.7122 96.5117 30.8352 96.1455 30.8352 95.6885C30.8352 95.3018 30.7415 94.9736 30.554 94.7041C30.3665 94.4346 30.094 94.2383 29.7366 94.1152C29.385 93.9922 28.6174 93.9307 27.4338 93.9307H25.3333ZM37.5588 93.0605L35.3176 92.6562C35.5696 91.7539 36.0032 91.0859 36.6184 90.6523C37.2337 90.2188 38.1477 90.002 39.3606 90.002C40.4622 90.002 41.2825 90.1338 41.8215 90.3975C42.3606 90.6553 42.7385 90.9863 42.9553 91.3906C43.178 91.7891 43.2893 92.5244 43.2893 93.5967L43.2629 96.4795C43.2629 97.2998 43.301 97.9062 43.3772 98.2988C43.4592 98.6855 43.6087 99.1016 43.8254 99.5469H41.3821C41.3176 99.3828 41.2385 99.1396 41.1448 98.8174C41.1038 98.6709 41.0745 98.5742 41.0569 98.5273C40.635 98.9375 40.1838 99.2451 39.7034 99.4502C39.2229 99.6553 38.7102 99.7578 38.1653 99.7578C37.2044 99.7578 36.4456 99.4971 35.8889 98.9756C35.3381 98.4541 35.0628 97.7949 35.0628 96.998C35.0628 96.4707 35.1887 96.002 35.4407 95.5918C35.6926 95.1758 36.0442 94.8594 36.4954 94.6426C36.9524 94.4199 37.6087 94.2266 38.4641 94.0625C39.6184 93.8457 40.4182 93.6436 40.8635 93.4561V93.21C40.8635 92.7354 40.7463 92.3984 40.512 92.1992C40.2776 91.9941 39.8352 91.8916 39.1848 91.8916C38.7454 91.8916 38.4026 91.9795 38.1565 92.1553C37.9104 92.3252 37.7112 92.627 37.5588 93.0605ZM40.8635 95.0645C40.5471 95.1699 40.0462 95.2959 39.3606 95.4424C38.6751 95.5889 38.2268 95.7324 38.0159 95.873C37.6936 96.1016 37.5325 96.3916 37.5325 96.7432C37.5325 97.0889 37.6614 97.3877 37.9192 97.6396C38.177 97.8916 38.5051 98.0176 38.9036 98.0176C39.3489 98.0176 39.7737 97.8711 40.178 97.5781C40.4768 97.3555 40.6731 97.083 40.7669 96.7607C40.8313 96.5498 40.8635 96.1484 40.8635 95.5566V95.0645ZM45.6712 90.2129H47.9387V97.5518H50.804V90.2129H53.0803V97.5518H55.9368V90.2129H58.2131V99.5469H45.6712V90.2129ZM62.5901 93.0605L60.3489 92.6562C60.6008 91.7539 61.0344 91.0859 61.6497 90.6523C62.2649 90.2188 63.179 90.002 64.3919 90.002C65.4934 90.002 66.3137 90.1338 66.8528 90.3975C67.3919 90.6553 67.7698 90.9863 67.9866 91.3906C68.2092 91.7891 68.3206 92.5244 68.3206 93.5967L68.2942 96.4795C68.2942 97.2998 68.3323 97.9062 68.4085 98.2988C68.4905 98.6855 68.6399 99.1016 68.8567 99.5469H66.4133C66.3489 99.3828 66.2698 99.1396 66.176 98.8174C66.135 98.6709 66.1057 98.5742 66.0881 98.5273C65.6663 98.9375 65.2151 99.2451 64.7346 99.4502C64.2542 99.6553 63.7415 99.7578 63.1965 99.7578C62.2356 99.7578 61.4768 99.4971 60.9202 98.9756C60.3694 98.4541 60.094 97.7949 60.094 96.998C60.094 96.4707 60.22 96.002 60.4719 95.5918C60.7239 95.1758 61.0754 94.8594 61.5266 94.6426C61.9837 94.4199 62.6399 94.2266 63.4954 94.0625C64.6497 93.8457 65.4495 93.6436 65.8948 93.4561V93.21C65.8948 92.7354 65.7776 92.3984 65.5432 92.1992C65.3088 91.9941 64.8665 91.8916 64.2161 91.8916C63.7766 91.8916 63.4338 91.9795 63.1878 92.1553C62.9417 92.3252 62.7424 92.627 62.5901 93.0605ZM65.8948 95.0645C65.5784 95.1699 65.0774 95.2959 64.3919 95.4424C63.7063 95.5889 63.2581 95.7324 63.0471 95.873C62.7249 96.1016 62.5637 96.3916 62.5637 96.7432C62.5637 97.0889 62.6926 97.3877 62.9504 97.6396C63.2083 97.8916 63.5364 98.0176 63.9348 98.0176C64.3801 98.0176 64.8049 97.8711 65.2092 97.5781C65.5081 97.3555 65.7044 97.083 65.7981 96.7607C65.8626 96.5498 65.8948 96.1484 65.8948 95.5566V95.0645ZM74.6663 90.2129H83.1126V92.208H80.1243V99.5469H77.6545V92.208H74.6663V90.2129ZM90.0032 96.5762L92.4641 96.9893C92.1477 97.8916 91.6467 98.5801 90.9612 99.0547C90.2815 99.5234 89.429 99.7578 88.4036 99.7578C86.7805 99.7578 85.5794 99.2275 84.8001 98.167C84.1848 97.3174 83.8772 96.2451 83.8772 94.9502C83.8772 93.4033 84.2815 92.1934 85.0901 91.3203C85.8987 90.4414 86.9212 90.002 88.1575 90.002C89.5462 90.002 90.6419 90.4619 91.4446 91.3818C92.2473 92.2959 92.6311 93.6992 92.596 95.5918H86.4085C86.426 96.3242 86.6253 96.8955 87.0061 97.3057C87.387 97.71 87.8616 97.9121 88.4299 97.9121C88.8167 97.9121 89.1419 97.8066 89.4055 97.5957C89.6692 97.3848 89.8684 97.0449 90.0032 96.5762ZM90.1438 94.0801C90.1262 93.3652 89.9417 92.8232 89.5901 92.4541C89.2385 92.0791 88.8108 91.8916 88.3069 91.8916C87.7678 91.8916 87.3225 92.0879 86.971 92.4805C86.6194 92.873 86.4465 93.4062 86.4524 94.0801H90.1438ZM94.5208 90.2129H96.9817V94.0273C97.3919 93.9805 97.6819 93.8545 97.8518 93.6494C98.0217 93.4443 98.2268 92.9961 98.467 92.3047C98.7835 91.3848 99.1292 90.7959 99.5042 90.5381C99.8792 90.2803 100.371 90.1514 100.981 90.1514C101.168 90.1514 101.493 90.166 101.956 90.1953L101.965 91.8301C101.315 91.8301 100.899 91.8916 100.717 92.0146C100.535 92.1436 100.339 92.5273 100.128 93.166C99.8411 94.0273 99.428 94.5576 98.8889 94.7568C99.6682 94.9736 100.327 95.6504 100.866 96.7871C100.896 96.8457 100.928 96.9072 100.963 96.9717L102.343 99.5469H99.6887L98.4583 96.8486C98.2063 96.3037 97.9866 95.9551 97.7991 95.8027C97.6174 95.6445 97.345 95.5654 96.9817 95.5654V99.5469H94.5208V90.2129ZM102.466 90.2129H105.094L107.326 96.8398L109.506 90.2129H112.064L108.768 99.1953L108.179 100.821C107.962 101.366 107.754 101.782 107.555 102.069C107.362 102.356 107.136 102.588 106.878 102.764C106.626 102.945 106.313 103.086 105.938 103.186C105.569 103.285 105.15 103.335 104.681 103.335C104.206 103.335 103.74 103.285 103.283 103.186L103.064 101.252C103.45 101.328 103.799 101.366 104.11 101.366C104.684 101.366 105.109 101.196 105.384 100.856C105.659 100.522 105.87 100.095 106.017 99.5732L102.466 90.2129ZM113.602 90.2129H115.878V97.5518H118.717V90.2129H120.993V97.5518H123.867V90.2129H126.144V97.5518H127.155V102.008H125.159V99.5469H113.602V90.2129ZM130.916 93.0605L128.675 92.6562C128.927 91.7539 129.361 91.0859 129.976 90.6523C130.591 90.2188 131.505 90.002 132.718 90.002C133.82 90.002 134.64 90.1338 135.179 90.3975C135.718 90.6553 136.096 90.9863 136.313 91.3906C136.535 91.7891 136.647 92.5244 136.647 93.5967L136.62 96.4795C136.62 97.2998 136.658 97.9062 136.735 98.2988C136.817 98.6855 136.966 99.1016 137.183 99.5469H134.74C134.675 99.3828 134.596 99.1396 134.502 98.8174C134.461 98.6709 134.432 98.5742 134.414 98.5273C133.992 98.9375 133.541 99.2451 133.061 99.4502C132.58 99.6553 132.068 99.7578 131.523 99.7578C130.562 99.7578 129.803 99.4971 129.246 98.9756C128.696 98.4541 128.42 97.7949 128.42 96.998C128.42 96.4707 128.546 96.002 128.798 95.5918C129.05 95.1758 129.402 94.8594 129.853 94.6426C130.31 94.4199 130.966 94.2266 131.822 94.0625C132.976 93.8457 133.776 93.6436 134.221 93.4561V93.21C134.221 92.7354 134.104 92.3984 133.869 92.1992C133.635 91.9941 133.193 91.8916 132.542 91.8916C132.103 91.8916 131.76 91.9795 131.514 92.1553C131.268 92.3252 131.069 92.627 130.916 93.0605ZM134.221 95.0645C133.905 95.1699 133.404 95.2959 132.718 95.4424C132.032 95.5889 131.584 95.7324 131.373 95.873C131.051 96.1016 130.89 96.3916 130.89 96.7432C130.89 97.0889 131.019 97.3877 131.277 97.6396C131.534 97.8916 131.863 98.0176 132.261 98.0176C132.706 98.0176 133.131 97.8711 133.535 97.5781C133.834 97.3555 134.031 97.083 134.124 96.7607C134.189 96.5498 134.221 96.1484 134.221 95.5566V95.0645ZM147.088 90.2129V99.5469H144.636V95.6709H144.407C143.874 95.6709 143.482 95.7412 143.23 95.8818C142.984 96.0166 142.708 96.3066 142.404 96.752L142.254 96.9365L140.628 99.5469H137.754L139.521 96.8398C140.025 96.0664 140.482 95.6211 140.892 95.5039C140.2 95.4629 139.638 95.2021 139.204 94.7217C138.777 94.2354 138.563 93.6172 138.563 92.8672C138.563 92.2637 138.703 91.748 138.985 91.3203C139.272 90.8926 139.65 90.6025 140.118 90.4502C140.593 90.292 141.296 90.2129 142.228 90.2129H147.088ZM144.636 91.8037H142.869C142.219 91.8037 141.762 91.8975 141.498 92.085C141.235 92.2666 141.103 92.5713 141.103 92.999C141.103 93.4268 141.252 93.7344 141.551 93.9219C141.85 94.1094 142.339 94.2031 143.019 94.2031H144.636V91.8037ZM162.75 92.9727L160.316 93.4121C160.234 92.9258 160.046 92.5596 159.753 92.3135C159.466 92.0674 159.091 91.9443 158.628 91.9443C158.013 91.9443 157.521 92.1582 157.152 92.5859C156.788 93.0078 156.607 93.7168 156.607 94.7129C156.607 95.8203 156.791 96.6025 157.16 97.0596C157.535 97.5166 158.036 97.7451 158.663 97.7451C159.132 97.7451 159.516 97.6133 159.815 97.3496C160.114 97.0801 160.324 96.6201 160.448 95.9697L162.873 96.3828C162.621 97.4961 162.138 98.3369 161.423 98.9053C160.708 99.4736 159.75 99.7578 158.549 99.7578C157.184 99.7578 156.094 99.3271 155.28 98.4658C154.471 97.6045 154.067 96.4121 154.067 94.8887C154.067 93.3477 154.474 92.1494 155.288 91.2939C156.103 90.4326 157.204 90.002 158.593 90.002C159.73 90.002 160.632 90.248 161.3 90.7402C161.974 91.2266 162.457 91.9707 162.75 92.9727ZM164.534 90.2129H166.995V94.0273C167.406 93.9805 167.696 93.8545 167.865 93.6494C168.035 93.4443 168.24 92.9961 168.481 92.3047C168.797 91.3848 169.143 90.7959 169.518 90.5381C169.893 90.2803 170.385 90.1514 170.994 90.1514C171.182 90.1514 171.507 90.166 171.97 90.1953L171.979 91.8301C171.328 91.8301 170.912 91.8916 170.731 92.0146C170.549 92.1436 170.353 92.5273 170.142 93.166C169.855 94.0273 169.442 94.5576 168.903 94.7568C169.682 94.9736 170.341 95.6504 170.88 96.7871C170.909 96.8457 170.942 96.9072 170.977 96.9717L172.357 99.5469H169.702L168.472 96.8486C168.22 96.3037 168 95.9551 167.813 95.8027C167.631 95.6445 167.359 95.5654 166.995 95.5654V99.5469H164.534V90.2129ZM173.587 90.2129H175.96V96.0752L179.757 90.2129H182.183V99.5469H179.81V93.5791L175.96 99.5469H173.587V90.2129ZM192.44 99.5469H185.373V102.008H183.369V97.5254H184.38C184.802 97.0566 185.151 96.3242 185.426 95.3281C185.701 94.332 185.865 92.627 185.918 90.2129H193.45V97.5254H194.452V102.008H192.44V99.5469ZM191.007 97.5254L191.016 92.2432H188.028C187.928 94.8213 187.518 96.582 186.797 97.5254H191.007ZM196.052 90.2129H198.513V94.0273C198.923 93.9805 199.213 93.8545 199.383 93.6494C199.553 93.4443 199.758 92.9961 199.998 92.3047C200.315 91.3848 200.66 90.7959 201.035 90.5381C201.41 90.2803 201.903 90.1514 202.512 90.1514C202.699 90.1514 203.025 90.166 203.488 90.1953L203.496 91.8301C202.846 91.8301 202.43 91.8916 202.248 92.0146C202.067 92.1436 201.87 92.5273 201.659 93.166C201.372 94.0273 200.959 94.5576 200.42 94.7568C201.199 94.9736 201.859 95.6504 202.398 96.7871C202.427 96.8457 202.459 96.9072 202.494 96.9717L203.874 99.5469H201.22L199.99 96.8486C199.738 96.3037 199.518 95.9551 199.33 95.8027C199.149 95.6445 198.876 95.5654 198.513 95.5654V99.5469H196.052V90.2129ZM207.012 93.0605L204.771 92.6562C205.023 91.7539 205.456 91.0859 206.072 90.6523C206.687 90.2188 207.601 90.002 208.814 90.002C209.915 90.002 210.736 90.1338 211.275 90.3975C211.814 90.6553 212.192 90.9863 212.408 91.3906C212.631 91.7891 212.742 92.5244 212.742 93.5967L212.716 96.4795C212.716 97.2998 212.754 97.9062 212.83 98.2988C212.912 98.6855 213.062 99.1016 213.279 99.5469H210.835C210.771 99.3828 210.692 99.1396 210.598 98.8174C210.557 98.6709 210.528 98.5742 210.51 98.5273C210.088 98.9375 209.637 99.2451 209.156 99.4502C208.676 99.6553 208.163 99.7578 207.618 99.7578C206.657 99.7578 205.899 99.4971 205.342 98.9756C204.791 98.4541 204.516 97.7949 204.516 96.998C204.516 96.4707 204.642 96.002 204.894 95.5918C205.146 95.1758 205.497 94.8594 205.948 94.6426C206.406 94.4199 207.062 94.2266 207.917 94.0625C209.072 93.8457 209.871 93.6436 210.317 93.4561V93.21C210.317 92.7354 210.199 92.3984 209.965 92.1992C209.731 91.9941 209.288 91.8916 208.638 91.8916C208.198 91.8916 207.856 91.9795 207.61 92.1553C207.364 92.3252 207.164 92.627 207.012 93.0605ZM210.317 95.0645C210 95.1699 209.499 95.2959 208.814 95.4424C208.128 95.5889 207.68 95.7324 207.469 95.873C207.147 96.1016 206.986 96.3916 206.986 96.7432C206.986 97.0889 207.115 97.3877 207.372 97.6396C207.63 97.8916 207.958 98.0176 208.357 98.0176C208.802 98.0176 209.227 97.8711 209.631 97.5781C209.93 97.3555 210.126 97.083 210.22 96.7607C210.284 96.5498 210.317 96.1484 210.317 95.5566V95.0645Z" fill="white"/>
<path d="M149.099 49.7582H152.884L137.691 77.8472H133.943L149.099 49.7582ZM126.768 56.6639C126.768 55.4442 127.031 54.2843 127.557 53.1842C128.095 52.084 128.908 51.241 129.997 50.6551C131.097 50.0572 132.394 49.7582 133.889 49.7582C136.089 49.7582 137.823 50.386 139.09 51.6416C140.358 52.8972 140.992 54.5713 140.992 56.6639C140.992 58.7685 140.358 60.4486 139.09 61.7041C137.823 62.9597 136.089 63.5875 133.889 63.5875C132.394 63.5875 131.097 63.2945 129.997 62.7086C128.908 62.1107 128.095 61.2617 127.557 60.1616C127.031 59.0614 126.768 57.8956 126.768 56.6639ZM131.808 56.6998C131.808 58.1825 132.047 59.2587 132.526 59.9284C132.837 60.3708 133.291 60.592 133.889 60.592C134.487 60.592 134.935 60.3708 135.234 59.9284C135.712 59.2587 135.952 58.1825 135.952 56.6998C135.952 55.229 135.712 54.1527 135.234 53.4712C134.935 53.0407 134.487 52.8254 133.889 52.8254C133.291 52.8254 132.837 53.0407 132.526 53.4712C132.047 54.1408 131.808 55.217 131.808 56.6998ZM145.727 70.8877C145.727 69.6561 145.99 68.4962 146.516 67.408C147.042 66.3079 147.856 65.4589 148.956 64.861C150.056 64.2631 151.347 63.9642 152.83 63.9642C155.042 63.9642 156.782 64.5979 158.05 65.8655C159.317 67.121 159.951 68.7951 159.951 70.8877C159.951 72.9804 159.317 74.6604 158.05 75.928C156.782 77.1836 155.042 77.8113 152.83 77.8113C151.347 77.8113 150.056 77.5124 148.956 76.9145C147.856 76.3166 147.042 75.4736 146.516 74.3854C145.99 73.2853 145.727 72.1194 145.727 70.8877ZM150.767 70.9236C150.767 72.4064 151.006 73.4826 151.485 74.1522C151.784 74.5827 152.232 74.798 152.83 74.798C153.428 74.798 153.882 74.5827 154.193 74.1522C154.672 73.4826 154.911 72.4064 154.911 70.9236C154.911 69.4408 154.672 68.3587 154.193 67.6771C153.882 67.2466 153.428 67.0313 152.83 67.0313C152.232 67.0313 151.784 67.2526 151.485 67.695C151.006 68.3646 150.767 69.4408 150.767 70.9236Z" fill="#900583"/>
<path d="M84.7729 60.2206L97.235 58.9299C97.5911 61.7487 98.6444 63.9889 100.395 65.6505C102.146 67.2825 104.163 68.0985 106.448 68.0985C109.059 68.0985 111.27 67.0451 113.08 64.9384C114.89 62.802 115.795 59.5975 115.795 55.3247C115.795 51.319 114.89 48.3222 113.08 46.3342C111.299 44.3165 108.97 43.3076 106.092 43.3076C102.502 43.3076 99.2824 44.8951 96.4339 48.07L86.2861 46.6012L92.6952 12.6418H125.764V24.3474H102.175L100.217 35.4298C103.006 34.0352 105.855 33.3379 108.763 33.3379C114.311 33.3379 119.014 35.3556 122.871 39.391C126.729 43.4263 128.657 48.6634 128.657 55.1022C128.657 60.4728 127.1 65.2648 123.984 69.4782C119.741 75.2345 113.851 78.1127 106.315 78.1127C100.291 78.1127 95.3805 76.4956 91.5825 73.2614C87.7846 70.0271 85.5147 65.6802 84.7729 60.2206Z" fill="#900583"/>
<defs>
<clipPath id="clip0">
<rect width="126" height="62" fill="white" transform="translate(127 48.5469)"/>
</clipPath>
</defs>
</svg>
