<svg width="74" height="126" viewBox="0 0 74 126" fill="none" xmlns="http://www.w3.org/2000/svg">
<path d="M56.5845 8.77449V6.9097C56.5845 6.11618 55.9449 5.44168 55.1054 5.44168H53.1067C53.9062 5.44168 54.5858 4.80686 54.5858 3.97366V2.26758C54.5858 1.47406 53.9462 0.799561 53.1067 0.799561H8.89507C8.09558 0.799561 7.41602 1.43438 7.41602 2.26758V4.13236C7.41602 4.92589 8.05561 5.60039 8.89507 5.60039H10.8938C10.0943 5.60039 9.41473 6.23521 9.41473 7.06841V8.93319C9.41473 9.72672 10.0543 10.4012 10.8938 10.4012H8.89507C8.09558 10.4012 7.41602 11.036 7.41602 11.8692V13.734C7.41602 14.5275 8.05561 15.202 8.89507 15.202H10.8938C10.0943 15.202 9.41473 15.8369 9.41473 16.6701V18.5348C9.41473 19.3284 10.0543 20.0029 10.8938 20.0029H8.89507C8.09558 20.0029 7.41602 20.6377 7.41602 21.4709V23.3357C7.41602 24.1292 8.05561 24.8037 8.89507 24.8037H10.8938C10.0943 24.8037 9.41473 25.4385 9.41473 26.2717V28.1365C9.41473 28.93 10.0543 29.6045 10.8938 29.6045H8.89507C8.09558 29.6045 7.41602 30.2393 7.41602 31.0725V32.9373C7.41602 33.7308 8.05561 34.4053 8.89507 34.4053H10.8938C10.0943 34.4053 9.41473 35.0402 9.41473 35.8734V37.7381C9.41473 38.5317 10.0543 39.2062 10.8938 39.2062H8.89507C8.09558 39.2062 7.41602 39.841 7.41602 40.6742V42.539C7.41602 43.3325 8.05561 44.007 8.89507 44.007H10.8938C10.0943 44.007 9.41473 44.6418 9.41473 45.475V47.3398C9.41473 48.1333 10.0543 48.8078 10.8938 48.8078H8.89507C8.09558 48.8078 7.41602 49.4426 7.41602 50.2758V52.1406C7.41602 52.9341 8.05561 53.6086 8.89507 53.6086H10.8938C10.0943 53.6086 9.41473 54.2435 9.41473 55.0767V56.9414C9.41473 57.735 10.0543 58.4095 10.8938 58.4095H8.89507C8.09558 58.4095 7.41602 59.0443 7.41602 59.8775V61.7423C7.41602 62.5358 8.05561 63.2103 8.89507 63.2103H10.8938C10.0943 63.2103 9.41473 63.8451 9.41473 64.6783V66.5431C9.41473 67.3366 10.0543 68.0111 10.8938 68.0111H8.89507C8.09558 68.0111 7.41602 68.6459 7.41602 69.4791V71.3439C7.41602 72.1374 8.05561 72.8119 8.89507 72.8119H10.8938C10.0943 72.8119 9.41473 73.4468 9.41473 74.28V76.1447C9.41473 76.9383 10.0543 77.6128 10.8938 77.6128H8.89507C8.09558 77.6128 7.41602 78.2476 7.41602 79.0808V80.9456C7.41602 81.7391 8.05561 82.4136 8.89507 82.4136H10.8938C10.0943 82.4136 9.41473 83.0484 9.41473 83.8816V85.7464C9.41473 86.5399 10.0543 87.2144 10.8938 87.2144H8.89507C8.09558 87.2144 7.41602 87.8492 7.41602 88.6824V90.5472C7.41602 91.3407 8.05561 92.0152 8.89507 92.0152H10.8938C10.0943 92.0152 9.41473 92.6501 9.41473 93.4833V95.348C9.41473 96.1416 10.0543 96.8161 10.8938 96.8161H8.89507C8.09558 96.8161 7.41602 97.4509 7.41602 98.2841V100.149C7.41602 100.942 8.05561 101.617 8.89507 101.617H53.1467C53.9462 101.617 54.6258 100.982 54.6258 100.149V98.2841C54.6258 97.4906 53.9862 96.8161 53.1467 96.8161H55.1454C55.9449 96.8161 56.6245 96.1813 56.6245 95.348V93.4833C56.6245 92.6897 55.9849 92.0152 55.1454 92.0152H53.1467C53.9462 92.0152 54.6258 91.3804 54.6258 90.5472V88.6824C54.6258 87.8889 53.9862 87.2144 53.1467 87.2144H55.1454C55.9449 87.2144 56.6245 86.5796 56.6245 85.7464V83.8816C56.6245 83.0881 55.9849 82.4136 55.1454 82.4136H53.1467C53.9462 82.4136 54.6258 81.7788 54.6258 80.9456V79.0808C54.6258 78.2873 53.9862 77.6128 53.1467 77.6128H55.1454C55.9449 77.6128 56.6245 76.9779 56.6245 76.1447V74.28C56.6245 73.4864 55.9849 72.8119 55.1454 72.8119H53.1467C53.9462 72.8119 54.6258 72.1771 54.6258 71.3439V69.4791C54.6258 68.6856 53.9862 68.0111 53.1467 68.0111H55.1454C55.9449 68.0111 56.6245 67.3763 56.6245 66.5431V64.6783C56.6245 63.8848 55.9849 63.2103 55.1454 63.2103H53.1467C53.9462 63.2103 54.6258 62.5755 54.6258 61.7423V59.8775C54.6258 59.084 53.9862 58.4095 53.1467 58.4095H55.1454C55.9449 58.4095 56.6245 57.7746 56.6245 56.9414V55.0767C56.6245 54.2831 55.9849 53.6086 55.1454 53.6086H53.1467C53.9462 53.6086 54.6258 52.9738 54.6258 52.1406V50.2758C54.6258 49.4823 53.9862 48.8078 53.1467 48.8078H55.1454C55.9449 48.8078 56.6245 48.173 56.6245 47.3398V45.475C56.6245 44.6815 55.9849 44.007 55.1454 44.007H53.1467C53.9462 44.007 54.6258 43.3722 54.6258 42.539V40.6742C54.6258 39.8807 53.9862 39.2062 53.1467 39.2062H55.1454C55.9449 39.2062 56.6245 38.5713 56.6245 37.7381V35.8734C56.6245 35.0798 55.9849 34.4053 55.1454 34.4053H53.1467C53.9462 34.4053 54.6258 33.7705 54.6258 32.9373V31.0725C54.6258 30.279 53.9862 29.6045 53.1467 29.6045H55.1454C55.9449 29.6045 56.6245 28.9697 56.6245 28.1365V26.2717C56.6245 25.4782 55.9849 24.8037 55.1454 24.8037H53.1467C53.9462 24.8037 54.6258 24.1689 54.6258 23.3357V21.4709C54.6258 20.6774 53.9862 20.0029 53.1467 20.0029H55.1454C55.9449 20.0029 56.6245 19.368 56.6245 18.5348V16.6701C56.6245 15.8765 55.9849 15.202 55.1454 15.202H53.1467C53.9462 15.202 54.6258 14.5672 54.6258 13.734V11.8692C54.6258 11.0757 53.9862 10.4012 53.1467 10.4012H55.1454C55.9449 10.2425 56.5845 9.60769 56.5845 8.77449Z" fill="white"/>
<path d="M55.1071 20.0037H10.897C10.0975 20.0037 9.41797 19.3689 9.41797 18.5357V16.6709C9.41797 15.8774 10.0575 15.2029 10.897 15.2029H55.1471C55.9465 15.2029 56.6261 15.8377 56.6261 16.6709V18.5357C56.5861 19.3689 55.9465 20.0037 55.1071 20.0037Z" stroke="#DDDDDD" stroke-width="0.382721" stroke-miterlimit="10"/>
<path d="M53.1052 15.2029H8.89502C8.09556 15.2029 7.41602 14.5681 7.41602 13.7349V11.8701C7.41602 11.0766 8.05558 10.4021 8.89502 10.4021H53.1451C53.9446 10.4021 54.6241 11.0369 54.6241 11.8701V13.7349C54.5842 14.5681 53.9446 15.2029 53.1052 15.2029Z" stroke="#DDDDDD" stroke-width="0.382721" stroke-miterlimit="10"/>
<path d="M55.1071 10.4021H10.897C10.0975 10.4021 9.41797 9.76732 9.41797 8.93412V7.06934C9.41797 6.27581 10.0575 5.60132 10.897 5.60132H55.1471C55.9465 5.60132 56.6261 6.23614 56.6261 7.06934V8.93412C56.5861 9.76732 55.9465 10.4021 55.1071 10.4021Z" stroke="#DDDDDD" stroke-width="0.382721" stroke-miterlimit="10"/>
<path d="M53.1052 5.60039H8.89502C8.09556 5.60039 7.41602 4.96028 7.41602 4.12013V2.27981C7.41602 1.47968 8.05558 0.799561 8.89502 0.799561H53.1451C53.9446 0.799561 54.6241 1.43967 54.6241 2.27981V4.16014C54.5842 4.96028 53.9446 5.60039 53.1052 5.60039Z" stroke="#DDDDDD" stroke-width="0.382721" stroke-miterlimit="10"/>
<path d="M55.1071 39.2068H10.897C10.0975 39.2068 9.41797 38.572 9.41797 37.7388V35.874C9.41797 35.0805 10.0575 34.406 10.897 34.406H55.1471C55.9465 34.406 56.6261 35.0408 56.6261 35.874V37.7388C56.5861 38.572 55.9465 39.2068 55.1071 39.2068Z" stroke="#DDDDDD" stroke-width="0.382721" stroke-miterlimit="10"/>
<path d="M53.1052 34.406H8.89502C8.09556 34.406 7.41602 33.7712 7.41602 32.938V31.0732C7.41602 30.2797 8.05558 29.6052 8.89502 29.6052H53.1451C53.9446 29.6052 54.6241 30.24 54.6241 31.0732V32.938C54.5842 33.7712 53.9446 34.406 53.1052 34.406Z" stroke="#DDDDDD" stroke-width="0.382721" stroke-miterlimit="10"/>
<path d="M55.1071 29.6053H10.897C10.0975 29.6053 9.41797 28.9705 9.41797 28.1372V26.2725C9.41797 25.4789 10.0575 24.8044 10.897 24.8044H55.1471C55.9465 24.8044 56.6261 25.4393 56.6261 26.2725V28.1372C56.5861 28.9705 55.9465 29.6053 55.1071 29.6053Z" stroke="#DDDDDD" stroke-width="0.382721" stroke-miterlimit="10"/>
<path d="M53.1052 24.8045H8.89502C8.09556 24.8045 7.41602 24.1697 7.41602 23.3365V21.4717C7.41602 20.6782 8.05558 20.0037 8.89502 20.0037H53.1451C53.9446 20.0037 54.6241 20.6385 54.6241 21.4717V23.3365C54.5842 24.1697 53.9446 24.8045 53.1052 24.8045Z" stroke="#DDDDDD" stroke-width="0.382721" stroke-miterlimit="10"/>
<path d="M55.1071 58.4102H10.897C10.0975 58.4102 9.41797 57.7754 9.41797 56.9422V55.0774C9.41797 54.2839 10.0575 53.6094 10.897 53.6094H55.1471C55.9465 53.6094 56.6261 54.2442 56.6261 55.0774V56.9422C56.5861 57.7754 55.9465 58.4102 55.1071 58.4102Z" stroke="#DDDDDD" stroke-width="0.382721" stroke-miterlimit="10"/>
<path d="M53.1052 53.6094H8.89502C8.09556 53.6094 7.41602 52.9746 7.41602 52.1414V50.2766C7.41602 49.4831 8.05558 48.8086 8.89502 48.8086H53.1451C53.9446 48.8086 54.6241 49.4434 54.6241 50.2766V52.1414C54.5842 52.9746 53.9446 53.6094 53.1052 53.6094Z" stroke="#DDDDDD" stroke-width="0.382721" stroke-miterlimit="10"/>
<path d="M55.1071 48.8086H10.897C10.0975 48.8086 9.41797 48.1738 9.41797 47.3406V45.4758C9.41797 44.6823 10.0575 44.0078 10.897 44.0078H55.1471C55.9465 44.0078 56.6261 44.6426 56.6261 45.4758V47.3406C56.5861 48.1738 55.9465 48.8086 55.1071 48.8086Z" stroke="#DDDDDD" stroke-width="0.382721" stroke-miterlimit="10"/>
<path d="M53.1052 44.0076H8.89502C8.09556 44.0076 7.41602 43.3728 7.41602 42.5396V40.6748C7.41602 39.8813 8.05558 39.2068 8.89502 39.2068H53.1451C53.9446 39.2068 54.6241 39.8416 54.6241 40.6748V42.5396C54.5842 43.3728 53.9446 44.0076 53.1052 44.0076Z" stroke="#DDDDDD" stroke-width="0.382721" stroke-miterlimit="10"/>
<path d="M55.1071 77.6133H10.897C10.0975 77.6133 9.41797 76.9785 9.41797 76.1453V74.2805C9.41797 73.487 10.0575 72.8125 10.897 72.8125H55.1471C55.9465 72.8125 56.6261 73.4473 56.6261 74.2805V76.1453C56.5861 76.9785 55.9465 77.6133 55.1071 77.6133Z" stroke="#DDDDDD" stroke-width="0.382721" stroke-miterlimit="10"/>
<path d="M53.1052 72.8125H8.89502C8.09556 72.8125 7.41602 72.1777 7.41602 71.3445V69.4797C7.41602 68.6862 8.05558 68.0117 8.89502 68.0117H53.1451C53.9446 68.0117 54.6241 68.6465 54.6241 69.4797V71.3445C54.5842 72.1777 53.9446 72.8125 53.1052 72.8125Z" stroke="#DDDDDD" stroke-width="0.382721" stroke-miterlimit="10"/>
<path d="M55.1071 68.0118H10.897C10.0975 68.0118 9.41797 67.3769 9.41797 66.5437V64.679C9.41797 63.8854 10.0575 63.2109 10.897 63.2109H55.1471C55.9465 63.2109 56.6261 63.8458 56.6261 64.679V66.5437C56.5861 67.3769 55.9465 68.0118 55.1071 68.0118Z" stroke="#DDDDDD" stroke-width="0.382721" stroke-miterlimit="10"/>
<path d="M53.1052 63.211H8.89502C8.09556 63.211 7.41602 62.5762 7.41602 61.743V59.8782C7.41602 59.0847 8.05558 58.4102 8.89502 58.4102H53.1451C53.9446 58.4102 54.6241 59.045 54.6241 59.8782V61.743C54.5842 62.5762 53.9446 63.211 53.1052 63.211Z" stroke="#DDDDDD" stroke-width="0.382721" stroke-miterlimit="10"/>
<path d="M55.1071 87.2149H10.897C10.0975 87.2149 9.41797 86.5801 9.41797 85.7469V83.8821C9.41797 83.0886 10.0575 82.4141 10.897 82.4141H55.1471C55.9465 82.4141 56.6261 83.0489 56.6261 83.8821V85.7469C56.5861 86.5801 55.9465 87.2149 55.1071 87.2149Z" stroke="#DDDDDD" stroke-width="0.382721" stroke-miterlimit="10"/>
<path d="M53.1052 82.4141H8.89502C8.09556 82.4141 7.41602 81.7793 7.41602 80.9461V79.0813C7.41602 78.2878 8.05558 77.6133 8.89502 77.6133H53.1451C53.9446 77.6133 54.6241 78.2481 54.6241 79.0813V80.9461C54.5842 81.7793 53.9446 82.4141 53.1052 82.4141Z" stroke="#DDDDDD" stroke-width="0.382721" stroke-miterlimit="10"/>
<path d="M53.1052 101.618H8.89502C8.09556 101.618 7.41602 100.984 7.41602 100.15V98.2857C7.41602 97.4921 8.05558 96.8176 8.89502 96.8176H53.1451C53.9446 96.8176 54.6241 97.4525 54.6241 98.2857V100.15C54.5842 100.984 53.9446 101.618 53.1052 101.618Z" stroke="#DDDDDD" stroke-width="0.382721" stroke-miterlimit="10"/>
<path d="M55.1071 96.8165H10.897C10.0975 96.8165 9.41797 96.1816 9.41797 95.3484V93.4837C9.41797 92.6901 10.0575 92.0156 10.897 92.0156H55.1471C55.9465 92.0156 56.6261 92.6504 56.6261 93.4837V95.3484C56.5861 96.1816 55.9465 96.8165 55.1071 96.8165Z" stroke="#DDDDDD" stroke-width="0.382721" stroke-miterlimit="10"/>
<path d="M53.1052 92.0157H8.89502C8.09556 92.0157 7.41602 91.3808 7.41602 90.5476V88.6829C7.41602 87.8893 8.05558 87.2148 8.89502 87.2148H53.1451C53.9446 87.2148 54.6241 87.8497 54.6241 88.6829V90.5476C54.5842 91.3808 53.9446 92.0157 53.1052 92.0157Z" stroke="#DDDDDD" stroke-width="0.382721" stroke-miterlimit="10"/>
<path d="M7.33789 1.60034H54.306" stroke="#DDDDDD" stroke-width="0.191361" stroke-miterlimit="10"/>
<path d="M7.33789 4.80127H54.306" stroke="#DDDDDD" stroke-width="0.191361" stroke-miterlimit="10"/>
<path d="M8.37744 1.60034V4.80089" stroke="#DDDDDD" stroke-width="0.191361" stroke-miterlimit="10"/>
<path d="M9.97607 1.60059V4.80114" stroke="#DDDDDD" stroke-width="0.191361" stroke-miterlimit="10"/>
<path d="M11.5767 1.60059V4.80114" stroke="#DDDDDD" stroke-width="0.191361" stroke-miterlimit="10"/>
<path d="M13.1777 1.60059V4.80114" stroke="#DDDDDD" stroke-width="0.191361" stroke-miterlimit="10"/>
<path d="M14.7788 1.60059V4.80114" stroke="#DDDDDD" stroke-width="0.191361" stroke-miterlimit="10"/>
<path d="M16.3774 1.60059V4.80114" stroke="#DDDDDD" stroke-width="0.191361" stroke-miterlimit="10"/>
<path d="M17.9785 1.60059V4.80114" stroke="#DDDDDD" stroke-width="0.191361" stroke-miterlimit="10"/>
<path d="M19.5776 1.60059V4.80114" stroke="#DDDDDD" stroke-width="0.191361" stroke-miterlimit="10"/>
<path d="M21.1807 1.60059V4.80114" stroke="#DDDDDD" stroke-width="0.191361" stroke-miterlimit="10"/>
<path d="M22.7793 1.60059V4.80114" stroke="#DDDDDD" stroke-width="0.191361" stroke-miterlimit="10"/>
<path d="M24.3804 1.60059V4.80114" stroke="#DDDDDD" stroke-width="0.191361" stroke-miterlimit="10"/>
<path d="M25.979 1.60059V4.80114" stroke="#DDDDDD" stroke-width="0.191361" stroke-miterlimit="10"/>
<path d="M27.5781 1.60059V4.80114" stroke="#DDDDDD" stroke-width="0.191361" stroke-miterlimit="10"/>
<path d="M29.1812 1.60059V4.80114" stroke="#DDDDDD" stroke-width="0.191361" stroke-miterlimit="10"/>
<path d="M30.7798 1.60059V4.80114" stroke="#DDDDDD" stroke-width="0.191361" stroke-miterlimit="10"/>
<path d="M32.3809 1.60059V4.80114" stroke="#DDDDDD" stroke-width="0.191361" stroke-miterlimit="10"/>
<path d="M33.98 1.60059V4.80114" stroke="#DDDDDD" stroke-width="0.191361" stroke-miterlimit="10"/>
<path d="M35.5811 1.60059V4.80114" stroke="#DDDDDD" stroke-width="0.191361" stroke-miterlimit="10"/>
<path d="M37.1797 1.60059V4.80114" stroke="#DDDDDD" stroke-width="0.191361" stroke-miterlimit="10"/>
<path d="M38.7827 1.60059V4.80114" stroke="#DDDDDD" stroke-width="0.191361" stroke-miterlimit="10"/>
<path d="M40.3818 1.60059V4.80114" stroke="#DDDDDD" stroke-width="0.191361" stroke-miterlimit="10"/>
<path d="M41.9824 1.60059V4.80114" stroke="#DDDDDD" stroke-width="0.191361" stroke-miterlimit="10"/>
<path d="M43.5815 1.60059V4.80114" stroke="#DDDDDD" stroke-width="0.191361" stroke-miterlimit="10"/>
<path d="M45.1826 1.60059V4.80114" stroke="#DDDDDD" stroke-width="0.191361" stroke-miterlimit="10"/>
<path d="M46.7832 1.60059V4.80114" stroke="#DDDDDD" stroke-width="0.191361" stroke-miterlimit="10"/>
<path d="M48.3843 1.60059V4.80114" stroke="#DDDDDD" stroke-width="0.191361" stroke-miterlimit="10"/>
<path d="M49.9834 1.60059V4.80114" stroke="#DDDDDD" stroke-width="0.191361" stroke-miterlimit="10"/>
<path d="M51.584 1.60059V4.80114" stroke="#DDDDDD" stroke-width="0.191361" stroke-miterlimit="10"/>
<path d="M53.1831 1.60059V4.80114" stroke="#DDDDDD" stroke-width="0.191361" stroke-miterlimit="10"/>
<path d="M9.33789 6.40112H56.306" stroke="#DDDDDD" stroke-width="0.191361" stroke-miterlimit="10"/>
<path d="M9.33789 9.60205H56.306" stroke="#DDDDDD" stroke-width="0.191361" stroke-miterlimit="10"/>
<path d="M10.3774 6.40112V9.60167" stroke="#DDDDDD" stroke-width="0.191361" stroke-miterlimit="10"/>
<path d="M11.978 6.40137V9.60192" stroke="#DDDDDD" stroke-width="0.191361" stroke-miterlimit="10"/>
<path d="M13.5771 6.40137V9.60192" stroke="#DDDDDD" stroke-width="0.191361" stroke-miterlimit="10"/>
<path d="M15.1802 6.40137V9.60192" stroke="#DDDDDD" stroke-width="0.191361" stroke-miterlimit="10"/>
<path d="M16.7788 6.40137V9.60192" stroke="#DDDDDD" stroke-width="0.191361" stroke-miterlimit="10"/>
<path d="M18.3779 6.40137V9.60192" stroke="#DDDDDD" stroke-width="0.191361" stroke-miterlimit="10"/>
<path d="M19.9785 6.40137V9.60192" stroke="#DDDDDD" stroke-width="0.191361" stroke-miterlimit="10"/>
<path d="M21.5776 6.40137V9.60192" stroke="#DDDDDD" stroke-width="0.191361" stroke-miterlimit="10"/>
<path d="M23.1807 6.40137V9.60192" stroke="#DDDDDD" stroke-width="0.191361" stroke-miterlimit="10"/>
<path d="M24.7793 6.40137V9.60192" stroke="#DDDDDD" stroke-width="0.191361" stroke-miterlimit="10"/>
<path d="M26.3804 6.40137V9.60192" stroke="#DDDDDD" stroke-width="0.191361" stroke-miterlimit="10"/>
<path d="M27.9795 6.40137V9.60192" stroke="#DDDDDD" stroke-width="0.191361" stroke-miterlimit="10"/>
<path d="M29.5801 6.40137V9.60192" stroke="#DDDDDD" stroke-width="0.191361" stroke-miterlimit="10"/>
<path d="M31.1792 6.40137V9.60192" stroke="#DDDDDD" stroke-width="0.191361" stroke-miterlimit="10"/>
<path d="M32.7822 6.40137V9.60192" stroke="#DDDDDD" stroke-width="0.191361" stroke-miterlimit="10"/>
<path d="M34.3813 6.40137V9.60192" stroke="#DDDDDD" stroke-width="0.191361" stroke-miterlimit="10"/>
<path d="M35.9819 6.40137V9.60192" stroke="#DDDDDD" stroke-width="0.191361" stroke-miterlimit="10"/>
<path d="M37.5811 6.40137V9.60192" stroke="#DDDDDD" stroke-width="0.191361" stroke-miterlimit="10"/>
<path d="M39.1821 6.40137V9.60192" stroke="#DDDDDD" stroke-width="0.191361" stroke-miterlimit="10"/>
<path d="M40.7827 6.40137V9.60192" stroke="#DDDDDD" stroke-width="0.191361" stroke-miterlimit="10"/>
<path d="M42.3838 6.40137V9.60192" stroke="#DDDDDD" stroke-width="0.191361" stroke-miterlimit="10"/>
<path d="M43.9829 6.40137V9.60192" stroke="#DDDDDD" stroke-width="0.191361" stroke-miterlimit="10"/>
<path d="M45.5835 6.40137V9.60192" stroke="#DDDDDD" stroke-width="0.191361" stroke-miterlimit="10"/>
<path d="M47.1826 6.40137V9.60192" stroke="#DDDDDD" stroke-width="0.191361" stroke-miterlimit="10"/>
<path d="M48.7856 6.40137V9.60192" stroke="#DDDDDD" stroke-width="0.191361" stroke-miterlimit="10"/>
<path d="M50.3843 6.40137V9.60192" stroke="#DDDDDD" stroke-width="0.191361" stroke-miterlimit="10"/>
<path d="M51.9854 6.40137V9.60192" stroke="#DDDDDD" stroke-width="0.191361" stroke-miterlimit="10"/>
<path d="M53.5845 6.40137V9.60192" stroke="#DDDDDD" stroke-width="0.191361" stroke-miterlimit="10"/>
<path d="M55.1831 6.40137V9.60192" stroke="#DDDDDD" stroke-width="0.191361" stroke-miterlimit="10"/>
<path d="M7.33789 11.2H54.306" stroke="#DDDDDD" stroke-width="0.191361" stroke-miterlimit="10"/>
<path d="M7.33789 14.4006H54.306" stroke="#DDDDDD" stroke-width="0.191361" stroke-miterlimit="10"/>
<path d="M8.37695 11.1992V14.3998" stroke="#DDDDDD" stroke-width="0.191361" stroke-miterlimit="10"/>
<path d="M9.97607 11.2V14.4005" stroke="#DDDDDD" stroke-width="0.191361" stroke-miterlimit="10"/>
<path d="M11.5767 11.2V14.4005" stroke="#DDDDDD" stroke-width="0.191361" stroke-miterlimit="10"/>
<path d="M13.1777 11.2V14.4005" stroke="#DDDDDD" stroke-width="0.191361" stroke-miterlimit="10"/>
<path d="M14.7788 11.2V14.4005" stroke="#DDDDDD" stroke-width="0.191361" stroke-miterlimit="10"/>
<path d="M16.3774 11.2V14.4005" stroke="#DDDDDD" stroke-width="0.191361" stroke-miterlimit="10"/>
<path d="M17.9785 11.2V14.4005" stroke="#DDDDDD" stroke-width="0.191361" stroke-miterlimit="10"/>
<path d="M19.5776 11.2V14.4005" stroke="#DDDDDD" stroke-width="0.191361" stroke-miterlimit="10"/>
<path d="M21.1807 11.2V14.4005" stroke="#DDDDDD" stroke-width="0.191361" stroke-miterlimit="10"/>
<path d="M22.7793 11.2V14.4005" stroke="#DDDDDD" stroke-width="0.191361" stroke-miterlimit="10"/>
<path d="M24.3804 11.2V14.4005" stroke="#DDDDDD" stroke-width="0.191361" stroke-miterlimit="10"/>
<path d="M25.979 11.2V14.4005" stroke="#DDDDDD" stroke-width="0.191361" stroke-miterlimit="10"/>
<path d="M27.5781 11.2V14.4005" stroke="#DDDDDD" stroke-width="0.191361" stroke-miterlimit="10"/>
<path d="M29.1812 11.2V14.4005" stroke="#DDDDDD" stroke-width="0.191361" stroke-miterlimit="10"/>
<path d="M30.7798 11.2V14.4005" stroke="#DDDDDD" stroke-width="0.191361" stroke-miterlimit="10"/>
<path d="M32.3809 11.2V14.4005" stroke="#DDDDDD" stroke-width="0.191361" stroke-miterlimit="10"/>
<path d="M33.98 11.2V14.4005" stroke="#DDDDDD" stroke-width="0.191361" stroke-miterlimit="10"/>
<path d="M35.5811 11.2V14.4005" stroke="#DDDDDD" stroke-width="0.191361" stroke-miterlimit="10"/>
<path d="M37.1797 11.2V14.4005" stroke="#DDDDDD" stroke-width="0.191361" stroke-miterlimit="10"/>
<path d="M38.7827 11.2V14.4005" stroke="#DDDDDD" stroke-width="0.191361" stroke-miterlimit="10"/>
<path d="M40.3818 11.2V14.4005" stroke="#DDDDDD" stroke-width="0.191361" stroke-miterlimit="10"/>
<path d="M41.9824 11.2V14.4005" stroke="#DDDDDD" stroke-width="0.191361" stroke-miterlimit="10"/>
<path d="M43.5815 11.2V14.4005" stroke="#DDDDDD" stroke-width="0.191361" stroke-miterlimit="10"/>
<path d="M45.1826 11.2V14.4005" stroke="#DDDDDD" stroke-width="0.191361" stroke-miterlimit="10"/>
<path d="M46.7832 11.2V14.4005" stroke="#DDDDDD" stroke-width="0.191361" stroke-miterlimit="10"/>
<path d="M48.3843 11.2V14.4005" stroke="#DDDDDD" stroke-width="0.191361" stroke-miterlimit="10"/>
<path d="M49.9834 11.2V14.4005" stroke="#DDDDDD" stroke-width="0.191361" stroke-miterlimit="10"/>
<path d="M51.584 11.2V14.4005" stroke="#DDDDDD" stroke-width="0.191361" stroke-miterlimit="10"/>
<path d="M53.1831 11.2V14.4005" stroke="#DDDDDD" stroke-width="0.191361" stroke-miterlimit="10"/>
<path d="M9.33789 16.0049H56.306" stroke="#DDDDDD" stroke-width="0.191361" stroke-miterlimit="10"/>
<path d="M9.33789 19.2058H56.306" stroke="#DDDDDD" stroke-width="0.191361" stroke-miterlimit="10"/>
<path d="M10.3774 16.0049V19.2054" stroke="#DDDDDD" stroke-width="0.191361" stroke-miterlimit="10"/>
<path d="M11.978 16.0054V19.2059" stroke="#DDDDDD" stroke-width="0.191361" stroke-miterlimit="10"/>
<path d="M13.5771 16.0054V19.2059" stroke="#DDDDDD" stroke-width="0.191361" stroke-miterlimit="10"/>
<path d="M15.1802 16.0054V19.2059" stroke="#DDDDDD" stroke-width="0.191361" stroke-miterlimit="10"/>
<path d="M16.7788 16.0054V19.2059" stroke="#DDDDDD" stroke-width="0.191361" stroke-miterlimit="10"/>
<path d="M18.3779 16.0054V19.2059" stroke="#DDDDDD" stroke-width="0.191361" stroke-miterlimit="10"/>
<path d="M19.9785 16.0054V19.2059" stroke="#DDDDDD" stroke-width="0.191361" stroke-miterlimit="10"/>
<path d="M21.5776 16.0054V19.2059" stroke="#DDDDDD" stroke-width="0.191361" stroke-miterlimit="10"/>
<path d="M23.1807 16.0054V19.2059" stroke="#DDDDDD" stroke-width="0.191361" stroke-miterlimit="10"/>
<path d="M24.7793 16.0054V19.2059" stroke="#DDDDDD" stroke-width="0.191361" stroke-miterlimit="10"/>
<path d="M26.3804 16.0054V19.2059" stroke="#DDDDDD" stroke-width="0.191361" stroke-miterlimit="10"/>
<path d="M27.9795 16.0054V19.2059" stroke="#DDDDDD" stroke-width="0.191361" stroke-miterlimit="10"/>
<path d="M29.5801 16.0054V19.2059" stroke="#DDDDDD" stroke-width="0.191361" stroke-miterlimit="10"/>
<path d="M31.1792 16.0054V19.2059" stroke="#DDDDDD" stroke-width="0.191361" stroke-miterlimit="10"/>
<path d="M32.7822 16.0054V19.2059" stroke="#DDDDDD" stroke-width="0.191361" stroke-miterlimit="10"/>
<path d="M34.3813 16.0054V19.2059" stroke="#DDDDDD" stroke-width="0.191361" stroke-miterlimit="10"/>
<path d="M35.9819 16.0054V19.2059" stroke="#DDDDDD" stroke-width="0.191361" stroke-miterlimit="10"/>
<path d="M37.5811 16.0054V19.2059" stroke="#DDDDDD" stroke-width="0.191361" stroke-miterlimit="10"/>
<path d="M39.1821 16.0054V19.2059" stroke="#DDDDDD" stroke-width="0.191361" stroke-miterlimit="10"/>
<path d="M40.7827 16.0054V19.2059" stroke="#DDDDDD" stroke-width="0.191361" stroke-miterlimit="10"/>
<path d="M42.3838 16.0054V19.2059" stroke="#DDDDDD" stroke-width="0.191361" stroke-miterlimit="10"/>
<path d="M43.9829 16.0054V19.2059" stroke="#DDDDDD" stroke-width="0.191361" stroke-miterlimit="10"/>
<path d="M45.5835 16.0054V19.2059" stroke="#DDDDDD" stroke-width="0.191361" stroke-miterlimit="10"/>
<path d="M47.1826 16.0054V19.2059" stroke="#DDDDDD" stroke-width="0.191361" stroke-miterlimit="10"/>
<path d="M48.7856 16.0054V19.2059" stroke="#DDDDDD" stroke-width="0.191361" stroke-miterlimit="10"/>
<path d="M50.3843 16.0054V19.2059" stroke="#DDDDDD" stroke-width="0.191361" stroke-miterlimit="10"/>
<path d="M51.9854 16.0054V19.2059" stroke="#DDDDDD" stroke-width="0.191361" stroke-miterlimit="10"/>
<path d="M53.5845 16.0054V19.2059" stroke="#DDDDDD" stroke-width="0.191361" stroke-miterlimit="10"/>
<path d="M55.1831 16.0054V19.2059" stroke="#DDDDDD" stroke-width="0.191361" stroke-miterlimit="10"/>
<path d="M7.33789 20.8035H54.306" stroke="#DDDDDD" stroke-width="0.191361" stroke-miterlimit="10"/>
<path d="M7.33789 24.0044H54.306" stroke="#DDDDDD" stroke-width="0.191361" stroke-miterlimit="10"/>
<path d="M8.38086 20.804V24.0045" stroke="#DDDDDD" stroke-width="0.191361" stroke-miterlimit="10"/>
<path d="M9.97998 20.804V24.0045" stroke="#DDDDDD" stroke-width="0.191361" stroke-miterlimit="10"/>
<path d="M11.5806 20.804V24.0045" stroke="#DDDDDD" stroke-width="0.191361" stroke-miterlimit="10"/>
<path d="M13.1816 20.804V24.0045" stroke="#DDDDDD" stroke-width="0.191361" stroke-miterlimit="10"/>
<path d="M14.7827 20.804V24.0045" stroke="#DDDDDD" stroke-width="0.191361" stroke-miterlimit="10"/>
<path d="M16.3813 20.804V24.0045" stroke="#DDDDDD" stroke-width="0.191361" stroke-miterlimit="10"/>
<path d="M17.9824 20.804V24.0045" stroke="#DDDDDD" stroke-width="0.191361" stroke-miterlimit="10"/>
<path d="M19.5815 20.804V24.0045" stroke="#DDDDDD" stroke-width="0.191361" stroke-miterlimit="10"/>
<path d="M21.1846 20.804V24.0045" stroke="#DDDDDD" stroke-width="0.191361" stroke-miterlimit="10"/>
<path d="M22.7832 20.804V24.0045" stroke="#DDDDDD" stroke-width="0.191361" stroke-miterlimit="10"/>
<path d="M24.3843 20.804V24.0045" stroke="#DDDDDD" stroke-width="0.191361" stroke-miterlimit="10"/>
<path d="M25.9829 20.804V24.0045" stroke="#DDDDDD" stroke-width="0.191361" stroke-miterlimit="10"/>
<path d="M27.582 20.804V24.0045" stroke="#DDDDDD" stroke-width="0.191361" stroke-miterlimit="10"/>
<path d="M29.1831 20.804V24.0045" stroke="#DDDDDD" stroke-width="0.191361" stroke-miterlimit="10"/>
<path d="M30.7837 20.804V24.0045" stroke="#DDDDDD" stroke-width="0.191361" stroke-miterlimit="10"/>
<path d="M32.3848 20.804V24.0045" stroke="#DDDDDD" stroke-width="0.191361" stroke-miterlimit="10"/>
<path d="M33.9839 20.804V24.0045" stroke="#DDDDDD" stroke-width="0.191361" stroke-miterlimit="10"/>
<path d="M35.585 20.804V24.0045" stroke="#DDDDDD" stroke-width="0.191361" stroke-miterlimit="10"/>
<path d="M37.1836 20.804V24.0045" stroke="#DDDDDD" stroke-width="0.191361" stroke-miterlimit="10"/>
<path d="M38.7866 20.804V24.0045" stroke="#DDDDDD" stroke-width="0.191361" stroke-miterlimit="10"/>
<path d="M40.3857 20.804V24.0045" stroke="#DDDDDD" stroke-width="0.191361" stroke-miterlimit="10"/>
<path d="M41.9863 20.804V24.0045" stroke="#DDDDDD" stroke-width="0.191361" stroke-miterlimit="10"/>
<path d="M43.5854 20.804V24.0045" stroke="#DDDDDD" stroke-width="0.191361" stroke-miterlimit="10"/>
<path d="M45.1865 20.804V24.0045" stroke="#DDDDDD" stroke-width="0.191361" stroke-miterlimit="10"/>
<path d="M46.7871 20.804V24.0045" stroke="#DDDDDD" stroke-width="0.191361" stroke-miterlimit="10"/>
<path d="M48.3882 20.804V24.0045" stroke="#DDDDDD" stroke-width="0.191361" stroke-miterlimit="10"/>
<path d="M49.9873 20.804V24.0045" stroke="#DDDDDD" stroke-width="0.191361" stroke-miterlimit="10"/>
<path d="M51.5879 20.804V24.0045" stroke="#DDDDDD" stroke-width="0.191361" stroke-miterlimit="10"/>
<path d="M53.187 20.804V24.0045" stroke="#DDDDDD" stroke-width="0.191361" stroke-miterlimit="10"/>
<path d="M9.33789 25.6042H56.306" stroke="#DDDDDD" stroke-width="0.191361" stroke-miterlimit="10"/>
<path d="M9.33789 28.8052H56.306" stroke="#DDDDDD" stroke-width="0.191361" stroke-miterlimit="10"/>
<path d="M10.3774 25.6042V28.8048" stroke="#DDDDDD" stroke-width="0.191361" stroke-miterlimit="10"/>
<path d="M11.978 25.6047V28.8053" stroke="#DDDDDD" stroke-width="0.191361" stroke-miterlimit="10"/>
<path d="M13.5771 25.6047V28.8053" stroke="#DDDDDD" stroke-width="0.191361" stroke-miterlimit="10"/>
<path d="M15.1802 25.6047V28.8053" stroke="#DDDDDD" stroke-width="0.191361" stroke-miterlimit="10"/>
<path d="M16.7788 25.6047V28.8053" stroke="#DDDDDD" stroke-width="0.191361" stroke-miterlimit="10"/>
<path d="M18.3779 25.6047V28.8053" stroke="#DDDDDD" stroke-width="0.191361" stroke-miterlimit="10"/>
<path d="M19.9785 25.6047V28.8053" stroke="#DDDDDD" stroke-width="0.191361" stroke-miterlimit="10"/>
<path d="M21.5776 25.6047V28.8053" stroke="#DDDDDD" stroke-width="0.191361" stroke-miterlimit="10"/>
<path d="M23.1807 25.6047V28.8053" stroke="#DDDDDD" stroke-width="0.191361" stroke-miterlimit="10"/>
<path d="M24.7793 25.6047V28.8053" stroke="#DDDDDD" stroke-width="0.191361" stroke-miterlimit="10"/>
<path d="M26.3804 25.6047V28.8053" stroke="#DDDDDD" stroke-width="0.191361" stroke-miterlimit="10"/>
<path d="M27.9795 25.6047V28.8053" stroke="#DDDDDD" stroke-width="0.191361" stroke-miterlimit="10"/>
<path d="M29.5801 25.6047V28.8053" stroke="#DDDDDD" stroke-width="0.191361" stroke-miterlimit="10"/>
<path d="M31.1792 25.6047V28.8053" stroke="#DDDDDD" stroke-width="0.191361" stroke-miterlimit="10"/>
<path d="M32.7822 25.6047V28.8053" stroke="#DDDDDD" stroke-width="0.191361" stroke-miterlimit="10"/>
<path d="M34.3813 25.6047V28.8053" stroke="#DDDDDD" stroke-width="0.191361" stroke-miterlimit="10"/>
<path d="M35.9819 25.6047V28.8053" stroke="#DDDDDD" stroke-width="0.191361" stroke-miterlimit="10"/>
<path d="M37.5811 25.6047V28.8053" stroke="#DDDDDD" stroke-width="0.191361" stroke-miterlimit="10"/>
<path d="M39.1821 25.6047V28.8053" stroke="#DDDDDD" stroke-width="0.191361" stroke-miterlimit="10"/>
<path d="M40.7827 25.6047V28.8053" stroke="#DDDDDD" stroke-width="0.191361" stroke-miterlimit="10"/>
<path d="M42.3838 25.6047V28.8053" stroke="#DDDDDD" stroke-width="0.191361" stroke-miterlimit="10"/>
<path d="M43.9829 25.6047V28.8053" stroke="#DDDDDD" stroke-width="0.191361" stroke-miterlimit="10"/>
<path d="M45.5835 25.6047V28.8053" stroke="#DDDDDD" stroke-width="0.191361" stroke-miterlimit="10"/>
<path d="M47.1826 25.6047V28.8053" stroke="#DDDDDD" stroke-width="0.191361" stroke-miterlimit="10"/>
<path d="M48.7856 25.6047V28.8053" stroke="#DDDDDD" stroke-width="0.191361" stroke-miterlimit="10"/>
<path d="M50.3843 25.6047V28.8053" stroke="#DDDDDD" stroke-width="0.191361" stroke-miterlimit="10"/>
<path d="M51.9854 25.6047V28.8053" stroke="#DDDDDD" stroke-width="0.191361" stroke-miterlimit="10"/>
<path d="M53.5845 25.6047V28.8053" stroke="#DDDDDD" stroke-width="0.191361" stroke-miterlimit="10"/>
<path d="M55.1831 25.6047V28.8053" stroke="#DDDDDD" stroke-width="0.191361" stroke-miterlimit="10"/>
<path d="M7.33789 30.4053H54.306" stroke="#DDDDDD" stroke-width="0.191361" stroke-miterlimit="10"/>
<path d="M7.33789 33.6052H54.306" stroke="#DDDDDD" stroke-width="0.191361" stroke-miterlimit="10"/>
<path d="M8.37744 30.4058V33.6063" stroke="#DDDDDD" stroke-width="0.191361" stroke-miterlimit="10"/>
<path d="M9.97607 30.4053V33.6058" stroke="#DDDDDD" stroke-width="0.191361" stroke-miterlimit="10"/>
<path d="M11.5767 30.4053V33.6058" stroke="#DDDDDD" stroke-width="0.191361" stroke-miterlimit="10"/>
<path d="M13.1777 30.4053V33.6058" stroke="#DDDDDD" stroke-width="0.191361" stroke-miterlimit="10"/>
<path d="M14.7788 30.4053V33.6058" stroke="#DDDDDD" stroke-width="0.191361" stroke-miterlimit="10"/>
<path d="M16.3774 30.4053V33.6058" stroke="#DDDDDD" stroke-width="0.191361" stroke-miterlimit="10"/>
<path d="M17.9785 30.4053V33.6058" stroke="#DDDDDD" stroke-width="0.191361" stroke-miterlimit="10"/>
<path d="M19.5776 30.4053V33.6058" stroke="#DDDDDD" stroke-width="0.191361" stroke-miterlimit="10"/>
<path d="M21.1807 30.4053V33.6058" stroke="#DDDDDD" stroke-width="0.191361" stroke-miterlimit="10"/>
<path d="M22.7793 30.4053V33.6058" stroke="#DDDDDD" stroke-width="0.191361" stroke-miterlimit="10"/>
<path d="M24.3804 30.4053V33.6058" stroke="#DDDDDD" stroke-width="0.191361" stroke-miterlimit="10"/>
<path d="M25.979 30.4053V33.6058" stroke="#DDDDDD" stroke-width="0.191361" stroke-miterlimit="10"/>
<path d="M27.5781 30.4053V33.6058" stroke="#DDDDDD" stroke-width="0.191361" stroke-miterlimit="10"/>
<path d="M29.1812 30.4053V33.6058" stroke="#DDDDDD" stroke-width="0.191361" stroke-miterlimit="10"/>
<path d="M30.7798 30.4053V33.6058" stroke="#DDDDDD" stroke-width="0.191361" stroke-miterlimit="10"/>
<path d="M32.3809 30.4053V33.6058" stroke="#DDDDDD" stroke-width="0.191361" stroke-miterlimit="10"/>
<path d="M33.98 30.4053V33.6058" stroke="#DDDDDD" stroke-width="0.191361" stroke-miterlimit="10"/>
<path d="M35.5811 30.4053V33.6058" stroke="#DDDDDD" stroke-width="0.191361" stroke-miterlimit="10"/>
<path d="M37.1797 30.4053V33.6058" stroke="#DDDDDD" stroke-width="0.191361" stroke-miterlimit="10"/>
<path d="M38.7827 30.4053V33.6058" stroke="#DDDDDD" stroke-width="0.191361" stroke-miterlimit="10"/>
<path d="M40.3818 30.4053V33.6058" stroke="#DDDDDD" stroke-width="0.191361" stroke-miterlimit="10"/>
<path d="M41.9824 30.4053V33.6058" stroke="#DDDDDD" stroke-width="0.191361" stroke-miterlimit="10"/>
<path d="M43.5815 30.4053V33.6058" stroke="#DDDDDD" stroke-width="0.191361" stroke-miterlimit="10"/>
<path d="M45.1826 30.4053V33.6058" stroke="#DDDDDD" stroke-width="0.191361" stroke-miterlimit="10"/>
<path d="M46.7832 30.4053V33.6058" stroke="#DDDDDD" stroke-width="0.191361" stroke-miterlimit="10"/>
<path d="M48.3843 30.4053V33.6058" stroke="#DDDDDD" stroke-width="0.191361" stroke-miterlimit="10"/>
<path d="M49.9834 30.4053V33.6058" stroke="#DDDDDD" stroke-width="0.191361" stroke-miterlimit="10"/>
<path d="M51.584 30.4053V33.6058" stroke="#DDDDDD" stroke-width="0.191361" stroke-miterlimit="10"/>
<path d="M53.1831 30.4053V33.6058" stroke="#DDDDDD" stroke-width="0.191361" stroke-miterlimit="10"/>
<path d="M9.3374 35.207H56.3055" stroke="#DDDDDD" stroke-width="0.191361" stroke-miterlimit="10"/>
<path d="M9.3374 38.408H56.3055" stroke="#DDDDDD" stroke-width="0.191361" stroke-miterlimit="10"/>
<path d="M10.377 35.2075V38.4081" stroke="#DDDDDD" stroke-width="0.191361" stroke-miterlimit="10"/>
<path d="M11.9775 35.207V38.4076" stroke="#DDDDDD" stroke-width="0.191361" stroke-miterlimit="10"/>
<path d="M13.5767 35.207V38.4076" stroke="#DDDDDD" stroke-width="0.191361" stroke-miterlimit="10"/>
<path d="M15.1797 35.207V38.4076" stroke="#DDDDDD" stroke-width="0.191361" stroke-miterlimit="10"/>
<path d="M16.7783 35.207V38.4076" stroke="#DDDDDD" stroke-width="0.191361" stroke-miterlimit="10"/>
<path d="M18.3774 35.207V38.4076" stroke="#DDDDDD" stroke-width="0.191361" stroke-miterlimit="10"/>
<path d="M19.978 35.207V38.4076" stroke="#DDDDDD" stroke-width="0.191361" stroke-miterlimit="10"/>
<path d="M21.5771 35.207V38.4076" stroke="#DDDDDD" stroke-width="0.191361" stroke-miterlimit="10"/>
<path d="M23.1802 35.207V38.4076" stroke="#DDDDDD" stroke-width="0.191361" stroke-miterlimit="10"/>
<path d="M24.7788 35.207V38.4076" stroke="#DDDDDD" stroke-width="0.191361" stroke-miterlimit="10"/>
<path d="M26.3799 35.207V38.4076" stroke="#DDDDDD" stroke-width="0.191361" stroke-miterlimit="10"/>
<path d="M27.979 35.207V38.4076" stroke="#DDDDDD" stroke-width="0.191361" stroke-miterlimit="10"/>
<path d="M29.5801 35.207V38.4076" stroke="#DDDDDD" stroke-width="0.191361" stroke-miterlimit="10"/>
<path d="M31.1787 35.207V38.4076" stroke="#DDDDDD" stroke-width="0.191361" stroke-miterlimit="10"/>
<path d="M32.7817 35.207V38.4076" stroke="#DDDDDD" stroke-width="0.191361" stroke-miterlimit="10"/>
<path d="M34.3809 35.207V38.4076" stroke="#DDDDDD" stroke-width="0.191361" stroke-miterlimit="10"/>
<path d="M35.9814 35.207V38.4076" stroke="#DDDDDD" stroke-width="0.191361" stroke-miterlimit="10"/>
<path d="M37.5806 35.207V38.4076" stroke="#DDDDDD" stroke-width="0.191361" stroke-miterlimit="10"/>
<path d="M39.1816 35.207V38.4076" stroke="#DDDDDD" stroke-width="0.191361" stroke-miterlimit="10"/>
<path d="M40.7822 35.207V38.4076" stroke="#DDDDDD" stroke-width="0.191361" stroke-miterlimit="10"/>
<path d="M42.3833 35.207V38.4076" stroke="#DDDDDD" stroke-width="0.191361" stroke-miterlimit="10"/>
<path d="M43.9824 35.207V38.4076" stroke="#DDDDDD" stroke-width="0.191361" stroke-miterlimit="10"/>
<path d="M45.583 35.207V38.4076" stroke="#DDDDDD" stroke-width="0.191361" stroke-miterlimit="10"/>
<path d="M47.1821 35.207V38.4076" stroke="#DDDDDD" stroke-width="0.191361" stroke-miterlimit="10"/>
<path d="M48.7852 35.207V38.4076" stroke="#DDDDDD" stroke-width="0.191361" stroke-miterlimit="10"/>
<path d="M50.3838 35.207V38.4076" stroke="#DDDDDD" stroke-width="0.191361" stroke-miterlimit="10"/>
<path d="M51.9849 35.207V38.4076" stroke="#DDDDDD" stroke-width="0.191361" stroke-miterlimit="10"/>
<path d="M53.584 35.207V38.4076" stroke="#DDDDDD" stroke-width="0.191361" stroke-miterlimit="10"/>
<path d="M55.1826 35.207V38.4076" stroke="#DDDDDD" stroke-width="0.191361" stroke-miterlimit="10"/>
<path d="M7.33789 40.0078H54.306" stroke="#DDDDDD" stroke-width="0.191361" stroke-miterlimit="10"/>
<path d="M7.33789 43.2078H54.306" stroke="#DDDDDD" stroke-width="0.191361" stroke-miterlimit="10"/>
<path d="M8.38086 40.0073V43.2079" stroke="#DDDDDD" stroke-width="0.191361" stroke-miterlimit="10"/>
<path d="M9.97998 40.0073V43.2079" stroke="#DDDDDD" stroke-width="0.191361" stroke-miterlimit="10"/>
<path d="M11.5806 40.0073V43.2079" stroke="#DDDDDD" stroke-width="0.191361" stroke-miterlimit="10"/>
<path d="M13.1816 40.0073V43.2079" stroke="#DDDDDD" stroke-width="0.191361" stroke-miterlimit="10"/>
<path d="M14.7827 40.0073V43.2079" stroke="#DDDDDD" stroke-width="0.191361" stroke-miterlimit="10"/>
<path d="M16.3813 40.0073V43.2079" stroke="#DDDDDD" stroke-width="0.191361" stroke-miterlimit="10"/>
<path d="M17.9824 40.0073V43.2079" stroke="#DDDDDD" stroke-width="0.191361" stroke-miterlimit="10"/>
<path d="M19.5815 40.0073V43.2079" stroke="#DDDDDD" stroke-width="0.191361" stroke-miterlimit="10"/>
<path d="M21.1846 40.0073V43.2079" stroke="#DDDDDD" stroke-width="0.191361" stroke-miterlimit="10"/>
<path d="M22.7832 40.0073V43.2079" stroke="#DDDDDD" stroke-width="0.191361" stroke-miterlimit="10"/>
<path d="M24.3843 40.0073V43.2079" stroke="#DDDDDD" stroke-width="0.191361" stroke-miterlimit="10"/>
<path d="M25.9829 40.0073V43.2079" stroke="#DDDDDD" stroke-width="0.191361" stroke-miterlimit="10"/>
<path d="M27.582 40.0073V43.2079" stroke="#DDDDDD" stroke-width="0.191361" stroke-miterlimit="10"/>
<path d="M29.1831 40.0073V43.2079" stroke="#DDDDDD" stroke-width="0.191361" stroke-miterlimit="10"/>
<path d="M30.7837 40.0073V43.2079" stroke="#DDDDDD" stroke-width="0.191361" stroke-miterlimit="10"/>
<path d="M32.3848 40.0073V43.2079" stroke="#DDDDDD" stroke-width="0.191361" stroke-miterlimit="10"/>
<path d="M33.9839 40.0073V43.2079" stroke="#DDDDDD" stroke-width="0.191361" stroke-miterlimit="10"/>
<path d="M35.585 40.0073V43.2079" stroke="#DDDDDD" stroke-width="0.191361" stroke-miterlimit="10"/>
<path d="M37.1836 40.0073V43.2079" stroke="#DDDDDD" stroke-width="0.191361" stroke-miterlimit="10"/>
<path d="M38.7866 40.0073V43.2079" stroke="#DDDDDD" stroke-width="0.191361" stroke-miterlimit="10"/>
<path d="M40.3857 40.0073V43.2079" stroke="#DDDDDD" stroke-width="0.191361" stroke-miterlimit="10"/>
<path d="M41.9863 40.0073V43.2079" stroke="#DDDDDD" stroke-width="0.191361" stroke-miterlimit="10"/>
<path d="M43.5854 40.0073V43.2079" stroke="#DDDDDD" stroke-width="0.191361" stroke-miterlimit="10"/>
<path d="M45.1865 40.0073V43.2079" stroke="#DDDDDD" stroke-width="0.191361" stroke-miterlimit="10"/>
<path d="M46.7871 40.0073V43.2079" stroke="#DDDDDD" stroke-width="0.191361" stroke-miterlimit="10"/>
<path d="M48.3882 40.0073V43.2079" stroke="#DDDDDD" stroke-width="0.191361" stroke-miterlimit="10"/>
<path d="M49.9873 40.0073V43.2079" stroke="#DDDDDD" stroke-width="0.191361" stroke-miterlimit="10"/>
<path d="M51.5879 40.0073V43.2079" stroke="#DDDDDD" stroke-width="0.191361" stroke-miterlimit="10"/>
<path d="M53.187 40.0073V43.2079" stroke="#DDDDDD" stroke-width="0.191361" stroke-miterlimit="10"/>
<path d="M9.33789 44.8057H56.306" stroke="#DDDDDD" stroke-width="0.191361" stroke-miterlimit="10"/>
<path d="M9.33789 48.0066H56.306" stroke="#DDDDDD" stroke-width="0.191361" stroke-miterlimit="10"/>
<path d="M10.3779 44.8057V48.0062" stroke="#DDDDDD" stroke-width="0.191361" stroke-miterlimit="10"/>
<path d="M11.9771 44.8062V48.0067" stroke="#DDDDDD" stroke-width="0.191361" stroke-miterlimit="10"/>
<path d="M13.5776 44.8062V48.0067" stroke="#DDDDDD" stroke-width="0.191361" stroke-miterlimit="10"/>
<path d="M15.1787 44.8062V48.0067" stroke="#DDDDDD" stroke-width="0.191361" stroke-miterlimit="10"/>
<path d="M16.7798 44.8062V48.0067" stroke="#DDDDDD" stroke-width="0.191361" stroke-miterlimit="10"/>
<path d="M18.3784 44.8062V48.0067" stroke="#DDDDDD" stroke-width="0.191361" stroke-miterlimit="10"/>
<path d="M19.9795 44.8062V48.0067" stroke="#DDDDDD" stroke-width="0.191361" stroke-miterlimit="10"/>
<path d="M21.5786 44.8062V48.0067" stroke="#DDDDDD" stroke-width="0.191361" stroke-miterlimit="10"/>
<path d="M23.1816 44.8062V48.0067" stroke="#DDDDDD" stroke-width="0.191361" stroke-miterlimit="10"/>
<path d="M24.7803 44.8062V48.0067" stroke="#DDDDDD" stroke-width="0.191361" stroke-miterlimit="10"/>
<path d="M26.3813 44.8062V48.0067" stroke="#DDDDDD" stroke-width="0.191361" stroke-miterlimit="10"/>
<path d="M27.98 44.8062V48.0067" stroke="#DDDDDD" stroke-width="0.191361" stroke-miterlimit="10"/>
<path d="M29.5811 44.8062V48.0067" stroke="#DDDDDD" stroke-width="0.191361" stroke-miterlimit="10"/>
<path d="M31.1802 44.8062V48.0067" stroke="#DDDDDD" stroke-width="0.191361" stroke-miterlimit="10"/>
<path d="M32.7832 44.8062V48.0067" stroke="#DDDDDD" stroke-width="0.191361" stroke-miterlimit="10"/>
<path d="M34.3818 44.8062V48.0067" stroke="#DDDDDD" stroke-width="0.191361" stroke-miterlimit="10"/>
<path d="M35.9829 44.8062V48.0067" stroke="#DDDDDD" stroke-width="0.191361" stroke-miterlimit="10"/>
<path d="M37.582 44.8062V48.0067" stroke="#DDDDDD" stroke-width="0.191361" stroke-miterlimit="10"/>
<path d="M39.1826 44.8062V48.0067" stroke="#DDDDDD" stroke-width="0.191361" stroke-miterlimit="10"/>
<path d="M40.7837 44.8062V48.0067" stroke="#DDDDDD" stroke-width="0.191361" stroke-miterlimit="10"/>
<path d="M42.3848 44.8062V48.0067" stroke="#DDDDDD" stroke-width="0.191361" stroke-miterlimit="10"/>
<path d="M43.9834 44.8062V48.0067" stroke="#DDDDDD" stroke-width="0.191361" stroke-miterlimit="10"/>
<path d="M45.5845 44.8062V48.0067" stroke="#DDDDDD" stroke-width="0.191361" stroke-miterlimit="10"/>
<path d="M47.1836 44.8062V48.0067" stroke="#DDDDDD" stroke-width="0.191361" stroke-miterlimit="10"/>
<path d="M48.7842 44.8062V48.0067" stroke="#DDDDDD" stroke-width="0.191361" stroke-miterlimit="10"/>
<path d="M50.3853 44.8062V48.0067" stroke="#DDDDDD" stroke-width="0.191361" stroke-miterlimit="10"/>
<path d="M51.9844 44.8062V48.0067" stroke="#DDDDDD" stroke-width="0.191361" stroke-miterlimit="10"/>
<path d="M53.585 44.8062V48.0067" stroke="#DDDDDD" stroke-width="0.191361" stroke-miterlimit="10"/>
<path d="M55.1841 44.8062V48.0067" stroke="#DDDDDD" stroke-width="0.191361" stroke-miterlimit="10"/>
<path d="M7.33789 49.6106H54.306" stroke="#DDDDDD" stroke-width="0.191361" stroke-miterlimit="10"/>
<path d="M7.33789 52.8115H54.306" stroke="#DDDDDD" stroke-width="0.191361" stroke-miterlimit="10"/>
<path d="M8.37744 49.6106V52.8111" stroke="#DDDDDD" stroke-width="0.191361" stroke-miterlimit="10"/>
<path d="M9.97607 49.6111V52.8116" stroke="#DDDDDD" stroke-width="0.191361" stroke-miterlimit="10"/>
<path d="M11.5767 49.6111V52.8116" stroke="#DDDDDD" stroke-width="0.191361" stroke-miterlimit="10"/>
<path d="M13.1777 49.6111V52.8116" stroke="#DDDDDD" stroke-width="0.191361" stroke-miterlimit="10"/>
<path d="M14.7788 49.6111V52.8116" stroke="#DDDDDD" stroke-width="0.191361" stroke-miterlimit="10"/>
<path d="M16.3774 49.6111V52.8116" stroke="#DDDDDD" stroke-width="0.191361" stroke-miterlimit="10"/>
<path d="M17.9785 49.6111V52.8116" stroke="#DDDDDD" stroke-width="0.191361" stroke-miterlimit="10"/>
<path d="M19.5776 49.6111V52.8116" stroke="#DDDDDD" stroke-width="0.191361" stroke-miterlimit="10"/>
<path d="M21.1807 49.6111V52.8116" stroke="#DDDDDD" stroke-width="0.191361" stroke-miterlimit="10"/>
<path d="M22.7793 49.6111V52.8116" stroke="#DDDDDD" stroke-width="0.191361" stroke-miterlimit="10"/>
<path d="M24.3804 49.6111V52.8116" stroke="#DDDDDD" stroke-width="0.191361" stroke-miterlimit="10"/>
<path d="M25.979 49.6111V52.8116" stroke="#DDDDDD" stroke-width="0.191361" stroke-miterlimit="10"/>
<path d="M27.5781 49.6111V52.8116" stroke="#DDDDDD" stroke-width="0.191361" stroke-miterlimit="10"/>
<path d="M29.1812 49.6111V52.8116" stroke="#DDDDDD" stroke-width="0.191361" stroke-miterlimit="10"/>
<path d="M30.7798 49.6111V52.8116" stroke="#DDDDDD" stroke-width="0.191361" stroke-miterlimit="10"/>
<path d="M32.3809 49.6111V52.8116" stroke="#DDDDDD" stroke-width="0.191361" stroke-miterlimit="10"/>
<path d="M33.98 49.6111V52.8116" stroke="#DDDDDD" stroke-width="0.191361" stroke-miterlimit="10"/>
<path d="M35.5811 49.6111V52.8116" stroke="#DDDDDD" stroke-width="0.191361" stroke-miterlimit="10"/>
<path d="M37.1797 49.6111V52.8116" stroke="#DDDDDD" stroke-width="0.191361" stroke-miterlimit="10"/>
<path d="M38.7827 49.6111V52.8116" stroke="#DDDDDD" stroke-width="0.191361" stroke-miterlimit="10"/>
<path d="M40.3818 49.6111V52.8116" stroke="#DDDDDD" stroke-width="0.191361" stroke-miterlimit="10"/>
<path d="M41.9824 49.6111V52.8116" stroke="#DDDDDD" stroke-width="0.191361" stroke-miterlimit="10"/>
<path d="M43.5815 49.6111V52.8116" stroke="#DDDDDD" stroke-width="0.191361" stroke-miterlimit="10"/>
<path d="M45.1826 49.6111V52.8116" stroke="#DDDDDD" stroke-width="0.191361" stroke-miterlimit="10"/>
<path d="M46.7832 49.6111V52.8116" stroke="#DDDDDD" stroke-width="0.191361" stroke-miterlimit="10"/>
<path d="M48.3843 49.6111V52.8116" stroke="#DDDDDD" stroke-width="0.191361" stroke-miterlimit="10"/>
<path d="M49.9834 49.6111V52.8116" stroke="#DDDDDD" stroke-width="0.191361" stroke-miterlimit="10"/>
<path d="M51.584 49.6111V52.8116" stroke="#DDDDDD" stroke-width="0.191361" stroke-miterlimit="10"/>
<path d="M53.1831 49.6111V52.8116" stroke="#DDDDDD" stroke-width="0.191361" stroke-miterlimit="10"/>
<path d="M9.3374 54.4106H56.3055" stroke="#DDDDDD" stroke-width="0.191361" stroke-miterlimit="10"/>
<path d="M9.3374 57.6116H56.3055" stroke="#DDDDDD" stroke-width="0.191361" stroke-miterlimit="10"/>
<path d="M10.377 54.4111V57.6117" stroke="#DDDDDD" stroke-width="0.191361" stroke-miterlimit="10"/>
<path d="M11.9775 54.4106V57.6112" stroke="#DDDDDD" stroke-width="0.191361" stroke-miterlimit="10"/>
<path d="M13.5767 54.4106V57.6112" stroke="#DDDDDD" stroke-width="0.191361" stroke-miterlimit="10"/>
<path d="M15.1797 54.4106V57.6112" stroke="#DDDDDD" stroke-width="0.191361" stroke-miterlimit="10"/>
<path d="M16.7783 54.4106V57.6112" stroke="#DDDDDD" stroke-width="0.191361" stroke-miterlimit="10"/>
<path d="M18.3774 54.4106V57.6112" stroke="#DDDDDD" stroke-width="0.191361" stroke-miterlimit="10"/>
<path d="M19.978 54.4106V57.6112" stroke="#DDDDDD" stroke-width="0.191361" stroke-miterlimit="10"/>
<path d="M21.5771 54.4106V57.6112" stroke="#DDDDDD" stroke-width="0.191361" stroke-miterlimit="10"/>
<path d="M23.1802 54.4106V57.6112" stroke="#DDDDDD" stroke-width="0.191361" stroke-miterlimit="10"/>
<path d="M24.7788 54.4106V57.6112" stroke="#DDDDDD" stroke-width="0.191361" stroke-miterlimit="10"/>
<path d="M26.3799 54.4106V57.6112" stroke="#DDDDDD" stroke-width="0.191361" stroke-miterlimit="10"/>
<path d="M27.979 54.4106V57.6112" stroke="#DDDDDD" stroke-width="0.191361" stroke-miterlimit="10"/>
<path d="M29.5801 54.4106V57.6112" stroke="#DDDDDD" stroke-width="0.191361" stroke-miterlimit="10"/>
<path d="M31.1787 54.4106V57.6112" stroke="#DDDDDD" stroke-width="0.191361" stroke-miterlimit="10"/>
<path d="M32.7817 54.4106V57.6112" stroke="#DDDDDD" stroke-width="0.191361" stroke-miterlimit="10"/>
<path d="M34.3809 54.4106V57.6112" stroke="#DDDDDD" stroke-width="0.191361" stroke-miterlimit="10"/>
<path d="M35.9814 54.4106V57.6112" stroke="#DDDDDD" stroke-width="0.191361" stroke-miterlimit="10"/>
<path d="M37.5806 54.4106V57.6112" stroke="#DDDDDD" stroke-width="0.191361" stroke-miterlimit="10"/>
<path d="M39.1816 54.4106V57.6112" stroke="#DDDDDD" stroke-width="0.191361" stroke-miterlimit="10"/>
<path d="M40.7822 54.4106V57.6112" stroke="#DDDDDD" stroke-width="0.191361" stroke-miterlimit="10"/>
<path d="M42.3833 54.4106V57.6112" stroke="#DDDDDD" stroke-width="0.191361" stroke-miterlimit="10"/>
<path d="M43.9824 54.4106V57.6112" stroke="#DDDDDD" stroke-width="0.191361" stroke-miterlimit="10"/>
<path d="M45.583 54.4106V57.6112" stroke="#DDDDDD" stroke-width="0.191361" stroke-miterlimit="10"/>
<path d="M47.1821 54.4106V57.6112" stroke="#DDDDDD" stroke-width="0.191361" stroke-miterlimit="10"/>
<path d="M48.7852 54.4106V57.6112" stroke="#DDDDDD" stroke-width="0.191361" stroke-miterlimit="10"/>
<path d="M50.3838 54.4106V57.6112" stroke="#DDDDDD" stroke-width="0.191361" stroke-miterlimit="10"/>
<path d="M51.9849 54.4106V57.6112" stroke="#DDDDDD" stroke-width="0.191361" stroke-miterlimit="10"/>
<path d="M53.584 54.4106V57.6112" stroke="#DDDDDD" stroke-width="0.191361" stroke-miterlimit="10"/>
<path d="M55.1826 54.4106V57.6112" stroke="#DDDDDD" stroke-width="0.191361" stroke-miterlimit="10"/>
<path d="M7.33789 59.2102H54.306" stroke="#DDDDDD" stroke-width="0.191361" stroke-miterlimit="10"/>
<path d="M7.33789 62.4111H54.306" stroke="#DDDDDD" stroke-width="0.191361" stroke-miterlimit="10"/>
<path d="M8.37744 59.2102V62.4108" stroke="#DDDDDD" stroke-width="0.191361" stroke-miterlimit="10"/>
<path d="M9.97607 59.2107V62.4112" stroke="#DDDDDD" stroke-width="0.191361" stroke-miterlimit="10"/>
<path d="M11.5767 59.2107V62.4112" stroke="#DDDDDD" stroke-width="0.191361" stroke-miterlimit="10"/>
<path d="M13.1777 59.2107V62.4112" stroke="#DDDDDD" stroke-width="0.191361" stroke-miterlimit="10"/>
<path d="M14.7788 59.2107V62.4112" stroke="#DDDDDD" stroke-width="0.191361" stroke-miterlimit="10"/>
<path d="M16.3774 59.2107V62.4112" stroke="#DDDDDD" stroke-width="0.191361" stroke-miterlimit="10"/>
<path d="M17.9785 59.2107V62.4112" stroke="#DDDDDD" stroke-width="0.191361" stroke-miterlimit="10"/>
<path d="M19.5776 59.2107V62.4112" stroke="#DDDDDD" stroke-width="0.191361" stroke-miterlimit="10"/>
<path d="M21.1807 59.2107V62.4112" stroke="#DDDDDD" stroke-width="0.191361" stroke-miterlimit="10"/>
<path d="M22.7793 59.2107V62.4112" stroke="#DDDDDD" stroke-width="0.191361" stroke-miterlimit="10"/>
<path d="M24.3804 59.2107V62.4112" stroke="#DDDDDD" stroke-width="0.191361" stroke-miterlimit="10"/>
<path d="M25.979 59.2107V62.4112" stroke="#DDDDDD" stroke-width="0.191361" stroke-miterlimit="10"/>
<path d="M27.5781 59.2107V62.4112" stroke="#DDDDDD" stroke-width="0.191361" stroke-miterlimit="10"/>
<path d="M29.1812 59.2107V62.4112" stroke="#DDDDDD" stroke-width="0.191361" stroke-miterlimit="10"/>
<path d="M30.7798 59.2107V62.4112" stroke="#DDDDDD" stroke-width="0.191361" stroke-miterlimit="10"/>
<path d="M32.3809 59.2107V62.4112" stroke="#DDDDDD" stroke-width="0.191361" stroke-miterlimit="10"/>
<path d="M33.98 59.2107V62.4112" stroke="#DDDDDD" stroke-width="0.191361" stroke-miterlimit="10"/>
<path d="M35.5811 59.2107V62.4112" stroke="#DDDDDD" stroke-width="0.191361" stroke-miterlimit="10"/>
<path d="M37.1797 59.2107V62.4112" stroke="#DDDDDD" stroke-width="0.191361" stroke-miterlimit="10"/>
<path d="M38.7827 59.2107V62.4112" stroke="#DDDDDD" stroke-width="0.191361" stroke-miterlimit="10"/>
<path d="M40.3818 59.2107V62.4112" stroke="#DDDDDD" stroke-width="0.191361" stroke-miterlimit="10"/>
<path d="M41.9824 59.2107V62.4112" stroke="#DDDDDD" stroke-width="0.191361" stroke-miterlimit="10"/>
<path d="M43.5815 59.2107V62.4112" stroke="#DDDDDD" stroke-width="0.191361" stroke-miterlimit="10"/>
<path d="M45.1826 59.2107V62.4112" stroke="#DDDDDD" stroke-width="0.191361" stroke-miterlimit="10"/>
<path d="M46.7832 59.2107V62.4112" stroke="#DDDDDD" stroke-width="0.191361" stroke-miterlimit="10"/>
<path d="M48.3843 59.2107V62.4112" stroke="#DDDDDD" stroke-width="0.191361" stroke-miterlimit="10"/>
<path d="M49.9834 59.2107V62.4112" stroke="#DDDDDD" stroke-width="0.191361" stroke-miterlimit="10"/>
<path d="M51.584 59.2107V62.4112" stroke="#DDDDDD" stroke-width="0.191361" stroke-miterlimit="10"/>
<path d="M53.1831 59.2107V62.4112" stroke="#DDDDDD" stroke-width="0.191361" stroke-miterlimit="10"/>
<path d="M9.3374 64.0122H56.3055" stroke="#DDDDDD" stroke-width="0.191361" stroke-miterlimit="10"/>
<path d="M9.3374 67.2131H56.3055" stroke="#DDDDDD" stroke-width="0.191361" stroke-miterlimit="10"/>
<path d="M10.377 64.0125V67.213" stroke="#DDDDDD" stroke-width="0.191361" stroke-miterlimit="10"/>
<path d="M11.9775 64.0122V67.2128" stroke="#DDDDDD" stroke-width="0.191361" stroke-miterlimit="10"/>
<path d="M13.5767 64.0122V67.2128" stroke="#DDDDDD" stroke-width="0.191361" stroke-miterlimit="10"/>
<path d="M15.1797 64.0122V67.2128" stroke="#DDDDDD" stroke-width="0.191361" stroke-miterlimit="10"/>
<path d="M16.7783 64.0122V67.2128" stroke="#DDDDDD" stroke-width="0.191361" stroke-miterlimit="10"/>
<path d="M18.3774 64.0122V67.2128" stroke="#DDDDDD" stroke-width="0.191361" stroke-miterlimit="10"/>
<path d="M19.978 64.0122V67.2128" stroke="#DDDDDD" stroke-width="0.191361" stroke-miterlimit="10"/>
<path d="M21.5771 64.0122V67.2128" stroke="#DDDDDD" stroke-width="0.191361" stroke-miterlimit="10"/>
<path d="M23.1802 64.0122V67.2128" stroke="#DDDDDD" stroke-width="0.191361" stroke-miterlimit="10"/>
<path d="M24.7788 64.0122V67.2128" stroke="#DDDDDD" stroke-width="0.191361" stroke-miterlimit="10"/>
<path d="M26.3799 64.0122V67.2128" stroke="#DDDDDD" stroke-width="0.191361" stroke-miterlimit="10"/>
<path d="M27.979 64.0122V67.2128" stroke="#DDDDDD" stroke-width="0.191361" stroke-miterlimit="10"/>
<path d="M29.5801 64.0122V67.2128" stroke="#DDDDDD" stroke-width="0.191361" stroke-miterlimit="10"/>
<path d="M31.1787 64.0122V67.2128" stroke="#DDDDDD" stroke-width="0.191361" stroke-miterlimit="10"/>
<path d="M32.7817 64.0122V67.2128" stroke="#DDDDDD" stroke-width="0.191361" stroke-miterlimit="10"/>
<path d="M34.3809 64.0122V67.2128" stroke="#DDDDDD" stroke-width="0.191361" stroke-miterlimit="10"/>
<path d="M35.9814 64.0122V67.2128" stroke="#DDDDDD" stroke-width="0.191361" stroke-miterlimit="10"/>
<path d="M37.5806 64.0122V67.2128" stroke="#DDDDDD" stroke-width="0.191361" stroke-miterlimit="10"/>
<path d="M39.1816 64.0122V67.2128" stroke="#DDDDDD" stroke-width="0.191361" stroke-miterlimit="10"/>
<path d="M40.7822 64.0122V67.2128" stroke="#DDDDDD" stroke-width="0.191361" stroke-miterlimit="10"/>
<path d="M42.3833 64.0122V67.2128" stroke="#DDDDDD" stroke-width="0.191361" stroke-miterlimit="10"/>
<path d="M43.9824 64.0122V67.2128" stroke="#DDDDDD" stroke-width="0.191361" stroke-miterlimit="10"/>
<path d="M45.583 64.0122V67.2128" stroke="#DDDDDD" stroke-width="0.191361" stroke-miterlimit="10"/>
<path d="M47.1821 64.0122V67.2128" stroke="#DDDDDD" stroke-width="0.191361" stroke-miterlimit="10"/>
<path d="M48.7852 64.0122V67.2128" stroke="#DDDDDD" stroke-width="0.191361" stroke-miterlimit="10"/>
<path d="M50.3838 64.0122V67.2128" stroke="#DDDDDD" stroke-width="0.191361" stroke-miterlimit="10"/>
<path d="M51.9849 64.0122V67.2128" stroke="#DDDDDD" stroke-width="0.191361" stroke-miterlimit="10"/>
<path d="M53.584 64.0122V67.2128" stroke="#DDDDDD" stroke-width="0.191361" stroke-miterlimit="10"/>
<path d="M55.1826 64.0122V67.2128" stroke="#DDDDDD" stroke-width="0.191361" stroke-miterlimit="10"/>
<path d="M9.3374 73.6123H56.3055" stroke="#DDDDDD" stroke-width="0.191361" stroke-miterlimit="10"/>
<path d="M9.3374 76.8123H56.3055" stroke="#DDDDDD" stroke-width="0.191361" stroke-miterlimit="10"/>
<path d="M10.377 73.6113V76.8119" stroke="#DDDDDD" stroke-width="0.191361" stroke-miterlimit="10"/>
<path d="M11.9775 73.6121V76.8126" stroke="#DDDDDD" stroke-width="0.191361" stroke-miterlimit="10"/>
<path d="M13.5767 73.6121V76.8126" stroke="#DDDDDD" stroke-width="0.191361" stroke-miterlimit="10"/>
<path d="M15.1797 73.6121V76.8126" stroke="#DDDDDD" stroke-width="0.191361" stroke-miterlimit="10"/>
<path d="M16.7783 73.6121V76.8126" stroke="#DDDDDD" stroke-width="0.191361" stroke-miterlimit="10"/>
<path d="M18.3774 73.6121V76.8126" stroke="#DDDDDD" stroke-width="0.191361" stroke-miterlimit="10"/>
<path d="M19.978 73.6121V76.8126" stroke="#DDDDDD" stroke-width="0.191361" stroke-miterlimit="10"/>
<path d="M21.5771 73.6121V76.8126" stroke="#DDDDDD" stroke-width="0.191361" stroke-miterlimit="10"/>
<path d="M23.1802 73.6121V76.8126" stroke="#DDDDDD" stroke-width="0.191361" stroke-miterlimit="10"/>
<path d="M24.7788 73.6121V76.8126" stroke="#DDDDDD" stroke-width="0.191361" stroke-miterlimit="10"/>
<path d="M26.3799 73.6121V76.8126" stroke="#DDDDDD" stroke-width="0.191361" stroke-miterlimit="10"/>
<path d="M27.979 73.6121V76.8126" stroke="#DDDDDD" stroke-width="0.191361" stroke-miterlimit="10"/>
<path d="M29.5801 73.6121V76.8126" stroke="#DDDDDD" stroke-width="0.191361" stroke-miterlimit="10"/>
<path d="M31.1787 73.6121V76.8126" stroke="#DDDDDD" stroke-width="0.191361" stroke-miterlimit="10"/>
<path d="M32.7817 73.6121V76.8126" stroke="#DDDDDD" stroke-width="0.191361" stroke-miterlimit="10"/>
<path d="M34.3809 73.6121V76.8126" stroke="#DDDDDD" stroke-width="0.191361" stroke-miterlimit="10"/>
<path d="M35.9814 73.6121V76.8126" stroke="#DDDDDD" stroke-width="0.191361" stroke-miterlimit="10"/>
<path d="M37.5806 73.6121V76.8126" stroke="#DDDDDD" stroke-width="0.191361" stroke-miterlimit="10"/>
<path d="M39.1816 73.6121V76.8126" stroke="#DDDDDD" stroke-width="0.191361" stroke-miterlimit="10"/>
<path d="M40.7822 73.6121V76.8126" stroke="#DDDDDD" stroke-width="0.191361" stroke-miterlimit="10"/>
<path d="M42.3833 73.6121V76.8126" stroke="#DDDDDD" stroke-width="0.191361" stroke-miterlimit="10"/>
<path d="M43.9824 73.6121V76.8126" stroke="#DDDDDD" stroke-width="0.191361" stroke-miterlimit="10"/>
<path d="M45.583 73.6121V76.8126" stroke="#DDDDDD" stroke-width="0.191361" stroke-miterlimit="10"/>
<path d="M47.1821 73.6121V76.8126" stroke="#DDDDDD" stroke-width="0.191361" stroke-miterlimit="10"/>
<path d="M48.7852 73.6121V76.8126" stroke="#DDDDDD" stroke-width="0.191361" stroke-miterlimit="10"/>
<path d="M50.3838 73.6121V76.8126" stroke="#DDDDDD" stroke-width="0.191361" stroke-miterlimit="10"/>
<path d="M51.9849 73.6121V76.8126" stroke="#DDDDDD" stroke-width="0.191361" stroke-miterlimit="10"/>
<path d="M53.584 73.6121V76.8126" stroke="#DDDDDD" stroke-width="0.191361" stroke-miterlimit="10"/>
<path d="M55.1826 73.6121V76.8126" stroke="#DDDDDD" stroke-width="0.191361" stroke-miterlimit="10"/>
<path d="M7.33789 78.4133H54.306" stroke="#DDDDDD" stroke-width="0.191361" stroke-miterlimit="10"/>
<path d="M7.33789 81.6143H54.306" stroke="#DDDDDD" stroke-width="0.191361" stroke-miterlimit="10"/>
<path d="M8.37744 78.4146V81.6151" stroke="#DDDDDD" stroke-width="0.191361" stroke-miterlimit="10"/>
<path d="M9.97607 78.4143V81.6149" stroke="#DDDDDD" stroke-width="0.191361" stroke-miterlimit="10"/>
<path d="M11.5767 78.4143V81.6149" stroke="#DDDDDD" stroke-width="0.191361" stroke-miterlimit="10"/>
<path d="M13.1777 78.4143V81.6149" stroke="#DDDDDD" stroke-width="0.191361" stroke-miterlimit="10"/>
<path d="M14.7788 78.4143V81.6149" stroke="#DDDDDD" stroke-width="0.191361" stroke-miterlimit="10"/>
<path d="M16.3774 78.4143V81.6149" stroke="#DDDDDD" stroke-width="0.191361" stroke-miterlimit="10"/>
<path d="M17.9785 78.4143V81.6149" stroke="#DDDDDD" stroke-width="0.191361" stroke-miterlimit="10"/>
<path d="M19.5776 78.4143V81.6149" stroke="#DDDDDD" stroke-width="0.191361" stroke-miterlimit="10"/>
<path d="M21.1807 78.4143V81.6149" stroke="#DDDDDD" stroke-width="0.191361" stroke-miterlimit="10"/>
<path d="M22.7793 78.4143V81.6149" stroke="#DDDDDD" stroke-width="0.191361" stroke-miterlimit="10"/>
<path d="M24.3804 78.4143V81.6149" stroke="#DDDDDD" stroke-width="0.191361" stroke-miterlimit="10"/>
<path d="M25.979 78.4143V81.6149" stroke="#DDDDDD" stroke-width="0.191361" stroke-miterlimit="10"/>
<path d="M27.5781 78.4143V81.6149" stroke="#DDDDDD" stroke-width="0.191361" stroke-miterlimit="10"/>
<path d="M29.1812 78.4143V81.6149" stroke="#DDDDDD" stroke-width="0.191361" stroke-miterlimit="10"/>
<path d="M30.7798 78.4143V81.6149" stroke="#DDDDDD" stroke-width="0.191361" stroke-miterlimit="10"/>
<path d="M32.3809 78.4143V81.6149" stroke="#DDDDDD" stroke-width="0.191361" stroke-miterlimit="10"/>
<path d="M33.98 78.4143V81.6149" stroke="#DDDDDD" stroke-width="0.191361" stroke-miterlimit="10"/>
<path d="M35.5811 78.4143V81.6149" stroke="#DDDDDD" stroke-width="0.191361" stroke-miterlimit="10"/>
<path d="M37.1797 78.4143V81.6149" stroke="#DDDDDD" stroke-width="0.191361" stroke-miterlimit="10"/>
<path d="M38.7827 78.4143V81.6149" stroke="#DDDDDD" stroke-width="0.191361" stroke-miterlimit="10"/>
<path d="M40.3818 78.4143V81.6149" stroke="#DDDDDD" stroke-width="0.191361" stroke-miterlimit="10"/>
<path d="M41.9824 78.4143V81.6149" stroke="#DDDDDD" stroke-width="0.191361" stroke-miterlimit="10"/>
<path d="M43.5815 78.4143V81.6149" stroke="#DDDDDD" stroke-width="0.191361" stroke-miterlimit="10"/>
<path d="M45.1826 78.4143V81.6149" stroke="#DDDDDD" stroke-width="0.191361" stroke-miterlimit="10"/>
<path d="M46.7832 78.4143V81.6149" stroke="#DDDDDD" stroke-width="0.191361" stroke-miterlimit="10"/>
<path d="M48.3843 78.4143V81.6149" stroke="#DDDDDD" stroke-width="0.191361" stroke-miterlimit="10"/>
<path d="M49.9834 78.4143V81.6149" stroke="#DDDDDD" stroke-width="0.191361" stroke-miterlimit="10"/>
<path d="M51.584 78.4143V81.6149" stroke="#DDDDDD" stroke-width="0.191361" stroke-miterlimit="10"/>
<path d="M53.1831 78.4143V81.6149" stroke="#DDDDDD" stroke-width="0.191361" stroke-miterlimit="10"/>
<path d="M9.3374 83.2129H56.3055" stroke="#DDDDDD" stroke-width="0.191361" stroke-miterlimit="10"/>
<path d="M9.3374 86.4138H56.3055" stroke="#DDDDDD" stroke-width="0.191361" stroke-miterlimit="10"/>
<path d="M10.377 83.2129V86.4134" stroke="#DDDDDD" stroke-width="0.191361" stroke-miterlimit="10"/>
<path d="M11.9756 83.2136V86.4142" stroke="#DDDDDD" stroke-width="0.191361" stroke-miterlimit="10"/>
<path d="M13.5767 83.2136V86.4142" stroke="#DDDDDD" stroke-width="0.191361" stroke-miterlimit="10"/>
<path d="M15.1772 83.2136V86.4142" stroke="#DDDDDD" stroke-width="0.191361" stroke-miterlimit="10"/>
<path d="M16.7783 83.2136V86.4142" stroke="#DDDDDD" stroke-width="0.191361" stroke-miterlimit="10"/>
<path d="M18.3774 83.2136V86.4142" stroke="#DDDDDD" stroke-width="0.191361" stroke-miterlimit="10"/>
<path d="M19.978 83.2136V86.4142" stroke="#DDDDDD" stroke-width="0.191361" stroke-miterlimit="10"/>
<path d="M21.5771 83.2136V86.4142" stroke="#DDDDDD" stroke-width="0.191361" stroke-miterlimit="10"/>
<path d="M23.1802 83.2136V86.4142" stroke="#DDDDDD" stroke-width="0.191361" stroke-miterlimit="10"/>
<path d="M24.7788 83.2136V86.4142" stroke="#DDDDDD" stroke-width="0.191361" stroke-miterlimit="10"/>
<path d="M26.3799 83.2136V86.4142" stroke="#DDDDDD" stroke-width="0.191361" stroke-miterlimit="10"/>
<path d="M27.979 83.2136V86.4142" stroke="#DDDDDD" stroke-width="0.191361" stroke-miterlimit="10"/>
<path d="M29.5801 83.2136V86.4142" stroke="#DDDDDD" stroke-width="0.191361" stroke-miterlimit="10"/>
<path d="M31.1787 83.2136V86.4142" stroke="#DDDDDD" stroke-width="0.191361" stroke-miterlimit="10"/>
<path d="M32.7817 83.2136V86.4142" stroke="#DDDDDD" stroke-width="0.191361" stroke-miterlimit="10"/>
<path d="M34.3809 83.2136V86.4142" stroke="#DDDDDD" stroke-width="0.191361" stroke-miterlimit="10"/>
<path d="M35.9814 83.2136V86.4142" stroke="#DDDDDD" stroke-width="0.191361" stroke-miterlimit="10"/>
<path d="M37.5806 83.2136V86.4142" stroke="#DDDDDD" stroke-width="0.191361" stroke-miterlimit="10"/>
<path d="M39.1816 83.2136V86.4142" stroke="#DDDDDD" stroke-width="0.191361" stroke-miterlimit="10"/>
<path d="M40.7822 83.2136V86.4142" stroke="#DDDDDD" stroke-width="0.191361" stroke-miterlimit="10"/>
<path d="M42.3833 83.2136V86.4142" stroke="#DDDDDD" stroke-width="0.191361" stroke-miterlimit="10"/>
<path d="M43.9824 83.2136V86.4142" stroke="#DDDDDD" stroke-width="0.191361" stroke-miterlimit="10"/>
<path d="M45.583 83.2136V86.4142" stroke="#DDDDDD" stroke-width="0.191361" stroke-miterlimit="10"/>
<path d="M47.1821 83.2136V86.4142" stroke="#DDDDDD" stroke-width="0.191361" stroke-miterlimit="10"/>
<path d="M48.7832 83.2136V86.4142" stroke="#DDDDDD" stroke-width="0.191361" stroke-miterlimit="10"/>
<path d="M50.3838 83.2136V86.4142" stroke="#DDDDDD" stroke-width="0.191361" stroke-miterlimit="10"/>
<path d="M51.9829 83.2136V86.4142" stroke="#DDDDDD" stroke-width="0.191361" stroke-miterlimit="10"/>
<path d="M53.584 83.2136V86.4142" stroke="#DDDDDD" stroke-width="0.191361" stroke-miterlimit="10"/>
<path d="M55.1826 83.2136V86.4142" stroke="#DDDDDD" stroke-width="0.191361" stroke-miterlimit="10"/>
<path d="M7.33789 88.0151H54.306" stroke="#DDDDDD" stroke-width="0.191361" stroke-miterlimit="10"/>
<path d="M7.33789 91.2161H54.306" stroke="#DDDDDD" stroke-width="0.191361" stroke-miterlimit="10"/>
<path d="M8.37744 88.0151V91.2157" stroke="#DDDDDD" stroke-width="0.191361" stroke-miterlimit="10"/>
<path d="M9.97607 88.0159V91.2164" stroke="#DDDDDD" stroke-width="0.191361" stroke-miterlimit="10"/>
<path d="M11.5767 88.0159V91.2164" stroke="#DDDDDD" stroke-width="0.191361" stroke-miterlimit="10"/>
<path d="M13.1777 88.0159V91.2164" stroke="#DDDDDD" stroke-width="0.191361" stroke-miterlimit="10"/>
<path d="M14.7788 88.0159V91.2164" stroke="#DDDDDD" stroke-width="0.191361" stroke-miterlimit="10"/>
<path d="M16.3774 88.0159V91.2164" stroke="#DDDDDD" stroke-width="0.191361" stroke-miterlimit="10"/>
<path d="M17.9785 88.0159V91.2164" stroke="#DDDDDD" stroke-width="0.191361" stroke-miterlimit="10"/>
<path d="M19.5776 88.0159V91.2164" stroke="#DDDDDD" stroke-width="0.191361" stroke-miterlimit="10"/>
<path d="M21.1807 88.0159V91.2164" stroke="#DDDDDD" stroke-width="0.191361" stroke-miterlimit="10"/>
<path d="M22.7793 88.0159V91.2164" stroke="#DDDDDD" stroke-width="0.191361" stroke-miterlimit="10"/>
<path d="M24.3804 88.0159V91.2164" stroke="#DDDDDD" stroke-width="0.191361" stroke-miterlimit="10"/>
<path d="M25.979 88.0159V91.2164" stroke="#DDDDDD" stroke-width="0.191361" stroke-miterlimit="10"/>
<path d="M27.5781 88.0159V91.2164" stroke="#DDDDDD" stroke-width="0.191361" stroke-miterlimit="10"/>
<path d="M29.1812 88.0159V91.2164" stroke="#DDDDDD" stroke-width="0.191361" stroke-miterlimit="10"/>
<path d="M30.7798 88.0159V91.2164" stroke="#DDDDDD" stroke-width="0.191361" stroke-miterlimit="10"/>
<path d="M32.3809 88.0159V91.2164" stroke="#DDDDDD" stroke-width="0.191361" stroke-miterlimit="10"/>
<path d="M33.98 88.0159V91.2164" stroke="#DDDDDD" stroke-width="0.191361" stroke-miterlimit="10"/>
<path d="M35.5811 88.0159V91.2164" stroke="#DDDDDD" stroke-width="0.191361" stroke-miterlimit="10"/>
<path d="M37.1797 88.0159V91.2164" stroke="#DDDDDD" stroke-width="0.191361" stroke-miterlimit="10"/>
<path d="M38.7827 88.0159V91.2164" stroke="#DDDDDD" stroke-width="0.191361" stroke-miterlimit="10"/>
<path d="M40.3818 88.0159V91.2164" stroke="#DDDDDD" stroke-width="0.191361" stroke-miterlimit="10"/>
<path d="M41.9824 88.0159V91.2164" stroke="#DDDDDD" stroke-width="0.191361" stroke-miterlimit="10"/>
<path d="M43.5815 88.0159V91.2164" stroke="#DDDDDD" stroke-width="0.191361" stroke-miterlimit="10"/>
<path d="M45.1826 88.0159V91.2164" stroke="#DDDDDD" stroke-width="0.191361" stroke-miterlimit="10"/>
<path d="M46.7832 88.0159V91.2164" stroke="#DDDDDD" stroke-width="0.191361" stroke-miterlimit="10"/>
<path d="M48.3843 88.0159V91.2164" stroke="#DDDDDD" stroke-width="0.191361" stroke-miterlimit="10"/>
<path d="M49.9834 88.0159V91.2164" stroke="#DDDDDD" stroke-width="0.191361" stroke-miterlimit="10"/>
<path d="M51.584 88.0159V91.2164" stroke="#DDDDDD" stroke-width="0.191361" stroke-miterlimit="10"/>
<path d="M53.1831 88.0159V91.2164" stroke="#DDDDDD" stroke-width="0.191361" stroke-miterlimit="10"/>
<path d="M7.33789 97.6167H54.306" stroke="#DDDDDD" stroke-width="0.191361" stroke-miterlimit="10"/>
<path d="M7.33789 100.818H54.306" stroke="#DDDDDD" stroke-width="0.191361" stroke-miterlimit="10"/>
<path d="M8.37744 97.6177V100.818" stroke="#DDDDDD" stroke-width="0.191361" stroke-miterlimit="10"/>
<path d="M9.97607 97.6184V100.819" stroke="#DDDDDD" stroke-width="0.191361" stroke-miterlimit="10"/>
<path d="M11.5767 97.6184V100.819" stroke="#DDDDDD" stroke-width="0.191361" stroke-miterlimit="10"/>
<path d="M13.1777 97.6184V100.819" stroke="#DDDDDD" stroke-width="0.191361" stroke-miterlimit="10"/>
<path d="M14.7788 97.6184V100.819" stroke="#DDDDDD" stroke-width="0.191361" stroke-miterlimit="10"/>
<path d="M16.3774 97.6184V100.819" stroke="#DDDDDD" stroke-width="0.191361" stroke-miterlimit="10"/>
<path d="M17.9785 97.6184V100.819" stroke="#DDDDDD" stroke-width="0.191361" stroke-miterlimit="10"/>
<path d="M19.5776 97.6184V100.819" stroke="#DDDDDD" stroke-width="0.191361" stroke-miterlimit="10"/>
<path d="M21.1807 97.6184V100.819" stroke="#DDDDDD" stroke-width="0.191361" stroke-miterlimit="10"/>
<path d="M22.7793 97.6184V100.819" stroke="#DDDDDD" stroke-width="0.191361" stroke-miterlimit="10"/>
<path d="M24.3804 97.6184V100.819" stroke="#DDDDDD" stroke-width="0.191361" stroke-miterlimit="10"/>
<path d="M25.979 97.6184V100.819" stroke="#DDDDDD" stroke-width="0.191361" stroke-miterlimit="10"/>
<path d="M27.5781 97.6184V100.819" stroke="#DDDDDD" stroke-width="0.191361" stroke-miterlimit="10"/>
<path d="M29.1812 97.6184V100.819" stroke="#DDDDDD" stroke-width="0.191361" stroke-miterlimit="10"/>
<path d="M30.7798 97.6184V100.819" stroke="#DDDDDD" stroke-width="0.191361" stroke-miterlimit="10"/>
<path d="M32.3809 97.6184V100.819" stroke="#DDDDDD" stroke-width="0.191361" stroke-miterlimit="10"/>
<path d="M33.98 97.6184V100.819" stroke="#DDDDDD" stroke-width="0.191361" stroke-miterlimit="10"/>
<path d="M35.5811 97.6184V100.819" stroke="#DDDDDD" stroke-width="0.191361" stroke-miterlimit="10"/>
<path d="M37.1797 97.6184V100.819" stroke="#DDDDDD" stroke-width="0.191361" stroke-miterlimit="10"/>
<path d="M38.7827 97.6184V100.819" stroke="#DDDDDD" stroke-width="0.191361" stroke-miterlimit="10"/>
<path d="M40.3818 97.6184V100.819" stroke="#DDDDDD" stroke-width="0.191361" stroke-miterlimit="10"/>
<path d="M41.9824 97.6184V100.819" stroke="#DDDDDD" stroke-width="0.191361" stroke-miterlimit="10"/>
<path d="M43.5815 97.6184V100.819" stroke="#DDDDDD" stroke-width="0.191361" stroke-miterlimit="10"/>
<path d="M45.1826 97.6184V100.819" stroke="#DDDDDD" stroke-width="0.191361" stroke-miterlimit="10"/>
<path d="M46.7832 97.6184V100.819" stroke="#DDDDDD" stroke-width="0.191361" stroke-miterlimit="10"/>
<path d="M48.3843 97.6184V100.819" stroke="#DDDDDD" stroke-width="0.191361" stroke-miterlimit="10"/>
<path d="M49.9834 97.6184V100.819" stroke="#DDDDDD" stroke-width="0.191361" stroke-miterlimit="10"/>
<path d="M51.584 97.6184V100.819" stroke="#DDDDDD" stroke-width="0.191361" stroke-miterlimit="10"/>
<path d="M53.1831 97.6184V100.819" stroke="#DDDDDD" stroke-width="0.191361" stroke-miterlimit="10"/>
<path d="M9.3374 92.8157H56.3055" stroke="#DDDDDD" stroke-width="0.191361" stroke-miterlimit="10"/>
<path d="M9.3374 96.0156H56.3055" stroke="#DDDDDD" stroke-width="0.191361" stroke-miterlimit="10"/>
<path d="M10.377 92.8147V96.0152" stroke="#DDDDDD" stroke-width="0.191361" stroke-miterlimit="10"/>
<path d="M11.9775 92.8154V96.016" stroke="#DDDDDD" stroke-width="0.191361" stroke-miterlimit="10"/>
<path d="M13.5767 92.8154V96.016" stroke="#DDDDDD" stroke-width="0.191361" stroke-miterlimit="10"/>
<path d="M15.1797 92.8154V96.016" stroke="#DDDDDD" stroke-width="0.191361" stroke-miterlimit="10"/>
<path d="M16.7783 92.8154V96.016" stroke="#DDDDDD" stroke-width="0.191361" stroke-miterlimit="10"/>
<path d="M18.3774 92.8154V96.016" stroke="#DDDDDD" stroke-width="0.191361" stroke-miterlimit="10"/>
<path d="M19.978 92.8154V96.016" stroke="#DDDDDD" stroke-width="0.191361" stroke-miterlimit="10"/>
<path d="M21.5771 92.8154V96.016" stroke="#DDDDDD" stroke-width="0.191361" stroke-miterlimit="10"/>
<path d="M23.1802 92.8154V96.016" stroke="#DDDDDD" stroke-width="0.191361" stroke-miterlimit="10"/>
<path d="M24.7788 92.8154V96.016" stroke="#DDDDDD" stroke-width="0.191361" stroke-miterlimit="10"/>
<path d="M26.3799 92.8154V96.016" stroke="#DDDDDD" stroke-width="0.191361" stroke-miterlimit="10"/>
<path d="M27.979 92.8154V96.016" stroke="#DDDDDD" stroke-width="0.191361" stroke-miterlimit="10"/>
<path d="M29.5801 92.8154V96.016" stroke="#DDDDDD" stroke-width="0.191361" stroke-miterlimit="10"/>
<path d="M31.1787 92.8154V96.016" stroke="#DDDDDD" stroke-width="0.191361" stroke-miterlimit="10"/>
<path d="M32.7817 92.8154V96.016" stroke="#DDDDDD" stroke-width="0.191361" stroke-miterlimit="10"/>
<path d="M34.3809 92.8154V96.016" stroke="#DDDDDD" stroke-width="0.191361" stroke-miterlimit="10"/>
<path d="M35.9814 92.8154V96.016" stroke="#DDDDDD" stroke-width="0.191361" stroke-miterlimit="10"/>
<path d="M37.5806 92.8154V96.016" stroke="#DDDDDD" stroke-width="0.191361" stroke-miterlimit="10"/>
<path d="M39.1816 92.8154V96.016" stroke="#DDDDDD" stroke-width="0.191361" stroke-miterlimit="10"/>
<path d="M40.7822 92.8154V96.016" stroke="#DDDDDD" stroke-width="0.191361" stroke-miterlimit="10"/>
<path d="M42.3833 92.8154V96.016" stroke="#DDDDDD" stroke-width="0.191361" stroke-miterlimit="10"/>
<path d="M43.9824 92.8154V96.016" stroke="#DDDDDD" stroke-width="0.191361" stroke-miterlimit="10"/>
<path d="M45.583 92.8154V96.016" stroke="#DDDDDD" stroke-width="0.191361" stroke-miterlimit="10"/>
<path d="M47.1821 92.8154V96.016" stroke="#DDDDDD" stroke-width="0.191361" stroke-miterlimit="10"/>
<path d="M48.7852 92.8154V96.016" stroke="#DDDDDD" stroke-width="0.191361" stroke-miterlimit="10"/>
<path d="M50.3838 92.8154V96.016" stroke="#DDDDDD" stroke-width="0.191361" stroke-miterlimit="10"/>
<path d="M51.9849 92.8154V96.016" stroke="#DDDDDD" stroke-width="0.191361" stroke-miterlimit="10"/>
<path d="M53.584 92.8154V96.016" stroke="#DDDDDD" stroke-width="0.191361" stroke-miterlimit="10"/>
<path d="M55.1826 92.8154V96.016" stroke="#DDDDDD" stroke-width="0.191361" stroke-miterlimit="10"/>
<path d="M7.33789 68.8118H54.306" stroke="#DDDDDD" stroke-width="0.191361" stroke-miterlimit="10"/>
<path d="M7.33789 72.0127H54.306" stroke="#DDDDDD" stroke-width="0.191361" stroke-miterlimit="10"/>
<path d="M8.37744 68.812V72.0126" stroke="#DDDDDD" stroke-width="0.191361" stroke-miterlimit="10"/>
<path d="M9.97607 68.8118V72.0123" stroke="#DDDDDD" stroke-width="0.191361" stroke-miterlimit="10"/>
<path d="M11.5767 68.8118V72.0123" stroke="#DDDDDD" stroke-width="0.191361" stroke-miterlimit="10"/>
<path d="M13.1777 68.8118V72.0123" stroke="#DDDDDD" stroke-width="0.191361" stroke-miterlimit="10"/>
<path d="M14.7788 68.8118V72.0123" stroke="#DDDDDD" stroke-width="0.191361" stroke-miterlimit="10"/>
<path d="M16.3774 68.8118V72.0123" stroke="#DDDDDD" stroke-width="0.191361" stroke-miterlimit="10"/>
<path d="M17.9785 68.8118V72.0123" stroke="#DDDDDD" stroke-width="0.191361" stroke-miterlimit="10"/>
<path d="M19.5776 68.8118V72.0123" stroke="#DDDDDD" stroke-width="0.191361" stroke-miterlimit="10"/>
<path d="M21.1807 68.8118V72.0123" stroke="#DDDDDD" stroke-width="0.191361" stroke-miterlimit="10"/>
<path d="M22.7793 68.8118V72.0123" stroke="#DDDDDD" stroke-width="0.191361" stroke-miterlimit="10"/>
<path d="M24.3804 68.8118V72.0123" stroke="#DDDDDD" stroke-width="0.191361" stroke-miterlimit="10"/>
<path d="M25.979 68.8118V72.0123" stroke="#DDDDDD" stroke-width="0.191361" stroke-miterlimit="10"/>
<path d="M27.5781 68.8118V72.0123" stroke="#DDDDDD" stroke-width="0.191361" stroke-miterlimit="10"/>
<path d="M29.1812 68.8118V72.0123" stroke="#DDDDDD" stroke-width="0.191361" stroke-miterlimit="10"/>
<path d="M30.7798 68.8118V72.0123" stroke="#DDDDDD" stroke-width="0.191361" stroke-miterlimit="10"/>
<path d="M32.3809 68.8118V72.0123" stroke="#DDDDDD" stroke-width="0.191361" stroke-miterlimit="10"/>
<path d="M33.98 68.8118V72.0123" stroke="#DDDDDD" stroke-width="0.191361" stroke-miterlimit="10"/>
<path d="M35.5811 68.8118V72.0123" stroke="#DDDDDD" stroke-width="0.191361" stroke-miterlimit="10"/>
<path d="M37.1797 68.8118V72.0123" stroke="#DDDDDD" stroke-width="0.191361" stroke-miterlimit="10"/>
<path d="M38.7827 68.8118V72.0123" stroke="#DDDDDD" stroke-width="0.191361" stroke-miterlimit="10"/>
<path d="M40.3818 68.8118V72.0123" stroke="#DDDDDD" stroke-width="0.191361" stroke-miterlimit="10"/>
<path d="M41.9824 68.8118V72.0123" stroke="#DDDDDD" stroke-width="0.191361" stroke-miterlimit="10"/>
<path d="M43.5815 68.8118V72.0123" stroke="#DDDDDD" stroke-width="0.191361" stroke-miterlimit="10"/>
<path d="M45.1826 68.8118V72.0123" stroke="#DDDDDD" stroke-width="0.191361" stroke-miterlimit="10"/>
<path d="M46.7832 68.8118V72.0123" stroke="#DDDDDD" stroke-width="0.191361" stroke-miterlimit="10"/>
<path d="M48.3843 68.8118V72.0123" stroke="#DDDDDD" stroke-width="0.191361" stroke-miterlimit="10"/>
<path d="M49.9834 68.8118V72.0123" stroke="#DDDDDD" stroke-width="0.191361" stroke-miterlimit="10"/>
<path d="M51.584 68.8118V72.0123" stroke="#DDDDDD" stroke-width="0.191361" stroke-miterlimit="10"/>
<path d="M53.1831 68.8118V72.0123" stroke="#DDDDDD" stroke-width="0.191361" stroke-miterlimit="10"/>
<path d="M56.5845 8.77449V6.9097C56.5845 6.11618 55.9449 5.44168 55.1054 5.44168H53.1067C53.9062 5.44168 54.5858 4.80686 54.5858 3.97366V2.26758C54.5858 1.47406 53.9462 0.799561 53.1067 0.799561H8.89507C8.09558 0.799561 7.41602 1.43438 7.41602 2.26758V4.13236C7.41602 4.92589 8.05561 5.60039 8.89507 5.60039H10.8938C10.0943 5.60039 9.41473 6.23521 9.41473 7.06841V8.93319C9.41473 9.72672 10.0543 10.4012 10.8938 10.4012H8.89507C8.09558 10.4012 7.41602 11.036 7.41602 11.8692V13.734C7.41602 14.5275 8.05561 15.202 8.89507 15.202H10.8938C10.0943 15.202 9.41473 15.8369 9.41473 16.6701V18.5348C9.41473 19.3284 10.0543 20.0029 10.8938 20.0029H8.89507C8.09558 20.0029 7.41602 20.6377 7.41602 21.4709V23.3357C7.41602 24.1292 8.05561 24.8037 8.89507 24.8037H10.8938C10.0943 24.8037 9.41473 25.4385 9.41473 26.2717V28.1365C9.41473 28.93 10.0543 29.6045 10.8938 29.6045H8.89507C8.09558 29.6045 7.41602 30.2393 7.41602 31.0725V32.9373C7.41602 33.7308 8.05561 34.4053 8.89507 34.4053H10.8938C10.0943 34.4053 9.41473 35.0402 9.41473 35.8734V37.7381C9.41473 38.5317 10.0543 39.2062 10.8938 39.2062H8.89507C8.09558 39.2062 7.41602 39.841 7.41602 40.6742V42.539C7.41602 43.3325 8.05561 44.007 8.89507 44.007H10.8938C10.0943 44.007 9.41473 44.6418 9.41473 45.475V47.3398C9.41473 48.1333 10.0543 48.8078 10.8938 48.8078H8.89507C8.09558 48.8078 7.41602 49.4426 7.41602 50.2758V52.1406C7.41602 52.9341 8.05561 53.6086 8.89507 53.6086H10.8938C10.0943 53.6086 9.41473 54.2435 9.41473 55.0767V56.9414C9.41473 57.735 10.0543 58.4095 10.8938 58.4095H8.89507C8.09558 58.4095 7.41602 59.0443 7.41602 59.8775V61.7423C7.41602 62.5358 8.05561 63.2103 8.89507 63.2103H10.8938C10.0943 63.2103 9.41473 63.8451 9.41473 64.6783V66.5431C9.41473 67.3366 10.0543 68.0111 10.8938 68.0111H8.89507C8.09558 68.0111 7.41602 68.6459 7.41602 69.4791V71.3439C7.41602 72.1374 8.05561 72.8119 8.89507 72.8119H10.8938C10.0943 72.8119 9.41473 73.4468 9.41473 74.28V76.1447C9.41473 76.9383 10.0543 77.6128 10.8938 77.6128H8.89507C8.09558 77.6128 7.41602 78.2476 7.41602 79.0808V80.9456C7.41602 81.7391 8.05561 82.4136 8.89507 82.4136H10.8938C10.0943 82.4136 9.41473 83.0484 9.41473 83.8816V85.7464C9.41473 86.5399 10.0543 87.2144 10.8938 87.2144H8.89507C8.09558 87.2144 7.41602 87.8492 7.41602 88.6824V90.5472C7.41602 91.3407 8.05561 92.0152 8.89507 92.0152H10.8938C10.0943 92.0152 9.41473 92.6501 9.41473 93.4833V95.348C9.41473 96.1416 10.0543 96.8161 10.8938 96.8161H8.89507C8.09558 96.8161 7.41602 97.4509 7.41602 98.2841V100.149C7.41602 100.942 8.05561 101.617 8.89507 101.617H53.1467C53.9462 101.617 54.6258 100.982 54.6258 100.149V98.2841C54.6258 97.4906 53.9862 96.8161 53.1467 96.8161H55.1454C55.9449 96.8161 56.6245 96.1813 56.6245 95.348V93.4833C56.6245 92.6897 55.9849 92.0152 55.1454 92.0152H53.1467C53.9462 92.0152 54.6258 91.3804 54.6258 90.5472V88.6824C54.6258 87.8889 53.9862 87.2144 53.1467 87.2144H55.1454C55.9449 87.2144 56.6245 86.5796 56.6245 85.7464V83.8816C56.6245 83.0881 55.9849 82.4136 55.1454 82.4136H53.1467C53.9462 82.4136 54.6258 81.7788 54.6258 80.9456V79.0808C54.6258 78.2873 53.9862 77.6128 53.1467 77.6128H55.1454C55.9449 77.6128 56.6245 76.9779 56.6245 76.1447V74.28C56.6245 73.4864 55.9849 72.8119 55.1454 72.8119H53.1467C53.9462 72.8119 54.6258 72.1771 54.6258 71.3439V69.4791C54.6258 68.6856 53.9862 68.0111 53.1467 68.0111H55.1454C55.9449 68.0111 56.6245 67.3763 56.6245 66.5431V64.6783C56.6245 63.8848 55.9849 63.2103 55.1454 63.2103H53.1467C53.9462 63.2103 54.6258 62.5755 54.6258 61.7423V59.8775C54.6258 59.084 53.9862 58.4095 53.1467 58.4095H55.1454C55.9449 58.4095 56.6245 57.7746 56.6245 56.9414V55.0767C56.6245 54.2831 55.9849 53.6086 55.1454 53.6086H53.1467C53.9462 53.6086 54.6258 52.9738 54.6258 52.1406V50.2758C54.6258 49.4823 53.9862 48.8078 53.1467 48.8078H55.1454C55.9449 48.8078 56.6245 48.173 56.6245 47.3398V45.475C56.6245 44.6815 55.9849 44.007 55.1454 44.007H53.1467C53.9462 44.007 54.6258 43.3722 54.6258 42.539V40.6742C54.6258 39.8807 53.9862 39.2062 53.1467 39.2062H55.1454C55.9449 39.2062 56.6245 38.5713 56.6245 37.7381V35.8734C56.6245 35.0798 55.9849 34.4053 55.1454 34.4053H53.1467C53.9462 34.4053 54.6258 33.7705 54.6258 32.9373V31.0725C54.6258 30.279 53.9862 29.6045 53.1467 29.6045H55.1454C55.9449 29.6045 56.6245 28.9697 56.6245 28.1365V26.2717C56.6245 25.4782 55.9849 24.8037 55.1454 24.8037H53.1467C53.9462 24.8037 54.6258 24.1689 54.6258 23.3357V21.4709C54.6258 20.6774 53.9862 20.0029 53.1467 20.0029H55.1454C55.9449 20.0029 56.6245 19.368 56.6245 18.5348V16.6701C56.6245 15.8765 55.9849 15.202 55.1454 15.202H53.1467C53.9462 15.202 54.6258 14.5672 54.6258 13.734V11.8692C54.6258 11.0757 53.9862 10.4012 53.1467 10.4012H55.1454C55.9449 10.2425 56.5845 9.60769 56.5845 8.77449Z" stroke="#808080" stroke-width="0.382721" stroke-miterlimit="10"/>
<path d="M45.3968 81.6103H47.9097L37.8225 100.26H35.3334L45.3968 81.6103ZM30.5697 86.1954C30.5697 85.3856 30.7443 84.6154 31.0937 83.885C31.4509 83.1545 31.9908 82.5948 32.7133 82.2058C33.4438 81.8088 34.3052 81.6103 35.2977 81.6103C36.7586 81.6103 37.9098 82.0271 38.7514 82.8608C39.593 83.6944 40.0138 84.806 40.0138 86.1954C40.0138 87.5928 39.593 88.7083 38.7514 89.5419C37.9098 90.3756 36.7586 90.7924 35.2977 90.7924C34.3052 90.7924 33.4438 90.5979 32.7133 90.2089C31.9908 89.8119 31.4509 89.2482 31.0937 88.5177C30.7443 87.7873 30.5697 87.0132 30.5697 86.1954ZM33.9162 86.2192C33.9162 87.2037 34.075 87.9183 34.3926 88.3629C34.599 88.6567 34.9007 88.8036 35.2977 88.8036C35.6947 88.8036 35.9924 88.6567 36.1909 88.3629C36.5085 87.9183 36.6673 87.2037 36.6673 86.2192C36.6673 85.2427 36.5085 84.5281 36.1909 84.0755C35.9924 83.7897 35.6947 83.6468 35.2977 83.6468C34.9007 83.6468 34.599 83.7897 34.3926 84.0755C34.075 84.5202 33.9162 85.2347 33.9162 86.2192ZM43.1579 95.6395C43.1579 94.8218 43.3325 94.0516 43.6819 93.3291C44.0312 92.5987 44.5711 92.035 45.3016 91.638C46.032 91.241 46.8895 91.0425 47.874 91.0425C49.3428 91.0425 50.498 91.4633 51.3396 92.3049C52.1812 93.1386 52.602 94.2501 52.602 95.6395C52.602 97.029 52.1812 98.1445 51.3396 98.9861C50.498 99.8197 49.3428 100.237 47.874 100.237C46.8895 100.237 46.032 100.038 45.3016 99.6411C44.5711 99.2441 44.0312 98.6844 43.6819 97.9619C43.3325 97.2314 43.1579 96.4573 43.1579 95.6395ZM46.5044 95.6634C46.5044 96.6479 46.6632 97.3624 46.9808 97.8071C47.1793 98.0929 47.477 98.2358 47.874 98.2358C48.271 98.2358 48.5727 98.0929 48.7791 97.8071C49.0967 97.3624 49.2555 96.6479 49.2555 95.6634C49.2555 94.6789 49.0967 93.9603 48.7791 93.5078C48.5727 93.2219 48.271 93.079 47.874 93.079C47.477 93.079 47.1793 93.2259 46.9808 93.5197C46.6632 93.9643 46.5044 94.6789 46.5044 95.6634Z" fill="#900583"/>
<path d="M2.68919 88.3415L10.9636 87.4845C11.2001 89.3561 11.8994 90.8435 13.0618 91.9468C14.2242 93.0303 15.5638 93.5721 17.0808 93.5721C18.8145 93.5721 20.2822 92.8727 21.484 91.4739C22.6858 90.0555 23.2867 87.9278 23.2867 85.0908C23.2867 82.4312 22.6858 80.4413 21.484 79.1214C20.3019 77.7817 18.7554 77.1119 16.8444 77.1119C14.4606 77.1119 12.323 78.1659 10.4317 80.2739L3.69395 79.2987L7.94938 56.7508H29.9062V64.5229H14.2439L12.9436 71.8812C14.7955 70.9553 16.6868 70.4923 18.6175 70.4923C22.3016 70.4923 25.4242 71.832 27.9854 74.5113C30.5465 77.1907 31.8271 80.6679 31.8271 84.943C31.8271 88.5089 30.7928 91.6907 28.7241 94.4882C25.9069 98.3102 21.9962 100.221 16.9922 100.221C12.9928 100.221 9.73232 99.1475 7.21059 97.0001C4.68885 94.8527 3.18172 91.9665 2.68919 88.3415Z" fill="#900583"/>
<path d="M2 100H74V119H7L2 100Z" fill="#900583"/>
<path d="M10.0855 113.027V111.369L14.1988 109.752L10.0855 108.152V106.506L15.9801 109.055V110.461L10.0855 113.027ZM19.4615 112.014L21.0552 111.838C21.0943 112.162 21.1959 112.402 21.3599 112.559C21.524 112.715 21.7408 112.793 22.0103 112.793C22.3502 112.793 22.6392 112.637 22.8775 112.324C23.1158 112.012 23.2681 111.363 23.3345 110.379C22.9205 110.859 22.4029 111.1 21.7818 111.1C21.106 111.1 20.522 110.84 20.0298 110.32C19.5416 109.797 19.2974 109.117 19.2974 108.281C19.2974 107.41 19.5552 106.709 20.0709 106.178C20.5904 105.643 21.2505 105.375 22.0513 105.375C22.9224 105.375 23.6373 105.713 24.1959 106.389C24.7545 107.061 25.0337 108.168 25.0337 109.711C25.0337 111.281 24.7427 112.414 24.1607 113.109C23.5787 113.805 22.8209 114.152 21.8873 114.152C21.2154 114.152 20.6724 113.975 20.2584 113.619C19.8443 113.26 19.5787 112.725 19.4615 112.014ZM23.188 108.416C23.188 107.885 23.065 107.473 22.8189 107.18C22.5767 106.887 22.2955 106.74 21.9752 106.74C21.6705 106.74 21.4166 106.861 21.2134 107.104C21.0142 107.342 20.9146 107.734 20.9146 108.281C20.9146 108.836 21.024 109.244 21.2427 109.506C21.4615 109.764 21.7349 109.893 22.063 109.893C22.3795 109.893 22.6451 109.768 22.8599 109.518C23.0787 109.268 23.188 108.9 23.188 108.416ZM31.2041 107.514L29.6104 107.689C29.5713 107.361 29.4698 107.119 29.3057 106.963C29.1416 106.807 28.9287 106.729 28.667 106.729C28.3194 106.729 28.0245 106.885 27.7823 107.197C27.544 107.51 27.3936 108.16 27.3311 109.148C27.7412 108.664 28.251 108.422 28.8604 108.422C29.5479 108.422 30.1358 108.684 30.6241 109.207C31.1162 109.73 31.3623 110.406 31.3623 111.234C31.3623 112.113 31.1045 112.818 30.5889 113.35C30.0733 113.881 29.4112 114.146 28.6026 114.146C27.7354 114.146 27.0225 113.811 26.4639 113.139C25.9053 112.463 25.626 111.357 25.626 109.822C25.626 108.248 25.917 107.113 26.4991 106.418C27.0811 105.723 27.837 105.375 28.7666 105.375C29.419 105.375 29.958 105.559 30.3838 105.926C30.8135 106.289 31.087 106.818 31.2041 107.514ZM27.4717 111.105C27.4717 111.641 27.5948 112.055 27.8409 112.348C28.087 112.637 28.3682 112.781 28.6846 112.781C28.9893 112.781 29.2432 112.662 29.4463 112.424C29.6495 112.186 29.751 111.795 29.751 111.252C29.751 110.693 29.6416 110.285 29.4229 110.027C29.2041 109.766 28.9307 109.635 28.6026 109.635C28.2862 109.635 28.0186 109.76 27.7998 110.01C27.5811 110.256 27.4717 110.621 27.4717 111.105ZM34.6089 105.375C35.4409 105.375 36.0913 105.672 36.5601 106.266C37.1187 106.969 37.398 108.135 37.398 109.764C37.398 111.389 37.1167 112.557 36.5542 113.268C36.0894 113.854 35.4409 114.146 34.6089 114.146C33.773 114.146 33.0991 113.826 32.5874 113.186C32.0757 112.541 31.8198 111.395 31.8198 109.746C31.8198 108.129 32.1011 106.965 32.6636 106.254C33.1284 105.668 33.7769 105.375 34.6089 105.375ZM34.6089 106.74C34.4097 106.74 34.232 106.805 34.0757 106.934C33.9195 107.059 33.7984 107.285 33.7124 107.613C33.5991 108.039 33.5425 108.756 33.5425 109.764C33.5425 110.771 33.5933 111.465 33.6948 111.844C33.7964 112.219 33.9234 112.469 34.0757 112.594C34.232 112.719 34.4097 112.781 34.6089 112.781C34.8081 112.781 34.9859 112.719 35.1421 112.594C35.2984 112.465 35.4195 112.236 35.5054 111.908C35.6187 111.486 35.6753 110.771 35.6753 109.764C35.6753 108.756 35.6245 108.064 35.523 107.689C35.4214 107.311 35.2925 107.059 35.1362 106.934C34.9839 106.805 34.8081 106.74 34.6089 106.74ZM43.6684 105.375C44.5005 105.375 45.1509 105.672 45.6196 106.266C46.1782 106.969 46.4575 108.135 46.4575 109.764C46.4575 111.389 46.1763 112.557 45.6138 113.268C45.1489 113.854 44.5005 114.146 43.6684 114.146C42.8325 114.146 42.1587 113.826 41.647 113.186C41.1352 112.541 40.8794 111.395 40.8794 109.746C40.8794 108.129 41.1606 106.965 41.7231 106.254C42.188 105.668 42.8364 105.375 43.6684 105.375ZM43.6684 106.74C43.4692 106.74 43.2915 106.805 43.1352 106.934C42.979 107.059 42.8579 107.285 42.772 107.613C42.6587 108.039 42.602 108.756 42.602 109.764C42.602 110.771 42.6528 111.465 42.7544 111.844C42.8559 112.219 42.9829 112.469 43.1352 112.594C43.2915 112.719 43.4692 112.781 43.6684 112.781C43.8677 112.781 44.0454 112.719 44.2016 112.594C44.3579 112.465 44.479 112.236 44.5649 111.908C44.6782 111.486 44.7348 110.771 44.7348 109.764C44.7348 108.756 44.6841 108.064 44.5825 107.689C44.4809 107.311 44.352 107.059 44.1958 106.934C44.0434 106.805 43.8677 106.74 43.6684 106.74ZM49.8681 105.375C50.7002 105.375 51.3505 105.672 51.8193 106.266C52.3779 106.969 52.6572 108.135 52.6572 109.764C52.6572 111.389 52.3759 112.557 51.8134 113.268C51.3486 113.854 50.7002 114.146 49.8681 114.146C49.0322 114.146 48.3584 113.826 47.8466 113.186C47.3349 112.541 47.0791 111.395 47.0791 109.746C47.0791 108.129 47.3603 106.965 47.9228 106.254C48.3877 105.668 49.0361 105.375 49.8681 105.375ZM49.8681 106.74C49.6689 106.74 49.4912 106.805 49.3349 106.934C49.1787 107.059 49.0576 107.285 48.9716 107.613C48.8584 108.039 48.8017 108.756 48.8017 109.764C48.8017 110.771 48.8525 111.465 48.9541 111.844C49.0556 112.219 49.1826 112.469 49.3349 112.594C49.4912 112.719 49.6689 112.781 49.8681 112.781C50.0673 112.781 50.2451 112.719 50.4013 112.594C50.5576 112.465 50.6787 112.236 50.7646 111.908C50.8779 111.486 50.9345 110.771 50.9345 109.764C50.9345 108.756 50.8838 108.064 50.7822 107.689C50.6806 107.311 50.5517 107.059 50.3955 106.934C50.2431 106.805 50.0673 106.74 49.8681 106.74ZM56.0678 105.375C56.8998 105.375 57.5502 105.672 58.019 106.266C58.5776 106.969 58.8569 108.135 58.8569 109.764C58.8569 111.389 58.5756 112.557 58.0131 113.268C57.5483 113.854 56.8998 114.146 56.0678 114.146C55.2319 114.146 54.558 113.826 54.0463 113.186C53.5346 112.541 53.2787 111.395 53.2787 109.746C53.2787 108.129 53.56 106.965 54.1225 106.254C54.5873 105.668 55.2358 105.375 56.0678 105.375ZM56.0678 106.74C55.8686 106.74 55.6909 106.805 55.5346 106.934C55.3784 107.059 55.2573 107.285 55.1713 107.613C55.058 108.039 55.0014 108.756 55.0014 109.764C55.0014 110.771 55.0522 111.465 55.1537 111.844C55.2553 112.219 55.3823 112.469 55.5346 112.594C55.6909 112.719 55.8686 112.781 56.0678 112.781C56.267 112.781 56.4448 112.719 56.601 112.594C56.7573 112.465 56.8784 112.236 56.9643 111.908C57.0776 111.486 57.1342 110.771 57.1342 109.764C57.1342 108.756 57.0834 108.064 56.9819 107.689C56.8803 107.311 56.7514 107.059 56.5952 106.934C56.4428 106.805 56.267 106.74 56.0678 106.74ZM63.4184 110.676V111.468H62.0984V112.704H63.4184V114H65.1344V112.704H68.1824V111.468H65.1344V110.676H67.0304C67.9304 110.676 68.6384 110.436 69.1664 109.968C69.6944 109.5 69.9584 108.888 69.9584 108.132C69.9584 107.376 69.6944 106.776 69.1664 106.308C68.6384 105.84 67.9304 105.6 67.0304 105.6H63.4184V109.44H62.0984V110.676H63.4184ZM65.1344 107.112H66.8024C67.6784 107.112 68.2184 107.52 68.2184 108.276C68.2184 109.008 67.6784 109.44 66.8024 109.44H65.1344V107.112Z" fill="white"/>
<path d="M38 126L31 119H74L38 126Z" fill="#710167"/>
</svg>
