<svg width="68" height="117" viewBox="0 0 68 117" fill="none" xmlns="http://www.w3.org/2000/svg">
<path d="M56.5825 8.77375V6.90897C56.5825 6.11544 55.943 5.44095 55.1035 5.44095H53.1048C53.9043 5.44095 54.5838 4.80613 54.5838 3.97293V2.26685C54.5838 1.47332 53.9442 0.798828 53.1048 0.798828H8.89311C8.09363 0.798828 7.41406 1.43365 7.41406 2.26685V4.13163C7.41406 4.92516 8.05365 5.59965 8.89311 5.59965H10.8918C10.0923 5.59965 9.41278 6.23447 9.41278 7.06767V8.93246C9.41278 9.72598 10.0524 10.4005 10.8918 10.4005H8.89311C8.09363 10.4005 7.41406 11.0353 7.41406 11.8685V13.7333C7.41406 14.5268 8.05365 15.2013 8.89311 15.2013H10.8918C10.0923 15.2013 9.41278 15.8361 9.41278 16.6693V18.5341C9.41278 19.3276 10.0524 20.0021 10.8918 20.0021H8.89311C8.09363 20.0021 7.41406 20.6369 7.41406 21.4701V23.3349C7.41406 24.1285 8.05365 24.803 8.89311 24.803H10.8918C10.0923 24.803 9.41278 25.4378 9.41278 26.271V28.1358C9.41278 28.9293 10.0524 29.6038 10.8918 29.6038H8.89311C8.09363 29.6038 7.41406 30.2386 7.41406 31.0718V32.9366C7.41406 33.7301 8.05365 34.4046 8.89311 34.4046H10.8918C10.0923 34.4046 9.41278 35.0394 9.41278 35.8726V37.7374C9.41278 38.5309 10.0524 39.2054 10.8918 39.2054H8.89311C8.09363 39.2054 7.41406 39.8403 7.41406 40.6735V42.5382C7.41406 43.3318 8.05365 44.0063 8.89311 44.0063H10.8918C10.0923 44.0063 9.41278 44.6411 9.41278 45.4743V47.3391C9.41278 48.1326 10.0524 48.8071 10.8918 48.8071H8.89311C8.09363 48.8071 7.41406 49.4419 7.41406 50.2751V52.1399C7.41406 52.9334 8.05365 53.6079 8.89311 53.6079H10.8918C10.0923 53.6079 9.41278 54.2427 9.41278 55.0759V56.9407C9.41278 57.7342 10.0524 58.4087 10.8918 58.4087H8.89311C8.09363 58.4087 7.41406 59.0436 7.41406 59.8768V61.7415C7.41406 62.5351 8.05365 63.2096 8.89311 63.2096H10.8918C10.0923 63.2096 9.41278 63.8444 9.41278 64.6776V66.5424C9.41278 67.3359 10.0524 68.0104 10.8918 68.0104H8.89311C8.09363 68.0104 7.41406 68.6452 7.41406 69.4784V71.3432C7.41406 72.1367 8.05365 72.8112 8.89311 72.8112H10.8918C10.0923 72.8112 9.41278 73.446 9.41278 74.2792V76.144C9.41278 76.9375 10.0524 77.612 10.8918 77.612H8.89311C8.09363 77.612 7.41406 78.2469 7.41406 79.0801V80.9448C7.41406 81.7384 8.05365 82.4129 8.89311 82.4129H10.8918C10.0923 82.4129 9.41278 83.0477 9.41278 83.8809V85.7457C9.41278 86.5392 10.0524 87.2137 10.8918 87.2137H8.89311C8.09363 87.2137 7.41406 87.8485 7.41406 88.6817V90.5465C7.41406 91.34 8.05365 92.0145 8.89311 92.0145H10.8918C10.0923 92.0145 9.41278 92.6493 9.41278 93.4825V95.3473C9.41278 96.1408 10.0524 96.8153 10.8918 96.8153H8.89311C8.09363 96.8153 7.41406 97.4502 7.41406 98.2834V100.148C7.41406 100.942 8.05365 101.616 8.89311 101.616H53.1447C53.9442 101.616 54.6238 100.981 54.6238 100.148V98.2834C54.6238 97.4898 53.9842 96.8153 53.1447 96.8153H55.1435C55.943 96.8153 56.6225 96.1805 56.6225 95.3473V93.4825C56.6225 92.689 55.9829 92.0145 55.1435 92.0145H53.1447C53.9442 92.0145 54.6238 91.3797 54.6238 90.5465V88.6817C54.6238 87.8882 53.9842 87.2137 53.1447 87.2137H55.1435C55.943 87.2137 56.6225 86.5789 56.6225 85.7457V83.8809C56.6225 83.0874 55.9829 82.4129 55.1435 82.4129H53.1447C53.9442 82.4129 54.6238 81.778 54.6238 80.9448V79.0801C54.6238 78.2865 53.9842 77.612 53.1447 77.612H55.1435C55.943 77.612 56.6225 76.9772 56.6225 76.144V74.2792C56.6225 73.4857 55.9829 72.8112 55.1435 72.8112H53.1447C53.9442 72.8112 54.6238 72.1764 54.6238 71.3432V69.4784C54.6238 68.6849 53.9842 68.0104 53.1447 68.0104H55.1435C55.943 68.0104 56.6225 67.3756 56.6225 66.5424V64.6776C56.6225 63.8841 55.9829 63.2096 55.1435 63.2096H53.1447C53.9442 63.2096 54.6238 62.5747 54.6238 61.7415V59.8768C54.6238 59.0832 53.9842 58.4087 53.1447 58.4087H55.1435C55.943 58.4087 56.6225 57.7739 56.6225 56.9407V55.0759C56.6225 54.2824 55.9829 53.6079 55.1435 53.6079H53.1447C53.9442 53.6079 54.6238 52.9731 54.6238 52.1399V50.2751C54.6238 49.4816 53.9842 48.8071 53.1447 48.8071H55.1435C55.943 48.8071 56.6225 48.1723 56.6225 47.3391V45.4743C56.6225 44.6808 55.9829 44.0063 55.1435 44.0063H53.1447C53.9442 44.0063 54.6238 43.3714 54.6238 42.5382V40.6735C54.6238 39.8799 53.9842 39.2054 53.1447 39.2054H55.1435C55.943 39.2054 56.6225 38.5706 56.6225 37.7374V35.8726C56.6225 35.0791 55.9829 34.4046 55.1435 34.4046H53.1447C53.9442 34.4046 54.6238 33.7698 54.6238 32.9366V31.0718C54.6238 30.2783 53.9842 29.6038 53.1447 29.6038H55.1435C55.943 29.6038 56.6225 28.969 56.6225 28.1358V26.271C56.6225 25.4774 55.9829 24.803 55.1435 24.803H53.1447C53.9442 24.803 54.6238 24.1681 54.6238 23.3349V21.4701C54.6238 20.6766 53.9842 20.0021 53.1447 20.0021H55.1435C55.943 20.0021 56.6225 19.3673 56.6225 18.5341V16.6693C56.6225 15.8758 55.9829 15.2013 55.1435 15.2013H53.1447C53.9442 15.2013 54.6238 14.5665 54.6238 13.7333V11.8685C54.6238 11.075 53.9842 10.4005 53.1447 10.4005H55.1435C55.943 10.2418 56.5825 9.60695 56.5825 8.77375Z" fill="white"/>
<path d="M55.1071 20.004H10.897C10.0975 20.004 9.41797 19.3691 9.41797 18.5359V16.6711C9.41797 15.8776 10.0575 15.2031 10.897 15.2031H55.1471C55.9465 15.2031 56.6261 15.8379 56.6261 16.6711V18.5359C56.5861 19.3691 55.9465 20.004 55.1071 20.004Z" stroke="#DDDDDD" stroke-width="0.382721" stroke-miterlimit="10"/>
<path d="M53.1032 15.2032H8.89306C8.0936 15.2032 7.41406 14.5683 7.41406 13.7351V11.8704C7.41406 11.0768 8.05363 10.4023 8.89306 10.4023H53.1432C53.9426 10.4023 54.6222 11.0372 54.6222 11.8704V13.7351C54.5822 14.5683 53.9426 15.2032 53.1032 15.2032Z" stroke="#DDDDDD" stroke-width="0.382721" stroke-miterlimit="10"/>
<path d="M55.1071 10.4024H10.897C10.0975 10.4024 9.41797 9.76757 9.41797 8.93437V7.06958C9.41797 6.27606 10.0575 5.60156 10.897 5.60156H55.1471C55.9465 5.60156 56.6261 6.23638 56.6261 7.06958V8.93437C56.5861 9.76757 55.9465 10.4024 55.1071 10.4024Z" stroke="#DDDDDD" stroke-width="0.382721" stroke-miterlimit="10"/>
<path d="M53.1032 5.59965H8.89306C8.0936 5.59965 7.41406 4.95954 7.41406 4.1194V2.27908C7.41406 1.47894 8.05363 0.798828 8.89306 0.798828H53.1432C53.9426 0.798828 54.6222 1.43894 54.6222 2.27908V4.15941C54.5822 4.95954 53.9426 5.59965 53.1032 5.59965Z" stroke="#DDDDDD" stroke-width="0.382721" stroke-miterlimit="10"/>
<path d="M55.1071 39.2071H10.897C10.0975 39.2071 9.41797 38.5723 9.41797 37.7391V35.8743C9.41797 35.0807 10.0575 34.4062 10.897 34.4062H55.1471C55.9465 34.4062 56.6261 35.0411 56.6261 35.8743V37.7391C56.5861 38.5723 55.9465 39.2071 55.1071 39.2071Z" stroke="#DDDDDD" stroke-width="0.382721" stroke-miterlimit="10"/>
<path d="M53.1032 34.4063H8.89306C8.0936 34.4063 7.41406 33.7715 7.41406 32.9383V31.0735C7.41406 30.28 8.05363 29.6055 8.89306 29.6055H53.1432C53.9426 29.6055 54.6222 30.2403 54.6222 31.0735V32.9383C54.5822 33.7715 53.9426 34.4063 53.1032 34.4063Z" stroke="#DDDDDD" stroke-width="0.382721" stroke-miterlimit="10"/>
<path d="M55.1071 29.6055H10.897C10.0975 29.6055 9.41797 28.9707 9.41797 28.1375V26.2727C9.41797 25.4792 10.0575 24.8047 10.897 24.8047H55.1471C55.9465 24.8047 56.6261 25.4395 56.6261 26.2727V28.1375C56.5861 28.9707 55.9465 29.6055 55.1071 29.6055Z" stroke="#DDDDDD" stroke-width="0.382721" stroke-miterlimit="10"/>
<path d="M53.1032 24.8047H8.89306C8.0936 24.8047 7.41406 24.1699 7.41406 23.3367V21.4719C7.41406 20.6784 8.05363 20.0039 8.89306 20.0039H53.1432C53.9426 20.0039 54.6222 20.6387 54.6222 21.4719V23.3367C54.5822 24.1699 53.9426 24.8047 53.1032 24.8047Z" stroke="#DDDDDD" stroke-width="0.382721" stroke-miterlimit="10"/>
<path d="M55.1071 58.4102H10.897C10.0975 58.4102 9.41797 57.7754 9.41797 56.9422V55.0774C9.41797 54.2839 10.0575 53.6094 10.897 53.6094H55.1471C55.9465 53.6094 56.6261 54.2442 56.6261 55.0774V56.9422C56.5861 57.7754 55.9465 58.4102 55.1071 58.4102Z" stroke="#DDDDDD" stroke-width="0.382721" stroke-miterlimit="10"/>
<path d="M53.1032 53.6094H8.89306C8.0936 53.6094 7.41406 52.9746 7.41406 52.1414V50.2766C7.41406 49.4831 8.05363 48.8086 8.89306 48.8086H53.1432C53.9426 48.8086 54.6222 49.4434 54.6222 50.2766V52.1414C54.5822 52.9746 53.9426 53.6094 53.1032 53.6094Z" stroke="#DDDDDD" stroke-width="0.382721" stroke-miterlimit="10"/>
<path d="M55.1071 48.8086H10.897C10.0975 48.8086 9.41797 48.1738 9.41797 47.3406V45.4758C9.41797 44.6823 10.0575 44.0078 10.897 44.0078H55.1471C55.9465 44.0078 56.6261 44.6426 56.6261 45.4758V47.3406C56.5861 48.1738 55.9465 48.8086 55.1071 48.8086Z" stroke="#DDDDDD" stroke-width="0.382721" stroke-miterlimit="10"/>
<path d="M53.1032 44.0079H8.89306C8.0936 44.0079 7.41406 43.373 7.41406 42.5398V40.6751C7.41406 39.8815 8.05363 39.207 8.89306 39.207H53.1432C53.9426 39.207 54.6222 39.8419 54.6222 40.6751V42.5398C54.5822 43.373 53.9426 44.0079 53.1032 44.0079Z" stroke="#DDDDDD" stroke-width="0.382721" stroke-miterlimit="10"/>
<path d="M55.1071 77.6133H10.897C10.0975 77.6133 9.41797 76.9785 9.41797 76.1453V74.2805C9.41797 73.487 10.0575 72.8125 10.897 72.8125H55.1471C55.9465 72.8125 56.6261 73.4473 56.6261 74.2805V76.1453C56.5861 76.9785 55.9465 77.6133 55.1071 77.6133Z" stroke="#DDDDDD" stroke-width="0.382721" stroke-miterlimit="10"/>
<path d="M53.1032 72.8125H8.89306C8.0936 72.8125 7.41406 72.1777 7.41406 71.3445V69.4797C7.41406 68.6862 8.05363 68.0117 8.89306 68.0117H53.1432C53.9426 68.0117 54.6222 68.6465 54.6222 69.4797V71.3445C54.5822 72.1777 53.9426 72.8125 53.1032 72.8125Z" stroke="#DDDDDD" stroke-width="0.382721" stroke-miterlimit="10"/>
<path d="M55.1071 68.0118H10.897C10.0975 68.0118 9.41797 67.3769 9.41797 66.5437V64.679C9.41797 63.8854 10.0575 63.2109 10.897 63.2109H55.1471C55.9465 63.2109 56.6261 63.8458 56.6261 64.679V66.5437C56.5861 67.3769 55.9465 68.0118 55.1071 68.0118Z" stroke="#DDDDDD" stroke-width="0.382721" stroke-miterlimit="10"/>
<path d="M53.1032 63.211H8.89306C8.0936 63.211 7.41406 62.5762 7.41406 61.743V59.8782C7.41406 59.0847 8.05363 58.4102 8.89306 58.4102H53.1432C53.9426 58.4102 54.6222 59.045 54.6222 59.8782V61.743C54.5822 62.5762 53.9426 63.211 53.1032 63.211Z" stroke="#DDDDDD" stroke-width="0.382721" stroke-miterlimit="10"/>
<path d="M55.1071 87.2149H10.897C10.0975 87.2149 9.41797 86.5801 9.41797 85.7469V83.8821C9.41797 83.0886 10.0575 82.4141 10.897 82.4141H55.1471C55.9465 82.4141 56.6261 83.0489 56.6261 83.8821V85.7469C56.5861 86.5801 55.9465 87.2149 55.1071 87.2149Z" stroke="#DDDDDD" stroke-width="0.382721" stroke-miterlimit="10"/>
<path d="M53.1032 82.4141H8.89306C8.0936 82.4141 7.41406 81.7793 7.41406 80.9461V79.0813C7.41406 78.2878 8.05363 77.6133 8.89306 77.6133H53.1432C53.9426 77.6133 54.6222 78.2481 54.6222 79.0813V80.9461C54.5822 81.7793 53.9426 82.4141 53.1032 82.4141Z" stroke="#DDDDDD" stroke-width="0.382721" stroke-miterlimit="10"/>
<path d="M53.1032 101.619H8.89306C8.0936 101.619 7.41406 100.984 7.41406 100.151V98.2864C7.41406 97.4929 8.05363 96.8184 8.89306 96.8184H53.1432C53.9426 96.8184 54.6222 97.4532 54.6222 98.2864V100.151C54.5822 100.984 53.9426 101.619 53.1032 101.619Z" stroke="#DDDDDD" stroke-width="0.382721" stroke-miterlimit="10"/>
<path d="M55.1071 96.8165H10.897C10.0975 96.8165 9.41797 96.1816 9.41797 95.3484V93.4837C9.41797 92.6901 10.0575 92.0156 10.897 92.0156H55.1471C55.9465 92.0156 56.6261 92.6504 56.6261 93.4837V95.3484C56.5861 96.1816 55.9465 96.8165 55.1071 96.8165Z" stroke="#DDDDDD" stroke-width="0.382721" stroke-miterlimit="10"/>
<path d="M53.1032 92.0157H8.89306C8.0936 92.0157 7.41406 91.3808 7.41406 90.5476V88.6829C7.41406 87.8893 8.05363 87.2148 8.89306 87.2148H53.1432C53.9426 87.2148 54.6222 87.8497 54.6222 88.6829V90.5476C54.5822 91.3808 53.9426 92.0157 53.1032 92.0157Z" stroke="#DDDDDD" stroke-width="0.382721" stroke-miterlimit="10"/>
<path d="M7.33594 1.59961H54.304" stroke="#DDDDDD" stroke-width="0.191361" stroke-miterlimit="10"/>
<path d="M7.33594 4.80078H54.304" stroke="#DDDDDD" stroke-width="0.191361" stroke-miterlimit="10"/>
<path d="M8.375 1.59961V4.80016" stroke="#DDDDDD" stroke-width="0.191361" stroke-miterlimit="10"/>
<path d="M9.97266 1.59961V4.80016" stroke="#DDDDDD" stroke-width="0.191361" stroke-miterlimit="10"/>
<path d="M11.5742 1.59961V4.80016" stroke="#DDDDDD" stroke-width="0.191361" stroke-miterlimit="10"/>
<path d="M13.1758 1.59961V4.80016" stroke="#DDDDDD" stroke-width="0.191361" stroke-miterlimit="10"/>
<path d="M14.7773 1.59961V4.80016" stroke="#DDDDDD" stroke-width="0.191361" stroke-miterlimit="10"/>
<path d="M16.375 1.59961V4.80016" stroke="#DDDDDD" stroke-width="0.191361" stroke-miterlimit="10"/>
<path d="M17.9766 1.59961V4.80016" stroke="#DDDDDD" stroke-width="0.191361" stroke-miterlimit="10"/>
<path d="M19.5742 1.59961V4.80016" stroke="#DDDDDD" stroke-width="0.191361" stroke-miterlimit="10"/>
<path d="M21.1797 1.59961V4.80016" stroke="#DDDDDD" stroke-width="0.191361" stroke-miterlimit="10"/>
<path d="M22.7773 1.59961V4.80016" stroke="#DDDDDD" stroke-width="0.191361" stroke-miterlimit="10"/>
<path d="M24.3789 1.59961V4.80016" stroke="#DDDDDD" stroke-width="0.191361" stroke-miterlimit="10"/>
<path d="M25.9766 1.59961V4.80016" stroke="#DDDDDD" stroke-width="0.191361" stroke-miterlimit="10"/>
<path d="M27.5742 1.59961V4.80016" stroke="#DDDDDD" stroke-width="0.191361" stroke-miterlimit="10"/>
<path d="M29.1797 1.59961V4.80016" stroke="#DDDDDD" stroke-width="0.191361" stroke-miterlimit="10"/>
<path d="M30.7773 1.59961V4.80016" stroke="#DDDDDD" stroke-width="0.191361" stroke-miterlimit="10"/>
<path d="M32.3789 1.59961V4.80016" stroke="#DDDDDD" stroke-width="0.191361" stroke-miterlimit="10"/>
<path d="M33.9766 1.59961V4.80016" stroke="#DDDDDD" stroke-width="0.191361" stroke-miterlimit="10"/>
<path d="M35.5781 1.59961V4.80016" stroke="#DDDDDD" stroke-width="0.191361" stroke-miterlimit="10"/>
<path d="M37.1758 1.59961V4.80016" stroke="#DDDDDD" stroke-width="0.191361" stroke-miterlimit="10"/>
<path d="M38.7812 1.59961V4.80016" stroke="#DDDDDD" stroke-width="0.191361" stroke-miterlimit="10"/>
<path d="M40.3789 1.59961V4.80016" stroke="#DDDDDD" stroke-width="0.191361" stroke-miterlimit="10"/>
<path d="M41.9805 1.59961V4.80016" stroke="#DDDDDD" stroke-width="0.191361" stroke-miterlimit="10"/>
<path d="M43.5781 1.59961V4.80016" stroke="#DDDDDD" stroke-width="0.191361" stroke-miterlimit="10"/>
<path d="M45.1797 1.59961V4.80016" stroke="#DDDDDD" stroke-width="0.191361" stroke-miterlimit="10"/>
<path d="M46.7812 1.59961V4.80016" stroke="#DDDDDD" stroke-width="0.191361" stroke-miterlimit="10"/>
<path d="M48.3828 1.59961V4.80016" stroke="#DDDDDD" stroke-width="0.191361" stroke-miterlimit="10"/>
<path d="M49.9805 1.59961V4.80016" stroke="#DDDDDD" stroke-width="0.191361" stroke-miterlimit="10"/>
<path d="M51.582 1.59961V4.80016" stroke="#DDDDDD" stroke-width="0.191361" stroke-miterlimit="10"/>
<path d="M53.1797 1.59961V4.80016" stroke="#DDDDDD" stroke-width="0.191361" stroke-miterlimit="10"/>
<path d="M9.33984 6.40039H56.3079" stroke="#DDDDDD" stroke-width="0.191361" stroke-miterlimit="10"/>
<path d="M9.33984 9.60156H56.3079" stroke="#DDDDDD" stroke-width="0.191361" stroke-miterlimit="10"/>
<path d="M10.3789 6.40039V9.60094" stroke="#DDDDDD" stroke-width="0.191361" stroke-miterlimit="10"/>
<path d="M11.9805 6.40039V9.60094" stroke="#DDDDDD" stroke-width="0.191361" stroke-miterlimit="10"/>
<path d="M13.5781 6.40039V9.60094" stroke="#DDDDDD" stroke-width="0.191361" stroke-miterlimit="10"/>
<path d="M15.1797 6.40039V9.60094" stroke="#DDDDDD" stroke-width="0.191361" stroke-miterlimit="10"/>
<path d="M16.7812 6.40039V9.60094" stroke="#DDDDDD" stroke-width="0.191361" stroke-miterlimit="10"/>
<path d="M18.3789 6.40039V9.60094" stroke="#DDDDDD" stroke-width="0.191361" stroke-miterlimit="10"/>
<path d="M19.9805 6.40039V9.60094" stroke="#DDDDDD" stroke-width="0.191361" stroke-miterlimit="10"/>
<path d="M21.5781 6.40039V9.60094" stroke="#DDDDDD" stroke-width="0.191361" stroke-miterlimit="10"/>
<path d="M23.1836 6.40039V9.60094" stroke="#DDDDDD" stroke-width="0.191361" stroke-miterlimit="10"/>
<path d="M24.7812 6.40039V9.60094" stroke="#DDDDDD" stroke-width="0.191361" stroke-miterlimit="10"/>
<path d="M26.3828 6.40039V9.60094" stroke="#DDDDDD" stroke-width="0.191361" stroke-miterlimit="10"/>
<path d="M27.9805 6.40039V9.60094" stroke="#DDDDDD" stroke-width="0.191361" stroke-miterlimit="10"/>
<path d="M29.582 6.40039V9.60094" stroke="#DDDDDD" stroke-width="0.191361" stroke-miterlimit="10"/>
<path d="M31.1797 6.40039V9.60094" stroke="#DDDDDD" stroke-width="0.191361" stroke-miterlimit="10"/>
<path d="M32.7852 6.40039V9.60094" stroke="#DDDDDD" stroke-width="0.191361" stroke-miterlimit="10"/>
<path d="M34.3828 6.40039V9.60094" stroke="#DDDDDD" stroke-width="0.191361" stroke-miterlimit="10"/>
<path d="M35.9844 6.40039V9.60094" stroke="#DDDDDD" stroke-width="0.191361" stroke-miterlimit="10"/>
<path d="M37.582 6.40039V9.60094" stroke="#DDDDDD" stroke-width="0.191361" stroke-miterlimit="10"/>
<path d="M39.1836 6.40039V9.60094" stroke="#DDDDDD" stroke-width="0.191361" stroke-miterlimit="10"/>
<path d="M40.7852 6.40039V9.60094" stroke="#DDDDDD" stroke-width="0.191361" stroke-miterlimit="10"/>
<path d="M42.3867 6.40039V9.60094" stroke="#DDDDDD" stroke-width="0.191361" stroke-miterlimit="10"/>
<path d="M43.9844 6.40039V9.60094" stroke="#DDDDDD" stroke-width="0.191361" stroke-miterlimit="10"/>
<path d="M45.5859 6.40039V9.60094" stroke="#DDDDDD" stroke-width="0.191361" stroke-miterlimit="10"/>
<path d="M47.1836 6.40039V9.60094" stroke="#DDDDDD" stroke-width="0.191361" stroke-miterlimit="10"/>
<path d="M48.7852 6.40039V9.60094" stroke="#DDDDDD" stroke-width="0.191361" stroke-miterlimit="10"/>
<path d="M50.3867 6.40039V9.60094" stroke="#DDDDDD" stroke-width="0.191361" stroke-miterlimit="10"/>
<path d="M51.9883 6.40039V9.60094" stroke="#DDDDDD" stroke-width="0.191361" stroke-miterlimit="10"/>
<path d="M53.5859 6.40039V9.60094" stroke="#DDDDDD" stroke-width="0.191361" stroke-miterlimit="10"/>
<path d="M55.1836 6.40039V9.60094" stroke="#DDDDDD" stroke-width="0.191361" stroke-miterlimit="10"/>
<path d="M7.33594 11.1992H54.304" stroke="#DDDDDD" stroke-width="0.191361" stroke-miterlimit="10"/>
<path d="M7.33594 14.4004H54.304" stroke="#DDDDDD" stroke-width="0.191361" stroke-miterlimit="10"/>
<path d="M8.375 11.1992V14.3998" stroke="#DDDDDD" stroke-width="0.191361" stroke-miterlimit="10"/>
<path d="M9.97266 11.1992V14.3998" stroke="#DDDDDD" stroke-width="0.191361" stroke-miterlimit="10"/>
<path d="M11.5742 11.1992V14.3998" stroke="#DDDDDD" stroke-width="0.191361" stroke-miterlimit="10"/>
<path d="M13.1758 11.1992V14.3998" stroke="#DDDDDD" stroke-width="0.191361" stroke-miterlimit="10"/>
<path d="M14.7773 11.1992V14.3998" stroke="#DDDDDD" stroke-width="0.191361" stroke-miterlimit="10"/>
<path d="M16.375 11.1992V14.3998" stroke="#DDDDDD" stroke-width="0.191361" stroke-miterlimit="10"/>
<path d="M17.9766 11.1992V14.3998" stroke="#DDDDDD" stroke-width="0.191361" stroke-miterlimit="10"/>
<path d="M19.5742 11.1992V14.3998" stroke="#DDDDDD" stroke-width="0.191361" stroke-miterlimit="10"/>
<path d="M21.1797 11.1992V14.3998" stroke="#DDDDDD" stroke-width="0.191361" stroke-miterlimit="10"/>
<path d="M22.7773 11.1992V14.3998" stroke="#DDDDDD" stroke-width="0.191361" stroke-miterlimit="10"/>
<path d="M24.3789 11.1992V14.3998" stroke="#DDDDDD" stroke-width="0.191361" stroke-miterlimit="10"/>
<path d="M25.9766 11.1992V14.3998" stroke="#DDDDDD" stroke-width="0.191361" stroke-miterlimit="10"/>
<path d="M27.5781 11.1992V14.3998" stroke="#DDDDDD" stroke-width="0.191361" stroke-miterlimit="10"/>
<path d="M29.1797 11.1992V14.3998" stroke="#DDDDDD" stroke-width="0.191361" stroke-miterlimit="10"/>
<path d="M30.7773 11.1992V14.3998" stroke="#DDDDDD" stroke-width="0.191361" stroke-miterlimit="10"/>
<path d="M32.3789 11.1992V14.3998" stroke="#DDDDDD" stroke-width="0.191361" stroke-miterlimit="10"/>
<path d="M33.9766 11.1992V14.3998" stroke="#DDDDDD" stroke-width="0.191361" stroke-miterlimit="10"/>
<path d="M35.5781 11.1992V14.3998" stroke="#DDDDDD" stroke-width="0.191361" stroke-miterlimit="10"/>
<path d="M37.1797 11.1992V14.3998" stroke="#DDDDDD" stroke-width="0.191361" stroke-miterlimit="10"/>
<path d="M38.7812 11.1992V14.3998" stroke="#DDDDDD" stroke-width="0.191361" stroke-miterlimit="10"/>
<path d="M40.3789 11.1992V14.3998" stroke="#DDDDDD" stroke-width="0.191361" stroke-miterlimit="10"/>
<path d="M41.9805 11.1992V14.3998" stroke="#DDDDDD" stroke-width="0.191361" stroke-miterlimit="10"/>
<path d="M43.5781 11.1992V14.3998" stroke="#DDDDDD" stroke-width="0.191361" stroke-miterlimit="10"/>
<path d="M45.1797 11.1992V14.3998" stroke="#DDDDDD" stroke-width="0.191361" stroke-miterlimit="10"/>
<path d="M46.7812 11.1992V14.3998" stroke="#DDDDDD" stroke-width="0.191361" stroke-miterlimit="10"/>
<path d="M48.3828 11.1992V14.3998" stroke="#DDDDDD" stroke-width="0.191361" stroke-miterlimit="10"/>
<path d="M49.9805 11.1992V14.3998" stroke="#DDDDDD" stroke-width="0.191361" stroke-miterlimit="10"/>
<path d="M51.582 11.1992V14.3998" stroke="#DDDDDD" stroke-width="0.191361" stroke-miterlimit="10"/>
<path d="M53.1797 11.1992V14.3998" stroke="#DDDDDD" stroke-width="0.191361" stroke-miterlimit="10"/>
<path d="M9.33984 16.0039H56.3079" stroke="#DDDDDD" stroke-width="0.191361" stroke-miterlimit="10"/>
<path d="M9.33984 19.2051H56.3079" stroke="#DDDDDD" stroke-width="0.191361" stroke-miterlimit="10"/>
<path d="M10.3789 16.0039V19.2045" stroke="#DDDDDD" stroke-width="0.191361" stroke-miterlimit="10"/>
<path d="M11.9805 16.0039V19.2045" stroke="#DDDDDD" stroke-width="0.191361" stroke-miterlimit="10"/>
<path d="M13.5781 16.0039V19.2045" stroke="#DDDDDD" stroke-width="0.191361" stroke-miterlimit="10"/>
<path d="M15.1797 16.0039V19.2045" stroke="#DDDDDD" stroke-width="0.191361" stroke-miterlimit="10"/>
<path d="M16.7812 16.0039V19.2045" stroke="#DDDDDD" stroke-width="0.191361" stroke-miterlimit="10"/>
<path d="M18.3789 16.0039V19.2045" stroke="#DDDDDD" stroke-width="0.191361" stroke-miterlimit="10"/>
<path d="M19.9805 16.0039V19.2045" stroke="#DDDDDD" stroke-width="0.191361" stroke-miterlimit="10"/>
<path d="M21.5781 16.0039V19.2045" stroke="#DDDDDD" stroke-width="0.191361" stroke-miterlimit="10"/>
<path d="M23.1836 16.0039V19.2045" stroke="#DDDDDD" stroke-width="0.191361" stroke-miterlimit="10"/>
<path d="M24.7812 16.0039V19.2045" stroke="#DDDDDD" stroke-width="0.191361" stroke-miterlimit="10"/>
<path d="M26.3828 16.0039V19.2045" stroke="#DDDDDD" stroke-width="0.191361" stroke-miterlimit="10"/>
<path d="M27.9805 16.0039V19.2045" stroke="#DDDDDD" stroke-width="0.191361" stroke-miterlimit="10"/>
<path d="M29.582 16.0039V19.2045" stroke="#DDDDDD" stroke-width="0.191361" stroke-miterlimit="10"/>
<path d="M31.1797 16.0039V19.2045" stroke="#DDDDDD" stroke-width="0.191361" stroke-miterlimit="10"/>
<path d="M32.7852 16.0039V19.2045" stroke="#DDDDDD" stroke-width="0.191361" stroke-miterlimit="10"/>
<path d="M34.3828 16.0039V19.2045" stroke="#DDDDDD" stroke-width="0.191361" stroke-miterlimit="10"/>
<path d="M35.9844 16.0039V19.2045" stroke="#DDDDDD" stroke-width="0.191361" stroke-miterlimit="10"/>
<path d="M37.582 16.0039V19.2045" stroke="#DDDDDD" stroke-width="0.191361" stroke-miterlimit="10"/>
<path d="M39.1836 16.0039V19.2045" stroke="#DDDDDD" stroke-width="0.191361" stroke-miterlimit="10"/>
<path d="M40.7852 16.0039V19.2045" stroke="#DDDDDD" stroke-width="0.191361" stroke-miterlimit="10"/>
<path d="M42.3867 16.0039V19.2045" stroke="#DDDDDD" stroke-width="0.191361" stroke-miterlimit="10"/>
<path d="M43.9844 16.0039V19.2045" stroke="#DDDDDD" stroke-width="0.191361" stroke-miterlimit="10"/>
<path d="M45.5859 16.0039V19.2045" stroke="#DDDDDD" stroke-width="0.191361" stroke-miterlimit="10"/>
<path d="M47.1836 16.0039V19.2045" stroke="#DDDDDD" stroke-width="0.191361" stroke-miterlimit="10"/>
<path d="M48.7852 16.0039V19.2045" stroke="#DDDDDD" stroke-width="0.191361" stroke-miterlimit="10"/>
<path d="M50.3867 16.0039V19.2045" stroke="#DDDDDD" stroke-width="0.191361" stroke-miterlimit="10"/>
<path d="M51.9883 16.0039V19.2045" stroke="#DDDDDD" stroke-width="0.191361" stroke-miterlimit="10"/>
<path d="M53.5859 16.0039V19.2045" stroke="#DDDDDD" stroke-width="0.191361" stroke-miterlimit="10"/>
<path d="M55.1836 16.0039V19.2045" stroke="#DDDDDD" stroke-width="0.191361" stroke-miterlimit="10"/>
<path d="M7.33594 20.8027H54.304" stroke="#DDDDDD" stroke-width="0.191361" stroke-miterlimit="10"/>
<path d="M7.33594 24.0039H54.304" stroke="#DDDDDD" stroke-width="0.191361" stroke-miterlimit="10"/>
<path d="M8.37891 20.8027V24.0033" stroke="#DDDDDD" stroke-width="0.191361" stroke-miterlimit="10"/>
<path d="M9.97656 20.8027V24.0033" stroke="#DDDDDD" stroke-width="0.191361" stroke-miterlimit="10"/>
<path d="M11.5781 20.8027V24.0033" stroke="#DDDDDD" stroke-width="0.191361" stroke-miterlimit="10"/>
<path d="M13.1797 20.8027V24.0033" stroke="#DDDDDD" stroke-width="0.191361" stroke-miterlimit="10"/>
<path d="M14.7812 20.8027V24.0033" stroke="#DDDDDD" stroke-width="0.191361" stroke-miterlimit="10"/>
<path d="M16.3789 20.8027V24.0033" stroke="#DDDDDD" stroke-width="0.191361" stroke-miterlimit="10"/>
<path d="M17.9805 20.8027V24.0033" stroke="#DDDDDD" stroke-width="0.191361" stroke-miterlimit="10"/>
<path d="M19.5781 20.8027V24.0033" stroke="#DDDDDD" stroke-width="0.191361" stroke-miterlimit="10"/>
<path d="M21.1836 20.8027V24.0033" stroke="#DDDDDD" stroke-width="0.191361" stroke-miterlimit="10"/>
<path d="M22.7812 20.8027V24.0033" stroke="#DDDDDD" stroke-width="0.191361" stroke-miterlimit="10"/>
<path d="M24.3828 20.8027V24.0033" stroke="#DDDDDD" stroke-width="0.191361" stroke-miterlimit="10"/>
<path d="M25.9805 20.8027V24.0033" stroke="#DDDDDD" stroke-width="0.191361" stroke-miterlimit="10"/>
<path d="M27.582 20.8027V24.0033" stroke="#DDDDDD" stroke-width="0.191361" stroke-miterlimit="10"/>
<path d="M29.1797 20.8027V24.0033" stroke="#DDDDDD" stroke-width="0.191361" stroke-miterlimit="10"/>
<path d="M30.7812 20.8027V24.0033" stroke="#DDDDDD" stroke-width="0.191361" stroke-miterlimit="10"/>
<path d="M32.3828 20.8027V24.0033" stroke="#DDDDDD" stroke-width="0.191361" stroke-miterlimit="10"/>
<path d="M33.9805 20.8027V24.0033" stroke="#DDDDDD" stroke-width="0.191361" stroke-miterlimit="10"/>
<path d="M35.582 20.8027V24.0033" stroke="#DDDDDD" stroke-width="0.191361" stroke-miterlimit="10"/>
<path d="M37.1836 20.8027V24.0033" stroke="#DDDDDD" stroke-width="0.191361" stroke-miterlimit="10"/>
<path d="M38.7852 20.8027V24.0033" stroke="#DDDDDD" stroke-width="0.191361" stroke-miterlimit="10"/>
<path d="M40.3828 20.8027V24.0033" stroke="#DDDDDD" stroke-width="0.191361" stroke-miterlimit="10"/>
<path d="M41.9844 20.8027V24.0033" stroke="#DDDDDD" stroke-width="0.191361" stroke-miterlimit="10"/>
<path d="M43.582 20.8027V24.0033" stroke="#DDDDDD" stroke-width="0.191361" stroke-miterlimit="10"/>
<path d="M45.1836 20.8027V24.0033" stroke="#DDDDDD" stroke-width="0.191361" stroke-miterlimit="10"/>
<path d="M46.7852 20.8027V24.0033" stroke="#DDDDDD" stroke-width="0.191361" stroke-miterlimit="10"/>
<path d="M48.3867 20.8027V24.0033" stroke="#DDDDDD" stroke-width="0.191361" stroke-miterlimit="10"/>
<path d="M49.9844 20.8027V24.0033" stroke="#DDDDDD" stroke-width="0.191361" stroke-miterlimit="10"/>
<path d="M51.5859 20.8027V24.0033" stroke="#DDDDDD" stroke-width="0.191361" stroke-miterlimit="10"/>
<path d="M53.1836 20.8027V24.0033" stroke="#DDDDDD" stroke-width="0.191361" stroke-miterlimit="10"/>
<path d="M9.33984 25.6035H56.3079" stroke="#DDDDDD" stroke-width="0.191361" stroke-miterlimit="10"/>
<path d="M9.33984 28.8047H56.3079" stroke="#DDDDDD" stroke-width="0.191361" stroke-miterlimit="10"/>
<path d="M10.3789 25.6035V28.8041" stroke="#DDDDDD" stroke-width="0.191361" stroke-miterlimit="10"/>
<path d="M11.9805 25.6035V28.8041" stroke="#DDDDDD" stroke-width="0.191361" stroke-miterlimit="10"/>
<path d="M13.5781 25.6035V28.8041" stroke="#DDDDDD" stroke-width="0.191361" stroke-miterlimit="10"/>
<path d="M15.1797 25.6035V28.8041" stroke="#DDDDDD" stroke-width="0.191361" stroke-miterlimit="10"/>
<path d="M16.7812 25.6035V28.8041" stroke="#DDDDDD" stroke-width="0.191361" stroke-miterlimit="10"/>
<path d="M18.3789 25.6035V28.8041" stroke="#DDDDDD" stroke-width="0.191361" stroke-miterlimit="10"/>
<path d="M19.9805 25.6035V28.8041" stroke="#DDDDDD" stroke-width="0.191361" stroke-miterlimit="10"/>
<path d="M21.5781 25.6035V28.8041" stroke="#DDDDDD" stroke-width="0.191361" stroke-miterlimit="10"/>
<path d="M23.1836 25.6035V28.8041" stroke="#DDDDDD" stroke-width="0.191361" stroke-miterlimit="10"/>
<path d="M24.7812 25.6035V28.8041" stroke="#DDDDDD" stroke-width="0.191361" stroke-miterlimit="10"/>
<path d="M26.3828 25.6035V28.8041" stroke="#DDDDDD" stroke-width="0.191361" stroke-miterlimit="10"/>
<path d="M27.9805 25.6035V28.8041" stroke="#DDDDDD" stroke-width="0.191361" stroke-miterlimit="10"/>
<path d="M29.582 25.6035V28.8041" stroke="#DDDDDD" stroke-width="0.191361" stroke-miterlimit="10"/>
<path d="M31.1797 25.6035V28.8041" stroke="#DDDDDD" stroke-width="0.191361" stroke-miterlimit="10"/>
<path d="M32.7852 25.6035V28.8041" stroke="#DDDDDD" stroke-width="0.191361" stroke-miterlimit="10"/>
<path d="M34.3828 25.6035V28.8041" stroke="#DDDDDD" stroke-width="0.191361" stroke-miterlimit="10"/>
<path d="M35.9844 25.6035V28.8041" stroke="#DDDDDD" stroke-width="0.191361" stroke-miterlimit="10"/>
<path d="M37.582 25.6035V28.8041" stroke="#DDDDDD" stroke-width="0.191361" stroke-miterlimit="10"/>
<path d="M39.1836 25.6035V28.8041" stroke="#DDDDDD" stroke-width="0.191361" stroke-miterlimit="10"/>
<path d="M40.7852 25.6035V28.8041" stroke="#DDDDDD" stroke-width="0.191361" stroke-miterlimit="10"/>
<path d="M42.3867 25.6035V28.8041" stroke="#DDDDDD" stroke-width="0.191361" stroke-miterlimit="10"/>
<path d="M43.9844 25.6035V28.8041" stroke="#DDDDDD" stroke-width="0.191361" stroke-miterlimit="10"/>
<path d="M45.5859 25.6035V28.8041" stroke="#DDDDDD" stroke-width="0.191361" stroke-miterlimit="10"/>
<path d="M47.1836 25.6035V28.8041" stroke="#DDDDDD" stroke-width="0.191361" stroke-miterlimit="10"/>
<path d="M48.7852 25.6035V28.8041" stroke="#DDDDDD" stroke-width="0.191361" stroke-miterlimit="10"/>
<path d="M50.3867 25.6035V28.8041" stroke="#DDDDDD" stroke-width="0.191361" stroke-miterlimit="10"/>
<path d="M51.9883 25.6035V28.8041" stroke="#DDDDDD" stroke-width="0.191361" stroke-miterlimit="10"/>
<path d="M53.5859 25.6035V28.8041" stroke="#DDDDDD" stroke-width="0.191361" stroke-miterlimit="10"/>
<path d="M55.1836 25.6035V28.8041" stroke="#DDDDDD" stroke-width="0.191361" stroke-miterlimit="10"/>
<path d="M7.33594 30.4043H54.304" stroke="#DDDDDD" stroke-width="0.191361" stroke-miterlimit="10"/>
<path d="M7.33594 33.6035H54.304" stroke="#DDDDDD" stroke-width="0.191361" stroke-miterlimit="10"/>
<path d="M8.375 30.4043V33.6048" stroke="#DDDDDD" stroke-width="0.191361" stroke-miterlimit="10"/>
<path d="M9.97266 30.4043V33.6048" stroke="#DDDDDD" stroke-width="0.191361" stroke-miterlimit="10"/>
<path d="M11.5742 30.4043V33.6048" stroke="#DDDDDD" stroke-width="0.191361" stroke-miterlimit="10"/>
<path d="M13.1758 30.4043V33.6048" stroke="#DDDDDD" stroke-width="0.191361" stroke-miterlimit="10"/>
<path d="M14.7773 30.4043V33.6048" stroke="#DDDDDD" stroke-width="0.191361" stroke-miterlimit="10"/>
<path d="M16.375 30.4043V33.6048" stroke="#DDDDDD" stroke-width="0.191361" stroke-miterlimit="10"/>
<path d="M17.9766 30.4043V33.6048" stroke="#DDDDDD" stroke-width="0.191361" stroke-miterlimit="10"/>
<path d="M19.5742 30.4043V33.6048" stroke="#DDDDDD" stroke-width="0.191361" stroke-miterlimit="10"/>
<path d="M21.1797 30.4043V33.6048" stroke="#DDDDDD" stroke-width="0.191361" stroke-miterlimit="10"/>
<path d="M22.7773 30.4043V33.6048" stroke="#DDDDDD" stroke-width="0.191361" stroke-miterlimit="10"/>
<path d="M24.3789 30.4043V33.6048" stroke="#DDDDDD" stroke-width="0.191361" stroke-miterlimit="10"/>
<path d="M25.9766 30.4043V33.6048" stroke="#DDDDDD" stroke-width="0.191361" stroke-miterlimit="10"/>
<path d="M27.5742 30.4043V33.6048" stroke="#DDDDDD" stroke-width="0.191361" stroke-miterlimit="10"/>
<path d="M29.1797 30.4043V33.6048" stroke="#DDDDDD" stroke-width="0.191361" stroke-miterlimit="10"/>
<path d="M30.7773 30.4043V33.6048" stroke="#DDDDDD" stroke-width="0.191361" stroke-miterlimit="10"/>
<path d="M32.3789 30.4043V33.6048" stroke="#DDDDDD" stroke-width="0.191361" stroke-miterlimit="10"/>
<path d="M33.9766 30.4043V33.6048" stroke="#DDDDDD" stroke-width="0.191361" stroke-miterlimit="10"/>
<path d="M35.5781 30.4043V33.6048" stroke="#DDDDDD" stroke-width="0.191361" stroke-miterlimit="10"/>
<path d="M37.1758 30.4043V33.6048" stroke="#DDDDDD" stroke-width="0.191361" stroke-miterlimit="10"/>
<path d="M38.7812 30.4043V33.6048" stroke="#DDDDDD" stroke-width="0.191361" stroke-miterlimit="10"/>
<path d="M40.3789 30.4043V33.6048" stroke="#DDDDDD" stroke-width="0.191361" stroke-miterlimit="10"/>
<path d="M41.9805 30.4043V33.6048" stroke="#DDDDDD" stroke-width="0.191361" stroke-miterlimit="10"/>
<path d="M43.5781 30.4043V33.6048" stroke="#DDDDDD" stroke-width="0.191361" stroke-miterlimit="10"/>
<path d="M45.1797 30.4043V33.6048" stroke="#DDDDDD" stroke-width="0.191361" stroke-miterlimit="10"/>
<path d="M46.7812 30.4043V33.6048" stroke="#DDDDDD" stroke-width="0.191361" stroke-miterlimit="10"/>
<path d="M48.3828 30.4043V33.6048" stroke="#DDDDDD" stroke-width="0.191361" stroke-miterlimit="10"/>
<path d="M49.9805 30.4043V33.6048" stroke="#DDDDDD" stroke-width="0.191361" stroke-miterlimit="10"/>
<path d="M51.582 30.4043V33.6048" stroke="#DDDDDD" stroke-width="0.191361" stroke-miterlimit="10"/>
<path d="M53.1797 30.4043V33.6048" stroke="#DDDDDD" stroke-width="0.191361" stroke-miterlimit="10"/>
<path d="M9.33594 35.207H56.304" stroke="#DDDDDD" stroke-width="0.191361" stroke-miterlimit="10"/>
<path d="M9.33594 38.4082H56.304" stroke="#DDDDDD" stroke-width="0.191361" stroke-miterlimit="10"/>
<path d="M10.375 35.207V38.4076" stroke="#DDDDDD" stroke-width="0.191361" stroke-miterlimit="10"/>
<path d="M11.9766 35.207V38.4076" stroke="#DDDDDD" stroke-width="0.191361" stroke-miterlimit="10"/>
<path d="M13.5742 35.207V38.4076" stroke="#DDDDDD" stroke-width="0.191361" stroke-miterlimit="10"/>
<path d="M15.1758 35.207V38.4076" stroke="#DDDDDD" stroke-width="0.191361" stroke-miterlimit="10"/>
<path d="M16.7773 35.207V38.4076" stroke="#DDDDDD" stroke-width="0.191361" stroke-miterlimit="10"/>
<path d="M18.375 35.207V38.4076" stroke="#DDDDDD" stroke-width="0.191361" stroke-miterlimit="10"/>
<path d="M19.9766 35.207V38.4076" stroke="#DDDDDD" stroke-width="0.191361" stroke-miterlimit="10"/>
<path d="M21.5742 35.207V38.4076" stroke="#DDDDDD" stroke-width="0.191361" stroke-miterlimit="10"/>
<path d="M23.1797 35.207V38.4076" stroke="#DDDDDD" stroke-width="0.191361" stroke-miterlimit="10"/>
<path d="M24.7773 35.207V38.4076" stroke="#DDDDDD" stroke-width="0.191361" stroke-miterlimit="10"/>
<path d="M26.3789 35.207V38.4076" stroke="#DDDDDD" stroke-width="0.191361" stroke-miterlimit="10"/>
<path d="M27.9766 35.207V38.4076" stroke="#DDDDDD" stroke-width="0.191361" stroke-miterlimit="10"/>
<path d="M29.5781 35.207V38.4076" stroke="#DDDDDD" stroke-width="0.191361" stroke-miterlimit="10"/>
<path d="M31.1758 35.207V38.4076" stroke="#DDDDDD" stroke-width="0.191361" stroke-miterlimit="10"/>
<path d="M32.7812 35.207V38.4076" stroke="#DDDDDD" stroke-width="0.191361" stroke-miterlimit="10"/>
<path d="M34.3789 35.207V38.4076" stroke="#DDDDDD" stroke-width="0.191361" stroke-miterlimit="10"/>
<path d="M35.9805 35.207V38.4076" stroke="#DDDDDD" stroke-width="0.191361" stroke-miterlimit="10"/>
<path d="M37.5781 35.207V38.4076" stroke="#DDDDDD" stroke-width="0.191361" stroke-miterlimit="10"/>
<path d="M39.1797 35.207V38.4076" stroke="#DDDDDD" stroke-width="0.191361" stroke-miterlimit="10"/>
<path d="M40.7812 35.207V38.4076" stroke="#DDDDDD" stroke-width="0.191361" stroke-miterlimit="10"/>
<path d="M42.3828 35.207V38.4076" stroke="#DDDDDD" stroke-width="0.191361" stroke-miterlimit="10"/>
<path d="M43.9805 35.207V38.4076" stroke="#DDDDDD" stroke-width="0.191361" stroke-miterlimit="10"/>
<path d="M45.582 35.207V38.4076" stroke="#DDDDDD" stroke-width="0.191361" stroke-miterlimit="10"/>
<path d="M47.1797 35.207V38.4076" stroke="#DDDDDD" stroke-width="0.191361" stroke-miterlimit="10"/>
<path d="M48.7812 35.207V38.4076" stroke="#DDDDDD" stroke-width="0.191361" stroke-miterlimit="10"/>
<path d="M50.3828 35.207V38.4076" stroke="#DDDDDD" stroke-width="0.191361" stroke-miterlimit="10"/>
<path d="M51.9844 35.207V38.4076" stroke="#DDDDDD" stroke-width="0.191361" stroke-miterlimit="10"/>
<path d="M53.582 35.207V38.4076" stroke="#DDDDDD" stroke-width="0.191361" stroke-miterlimit="10"/>
<path d="M55.1797 35.207V38.4076" stroke="#DDDDDD" stroke-width="0.191361" stroke-miterlimit="10"/>
<path d="M7.33594 40.0078H54.304" stroke="#DDDDDD" stroke-width="0.191361" stroke-miterlimit="10"/>
<path d="M7.33594 43.209H54.304" stroke="#DDDDDD" stroke-width="0.191361" stroke-miterlimit="10"/>
<path d="M8.37891 40.0078V43.2084" stroke="#DDDDDD" stroke-width="0.191361" stroke-miterlimit="10"/>
<path d="M9.97656 40.0078V43.2084" stroke="#DDDDDD" stroke-width="0.191361" stroke-miterlimit="10"/>
<path d="M11.5781 40.0078V43.2084" stroke="#DDDDDD" stroke-width="0.191361" stroke-miterlimit="10"/>
<path d="M13.1797 40.0078V43.2084" stroke="#DDDDDD" stroke-width="0.191361" stroke-miterlimit="10"/>
<path d="M14.7812 40.0078V43.2084" stroke="#DDDDDD" stroke-width="0.191361" stroke-miterlimit="10"/>
<path d="M16.3789 40.0078V43.2084" stroke="#DDDDDD" stroke-width="0.191361" stroke-miterlimit="10"/>
<path d="M17.9805 40.0078V43.2084" stroke="#DDDDDD" stroke-width="0.191361" stroke-miterlimit="10"/>
<path d="M19.5781 40.0078V43.2084" stroke="#DDDDDD" stroke-width="0.191361" stroke-miterlimit="10"/>
<path d="M21.1836 40.0078V43.2084" stroke="#DDDDDD" stroke-width="0.191361" stroke-miterlimit="10"/>
<path d="M22.7812 40.0078V43.2084" stroke="#DDDDDD" stroke-width="0.191361" stroke-miterlimit="10"/>
<path d="M24.3828 40.0078V43.2084" stroke="#DDDDDD" stroke-width="0.191361" stroke-miterlimit="10"/>
<path d="M25.9805 40.0078V43.2084" stroke="#DDDDDD" stroke-width="0.191361" stroke-miterlimit="10"/>
<path d="M27.582 40.0078V43.2084" stroke="#DDDDDD" stroke-width="0.191361" stroke-miterlimit="10"/>
<path d="M29.1797 40.0078V43.2084" stroke="#DDDDDD" stroke-width="0.191361" stroke-miterlimit="10"/>
<path d="M30.7812 40.0078V43.2084" stroke="#DDDDDD" stroke-width="0.191361" stroke-miterlimit="10"/>
<path d="M32.3828 40.0078V43.2084" stroke="#DDDDDD" stroke-width="0.191361" stroke-miterlimit="10"/>
<path d="M33.9805 40.0078V43.2084" stroke="#DDDDDD" stroke-width="0.191361" stroke-miterlimit="10"/>
<path d="M35.582 40.0078V43.2084" stroke="#DDDDDD" stroke-width="0.191361" stroke-miterlimit="10"/>
<path d="M37.1836 40.0078V43.2084" stroke="#DDDDDD" stroke-width="0.191361" stroke-miterlimit="10"/>
<path d="M38.7852 40.0078V43.2084" stroke="#DDDDDD" stroke-width="0.191361" stroke-miterlimit="10"/>
<path d="M40.3828 40.0078V43.2084" stroke="#DDDDDD" stroke-width="0.191361" stroke-miterlimit="10"/>
<path d="M41.9844 40.0078V43.2084" stroke="#DDDDDD" stroke-width="0.191361" stroke-miterlimit="10"/>
<path d="M43.582 40.0078V43.2084" stroke="#DDDDDD" stroke-width="0.191361" stroke-miterlimit="10"/>
<path d="M45.1836 40.0078V43.2084" stroke="#DDDDDD" stroke-width="0.191361" stroke-miterlimit="10"/>
<path d="M46.7852 40.0078V43.2084" stroke="#DDDDDD" stroke-width="0.191361" stroke-miterlimit="10"/>
<path d="M48.3867 40.0078V43.2084" stroke="#DDDDDD" stroke-width="0.191361" stroke-miterlimit="10"/>
<path d="M49.9844 40.0078V43.2084" stroke="#DDDDDD" stroke-width="0.191361" stroke-miterlimit="10"/>
<path d="M51.5859 40.0078V43.2084" stroke="#DDDDDD" stroke-width="0.191361" stroke-miterlimit="10"/>
<path d="M53.1836 40.0078V43.2084" stroke="#DDDDDD" stroke-width="0.191361" stroke-miterlimit="10"/>
<path d="M9.33984 44.8047H56.3079" stroke="#DDDDDD" stroke-width="0.191361" stroke-miterlimit="10"/>
<path d="M9.33984 48.0059H56.3079" stroke="#DDDDDD" stroke-width="0.191361" stroke-miterlimit="10"/>
<path d="M10.3789 44.8047V48.0052" stroke="#DDDDDD" stroke-width="0.191361" stroke-miterlimit="10"/>
<path d="M11.9766 44.8047V48.0052" stroke="#DDDDDD" stroke-width="0.191361" stroke-miterlimit="10"/>
<path d="M13.5781 44.8047V48.0052" stroke="#DDDDDD" stroke-width="0.191361" stroke-miterlimit="10"/>
<path d="M15.1797 44.8047V48.0052" stroke="#DDDDDD" stroke-width="0.191361" stroke-miterlimit="10"/>
<path d="M16.7812 44.8047V48.0052" stroke="#DDDDDD" stroke-width="0.191361" stroke-miterlimit="10"/>
<path d="M18.3789 44.8047V48.0052" stroke="#DDDDDD" stroke-width="0.191361" stroke-miterlimit="10"/>
<path d="M19.9805 44.8047V48.0052" stroke="#DDDDDD" stroke-width="0.191361" stroke-miterlimit="10"/>
<path d="M21.5781 44.8047V48.0052" stroke="#DDDDDD" stroke-width="0.191361" stroke-miterlimit="10"/>
<path d="M23.1836 44.8047V48.0052" stroke="#DDDDDD" stroke-width="0.191361" stroke-miterlimit="10"/>
<path d="M24.7812 44.8047V48.0052" stroke="#DDDDDD" stroke-width="0.191361" stroke-miterlimit="10"/>
<path d="M26.3828 44.8047V48.0052" stroke="#DDDDDD" stroke-width="0.191361" stroke-miterlimit="10"/>
<path d="M27.9805 44.8047V48.0052" stroke="#DDDDDD" stroke-width="0.191361" stroke-miterlimit="10"/>
<path d="M29.582 44.8047V48.0052" stroke="#DDDDDD" stroke-width="0.191361" stroke-miterlimit="10"/>
<path d="M31.1797 44.8047V48.0052" stroke="#DDDDDD" stroke-width="0.191361" stroke-miterlimit="10"/>
<path d="M32.7852 44.8047V48.0052" stroke="#DDDDDD" stroke-width="0.191361" stroke-miterlimit="10"/>
<path d="M34.3828 44.8047V48.0052" stroke="#DDDDDD" stroke-width="0.191361" stroke-miterlimit="10"/>
<path d="M35.9844 44.8047V48.0052" stroke="#DDDDDD" stroke-width="0.191361" stroke-miterlimit="10"/>
<path d="M37.582 44.8047V48.0052" stroke="#DDDDDD" stroke-width="0.191361" stroke-miterlimit="10"/>
<path d="M39.1836 44.8047V48.0052" stroke="#DDDDDD" stroke-width="0.191361" stroke-miterlimit="10"/>
<path d="M40.7852 44.8047V48.0052" stroke="#DDDDDD" stroke-width="0.191361" stroke-miterlimit="10"/>
<path d="M42.3867 44.8047V48.0052" stroke="#DDDDDD" stroke-width="0.191361" stroke-miterlimit="10"/>
<path d="M43.9844 44.8047V48.0052" stroke="#DDDDDD" stroke-width="0.191361" stroke-miterlimit="10"/>
<path d="M45.5859 44.8047V48.0052" stroke="#DDDDDD" stroke-width="0.191361" stroke-miterlimit="10"/>
<path d="M47.1836 44.8047V48.0052" stroke="#DDDDDD" stroke-width="0.191361" stroke-miterlimit="10"/>
<path d="M48.7852 44.8047V48.0052" stroke="#DDDDDD" stroke-width="0.191361" stroke-miterlimit="10"/>
<path d="M50.3867 44.8047V48.0052" stroke="#DDDDDD" stroke-width="0.191361" stroke-miterlimit="10"/>
<path d="M51.9844 44.8047V48.0052" stroke="#DDDDDD" stroke-width="0.191361" stroke-miterlimit="10"/>
<path d="M53.5859 44.8047V48.0052" stroke="#DDDDDD" stroke-width="0.191361" stroke-miterlimit="10"/>
<path d="M55.1836 44.8047V48.0052" stroke="#DDDDDD" stroke-width="0.191361" stroke-miterlimit="10"/>
<path d="M7.33594 49.6113H54.304" stroke="#DDDDDD" stroke-width="0.191361" stroke-miterlimit="10"/>
<path d="M7.33594 52.8125H54.304" stroke="#DDDDDD" stroke-width="0.191361" stroke-miterlimit="10"/>
<path d="M8.375 49.6113V52.8119" stroke="#DDDDDD" stroke-width="0.191361" stroke-miterlimit="10"/>
<path d="M9.97266 49.6113V52.8119" stroke="#DDDDDD" stroke-width="0.191361" stroke-miterlimit="10"/>
<path d="M11.5742 49.6113V52.8119" stroke="#DDDDDD" stroke-width="0.191361" stroke-miterlimit="10"/>
<path d="M13.1758 49.6113V52.8119" stroke="#DDDDDD" stroke-width="0.191361" stroke-miterlimit="10"/>
<path d="M14.7773 49.6113V52.8119" stroke="#DDDDDD" stroke-width="0.191361" stroke-miterlimit="10"/>
<path d="M16.375 49.6113V52.8119" stroke="#DDDDDD" stroke-width="0.191361" stroke-miterlimit="10"/>
<path d="M17.9766 49.6113V52.8119" stroke="#DDDDDD" stroke-width="0.191361" stroke-miterlimit="10"/>
<path d="M19.5742 49.6113V52.8119" stroke="#DDDDDD" stroke-width="0.191361" stroke-miterlimit="10"/>
<path d="M21.1797 49.6113V52.8119" stroke="#DDDDDD" stroke-width="0.191361" stroke-miterlimit="10"/>
<path d="M22.7773 49.6113V52.8119" stroke="#DDDDDD" stroke-width="0.191361" stroke-miterlimit="10"/>
<path d="M24.3789 49.6113V52.8119" stroke="#DDDDDD" stroke-width="0.191361" stroke-miterlimit="10"/>
<path d="M25.9766 49.6113V52.8119" stroke="#DDDDDD" stroke-width="0.191361" stroke-miterlimit="10"/>
<path d="M27.5742 49.6113V52.8119" stroke="#DDDDDD" stroke-width="0.191361" stroke-miterlimit="10"/>
<path d="M29.1797 49.6113V52.8119" stroke="#DDDDDD" stroke-width="0.191361" stroke-miterlimit="10"/>
<path d="M30.7773 49.6113V52.8119" stroke="#DDDDDD" stroke-width="0.191361" stroke-miterlimit="10"/>
<path d="M32.3789 49.6113V52.8119" stroke="#DDDDDD" stroke-width="0.191361" stroke-miterlimit="10"/>
<path d="M33.9766 49.6113V52.8119" stroke="#DDDDDD" stroke-width="0.191361" stroke-miterlimit="10"/>
<path d="M35.5781 49.6113V52.8119" stroke="#DDDDDD" stroke-width="0.191361" stroke-miterlimit="10"/>
<path d="M37.1758 49.6113V52.8119" stroke="#DDDDDD" stroke-width="0.191361" stroke-miterlimit="10"/>
<path d="M38.7812 49.6113V52.8119" stroke="#DDDDDD" stroke-width="0.191361" stroke-miterlimit="10"/>
<path d="M40.3789 49.6113V52.8119" stroke="#DDDDDD" stroke-width="0.191361" stroke-miterlimit="10"/>
<path d="M41.9805 49.6113V52.8119" stroke="#DDDDDD" stroke-width="0.191361" stroke-miterlimit="10"/>
<path d="M43.5781 49.6113V52.8119" stroke="#DDDDDD" stroke-width="0.191361" stroke-miterlimit="10"/>
<path d="M45.1797 49.6113V52.8119" stroke="#DDDDDD" stroke-width="0.191361" stroke-miterlimit="10"/>
<path d="M46.7812 49.6113V52.8119" stroke="#DDDDDD" stroke-width="0.191361" stroke-miterlimit="10"/>
<path d="M48.3828 49.6113V52.8119" stroke="#DDDDDD" stroke-width="0.191361" stroke-miterlimit="10"/>
<path d="M49.9805 49.6113V52.8119" stroke="#DDDDDD" stroke-width="0.191361" stroke-miterlimit="10"/>
<path d="M51.582 49.6113V52.8119" stroke="#DDDDDD" stroke-width="0.191361" stroke-miterlimit="10"/>
<path d="M53.1797 49.6113V52.8119" stroke="#DDDDDD" stroke-width="0.191361" stroke-miterlimit="10"/>
<path d="M9.33594 54.4102H56.304" stroke="#DDDDDD" stroke-width="0.191361" stroke-miterlimit="10"/>
<path d="M9.33594 57.6113H56.304" stroke="#DDDDDD" stroke-width="0.191361" stroke-miterlimit="10"/>
<path d="M10.375 54.4102V57.6107" stroke="#DDDDDD" stroke-width="0.191361" stroke-miterlimit="10"/>
<path d="M11.9766 54.4102V57.6107" stroke="#DDDDDD" stroke-width="0.191361" stroke-miterlimit="10"/>
<path d="M13.5742 54.4102V57.6107" stroke="#DDDDDD" stroke-width="0.191361" stroke-miterlimit="10"/>
<path d="M15.1758 54.4102V57.6107" stroke="#DDDDDD" stroke-width="0.191361" stroke-miterlimit="10"/>
<path d="M16.7773 54.4102V57.6107" stroke="#DDDDDD" stroke-width="0.191361" stroke-miterlimit="10"/>
<path d="M18.375 54.4102V57.6107" stroke="#DDDDDD" stroke-width="0.191361" stroke-miterlimit="10"/>
<path d="M19.9766 54.4102V57.6107" stroke="#DDDDDD" stroke-width="0.191361" stroke-miterlimit="10"/>
<path d="M21.5742 54.4102V57.6107" stroke="#DDDDDD" stroke-width="0.191361" stroke-miterlimit="10"/>
<path d="M23.1797 54.4102V57.6107" stroke="#DDDDDD" stroke-width="0.191361" stroke-miterlimit="10"/>
<path d="M24.7773 54.4102V57.6107" stroke="#DDDDDD" stroke-width="0.191361" stroke-miterlimit="10"/>
<path d="M26.3789 54.4102V57.6107" stroke="#DDDDDD" stroke-width="0.191361" stroke-miterlimit="10"/>
<path d="M27.9766 54.4102V57.6107" stroke="#DDDDDD" stroke-width="0.191361" stroke-miterlimit="10"/>
<path d="M29.5781 54.4102V57.6107" stroke="#DDDDDD" stroke-width="0.191361" stroke-miterlimit="10"/>
<path d="M31.1758 54.4102V57.6107" stroke="#DDDDDD" stroke-width="0.191361" stroke-miterlimit="10"/>
<path d="M32.7812 54.4102V57.6107" stroke="#DDDDDD" stroke-width="0.191361" stroke-miterlimit="10"/>
<path d="M34.3789 54.4102V57.6107" stroke="#DDDDDD" stroke-width="0.191361" stroke-miterlimit="10"/>
<path d="M35.9805 54.4102V57.6107" stroke="#DDDDDD" stroke-width="0.191361" stroke-miterlimit="10"/>
<path d="M37.5781 54.4102V57.6107" stroke="#DDDDDD" stroke-width="0.191361" stroke-miterlimit="10"/>
<path d="M39.1797 54.4102V57.6107" stroke="#DDDDDD" stroke-width="0.191361" stroke-miterlimit="10"/>
<path d="M40.7812 54.4102V57.6107" stroke="#DDDDDD" stroke-width="0.191361" stroke-miterlimit="10"/>
<path d="M42.3828 54.4102V57.6107" stroke="#DDDDDD" stroke-width="0.191361" stroke-miterlimit="10"/>
<path d="M43.9805 54.4102V57.6107" stroke="#DDDDDD" stroke-width="0.191361" stroke-miterlimit="10"/>
<path d="M45.582 54.4102V57.6107" stroke="#DDDDDD" stroke-width="0.191361" stroke-miterlimit="10"/>
<path d="M47.1797 54.4102V57.6107" stroke="#DDDDDD" stroke-width="0.191361" stroke-miterlimit="10"/>
<path d="M48.7812 54.4102V57.6107" stroke="#DDDDDD" stroke-width="0.191361" stroke-miterlimit="10"/>
<path d="M50.3828 54.4102V57.6107" stroke="#DDDDDD" stroke-width="0.191361" stroke-miterlimit="10"/>
<path d="M51.9844 54.4102V57.6107" stroke="#DDDDDD" stroke-width="0.191361" stroke-miterlimit="10"/>
<path d="M53.582 54.4102V57.6107" stroke="#DDDDDD" stroke-width="0.191361" stroke-miterlimit="10"/>
<path d="M55.1797 54.4102V57.6107" stroke="#DDDDDD" stroke-width="0.191361" stroke-miterlimit="10"/>
<path d="M7.33594 59.2109H54.304" stroke="#DDDDDD" stroke-width="0.191361" stroke-miterlimit="10"/>
<path d="M7.33594 62.4121H54.304" stroke="#DDDDDD" stroke-width="0.191361" stroke-miterlimit="10"/>
<path d="M8.375 59.2109V62.4115" stroke="#DDDDDD" stroke-width="0.191361" stroke-miterlimit="10"/>
<path d="M9.97266 59.2109V62.4115" stroke="#DDDDDD" stroke-width="0.191361" stroke-miterlimit="10"/>
<path d="M11.5742 59.2109V62.4115" stroke="#DDDDDD" stroke-width="0.191361" stroke-miterlimit="10"/>
<path d="M13.1758 59.2109V62.4115" stroke="#DDDDDD" stroke-width="0.191361" stroke-miterlimit="10"/>
<path d="M14.7773 59.2109V62.4115" stroke="#DDDDDD" stroke-width="0.191361" stroke-miterlimit="10"/>
<path d="M16.375 59.2109V62.4115" stroke="#DDDDDD" stroke-width="0.191361" stroke-miterlimit="10"/>
<path d="M17.9766 59.2109V62.4115" stroke="#DDDDDD" stroke-width="0.191361" stroke-miterlimit="10"/>
<path d="M19.5742 59.2109V62.4115" stroke="#DDDDDD" stroke-width="0.191361" stroke-miterlimit="10"/>
<path d="M21.1797 59.2109V62.4115" stroke="#DDDDDD" stroke-width="0.191361" stroke-miterlimit="10"/>
<path d="M22.7773 59.2109V62.4115" stroke="#DDDDDD" stroke-width="0.191361" stroke-miterlimit="10"/>
<path d="M24.3789 59.2109V62.4115" stroke="#DDDDDD" stroke-width="0.191361" stroke-miterlimit="10"/>
<path d="M25.9766 59.2109V62.4115" stroke="#DDDDDD" stroke-width="0.191361" stroke-miterlimit="10"/>
<path d="M27.5742 59.2109V62.4115" stroke="#DDDDDD" stroke-width="0.191361" stroke-miterlimit="10"/>
<path d="M29.1797 59.2109V62.4115" stroke="#DDDDDD" stroke-width="0.191361" stroke-miterlimit="10"/>
<path d="M30.7773 59.2109V62.4115" stroke="#DDDDDD" stroke-width="0.191361" stroke-miterlimit="10"/>
<path d="M32.3789 59.2109V62.4115" stroke="#DDDDDD" stroke-width="0.191361" stroke-miterlimit="10"/>
<path d="M33.9766 59.2109V62.4115" stroke="#DDDDDD" stroke-width="0.191361" stroke-miterlimit="10"/>
<path d="M35.5781 59.2109V62.4115" stroke="#DDDDDD" stroke-width="0.191361" stroke-miterlimit="10"/>
<path d="M37.1758 59.2109V62.4115" stroke="#DDDDDD" stroke-width="0.191361" stroke-miterlimit="10"/>
<path d="M38.7812 59.2109V62.4115" stroke="#DDDDDD" stroke-width="0.191361" stroke-miterlimit="10"/>
<path d="M40.3789 59.2109V62.4115" stroke="#DDDDDD" stroke-width="0.191361" stroke-miterlimit="10"/>
<path d="M41.9805 59.2109V62.4115" stroke="#DDDDDD" stroke-width="0.191361" stroke-miterlimit="10"/>
<path d="M43.5781 59.2109V62.4115" stroke="#DDDDDD" stroke-width="0.191361" stroke-miterlimit="10"/>
<path d="M45.1797 59.2109V62.4115" stroke="#DDDDDD" stroke-width="0.191361" stroke-miterlimit="10"/>
<path d="M46.7812 59.2109V62.4115" stroke="#DDDDDD" stroke-width="0.191361" stroke-miterlimit="10"/>
<path d="M48.3828 59.2109V62.4115" stroke="#DDDDDD" stroke-width="0.191361" stroke-miterlimit="10"/>
<path d="M49.9805 59.2109V62.4115" stroke="#DDDDDD" stroke-width="0.191361" stroke-miterlimit="10"/>
<path d="M51.582 59.2109V62.4115" stroke="#DDDDDD" stroke-width="0.191361" stroke-miterlimit="10"/>
<path d="M53.1797 59.2109V62.4115" stroke="#DDDDDD" stroke-width="0.191361" stroke-miterlimit="10"/>
<path d="M9.33594 64.0117H56.304" stroke="#DDDDDD" stroke-width="0.191361" stroke-miterlimit="10"/>
<path d="M9.33594 67.2129H56.304" stroke="#DDDDDD" stroke-width="0.191361" stroke-miterlimit="10"/>
<path d="M10.375 64.0117V67.2123" stroke="#DDDDDD" stroke-width="0.191361" stroke-miterlimit="10"/>
<path d="M11.9766 64.0117V67.2123" stroke="#DDDDDD" stroke-width="0.191361" stroke-miterlimit="10"/>
<path d="M13.5742 64.0117V67.2123" stroke="#DDDDDD" stroke-width="0.191361" stroke-miterlimit="10"/>
<path d="M15.1758 64.0117V67.2123" stroke="#DDDDDD" stroke-width="0.191361" stroke-miterlimit="10"/>
<path d="M16.7773 64.0117V67.2123" stroke="#DDDDDD" stroke-width="0.191361" stroke-miterlimit="10"/>
<path d="M18.375 64.0117V67.2123" stroke="#DDDDDD" stroke-width="0.191361" stroke-miterlimit="10"/>
<path d="M19.9766 64.0117V67.2123" stroke="#DDDDDD" stroke-width="0.191361" stroke-miterlimit="10"/>
<path d="M21.5742 64.0117V67.2123" stroke="#DDDDDD" stroke-width="0.191361" stroke-miterlimit="10"/>
<path d="M23.1797 64.0117V67.2123" stroke="#DDDDDD" stroke-width="0.191361" stroke-miterlimit="10"/>
<path d="M24.7773 64.0117V67.2123" stroke="#DDDDDD" stroke-width="0.191361" stroke-miterlimit="10"/>
<path d="M26.3789 64.0117V67.2123" stroke="#DDDDDD" stroke-width="0.191361" stroke-miterlimit="10"/>
<path d="M27.9766 64.0117V67.2123" stroke="#DDDDDD" stroke-width="0.191361" stroke-miterlimit="10"/>
<path d="M29.5781 64.0117V67.2123" stroke="#DDDDDD" stroke-width="0.191361" stroke-miterlimit="10"/>
<path d="M31.1758 64.0117V67.2123" stroke="#DDDDDD" stroke-width="0.191361" stroke-miterlimit="10"/>
<path d="M32.7812 64.0117V67.2123" stroke="#DDDDDD" stroke-width="0.191361" stroke-miterlimit="10"/>
<path d="M34.3789 64.0117V67.2123" stroke="#DDDDDD" stroke-width="0.191361" stroke-miterlimit="10"/>
<path d="M35.9805 64.0117V67.2123" stroke="#DDDDDD" stroke-width="0.191361" stroke-miterlimit="10"/>
<path d="M37.5781 64.0117V67.2123" stroke="#DDDDDD" stroke-width="0.191361" stroke-miterlimit="10"/>
<path d="M39.1797 64.0117V67.2123" stroke="#DDDDDD" stroke-width="0.191361" stroke-miterlimit="10"/>
<path d="M40.7812 64.0117V67.2123" stroke="#DDDDDD" stroke-width="0.191361" stroke-miterlimit="10"/>
<path d="M42.3828 64.0117V67.2123" stroke="#DDDDDD" stroke-width="0.191361" stroke-miterlimit="10"/>
<path d="M43.9805 64.0117V67.2123" stroke="#DDDDDD" stroke-width="0.191361" stroke-miterlimit="10"/>
<path d="M45.582 64.0117V67.2123" stroke="#DDDDDD" stroke-width="0.191361" stroke-miterlimit="10"/>
<path d="M47.1797 64.0117V67.2123" stroke="#DDDDDD" stroke-width="0.191361" stroke-miterlimit="10"/>
<path d="M48.7812 64.0117V67.2123" stroke="#DDDDDD" stroke-width="0.191361" stroke-miterlimit="10"/>
<path d="M50.3828 64.0117V67.2123" stroke="#DDDDDD" stroke-width="0.191361" stroke-miterlimit="10"/>
<path d="M51.9844 64.0117V67.2123" stroke="#DDDDDD" stroke-width="0.191361" stroke-miterlimit="10"/>
<path d="M53.582 64.0117V67.2123" stroke="#DDDDDD" stroke-width="0.191361" stroke-miterlimit="10"/>
<path d="M55.1797 64.0117V67.2123" stroke="#DDDDDD" stroke-width="0.191361" stroke-miterlimit="10"/>
<path d="M9.33594 73.6133H56.304" stroke="#DDDDDD" stroke-width="0.191361" stroke-miterlimit="10"/>
<path d="M9.33594 76.8125H56.304" stroke="#DDDDDD" stroke-width="0.191361" stroke-miterlimit="10"/>
<path d="M10.375 73.6113V76.8119" stroke="#DDDDDD" stroke-width="0.191361" stroke-miterlimit="10"/>
<path d="M11.9766 73.6113V76.8119" stroke="#DDDDDD" stroke-width="0.191361" stroke-miterlimit="10"/>
<path d="M13.5742 73.6113V76.8119" stroke="#DDDDDD" stroke-width="0.191361" stroke-miterlimit="10"/>
<path d="M15.1758 73.6113V76.8119" stroke="#DDDDDD" stroke-width="0.191361" stroke-miterlimit="10"/>
<path d="M16.7773 73.6113V76.8119" stroke="#DDDDDD" stroke-width="0.191361" stroke-miterlimit="10"/>
<path d="M18.375 73.6113V76.8119" stroke="#DDDDDD" stroke-width="0.191361" stroke-miterlimit="10"/>
<path d="M19.9766 73.6113V76.8119" stroke="#DDDDDD" stroke-width="0.191361" stroke-miterlimit="10"/>
<path d="M21.5742 73.6113V76.8119" stroke="#DDDDDD" stroke-width="0.191361" stroke-miterlimit="10"/>
<path d="M23.1797 73.6113V76.8119" stroke="#DDDDDD" stroke-width="0.191361" stroke-miterlimit="10"/>
<path d="M24.7773 73.6113V76.8119" stroke="#DDDDDD" stroke-width="0.191361" stroke-miterlimit="10"/>
<path d="M26.3789 73.6113V76.8119" stroke="#DDDDDD" stroke-width="0.191361" stroke-miterlimit="10"/>
<path d="M27.9766 73.6113V76.8119" stroke="#DDDDDD" stroke-width="0.191361" stroke-miterlimit="10"/>
<path d="M29.5781 73.6113V76.8119" stroke="#DDDDDD" stroke-width="0.191361" stroke-miterlimit="10"/>
<path d="M31.1758 73.6113V76.8119" stroke="#DDDDDD" stroke-width="0.191361" stroke-miterlimit="10"/>
<path d="M32.7812 73.6113V76.8119" stroke="#DDDDDD" stroke-width="0.191361" stroke-miterlimit="10"/>
<path d="M34.3789 73.6113V76.8119" stroke="#DDDDDD" stroke-width="0.191361" stroke-miterlimit="10"/>
<path d="M35.9805 73.6113V76.8119" stroke="#DDDDDD" stroke-width="0.191361" stroke-miterlimit="10"/>
<path d="M37.5781 73.6113V76.8119" stroke="#DDDDDD" stroke-width="0.191361" stroke-miterlimit="10"/>
<path d="M39.1797 73.6113V76.8119" stroke="#DDDDDD" stroke-width="0.191361" stroke-miterlimit="10"/>
<path d="M40.7812 73.6113V76.8119" stroke="#DDDDDD" stroke-width="0.191361" stroke-miterlimit="10"/>
<path d="M42.3828 73.6113V76.8119" stroke="#DDDDDD" stroke-width="0.191361" stroke-miterlimit="10"/>
<path d="M43.9805 73.6113V76.8119" stroke="#DDDDDD" stroke-width="0.191361" stroke-miterlimit="10"/>
<path d="M45.582 73.6113V76.8119" stroke="#DDDDDD" stroke-width="0.191361" stroke-miterlimit="10"/>
<path d="M47.1797 73.6113V76.8119" stroke="#DDDDDD" stroke-width="0.191361" stroke-miterlimit="10"/>
<path d="M48.7812 73.6113V76.8119" stroke="#DDDDDD" stroke-width="0.191361" stroke-miterlimit="10"/>
<path d="M50.3828 73.6113V76.8119" stroke="#DDDDDD" stroke-width="0.191361" stroke-miterlimit="10"/>
<path d="M51.9844 73.6113V76.8119" stroke="#DDDDDD" stroke-width="0.191361" stroke-miterlimit="10"/>
<path d="M53.582 73.6113V76.8119" stroke="#DDDDDD" stroke-width="0.191361" stroke-miterlimit="10"/>
<path d="M55.1797 73.6113V76.8119" stroke="#DDDDDD" stroke-width="0.191361" stroke-miterlimit="10"/>
<path d="M7.33594 78.4141H54.304" stroke="#DDDDDD" stroke-width="0.191361" stroke-miterlimit="10"/>
<path d="M7.33594 81.6152H54.304" stroke="#DDDDDD" stroke-width="0.191361" stroke-miterlimit="10"/>
<path d="M8.375 78.416V81.6166" stroke="#DDDDDD" stroke-width="0.191361" stroke-miterlimit="10"/>
<path d="M9.97266 78.416V81.6166" stroke="#DDDDDD" stroke-width="0.191361" stroke-miterlimit="10"/>
<path d="M11.5742 78.416V81.6166" stroke="#DDDDDD" stroke-width="0.191361" stroke-miterlimit="10"/>
<path d="M13.1758 78.416V81.6166" stroke="#DDDDDD" stroke-width="0.191361" stroke-miterlimit="10"/>
<path d="M14.7773 78.416V81.6166" stroke="#DDDDDD" stroke-width="0.191361" stroke-miterlimit="10"/>
<path d="M16.375 78.416V81.6166" stroke="#DDDDDD" stroke-width="0.191361" stroke-miterlimit="10"/>
<path d="M17.9766 78.416V81.6166" stroke="#DDDDDD" stroke-width="0.191361" stroke-miterlimit="10"/>
<path d="M19.5742 78.416V81.6166" stroke="#DDDDDD" stroke-width="0.191361" stroke-miterlimit="10"/>
<path d="M21.1797 78.416V81.6166" stroke="#DDDDDD" stroke-width="0.191361" stroke-miterlimit="10"/>
<path d="M22.7773 78.416V81.6166" stroke="#DDDDDD" stroke-width="0.191361" stroke-miterlimit="10"/>
<path d="M24.3789 78.416V81.6166" stroke="#DDDDDD" stroke-width="0.191361" stroke-miterlimit="10"/>
<path d="M25.9766 78.416V81.6166" stroke="#DDDDDD" stroke-width="0.191361" stroke-miterlimit="10"/>
<path d="M27.5742 78.416V81.6166" stroke="#DDDDDD" stroke-width="0.191361" stroke-miterlimit="10"/>
<path d="M29.1797 78.416V81.6166" stroke="#DDDDDD" stroke-width="0.191361" stroke-miterlimit="10"/>
<path d="M30.7773 78.416V81.6166" stroke="#DDDDDD" stroke-width="0.191361" stroke-miterlimit="10"/>
<path d="M32.3789 78.416V81.6166" stroke="#DDDDDD" stroke-width="0.191361" stroke-miterlimit="10"/>
<path d="M33.9766 78.416V81.6166" stroke="#DDDDDD" stroke-width="0.191361" stroke-miterlimit="10"/>
<path d="M35.5781 78.416V81.6166" stroke="#DDDDDD" stroke-width="0.191361" stroke-miterlimit="10"/>
<path d="M37.1758 78.416V81.6166" stroke="#DDDDDD" stroke-width="0.191361" stroke-miterlimit="10"/>
<path d="M38.7812 78.416V81.6166" stroke="#DDDDDD" stroke-width="0.191361" stroke-miterlimit="10"/>
<path d="M40.3789 78.416V81.6166" stroke="#DDDDDD" stroke-width="0.191361" stroke-miterlimit="10"/>
<path d="M41.9805 78.416V81.6166" stroke="#DDDDDD" stroke-width="0.191361" stroke-miterlimit="10"/>
<path d="M43.5781 78.416V81.6166" stroke="#DDDDDD" stroke-width="0.191361" stroke-miterlimit="10"/>
<path d="M45.1797 78.416V81.6166" stroke="#DDDDDD" stroke-width="0.191361" stroke-miterlimit="10"/>
<path d="M46.7812 78.416V81.6166" stroke="#DDDDDD" stroke-width="0.191361" stroke-miterlimit="10"/>
<path d="M48.3828 78.416V81.6166" stroke="#DDDDDD" stroke-width="0.191361" stroke-miterlimit="10"/>
<path d="M49.9805 78.416V81.6166" stroke="#DDDDDD" stroke-width="0.191361" stroke-miterlimit="10"/>
<path d="M51.582 78.416V81.6166" stroke="#DDDDDD" stroke-width="0.191361" stroke-miterlimit="10"/>
<path d="M53.1797 78.416V81.6166" stroke="#DDDDDD" stroke-width="0.191361" stroke-miterlimit="10"/>
<path d="M9.33594 83.2129H56.304" stroke="#DDDDDD" stroke-width="0.191361" stroke-miterlimit="10"/>
<path d="M9.33594 86.4141H56.304" stroke="#DDDDDD" stroke-width="0.191361" stroke-miterlimit="10"/>
<path d="M10.375 83.2129V86.4134" stroke="#DDDDDD" stroke-width="0.191361" stroke-miterlimit="10"/>
<path d="M11.9727 83.2129V86.4134" stroke="#DDDDDD" stroke-width="0.191361" stroke-miterlimit="10"/>
<path d="M13.5742 83.2129V86.4134" stroke="#DDDDDD" stroke-width="0.191361" stroke-miterlimit="10"/>
<path d="M15.1758 83.2129V86.4134" stroke="#DDDDDD" stroke-width="0.191361" stroke-miterlimit="10"/>
<path d="M16.7773 83.2129V86.4134" stroke="#DDDDDD" stroke-width="0.191361" stroke-miterlimit="10"/>
<path d="M18.375 83.2129V86.4134" stroke="#DDDDDD" stroke-width="0.191361" stroke-miterlimit="10"/>
<path d="M19.9766 83.2129V86.4134" stroke="#DDDDDD" stroke-width="0.191361" stroke-miterlimit="10"/>
<path d="M21.5742 83.2129V86.4134" stroke="#DDDDDD" stroke-width="0.191361" stroke-miterlimit="10"/>
<path d="M23.1797 83.2129V86.4134" stroke="#DDDDDD" stroke-width="0.191361" stroke-miterlimit="10"/>
<path d="M24.7773 83.2129V86.4134" stroke="#DDDDDD" stroke-width="0.191361" stroke-miterlimit="10"/>
<path d="M26.3789 83.2129V86.4134" stroke="#DDDDDD" stroke-width="0.191361" stroke-miterlimit="10"/>
<path d="M27.9766 83.2129V86.4134" stroke="#DDDDDD" stroke-width="0.191361" stroke-miterlimit="10"/>
<path d="M29.5781 83.2129V86.4134" stroke="#DDDDDD" stroke-width="0.191361" stroke-miterlimit="10"/>
<path d="M31.1758 83.2129V86.4134" stroke="#DDDDDD" stroke-width="0.191361" stroke-miterlimit="10"/>
<path d="M32.7812 83.2129V86.4134" stroke="#DDDDDD" stroke-width="0.191361" stroke-miterlimit="10"/>
<path d="M34.3789 83.2129V86.4134" stroke="#DDDDDD" stroke-width="0.191361" stroke-miterlimit="10"/>
<path d="M35.9805 83.2129V86.4134" stroke="#DDDDDD" stroke-width="0.191361" stroke-miterlimit="10"/>
<path d="M37.5781 83.2129V86.4134" stroke="#DDDDDD" stroke-width="0.191361" stroke-miterlimit="10"/>
<path d="M39.1797 83.2129V86.4134" stroke="#DDDDDD" stroke-width="0.191361" stroke-miterlimit="10"/>
<path d="M40.7812 83.2129V86.4134" stroke="#DDDDDD" stroke-width="0.191361" stroke-miterlimit="10"/>
<path d="M42.3828 83.2129V86.4134" stroke="#DDDDDD" stroke-width="0.191361" stroke-miterlimit="10"/>
<path d="M43.9805 83.2129V86.4134" stroke="#DDDDDD" stroke-width="0.191361" stroke-miterlimit="10"/>
<path d="M45.582 83.2129V86.4134" stroke="#DDDDDD" stroke-width="0.191361" stroke-miterlimit="10"/>
<path d="M47.1797 83.2129V86.4134" stroke="#DDDDDD" stroke-width="0.191361" stroke-miterlimit="10"/>
<path d="M48.7812 83.2129V86.4134" stroke="#DDDDDD" stroke-width="0.191361" stroke-miterlimit="10"/>
<path d="M50.3828 83.2129V86.4134" stroke="#DDDDDD" stroke-width="0.191361" stroke-miterlimit="10"/>
<path d="M51.9805 83.2129V86.4134" stroke="#DDDDDD" stroke-width="0.191361" stroke-miterlimit="10"/>
<path d="M53.582 83.2129V86.4134" stroke="#DDDDDD" stroke-width="0.191361" stroke-miterlimit="10"/>
<path d="M55.1797 83.2129V86.4134" stroke="#DDDDDD" stroke-width="0.191361" stroke-miterlimit="10"/>
<path d="M7.33594 88.0156H54.304" stroke="#DDDDDD" stroke-width="0.191361" stroke-miterlimit="10"/>
<path d="M7.33594 91.2168H54.304" stroke="#DDDDDD" stroke-width="0.191361" stroke-miterlimit="10"/>
<path d="M8.375 88.0156V91.2162" stroke="#DDDDDD" stroke-width="0.191361" stroke-miterlimit="10"/>
<path d="M9.97266 88.0156V91.2162" stroke="#DDDDDD" stroke-width="0.191361" stroke-miterlimit="10"/>
<path d="M11.5742 88.0156V91.2162" stroke="#DDDDDD" stroke-width="0.191361" stroke-miterlimit="10"/>
<path d="M13.1758 88.0156V91.2162" stroke="#DDDDDD" stroke-width="0.191361" stroke-miterlimit="10"/>
<path d="M14.7773 88.0156V91.2162" stroke="#DDDDDD" stroke-width="0.191361" stroke-miterlimit="10"/>
<path d="M16.375 88.0156V91.2162" stroke="#DDDDDD" stroke-width="0.191361" stroke-miterlimit="10"/>
<path d="M17.9766 88.0156V91.2162" stroke="#DDDDDD" stroke-width="0.191361" stroke-miterlimit="10"/>
<path d="M19.5742 88.0156V91.2162" stroke="#DDDDDD" stroke-width="0.191361" stroke-miterlimit="10"/>
<path d="M21.1797 88.0156V91.2162" stroke="#DDDDDD" stroke-width="0.191361" stroke-miterlimit="10"/>
<path d="M22.7773 88.0156V91.2162" stroke="#DDDDDD" stroke-width="0.191361" stroke-miterlimit="10"/>
<path d="M24.3789 88.0156V91.2162" stroke="#DDDDDD" stroke-width="0.191361" stroke-miterlimit="10"/>
<path d="M25.9766 88.0156V91.2162" stroke="#DDDDDD" stroke-width="0.191361" stroke-miterlimit="10"/>
<path d="M27.5742 88.0156V91.2162" stroke="#DDDDDD" stroke-width="0.191361" stroke-miterlimit="10"/>
<path d="M29.1797 88.0156V91.2162" stroke="#DDDDDD" stroke-width="0.191361" stroke-miterlimit="10"/>
<path d="M30.7773 88.0156V91.2162" stroke="#DDDDDD" stroke-width="0.191361" stroke-miterlimit="10"/>
<path d="M32.3789 88.0156V91.2162" stroke="#DDDDDD" stroke-width="0.191361" stroke-miterlimit="10"/>
<path d="M33.9766 88.0156V91.2162" stroke="#DDDDDD" stroke-width="0.191361" stroke-miterlimit="10"/>
<path d="M35.5781 88.0156V91.2162" stroke="#DDDDDD" stroke-width="0.191361" stroke-miterlimit="10"/>
<path d="M37.1758 88.0156V91.2162" stroke="#DDDDDD" stroke-width="0.191361" stroke-miterlimit="10"/>
<path d="M38.7812 88.0156V91.2162" stroke="#DDDDDD" stroke-width="0.191361" stroke-miterlimit="10"/>
<path d="M40.3789 88.0156V91.2162" stroke="#DDDDDD" stroke-width="0.191361" stroke-miterlimit="10"/>
<path d="M41.9805 88.0156V91.2162" stroke="#DDDDDD" stroke-width="0.191361" stroke-miterlimit="10"/>
<path d="M43.5781 88.0156V91.2162" stroke="#DDDDDD" stroke-width="0.191361" stroke-miterlimit="10"/>
<path d="M45.1797 88.0156V91.2162" stroke="#DDDDDD" stroke-width="0.191361" stroke-miterlimit="10"/>
<path d="M46.7812 88.0156V91.2162" stroke="#DDDDDD" stroke-width="0.191361" stroke-miterlimit="10"/>
<path d="M48.3828 88.0156V91.2162" stroke="#DDDDDD" stroke-width="0.191361" stroke-miterlimit="10"/>
<path d="M49.9805 88.0156V91.2162" stroke="#DDDDDD" stroke-width="0.191361" stroke-miterlimit="10"/>
<path d="M51.582 88.0156V91.2162" stroke="#DDDDDD" stroke-width="0.191361" stroke-miterlimit="10"/>
<path d="M53.1797 88.0156V91.2162" stroke="#DDDDDD" stroke-width="0.191361" stroke-miterlimit="10"/>
<path d="M7.33594 97.6172H54.304" stroke="#DDDDDD" stroke-width="0.191361" stroke-miterlimit="10"/>
<path d="M7.33594 100.818H54.304" stroke="#DDDDDD" stroke-width="0.191361" stroke-miterlimit="10"/>
<path d="M8.375 97.6191V100.82" stroke="#DDDDDD" stroke-width="0.191361" stroke-miterlimit="10"/>
<path d="M9.97266 97.6191V100.82" stroke="#DDDDDD" stroke-width="0.191361" stroke-miterlimit="10"/>
<path d="M11.5742 97.6191V100.82" stroke="#DDDDDD" stroke-width="0.191361" stroke-miterlimit="10"/>
<path d="M13.1758 97.6191V100.82" stroke="#DDDDDD" stroke-width="0.191361" stroke-miterlimit="10"/>
<path d="M14.7773 97.6191V100.82" stroke="#DDDDDD" stroke-width="0.191361" stroke-miterlimit="10"/>
<path d="M16.375 97.6191V100.82" stroke="#DDDDDD" stroke-width="0.191361" stroke-miterlimit="10"/>
<path d="M17.9766 97.6191V100.82" stroke="#DDDDDD" stroke-width="0.191361" stroke-miterlimit="10"/>
<path d="M19.5742 97.6191V100.82" stroke="#DDDDDD" stroke-width="0.191361" stroke-miterlimit="10"/>
<path d="M21.1797 97.6191V100.82" stroke="#DDDDDD" stroke-width="0.191361" stroke-miterlimit="10"/>
<path d="M22.7773 97.6191V100.82" stroke="#DDDDDD" stroke-width="0.191361" stroke-miterlimit="10"/>
<path d="M24.3789 97.6191V100.82" stroke="#DDDDDD" stroke-width="0.191361" stroke-miterlimit="10"/>
<path d="M25.9766 97.6191V100.82" stroke="#DDDDDD" stroke-width="0.191361" stroke-miterlimit="10"/>
<path d="M27.5742 97.6191V100.82" stroke="#DDDDDD" stroke-width="0.191361" stroke-miterlimit="10"/>
<path d="M29.1797 97.6191V100.82" stroke="#DDDDDD" stroke-width="0.191361" stroke-miterlimit="10"/>
<path d="M30.7773 97.6191V100.82" stroke="#DDDDDD" stroke-width="0.191361" stroke-miterlimit="10"/>
<path d="M32.3789 97.6191V100.82" stroke="#DDDDDD" stroke-width="0.191361" stroke-miterlimit="10"/>
<path d="M33.9766 97.6191V100.82" stroke="#DDDDDD" stroke-width="0.191361" stroke-miterlimit="10"/>
<path d="M35.5781 97.6191V100.82" stroke="#DDDDDD" stroke-width="0.191361" stroke-miterlimit="10"/>
<path d="M37.1758 97.6191V100.82" stroke="#DDDDDD" stroke-width="0.191361" stroke-miterlimit="10"/>
<path d="M38.7812 97.6191V100.82" stroke="#DDDDDD" stroke-width="0.191361" stroke-miterlimit="10"/>
<path d="M40.3789 97.6191V100.82" stroke="#DDDDDD" stroke-width="0.191361" stroke-miterlimit="10"/>
<path d="M41.9805 97.6191V100.82" stroke="#DDDDDD" stroke-width="0.191361" stroke-miterlimit="10"/>
<path d="M43.5781 97.6191V100.82" stroke="#DDDDDD" stroke-width="0.191361" stroke-miterlimit="10"/>
<path d="M45.1797 97.6191V100.82" stroke="#DDDDDD" stroke-width="0.191361" stroke-miterlimit="10"/>
<path d="M46.7812 97.6191V100.82" stroke="#DDDDDD" stroke-width="0.191361" stroke-miterlimit="10"/>
<path d="M48.3828 97.6191V100.82" stroke="#DDDDDD" stroke-width="0.191361" stroke-miterlimit="10"/>
<path d="M49.9805 97.6191V100.82" stroke="#DDDDDD" stroke-width="0.191361" stroke-miterlimit="10"/>
<path d="M51.582 97.6191V100.82" stroke="#DDDDDD" stroke-width="0.191361" stroke-miterlimit="10"/>
<path d="M53.1797 97.6191V100.82" stroke="#DDDDDD" stroke-width="0.191361" stroke-miterlimit="10"/>
<path d="M9.33594 92.8164H56.304" stroke="#DDDDDD" stroke-width="0.191361" stroke-miterlimit="10"/>
<path d="M9.33594 96.0156H56.304" stroke="#DDDDDD" stroke-width="0.191361" stroke-miterlimit="10"/>
<path d="M10.375 92.8145V96.015" stroke="#DDDDDD" stroke-width="0.191361" stroke-miterlimit="10"/>
<path d="M11.9766 92.8145V96.015" stroke="#DDDDDD" stroke-width="0.191361" stroke-miterlimit="10"/>
<path d="M13.5742 92.8145V96.015" stroke="#DDDDDD" stroke-width="0.191361" stroke-miterlimit="10"/>
<path d="M15.1758 92.8145V96.015" stroke="#DDDDDD" stroke-width="0.191361" stroke-miterlimit="10"/>
<path d="M16.7773 92.8145V96.015" stroke="#DDDDDD" stroke-width="0.191361" stroke-miterlimit="10"/>
<path d="M18.375 92.8145V96.015" stroke="#DDDDDD" stroke-width="0.191361" stroke-miterlimit="10"/>
<path d="M19.9766 92.8145V96.015" stroke="#DDDDDD" stroke-width="0.191361" stroke-miterlimit="10"/>
<path d="M21.5742 92.8145V96.015" stroke="#DDDDDD" stroke-width="0.191361" stroke-miterlimit="10"/>
<path d="M23.1797 92.8145V96.015" stroke="#DDDDDD" stroke-width="0.191361" stroke-miterlimit="10"/>
<path d="M24.7773 92.8145V96.015" stroke="#DDDDDD" stroke-width="0.191361" stroke-miterlimit="10"/>
<path d="M26.3789 92.8145V96.015" stroke="#DDDDDD" stroke-width="0.191361" stroke-miterlimit="10"/>
<path d="M27.9766 92.8145V96.015" stroke="#DDDDDD" stroke-width="0.191361" stroke-miterlimit="10"/>
<path d="M29.5781 92.8145V96.015" stroke="#DDDDDD" stroke-width="0.191361" stroke-miterlimit="10"/>
<path d="M31.1758 92.8145V96.015" stroke="#DDDDDD" stroke-width="0.191361" stroke-miterlimit="10"/>
<path d="M32.7812 92.8145V96.015" stroke="#DDDDDD" stroke-width="0.191361" stroke-miterlimit="10"/>
<path d="M34.3789 92.8145V96.015" stroke="#DDDDDD" stroke-width="0.191361" stroke-miterlimit="10"/>
<path d="M35.9805 92.8145V96.015" stroke="#DDDDDD" stroke-width="0.191361" stroke-miterlimit="10"/>
<path d="M37.5781 92.8145V96.015" stroke="#DDDDDD" stroke-width="0.191361" stroke-miterlimit="10"/>
<path d="M39.1797 92.8145V96.015" stroke="#DDDDDD" stroke-width="0.191361" stroke-miterlimit="10"/>
<path d="M40.7812 92.8145V96.015" stroke="#DDDDDD" stroke-width="0.191361" stroke-miterlimit="10"/>
<path d="M42.3828 92.8145V96.015" stroke="#DDDDDD" stroke-width="0.191361" stroke-miterlimit="10"/>
<path d="M43.9805 92.8145V96.015" stroke="#DDDDDD" stroke-width="0.191361" stroke-miterlimit="10"/>
<path d="M45.582 92.8145V96.015" stroke="#DDDDDD" stroke-width="0.191361" stroke-miterlimit="10"/>
<path d="M47.1797 92.8145V96.015" stroke="#DDDDDD" stroke-width="0.191361" stroke-miterlimit="10"/>
<path d="M48.7812 92.8145V96.015" stroke="#DDDDDD" stroke-width="0.191361" stroke-miterlimit="10"/>
<path d="M50.3828 92.8145V96.015" stroke="#DDDDDD" stroke-width="0.191361" stroke-miterlimit="10"/>
<path d="M51.9844 92.8145V96.015" stroke="#DDDDDD" stroke-width="0.191361" stroke-miterlimit="10"/>
<path d="M53.582 92.8145V96.015" stroke="#DDDDDD" stroke-width="0.191361" stroke-miterlimit="10"/>
<path d="M55.1797 92.8145V96.015" stroke="#DDDDDD" stroke-width="0.191361" stroke-miterlimit="10"/>
<path d="M7.33594 68.8125H54.304" stroke="#DDDDDD" stroke-width="0.191361" stroke-miterlimit="10"/>
<path d="M7.33594 72.0137H54.304" stroke="#DDDDDD" stroke-width="0.191361" stroke-miterlimit="10"/>
<path d="M8.375 68.8125V72.013" stroke="#DDDDDD" stroke-width="0.191361" stroke-miterlimit="10"/>
<path d="M9.97266 68.8125V72.013" stroke="#DDDDDD" stroke-width="0.191361" stroke-miterlimit="10"/>
<path d="M11.5742 68.8125V72.013" stroke="#DDDDDD" stroke-width="0.191361" stroke-miterlimit="10"/>
<path d="M13.1758 68.8125V72.013" stroke="#DDDDDD" stroke-width="0.191361" stroke-miterlimit="10"/>
<path d="M14.7773 68.8125V72.013" stroke="#DDDDDD" stroke-width="0.191361" stroke-miterlimit="10"/>
<path d="M16.375 68.8125V72.013" stroke="#DDDDDD" stroke-width="0.191361" stroke-miterlimit="10"/>
<path d="M17.9766 68.8125V72.013" stroke="#DDDDDD" stroke-width="0.191361" stroke-miterlimit="10"/>
<path d="M19.5742 68.8125V72.013" stroke="#DDDDDD" stroke-width="0.191361" stroke-miterlimit="10"/>
<path d="M21.1797 68.8125V72.013" stroke="#DDDDDD" stroke-width="0.191361" stroke-miterlimit="10"/>
<path d="M22.7773 68.8125V72.013" stroke="#DDDDDD" stroke-width="0.191361" stroke-miterlimit="10"/>
<path d="M24.3789 68.8125V72.013" stroke="#DDDDDD" stroke-width="0.191361" stroke-miterlimit="10"/>
<path d="M25.9766 68.8125V72.013" stroke="#DDDDDD" stroke-width="0.191361" stroke-miterlimit="10"/>
<path d="M27.5742 68.8125V72.013" stroke="#DDDDDD" stroke-width="0.191361" stroke-miterlimit="10"/>
<path d="M29.1797 68.8125V72.013" stroke="#DDDDDD" stroke-width="0.191361" stroke-miterlimit="10"/>
<path d="M30.7773 68.8125V72.013" stroke="#DDDDDD" stroke-width="0.191361" stroke-miterlimit="10"/>
<path d="M32.3789 68.8125V72.013" stroke="#DDDDDD" stroke-width="0.191361" stroke-miterlimit="10"/>
<path d="M33.9766 68.8125V72.013" stroke="#DDDDDD" stroke-width="0.191361" stroke-miterlimit="10"/>
<path d="M35.5781 68.8125V72.013" stroke="#DDDDDD" stroke-width="0.191361" stroke-miterlimit="10"/>
<path d="M37.1758 68.8125V72.013" stroke="#DDDDDD" stroke-width="0.191361" stroke-miterlimit="10"/>
<path d="M38.7812 68.8125V72.013" stroke="#DDDDDD" stroke-width="0.191361" stroke-miterlimit="10"/>
<path d="M40.3789 68.8125V72.013" stroke="#DDDDDD" stroke-width="0.191361" stroke-miterlimit="10"/>
<path d="M41.9805 68.8125V72.013" stroke="#DDDDDD" stroke-width="0.191361" stroke-miterlimit="10"/>
<path d="M43.5781 68.8125V72.013" stroke="#DDDDDD" stroke-width="0.191361" stroke-miterlimit="10"/>
<path d="M45.1797 68.8125V72.013" stroke="#DDDDDD" stroke-width="0.191361" stroke-miterlimit="10"/>
<path d="M46.7812 68.8125V72.013" stroke="#DDDDDD" stroke-width="0.191361" stroke-miterlimit="10"/>
<path d="M48.3828 68.8125V72.013" stroke="#DDDDDD" stroke-width="0.191361" stroke-miterlimit="10"/>
<path d="M49.9805 68.8125V72.013" stroke="#DDDDDD" stroke-width="0.191361" stroke-miterlimit="10"/>
<path d="M51.582 68.8125V72.013" stroke="#DDDDDD" stroke-width="0.191361" stroke-miterlimit="10"/>
<path d="M53.1797 68.8125V72.013" stroke="#DDDDDD" stroke-width="0.191361" stroke-miterlimit="10"/>
<path d="M56.5825 8.77375V6.90897C56.5825 6.11544 55.943 5.44095 55.1035 5.44095H53.1048C53.9043 5.44095 54.5838 4.80613 54.5838 3.97293V2.26685C54.5838 1.47332 53.9442 0.798828 53.1048 0.798828H8.89311C8.09363 0.798828 7.41406 1.43365 7.41406 2.26685V4.13163C7.41406 4.92516 8.05365 5.59965 8.89311 5.59965H10.8918C10.0923 5.59965 9.41278 6.23447 9.41278 7.06767V8.93246C9.41278 9.72598 10.0524 10.4005 10.8918 10.4005H8.89311C8.09363 10.4005 7.41406 11.0353 7.41406 11.8685V13.7333C7.41406 14.5268 8.05365 15.2013 8.89311 15.2013H10.8918C10.0923 15.2013 9.41278 15.8361 9.41278 16.6693V18.5341C9.41278 19.3276 10.0524 20.0021 10.8918 20.0021H8.89311C8.09363 20.0021 7.41406 20.6369 7.41406 21.4702V23.3349C7.41406 24.1285 8.05365 24.803 8.89311 24.803H10.8918C10.0923 24.803 9.41278 25.4378 9.41278 26.271V28.1358C9.41278 28.9293 10.0524 29.6038 10.8918 29.6038H8.89311C8.09363 29.6038 7.41406 30.2386 7.41406 31.0718V32.9366C7.41406 33.7301 8.05365 34.4046 8.89311 34.4046H10.8918C10.0923 34.4046 9.41278 35.0394 9.41278 35.8726V37.7374C9.41278 38.5309 10.0524 39.2054 10.8918 39.2054H8.89311C8.09363 39.2054 7.41406 39.8403 7.41406 40.6735V42.5382C7.41406 43.3318 8.05365 44.0063 8.89311 44.0063H10.8918C10.0923 44.0063 9.41278 44.6411 9.41278 45.4743V47.3391C9.41278 48.1326 10.0524 48.8071 10.8918 48.8071H8.89311C8.09363 48.8071 7.41406 49.4419 7.41406 50.2751V52.1399C7.41406 52.9334 8.05365 53.6079 8.89311 53.6079H10.8918C10.0923 53.6079 9.41278 54.2427 9.41278 55.0759V56.9407C9.41278 57.7342 10.0524 58.4087 10.8918 58.4087H8.89311C8.09363 58.4087 7.41406 59.0436 7.41406 59.8768V61.7415C7.41406 62.5351 8.05365 63.2096 8.89311 63.2096H10.8918C10.0923 63.2096 9.41278 63.8444 9.41278 64.6776V66.5424C9.41278 67.3359 10.0524 68.0104 10.8918 68.0104H8.89311C8.09363 68.0104 7.41406 68.6452 7.41406 69.4784V71.3432C7.41406 72.1367 8.05365 72.8112 8.89311 72.8112H10.8918C10.0923 72.8112 9.41278 73.446 9.41278 74.2792V76.144C9.41278 76.9375 10.0524 77.612 10.8918 77.612H8.89311C8.09363 77.612 7.41406 78.2469 7.41406 79.0801V80.9448C7.41406 81.7384 8.05365 82.4129 8.89311 82.4129H10.8918C10.0923 82.4129 9.41278 83.0477 9.41278 83.8809V85.7457C9.41278 86.5392 10.0524 87.2137 10.8918 87.2137H8.89311C8.09363 87.2137 7.41406 87.8485 7.41406 88.6817V90.5465C7.41406 91.34 8.05365 92.0145 8.89311 92.0145H10.8918C10.0923 92.0145 9.41278 92.6493 9.41278 93.4825V95.3473C9.41278 96.1408 10.0524 96.8153 10.8918 96.8153H8.89311C8.09363 96.8153 7.41406 97.4502 7.41406 98.2834V100.148C7.41406 100.942 8.05365 101.616 8.89311 101.616H53.1447C53.9442 101.616 54.6238 100.981 54.6238 100.148V98.2834C54.6238 97.4898 53.9842 96.8153 53.1447 96.8153H55.1435C55.943 96.8153 56.6225 96.1805 56.6225 95.3473V93.4825C56.6225 92.689 55.9829 92.0145 55.1435 92.0145H53.1447C53.9442 92.0145 54.6238 91.3797 54.6238 90.5465V88.6817C54.6238 87.8882 53.9842 87.2137 53.1447 87.2137H55.1435C55.943 87.2137 56.6225 86.5789 56.6225 85.7457V83.8809C56.6225 83.0874 55.9829 82.4129 55.1435 82.4129H53.1447C53.9442 82.4129 54.6238 81.778 54.6238 80.9448V79.0801C54.6238 78.2865 53.9842 77.612 53.1447 77.612H55.1435C55.943 77.612 56.6225 76.9772 56.6225 76.144V74.2792C56.6225 73.4857 55.9829 72.8112 55.1435 72.8112H53.1447C53.9442 72.8112 54.6238 72.1764 54.6238 71.3432V69.4784C54.6238 68.6849 53.9842 68.0104 53.1447 68.0104H55.1435C55.943 68.0104 56.6225 67.3756 56.6225 66.5424V64.6776C56.6225 63.8841 55.9829 63.2096 55.1435 63.2096H53.1447C53.9442 63.2096 54.6238 62.5747 54.6238 61.7415V59.8768C54.6238 59.0832 53.9842 58.4087 53.1447 58.4087H55.1435C55.943 58.4087 56.6225 57.7739 56.6225 56.9407V55.0759C56.6225 54.2824 55.9829 53.6079 55.1435 53.6079H53.1447C53.9442 53.6079 54.6238 52.9731 54.6238 52.1399V50.2751C54.6238 49.4816 53.9842 48.8071 53.1447 48.8071H55.1435C55.943 48.8071 56.6225 48.1723 56.6225 47.3391V45.4743C56.6225 44.6808 55.9829 44.0063 55.1435 44.0063H53.1447C53.9442 44.0063 54.6238 43.3714 54.6238 42.5382V40.6735C54.6238 39.8799 53.9842 39.2054 53.1447 39.2054H55.1435C55.943 39.2054 56.6225 38.5706 56.6225 37.7374V35.8726C56.6225 35.0791 55.9829 34.4046 55.1435 34.4046H53.1447C53.9442 34.4046 54.6238 33.7698 54.6238 32.9366V31.0718C54.6238 30.2783 53.9842 29.6038 53.1447 29.6038H55.1435C55.943 29.6038 56.6225 28.969 56.6225 28.1358V26.271C56.6225 25.4775 55.9829 24.803 55.1435 24.803H53.1447C53.9442 24.803 54.6238 24.1681 54.6238 23.3349V21.4702C54.6238 20.6766 53.9842 20.0021 53.1447 20.0021H55.1435C55.943 20.0021 56.6225 19.3673 56.6225 18.5341V16.6693C56.6225 15.8758 55.9829 15.2013 55.1435 15.2013H53.1447C53.9442 15.2013 54.6238 14.5665 54.6238 13.7333V11.8685C54.6238 11.075 53.9842 10.4005 53.1447 10.4005H55.1435C55.943 10.2418 56.5825 9.60695 56.5825 8.77375Z" stroke="#808080" stroke-width="0.382721" stroke-miterlimit="10"/>
<path d="M45.3968 81.6103H47.9097L37.8225 100.26H35.3334L45.3968 81.6103ZM30.5697 86.1954C30.5697 85.3856 30.7443 84.6154 31.0937 83.885C31.4509 83.1545 31.9908 82.5948 32.7133 82.2058C33.4438 81.8088 34.3052 81.6103 35.2977 81.6103C36.7586 81.6103 37.9098 82.0271 38.7514 82.8608C39.593 83.6944 40.0138 84.806 40.0138 86.1954C40.0138 87.5928 39.593 88.7083 38.7514 89.5419C37.9098 90.3756 36.7586 90.7924 35.2977 90.7924C34.3052 90.7924 33.4438 90.5979 32.7133 90.2089C31.9908 89.8119 31.4509 89.2482 31.0937 88.5177C30.7443 87.7873 30.5697 87.0132 30.5697 86.1954ZM33.9162 86.2192C33.9162 87.2037 34.075 87.9183 34.3926 88.3629C34.599 88.6567 34.9007 88.8036 35.2977 88.8036C35.6947 88.8036 35.9924 88.6567 36.1909 88.3629C36.5085 87.9183 36.6673 87.2037 36.6673 86.2192C36.6673 85.2427 36.5085 84.5281 36.1909 84.0755C35.9924 83.7897 35.6947 83.6468 35.2977 83.6468C34.9007 83.6468 34.599 83.7897 34.3926 84.0755C34.075 84.5202 33.9162 85.2347 33.9162 86.2192ZM43.1579 95.6395C43.1579 94.8218 43.3325 94.0516 43.6819 93.3291C44.0312 92.5987 44.5711 92.035 45.3016 91.638C46.032 91.241 46.8895 91.0425 47.874 91.0425C49.3428 91.0425 50.498 91.4633 51.3396 92.3049C52.1812 93.1386 52.602 94.2501 52.602 95.6395C52.602 97.029 52.1812 98.1445 51.3396 98.9861C50.498 99.8197 49.3428 100.237 47.874 100.237C46.8895 100.237 46.032 100.038 45.3016 99.6411C44.5711 99.2441 44.0312 98.6844 43.6819 97.9619C43.3325 97.2314 43.1579 96.4573 43.1579 95.6395ZM46.5044 95.6634C46.5044 96.6479 46.6632 97.3624 46.9808 97.8071C47.1793 98.0929 47.477 98.2358 47.874 98.2358C48.271 98.2358 48.5727 98.0929 48.7791 97.8071C49.0967 97.3624 49.2555 96.6479 49.2555 95.6634C49.2555 94.6789 49.0967 93.9603 48.7791 93.5078C48.5727 93.2219 48.271 93.079 47.874 93.079C47.477 93.079 47.1793 93.2259 46.9808 93.5197C46.6632 93.9643 46.5044 94.6789 46.5044 95.6634Z" fill="#A0A0A0"/>
<path d="M2.68919 88.3415L10.9636 87.4845C11.2001 89.3561 11.8994 90.8435 13.0618 91.9468C14.2242 93.0303 15.5638 93.5721 17.0808 93.5721C18.8145 93.5721 20.2822 92.8727 21.484 91.4739C22.6858 90.0555 23.2867 87.9278 23.2867 85.0908C23.2867 82.4312 22.6858 80.4413 21.484 79.1214C20.3019 77.7817 18.7554 77.1119 16.8444 77.1119C14.4606 77.1119 12.323 78.1659 10.4317 80.2739L3.69395 79.2987L7.94938 56.7508H29.9062V64.5229H14.2439L12.9436 71.8812C14.7955 70.9553 16.6868 70.4923 18.6175 70.4923C22.3016 70.4923 25.4242 71.832 27.9854 74.5113C30.5465 77.1907 31.8271 80.6679 31.8271 84.943C31.8271 88.5089 30.7928 91.6907 28.7241 94.4882C25.9069 98.3102 21.9962 100.221 16.9922 100.221C12.9928 100.221 9.73232 99.1475 7.21059 97.0001C4.68885 94.8527 3.18172 91.9665 2.68919 88.3415Z" fill="#A0A0A0"/>
<rect x="1.61719" y="100" width="66" height="17" fill="#A0A0A0"/>
<path d="M7.68848 111.189V109.808L11.1162 108.46L7.68848 107.127V105.755L12.6006 107.879V109.051L7.68848 111.189ZM16.3018 110.345L17.6299 110.198C17.6624 110.468 17.7471 110.669 17.8838 110.799C18.0205 110.929 18.2012 110.994 18.4258 110.994C18.709 110.994 18.9499 110.864 19.1484 110.604C19.347 110.343 19.474 109.803 19.5293 108.982C19.1842 109.383 18.7529 109.583 18.2354 109.583C17.6722 109.583 17.1855 109.367 16.7754 108.934C16.3685 108.497 16.165 107.931 16.165 107.234C16.165 106.508 16.3799 105.924 16.8096 105.481C17.2425 105.035 17.7926 104.812 18.46 104.812C19.1859 104.812 19.7816 105.094 20.2471 105.657C20.7126 106.217 20.9453 107.14 20.9453 108.426C20.9453 109.734 20.7028 110.678 20.2178 111.258C19.7327 111.837 19.1012 112.127 18.3232 112.127C17.7633 112.127 17.3109 111.979 16.9658 111.683C16.6208 111.383 16.3994 110.937 16.3018 110.345ZM19.4072 107.347C19.4072 106.904 19.3047 106.561 19.0996 106.316C18.8978 106.072 18.6634 105.95 18.3965 105.95C18.1426 105.95 17.931 106.051 17.7617 106.253C17.5957 106.451 17.5127 106.779 17.5127 107.234C17.5127 107.697 17.6038 108.037 17.7861 108.255C17.9684 108.47 18.1963 108.577 18.4697 108.577C18.7334 108.577 18.9548 108.473 19.1338 108.265C19.3161 108.056 19.4072 107.75 19.4072 107.347ZM26.4873 106.595L25.1592 106.741C25.1266 106.468 25.042 106.266 24.9053 106.136C24.7686 106.006 24.5911 105.94 24.373 105.94C24.0833 105.94 23.8376 106.071 23.6357 106.331C23.4372 106.591 23.3118 107.133 23.2598 107.957C23.6016 107.553 24.0264 107.352 24.5342 107.352C25.1071 107.352 25.597 107.57 26.0039 108.006C26.4141 108.442 26.6191 109.005 26.6191 109.695C26.6191 110.428 26.4043 111.015 25.9746 111.458C25.5449 111.901 24.9932 112.122 24.3193 112.122C23.5967 112.122 23.0026 111.842 22.5371 111.282C22.0716 110.719 21.8389 109.798 21.8389 108.519C21.8389 107.207 22.0814 106.261 22.5664 105.682C23.0514 105.102 23.6813 104.812 24.4561 104.812C24.9997 104.812 25.4489 104.965 25.8037 105.271C26.1618 105.574 26.3896 106.015 26.4873 106.595ZM23.377 109.588C23.377 110.034 23.4795 110.379 23.6846 110.623C23.8896 110.864 24.124 110.984 24.3877 110.984C24.6416 110.984 24.8532 110.885 25.0225 110.687C25.1917 110.488 25.2764 110.162 25.2764 109.71C25.2764 109.244 25.1852 108.904 25.0029 108.689C24.8206 108.471 24.5928 108.362 24.3193 108.362C24.0557 108.362 23.8327 108.466 23.6504 108.675C23.4681 108.88 23.377 109.184 23.377 109.588ZM29.7246 104.812C30.418 104.812 30.96 105.06 31.3506 105.555C31.8161 106.141 32.0488 107.112 32.0488 108.47C32.0488 109.824 31.8145 110.797 31.3457 111.39C30.9583 111.878 30.418 112.122 29.7246 112.122C29.028 112.122 28.4665 111.855 28.04 111.321C27.6136 110.784 27.4004 109.829 27.4004 108.455C27.4004 107.107 27.6348 106.137 28.1035 105.545C28.4909 105.057 29.0312 104.812 29.7246 104.812ZM29.7246 105.95C29.5586 105.95 29.4105 106.004 29.2803 106.111C29.1501 106.215 29.0492 106.404 28.9775 106.678C28.8831 107.033 28.8359 107.63 28.8359 108.47C28.8359 109.31 28.8783 109.887 28.9629 110.203C29.0475 110.516 29.1533 110.724 29.2803 110.828C29.4105 110.932 29.5586 110.984 29.7246 110.984C29.8906 110.984 30.0387 110.932 30.1689 110.828C30.2992 110.721 30.4001 110.53 30.4717 110.257C30.5661 109.905 30.6133 109.31 30.6133 108.47C30.6133 107.63 30.571 107.054 30.4863 106.741C30.4017 106.425 30.2943 106.215 30.1641 106.111C30.0371 106.004 29.8906 105.95 29.7246 105.95ZM38.0742 104.812C38.7676 104.812 39.3096 105.06 39.7002 105.555C40.1657 106.141 40.3984 107.112 40.3984 108.47C40.3984 109.824 40.1641 110.797 39.6953 111.39C39.3079 111.878 38.7676 112.122 38.0742 112.122C37.3776 112.122 36.8161 111.855 36.3896 111.321C35.9632 110.784 35.75 109.829 35.75 108.455C35.75 107.107 35.9844 106.137 36.4531 105.545C36.8405 105.057 37.3809 104.812 38.0742 104.812ZM38.0742 105.95C37.9082 105.95 37.7601 106.004 37.6299 106.111C37.4997 106.215 37.3988 106.404 37.3271 106.678C37.2327 107.033 37.1855 107.63 37.1855 108.47C37.1855 109.31 37.2279 109.887 37.3125 110.203C37.3971 110.516 37.5029 110.724 37.6299 110.828C37.7601 110.932 37.9082 110.984 38.0742 110.984C38.2402 110.984 38.3883 110.932 38.5186 110.828C38.6488 110.721 38.7497 110.53 38.8213 110.257C38.9157 109.905 38.9629 109.31 38.9629 108.47C38.9629 107.63 38.9206 107.054 38.8359 106.741C38.7513 106.425 38.6439 106.215 38.5137 106.111C38.3867 106.004 38.2402 105.95 38.0742 105.95ZM43.6406 104.812C44.334 104.812 44.876 105.06 45.2666 105.555C45.7321 106.141 45.9648 107.112 45.9648 108.47C45.9648 109.824 45.7305 110.797 45.2617 111.39C44.8743 111.878 44.334 112.122 43.6406 112.122C42.944 112.122 42.3825 111.855 41.9561 111.321C41.5296 110.784 41.3164 109.829 41.3164 108.455C41.3164 107.107 41.5508 106.137 42.0195 105.545C42.4069 105.057 42.9473 104.812 43.6406 104.812ZM43.6406 105.95C43.4746 105.95 43.3265 106.004 43.1963 106.111C43.0661 106.215 42.9652 106.404 42.8936 106.678C42.7992 107.033 42.752 107.63 42.752 108.47C42.752 109.31 42.7943 109.887 42.8789 110.203C42.9635 110.516 43.0693 110.724 43.1963 110.828C43.3265 110.932 43.4746 110.984 43.6406 110.984C43.8066 110.984 43.9548 110.932 44.085 110.828C44.2152 110.721 44.3161 110.53 44.3877 110.257C44.4821 109.905 44.5293 109.31 44.5293 108.47C44.5293 107.63 44.487 107.054 44.4023 106.741C44.3177 106.425 44.2103 106.215 44.0801 106.111C43.9531 106.004 43.8066 105.95 43.6406 105.95ZM49.207 104.812C49.9004 104.812 50.4424 105.06 50.833 105.555C51.2985 106.141 51.5312 107.112 51.5312 108.47C51.5312 109.824 51.2969 110.797 50.8281 111.39C50.4408 111.878 49.9004 112.122 49.207 112.122C48.5104 112.122 47.9489 111.855 47.5225 111.321C47.096 110.784 46.8828 109.829 46.8828 108.455C46.8828 107.107 47.1172 106.137 47.5859 105.545C47.9733 105.057 48.5137 104.812 49.207 104.812ZM49.207 105.95C49.041 105.95 48.8929 106.004 48.7627 106.111C48.6325 106.215 48.5316 106.404 48.46 106.678C48.3656 107.033 48.3184 107.63 48.3184 108.47C48.3184 109.31 48.3607 109.887 48.4453 110.203C48.5299 110.516 48.6357 110.724 48.7627 110.828C48.8929 110.932 49.041 110.984 49.207 110.984C49.373 110.984 49.5212 110.932 49.6514 110.828C49.7816 110.721 49.8825 110.53 49.9541 110.257C50.0485 109.905 50.0957 109.31 50.0957 108.47C50.0957 107.63 50.0534 107.054 49.9688 106.741C49.8841 106.425 49.7767 106.215 49.6465 106.111C49.5195 106.004 49.373 105.95 49.207 105.95ZM56.1325 109.23V109.89H55.0325V110.92H56.1325V112H57.5625V110.92H60.1025V109.89H57.5625V109.23H59.1425C59.8925 109.23 60.4825 109.03 60.9225 108.64C61.3625 108.25 61.5825 107.74 61.5825 107.11C61.5825 106.48 61.3625 105.98 60.9225 105.59C60.4825 105.2 59.8925 105 59.1425 105H56.1325V108.2H55.0325V109.23H56.1325ZM57.5625 106.26H58.9525C59.6825 106.26 60.1325 106.6 60.1325 107.23C60.1325 107.84 59.6825 108.2 58.9525 108.2H57.5625V106.26Z" fill="white"/>
</svg>
