<svg width="165" height="92" viewBox="0 0 165 92" fill="none" xmlns="http://www.w3.org/2000/svg">
<path d="M124.5 27.3V22.6C124.5 20.6 122.9 18.9 120.8 18.9H115.8C117.8 18.9 119.5 17.3 119.5 15.2V10.7C119.5 8.7 117.9 7 115.8 7H5.2C3.2 7 1.5 8.6 1.5 10.7V15.4C1.5 17.4 3.1 19.1 5.2 19.1H10.2C8.2 19.1 6.5 20.7 6.5 22.8V27.5C6.5 29.5 8.1 31.2 10.2 31.2H5.2C3.2 31.2 1.5 32.8 1.5 34.9V39.6C1.5 41.6 3.1 43.3 5.2 43.3H10.2C8.2 43.3 6.5 44.9 6.5 47V51.7C6.5 53.7 8.1 55.4 10.2 55.4H5.2C3.2 55.4 1.5 57 1.5 59.1V63.8C1.5 65.8 3.1 67.5 5.2 67.5H10.2C8.2 67.5 6.5 69.1 6.5 71.2V75.9C6.5 77.9 8.1 79.6 10.2 79.6H5.2C3.2 79.6 1.5 81.2 1.5 83.3V88C1.5 90 3.1 91.7 5.2 91.7H115.9C117.9 91.7 119.6 90.1 119.6 88V83.3C119.6 81.3 118 79.6 115.9 79.6H120.9C122.9 79.6 124.6 78 124.6 75.9V71.2C124.6 69.2 123 67.5 120.9 67.5H115.9C117.9 67.5 119.6 65.9 119.6 63.8V59.1C119.6 57.1 118 55.4 115.9 55.4H120.9C122.9 55.4 124.6 53.8 124.6 51.7V47C124.6 45 123 43.3 120.9 43.3H115.9C117.9 43.3 119.6 41.7 119.6 39.6V34.9C119.6 32.9 118 31.2 115.9 31.2H120.9C122.9 31 124.5 29.4 124.5 27.3Z" fill="white"/>
<path d="M121.203 31H10.6969C8.69856 31 7 29.4132 7 27.3306V22.6694C7 20.686 8.59865 19 10.6969 19H121.303C123.301 19 125 20.5868 125 22.6694V27.3306C124.9 29.4132 123.301 31 121.203 31Z" stroke="#DDDDDD" stroke-miterlimit="10"/>
<path d="M116.203 19H5.69687C3.69856 19 2 17.4 2 15.3V10.7C2 8.7 3.59865 7 5.69687 7H116.303C118.301 7 120 8.6 120 10.7V15.4C119.9 17.4 118.301 19 116.203 19Z" stroke="#DDDDDD" stroke-miterlimit="10"/>
<path d="M121.203 55H10.6969C8.69856 55 7 53.4132 7 51.3306V46.6694C7 44.6859 8.59865 43 10.6969 43H121.303C123.301 43 125 44.5868 125 46.6694V51.3306C124.9 53.4132 123.301 55 121.203 55Z" stroke="#DDDDDD" stroke-miterlimit="10"/>
<path d="M116.203 43H5.69687C3.69856 43 2 41.4132 2 39.3306V34.6694C2 32.686 3.59865 31 5.69687 31H116.303C118.301 31 120 32.5868 120 34.6694V39.3306C119.9 41.4132 118.301 43 116.203 43Z" stroke="#DDDDDD" stroke-miterlimit="10"/>
<path d="M116.203 91H5.69687C3.69856 91 2 89.4132 2 87.3306V82.6694C2 80.6859 3.59865 79 5.69687 79H116.303C118.301 79 120 80.5868 120 82.6694V87.3306C119.9 89.4132 118.301 91 116.203 91Z" stroke="#DDDDDD" stroke-miterlimit="10"/>
<path d="M121.203 79H10.6969C8.69856 79 7 77.4132 7 75.3306V70.6694C7 68.6859 8.59865 67 10.6969 67H121.303C123.301 67 125 68.5868 125 70.6694V75.3306C124.9 77.4132 123.301 79 121.203 79Z" stroke="#DDDDDD" stroke-miterlimit="10"/>
<path d="M116.203 67H5.69687C3.69856 67 2 65.4132 2 63.3306V58.6694C2 56.6859 3.59865 55 5.69687 55H116.303C118.301 55 120 56.5868 120 58.6694V63.3306C119.9 65.4132 118.301 67 116.203 67Z" stroke="#DDDDDD" stroke-miterlimit="10"/>
<path d="M1.80078 9H119.201" stroke="#DDDDDD" stroke-width="0.5" stroke-miterlimit="10"/>
<path d="M1.80078 17H119.201" stroke="#DDDDDD" stroke-width="0.5" stroke-miterlimit="10"/>
<path d="M4.40234 9V17" stroke="#DDDDDD" stroke-width="0.5" stroke-miterlimit="10"/>
<path d="M8.40234 9V17" stroke="#DDDDDD" stroke-width="0.5" stroke-miterlimit="10"/>
<path d="M12.4023 9V17" stroke="#DDDDDD" stroke-width="0.5" stroke-miterlimit="10"/>
<path d="M16.4023 9V17" stroke="#DDDDDD" stroke-width="0.5" stroke-miterlimit="10"/>
<path d="M20.4023 9V17" stroke="#DDDDDD" stroke-width="0.5" stroke-miterlimit="10"/>
<path d="M24.4023 9V17" stroke="#DDDDDD" stroke-width="0.5" stroke-miterlimit="10"/>
<path d="M28.4023 9V17" stroke="#DDDDDD" stroke-width="0.5" stroke-miterlimit="10"/>
<path d="M32.4023 9V17" stroke="#DDDDDD" stroke-width="0.5" stroke-miterlimit="10"/>
<path d="M36.4023 9V17" stroke="#DDDDDD" stroke-width="0.5" stroke-miterlimit="10"/>
<path d="M40.4023 9V17" stroke="#DDDDDD" stroke-width="0.5" stroke-miterlimit="10"/>
<path d="M44.4023 9V17" stroke="#DDDDDD" stroke-width="0.5" stroke-miterlimit="10"/>
<path d="M48.4023 9V17" stroke="#DDDDDD" stroke-width="0.5" stroke-miterlimit="10"/>
<path d="M52.4023 9V17" stroke="#DDDDDD" stroke-width="0.5" stroke-miterlimit="10"/>
<path d="M56.4023 9V17" stroke="#DDDDDD" stroke-width="0.5" stroke-miterlimit="10"/>
<path d="M60.4023 9V17" stroke="#DDDDDD" stroke-width="0.5" stroke-miterlimit="10"/>
<path d="M64.4023 9V17" stroke="#DDDDDD" stroke-width="0.5" stroke-miterlimit="10"/>
<path d="M68.4023 9V17" stroke="#DDDDDD" stroke-width="0.5" stroke-miterlimit="10"/>
<path d="M72.4023 9V17" stroke="#DDDDDD" stroke-width="0.5" stroke-miterlimit="10"/>
<path d="M76.4023 9V17" stroke="#DDDDDD" stroke-width="0.5" stroke-miterlimit="10"/>
<path d="M80.4023 9V17" stroke="#DDDDDD" stroke-width="0.5" stroke-miterlimit="10"/>
<path d="M84.4023 9V17" stroke="#DDDDDD" stroke-width="0.5" stroke-miterlimit="10"/>
<path d="M88.4023 9V17" stroke="#DDDDDD" stroke-width="0.5" stroke-miterlimit="10"/>
<path d="M92.4023 9V17" stroke="#DDDDDD" stroke-width="0.5" stroke-miterlimit="10"/>
<path d="M96.4023 9V17" stroke="#DDDDDD" stroke-width="0.5" stroke-miterlimit="10"/>
<path d="M100.402 9V17" stroke="#DDDDDD" stroke-width="0.5" stroke-miterlimit="10"/>
<path d="M104.402 9V17" stroke="#DDDDDD" stroke-width="0.5" stroke-miterlimit="10"/>
<path d="M108.402 9V17" stroke="#DDDDDD" stroke-width="0.5" stroke-miterlimit="10"/>
<path d="M112.402 9V17" stroke="#DDDDDD" stroke-width="0.5" stroke-miterlimit="10"/>
<path d="M116.402 9V17" stroke="#DDDDDD" stroke-width="0.5" stroke-miterlimit="10"/>
<path d="M6.80078 21H124.201" stroke="#DDDDDD" stroke-width="0.5" stroke-miterlimit="10"/>
<path d="M6.80078 29H124.201" stroke="#DDDDDD" stroke-width="0.5" stroke-miterlimit="10"/>
<path d="M9.40234 21V29" stroke="#DDDDDD" stroke-width="0.5" stroke-miterlimit="10"/>
<path d="M13.4023 21V29" stroke="#DDDDDD" stroke-width="0.5" stroke-miterlimit="10"/>
<path d="M17.4023 21V29" stroke="#DDDDDD" stroke-width="0.5" stroke-miterlimit="10"/>
<path d="M21.4023 21V29" stroke="#DDDDDD" stroke-width="0.5" stroke-miterlimit="10"/>
<path d="M25.4023 21V29" stroke="#DDDDDD" stroke-width="0.5" stroke-miterlimit="10"/>
<path d="M29.4023 21V29" stroke="#DDDDDD" stroke-width="0.5" stroke-miterlimit="10"/>
<path d="M33.4023 21V29" stroke="#DDDDDD" stroke-width="0.5" stroke-miterlimit="10"/>
<path d="M37.4023 21V29" stroke="#DDDDDD" stroke-width="0.5" stroke-miterlimit="10"/>
<path d="M41.4023 21V29" stroke="#DDDDDD" stroke-width="0.5" stroke-miterlimit="10"/>
<path d="M45.4023 21V29" stroke="#DDDDDD" stroke-width="0.5" stroke-miterlimit="10"/>
<path d="M49.4023 21V29" stroke="#DDDDDD" stroke-width="0.5" stroke-miterlimit="10"/>
<path d="M53.4023 21V29" stroke="#DDDDDD" stroke-width="0.5" stroke-miterlimit="10"/>
<path d="M57.4023 21V29" stroke="#DDDDDD" stroke-width="0.5" stroke-miterlimit="10"/>
<path d="M61.4023 21V29" stroke="#DDDDDD" stroke-width="0.5" stroke-miterlimit="10"/>
<path d="M65.4023 21V29" stroke="#DDDDDD" stroke-width="0.5" stroke-miterlimit="10"/>
<path d="M69.4023 21V29" stroke="#DDDDDD" stroke-width="0.5" stroke-miterlimit="10"/>
<path d="M73.4023 21V29" stroke="#DDDDDD" stroke-width="0.5" stroke-miterlimit="10"/>
<path d="M77.4023 21V29" stroke="#DDDDDD" stroke-width="0.5" stroke-miterlimit="10"/>
<path d="M81.4023 21V29" stroke="#DDDDDD" stroke-width="0.5" stroke-miterlimit="10"/>
<path d="M85.4023 21V29" stroke="#DDDDDD" stroke-width="0.5" stroke-miterlimit="10"/>
<path d="M89.4023 21V29" stroke="#DDDDDD" stroke-width="0.5" stroke-miterlimit="10"/>
<path d="M93.4023 21V29" stroke="#DDDDDD" stroke-width="0.5" stroke-miterlimit="10"/>
<path d="M97.4023 21V29" stroke="#DDDDDD" stroke-width="0.5" stroke-miterlimit="10"/>
<path d="M101.402 21V29" stroke="#DDDDDD" stroke-width="0.5" stroke-miterlimit="10"/>
<path d="M105.402 21V29" stroke="#DDDDDD" stroke-width="0.5" stroke-miterlimit="10"/>
<path d="M109.402 21V29" stroke="#DDDDDD" stroke-width="0.5" stroke-miterlimit="10"/>
<path d="M113.402 21V29" stroke="#DDDDDD" stroke-width="0.5" stroke-miterlimit="10"/>
<path d="M117.402 21V29" stroke="#DDDDDD" stroke-width="0.5" stroke-miterlimit="10"/>
<path d="M121.402 21V29" stroke="#DDDDDD" stroke-width="0.5" stroke-miterlimit="10"/>
<path d="M1.80078 33H119.201" stroke="#DDDDDD" stroke-width="0.5" stroke-miterlimit="10"/>
<path d="M1.80078 41H119.201" stroke="#DDDDDD" stroke-width="0.5" stroke-miterlimit="10"/>
<path d="M4.40234 33V41" stroke="#DDDDDD" stroke-width="0.5" stroke-miterlimit="10"/>
<path d="M8.40234 33V41" stroke="#DDDDDD" stroke-width="0.5" stroke-miterlimit="10"/>
<path d="M12.4023 33V41" stroke="#DDDDDD" stroke-width="0.5" stroke-miterlimit="10"/>
<path d="M16.4023 33V41" stroke="#DDDDDD" stroke-width="0.5" stroke-miterlimit="10"/>
<path d="M20.4023 33V41" stroke="#DDDDDD" stroke-width="0.5" stroke-miterlimit="10"/>
<path d="M24.4023 33V41" stroke="#DDDDDD" stroke-width="0.5" stroke-miterlimit="10"/>
<path d="M28.4023 33V41" stroke="#DDDDDD" stroke-width="0.5" stroke-miterlimit="10"/>
<path d="M32.4023 33V41" stroke="#DDDDDD" stroke-width="0.5" stroke-miterlimit="10"/>
<path d="M36.4023 33V41" stroke="#DDDDDD" stroke-width="0.5" stroke-miterlimit="10"/>
<path d="M40.4023 33V41" stroke="#DDDDDD" stroke-width="0.5" stroke-miterlimit="10"/>
<path d="M44.4023 33V41" stroke="#DDDDDD" stroke-width="0.5" stroke-miterlimit="10"/>
<path d="M48.4023 33V41" stroke="#DDDDDD" stroke-width="0.5" stroke-miterlimit="10"/>
<path d="M52.4023 33V41" stroke="#DDDDDD" stroke-width="0.5" stroke-miterlimit="10"/>
<path d="M56.4023 33V41" stroke="#DDDDDD" stroke-width="0.5" stroke-miterlimit="10"/>
<path d="M60.4023 33V41" stroke="#DDDDDD" stroke-width="0.5" stroke-miterlimit="10"/>
<path d="M64.4023 33V41" stroke="#DDDDDD" stroke-width="0.5" stroke-miterlimit="10"/>
<path d="M68.4023 33V41" stroke="#DDDDDD" stroke-width="0.5" stroke-miterlimit="10"/>
<path d="M72.4023 33V41" stroke="#DDDDDD" stroke-width="0.5" stroke-miterlimit="10"/>
<path d="M76.4023 33V41" stroke="#DDDDDD" stroke-width="0.5" stroke-miterlimit="10"/>
<path d="M80.4023 33V41" stroke="#DDDDDD" stroke-width="0.5" stroke-miterlimit="10"/>
<path d="M84.4023 33V41" stroke="#DDDDDD" stroke-width="0.5" stroke-miterlimit="10"/>
<path d="M88.4023 33V41" stroke="#DDDDDD" stroke-width="0.5" stroke-miterlimit="10"/>
<path d="M92.4023 33V41" stroke="#DDDDDD" stroke-width="0.5" stroke-miterlimit="10"/>
<path d="M96.4023 33V41" stroke="#DDDDDD" stroke-width="0.5" stroke-miterlimit="10"/>
<path d="M100.402 33V41" stroke="#DDDDDD" stroke-width="0.5" stroke-miterlimit="10"/>
<path d="M104.402 33V41" stroke="#DDDDDD" stroke-width="0.5" stroke-miterlimit="10"/>
<path d="M108.402 33V41" stroke="#DDDDDD" stroke-width="0.5" stroke-miterlimit="10"/>
<path d="M112.402 33V41" stroke="#DDDDDD" stroke-width="0.5" stroke-miterlimit="10"/>
<path d="M116.402 33V41" stroke="#DDDDDD" stroke-width="0.5" stroke-miterlimit="10"/>
<path d="M1.80078 57H119.201" stroke="#DDDDDD" stroke-width="0.5" stroke-miterlimit="10"/>
<path d="M1.80078 65H119.201" stroke="#DDDDDD" stroke-width="0.5" stroke-miterlimit="10"/>
<path d="M4.40234 57V65" stroke="#DDDDDD" stroke-width="0.5" stroke-miterlimit="10"/>
<path d="M8.40234 57V65" stroke="#DDDDDD" stroke-width="0.5" stroke-miterlimit="10"/>
<path d="M12.4023 57V65" stroke="#DDDDDD" stroke-width="0.5" stroke-miterlimit="10"/>
<path d="M16.4023 57V65" stroke="#DDDDDD" stroke-width="0.5" stroke-miterlimit="10"/>
<path d="M20.4023 57V65" stroke="#DDDDDD" stroke-width="0.5" stroke-miterlimit="10"/>
<path d="M24.4023 57V65" stroke="#DDDDDD" stroke-width="0.5" stroke-miterlimit="10"/>
<path d="M28.4023 57V65" stroke="#DDDDDD" stroke-width="0.5" stroke-miterlimit="10"/>
<path d="M32.4023 57V65" stroke="#DDDDDD" stroke-width="0.5" stroke-miterlimit="10"/>
<path d="M36.4023 57V65" stroke="#DDDDDD" stroke-width="0.5" stroke-miterlimit="10"/>
<path d="M40.4023 57V65" stroke="#DDDDDD" stroke-width="0.5" stroke-miterlimit="10"/>
<path d="M44.4023 57V65" stroke="#DDDDDD" stroke-width="0.5" stroke-miterlimit="10"/>
<path d="M48.4023 57V65" stroke="#DDDDDD" stroke-width="0.5" stroke-miterlimit="10"/>
<path d="M52.4023 57V65" stroke="#DDDDDD" stroke-width="0.5" stroke-miterlimit="10"/>
<path d="M56.4023 57V65" stroke="#DDDDDD" stroke-width="0.5" stroke-miterlimit="10"/>
<path d="M60.4023 57V65" stroke="#DDDDDD" stroke-width="0.5" stroke-miterlimit="10"/>
<path d="M64.4023 57V65" stroke="#DDDDDD" stroke-width="0.5" stroke-miterlimit="10"/>
<path d="M68.4023 57V65" stroke="#DDDDDD" stroke-width="0.5" stroke-miterlimit="10"/>
<path d="M72.4023 57V65" stroke="#DDDDDD" stroke-width="0.5" stroke-miterlimit="10"/>
<path d="M76.4023 57V65" stroke="#DDDDDD" stroke-width="0.5" stroke-miterlimit="10"/>
<path d="M80.4023 57V65" stroke="#DDDDDD" stroke-width="0.5" stroke-miterlimit="10"/>
<path d="M84.4023 57V65" stroke="#DDDDDD" stroke-width="0.5" stroke-miterlimit="10"/>
<path d="M88.4023 57V65" stroke="#DDDDDD" stroke-width="0.5" stroke-miterlimit="10"/>
<path d="M92.4023 57V65" stroke="#DDDDDD" stroke-width="0.5" stroke-miterlimit="10"/>
<path d="M96.4023 57V65" stroke="#DDDDDD" stroke-width="0.5" stroke-miterlimit="10"/>
<path d="M100.402 57V65" stroke="#DDDDDD" stroke-width="0.5" stroke-miterlimit="10"/>
<path d="M104.402 57V65" stroke="#DDDDDD" stroke-width="0.5" stroke-miterlimit="10"/>
<path d="M108.402 57V65" stroke="#DDDDDD" stroke-width="0.5" stroke-miterlimit="10"/>
<path d="M112.402 57V65" stroke="#DDDDDD" stroke-width="0.5" stroke-miterlimit="10"/>
<path d="M116.402 57V65" stroke="#DDDDDD" stroke-width="0.5" stroke-miterlimit="10"/>
<path d="M6.80078 69H124.201" stroke="#DDDDDD" stroke-width="0.5" stroke-miterlimit="10"/>
<path d="M6.80078 77H124.201" stroke="#DDDDDD" stroke-width="0.5" stroke-miterlimit="10"/>
<path d="M9.40234 69V77" stroke="#DDDDDD" stroke-width="0.5" stroke-miterlimit="10"/>
<path d="M13.4023 69V77" stroke="#DDDDDD" stroke-width="0.5" stroke-miterlimit="10"/>
<path d="M17.4023 69V77" stroke="#DDDDDD" stroke-width="0.5" stroke-miterlimit="10"/>
<path d="M21.4023 69V77" stroke="#DDDDDD" stroke-width="0.5" stroke-miterlimit="10"/>
<path d="M25.4023 69V77" stroke="#DDDDDD" stroke-width="0.5" stroke-miterlimit="10"/>
<path d="M29.4023 69V77" stroke="#DDDDDD" stroke-width="0.5" stroke-miterlimit="10"/>
<path d="M33.4023 69V77" stroke="#DDDDDD" stroke-width="0.5" stroke-miterlimit="10"/>
<path d="M37.4023 69V77" stroke="#DDDDDD" stroke-width="0.5" stroke-miterlimit="10"/>
<path d="M41.4023 69V77" stroke="#DDDDDD" stroke-width="0.5" stroke-miterlimit="10"/>
<path d="M45.4023 69V77" stroke="#DDDDDD" stroke-width="0.5" stroke-miterlimit="10"/>
<path d="M49.4023 69V77" stroke="#DDDDDD" stroke-width="0.5" stroke-miterlimit="10"/>
<path d="M53.4023 69V77" stroke="#DDDDDD" stroke-width="0.5" stroke-miterlimit="10"/>
<path d="M57.4023 69V77" stroke="#DDDDDD" stroke-width="0.5" stroke-miterlimit="10"/>
<path d="M61.4023 69V77" stroke="#DDDDDD" stroke-width="0.5" stroke-miterlimit="10"/>
<path d="M65.4023 69V77" stroke="#DDDDDD" stroke-width="0.5" stroke-miterlimit="10"/>
<path d="M69.4023 69V77" stroke="#DDDDDD" stroke-width="0.5" stroke-miterlimit="10"/>
<path d="M73.4023 69V77" stroke="#DDDDDD" stroke-width="0.5" stroke-miterlimit="10"/>
<path d="M77.4023 69V77" stroke="#DDDDDD" stroke-width="0.5" stroke-miterlimit="10"/>
<path d="M81.4023 69V77" stroke="#DDDDDD" stroke-width="0.5" stroke-miterlimit="10"/>
<path d="M85.4023 69V77" stroke="#DDDDDD" stroke-width="0.5" stroke-miterlimit="10"/>
<path d="M89.4023 69V77" stroke="#DDDDDD" stroke-width="0.5" stroke-miterlimit="10"/>
<path d="M93.4023 69V77" stroke="#DDDDDD" stroke-width="0.5" stroke-miterlimit="10"/>
<path d="M97.4023 69V77" stroke="#DDDDDD" stroke-width="0.5" stroke-miterlimit="10"/>
<path d="M101.402 69V77" stroke="#DDDDDD" stroke-width="0.5" stroke-miterlimit="10"/>
<path d="M105.402 69V77" stroke="#DDDDDD" stroke-width="0.5" stroke-miterlimit="10"/>
<path d="M109.402 69V77" stroke="#DDDDDD" stroke-width="0.5" stroke-miterlimit="10"/>
<path d="M113.402 69V77" stroke="#DDDDDD" stroke-width="0.5" stroke-miterlimit="10"/>
<path d="M117.402 69V77" stroke="#DDDDDD" stroke-width="0.5" stroke-miterlimit="10"/>
<path d="M121.402 69V77" stroke="#DDDDDD" stroke-width="0.5" stroke-miterlimit="10"/>
<path d="M1.80078 81H119.201" stroke="#DDDDDD" stroke-width="0.5" stroke-miterlimit="10"/>
<path d="M1.80078 89H119.201" stroke="#DDDDDD" stroke-width="0.5" stroke-miterlimit="10"/>
<path d="M4.40234 81V89" stroke="#DDDDDD" stroke-width="0.5" stroke-miterlimit="10"/>
<path d="M8.40234 81V89" stroke="#DDDDDD" stroke-width="0.5" stroke-miterlimit="10"/>
<path d="M12.4023 81V89" stroke="#DDDDDD" stroke-width="0.5" stroke-miterlimit="10"/>
<path d="M16.4023 81V89" stroke="#DDDDDD" stroke-width="0.5" stroke-miterlimit="10"/>
<path d="M20.4023 81V89" stroke="#DDDDDD" stroke-width="0.5" stroke-miterlimit="10"/>
<path d="M24.4023 81V89" stroke="#DDDDDD" stroke-width="0.5" stroke-miterlimit="10"/>
<path d="M28.4023 81V89" stroke="#DDDDDD" stroke-width="0.5" stroke-miterlimit="10"/>
<path d="M32.4023 81V89" stroke="#DDDDDD" stroke-width="0.5" stroke-miterlimit="10"/>
<path d="M36.4023 81V89" stroke="#DDDDDD" stroke-width="0.5" stroke-miterlimit="10"/>
<path d="M40.4023 81V89" stroke="#DDDDDD" stroke-width="0.5" stroke-miterlimit="10"/>
<path d="M44.4023 81V89" stroke="#DDDDDD" stroke-width="0.5" stroke-miterlimit="10"/>
<path d="M48.4023 81V89" stroke="#DDDDDD" stroke-width="0.5" stroke-miterlimit="10"/>
<path d="M52.4023 81V89" stroke="#DDDDDD" stroke-width="0.5" stroke-miterlimit="10"/>
<path d="M56.4023 81V89" stroke="#DDDDDD" stroke-width="0.5" stroke-miterlimit="10"/>
<path d="M60.4023 81V89" stroke="#DDDDDD" stroke-width="0.5" stroke-miterlimit="10"/>
<path d="M64.4023 81V89" stroke="#DDDDDD" stroke-width="0.5" stroke-miterlimit="10"/>
<path d="M68.4023 81V89" stroke="#DDDDDD" stroke-width="0.5" stroke-miterlimit="10"/>
<path d="M72.4023 81V89" stroke="#DDDDDD" stroke-width="0.5" stroke-miterlimit="10"/>
<path d="M76.4023 81V89" stroke="#DDDDDD" stroke-width="0.5" stroke-miterlimit="10"/>
<path d="M80.4023 81V89" stroke="#DDDDDD" stroke-width="0.5" stroke-miterlimit="10"/>
<path d="M84.4023 81V89" stroke="#DDDDDD" stroke-width="0.5" stroke-miterlimit="10"/>
<path d="M88.4023 81V89" stroke="#DDDDDD" stroke-width="0.5" stroke-miterlimit="10"/>
<path d="M92.4023 81V89" stroke="#DDDDDD" stroke-width="0.5" stroke-miterlimit="10"/>
<path d="M96.4023 81V89" stroke="#DDDDDD" stroke-width="0.5" stroke-miterlimit="10"/>
<path d="M100.402 81V89" stroke="#DDDDDD" stroke-width="0.5" stroke-miterlimit="10"/>
<path d="M104.402 81V89" stroke="#DDDDDD" stroke-width="0.5" stroke-miterlimit="10"/>
<path d="M108.402 81V89" stroke="#DDDDDD" stroke-width="0.5" stroke-miterlimit="10"/>
<path d="M112.402 81V89" stroke="#DDDDDD" stroke-width="0.5" stroke-miterlimit="10"/>
<path d="M116.402 81V89" stroke="#DDDDDD" stroke-width="0.5" stroke-miterlimit="10"/>
<path d="M6.80078 45H124.201" stroke="#DDDDDD" stroke-width="0.5" stroke-miterlimit="10"/>
<path d="M6.80078 53H124.201" stroke="#DDDDDD" stroke-width="0.5" stroke-miterlimit="10"/>
<path d="M9.40234 45V53" stroke="#DDDDDD" stroke-width="0.5" stroke-miterlimit="10"/>
<path d="M13.4023 45V53" stroke="#DDDDDD" stroke-width="0.5" stroke-miterlimit="10"/>
<path d="M17.4023 45V53" stroke="#DDDDDD" stroke-width="0.5" stroke-miterlimit="10"/>
<path d="M21.4023 45V53" stroke="#DDDDDD" stroke-width="0.5" stroke-miterlimit="10"/>
<path d="M25.4023 45V53" stroke="#DDDDDD" stroke-width="0.5" stroke-miterlimit="10"/>
<path d="M29.4023 45V53" stroke="#DDDDDD" stroke-width="0.5" stroke-miterlimit="10"/>
<path d="M33.4023 45V53" stroke="#DDDDDD" stroke-width="0.5" stroke-miterlimit="10"/>
<path d="M37.4023 45V53" stroke="#DDDDDD" stroke-width="0.5" stroke-miterlimit="10"/>
<path d="M41.4023 45V53" stroke="#DDDDDD" stroke-width="0.5" stroke-miterlimit="10"/>
<path d="M45.4023 45V53" stroke="#DDDDDD" stroke-width="0.5" stroke-miterlimit="10"/>
<path d="M49.4023 45V53" stroke="#DDDDDD" stroke-width="0.5" stroke-miterlimit="10"/>
<path d="M53.4023 45V53" stroke="#DDDDDD" stroke-width="0.5" stroke-miterlimit="10"/>
<path d="M57.4023 45V53" stroke="#DDDDDD" stroke-width="0.5" stroke-miterlimit="10"/>
<path d="M61.4023 45V53" stroke="#DDDDDD" stroke-width="0.5" stroke-miterlimit="10"/>
<path d="M65.4023 45V53" stroke="#DDDDDD" stroke-width="0.5" stroke-miterlimit="10"/>
<path d="M69.4023 45V53" stroke="#DDDDDD" stroke-width="0.5" stroke-miterlimit="10"/>
<path d="M73.4023 45V53" stroke="#DDDDDD" stroke-width="0.5" stroke-miterlimit="10"/>
<path d="M77.4023 45V53" stroke="#DDDDDD" stroke-width="0.5" stroke-miterlimit="10"/>
<path d="M81.4023 45V53" stroke="#DDDDDD" stroke-width="0.5" stroke-miterlimit="10"/>
<path d="M85.4023 45V53" stroke="#DDDDDD" stroke-width="0.5" stroke-miterlimit="10"/>
<path d="M89.4023 45V53" stroke="#DDDDDD" stroke-width="0.5" stroke-miterlimit="10"/>
<path d="M93.4023 45V53" stroke="#DDDDDD" stroke-width="0.5" stroke-miterlimit="10"/>
<path d="M97.4023 45V53" stroke="#DDDDDD" stroke-width="0.5" stroke-miterlimit="10"/>
<path d="M101.402 45V53" stroke="#DDDDDD" stroke-width="0.5" stroke-miterlimit="10"/>
<path d="M105.402 45V53" stroke="#DDDDDD" stroke-width="0.5" stroke-miterlimit="10"/>
<path d="M109.402 45V53" stroke="#DDDDDD" stroke-width="0.5" stroke-miterlimit="10"/>
<path d="M113.402 45V53" stroke="#DDDDDD" stroke-width="0.5" stroke-miterlimit="10"/>
<path d="M117.402 45V53" stroke="#DDDDDD" stroke-width="0.5" stroke-miterlimit="10"/>
<path d="M121.402 45V53" stroke="#DDDDDD" stroke-width="0.5" stroke-miterlimit="10"/>
<path d="M124.9 26.9339V22.2727C124.9 20.2893 123.301 18.6033 121.203 18.6033H116.207C118.206 18.6033 119.904 17.0165 119.904 14.9339V10.6694C119.904 8.68595 118.305 7 116.207 7H5.69699C3.69862 7 2 8.58678 2 10.6694V15.3306C2 17.314 3.5987 19 5.69699 19H10.6929C8.69456 19 6.99594 20.5868 6.99594 22.6694V27.3306C6.99594 29.3141 8.59464 31 10.6929 31H5.69699C3.69862 31 2 32.5868 2 34.6694V39.3306C2 41.314 3.5987 43 5.69699 43H10.6929C8.69456 43 6.99594 44.5868 6.99594 46.6694V51.3306C6.99594 53.3141 8.59464 55 10.6929 55H5.69699C3.69862 55 2 56.5868 2 58.6694V63.3306C2 65.3141 3.5987 67 5.69699 67H10.6929C8.69456 67 6.99594 68.5868 6.99594 70.6694V75.3306C6.99594 77.3141 8.59464 79 10.6929 79H5.69699C3.69862 79 2 80.5868 2 82.6694V87.3306C2 89.3141 3.5987 91 5.69699 91H116.307C118.305 91 120.004 89.4132 120.004 87.3306V82.6694C120.004 80.686 118.405 79 116.307 79H121.303C123.301 79 125 77.4132 125 75.3306V70.6694C125 68.6859 123.401 67 121.303 67H116.307C118.305 67 120.004 65.4132 120.004 63.3306V58.6694C120.004 56.686 118.405 55 116.307 55H121.303C123.301 55 125 53.4132 125 51.3306V46.6694C125 44.686 123.401 43 121.303 43H116.307C118.305 43 120.004 41.4132 120.004 39.3306V34.6694C120.004 32.686 118.405 31 116.307 31H121.303C123.301 30.6033 124.9 29.0165 124.9 26.9339Z" stroke="#808080" stroke-miterlimit="10"/>
<path d="M84.6776 21.7483H89.8078L69.2141 59.8235H64.1325L84.6776 21.7483ZM54.4071 31.1091C54.4071 29.4558 54.7637 27.8835 55.4769 26.3922C56.2063 24.901 57.3085 23.7582 58.7835 22.964C60.2748 22.1535 62.0334 21.7483 64.0596 21.7483C67.0421 21.7483 69.3924 22.5993 71.1105 24.3013C72.8287 26.0032 73.6878 28.2725 73.6878 31.1091C73.6878 33.9619 72.8287 36.2393 71.1105 37.9412C69.3924 39.6432 67.0421 40.4942 64.0596 40.4942C62.0334 40.4942 60.2748 40.097 58.7835 39.3028C57.3085 38.4923 56.2063 37.3415 55.4769 35.8502C54.7637 34.359 54.4071 32.7786 54.4071 31.1091ZM61.2392 31.1577C61.2392 33.1676 61.5634 34.6265 62.2117 35.5342C62.6332 36.1339 63.2491 36.4338 64.0596 36.4338C64.87 36.4338 65.4779 36.1339 65.8831 35.5342C66.5315 34.6265 66.8557 33.1676 66.8557 31.1577C66.8557 29.164 66.5315 27.7052 65.8831 26.7812C65.4779 26.1977 64.87 25.906 64.0596 25.906C63.2491 25.906 62.6332 26.1977 62.2117 26.7812C61.5634 27.689 61.2392 29.1478 61.2392 31.1577ZM80.1066 50.3898C80.1066 48.7203 80.4632 47.148 81.1764 45.673C81.8896 44.1817 82.9918 43.0309 84.4831 42.2204C85.9743 41.41 87.7249 41.0047 89.7348 41.0047C92.7335 41.0047 95.0919 41.8638 96.8101 43.582C98.5283 45.284 99.3873 47.5532 99.3873 50.3898C99.3873 53.2264 98.5283 55.5038 96.8101 57.222C95.0919 58.9239 92.7335 59.7749 89.7348 59.7749C87.7249 59.7749 85.9743 59.3697 84.4831 58.5592C82.9918 57.7488 81.8896 56.606 81.1764 55.131C80.4632 53.6397 80.1066 52.0594 80.1066 50.3898ZM86.9387 50.4384C86.9387 52.4484 87.2629 53.9072 87.9113 54.8149C88.3165 55.3984 88.9244 55.6902 89.7348 55.6902C90.5453 55.6902 91.1612 55.3984 91.5827 54.8149C92.231 53.9072 92.5552 52.4484 92.5552 50.4384C92.5552 48.4285 92.231 46.9616 91.5827 46.0377C91.1612 45.4541 90.5453 45.1624 89.7348 45.1624C88.9244 45.1624 88.3165 45.4623 87.9113 46.062C87.2629 46.9697 86.9387 48.4285 86.9387 50.4384Z" fill="#A0A0A0"/>
<rect x="25" y="58" width="140" height="34" fill="#A0A0A0"/>
<path d="M46.0283 80.541V78.0537L52.1982 75.6279L46.0283 73.2285V70.7588L54.8701 74.582V76.6914L46.0283 80.541ZM67.7988 82H65.3291V72.6924C64.4268 73.5361 63.3633 74.1602 62.1387 74.5645V72.3232C62.7832 72.1123 63.4834 71.7139 64.2393 71.1279C64.9951 70.5361 65.5137 69.8477 65.7949 69.0625H67.7988V82ZM79.8398 79.7061V82H71.1826C71.2764 81.1328 71.5576 80.3125 72.0264 79.5391C72.4951 78.7598 73.4209 77.7285 74.8037 76.4453C75.917 75.4082 76.5996 74.7051 76.8516 74.3359C77.1914 73.8262 77.3613 73.3223 77.3613 72.8242C77.3613 72.2734 77.2119 71.8516 76.9131 71.5586C76.6201 71.2598 76.2129 71.1104 75.6914 71.1104C75.1758 71.1104 74.7656 71.2656 74.4609 71.5762C74.1562 71.8867 73.9805 72.4023 73.9336 73.123L71.4727 72.877C71.6191 71.5176 72.0791 70.542 72.8525 69.9502C73.626 69.3584 74.5928 69.0625 75.7529 69.0625C77.0244 69.0625 78.0234 69.4053 78.75 70.0908C79.4766 70.7764 79.8398 71.6289 79.8398 72.6484C79.8398 73.2285 79.7344 73.7822 79.5234 74.3096C79.3184 74.8311 78.9902 75.3789 78.5391 75.9531C78.2402 76.334 77.7012 76.8818 76.9219 77.5967C76.1426 78.3115 75.6475 78.7861 75.4365 79.0205C75.2314 79.2549 75.0645 79.4834 74.9355 79.7061H79.8398ZM85.6934 69.0625C86.9414 69.0625 87.917 69.5078 88.6201 70.3984C89.458 71.4531 89.877 73.2021 89.877 75.6455C89.877 78.083 89.4551 79.835 88.6113 80.9014C87.9141 81.7803 86.9414 82.2197 85.6934 82.2197C84.4395 82.2197 83.4287 81.7393 82.6611 80.7783C81.8936 79.8115 81.5098 78.0918 81.5098 75.6191C81.5098 73.1934 81.9316 71.4473 82.7754 70.3809C83.4727 69.502 84.4453 69.0625 85.6934 69.0625ZM85.6934 71.1104C85.3945 71.1104 85.1279 71.207 84.8936 71.4004C84.6592 71.5879 84.4775 71.9277 84.3486 72.4199C84.1787 73.0586 84.0938 74.1338 84.0938 75.6455C84.0938 77.1572 84.1699 78.1973 84.3223 78.7656C84.4746 79.3281 84.665 79.7031 84.8936 79.8906C85.1279 80.0781 85.3945 80.1719 85.6934 80.1719C85.9922 80.1719 86.2588 80.0781 86.4932 79.8906C86.7275 79.6973 86.9092 79.3545 87.0381 78.8623C87.208 78.2295 87.293 77.1572 87.293 75.6455C87.293 74.1338 87.2168 73.0967 87.0645 72.5342C86.9121 71.9658 86.7188 71.5879 86.4844 71.4004C86.2559 71.207 85.9922 71.1104 85.6934 71.1104ZM100.723 69.0625C101.971 69.0625 102.946 69.5078 103.649 70.3984C104.487 71.4531 104.906 73.2021 104.906 75.6455C104.906 78.083 104.484 79.835 103.641 80.9014C102.943 81.7803 101.971 82.2197 100.723 82.2197C99.4688 82.2197 98.458 81.7393 97.6904 80.7783C96.9229 79.8115 96.5391 78.0918 96.5391 75.6191C96.5391 73.1934 96.9609 71.4473 97.8047 70.3809C98.502 69.502 99.4746 69.0625 100.723 69.0625ZM100.723 71.1104C100.424 71.1104 100.157 71.207 99.9229 71.4004C99.6885 71.5879 99.5068 71.9277 99.3779 72.4199C99.208 73.0586 99.123 74.1338 99.123 75.6455C99.123 77.1572 99.1992 78.1973 99.3516 78.7656C99.5039 79.3281 99.6943 79.7031 99.9229 79.8906C100.157 80.0781 100.424 80.1719 100.723 80.1719C101.021 80.1719 101.288 80.0781 101.522 79.8906C101.757 79.6973 101.938 79.3545 102.067 78.8623C102.237 78.2295 102.322 77.1572 102.322 75.6455C102.322 74.1338 102.246 73.0967 102.094 72.5342C101.941 71.9658 101.748 71.5879 101.514 71.4004C101.285 71.207 101.021 71.1104 100.723 71.1104ZM110.742 69.0625C111.99 69.0625 112.966 69.5078 113.669 70.3984C114.507 71.4531 114.926 73.2021 114.926 75.6455C114.926 78.083 114.504 79.835 113.66 80.9014C112.963 81.7803 111.99 82.2197 110.742 82.2197C109.488 82.2197 108.478 81.7393 107.71 80.7783C106.942 79.8115 106.559 78.0918 106.559 75.6191C106.559 73.1934 106.98 71.4473 107.824 70.3809C108.521 69.502 109.494 69.0625 110.742 69.0625ZM110.742 71.1104C110.443 71.1104 110.177 71.207 109.942 71.4004C109.708 71.5879 109.526 71.9277 109.397 72.4199C109.228 73.0586 109.143 74.1338 109.143 75.6455C109.143 77.1572 109.219 78.1973 109.371 78.7656C109.523 79.3281 109.714 79.7031 109.942 79.8906C110.177 80.0781 110.443 80.1719 110.742 80.1719C111.041 80.1719 111.308 80.0781 111.542 79.8906C111.776 79.6973 111.958 79.3545 112.087 78.8623C112.257 78.2295 112.342 77.1572 112.342 75.6455C112.342 74.1338 112.266 73.0967 112.113 72.5342C111.961 71.9658 111.768 71.5879 111.533 71.4004C111.305 71.207 111.041 71.1104 110.742 71.1104ZM120.762 69.0625C122.01 69.0625 122.985 69.5078 123.688 70.3984C124.526 71.4531 124.945 73.2021 124.945 75.6455C124.945 78.083 124.523 79.835 123.68 80.9014C122.982 81.7803 122.01 82.2197 120.762 82.2197C119.508 82.2197 118.497 81.7393 117.729 80.7783C116.962 79.8115 116.578 78.0918 116.578 75.6191C116.578 73.1934 117 71.4473 117.844 70.3809C118.541 69.502 119.514 69.0625 120.762 69.0625ZM120.762 71.1104C120.463 71.1104 120.196 71.207 119.962 71.4004C119.728 71.5879 119.546 71.9277 119.417 72.4199C119.247 73.0586 119.162 74.1338 119.162 75.6455C119.162 77.1572 119.238 78.1973 119.391 78.7656C119.543 79.3281 119.733 79.7031 119.962 79.8906C120.196 80.0781 120.463 80.1719 120.762 80.1719C121.061 80.1719 121.327 80.0781 121.562 79.8906C121.796 79.6973 121.978 79.3545 122.106 78.8623C122.276 78.2295 122.361 77.1572 122.361 75.6455C122.361 74.1338 122.285 73.0967 122.133 72.5342C121.98 71.9658 121.787 71.5879 121.553 71.4004C121.324 71.207 121.061 71.1104 120.762 71.1104ZM133.228 77.014V78.202H131.248V80.056H133.228V82H135.802V80.056H140.374V78.202H135.802V77.014H138.646C139.996 77.014 141.058 76.654 141.85 75.952C142.642 75.25 143.038 74.332 143.038 73.198C143.038 72.064 142.642 71.164 141.85 70.462C141.058 69.76 139.996 69.4 138.646 69.4H133.228V75.16H131.248V77.014H133.228ZM135.802 71.668H138.304C139.618 71.668 140.428 72.28 140.428 73.414C140.428 74.512 139.618 75.16 138.304 75.16H135.802V71.668Z" fill="white"/>
<path d="M57.3984 49.334V58H24.6934C25.0475 54.724 26.11 51.625 27.8809 48.7031C29.6517 45.7591 33.1491 41.8633 38.373 37.0156C42.5788 33.0977 45.1576 30.4414 46.1094 29.0469C47.3932 27.1211 48.0352 25.2174 48.0352 23.3359C48.0352 21.2552 47.4707 19.6615 46.3418 18.5547C45.235 17.4258 43.6966 16.8613 41.7266 16.8613C39.7786 16.8613 38.2292 17.4479 37.0781 18.6211C35.9271 19.7943 35.263 21.7422 35.0859 24.4648L25.7891 23.5352C26.3424 18.3997 28.0801 14.7142 31.002 12.4785C33.9238 10.2428 37.5762 9.125 41.959 9.125C46.7624 9.125 50.5365 10.4199 53.2812 13.0098C56.026 15.5996 57.3984 18.8203 57.3984 22.6719C57.3984 24.8633 57 26.9551 56.2031 28.9473C55.4284 30.9173 54.1888 32.987 52.4844 35.1562C51.3555 36.5951 49.319 38.6647 46.375 41.3652C43.431 44.0658 41.5605 45.8587 40.7637 46.7441C39.9889 47.6296 39.3581 48.4928 38.8711 49.334H57.3984Z" fill="#A0A0A0"/>
</svg>
