<svg width="165" height="93" viewBox="0 0 165 93" fill="none" xmlns="http://www.w3.org/2000/svg">
<path d="M124.5 38.3V33.6C124.5 31.6 122.9 29.9 120.8 29.9H115.8C117.8 29.9 119.5 28.3 119.5 26.2V21.7C119.5 19.7 117.9 18 115.8 18H5.2C3.2 18 1.5 19.6 1.5 21.7V26.4C1.5 28.4 3.1 30.1 5.2 30.1H10.2C8.2 30.1 6.5 31.7 6.5 33.8V38.5C6.5 40.5 8.1 42.2 10.2 42.2H5.2C3.2 42.2 1.5 43.8 1.5 45.9V50.6C1.5 52.6 3.1 54.3 5.2 54.3H10.2C8.2 54.3 6.5 55.9 6.5 58V62.7C6.5 64.7 8.1 66.4 10.2 66.4H5.2C3.2 66.4 1.5 68 1.5 70.1V74.8C1.5 76.8 3.1 78.5 5.2 78.5H115.9C117.9 78.5 119.6 76.9 119.6 74.8V70.1C119.6 68.1 118 66.4 115.9 66.4H120.9C122.9 66.4 124.6 64.8 124.6 62.7V58C124.6 56 123 54.3 120.9 54.3H115.9C117.9 54.3 119.6 52.7 119.6 50.6V45.9C119.6 43.9 118 42.2 115.9 42.2H120.9C122.9 42 124.5 40.4 124.5 38.3Z" fill="white"/>
<path d="M121.203 42H10.6969C8.69856 42 7 40.4132 7 38.3306V33.6694C7 31.686 8.59865 30 10.6969 30H121.303C123.301 30 125 31.5868 125 33.6694V38.3306C124.9 40.4132 123.301 42 121.203 42Z" stroke="#DDDDDD" stroke-miterlimit="10"/>
<path d="M116.203 30H5.69687C3.69856 30 2 28.4 2 26.3V21.7C2 19.7 3.59865 18 5.69687 18H116.303C118.301 18 120 19.6 120 21.7V26.4C119.9 28.4 118.301 30 116.203 30Z" stroke="#DDDDDD" stroke-miterlimit="10"/>
<path d="M116.203 78H5.69687C3.69856 78 2 76.4132 2 74.3306V69.6694C2 67.6859 3.59865 66 5.69687 66H116.303C118.301 66 120 67.5868 120 69.6694V74.3306C119.9 76.4132 118.301 78 116.203 78Z" stroke="#DDDDDD" stroke-miterlimit="10"/>
<path d="M121.203 66H10.6969C8.69856 66 7 64.4132 7 62.3306V57.6694C7 55.6859 8.59865 54 10.6969 54H121.303C123.301 54 125 55.5868 125 57.6694V62.3306C124.9 64.4132 123.301 66 121.203 66Z" stroke="#DDDDDD" stroke-miterlimit="10"/>
<path d="M116.203 54H5.69687C3.69856 54 2 52.4132 2 50.3306V45.6694C2 43.686 3.59865 42 5.69687 42H116.303C118.301 42 120 43.5868 120 45.6694V50.3306C119.9 52.4132 118.301 54 116.203 54Z" stroke="#DDDDDD" stroke-miterlimit="10"/>
<path d="M1.80005 20H119.2" stroke="#DDDDDD" stroke-width="0.5" stroke-miterlimit="10"/>
<path d="M1.80005 28H119.2" stroke="#DDDDDD" stroke-width="0.5" stroke-miterlimit="10"/>
<path d="M4.3999 20V28" stroke="#DDDDDD" stroke-width="0.5" stroke-miterlimit="10"/>
<path d="M8.3999 20V28" stroke="#DDDDDD" stroke-width="0.5" stroke-miterlimit="10"/>
<path d="M12.3999 20V28" stroke="#DDDDDD" stroke-width="0.5" stroke-miterlimit="10"/>
<path d="M16.3999 20V28" stroke="#DDDDDD" stroke-width="0.5" stroke-miterlimit="10"/>
<path d="M20.3999 20V28" stroke="#DDDDDD" stroke-width="0.5" stroke-miterlimit="10"/>
<path d="M24.3999 20V28" stroke="#DDDDDD" stroke-width="0.5" stroke-miterlimit="10"/>
<path d="M28.3999 20V28" stroke="#DDDDDD" stroke-width="0.5" stroke-miterlimit="10"/>
<path d="M32.3999 20V28" stroke="#DDDDDD" stroke-width="0.5" stroke-miterlimit="10"/>
<path d="M36.3999 20V28" stroke="#DDDDDD" stroke-width="0.5" stroke-miterlimit="10"/>
<path d="M40.3999 20V28" stroke="#DDDDDD" stroke-width="0.5" stroke-miterlimit="10"/>
<path d="M44.3999 20V28" stroke="#DDDDDD" stroke-width="0.5" stroke-miterlimit="10"/>
<path d="M48.3999 20V28" stroke="#DDDDDD" stroke-width="0.5" stroke-miterlimit="10"/>
<path d="M52.3999 20V28" stroke="#DDDDDD" stroke-width="0.5" stroke-miterlimit="10"/>
<path d="M56.3999 20V28" stroke="#DDDDDD" stroke-width="0.5" stroke-miterlimit="10"/>
<path d="M60.3999 20V28" stroke="#DDDDDD" stroke-width="0.5" stroke-miterlimit="10"/>
<path d="M64.3999 20V28" stroke="#DDDDDD" stroke-width="0.5" stroke-miterlimit="10"/>
<path d="M68.3999 20V28" stroke="#DDDDDD" stroke-width="0.5" stroke-miterlimit="10"/>
<path d="M72.3999 20V28" stroke="#DDDDDD" stroke-width="0.5" stroke-miterlimit="10"/>
<path d="M76.3999 20V28" stroke="#DDDDDD" stroke-width="0.5" stroke-miterlimit="10"/>
<path d="M80.3999 20V28" stroke="#DDDDDD" stroke-width="0.5" stroke-miterlimit="10"/>
<path d="M84.3999 20V28" stroke="#DDDDDD" stroke-width="0.5" stroke-miterlimit="10"/>
<path d="M88.3999 20V28" stroke="#DDDDDD" stroke-width="0.5" stroke-miterlimit="10"/>
<path d="M92.3999 20V28" stroke="#DDDDDD" stroke-width="0.5" stroke-miterlimit="10"/>
<path d="M96.3999 20V28" stroke="#DDDDDD" stroke-width="0.5" stroke-miterlimit="10"/>
<path d="M100.4 20V28" stroke="#DDDDDD" stroke-width="0.5" stroke-miterlimit="10"/>
<path d="M104.4 20V28" stroke="#DDDDDD" stroke-width="0.5" stroke-miterlimit="10"/>
<path d="M108.4 20V28" stroke="#DDDDDD" stroke-width="0.5" stroke-miterlimit="10"/>
<path d="M112.4 20V28" stroke="#DDDDDD" stroke-width="0.5" stroke-miterlimit="10"/>
<path d="M116.4 20V28" stroke="#DDDDDD" stroke-width="0.5" stroke-miterlimit="10"/>
<path d="M6.80005 32H124.2" stroke="#DDDDDD" stroke-width="0.5" stroke-miterlimit="10"/>
<path d="M6.80005 40H124.2" stroke="#DDDDDD" stroke-width="0.5" stroke-miterlimit="10"/>
<path d="M9.3999 32V40" stroke="#DDDDDD" stroke-width="0.5" stroke-miterlimit="10"/>
<path d="M13.3999 32V40" stroke="#DDDDDD" stroke-width="0.5" stroke-miterlimit="10"/>
<path d="M17.3999 32V40" stroke="#DDDDDD" stroke-width="0.5" stroke-miterlimit="10"/>
<path d="M21.3999 32V40" stroke="#DDDDDD" stroke-width="0.5" stroke-miterlimit="10"/>
<path d="M25.3999 32V40" stroke="#DDDDDD" stroke-width="0.5" stroke-miterlimit="10"/>
<path d="M29.3999 32V40" stroke="#DDDDDD" stroke-width="0.5" stroke-miterlimit="10"/>
<path d="M33.3999 32V40" stroke="#DDDDDD" stroke-width="0.5" stroke-miterlimit="10"/>
<path d="M37.3999 32V40" stroke="#DDDDDD" stroke-width="0.5" stroke-miterlimit="10"/>
<path d="M41.3999 32V40" stroke="#DDDDDD" stroke-width="0.5" stroke-miterlimit="10"/>
<path d="M45.3999 32V40" stroke="#DDDDDD" stroke-width="0.5" stroke-miterlimit="10"/>
<path d="M49.3999 32V40" stroke="#DDDDDD" stroke-width="0.5" stroke-miterlimit="10"/>
<path d="M53.3999 32V40" stroke="#DDDDDD" stroke-width="0.5" stroke-miterlimit="10"/>
<path d="M57.3999 32V40" stroke="#DDDDDD" stroke-width="0.5" stroke-miterlimit="10"/>
<path d="M61.3999 32V40" stroke="#DDDDDD" stroke-width="0.5" stroke-miterlimit="10"/>
<path d="M65.3999 32V40" stroke="#DDDDDD" stroke-width="0.5" stroke-miterlimit="10"/>
<path d="M69.3999 32V40" stroke="#DDDDDD" stroke-width="0.5" stroke-miterlimit="10"/>
<path d="M73.3999 32V40" stroke="#DDDDDD" stroke-width="0.5" stroke-miterlimit="10"/>
<path d="M77.3999 32V40" stroke="#DDDDDD" stroke-width="0.5" stroke-miterlimit="10"/>
<path d="M81.3999 32V40" stroke="#DDDDDD" stroke-width="0.5" stroke-miterlimit="10"/>
<path d="M85.3999 32V40" stroke="#DDDDDD" stroke-width="0.5" stroke-miterlimit="10"/>
<path d="M89.3999 32V40" stroke="#DDDDDD" stroke-width="0.5" stroke-miterlimit="10"/>
<path d="M93.3999 32V40" stroke="#DDDDDD" stroke-width="0.5" stroke-miterlimit="10"/>
<path d="M97.3999 32V40" stroke="#DDDDDD" stroke-width="0.5" stroke-miterlimit="10"/>
<path d="M101.4 32V40" stroke="#DDDDDD" stroke-width="0.5" stroke-miterlimit="10"/>
<path d="M105.4 32V40" stroke="#DDDDDD" stroke-width="0.5" stroke-miterlimit="10"/>
<path d="M109.4 32V40" stroke="#DDDDDD" stroke-width="0.5" stroke-miterlimit="10"/>
<path d="M113.4 32V40" stroke="#DDDDDD" stroke-width="0.5" stroke-miterlimit="10"/>
<path d="M117.4 32V40" stroke="#DDDDDD" stroke-width="0.5" stroke-miterlimit="10"/>
<path d="M121.4 32V40" stroke="#DDDDDD" stroke-width="0.5" stroke-miterlimit="10"/>
<path d="M1.80005 44H119.2" stroke="#DDDDDD" stroke-width="0.5" stroke-miterlimit="10"/>
<path d="M1.80005 52H119.2" stroke="#DDDDDD" stroke-width="0.5" stroke-miterlimit="10"/>
<path d="M1.80005 68H119.2" stroke="#DDDDDD" stroke-width="0.5" stroke-miterlimit="10"/>
<path d="M1.80005 76H119.2" stroke="#DDDDDD" stroke-width="0.5" stroke-miterlimit="10"/>
<path d="M4.3999 68V76" stroke="#DDDDDD" stroke-width="0.5" stroke-miterlimit="10"/>
<path d="M8.3999 68V76" stroke="#DDDDDD" stroke-width="0.5" stroke-miterlimit="10"/>
<path d="M12.3999 68V76" stroke="#DDDDDD" stroke-width="0.5" stroke-miterlimit="10"/>
<path d="M16.3999 68V76" stroke="#DDDDDD" stroke-width="0.5" stroke-miterlimit="10"/>
<path d="M20.3999 68V76" stroke="#DDDDDD" stroke-width="0.5" stroke-miterlimit="10"/>
<path d="M24.3999 68V76" stroke="#DDDDDD" stroke-width="0.5" stroke-miterlimit="10"/>
<path d="M28.3999 68V76" stroke="#DDDDDD" stroke-width="0.5" stroke-miterlimit="10"/>
<path d="M32.3999 68V76" stroke="#DDDDDD" stroke-width="0.5" stroke-miterlimit="10"/>
<path d="M36.3999 68V76" stroke="#DDDDDD" stroke-width="0.5" stroke-miterlimit="10"/>
<path d="M40.3999 68V76" stroke="#DDDDDD" stroke-width="0.5" stroke-miterlimit="10"/>
<path d="M44.3999 68V76" stroke="#DDDDDD" stroke-width="0.5" stroke-miterlimit="10"/>
<path d="M48.3999 68V76" stroke="#DDDDDD" stroke-width="0.5" stroke-miterlimit="10"/>
<path d="M52.3999 68V76" stroke="#DDDDDD" stroke-width="0.5" stroke-miterlimit="10"/>
<path d="M56.3999 68V76" stroke="#DDDDDD" stroke-width="0.5" stroke-miterlimit="10"/>
<path d="M60.3999 68V76" stroke="#DDDDDD" stroke-width="0.5" stroke-miterlimit="10"/>
<path d="M64.3999 68V76" stroke="#DDDDDD" stroke-width="0.5" stroke-miterlimit="10"/>
<path d="M68.3999 68V76" stroke="#DDDDDD" stroke-width="0.5" stroke-miterlimit="10"/>
<path d="M72.3999 68V76" stroke="#DDDDDD" stroke-width="0.5" stroke-miterlimit="10"/>
<path d="M76.3999 68V76" stroke="#DDDDDD" stroke-width="0.5" stroke-miterlimit="10"/>
<path d="M80.3999 68V76" stroke="#DDDDDD" stroke-width="0.5" stroke-miterlimit="10"/>
<path d="M84.3999 68V76" stroke="#DDDDDD" stroke-width="0.5" stroke-miterlimit="10"/>
<path d="M88.3999 68V76" stroke="#DDDDDD" stroke-width="0.5" stroke-miterlimit="10"/>
<path d="M92.3999 68V76" stroke="#DDDDDD" stroke-width="0.5" stroke-miterlimit="10"/>
<path d="M96.3999 68V76" stroke="#DDDDDD" stroke-width="0.5" stroke-miterlimit="10"/>
<path d="M100.4 68V76" stroke="#DDDDDD" stroke-width="0.5" stroke-miterlimit="10"/>
<path d="M104.4 68V76" stroke="#DDDDDD" stroke-width="0.5" stroke-miterlimit="10"/>
<path d="M108.4 68V76" stroke="#DDDDDD" stroke-width="0.5" stroke-miterlimit="10"/>
<path d="M112.4 68V76" stroke="#DDDDDD" stroke-width="0.5" stroke-miterlimit="10"/>
<path d="M116.4 68V76" stroke="#DDDDDD" stroke-width="0.5" stroke-miterlimit="10"/>
<path d="M6.80005 56H124.2" stroke="#DDDDDD" stroke-width="0.5" stroke-miterlimit="10"/>
<path d="M6.80005 64H124.2" stroke="#DDDDDD" stroke-width="0.5" stroke-miterlimit="10"/>
<path d="M9.3999 56V64" stroke="#DDDDDD" stroke-width="0.5" stroke-miterlimit="10"/>
<path d="M13.3999 56V64" stroke="#DDDDDD" stroke-width="0.5" stroke-miterlimit="10"/>
<path d="M17.3999 56V64" stroke="#DDDDDD" stroke-width="0.5" stroke-miterlimit="10"/>
<path d="M21.3999 56V64" stroke="#DDDDDD" stroke-width="0.5" stroke-miterlimit="10"/>
<path d="M25.3999 56V64" stroke="#DDDDDD" stroke-width="0.5" stroke-miterlimit="10"/>
<path d="M29.3999 56V64" stroke="#DDDDDD" stroke-width="0.5" stroke-miterlimit="10"/>
<path d="M33.3999 56V64" stroke="#DDDDDD" stroke-width="0.5" stroke-miterlimit="10"/>
<path d="M37.3999 56V64" stroke="#DDDDDD" stroke-width="0.5" stroke-miterlimit="10"/>
<path d="M41.3999 56V64" stroke="#DDDDDD" stroke-width="0.5" stroke-miterlimit="10"/>
<path d="M45.3999 56V64" stroke="#DDDDDD" stroke-width="0.5" stroke-miterlimit="10"/>
<path d="M49.3999 56V64" stroke="#DDDDDD" stroke-width="0.5" stroke-miterlimit="10"/>
<path d="M53.3999 56V64" stroke="#DDDDDD" stroke-width="0.5" stroke-miterlimit="10"/>
<path d="M57.3999 56V64" stroke="#DDDDDD" stroke-width="0.5" stroke-miterlimit="10"/>
<path d="M61.3999 56V64" stroke="#DDDDDD" stroke-width="0.5" stroke-miterlimit="10"/>
<path d="M65.3999 56V64" stroke="#DDDDDD" stroke-width="0.5" stroke-miterlimit="10"/>
<path d="M69.3999 56V64" stroke="#DDDDDD" stroke-width="0.5" stroke-miterlimit="10"/>
<path d="M73.3999 56V64" stroke="#DDDDDD" stroke-width="0.5" stroke-miterlimit="10"/>
<path d="M77.3999 56V64" stroke="#DDDDDD" stroke-width="0.5" stroke-miterlimit="10"/>
<path d="M81.3999 56V64" stroke="#DDDDDD" stroke-width="0.5" stroke-miterlimit="10"/>
<path d="M85.3999 56V64" stroke="#DDDDDD" stroke-width="0.5" stroke-miterlimit="10"/>
<path d="M89.3999 56V64" stroke="#DDDDDD" stroke-width="0.5" stroke-miterlimit="10"/>
<path d="M93.3999 56V64" stroke="#DDDDDD" stroke-width="0.5" stroke-miterlimit="10"/>
<path d="M97.3999 56V64" stroke="#DDDDDD" stroke-width="0.5" stroke-miterlimit="10"/>
<path d="M101.4 56V64" stroke="#DDDDDD" stroke-width="0.5" stroke-miterlimit="10"/>
<path d="M105.4 56V64" stroke="#DDDDDD" stroke-width="0.5" stroke-miterlimit="10"/>
<path d="M109.4 56V64" stroke="#DDDDDD" stroke-width="0.5" stroke-miterlimit="10"/>
<path d="M113.4 56V64" stroke="#DDDDDD" stroke-width="0.5" stroke-miterlimit="10"/>
<path d="M117.4 56V64" stroke="#DDDDDD" stroke-width="0.5" stroke-miterlimit="10"/>
<path d="M121.4 56V64" stroke="#DDDDDD" stroke-width="0.5" stroke-miterlimit="10"/>
<path d="M124.9 38.1322V33.4711C124.9 31.4876 123.301 29.8017 121.203 29.8017H116.207C118.206 29.8017 119.904 28.2149 119.904 26.1322V21.6694C119.904 19.686 118.305 18 116.207 18H5.69699C3.69862 18 2 19.5868 2 21.6694V26.3306C2 28.314 3.5987 30 5.69699 30H10.6929C8.69456 30 6.99594 31.5868 6.99594 33.6694V38.3306C6.99594 40.314 8.59464 42 10.6929 42H5.69699C3.69862 42 2 43.5868 2 45.6694V50.3306C2 52.314 3.5987 54 5.69699 54H10.6929C8.69456 54 6.99594 55.5868 6.99594 57.6694V62.3306C6.99594 64.314 8.59464 66 10.6929 66H5.69699C3.69862 66 2 67.5868 2 69.6694V74.3306C2 76.314 3.5987 78 5.69699 78H116.307C118.305 78 120.004 76.4132 120.004 74.3306V69.6694C120.004 67.6859 118.405 66 116.307 66H121.303C123.301 66 125 64.4132 125 62.3306V57.6694C125 55.6859 123.401 54 121.303 54H116.307C118.305 54 120.004 52.4132 120.004 50.3306V45.6694C120.004 43.6859 118.405 42 116.307 42H121.303C123.301 41.8017 124.9 40.2149 124.9 38.1322Z" stroke="#808080" stroke-miterlimit="10"/>
<path d="M4.3999 44V52" stroke="#DDDDDD" stroke-width="0.5" stroke-miterlimit="10"/>
<path d="M8.3999 44V52" stroke="#DDDDDD" stroke-width="0.5" stroke-miterlimit="10"/>
<path d="M12.3999 44V52" stroke="#DDDDDD" stroke-width="0.5" stroke-miterlimit="10"/>
<path d="M16.3999 44V52" stroke="#DDDDDD" stroke-width="0.5" stroke-miterlimit="10"/>
<path d="M20.3999 44V52" stroke="#DDDDDD" stroke-width="0.5" stroke-miterlimit="10"/>
<path d="M24.3999 44V52" stroke="#DDDDDD" stroke-width="0.5" stroke-miterlimit="10"/>
<path d="M28.3999 44V52" stroke="#DDDDDD" stroke-width="0.5" stroke-miterlimit="10"/>
<path d="M32.3999 44V52" stroke="#DDDDDD" stroke-width="0.5" stroke-miterlimit="10"/>
<path d="M36.3999 44V52" stroke="#DDDDDD" stroke-width="0.5" stroke-miterlimit="10"/>
<path d="M40.3999 44V52" stroke="#DDDDDD" stroke-width="0.5" stroke-miterlimit="10"/>
<path d="M44.3999 44V52" stroke="#DDDDDD" stroke-width="0.5" stroke-miterlimit="10"/>
<path d="M48.3999 44V52" stroke="#DDDDDD" stroke-width="0.5" stroke-miterlimit="10"/>
<path d="M52.3999 44V52" stroke="#DDDDDD" stroke-width="0.5" stroke-miterlimit="10"/>
<path d="M56.3999 44V52" stroke="#DDDDDD" stroke-width="0.5" stroke-miterlimit="10"/>
<path d="M60.3999 44V52" stroke="#DDDDDD" stroke-width="0.5" stroke-miterlimit="10"/>
<path d="M64.3999 44V52" stroke="#DDDDDD" stroke-width="0.5" stroke-miterlimit="10"/>
<path d="M68.3999 44V52" stroke="#DDDDDD" stroke-width="0.5" stroke-miterlimit="10"/>
<path d="M72.3999 44V52" stroke="#DDDDDD" stroke-width="0.5" stroke-miterlimit="10"/>
<path d="M76.3999 44V52" stroke="#DDDDDD" stroke-width="0.5" stroke-miterlimit="10"/>
<path d="M80.3999 44V52" stroke="#DDDDDD" stroke-width="0.5" stroke-miterlimit="10"/>
<path d="M84.3999 44V52" stroke="#DDDDDD" stroke-width="0.5" stroke-miterlimit="10"/>
<path d="M88.3999 44V52" stroke="#DDDDDD" stroke-width="0.5" stroke-miterlimit="10"/>
<path d="M92.3999 44V52" stroke="#DDDDDD" stroke-width="0.5" stroke-miterlimit="10"/>
<path d="M96.3999 44V52" stroke="#DDDDDD" stroke-width="0.5" stroke-miterlimit="10"/>
<path d="M100.4 44V52" stroke="#DDDDDD" stroke-width="0.5" stroke-miterlimit="10"/>
<path d="M104.4 44V52" stroke="#DDDDDD" stroke-width="0.5" stroke-miterlimit="10"/>
<path d="M108.4 44V52" stroke="#DDDDDD" stroke-width="0.5" stroke-miterlimit="10"/>
<path d="M112.4 44V52" stroke="#DDDDDD" stroke-width="0.5" stroke-miterlimit="10"/>
<path d="M116.4 44V52" stroke="#DDDDDD" stroke-width="0.5" stroke-miterlimit="10"/>
<path d="M95 93L81 79H165L95 93Z" fill="#620258"/>
<path d="M25 45H165V79H35L25 45Z" fill="#910583"/>
<path d="M51.0381 67.541V65.0537L57.208 62.6279L51.0381 60.2285V57.7588L59.8799 61.582V63.6914L51.0381 67.541ZM74.8564 59.2705L72.4658 59.5342C72.4072 59.042 72.2549 58.6787 72.0088 58.4443C71.7627 58.21 71.4434 58.0928 71.0508 58.0928C70.5293 58.0928 70.0869 58.3271 69.7236 58.7959C69.3662 59.2646 69.1406 60.2402 69.0469 61.7227C69.6621 60.9961 70.4268 60.6328 71.3408 60.6328C72.3721 60.6328 73.2539 61.0254 73.9863 61.8105C74.7246 62.5957 75.0938 63.6094 75.0938 64.8516C75.0938 66.1699 74.707 67.2275 73.9336 68.0244C73.1602 68.8213 72.167 69.2197 70.9541 69.2197C69.6533 69.2197 68.584 68.7158 67.7461 67.708C66.9082 66.6943 66.4893 65.0361 66.4893 62.7334C66.4893 60.3721 66.9258 58.6699 67.7988 57.627C68.6719 56.584 69.8057 56.0625 71.2002 56.0625C72.1787 56.0625 72.9873 56.3379 73.626 56.8887C74.2705 57.4336 74.6807 58.2275 74.8564 59.2705ZM69.2578 64.6582C69.2578 65.4609 69.4424 66.082 69.8115 66.5215C70.1807 66.9551 70.6025 67.1719 71.0771 67.1719C71.5342 67.1719 71.915 66.9932 72.2197 66.6357C72.5244 66.2783 72.6768 65.6924 72.6768 64.8779C72.6768 64.04 72.5127 63.4277 72.1846 63.041C71.8564 62.6484 71.4463 62.4521 70.9541 62.4521C70.4795 62.4521 70.0781 62.6396 69.75 63.0146C69.4219 63.3838 69.2578 63.9316 69.2578 64.6582ZM80.6836 56.0625C81.9316 56.0625 82.9072 56.5078 83.6104 57.3984C84.4482 58.4531 84.8672 60.2021 84.8672 62.6455C84.8672 65.083 84.4453 66.835 83.6016 67.9014C82.9043 68.7803 81.9316 69.2197 80.6836 69.2197C79.4297 69.2197 78.4189 68.7393 77.6514 67.7783C76.8838 66.8115 76.5 65.0918 76.5 62.6191C76.5 60.1934 76.9219 58.4473 77.7656 57.3809C78.4629 56.502 79.4355 56.0625 80.6836 56.0625ZM80.6836 58.1104C80.3848 58.1104 80.1182 58.207 79.8838 58.4004C79.6494 58.5879 79.4678 58.9277 79.3389 59.4199C79.1689 60.0586 79.084 61.1338 79.084 62.6455C79.084 64.1572 79.1602 65.1973 79.3125 65.7656C79.4648 66.3281 79.6553 66.7031 79.8838 66.8906C80.1182 67.0781 80.3848 67.1719 80.6836 67.1719C80.9824 67.1719 81.249 67.0781 81.4834 66.8906C81.7178 66.6973 81.8994 66.3545 82.0283 65.8623C82.1982 65.2295 82.2832 64.1572 82.2832 62.6455C82.2832 61.1338 82.207 60.0967 82.0547 59.5342C81.9023 58.9658 81.709 58.5879 81.4746 58.4004C81.2461 58.207 80.9824 58.1104 80.6836 58.1104ZM95.7129 56.0625C96.9609 56.0625 97.9365 56.5078 98.6396 57.3984C99.4775 58.4531 99.8965 60.2021 99.8965 62.6455C99.8965 65.083 99.4746 66.835 98.6309 67.9014C97.9336 68.7803 96.9609 69.2197 95.7129 69.2197C94.459 69.2197 93.4482 68.7393 92.6807 67.7783C91.9131 66.8115 91.5293 65.0918 91.5293 62.6191C91.5293 60.1934 91.9512 58.4473 92.7949 57.3809C93.4922 56.502 94.4648 56.0625 95.7129 56.0625ZM95.7129 58.1104C95.4141 58.1104 95.1475 58.207 94.9131 58.4004C94.6787 58.5879 94.4971 58.9277 94.3682 59.4199C94.1982 60.0586 94.1133 61.1338 94.1133 62.6455C94.1133 64.1572 94.1895 65.1973 94.3418 65.7656C94.4941 66.3281 94.6846 66.7031 94.9131 66.8906C95.1475 67.0781 95.4141 67.1719 95.7129 67.1719C96.0117 67.1719 96.2783 67.0781 96.5127 66.8906C96.7471 66.6973 96.9287 66.3545 97.0576 65.8623C97.2275 65.2295 97.3125 64.1572 97.3125 62.6455C97.3125 61.1338 97.2363 60.0967 97.084 59.5342C96.9316 58.9658 96.7383 58.5879 96.5039 58.4004C96.2754 58.207 96.0117 58.1104 95.7129 58.1104ZM105.732 56.0625C106.98 56.0625 107.956 56.5078 108.659 57.3984C109.497 58.4531 109.916 60.2021 109.916 62.6455C109.916 65.083 109.494 66.835 108.65 67.9014C107.953 68.7803 106.98 69.2197 105.732 69.2197C104.479 69.2197 103.468 68.7393 102.7 67.7783C101.933 66.8115 101.549 65.0918 101.549 62.6191C101.549 60.1934 101.971 58.4473 102.814 57.3809C103.512 56.502 104.484 56.0625 105.732 56.0625ZM105.732 58.1104C105.434 58.1104 105.167 58.207 104.933 58.4004C104.698 58.5879 104.517 58.9277 104.388 59.4199C104.218 60.0586 104.133 61.1338 104.133 62.6455C104.133 64.1572 104.209 65.1973 104.361 65.7656C104.514 66.3281 104.704 66.7031 104.933 66.8906C105.167 67.0781 105.434 67.1719 105.732 67.1719C106.031 67.1719 106.298 67.0781 106.532 66.8906C106.767 66.6973 106.948 66.3545 107.077 65.8623C107.247 65.2295 107.332 64.1572 107.332 62.6455C107.332 61.1338 107.256 60.0967 107.104 59.5342C106.951 58.9658 106.758 58.5879 106.523 58.4004C106.295 58.207 106.031 58.1104 105.732 58.1104ZM115.752 56.0625C117 56.0625 117.976 56.5078 118.679 57.3984C119.517 58.4531 119.936 60.2021 119.936 62.6455C119.936 65.083 119.514 66.835 118.67 67.9014C117.973 68.7803 117 69.2197 115.752 69.2197C114.498 69.2197 113.487 68.7393 112.72 67.7783C111.952 66.8115 111.568 65.0918 111.568 62.6191C111.568 60.1934 111.99 58.4473 112.834 57.3809C113.531 56.502 114.504 56.0625 115.752 56.0625ZM115.752 58.1104C115.453 58.1104 115.187 58.207 114.952 58.4004C114.718 58.5879 114.536 58.9277 114.407 59.4199C114.237 60.0586 114.152 61.1338 114.152 62.6455C114.152 64.1572 114.229 65.1973 114.381 65.7656C114.533 66.3281 114.724 66.7031 114.952 66.8906C115.187 67.0781 115.453 67.1719 115.752 67.1719C116.051 67.1719 116.317 67.0781 116.552 66.8906C116.786 66.6973 116.968 66.3545 117.097 65.8623C117.267 65.2295 117.352 64.1572 117.352 62.6455C117.352 61.1338 117.275 60.0967 117.123 59.5342C116.971 58.9658 116.777 58.5879 116.543 58.4004C116.314 58.207 116.051 58.1104 115.752 58.1104ZM128.218 64.014V65.202H126.238V67.056H128.218V69H130.792V67.056H135.364V65.202H130.792V64.014H133.636C134.986 64.014 136.048 63.654 136.84 62.952C137.632 62.25 138.028 61.332 138.028 60.198C138.028 59.064 137.632 58.164 136.84 57.462C136.048 56.76 134.986 56.4 133.636 56.4H128.218V62.16H126.238V64.014H128.218ZM130.792 58.668H133.294C134.608 58.668 135.418 59.28 135.418 60.414C135.418 61.512 134.608 62.16 133.294 62.16H130.792V58.668Z" fill="white"/>
<path d="M72.6776 8.85257H77.8078L57.2141 46.9278H52.1325L72.6776 8.85257ZM42.4071 18.2133C42.4071 16.56 42.7637 14.9877 43.4769 13.4965C44.2063 12.0052 45.3085 10.8625 46.7835 10.0683C48.2748 9.25779 50.0334 8.85257 52.0596 8.85257C55.0421 8.85257 57.3924 9.70355 59.1105 11.4055C60.8287 13.1075 61.6878 15.3767 61.6878 18.2133C61.6878 21.0661 60.8287 23.3435 59.1105 25.0455C57.3924 26.7474 55.0421 27.5984 52.0596 27.5984C50.0334 27.5984 48.2748 27.2013 46.7835 26.407C45.3085 25.5966 44.2063 24.4457 43.4769 22.9545C42.7637 21.4633 42.4071 19.8829 42.4071 18.2133ZM49.2392 18.262C49.2392 20.2719 49.5634 21.7307 50.2117 22.6384C50.6332 23.2382 51.2491 23.538 52.0596 23.538C52.87 23.538 53.4779 23.2382 53.8831 22.6384C54.5315 21.7307 54.8557 20.2719 54.8557 18.262C54.8557 16.2682 54.5315 14.8094 53.8831 13.8855C53.4779 13.302 52.87 13.0102 52.0596 13.0102C51.2491 13.0102 50.6332 13.302 50.2117 13.8855C49.5634 14.7932 49.2392 16.252 49.2392 18.262ZM68.1066 37.4941C68.1066 35.8245 68.4632 34.2522 69.1764 32.7772C69.8896 31.286 70.9918 30.1351 72.4831 29.3247C73.9743 28.5142 75.7249 28.109 77.7348 28.109C80.7335 28.109 83.0919 28.9681 84.8101 30.6862C86.5283 32.3882 87.3873 34.6575 87.3873 37.4941C87.3873 40.3307 86.5283 42.608 84.8101 44.3262C83.0919 46.0282 80.7335 46.8791 77.7348 46.8791C75.7249 46.8791 73.9743 46.4739 72.4831 45.6635C70.9918 44.853 69.8896 43.7103 69.1764 42.2352C68.4632 40.744 68.1066 39.1636 68.1066 37.4941ZM74.9387 37.5427C74.9387 39.5526 75.2629 41.0114 75.9113 41.9192C76.3165 42.5027 76.9244 42.7944 77.7348 42.7944C78.5453 42.7944 79.1612 42.5027 79.5827 41.9192C80.231 41.0114 80.5552 39.5526 80.5552 37.5427C80.5552 35.5328 80.231 34.0658 79.5827 33.1419C79.1612 32.5584 78.5453 32.2666 77.7348 32.2666C76.9244 32.2666 76.3165 32.5665 75.9113 33.1662C75.2629 34.0739 74.9387 35.5328 74.9387 37.5427Z" fill="#900583"/>
<path d="M42.6455 48H35.0991V19.5601C32.342 22.1382 29.0924 24.0449 25.3506 25.2803V18.4321C27.32 17.7876 29.4595 16.5701 31.769 14.7798C34.0786 12.9715 35.6631 10.8678 36.5225 8.46875H42.6455V48Z" fill="#900583"/>
</svg>
