<svg width="126" height="62" viewBox="0 0 126 62" fill="none" xmlns="http://www.w3.org/2000/svg">
<path d="M124.5 21.3V16.6C124.5 14.6 122.9 12.9 120.8 12.9H115.8C117.8 12.9 119.5 11.3 119.5 9.2V4.7C119.5 2.7 117.9 1 115.8 1H5.2C3.2 1 1.5 2.6 1.5 4.7V9.4C1.5 11.4 3.1 13.1 5.2 13.1H10.2C8.2 13.1 6.5 14.7 6.5 16.8V21.5C6.5 23.5 8.1 25.2 10.2 25.2H5.2C3.2 25.2 1.5 26.8 1.5 28.9V33.6C1.5 35.6 3.1 37.3 5.2 37.3H10.2C8.2 37.3 6.5 38.9 6.5 41V45.7C6.5 47.7 8.1 49.4 10.2 49.4H5.2C3.2 49.4 1.5 51 1.5 53.1V57.8C1.5 59.8 3.1 61.5 5.2 61.5H115.9C117.9 61.5 119.6 59.9 119.6 57.8V53.1C119.6 51.1 118 49.4 115.9 49.4H120.9C122.9 49.4 124.6 47.8 124.6 45.7V41C124.6 39 123 37.3 120.9 37.3H115.9C117.9 37.3 119.6 35.7 119.6 33.6V28.9C119.6 26.9 118 25.2 115.9 25.2H120.9C122.9 25 124.5 23.4 124.5 21.3Z" fill="white"/>
<path d="M121.203 25H10.6969C8.69856 25 7 23.4132 7 21.3306V16.6694C7 14.686 8.59865 13 10.6969 13H121.303C123.301 13 125 14.5868 125 16.6694V21.3306C124.9 23.4132 123.301 25 121.203 25Z" stroke="#DDDDDD" stroke-miterlimit="10"/>
<path d="M116.203 13H5.69687C3.69856 13 2 11.4 2 9.3V4.7C2 2.7 3.59865 1 5.69687 1H116.303C118.301 1 120 2.6 120 4.7V9.4C119.9 11.4 118.301 13 116.203 13Z" stroke="#DDDDDD" stroke-miterlimit="10"/>
<path d="M116.203 61H5.69687C3.69856 61 2 59.4132 2 57.3306V52.6694C2 50.6859 3.59865 49 5.69687 49H116.303C118.301 49 120 50.5868 120 52.6694V57.3306C119.9 59.4132 118.301 61 116.203 61Z" stroke="#DDDDDD" stroke-miterlimit="10"/>
<path d="M121.203 49H10.6969C8.69856 49 7 47.4132 7 45.3306V40.6694C7 38.6859 8.59865 37 10.6969 37H121.303C123.301 37 125 38.5868 125 40.6694V45.3306C124.9 47.4132 123.301 49 121.203 49Z" stroke="#DDDDDD" stroke-miterlimit="10"/>
<path d="M116.203 37H5.69687C3.69856 37 2 35.4132 2 33.3306V28.6694C2 26.686 3.59865 25 5.69687 25H116.303C118.301 25 120 26.5868 120 28.6694V33.3306C119.9 35.4132 118.301 37 116.203 37Z" stroke="#DDDDDD" stroke-miterlimit="10"/>
<path d="M1.80078 3H119.201" stroke="#DDDDDD" stroke-width="0.5" stroke-miterlimit="10"/>
<path d="M1.80078 11H119.201" stroke="#DDDDDD" stroke-width="0.5" stroke-miterlimit="10"/>
<path d="M4.39844 3V11" stroke="#DDDDDD" stroke-width="0.5" stroke-miterlimit="10"/>
<path d="M8.39844 3V11" stroke="#DDDDDD" stroke-width="0.5" stroke-miterlimit="10"/>
<path d="M12.3984 3V11" stroke="#DDDDDD" stroke-width="0.5" stroke-miterlimit="10"/>
<path d="M16.3984 3V11" stroke="#DDDDDD" stroke-width="0.5" stroke-miterlimit="10"/>
<path d="M20.3984 3V11" stroke="#DDDDDD" stroke-width="0.5" stroke-miterlimit="10"/>
<path d="M24.3984 3V11" stroke="#DDDDDD" stroke-width="0.5" stroke-miterlimit="10"/>
<path d="M28.3984 3V11" stroke="#DDDDDD" stroke-width="0.5" stroke-miterlimit="10"/>
<path d="M32.3984 3V11" stroke="#DDDDDD" stroke-width="0.5" stroke-miterlimit="10"/>
<path d="M36.3984 3V11" stroke="#DDDDDD" stroke-width="0.5" stroke-miterlimit="10"/>
<path d="M40.3984 3V11" stroke="#DDDDDD" stroke-width="0.5" stroke-miterlimit="10"/>
<path d="M44.3984 3V11" stroke="#DDDDDD" stroke-width="0.5" stroke-miterlimit="10"/>
<path d="M48.3984 3V11" stroke="#DDDDDD" stroke-width="0.5" stroke-miterlimit="10"/>
<path d="M52.3984 3V11" stroke="#DDDDDD" stroke-width="0.5" stroke-miterlimit="10"/>
<path d="M56.3984 3V11" stroke="#DDDDDD" stroke-width="0.5" stroke-miterlimit="10"/>
<path d="M60.3984 3V11" stroke="#DDDDDD" stroke-width="0.5" stroke-miterlimit="10"/>
<path d="M64.3984 3V11" stroke="#DDDDDD" stroke-width="0.5" stroke-miterlimit="10"/>
<path d="M68.3984 3V11" stroke="#DDDDDD" stroke-width="0.5" stroke-miterlimit="10"/>
<path d="M72.3984 3V11" stroke="#DDDDDD" stroke-width="0.5" stroke-miterlimit="10"/>
<path d="M76.3984 3V11" stroke="#DDDDDD" stroke-width="0.5" stroke-miterlimit="10"/>
<path d="M80.3984 3V11" stroke="#DDDDDD" stroke-width="0.5" stroke-miterlimit="10"/>
<path d="M84.3984 3V11" stroke="#DDDDDD" stroke-width="0.5" stroke-miterlimit="10"/>
<path d="M88.3984 3V11" stroke="#DDDDDD" stroke-width="0.5" stroke-miterlimit="10"/>
<path d="M92.3984 3V11" stroke="#DDDDDD" stroke-width="0.5" stroke-miterlimit="10"/>
<path d="M96.3984 3V11" stroke="#DDDDDD" stroke-width="0.5" stroke-miterlimit="10"/>
<path d="M100.398 3V11" stroke="#DDDDDD" stroke-width="0.5" stroke-miterlimit="10"/>
<path d="M104.398 3V11" stroke="#DDDDDD" stroke-width="0.5" stroke-miterlimit="10"/>
<path d="M108.398 3V11" stroke="#DDDDDD" stroke-width="0.5" stroke-miterlimit="10"/>
<path d="M112.398 3V11" stroke="#DDDDDD" stroke-width="0.5" stroke-miterlimit="10"/>
<path d="M116.398 3V11" stroke="#DDDDDD" stroke-width="0.5" stroke-miterlimit="10"/>
<path d="M6.80078 15H124.201" stroke="#DDDDDD" stroke-width="0.5" stroke-miterlimit="10"/>
<path d="M6.80078 23H124.201" stroke="#DDDDDD" stroke-width="0.5" stroke-miterlimit="10"/>
<path d="M9.39844 15V23" stroke="#DDDDDD" stroke-width="0.5" stroke-miterlimit="10"/>
<path d="M13.3984 15V23" stroke="#DDDDDD" stroke-width="0.5" stroke-miterlimit="10"/>
<path d="M17.3984 15V23" stroke="#DDDDDD" stroke-width="0.5" stroke-miterlimit="10"/>
<path d="M21.3984 15V23" stroke="#DDDDDD" stroke-width="0.5" stroke-miterlimit="10"/>
<path d="M25.3984 15V23" stroke="#DDDDDD" stroke-width="0.5" stroke-miterlimit="10"/>
<path d="M29.3984 15V23" stroke="#DDDDDD" stroke-width="0.5" stroke-miterlimit="10"/>
<path d="M33.3984 15V23" stroke="#DDDDDD" stroke-width="0.5" stroke-miterlimit="10"/>
<path d="M37.3984 15V23" stroke="#DDDDDD" stroke-width="0.5" stroke-miterlimit="10"/>
<path d="M41.3984 15V23" stroke="#DDDDDD" stroke-width="0.5" stroke-miterlimit="10"/>
<path d="M45.3984 15V23" stroke="#DDDDDD" stroke-width="0.5" stroke-miterlimit="10"/>
<path d="M49.3984 15V23" stroke="#DDDDDD" stroke-width="0.5" stroke-miterlimit="10"/>
<path d="M53.3984 15V23" stroke="#DDDDDD" stroke-width="0.5" stroke-miterlimit="10"/>
<path d="M57.3984 15V23" stroke="#DDDDDD" stroke-width="0.5" stroke-miterlimit="10"/>
<path d="M61.3984 15V23" stroke="#DDDDDD" stroke-width="0.5" stroke-miterlimit="10"/>
<path d="M65.3984 15V23" stroke="#DDDDDD" stroke-width="0.5" stroke-miterlimit="10"/>
<path d="M69.3984 15V23" stroke="#DDDDDD" stroke-width="0.5" stroke-miterlimit="10"/>
<path d="M73.3984 15V23" stroke="#DDDDDD" stroke-width="0.5" stroke-miterlimit="10"/>
<path d="M77.3984 15V23" stroke="#DDDDDD" stroke-width="0.5" stroke-miterlimit="10"/>
<path d="M81.3984 15V23" stroke="#DDDDDD" stroke-width="0.5" stroke-miterlimit="10"/>
<path d="M85.3984 15V23" stroke="#DDDDDD" stroke-width="0.5" stroke-miterlimit="10"/>
<path d="M89.3984 15V23" stroke="#DDDDDD" stroke-width="0.5" stroke-miterlimit="10"/>
<path d="M93.3984 15V23" stroke="#DDDDDD" stroke-width="0.5" stroke-miterlimit="10"/>
<path d="M97.3984 15V23" stroke="#DDDDDD" stroke-width="0.5" stroke-miterlimit="10"/>
<path d="M101.398 15V23" stroke="#DDDDDD" stroke-width="0.5" stroke-miterlimit="10"/>
<path d="M105.398 15V23" stroke="#DDDDDD" stroke-width="0.5" stroke-miterlimit="10"/>
<path d="M109.398 15V23" stroke="#DDDDDD" stroke-width="0.5" stroke-miterlimit="10"/>
<path d="M113.398 15V23" stroke="#DDDDDD" stroke-width="0.5" stroke-miterlimit="10"/>
<path d="M117.398 15V23" stroke="#DDDDDD" stroke-width="0.5" stroke-miterlimit="10"/>
<path d="M121.398 15V23" stroke="#DDDDDD" stroke-width="0.5" stroke-miterlimit="10"/>
<path d="M1.80078 27H119.201" stroke="#DDDDDD" stroke-width="0.5" stroke-miterlimit="10"/>
<path d="M1.80078 35H119.201" stroke="#DDDDDD" stroke-width="0.5" stroke-miterlimit="10"/>
<path d="M1.80078 51H119.201" stroke="#DDDDDD" stroke-width="0.5" stroke-miterlimit="10"/>
<path d="M1.80078 59H119.201" stroke="#DDDDDD" stroke-width="0.5" stroke-miterlimit="10"/>
<path d="M4.39844 51V59" stroke="#DDDDDD" stroke-width="0.5" stroke-miterlimit="10"/>
<path d="M8.39844 51V59" stroke="#DDDDDD" stroke-width="0.5" stroke-miterlimit="10"/>
<path d="M12.3984 51V59" stroke="#DDDDDD" stroke-width="0.5" stroke-miterlimit="10"/>
<path d="M16.3984 51V59" stroke="#DDDDDD" stroke-width="0.5" stroke-miterlimit="10"/>
<path d="M20.3984 51V59" stroke="#DDDDDD" stroke-width="0.5" stroke-miterlimit="10"/>
<path d="M24.3984 51V59" stroke="#DDDDDD" stroke-width="0.5" stroke-miterlimit="10"/>
<path d="M28.3984 51V59" stroke="#DDDDDD" stroke-width="0.5" stroke-miterlimit="10"/>
<path d="M32.3984 51V59" stroke="#DDDDDD" stroke-width="0.5" stroke-miterlimit="10"/>
<path d="M36.3984 51V59" stroke="#DDDDDD" stroke-width="0.5" stroke-miterlimit="10"/>
<path d="M40.3984 51V59" stroke="#DDDDDD" stroke-width="0.5" stroke-miterlimit="10"/>
<path d="M44.3984 51V59" stroke="#DDDDDD" stroke-width="0.5" stroke-miterlimit="10"/>
<path d="M48.3984 51V59" stroke="#DDDDDD" stroke-width="0.5" stroke-miterlimit="10"/>
<path d="M52.3984 51V59" stroke="#DDDDDD" stroke-width="0.5" stroke-miterlimit="10"/>
<path d="M56.3984 51V59" stroke="#DDDDDD" stroke-width="0.5" stroke-miterlimit="10"/>
<path d="M60.3984 51V59" stroke="#DDDDDD" stroke-width="0.5" stroke-miterlimit="10"/>
<path d="M64.3984 51V59" stroke="#DDDDDD" stroke-width="0.5" stroke-miterlimit="10"/>
<path d="M68.3984 51V59" stroke="#DDDDDD" stroke-width="0.5" stroke-miterlimit="10"/>
<path d="M72.3984 51V59" stroke="#DDDDDD" stroke-width="0.5" stroke-miterlimit="10"/>
<path d="M76.3984 51V59" stroke="#DDDDDD" stroke-width="0.5" stroke-miterlimit="10"/>
<path d="M80.3984 51V59" stroke="#DDDDDD" stroke-width="0.5" stroke-miterlimit="10"/>
<path d="M84.3984 51V59" stroke="#DDDDDD" stroke-width="0.5" stroke-miterlimit="10"/>
<path d="M88.3984 51V59" stroke="#DDDDDD" stroke-width="0.5" stroke-miterlimit="10"/>
<path d="M92.3984 51V59" stroke="#DDDDDD" stroke-width="0.5" stroke-miterlimit="10"/>
<path d="M96.3984 51V59" stroke="#DDDDDD" stroke-width="0.5" stroke-miterlimit="10"/>
<path d="M100.398 51V59" stroke="#DDDDDD" stroke-width="0.5" stroke-miterlimit="10"/>
<path d="M104.398 51V59" stroke="#DDDDDD" stroke-width="0.5" stroke-miterlimit="10"/>
<path d="M108.398 51V59" stroke="#DDDDDD" stroke-width="0.5" stroke-miterlimit="10"/>
<path d="M112.398 51V59" stroke="#DDDDDD" stroke-width="0.5" stroke-miterlimit="10"/>
<path d="M116.398 51V59" stroke="#DDDDDD" stroke-width="0.5" stroke-miterlimit="10"/>
<path d="M6.80078 39H124.201" stroke="#DDDDDD" stroke-width="0.5" stroke-miterlimit="10"/>
<path d="M6.80078 47H124.201" stroke="#DDDDDD" stroke-width="0.5" stroke-miterlimit="10"/>
<path d="M9.39844 39V47" stroke="#DDDDDD" stroke-width="0.5" stroke-miterlimit="10"/>
<path d="M13.3984 39V47" stroke="#DDDDDD" stroke-width="0.5" stroke-miterlimit="10"/>
<path d="M17.3984 39V47" stroke="#DDDDDD" stroke-width="0.5" stroke-miterlimit="10"/>
<path d="M21.3984 39V47" stroke="#DDDDDD" stroke-width="0.5" stroke-miterlimit="10"/>
<path d="M25.3984 39V47" stroke="#DDDDDD" stroke-width="0.5" stroke-miterlimit="10"/>
<path d="M29.3984 39V47" stroke="#DDDDDD" stroke-width="0.5" stroke-miterlimit="10"/>
<path d="M33.3984 39V47" stroke="#DDDDDD" stroke-width="0.5" stroke-miterlimit="10"/>
<path d="M37.3984 39V47" stroke="#DDDDDD" stroke-width="0.5" stroke-miterlimit="10"/>
<path d="M41.3984 39V47" stroke="#DDDDDD" stroke-width="0.5" stroke-miterlimit="10"/>
<path d="M45.3984 39V47" stroke="#DDDDDD" stroke-width="0.5" stroke-miterlimit="10"/>
<path d="M49.3984 39V47" stroke="#DDDDDD" stroke-width="0.5" stroke-miterlimit="10"/>
<path d="M53.3984 39V47" stroke="#DDDDDD" stroke-width="0.5" stroke-miterlimit="10"/>
<path d="M57.3984 39V47" stroke="#DDDDDD" stroke-width="0.5" stroke-miterlimit="10"/>
<path d="M61.3984 39V47" stroke="#DDDDDD" stroke-width="0.5" stroke-miterlimit="10"/>
<path d="M65.3984 39V47" stroke="#DDDDDD" stroke-width="0.5" stroke-miterlimit="10"/>
<path d="M69.3984 39V47" stroke="#DDDDDD" stroke-width="0.5" stroke-miterlimit="10"/>
<path d="M73.3984 39V47" stroke="#DDDDDD" stroke-width="0.5" stroke-miterlimit="10"/>
<path d="M77.3984 39V47" stroke="#DDDDDD" stroke-width="0.5" stroke-miterlimit="10"/>
<path d="M81.3984 39V47" stroke="#DDDDDD" stroke-width="0.5" stroke-miterlimit="10"/>
<path d="M85.3984 39V47" stroke="#DDDDDD" stroke-width="0.5" stroke-miterlimit="10"/>
<path d="M89.3984 39V47" stroke="#DDDDDD" stroke-width="0.5" stroke-miterlimit="10"/>
<path d="M93.3984 39V47" stroke="#DDDDDD" stroke-width="0.5" stroke-miterlimit="10"/>
<path d="M97.3984 39V47" stroke="#DDDDDD" stroke-width="0.5" stroke-miterlimit="10"/>
<path d="M101.398 39V47" stroke="#DDDDDD" stroke-width="0.5" stroke-miterlimit="10"/>
<path d="M105.398 39V47" stroke="#DDDDDD" stroke-width="0.5" stroke-miterlimit="10"/>
<path d="M109.398 39V47" stroke="#DDDDDD" stroke-width="0.5" stroke-miterlimit="10"/>
<path d="M113.398 39V47" stroke="#DDDDDD" stroke-width="0.5" stroke-miterlimit="10"/>
<path d="M117.398 39V47" stroke="#DDDDDD" stroke-width="0.5" stroke-miterlimit="10"/>
<path d="M121.398 39V47" stroke="#DDDDDD" stroke-width="0.5" stroke-miterlimit="10"/>
<path d="M124.9 21.1322V16.4711C124.9 14.4876 123.301 12.8017 121.203 12.8017H116.207C118.206 12.8017 119.904 11.2149 119.904 9.13223V4.66942C119.904 2.68595 118.305 1 116.207 1H5.69699C3.69862 1 2 2.58678 2 4.66942V9.33058C2 11.314 3.5987 13 5.69699 13H10.6929C8.69456 13 6.99594 14.5868 6.99594 16.6694V21.3306C6.99594 23.314 8.59464 25 10.6929 25H5.69699C3.69862 25 2 26.5868 2 28.6694V33.3306C2 35.314 3.5987 37 5.69699 37H10.6929C8.69456 37 6.99594 38.5868 6.99594 40.6694V45.3306C6.99594 47.314 8.59464 49 10.6929 49H5.69699C3.69862 49 2 50.5868 2 52.6694V57.3306C2 59.314 3.5987 61 5.69699 61H116.307C118.305 61 120.004 59.4132 120.004 57.3306V52.6694C120.004 50.6859 118.405 49 116.307 49H121.303C123.301 49 125 47.4132 125 45.3306V40.6694C125 38.6859 123.401 37 121.303 37H116.307C118.305 37 120.004 35.4132 120.004 33.3306V28.6694C120.004 26.6859 118.405 25 116.307 25H121.303C123.301 24.8017 124.9 23.2149 124.9 21.1322Z" stroke="#808080" stroke-miterlimit="10"/>
<path d="M4.39844 27V35" stroke="#DDDDDD" stroke-width="0.5" stroke-miterlimit="10"/>
<path d="M8.39844 27V35" stroke="#DDDDDD" stroke-width="0.5" stroke-miterlimit="10"/>
<path d="M12.3984 27V35" stroke="#DDDDDD" stroke-width="0.5" stroke-miterlimit="10"/>
<path d="M16.3984 27V35" stroke="#DDDDDD" stroke-width="0.5" stroke-miterlimit="10"/>
<path d="M20.3984 27V35" stroke="#DDDDDD" stroke-width="0.5" stroke-miterlimit="10"/>
<path d="M24.3984 27V35" stroke="#DDDDDD" stroke-width="0.5" stroke-miterlimit="10"/>
<path d="M28.3984 27V35" stroke="#DDDDDD" stroke-width="0.5" stroke-miterlimit="10"/>
<path d="M32.3984 27V35" stroke="#DDDDDD" stroke-width="0.5" stroke-miterlimit="10"/>
<path d="M36.3984 27V35" stroke="#DDDDDD" stroke-width="0.5" stroke-miterlimit="10"/>
<path d="M40.3984 27V35" stroke="#DDDDDD" stroke-width="0.5" stroke-miterlimit="10"/>
<path d="M44.3984 27V35" stroke="#DDDDDD" stroke-width="0.5" stroke-miterlimit="10"/>
<path d="M48.3984 27V35" stroke="#DDDDDD" stroke-width="0.5" stroke-miterlimit="10"/>
<path d="M52.3984 27V35" stroke="#DDDDDD" stroke-width="0.5" stroke-miterlimit="10"/>
<path d="M56.3984 27V35" stroke="#DDDDDD" stroke-width="0.5" stroke-miterlimit="10"/>
<path d="M60.3984 27V35" stroke="#DDDDDD" stroke-width="0.5" stroke-miterlimit="10"/>
<path d="M64.3984 27V35" stroke="#DDDDDD" stroke-width="0.5" stroke-miterlimit="10"/>
<path d="M68.3984 27V35" stroke="#DDDDDD" stroke-width="0.5" stroke-miterlimit="10"/>
<path d="M72.3984 27V35" stroke="#DDDDDD" stroke-width="0.5" stroke-miterlimit="10"/>
<path d="M76.3984 27V35" stroke="#DDDDDD" stroke-width="0.5" stroke-miterlimit="10"/>
<path d="M80.3984 27V35" stroke="#DDDDDD" stroke-width="0.5" stroke-miterlimit="10"/>
<path d="M84.3984 27V35" stroke="#DDDDDD" stroke-width="0.5" stroke-miterlimit="10"/>
<path d="M88.3984 27V35" stroke="#DDDDDD" stroke-width="0.5" stroke-miterlimit="10"/>
<path d="M92.3984 27V35" stroke="#DDDDDD" stroke-width="0.5" stroke-miterlimit="10"/>
<path d="M96.3984 27V35" stroke="#DDDDDD" stroke-width="0.5" stroke-miterlimit="10"/>
<path d="M100.398 27V35" stroke="#DDDDDD" stroke-width="0.5" stroke-miterlimit="10"/>
<path d="M104.398 27V35" stroke="#DDDDDD" stroke-width="0.5" stroke-miterlimit="10"/>
<path d="M108.398 27V35" stroke="#DDDDDD" stroke-width="0.5" stroke-miterlimit="10"/>
<path d="M112.398 27V35" stroke="#DDDDDD" stroke-width="0.5" stroke-miterlimit="10"/>
<path d="M116.398 27V35" stroke="#DDDDDD" stroke-width="0.5" stroke-miterlimit="10"/>
</svg>
