<svg width="166" height="182" viewBox="0 0 166 182" fill="none" xmlns="http://www.w3.org/2000/svg">
<g clip-path="url(#clip0)">
<path d="M124.5 21.1V16.4C124.5 14.4 122.9 12.7 120.8 12.7H115.8C117.8 12.7 119.5 11.1 119.5 9V4.7C119.5 2.7 117.9 1 115.8 1H5.2C3.2 1 1.5 2.6 1.5 4.7V9.4C1.5 11.4 3.1 13.1 5.2 13.1H10.2C8.2 13.1 6.5 14.7 6.5 16.8V21.5C6.5 23.5 8.1 25.2 10.2 25.2H5.2C3.2 25.2 1.5 26.8 1.5 28.9V33.6C1.5 35.6 3.1 37.3 5.2 37.3H10.2C8.2 37.3 6.5 38.9 6.5 41V45.7C6.5 47.7 8.1 49.4 10.2 49.4H5.2C3.2 49.4 1.5 51 1.5 53.1V57.8C1.5 59.8 3.1 61.5 5.2 61.5H10.2C8.2 61.5 6.5 63.1 6.5 65.2V69.9C6.5 71.9 8.1 73.6 10.2 73.6H5.2C3.2 73.6 1.5 75.2 1.5 77.3V82C1.5 84 3.1 85.7 5.2 85.7H10.2C8.2 85.7 6.5 87.3 6.5 89.4V94.1C6.5 96.1 8.1 97.8 10.2 97.8H5.2C3.2 97.8 1.5 99.4 1.5 101.5V106.2C1.5 108.2 3.1 109.9 5.2 109.9H10.2C8.2 109.9 6.5 111.5 6.5 113.6V118.3C6.5 120.3 8.1 122 10.2 122H5.2C3.2 122 1.5 123.6 1.5 125.7V130.4C1.5 132.4 3.1 134.1 5.2 134.1H10.2C8.2 134.1 6.5 135.7 6.5 137.8V142.5C6.5 144.5 8.1 146.2 10.2 146.2H5.2C3.2 146.2 1.5 147.8 1.5 149.9V154.6C1.5 156.6 3.1 158.3 5.2 158.3H10.2C8.2 158.3 6.5 159.9 6.5 162V166.7C6.5 168.7 8.1 170.4 10.2 170.4H5.2C3.2 170.4 1.5 172 1.5 174.1V178.8C1.5 180.8 3.1 182.5 5.2 182.5H115.9C117.9 182.5 119.6 180.9 119.6 178.8V174.1C119.6 172.1 118 170.4 115.9 170.4H120.9C122.9 170.4 124.6 168.8 124.6 166.7V162C124.6 160 123 158.3 120.9 158.3H115.9C117.9 158.3 119.6 156.7 119.6 154.6V149.9C119.6 147.9 118 146.2 115.9 146.2H120.9C122.9 146.2 124.6 144.6 124.6 142.5V137.8C124.6 135.8 123 134.1 120.9 134.1H115.9C117.9 134.1 119.6 132.5 119.6 130.4V125.7C119.6 123.7 118 122 115.9 122H120.9C122.9 122 124.6 120.4 124.6 118.3V113.6C124.6 111.6 123 109.9 120.9 109.9H115.9C117.9 109.9 119.6 108.3 119.6 106.2V101.5C119.6 99.5 118 97.8 115.9 97.8H120.9C122.9 97.8 124.6 96.2 124.6 94.1V89.4C124.6 87.4 123 85.7 120.9 85.7H115.9C117.9 85.7 119.6 84.1 119.6 82V77.3C119.6 75.3 118 73.6 115.9 73.6H120.9C122.9 73.6 124.6 72 124.6 69.9V65.2C124.6 63.2 123 61.5 120.9 61.5H115.9C117.9 61.5 119.6 59.9 119.6 57.8V53.1C119.6 51.1 118 49.4 115.9 49.4H120.9C122.9 49.4 124.6 47.8 124.6 45.7V41C124.6 39 123 37.3 120.9 37.3H115.9C117.9 37.3 119.6 35.7 119.6 33.6V28.9C119.6 26.9 118 25.2 115.9 25.2H120.9C122.9 24.8 124.5 23.2 124.5 21.1Z" fill="white"/>
<path d="M121.203 25H10.6969C8.69856 25 7 23.4132 7 21.3306V16.6694C7 14.686 8.59865 13 10.6969 13H121.303C123.301 13 125 14.5868 125 16.6694V21.3306C124.9 23.4132 123.301 25 121.203 25Z" stroke="#DDDDDD" stroke-miterlimit="10"/>
<path d="M116.203 13H5.69687C3.69856 13 2 11.4 2 9.3V4.7C2 2.7 3.59865 1 5.69687 1H116.303C118.301 1 120 2.6 120 4.7V9.4C119.9 11.4 118.301 13 116.203 13Z" stroke="#DDDDDD" stroke-miterlimit="10"/>
<path d="M121.203 73H10.6969C8.69856 73 7 71.4132 7 69.3306V64.6694C7 62.6859 8.59865 61 10.6969 61H121.303C123.301 61 125 62.5868 125 64.6694V69.3306C124.9 71.4132 123.301 73 121.203 73Z" stroke="#DDDDDD" stroke-miterlimit="10"/>
<path d="M116.203 61H5.69687C3.69856 61 2 59.4132 2 57.3306V52.6694C2 50.6859 3.59865 49 5.69687 49H116.303C118.301 49 120 50.5868 120 52.6694V57.3306C119.9 59.4132 118.301 61 116.203 61Z" stroke="#DDDDDD" stroke-miterlimit="10"/>
<path d="M121.203 49H10.6969C8.69856 49 7 47.4132 7 45.3306V40.6694C7 38.6859 8.59865 37 10.6969 37H121.303C123.301 37 125 38.5868 125 40.6694V45.3306C124.9 47.4132 123.301 49 121.203 49Z" stroke="#DDDDDD" stroke-miterlimit="10"/>
<path d="M116.203 37H5.69687C3.69856 37 2 35.4132 2 33.3306V28.6694C2 26.686 3.59865 25 5.69687 25H116.303C118.301 25 120 26.5868 120 28.6694V33.3306C119.9 35.4132 118.301 37 116.203 37Z" stroke="#DDDDDD" stroke-miterlimit="10"/>
<path d="M121.203 121H10.6969C8.69856 121 7 119.413 7 117.331V112.669C7 110.686 8.59865 109 10.6969 109H121.303C123.301 109 125 110.587 125 112.669V117.331C124.9 119.413 123.301 121 121.203 121Z" stroke="#DDDDDD" stroke-miterlimit="10"/>
<path d="M116.203 109H5.69687C3.69856 109 2 107.413 2 105.331V100.669C2 98.6859 3.59865 97 5.69687 97H116.303C118.301 97 120 98.5868 120 100.669V105.331C119.9 107.413 118.301 109 116.203 109Z" stroke="#DDDDDD" stroke-miterlimit="10"/>
<path d="M121.203 97H10.6969C8.69856 97 7 95.4132 7 93.3306V88.6694C7 86.6859 8.59865 85 10.6969 85H121.303C123.301 85 125 86.5868 125 88.6694V93.3306C124.9 95.4132 123.301 97 121.203 97Z" stroke="#DDDDDD" stroke-miterlimit="10"/>
<path d="M116.203 85H5.69687C3.69856 85 2 83.4132 2 81.3306V76.6694C2 74.6859 3.59865 73 5.69687 73H116.303C118.301 73 120 74.5868 120 76.6694V81.3306C119.9 83.4132 118.301 85 116.203 85Z" stroke="#DDDDDD" stroke-miterlimit="10"/>
<path d="M121.203 145H10.6969C8.69856 145 7 143.413 7 141.331V136.669C7 134.686 8.59865 133 10.6969 133H121.303C123.301 133 125 134.587 125 136.669V141.331C124.9 143.413 123.301 145 121.203 145Z" stroke="#DDDDDD" stroke-miterlimit="10"/>
<path d="M116.203 133H5.69687C3.69856 133 2 131.413 2 129.331V124.669C2 122.686 3.59865 121 5.69687 121H116.303C118.301 121 120 122.587 120 124.669V129.331C119.9 131.413 118.301 133 116.203 133Z" stroke="#DDDDDD" stroke-miterlimit="10"/>
<path d="M116.203 181H5.69687C3.69856 181 2 179.413 2 177.331V172.669C2 170.686 3.59865 169 5.69687 169H116.303C118.301 169 120 170.587 120 172.669V177.331C119.9 179.413 118.301 181 116.203 181Z" stroke="#DDDDDD" stroke-miterlimit="10"/>
<path d="M121.203 169H10.6969C8.69856 169 7 167.413 7 165.331V160.669C7 158.686 8.59865 157 10.6969 157H121.303C123.301 157 125 158.587 125 160.669V165.331C124.9 167.413 123.301 169 121.203 169Z" stroke="#DDDDDD" stroke-miterlimit="10"/>
<path d="M116.203 157H5.69687C3.69856 157 2 155.413 2 153.331V148.669C2 146.686 3.59865 145 5.69687 145H116.303C118.301 145 120 146.587 120 148.669V153.331C119.9 155.413 118.301 157 116.203 157Z" stroke="#DDDDDD" stroke-miterlimit="10"/>
<path d="M1.80078 3H119.201" stroke="#DDDDDD" stroke-width="0.5" stroke-miterlimit="10"/>
<path d="M1.80078 11H119.201" stroke="#DDDDDD" stroke-width="0.5" stroke-miterlimit="10"/>
<path d="M4.40234 3V11" stroke="#DDDDDD" stroke-width="0.5" stroke-miterlimit="10"/>
<path d="M8.40234 3V11" stroke="#DDDDDD" stroke-width="0.5" stroke-miterlimit="10"/>
<path d="M12.4023 3V11" stroke="#DDDDDD" stroke-width="0.5" stroke-miterlimit="10"/>
<path d="M16.4023 3V11" stroke="#DDDDDD" stroke-width="0.5" stroke-miterlimit="10"/>
<path d="M20.4023 3V11" stroke="#DDDDDD" stroke-width="0.5" stroke-miterlimit="10"/>
<path d="M24.4023 3V11" stroke="#DDDDDD" stroke-width="0.5" stroke-miterlimit="10"/>
<path d="M28.4023 3V11" stroke="#DDDDDD" stroke-width="0.5" stroke-miterlimit="10"/>
<path d="M32.4023 3V11" stroke="#DDDDDD" stroke-width="0.5" stroke-miterlimit="10"/>
<path d="M36.4023 3V11" stroke="#DDDDDD" stroke-width="0.5" stroke-miterlimit="10"/>
<path d="M40.4023 3V11" stroke="#DDDDDD" stroke-width="0.5" stroke-miterlimit="10"/>
<path d="M44.4023 3V11" stroke="#DDDDDD" stroke-width="0.5" stroke-miterlimit="10"/>
<path d="M48.4023 3V11" stroke="#DDDDDD" stroke-width="0.5" stroke-miterlimit="10"/>
<path d="M52.4023 3V11" stroke="#DDDDDD" stroke-width="0.5" stroke-miterlimit="10"/>
<path d="M56.4023 3V11" stroke="#DDDDDD" stroke-width="0.5" stroke-miterlimit="10"/>
<path d="M60.4023 3V11" stroke="#DDDDDD" stroke-width="0.5" stroke-miterlimit="10"/>
<path d="M64.4023 3V11" stroke="#DDDDDD" stroke-width="0.5" stroke-miterlimit="10"/>
<path d="M68.4023 3V11" stroke="#DDDDDD" stroke-width="0.5" stroke-miterlimit="10"/>
<path d="M72.4023 3V11" stroke="#DDDDDD" stroke-width="0.5" stroke-miterlimit="10"/>
<path d="M76.4023 3V11" stroke="#DDDDDD" stroke-width="0.5" stroke-miterlimit="10"/>
<path d="M80.4023 3V11" stroke="#DDDDDD" stroke-width="0.5" stroke-miterlimit="10"/>
<path d="M84.4023 3V11" stroke="#DDDDDD" stroke-width="0.5" stroke-miterlimit="10"/>
<path d="M88.4023 3V11" stroke="#DDDDDD" stroke-width="0.5" stroke-miterlimit="10"/>
<path d="M92.4023 3V11" stroke="#DDDDDD" stroke-width="0.5" stroke-miterlimit="10"/>
<path d="M96.4023 3V11" stroke="#DDDDDD" stroke-width="0.5" stroke-miterlimit="10"/>
<path d="M100.402 3V11" stroke="#DDDDDD" stroke-width="0.5" stroke-miterlimit="10"/>
<path d="M104.402 3V11" stroke="#DDDDDD" stroke-width="0.5" stroke-miterlimit="10"/>
<path d="M108.402 3V11" stroke="#DDDDDD" stroke-width="0.5" stroke-miterlimit="10"/>
<path d="M112.402 3V11" stroke="#DDDDDD" stroke-width="0.5" stroke-miterlimit="10"/>
<path d="M116.402 3V11" stroke="#DDDDDD" stroke-width="0.5" stroke-miterlimit="10"/>
<path d="M6.80078 15H124.201" stroke="#DDDDDD" stroke-width="0.5" stroke-miterlimit="10"/>
<path d="M6.80078 23H124.201" stroke="#DDDDDD" stroke-width="0.5" stroke-miterlimit="10"/>
<path d="M9.40234 15V23" stroke="#DDDDDD" stroke-width="0.5" stroke-miterlimit="10"/>
<path d="M13.4023 15V23" stroke="#DDDDDD" stroke-width="0.5" stroke-miterlimit="10"/>
<path d="M17.4023 15V23" stroke="#DDDDDD" stroke-width="0.5" stroke-miterlimit="10"/>
<path d="M21.4023 15V23" stroke="#DDDDDD" stroke-width="0.5" stroke-miterlimit="10"/>
<path d="M25.4023 15V23" stroke="#DDDDDD" stroke-width="0.5" stroke-miterlimit="10"/>
<path d="M29.4023 15V23" stroke="#DDDDDD" stroke-width="0.5" stroke-miterlimit="10"/>
<path d="M33.4023 15V23" stroke="#DDDDDD" stroke-width="0.5" stroke-miterlimit="10"/>
<path d="M37.4023 15V23" stroke="#DDDDDD" stroke-width="0.5" stroke-miterlimit="10"/>
<path d="M41.4023 15V23" stroke="#DDDDDD" stroke-width="0.5" stroke-miterlimit="10"/>
<path d="M45.4023 15V23" stroke="#DDDDDD" stroke-width="0.5" stroke-miterlimit="10"/>
<path d="M49.4023 15V23" stroke="#DDDDDD" stroke-width="0.5" stroke-miterlimit="10"/>
<path d="M53.4023 15V23" stroke="#DDDDDD" stroke-width="0.5" stroke-miterlimit="10"/>
<path d="M57.4023 15V23" stroke="#DDDDDD" stroke-width="0.5" stroke-miterlimit="10"/>
<path d="M61.4023 15V23" stroke="#DDDDDD" stroke-width="0.5" stroke-miterlimit="10"/>
<path d="M65.4023 15V23" stroke="#DDDDDD" stroke-width="0.5" stroke-miterlimit="10"/>
<path d="M69.4023 15V23" stroke="#DDDDDD" stroke-width="0.5" stroke-miterlimit="10"/>
<path d="M73.4023 15V23" stroke="#DDDDDD" stroke-width="0.5" stroke-miterlimit="10"/>
<path d="M77.4023 15V23" stroke="#DDDDDD" stroke-width="0.5" stroke-miterlimit="10"/>
<path d="M81.4023 15V23" stroke="#DDDDDD" stroke-width="0.5" stroke-miterlimit="10"/>
<path d="M85.4023 15V23" stroke="#DDDDDD" stroke-width="0.5" stroke-miterlimit="10"/>
<path d="M89.4023 15V23" stroke="#DDDDDD" stroke-width="0.5" stroke-miterlimit="10"/>
<path d="M93.4023 15V23" stroke="#DDDDDD" stroke-width="0.5" stroke-miterlimit="10"/>
<path d="M97.4023 15V23" stroke="#DDDDDD" stroke-width="0.5" stroke-miterlimit="10"/>
<path d="M101.402 15V23" stroke="#DDDDDD" stroke-width="0.5" stroke-miterlimit="10"/>
<path d="M105.402 15V23" stroke="#DDDDDD" stroke-width="0.5" stroke-miterlimit="10"/>
<path d="M109.402 15V23" stroke="#DDDDDD" stroke-width="0.5" stroke-miterlimit="10"/>
<path d="M113.402 15V23" stroke="#DDDDDD" stroke-width="0.5" stroke-miterlimit="10"/>
<path d="M117.402 15V23" stroke="#DDDDDD" stroke-width="0.5" stroke-miterlimit="10"/>
<path d="M121.402 15V23" stroke="#DDDDDD" stroke-width="0.5" stroke-miterlimit="10"/>
<path d="M1.80078 27H119.201" stroke="#DDDDDD" stroke-width="0.5" stroke-miterlimit="10"/>
<path d="M1.80078 35H119.201" stroke="#DDDDDD" stroke-width="0.5" stroke-miterlimit="10"/>
<path d="M4.40234 27V35" stroke="#DDDDDD" stroke-width="0.5" stroke-miterlimit="10"/>
<path d="M8.40234 27V35" stroke="#DDDDDD" stroke-width="0.5" stroke-miterlimit="10"/>
<path d="M12.4023 27V35" stroke="#DDDDDD" stroke-width="0.5" stroke-miterlimit="10"/>
<path d="M16.4023 27V35" stroke="#DDDDDD" stroke-width="0.5" stroke-miterlimit="10"/>
<path d="M20.4023 27V35" stroke="#DDDDDD" stroke-width="0.5" stroke-miterlimit="10"/>
<path d="M24.4023 27V35" stroke="#DDDDDD" stroke-width="0.5" stroke-miterlimit="10"/>
<path d="M28.4023 27V35" stroke="#DDDDDD" stroke-width="0.5" stroke-miterlimit="10"/>
<path d="M32.4023 27V35" stroke="#DDDDDD" stroke-width="0.5" stroke-miterlimit="10"/>
<path d="M36.4023 27V35" stroke="#DDDDDD" stroke-width="0.5" stroke-miterlimit="10"/>
<path d="M40.4023 27V35" stroke="#DDDDDD" stroke-width="0.5" stroke-miterlimit="10"/>
<path d="M44.4023 27V35" stroke="#DDDDDD" stroke-width="0.5" stroke-miterlimit="10"/>
<path d="M48.4023 27V35" stroke="#DDDDDD" stroke-width="0.5" stroke-miterlimit="10"/>
<path d="M52.4023 27V35" stroke="#DDDDDD" stroke-width="0.5" stroke-miterlimit="10"/>
<path d="M56.4023 27V35" stroke="#DDDDDD" stroke-width="0.5" stroke-miterlimit="10"/>
<path d="M60.4023 27V35" stroke="#DDDDDD" stroke-width="0.5" stroke-miterlimit="10"/>
<path d="M64.4023 27V35" stroke="#DDDDDD" stroke-width="0.5" stroke-miterlimit="10"/>
<path d="M68.4023 27V35" stroke="#DDDDDD" stroke-width="0.5" stroke-miterlimit="10"/>
<path d="M72.4023 27V35" stroke="#DDDDDD" stroke-width="0.5" stroke-miterlimit="10"/>
<path d="M76.4023 27V35" stroke="#DDDDDD" stroke-width="0.5" stroke-miterlimit="10"/>
<path d="M80.4023 27V35" stroke="#DDDDDD" stroke-width="0.5" stroke-miterlimit="10"/>
<path d="M84.4023 27V35" stroke="#DDDDDD" stroke-width="0.5" stroke-miterlimit="10"/>
<path d="M88.4023 27V35" stroke="#DDDDDD" stroke-width="0.5" stroke-miterlimit="10"/>
<path d="M92.4023 27V35" stroke="#DDDDDD" stroke-width="0.5" stroke-miterlimit="10"/>
<path d="M96.4023 27V35" stroke="#DDDDDD" stroke-width="0.5" stroke-miterlimit="10"/>
<path d="M100.402 27V35" stroke="#DDDDDD" stroke-width="0.5" stroke-miterlimit="10"/>
<path d="M104.402 27V35" stroke="#DDDDDD" stroke-width="0.5" stroke-miterlimit="10"/>
<path d="M108.402 27V35" stroke="#DDDDDD" stroke-width="0.5" stroke-miterlimit="10"/>
<path d="M112.402 27V35" stroke="#DDDDDD" stroke-width="0.5" stroke-miterlimit="10"/>
<path d="M116.402 27V35" stroke="#DDDDDD" stroke-width="0.5" stroke-miterlimit="10"/>
<path d="M6.80078 39H124.201" stroke="#DDDDDD" stroke-width="0.5" stroke-miterlimit="10"/>
<path d="M6.80078 47H124.201" stroke="#DDDDDD" stroke-width="0.5" stroke-miterlimit="10"/>
<path d="M9.40234 39V47" stroke="#DDDDDD" stroke-width="0.5" stroke-miterlimit="10"/>
<path d="M13.4023 39V47" stroke="#DDDDDD" stroke-width="0.5" stroke-miterlimit="10"/>
<path d="M17.4023 39V47" stroke="#DDDDDD" stroke-width="0.5" stroke-miterlimit="10"/>
<path d="M21.4023 39V47" stroke="#DDDDDD" stroke-width="0.5" stroke-miterlimit="10"/>
<path d="M25.4023 39V47" stroke="#DDDDDD" stroke-width="0.5" stroke-miterlimit="10"/>
<path d="M29.4023 39V47" stroke="#DDDDDD" stroke-width="0.5" stroke-miterlimit="10"/>
<path d="M33.4023 39V47" stroke="#DDDDDD" stroke-width="0.5" stroke-miterlimit="10"/>
<path d="M37.4023 39V47" stroke="#DDDDDD" stroke-width="0.5" stroke-miterlimit="10"/>
<path d="M41.4023 39V47" stroke="#DDDDDD" stroke-width="0.5" stroke-miterlimit="10"/>
<path d="M45.4023 39V47" stroke="#DDDDDD" stroke-width="0.5" stroke-miterlimit="10"/>
<path d="M49.4023 39V47" stroke="#DDDDDD" stroke-width="0.5" stroke-miterlimit="10"/>
<path d="M53.4023 39V47" stroke="#DDDDDD" stroke-width="0.5" stroke-miterlimit="10"/>
<path d="M57.4023 39V47" stroke="#DDDDDD" stroke-width="0.5" stroke-miterlimit="10"/>
<path d="M61.4023 39V47" stroke="#DDDDDD" stroke-width="0.5" stroke-miterlimit="10"/>
<path d="M65.4023 39V47" stroke="#DDDDDD" stroke-width="0.5" stroke-miterlimit="10"/>
<path d="M69.4023 39V47" stroke="#DDDDDD" stroke-width="0.5" stroke-miterlimit="10"/>
<path d="M73.4023 39V47" stroke="#DDDDDD" stroke-width="0.5" stroke-miterlimit="10"/>
<path d="M77.4023 39V47" stroke="#DDDDDD" stroke-width="0.5" stroke-miterlimit="10"/>
<path d="M81.4023 39V47" stroke="#DDDDDD" stroke-width="0.5" stroke-miterlimit="10"/>
<path d="M85.4023 39V47" stroke="#DDDDDD" stroke-width="0.5" stroke-miterlimit="10"/>
<path d="M89.4023 39V47" stroke="#DDDDDD" stroke-width="0.5" stroke-miterlimit="10"/>
<path d="M93.4023 39V47" stroke="#DDDDDD" stroke-width="0.5" stroke-miterlimit="10"/>
<path d="M97.4023 39V47" stroke="#DDDDDD" stroke-width="0.5" stroke-miterlimit="10"/>
<path d="M101.402 39V47" stroke="#DDDDDD" stroke-width="0.5" stroke-miterlimit="10"/>
<path d="M105.402 39V47" stroke="#DDDDDD" stroke-width="0.5" stroke-miterlimit="10"/>
<path d="M109.402 39V47" stroke="#DDDDDD" stroke-width="0.5" stroke-miterlimit="10"/>
<path d="M113.402 39V47" stroke="#DDDDDD" stroke-width="0.5" stroke-miterlimit="10"/>
<path d="M117.402 39V47" stroke="#DDDDDD" stroke-width="0.5" stroke-miterlimit="10"/>
<path d="M121.402 39V47" stroke="#DDDDDD" stroke-width="0.5" stroke-miterlimit="10"/>
<path d="M1.80078 51H119.201" stroke="#DDDDDD" stroke-width="0.5" stroke-miterlimit="10"/>
<path d="M1.80078 59H119.201" stroke="#DDDDDD" stroke-width="0.5" stroke-miterlimit="10"/>
<path d="M4.40234 51V59" stroke="#DDDDDD" stroke-width="0.5" stroke-miterlimit="10"/>
<path d="M8.40234 51V59" stroke="#DDDDDD" stroke-width="0.5" stroke-miterlimit="10"/>
<path d="M12.4023 51V59" stroke="#DDDDDD" stroke-width="0.5" stroke-miterlimit="10"/>
<path d="M16.4023 51V59" stroke="#DDDDDD" stroke-width="0.5" stroke-miterlimit="10"/>
<path d="M20.4023 51V59" stroke="#DDDDDD" stroke-width="0.5" stroke-miterlimit="10"/>
<path d="M24.4023 51V59" stroke="#DDDDDD" stroke-width="0.5" stroke-miterlimit="10"/>
<path d="M28.4023 51V59" stroke="#DDDDDD" stroke-width="0.5" stroke-miterlimit="10"/>
<path d="M32.4023 51V59" stroke="#DDDDDD" stroke-width="0.5" stroke-miterlimit="10"/>
<path d="M36.4023 51V59" stroke="#DDDDDD" stroke-width="0.5" stroke-miterlimit="10"/>
<path d="M40.4023 51V59" stroke="#DDDDDD" stroke-width="0.5" stroke-miterlimit="10"/>
<path d="M44.4023 51V59" stroke="#DDDDDD" stroke-width="0.5" stroke-miterlimit="10"/>
<path d="M48.4023 51V59" stroke="#DDDDDD" stroke-width="0.5" stroke-miterlimit="10"/>
<path d="M52.4023 51V59" stroke="#DDDDDD" stroke-width="0.5" stroke-miterlimit="10"/>
<path d="M56.4023 51V59" stroke="#DDDDDD" stroke-width="0.5" stroke-miterlimit="10"/>
<path d="M60.4023 51V59" stroke="#DDDDDD" stroke-width="0.5" stroke-miterlimit="10"/>
<path d="M64.4023 51V59" stroke="#DDDDDD" stroke-width="0.5" stroke-miterlimit="10"/>
<path d="M68.4023 51V59" stroke="#DDDDDD" stroke-width="0.5" stroke-miterlimit="10"/>
<path d="M72.4023 51V59" stroke="#DDDDDD" stroke-width="0.5" stroke-miterlimit="10"/>
<path d="M76.4023 51V59" stroke="#DDDDDD" stroke-width="0.5" stroke-miterlimit="10"/>
<path d="M80.4023 51V59" stroke="#DDDDDD" stroke-width="0.5" stroke-miterlimit="10"/>
<path d="M84.4023 51V59" stroke="#DDDDDD" stroke-width="0.5" stroke-miterlimit="10"/>
<path d="M88.4023 51V59" stroke="#DDDDDD" stroke-width="0.5" stroke-miterlimit="10"/>
<path d="M92.4023 51V59" stroke="#DDDDDD" stroke-width="0.5" stroke-miterlimit="10"/>
<path d="M96.4023 51V59" stroke="#DDDDDD" stroke-width="0.5" stroke-miterlimit="10"/>
<path d="M100.402 51V59" stroke="#DDDDDD" stroke-width="0.5" stroke-miterlimit="10"/>
<path d="M104.402 51V59" stroke="#DDDDDD" stroke-width="0.5" stroke-miterlimit="10"/>
<path d="M108.402 51V59" stroke="#DDDDDD" stroke-width="0.5" stroke-miterlimit="10"/>
<path d="M112.402 51V59" stroke="#DDDDDD" stroke-width="0.5" stroke-miterlimit="10"/>
<path d="M116.402 51V59" stroke="#DDDDDD" stroke-width="0.5" stroke-miterlimit="10"/>
<path d="M6.80078 63H124.201" stroke="#DDDDDD" stroke-width="0.5" stroke-miterlimit="10"/>
<path d="M6.80078 71H124.201" stroke="#DDDDDD" stroke-width="0.5" stroke-miterlimit="10"/>
<path d="M9.40234 63V71" stroke="#DDDDDD" stroke-width="0.5" stroke-miterlimit="10"/>
<path d="M13.4023 63V71" stroke="#DDDDDD" stroke-width="0.5" stroke-miterlimit="10"/>
<path d="M17.4023 63V71" stroke="#DDDDDD" stroke-width="0.5" stroke-miterlimit="10"/>
<path d="M21.4023 63V71" stroke="#DDDDDD" stroke-width="0.5" stroke-miterlimit="10"/>
<path d="M25.4023 63V71" stroke="#DDDDDD" stroke-width="0.5" stroke-miterlimit="10"/>
<path d="M29.4023 63V71" stroke="#DDDDDD" stroke-width="0.5" stroke-miterlimit="10"/>
<path d="M33.4023 63V71" stroke="#DDDDDD" stroke-width="0.5" stroke-miterlimit="10"/>
<path d="M37.4023 63V71" stroke="#DDDDDD" stroke-width="0.5" stroke-miterlimit="10"/>
<path d="M41.4023 63V71" stroke="#DDDDDD" stroke-width="0.5" stroke-miterlimit="10"/>
<path d="M45.4023 63V71" stroke="#DDDDDD" stroke-width="0.5" stroke-miterlimit="10"/>
<path d="M49.4023 63V71" stroke="#DDDDDD" stroke-width="0.5" stroke-miterlimit="10"/>
<path d="M53.4023 63V71" stroke="#DDDDDD" stroke-width="0.5" stroke-miterlimit="10"/>
<path d="M57.4023 63V71" stroke="#DDDDDD" stroke-width="0.5" stroke-miterlimit="10"/>
<path d="M61.4023 63V71" stroke="#DDDDDD" stroke-width="0.5" stroke-miterlimit="10"/>
<path d="M65.4023 63V71" stroke="#DDDDDD" stroke-width="0.5" stroke-miterlimit="10"/>
<path d="M69.4023 63V71" stroke="#DDDDDD" stroke-width="0.5" stroke-miterlimit="10"/>
<path d="M73.4023 63V71" stroke="#DDDDDD" stroke-width="0.5" stroke-miterlimit="10"/>
<path d="M77.4023 63V71" stroke="#DDDDDD" stroke-width="0.5" stroke-miterlimit="10"/>
<path d="M81.4023 63V71" stroke="#DDDDDD" stroke-width="0.5" stroke-miterlimit="10"/>
<path d="M85.4023 63V71" stroke="#DDDDDD" stroke-width="0.5" stroke-miterlimit="10"/>
<path d="M89.4023 63V71" stroke="#DDDDDD" stroke-width="0.5" stroke-miterlimit="10"/>
<path d="M93.4023 63V71" stroke="#DDDDDD" stroke-width="0.5" stroke-miterlimit="10"/>
<path d="M97.4023 63V71" stroke="#DDDDDD" stroke-width="0.5" stroke-miterlimit="10"/>
<path d="M101.402 63V71" stroke="#DDDDDD" stroke-width="0.5" stroke-miterlimit="10"/>
<path d="M105.402 63V71" stroke="#DDDDDD" stroke-width="0.5" stroke-miterlimit="10"/>
<path d="M109.402 63V71" stroke="#DDDDDD" stroke-width="0.5" stroke-miterlimit="10"/>
<path d="M113.402 63V71" stroke="#DDDDDD" stroke-width="0.5" stroke-miterlimit="10"/>
<path d="M117.402 63V71" stroke="#DDDDDD" stroke-width="0.5" stroke-miterlimit="10"/>
<path d="M121.402 63V71" stroke="#DDDDDD" stroke-width="0.5" stroke-miterlimit="10"/>
<path d="M1.80078 75H119.201" stroke="#DDDDDD" stroke-width="0.5" stroke-miterlimit="10"/>
<path d="M1.80078 83H119.201" stroke="#DDDDDD" stroke-width="0.5" stroke-miterlimit="10"/>
<path d="M4.40234 75V83" stroke="#DDDDDD" stroke-width="0.5" stroke-miterlimit="10"/>
<path d="M8.40234 75V83" stroke="#DDDDDD" stroke-width="0.5" stroke-miterlimit="10"/>
<path d="M12.4023 75V83" stroke="#DDDDDD" stroke-width="0.5" stroke-miterlimit="10"/>
<path d="M16.4023 75V83" stroke="#DDDDDD" stroke-width="0.5" stroke-miterlimit="10"/>
<path d="M20.4023 75V83" stroke="#DDDDDD" stroke-width="0.5" stroke-miterlimit="10"/>
<path d="M24.4023 75V83" stroke="#DDDDDD" stroke-width="0.5" stroke-miterlimit="10"/>
<path d="M28.4023 75V83" stroke="#DDDDDD" stroke-width="0.5" stroke-miterlimit="10"/>
<path d="M32.4023 75V83" stroke="#DDDDDD" stroke-width="0.5" stroke-miterlimit="10"/>
<path d="M36.4023 75V83" stroke="#DDDDDD" stroke-width="0.5" stroke-miterlimit="10"/>
<path d="M40.4023 75V83" stroke="#DDDDDD" stroke-width="0.5" stroke-miterlimit="10"/>
<path d="M44.4023 75V83" stroke="#DDDDDD" stroke-width="0.5" stroke-miterlimit="10"/>
<path d="M48.4023 75V83" stroke="#DDDDDD" stroke-width="0.5" stroke-miterlimit="10"/>
<path d="M52.4023 75V83" stroke="#DDDDDD" stroke-width="0.5" stroke-miterlimit="10"/>
<path d="M56.4023 75V83" stroke="#DDDDDD" stroke-width="0.5" stroke-miterlimit="10"/>
<path d="M60.4023 75V83" stroke="#DDDDDD" stroke-width="0.5" stroke-miterlimit="10"/>
<path d="M64.4023 75V83" stroke="#DDDDDD" stroke-width="0.5" stroke-miterlimit="10"/>
<path d="M68.4023 75V83" stroke="#DDDDDD" stroke-width="0.5" stroke-miterlimit="10"/>
<path d="M72.4023 75V83" stroke="#DDDDDD" stroke-width="0.5" stroke-miterlimit="10"/>
<path d="M76.4023 75V83" stroke="#DDDDDD" stroke-width="0.5" stroke-miterlimit="10"/>
<path d="M80.4023 75V83" stroke="#DDDDDD" stroke-width="0.5" stroke-miterlimit="10"/>
<path d="M84.4023 75V83" stroke="#DDDDDD" stroke-width="0.5" stroke-miterlimit="10"/>
<path d="M88.4023 75V83" stroke="#DDDDDD" stroke-width="0.5" stroke-miterlimit="10"/>
<path d="M92.4023 75V83" stroke="#DDDDDD" stroke-width="0.5" stroke-miterlimit="10"/>
<path d="M96.4023 75V83" stroke="#DDDDDD" stroke-width="0.5" stroke-miterlimit="10"/>
<path d="M100.402 75V83" stroke="#DDDDDD" stroke-width="0.5" stroke-miterlimit="10"/>
<path d="M104.402 75V83" stroke="#DDDDDD" stroke-width="0.5" stroke-miterlimit="10"/>
<path d="M108.402 75V83" stroke="#DDDDDD" stroke-width="0.5" stroke-miterlimit="10"/>
<path d="M112.402 75V83" stroke="#DDDDDD" stroke-width="0.5" stroke-miterlimit="10"/>
<path d="M116.402 75V83" stroke="#DDDDDD" stroke-width="0.5" stroke-miterlimit="10"/>
<path d="M6.80078 87H124.201" stroke="#DDDDDD" stroke-width="0.5" stroke-miterlimit="10"/>
<path d="M6.80078 95H124.201" stroke="#DDDDDD" stroke-width="0.5" stroke-miterlimit="10"/>
<path d="M9.40234 87V95" stroke="#DDDDDD" stroke-width="0.5" stroke-miterlimit="10"/>
<path d="M13.4023 87V95" stroke="#DDDDDD" stroke-width="0.5" stroke-miterlimit="10"/>
<path d="M17.4023 87V95" stroke="#DDDDDD" stroke-width="0.5" stroke-miterlimit="10"/>
<path d="M21.4023 87V95" stroke="#DDDDDD" stroke-width="0.5" stroke-miterlimit="10"/>
<path d="M25.4023 87V95" stroke="#DDDDDD" stroke-width="0.5" stroke-miterlimit="10"/>
<path d="M29.4023 87V95" stroke="#DDDDDD" stroke-width="0.5" stroke-miterlimit="10"/>
<path d="M33.4023 87V95" stroke="#DDDDDD" stroke-width="0.5" stroke-miterlimit="10"/>
<path d="M37.4023 87V95" stroke="#DDDDDD" stroke-width="0.5" stroke-miterlimit="10"/>
<path d="M41.4023 87V95" stroke="#DDDDDD" stroke-width="0.5" stroke-miterlimit="10"/>
<path d="M45.4023 87V95" stroke="#DDDDDD" stroke-width="0.5" stroke-miterlimit="10"/>
<path d="M49.4023 87V95" stroke="#DDDDDD" stroke-width="0.5" stroke-miterlimit="10"/>
<path d="M53.4023 87V95" stroke="#DDDDDD" stroke-width="0.5" stroke-miterlimit="10"/>
<path d="M57.4023 87V95" stroke="#DDDDDD" stroke-width="0.5" stroke-miterlimit="10"/>
<path d="M61.4023 87V95" stroke="#DDDDDD" stroke-width="0.5" stroke-miterlimit="10"/>
<path d="M65.4023 87V95" stroke="#DDDDDD" stroke-width="0.5" stroke-miterlimit="10"/>
<path d="M69.4023 87V95" stroke="#DDDDDD" stroke-width="0.5" stroke-miterlimit="10"/>
<path d="M73.4023 87V95" stroke="#DDDDDD" stroke-width="0.5" stroke-miterlimit="10"/>
<path d="M77.4023 87V95" stroke="#DDDDDD" stroke-width="0.5" stroke-miterlimit="10"/>
<path d="M81.4023 87V95" stroke="#DDDDDD" stroke-width="0.5" stroke-miterlimit="10"/>
<path d="M85.4023 87V95" stroke="#DDDDDD" stroke-width="0.5" stroke-miterlimit="10"/>
<path d="M89.4023 87V95" stroke="#DDDDDD" stroke-width="0.5" stroke-miterlimit="10"/>
<path d="M93.4023 87V95" stroke="#DDDDDD" stroke-width="0.5" stroke-miterlimit="10"/>
<path d="M97.4023 87V95" stroke="#DDDDDD" stroke-width="0.5" stroke-miterlimit="10"/>
<path d="M101.402 87V95" stroke="#DDDDDD" stroke-width="0.5" stroke-miterlimit="10"/>
<path d="M105.402 87V95" stroke="#DDDDDD" stroke-width="0.5" stroke-miterlimit="10"/>
<path d="M109.402 87V95" stroke="#DDDDDD" stroke-width="0.5" stroke-miterlimit="10"/>
<path d="M113.402 87V95" stroke="#DDDDDD" stroke-width="0.5" stroke-miterlimit="10"/>
<path d="M117.402 87V95" stroke="#DDDDDD" stroke-width="0.5" stroke-miterlimit="10"/>
<path d="M121.402 87V95" stroke="#DDDDDD" stroke-width="0.5" stroke-miterlimit="10"/>
<path d="M1.80078 99H119.201" stroke="#DDDDDD" stroke-width="0.5" stroke-miterlimit="10"/>
<path d="M1.80078 107H119.201" stroke="#DDDDDD" stroke-width="0.5" stroke-miterlimit="10"/>
<path d="M4.40234 99V107" stroke="#DDDDDD" stroke-width="0.5" stroke-miterlimit="10"/>
<path d="M8.40234 99V107" stroke="#DDDDDD" stroke-width="0.5" stroke-miterlimit="10"/>
<path d="M12.4023 99V107" stroke="#DDDDDD" stroke-width="0.5" stroke-miterlimit="10"/>
<path d="M16.4023 99V107" stroke="#DDDDDD" stroke-width="0.5" stroke-miterlimit="10"/>
<path d="M20.4023 99V107" stroke="#DDDDDD" stroke-width="0.5" stroke-miterlimit="10"/>
<path d="M24.4023 99V107" stroke="#DDDDDD" stroke-width="0.5" stroke-miterlimit="10"/>
<path d="M28.4023 99V107" stroke="#DDDDDD" stroke-width="0.5" stroke-miterlimit="10"/>
<path d="M32.4023 99V107" stroke="#DDDDDD" stroke-width="0.5" stroke-miterlimit="10"/>
<path d="M36.4023 99V107" stroke="#DDDDDD" stroke-width="0.5" stroke-miterlimit="10"/>
<path d="M40.4023 99V107" stroke="#DDDDDD" stroke-width="0.5" stroke-miterlimit="10"/>
<path d="M44.4023 99V107" stroke="#DDDDDD" stroke-width="0.5" stroke-miterlimit="10"/>
<path d="M48.4023 99V107" stroke="#DDDDDD" stroke-width="0.5" stroke-miterlimit="10"/>
<path d="M52.4023 99V107" stroke="#DDDDDD" stroke-width="0.5" stroke-miterlimit="10"/>
<path d="M56.4023 99V107" stroke="#DDDDDD" stroke-width="0.5" stroke-miterlimit="10"/>
<path d="M60.4023 99V107" stroke="#DDDDDD" stroke-width="0.5" stroke-miterlimit="10"/>
<path d="M64.4023 99V107" stroke="#DDDDDD" stroke-width="0.5" stroke-miterlimit="10"/>
<path d="M68.4023 99V107" stroke="#DDDDDD" stroke-width="0.5" stroke-miterlimit="10"/>
<path d="M72.4023 99V107" stroke="#DDDDDD" stroke-width="0.5" stroke-miterlimit="10"/>
<path d="M76.4023 99V107" stroke="#DDDDDD" stroke-width="0.5" stroke-miterlimit="10"/>
<path d="M80.4023 99V107" stroke="#DDDDDD" stroke-width="0.5" stroke-miterlimit="10"/>
<path d="M84.4023 99V107" stroke="#DDDDDD" stroke-width="0.5" stroke-miterlimit="10"/>
<path d="M88.4023 99V107" stroke="#DDDDDD" stroke-width="0.5" stroke-miterlimit="10"/>
<path d="M92.4023 99V107" stroke="#DDDDDD" stroke-width="0.5" stroke-miterlimit="10"/>
<path d="M96.4023 99V107" stroke="#DDDDDD" stroke-width="0.5" stroke-miterlimit="10"/>
<path d="M100.402 99V107" stroke="#DDDDDD" stroke-width="0.5" stroke-miterlimit="10"/>
<path d="M104.402 99V107" stroke="#DDDDDD" stroke-width="0.5" stroke-miterlimit="10"/>
<path d="M108.402 99V107" stroke="#DDDDDD" stroke-width="0.5" stroke-miterlimit="10"/>
<path d="M112.402 99V107" stroke="#DDDDDD" stroke-width="0.5" stroke-miterlimit="10"/>
<path d="M116.402 99V107" stroke="#DDDDDD" stroke-width="0.5" stroke-miterlimit="10"/>
<path d="M6.80078 111H124.201" stroke="#DDDDDD" stroke-width="0.5" stroke-miterlimit="10"/>
<path d="M6.80078 119H124.201" stroke="#DDDDDD" stroke-width="0.5" stroke-miterlimit="10"/>
<path d="M9.40234 111V119" stroke="#DDDDDD" stroke-width="0.5" stroke-miterlimit="10"/>
<path d="M13.4023 111V119" stroke="#DDDDDD" stroke-width="0.5" stroke-miterlimit="10"/>
<path d="M17.4023 111V119" stroke="#DDDDDD" stroke-width="0.5" stroke-miterlimit="10"/>
<path d="M21.4023 111V119" stroke="#DDDDDD" stroke-width="0.5" stroke-miterlimit="10"/>
<path d="M25.4023 111V119" stroke="#DDDDDD" stroke-width="0.5" stroke-miterlimit="10"/>
<path d="M29.4023 111V119" stroke="#DDDDDD" stroke-width="0.5" stroke-miterlimit="10"/>
<path d="M33.4023 111V119" stroke="#DDDDDD" stroke-width="0.5" stroke-miterlimit="10"/>
<path d="M37.4023 111V119" stroke="#DDDDDD" stroke-width="0.5" stroke-miterlimit="10"/>
<path d="M41.4023 111V119" stroke="#DDDDDD" stroke-width="0.5" stroke-miterlimit="10"/>
<path d="M45.4023 111V119" stroke="#DDDDDD" stroke-width="0.5" stroke-miterlimit="10"/>
<path d="M49.4023 111V119" stroke="#DDDDDD" stroke-width="0.5" stroke-miterlimit="10"/>
<path d="M53.4023 111V119" stroke="#DDDDDD" stroke-width="0.5" stroke-miterlimit="10"/>
<path d="M57.4023 111V119" stroke="#DDDDDD" stroke-width="0.5" stroke-miterlimit="10"/>
<path d="M61.4023 111V119" stroke="#DDDDDD" stroke-width="0.5" stroke-miterlimit="10"/>
<path d="M65.4023 111V119" stroke="#DDDDDD" stroke-width="0.5" stroke-miterlimit="10"/>
<path d="M69.4023 111V119" stroke="#DDDDDD" stroke-width="0.5" stroke-miterlimit="10"/>
<path d="M73.4023 111V119" stroke="#DDDDDD" stroke-width="0.5" stroke-miterlimit="10"/>
<path d="M77.4023 111V119" stroke="#DDDDDD" stroke-width="0.5" stroke-miterlimit="10"/>
<path d="M81.4023 111V119" stroke="#DDDDDD" stroke-width="0.5" stroke-miterlimit="10"/>
<path d="M85.4023 111V119" stroke="#DDDDDD" stroke-width="0.5" stroke-miterlimit="10"/>
<path d="M89.4023 111V119" stroke="#DDDDDD" stroke-width="0.5" stroke-miterlimit="10"/>
<path d="M93.4023 111V119" stroke="#DDDDDD" stroke-width="0.5" stroke-miterlimit="10"/>
<path d="M97.4023 111V119" stroke="#DDDDDD" stroke-width="0.5" stroke-miterlimit="10"/>
<path d="M101.402 111V119" stroke="#DDDDDD" stroke-width="0.5" stroke-miterlimit="10"/>
<path d="M105.402 111V119" stroke="#DDDDDD" stroke-width="0.5" stroke-miterlimit="10"/>
<path d="M109.402 111V119" stroke="#DDDDDD" stroke-width="0.5" stroke-miterlimit="10"/>
<path d="M113.402 111V119" stroke="#DDDDDD" stroke-width="0.5" stroke-miterlimit="10"/>
<path d="M117.402 111V119" stroke="#DDDDDD" stroke-width="0.5" stroke-miterlimit="10"/>
<path d="M121.402 111V119" stroke="#DDDDDD" stroke-width="0.5" stroke-miterlimit="10"/>
<path d="M1.80078 123H119.201" stroke="#DDDDDD" stroke-width="0.5" stroke-miterlimit="10"/>
<path d="M1.80078 131H119.201" stroke="#DDDDDD" stroke-width="0.5" stroke-miterlimit="10"/>
<path d="M4.40234 123V131" stroke="#DDDDDD" stroke-width="0.5" stroke-miterlimit="10"/>
<path d="M8.40234 123V131" stroke="#DDDDDD" stroke-width="0.5" stroke-miterlimit="10"/>
<path d="M12.4023 123V131" stroke="#DDDDDD" stroke-width="0.5" stroke-miterlimit="10"/>
<path d="M16.4023 123V131" stroke="#DDDDDD" stroke-width="0.5" stroke-miterlimit="10"/>
<path d="M20.4023 123V131" stroke="#DDDDDD" stroke-width="0.5" stroke-miterlimit="10"/>
<path d="M24.4023 123V131" stroke="#DDDDDD" stroke-width="0.5" stroke-miterlimit="10"/>
<path d="M28.4023 123V131" stroke="#DDDDDD" stroke-width="0.5" stroke-miterlimit="10"/>
<path d="M32.4023 123V131" stroke="#DDDDDD" stroke-width="0.5" stroke-miterlimit="10"/>
<path d="M36.4023 123V131" stroke="#DDDDDD" stroke-width="0.5" stroke-miterlimit="10"/>
<path d="M40.4023 123V131" stroke="#DDDDDD" stroke-width="0.5" stroke-miterlimit="10"/>
<path d="M44.4023 123V131" stroke="#DDDDDD" stroke-width="0.5" stroke-miterlimit="10"/>
<path d="M48.4023 123V131" stroke="#DDDDDD" stroke-width="0.5" stroke-miterlimit="10"/>
<path d="M52.4023 123V131" stroke="#DDDDDD" stroke-width="0.5" stroke-miterlimit="10"/>
<path d="M56.4023 123V131" stroke="#DDDDDD" stroke-width="0.5" stroke-miterlimit="10"/>
<path d="M60.4023 123V131" stroke="#DDDDDD" stroke-width="0.5" stroke-miterlimit="10"/>
<path d="M64.4023 123V131" stroke="#DDDDDD" stroke-width="0.5" stroke-miterlimit="10"/>
<path d="M68.4023 123V131" stroke="#DDDDDD" stroke-width="0.5" stroke-miterlimit="10"/>
<path d="M72.4023 123V131" stroke="#DDDDDD" stroke-width="0.5" stroke-miterlimit="10"/>
<path d="M76.4023 123V131" stroke="#DDDDDD" stroke-width="0.5" stroke-miterlimit="10"/>
<path d="M80.4023 123V131" stroke="#DDDDDD" stroke-width="0.5" stroke-miterlimit="10"/>
<path d="M84.4023 123V131" stroke="#DDDDDD" stroke-width="0.5" stroke-miterlimit="10"/>
<path d="M88.4023 123V131" stroke="#DDDDDD" stroke-width="0.5" stroke-miterlimit="10"/>
<path d="M92.4023 123V131" stroke="#DDDDDD" stroke-width="0.5" stroke-miterlimit="10"/>
<path d="M96.4023 123V131" stroke="#DDDDDD" stroke-width="0.5" stroke-miterlimit="10"/>
<path d="M100.402 123V131" stroke="#DDDDDD" stroke-width="0.5" stroke-miterlimit="10"/>
<path d="M104.402 123V131" stroke="#DDDDDD" stroke-width="0.5" stroke-miterlimit="10"/>
<path d="M108.402 123V131" stroke="#DDDDDD" stroke-width="0.5" stroke-miterlimit="10"/>
<path d="M112.402 123V131" stroke="#DDDDDD" stroke-width="0.5" stroke-miterlimit="10"/>
<path d="M116.402 123V131" stroke="#DDDDDD" stroke-width="0.5" stroke-miterlimit="10"/>
<path d="M6.80078 135H124.201" stroke="#DDDDDD" stroke-width="0.5" stroke-miterlimit="10"/>
<path d="M6.80078 143H124.201" stroke="#DDDDDD" stroke-width="0.5" stroke-miterlimit="10"/>
<path d="M9.40234 135V143" stroke="#DDDDDD" stroke-width="0.5" stroke-miterlimit="10"/>
<path d="M13.4023 135V143" stroke="#DDDDDD" stroke-width="0.5" stroke-miterlimit="10"/>
<path d="M17.4023 135V143" stroke="#DDDDDD" stroke-width="0.5" stroke-miterlimit="10"/>
<path d="M21.4023 135V143" stroke="#DDDDDD" stroke-width="0.5" stroke-miterlimit="10"/>
<path d="M25.4023 135V143" stroke="#DDDDDD" stroke-width="0.5" stroke-miterlimit="10"/>
<path d="M29.4023 135V143" stroke="#DDDDDD" stroke-width="0.5" stroke-miterlimit="10"/>
<path d="M33.4023 135V143" stroke="#DDDDDD" stroke-width="0.5" stroke-miterlimit="10"/>
<path d="M37.4023 135V143" stroke="#DDDDDD" stroke-width="0.5" stroke-miterlimit="10"/>
<path d="M41.4023 135V143" stroke="#DDDDDD" stroke-width="0.5" stroke-miterlimit="10"/>
<path d="M45.4023 135V143" stroke="#DDDDDD" stroke-width="0.5" stroke-miterlimit="10"/>
<path d="M49.4023 135V143" stroke="#DDDDDD" stroke-width="0.5" stroke-miterlimit="10"/>
<path d="M53.4023 135V143" stroke="#DDDDDD" stroke-width="0.5" stroke-miterlimit="10"/>
<path d="M57.4023 135V143" stroke="#DDDDDD" stroke-width="0.5" stroke-miterlimit="10"/>
<path d="M61.4023 135V143" stroke="#DDDDDD" stroke-width="0.5" stroke-miterlimit="10"/>
<path d="M65.4023 135V143" stroke="#DDDDDD" stroke-width="0.5" stroke-miterlimit="10"/>
<path d="M69.4023 135V143" stroke="#DDDDDD" stroke-width="0.5" stroke-miterlimit="10"/>
<path d="M73.4023 135V143" stroke="#DDDDDD" stroke-width="0.5" stroke-miterlimit="10"/>
<path d="M77.4023 135V143" stroke="#DDDDDD" stroke-width="0.5" stroke-miterlimit="10"/>
<path d="M81.4023 135V143" stroke="#DDDDDD" stroke-width="0.5" stroke-miterlimit="10"/>
<path d="M85.4023 135V143" stroke="#DDDDDD" stroke-width="0.5" stroke-miterlimit="10"/>
<path d="M89.4023 135V143" stroke="#DDDDDD" stroke-width="0.5" stroke-miterlimit="10"/>
<path d="M93.4023 135V143" stroke="#DDDDDD" stroke-width="0.5" stroke-miterlimit="10"/>
<path d="M97.4023 135V143" stroke="#DDDDDD" stroke-width="0.5" stroke-miterlimit="10"/>
<path d="M101.402 135V143" stroke="#DDDDDD" stroke-width="0.5" stroke-miterlimit="10"/>
<path d="M105.402 135V143" stroke="#DDDDDD" stroke-width="0.5" stroke-miterlimit="10"/>
<path d="M109.402 135V143" stroke="#DDDDDD" stroke-width="0.5" stroke-miterlimit="10"/>
<path d="M113.402 135V143" stroke="#DDDDDD" stroke-width="0.5" stroke-miterlimit="10"/>
<path d="M117.402 135V143" stroke="#DDDDDD" stroke-width="0.5" stroke-miterlimit="10"/>
<path d="M121.402 135V143" stroke="#DDDDDD" stroke-width="0.5" stroke-miterlimit="10"/>
<path d="M1.80078 147H119.201" stroke="#DDDDDD" stroke-width="0.5" stroke-miterlimit="10"/>
<path d="M1.80078 155H119.201" stroke="#DDDDDD" stroke-width="0.5" stroke-miterlimit="10"/>
<path d="M4.40234 147V155" stroke="#DDDDDD" stroke-width="0.5" stroke-miterlimit="10"/>
<path d="M8.40234 147V155" stroke="#DDDDDD" stroke-width="0.5" stroke-miterlimit="10"/>
<path d="M12.4023 147V155" stroke="#DDDDDD" stroke-width="0.5" stroke-miterlimit="10"/>
<path d="M16.4023 147V155" stroke="#DDDDDD" stroke-width="0.5" stroke-miterlimit="10"/>
<path d="M20.4023 147V155" stroke="#DDDDDD" stroke-width="0.5" stroke-miterlimit="10"/>
<path d="M24.4023 147V155" stroke="#DDDDDD" stroke-width="0.5" stroke-miterlimit="10"/>
<path d="M28.4023 147V155" stroke="#DDDDDD" stroke-width="0.5" stroke-miterlimit="10"/>
<path d="M32.4023 147V155" stroke="#DDDDDD" stroke-width="0.5" stroke-miterlimit="10"/>
<path d="M36.4023 147V155" stroke="#DDDDDD" stroke-width="0.5" stroke-miterlimit="10"/>
<path d="M40.4023 147V155" stroke="#DDDDDD" stroke-width="0.5" stroke-miterlimit="10"/>
<path d="M44.4023 147V155" stroke="#DDDDDD" stroke-width="0.5" stroke-miterlimit="10"/>
<path d="M48.4023 147V155" stroke="#DDDDDD" stroke-width="0.5" stroke-miterlimit="10"/>
<path d="M52.4023 147V155" stroke="#DDDDDD" stroke-width="0.5" stroke-miterlimit="10"/>
<path d="M56.4023 147V155" stroke="#DDDDDD" stroke-width="0.5" stroke-miterlimit="10"/>
<path d="M60.4023 147V155" stroke="#DDDDDD" stroke-width="0.5" stroke-miterlimit="10"/>
<path d="M64.4023 147V155" stroke="#DDDDDD" stroke-width="0.5" stroke-miterlimit="10"/>
<path d="M68.4023 147V155" stroke="#DDDDDD" stroke-width="0.5" stroke-miterlimit="10"/>
<path d="M72.4023 147V155" stroke="#DDDDDD" stroke-width="0.5" stroke-miterlimit="10"/>
<path d="M76.4023 147V155" stroke="#DDDDDD" stroke-width="0.5" stroke-miterlimit="10"/>
<path d="M80.4023 147V155" stroke="#DDDDDD" stroke-width="0.5" stroke-miterlimit="10"/>
<path d="M84.4023 147V155" stroke="#DDDDDD" stroke-width="0.5" stroke-miterlimit="10"/>
<path d="M88.4023 147V155" stroke="#DDDDDD" stroke-width="0.5" stroke-miterlimit="10"/>
<path d="M92.4023 147V155" stroke="#DDDDDD" stroke-width="0.5" stroke-miterlimit="10"/>
<path d="M96.4023 147V155" stroke="#DDDDDD" stroke-width="0.5" stroke-miterlimit="10"/>
<path d="M100.402 147V155" stroke="#DDDDDD" stroke-width="0.5" stroke-miterlimit="10"/>
<path d="M104.402 147V155" stroke="#DDDDDD" stroke-width="0.5" stroke-miterlimit="10"/>
<path d="M108.402 147V155" stroke="#DDDDDD" stroke-width="0.5" stroke-miterlimit="10"/>
<path d="M112.402 147V155" stroke="#DDDDDD" stroke-width="0.5" stroke-miterlimit="10"/>
<path d="M116.402 147V155" stroke="#DDDDDD" stroke-width="0.5" stroke-miterlimit="10"/>
<path d="M6.80078 159H124.201" stroke="#DDDDDD" stroke-width="0.5" stroke-miterlimit="10"/>
<path d="M6.80078 167H124.201" stroke="#DDDDDD" stroke-width="0.5" stroke-miterlimit="10"/>
<path d="M9.40234 159V167" stroke="#DDDDDD" stroke-width="0.5" stroke-miterlimit="10"/>
<path d="M13.4023 159V167" stroke="#DDDDDD" stroke-width="0.5" stroke-miterlimit="10"/>
<path d="M17.4023 159V167" stroke="#DDDDDD" stroke-width="0.5" stroke-miterlimit="10"/>
<path d="M21.4023 159V167" stroke="#DDDDDD" stroke-width="0.5" stroke-miterlimit="10"/>
<path d="M25.4023 159V167" stroke="#DDDDDD" stroke-width="0.5" stroke-miterlimit="10"/>
<path d="M29.4023 159V167" stroke="#DDDDDD" stroke-width="0.5" stroke-miterlimit="10"/>
<path d="M33.4023 159V167" stroke="#DDDDDD" stroke-width="0.5" stroke-miterlimit="10"/>
<path d="M37.4023 159V167" stroke="#DDDDDD" stroke-width="0.5" stroke-miterlimit="10"/>
<path d="M41.4023 159V167" stroke="#DDDDDD" stroke-width="0.5" stroke-miterlimit="10"/>
<path d="M45.4023 159V167" stroke="#DDDDDD" stroke-width="0.5" stroke-miterlimit="10"/>
<path d="M49.4023 159V167" stroke="#DDDDDD" stroke-width="0.5" stroke-miterlimit="10"/>
<path d="M53.4023 159V167" stroke="#DDDDDD" stroke-width="0.5" stroke-miterlimit="10"/>
<path d="M57.4023 159V167" stroke="#DDDDDD" stroke-width="0.5" stroke-miterlimit="10"/>
<path d="M61.4023 159V167" stroke="#DDDDDD" stroke-width="0.5" stroke-miterlimit="10"/>
<path d="M65.4023 159V167" stroke="#DDDDDD" stroke-width="0.5" stroke-miterlimit="10"/>
<path d="M69.4023 159V167" stroke="#DDDDDD" stroke-width="0.5" stroke-miterlimit="10"/>
<path d="M73.4023 159V167" stroke="#DDDDDD" stroke-width="0.5" stroke-miterlimit="10"/>
<path d="M77.4023 159V167" stroke="#DDDDDD" stroke-width="0.5" stroke-miterlimit="10"/>
<path d="M81.4023 159V167" stroke="#DDDDDD" stroke-width="0.5" stroke-miterlimit="10"/>
<path d="M85.4023 159V167" stroke="#DDDDDD" stroke-width="0.5" stroke-miterlimit="10"/>
<path d="M89.4023 159V167" stroke="#DDDDDD" stroke-width="0.5" stroke-miterlimit="10"/>
<path d="M93.4023 159V167" stroke="#DDDDDD" stroke-width="0.5" stroke-miterlimit="10"/>
<path d="M97.4023 159V167" stroke="#DDDDDD" stroke-width="0.5" stroke-miterlimit="10"/>
<path d="M101.402 159V167" stroke="#DDDDDD" stroke-width="0.5" stroke-miterlimit="10"/>
<path d="M105.402 159V167" stroke="#DDDDDD" stroke-width="0.5" stroke-miterlimit="10"/>
<path d="M109.402 159V167" stroke="#DDDDDD" stroke-width="0.5" stroke-miterlimit="10"/>
<path d="M113.402 159V167" stroke="#DDDDDD" stroke-width="0.5" stroke-miterlimit="10"/>
<path d="M117.402 159V167" stroke="#DDDDDD" stroke-width="0.5" stroke-miterlimit="10"/>
<path d="M121.402 159V167" stroke="#DDDDDD" stroke-width="0.5" stroke-miterlimit="10"/>
<path d="M1.80078 171H119.201" stroke="#DDDDDD" stroke-width="0.5" stroke-miterlimit="10"/>
<path d="M1.80078 179H119.201" stroke="#DDDDDD" stroke-width="0.5" stroke-miterlimit="10"/>
<path d="M4.40234 171V179" stroke="#DDDDDD" stroke-width="0.5" stroke-miterlimit="10"/>
<path d="M8.40234 171V179" stroke="#DDDDDD" stroke-width="0.5" stroke-miterlimit="10"/>
<path d="M12.4023 171V179" stroke="#DDDDDD" stroke-width="0.5" stroke-miterlimit="10"/>
<path d="M16.4023 171V179" stroke="#DDDDDD" stroke-width="0.5" stroke-miterlimit="10"/>
<path d="M20.4023 171V179" stroke="#DDDDDD" stroke-width="0.5" stroke-miterlimit="10"/>
<path d="M24.4023 171V179" stroke="#DDDDDD" stroke-width="0.5" stroke-miterlimit="10"/>
<path d="M28.4023 171V179" stroke="#DDDDDD" stroke-width="0.5" stroke-miterlimit="10"/>
<path d="M32.4023 171V179" stroke="#DDDDDD" stroke-width="0.5" stroke-miterlimit="10"/>
<path d="M36.4023 171V179" stroke="#DDDDDD" stroke-width="0.5" stroke-miterlimit="10"/>
<path d="M40.4023 171V179" stroke="#DDDDDD" stroke-width="0.5" stroke-miterlimit="10"/>
<path d="M44.4023 171V179" stroke="#DDDDDD" stroke-width="0.5" stroke-miterlimit="10"/>
<path d="M48.4023 171V179" stroke="#DDDDDD" stroke-width="0.5" stroke-miterlimit="10"/>
<path d="M52.4023 171V179" stroke="#DDDDDD" stroke-width="0.5" stroke-miterlimit="10"/>
<path d="M56.4023 171V179" stroke="#DDDDDD" stroke-width="0.5" stroke-miterlimit="10"/>
<path d="M60.4023 171V179" stroke="#DDDDDD" stroke-width="0.5" stroke-miterlimit="10"/>
<path d="M64.4023 171V179" stroke="#DDDDDD" stroke-width="0.5" stroke-miterlimit="10"/>
<path d="M68.4023 171V179" stroke="#DDDDDD" stroke-width="0.5" stroke-miterlimit="10"/>
<path d="M72.4023 171V179" stroke="#DDDDDD" stroke-width="0.5" stroke-miterlimit="10"/>
<path d="M76.4023 171V179" stroke="#DDDDDD" stroke-width="0.5" stroke-miterlimit="10"/>
<path d="M80.4023 171V179" stroke="#DDDDDD" stroke-width="0.5" stroke-miterlimit="10"/>
<path d="M84.4023 171V179" stroke="#DDDDDD" stroke-width="0.5" stroke-miterlimit="10"/>
<path d="M88.4023 171V179" stroke="#DDDDDD" stroke-width="0.5" stroke-miterlimit="10"/>
<path d="M92.4023 171V179" stroke="#DDDDDD" stroke-width="0.5" stroke-miterlimit="10"/>
<path d="M96.4023 171V179" stroke="#DDDDDD" stroke-width="0.5" stroke-miterlimit="10"/>
<path d="M100.402 171V179" stroke="#DDDDDD" stroke-width="0.5" stroke-miterlimit="10"/>
<path d="M104.402 171V179" stroke="#DDDDDD" stroke-width="0.5" stroke-miterlimit="10"/>
<path d="M108.402 171V179" stroke="#DDDDDD" stroke-width="0.5" stroke-miterlimit="10"/>
<path d="M112.402 171V179" stroke="#DDDDDD" stroke-width="0.5" stroke-miterlimit="10"/>
<path d="M116.402 171V179" stroke="#DDDDDD" stroke-width="0.5" stroke-miterlimit="10"/>
<path d="M124.9 20.9339V16.2727C124.9 14.2893 123.301 12.6033 121.203 12.6033H116.207C118.206 12.6033 119.904 11.0165 119.904 8.93388V4.66942C119.904 2.68595 118.305 1 116.207 1H5.69699C3.69862 1 2 2.58678 2 4.66942V9.33058C2 11.314 3.5987 13 5.69699 13H10.6929C8.69456 13 6.99594 14.5868 6.99594 16.6694V21.3306C6.99594 23.314 8.59464 25 10.6929 25H5.69699C3.69862 25 2 26.5868 2 28.6694V33.3306C2 35.314 3.5987 37 5.69699 37H10.6929C8.69456 37 6.99594 38.5868 6.99594 40.6694V45.3306C6.99594 47.314 8.59464 49 10.6929 49H5.69699C3.69862 49 2 50.5868 2 52.6694V57.3306C2 59.314 3.5987 61 5.69699 61H10.6929C8.69456 61 6.99594 62.5868 6.99594 64.6694V69.3306C6.99594 71.314 8.59464 73 10.6929 73H5.69699C3.69862 73 2 74.5868 2 76.6694V81.3306C2 83.314 3.5987 85 5.69699 85H10.6929C8.69456 85 6.99594 86.5868 6.99594 88.6694V93.3306C6.99594 95.314 8.59464 97 10.6929 97H5.69699C3.69862 97 2 98.5868 2 100.669V105.331C2 107.314 3.5987 109 5.69699 109H10.6929C8.69456 109 6.99594 110.587 6.99594 112.669V117.331C6.99594 119.314 8.59464 121 10.6929 121H5.69699C3.69862 121 2 122.587 2 124.669V129.331C2 131.314 3.5987 133 5.69699 133H10.6929C8.69456 133 6.99594 134.587 6.99594 136.669V141.331C6.99594 143.314 8.59464 145 10.6929 145H5.69699C3.69862 145 2 146.587 2 148.669V153.331C2 155.314 3.5987 157 5.69699 157H10.6929C8.69456 157 6.99594 158.587 6.99594 160.669V165.331C6.99594 167.314 8.59464 169 10.6929 169H5.69699C3.69862 169 2 170.587 2 172.669V177.331C2 179.314 3.5987 181 5.69699 181H116.307C118.305 181 120.004 179.413 120.004 177.331V172.669C120.004 170.686 118.405 169 116.307 169H121.303C123.301 169 125 167.413 125 165.331V160.669C125 158.686 123.401 157 121.303 157H116.307C118.305 157 120.004 155.413 120.004 153.331V148.669C120.004 146.686 118.405 145 116.307 145H121.303C123.301 145 125 143.413 125 141.331V136.669C125 134.686 123.401 133 121.303 133H116.307C118.305 133 120.004 131.413 120.004 129.331V124.669C120.004 122.686 118.405 121 116.307 121H121.303C123.301 121 125 119.413 125 117.331V112.669C125 110.686 123.401 109 121.303 109H116.307C118.305 109 120.004 107.413 120.004 105.331V100.669C120.004 98.6859 118.405 97 116.307 97H121.303C123.301 97 125 95.4132 125 93.3306V88.6694C125 86.686 123.401 85 121.303 85H116.307C118.305 85 120.004 83.4132 120.004 81.3306V76.6694C120.004 74.686 118.405 73 116.307 73H121.303C123.301 73 125 71.4132 125 69.3306V64.6694C125 62.6859 123.401 61 121.303 61H116.307C118.305 61 120.004 59.4132 120.004 57.3306V52.6694C120.004 50.6859 118.405 49 116.307 49H121.303C123.301 49 125 47.4132 125 45.3306V40.6694C125 38.6859 123.401 37 121.303 37H116.307C118.305 37 120.004 35.4132 120.004 33.3306V28.6694C120.004 26.6859 118.405 25 116.307 25H121.303C123.301 24.6033 124.9 23.0165 124.9 20.9339Z" stroke="#808080" stroke-miterlimit="10"/>
</g>
<path d="M106.678 111.748H111.808L91.2141 149.824H86.1325L106.678 111.748ZM76.4071 121.109C76.4071 119.456 76.7637 117.883 77.4769 116.392C78.2063 114.901 79.3085 113.758 80.7835 112.964C82.2748 112.154 84.0334 111.748 86.0596 111.748C89.0421 111.748 91.3924 112.599 93.1105 114.301C94.8287 116.003 95.6878 118.272 95.6878 121.109C95.6878 123.962 94.8287 126.239 93.1105 127.941C91.3924 129.643 89.0421 130.494 86.0596 130.494C84.0334 130.494 82.2748 130.097 80.7835 129.303C79.3085 128.492 78.2063 127.341 77.4769 125.85C76.7637 124.359 76.4071 122.779 76.4071 121.109ZM83.2392 121.158C83.2392 123.168 83.5634 124.626 84.2117 125.534C84.6332 126.134 85.2491 126.434 86.0596 126.434C86.87 126.434 87.4779 126.134 87.8831 125.534C88.5315 124.626 88.8557 123.168 88.8557 121.158C88.8557 119.164 88.5315 117.705 87.8831 116.781C87.4779 116.198 86.87 115.906 86.0596 115.906C85.2491 115.906 84.6332 116.198 84.2117 116.781C83.5634 117.689 83.2392 119.148 83.2392 121.158ZM102.107 140.39C102.107 138.72 102.463 137.148 103.176 135.673C103.89 134.182 104.992 133.031 106.483 132.22C107.974 131.41 109.725 131.005 111.735 131.005C114.734 131.005 117.092 131.864 118.81 133.582C120.528 135.284 121.387 137.553 121.387 140.39C121.387 143.226 120.528 145.504 118.81 147.222C117.092 148.924 114.734 149.775 111.735 149.775C109.725 149.775 107.974 149.37 106.483 148.559C104.992 147.749 103.89 146.606 103.176 145.131C102.463 143.64 102.107 142.059 102.107 140.39ZM108.939 140.438C108.939 142.448 109.263 143.907 109.911 144.815C110.317 145.398 110.924 145.69 111.735 145.69C112.545 145.69 113.161 145.398 113.583 144.815C114.231 143.907 114.555 142.448 114.555 140.438C114.555 138.429 114.231 136.962 113.583 136.038C113.161 135.454 112.545 135.162 111.735 135.162C110.924 135.162 110.317 135.462 109.911 136.062C109.263 136.97 108.939 138.429 108.939 140.438Z" fill="#A0A0A0"/>
<rect x="26" y="148" width="140" height="34" fill="#A0A0A0"/>
<path d="M47.0283 170.541V168.054L53.1982 165.628L47.0283 163.229V160.759L55.8701 164.582V166.691L47.0283 170.541ZM67.3223 172V169.407H62.0488V167.245L67.6387 159.062H69.7129V167.236H71.3125V169.407H69.7129V172H67.3223ZM67.3223 167.236V162.833L64.3604 167.236H67.3223ZM74.6172 165.048C73.9785 164.778 73.5127 164.409 73.2197 163.94C72.9326 163.466 72.7891 162.947 72.7891 162.385C72.7891 161.424 73.123 160.63 73.791 160.003C74.4648 159.376 75.4199 159.062 76.6562 159.062C77.8809 159.062 78.8301 159.376 79.5039 160.003C80.1836 160.63 80.5234 161.424 80.5234 162.385C80.5234 162.982 80.3682 163.516 80.0576 163.984C79.7471 164.447 79.3105 164.802 78.748 165.048C79.4629 165.335 80.0049 165.754 80.374 166.305C80.749 166.855 80.9365 167.491 80.9365 168.212C80.9365 169.401 80.5557 170.368 79.7939 171.112C79.0381 171.856 78.0303 172.229 76.7705 172.229C75.5986 172.229 74.623 171.921 73.8438 171.306C72.9238 170.579 72.4639 169.583 72.4639 168.317C72.4639 167.62 72.6367 166.981 72.9824 166.401C73.3281 165.815 73.873 165.364 74.6172 165.048ZM75.127 162.561C75.127 163.053 75.2646 163.437 75.54 163.712C75.8213 163.987 76.1934 164.125 76.6562 164.125C77.125 164.125 77.5 163.987 77.7812 163.712C78.0625 163.431 78.2031 163.044 78.2031 162.552C78.2031 162.089 78.0625 161.72 77.7812 161.444C77.5059 161.163 77.1396 161.022 76.6826 161.022C76.208 161.022 75.8301 161.163 75.5488 161.444C75.2676 161.726 75.127 162.098 75.127 162.561ZM74.8984 168.08C74.8984 168.76 75.0713 169.29 75.417 169.671C75.7686 170.052 76.2051 170.242 76.7266 170.242C77.2363 170.242 77.6582 170.061 77.9922 169.697C78.3262 169.328 78.4932 168.798 78.4932 168.106C78.4932 167.503 78.3232 167.02 77.9834 166.656C77.6436 166.287 77.2129 166.103 76.6914 166.103C76.0879 166.103 75.6367 166.311 75.3379 166.727C75.0449 167.143 74.8984 167.594 74.8984 168.08ZM86.6934 159.062C87.9414 159.062 88.917 159.508 89.6201 160.398C90.458 161.453 90.877 163.202 90.877 165.646C90.877 168.083 90.4551 169.835 89.6113 170.901C88.9141 171.78 87.9414 172.22 86.6934 172.22C85.4395 172.22 84.4287 171.739 83.6611 170.778C82.8936 169.812 82.5098 168.092 82.5098 165.619C82.5098 163.193 82.9316 161.447 83.7754 160.381C84.4727 159.502 85.4453 159.062 86.6934 159.062ZM86.6934 161.11C86.3945 161.11 86.1279 161.207 85.8936 161.4C85.6592 161.588 85.4775 161.928 85.3486 162.42C85.1787 163.059 85.0938 164.134 85.0938 165.646C85.0938 167.157 85.1699 168.197 85.3223 168.766C85.4746 169.328 85.665 169.703 85.8936 169.891C86.1279 170.078 86.3945 170.172 86.6934 170.172C86.9922 170.172 87.2588 170.078 87.4932 169.891C87.7275 169.697 87.9092 169.354 88.0381 168.862C88.208 168.229 88.293 167.157 88.293 165.646C88.293 164.134 88.2168 163.097 88.0645 162.534C87.9121 161.966 87.7188 161.588 87.4844 161.4C87.2559 161.207 86.9922 161.11 86.6934 161.11ZM101.723 159.062C102.971 159.062 103.946 159.508 104.649 160.398C105.487 161.453 105.906 163.202 105.906 165.646C105.906 168.083 105.484 169.835 104.641 170.901C103.943 171.78 102.971 172.22 101.723 172.22C100.469 172.22 99.458 171.739 98.6904 170.778C97.9229 169.812 97.5391 168.092 97.5391 165.619C97.5391 163.193 97.9609 161.447 98.8047 160.381C99.502 159.502 100.475 159.062 101.723 159.062ZM101.723 161.11C101.424 161.11 101.157 161.207 100.923 161.4C100.688 161.588 100.507 161.928 100.378 162.42C100.208 163.059 100.123 164.134 100.123 165.646C100.123 167.157 100.199 168.197 100.352 168.766C100.504 169.328 100.694 169.703 100.923 169.891C101.157 170.078 101.424 170.172 101.723 170.172C102.021 170.172 102.288 170.078 102.522 169.891C102.757 169.697 102.938 169.354 103.067 168.862C103.237 168.229 103.322 167.157 103.322 165.646C103.322 164.134 103.246 163.097 103.094 162.534C102.941 161.966 102.748 161.588 102.514 161.4C102.285 161.207 102.021 161.11 101.723 161.11ZM111.742 159.062C112.99 159.062 113.966 159.508 114.669 160.398C115.507 161.453 115.926 163.202 115.926 165.646C115.926 168.083 115.504 169.835 114.66 170.901C113.963 171.78 112.99 172.22 111.742 172.22C110.488 172.22 109.478 171.739 108.71 170.778C107.942 169.812 107.559 168.092 107.559 165.619C107.559 163.193 107.98 161.447 108.824 160.381C109.521 159.502 110.494 159.062 111.742 159.062ZM111.742 161.11C111.443 161.11 111.177 161.207 110.942 161.4C110.708 161.588 110.526 161.928 110.397 162.42C110.228 163.059 110.143 164.134 110.143 165.646C110.143 167.157 110.219 168.197 110.371 168.766C110.523 169.328 110.714 169.703 110.942 169.891C111.177 170.078 111.443 170.172 111.742 170.172C112.041 170.172 112.308 170.078 112.542 169.891C112.776 169.697 112.958 169.354 113.087 168.862C113.257 168.229 113.342 167.157 113.342 165.646C113.342 164.134 113.266 163.097 113.113 162.534C112.961 161.966 112.768 161.588 112.533 161.4C112.305 161.207 112.041 161.11 111.742 161.11ZM121.762 159.062C123.01 159.062 123.985 159.508 124.688 160.398C125.526 161.453 125.945 163.202 125.945 165.646C125.945 168.083 125.523 169.835 124.68 170.901C123.982 171.78 123.01 172.22 121.762 172.22C120.508 172.22 119.497 171.739 118.729 170.778C117.962 169.812 117.578 168.092 117.578 165.619C117.578 163.193 118 161.447 118.844 160.381C119.541 159.502 120.514 159.062 121.762 159.062ZM121.762 161.11C121.463 161.11 121.196 161.207 120.962 161.4C120.728 161.588 120.546 161.928 120.417 162.42C120.247 163.059 120.162 164.134 120.162 165.646C120.162 167.157 120.238 168.197 120.391 168.766C120.543 169.328 120.733 169.703 120.962 169.891C121.196 170.078 121.463 170.172 121.762 170.172C122.061 170.172 122.327 170.078 122.562 169.891C122.796 169.697 122.978 169.354 123.106 168.862C123.276 168.229 123.361 167.157 123.361 165.646C123.361 164.134 123.285 163.097 123.133 162.534C122.98 161.966 122.787 161.588 122.553 161.4C122.324 161.207 122.061 161.11 121.762 161.11ZM134.228 167.014V168.202H132.248V170.056H134.228V172H136.802V170.056H141.374V168.202H136.802V167.014H139.646C140.996 167.014 142.058 166.654 142.85 165.952C143.642 165.25 144.038 164.332 144.038 163.198C144.038 162.064 143.642 161.164 142.85 160.462C142.058 159.76 140.996 159.4 139.646 159.4H134.228V165.16H132.248V167.014H134.228ZM136.802 161.668H139.304C140.618 161.668 141.428 162.28 141.428 163.414C141.428 164.512 140.618 165.16 139.304 165.16H136.802V161.668Z" fill="white"/>
<path d="M58.0215 149V133.731H26.9668V120.999L59.8848 72.8125H72.0996V120.947H81.5195V133.731H72.0996V149H58.0215ZM58.0215 120.947V95.0166L40.5791 120.947H58.0215Z" fill="#A0A0A0"/>
<defs>
<clipPath id="clip0">
<rect width="126" height="182" fill="white"/>
</clipPath>
</defs>
</svg>
