<svg width="166" height="148" viewBox="0 0 166 148" fill="none" xmlns="http://www.w3.org/2000/svg">
<g clip-path="url(#clip0)">
<path d="M124.5 21.1V16.4C124.5 14.4 122.9 12.7 120.8 12.7H115.8C117.8 12.7 119.5 11.1 119.5 9V4.7C119.5 2.7 117.9 1 115.8 1H5.2C3.2 1 1.5 2.6 1.5 4.7V9.4C1.5 11.4 3.1 13.1 5.2 13.1H10.2C8.2 13.1 6.5 14.7 6.5 16.8V21.5C6.5 23.5 8.1 25.2 10.2 25.2H5.2C3.2 25.2 1.5 26.8 1.5 28.9V33.6C1.5 35.6 3.1 37.3 5.2 37.3H10.2C8.2 37.3 6.5 38.9 6.5 41V45.7C6.5 47.7 8.1 49.4 10.2 49.4H5.2C3.2 49.4 1.5 51 1.5 53.1V57.8C1.5 59.8 3.1 61.5 5.2 61.5H10.2C8.2 61.5 6.5 63.1 6.5 65.2V69.9C6.5 71.9 8.1 73.6 10.2 73.6H5.2C3.2 73.6 1.5 75.2 1.5 77.3V82C1.5 84 3.1 85.7 5.2 85.7H10.2C8.2 85.7 6.5 87.3 6.5 89.4V94.1C6.5 96.1 8.1 97.8 10.2 97.8H5.2C3.2 97.8 1.5 99.4 1.5 101.5V106.2C1.5 108.2 3.1 109.9 5.2 109.9H10.2C8.2 109.9 6.5 111.5 6.5 113.6V118.3C6.5 120.3 8.1 122 10.2 122H5.2C3.2 122 1.5 123.6 1.5 125.7V130.4C1.5 132.4 3.1 134.1 5.2 134.1H115.9C117.9 134.1 119.6 132.5 119.6 130.4V125.7C119.6 123.7 118 122 115.9 122H120.9C122.9 122 124.6 120.4 124.6 118.3V113.6C124.6 111.6 123 109.9 120.9 109.9H115.9C117.9 109.9 119.6 108.3 119.6 106.2V101.5C119.6 99.5 118 97.8 115.9 97.8H120.9C122.9 97.8 124.6 96.2 124.6 94.1V89.4C124.6 87.4 123 85.7 120.9 85.7H115.9C117.9 85.7 119.6 84.1 119.6 82V77.3C119.6 75.3 118 73.6 115.9 73.6H120.9C122.9 73.6 124.6 72 124.6 69.9V65.2C124.6 63.2 123 61.5 120.9 61.5H115.9C117.9 61.5 119.6 59.9 119.6 57.8V53.1C119.6 51.1 118 49.4 115.9 49.4H120.9C122.9 49.4 124.6 47.8 124.6 45.7V41C124.6 39 123 37.3 120.9 37.3H115.9C117.9 37.3 119.6 35.7 119.6 33.6V28.9C119.6 26.9 118 25.2 115.9 25.2H120.9C122.9 24.8 124.5 23.2 124.5 21.1Z" fill="white"/>
<path d="M121.203 25H10.6969C8.69856 25 7 23.4132 7 21.3306V16.6694C7 14.686 8.59865 13 10.6969 13H121.303C123.301 13 125 14.5868 125 16.6694V21.3306C124.9 23.4132 123.301 25 121.203 25Z" stroke="#DDDDDD" stroke-miterlimit="10"/>
<path d="M116.203 13H5.69687C3.69856 13 2 11.4 2 9.3V4.7C2 2.7 3.59865 1 5.69687 1H116.303C118.301 1 120 2.6 120 4.7V9.4C119.9 11.4 118.301 13 116.203 13Z" stroke="#DDDDDD" stroke-miterlimit="10"/>
<path d="M121.203 73H10.6969C8.69856 73 7 71.4132 7 69.3306V64.6694C7 62.6859 8.59865 61 10.6969 61H121.303C123.301 61 125 62.5868 125 64.6694V69.3306C124.9 71.4132 123.301 73 121.203 73Z" stroke="#DDDDDD" stroke-miterlimit="10"/>
<path d="M116.203 61H5.69687C3.69856 61 2 59.4132 2 57.3306V52.6694C2 50.6859 3.59865 49 5.69687 49H116.303C118.301 49 120 50.5868 120 52.6694V57.3306C119.9 59.4132 118.301 61 116.203 61Z" stroke="#DDDDDD" stroke-miterlimit="10"/>
<path d="M121.203 49H10.6969C8.69856 49 7 47.4132 7 45.3306V40.6694C7 38.6859 8.59865 37 10.6969 37H121.303C123.301 37 125 38.5868 125 40.6694V45.3306C124.9 47.4132 123.301 49 121.203 49Z" stroke="#DDDDDD" stroke-miterlimit="10"/>
<path d="M116.203 37H5.69687C3.69856 37 2 35.4132 2 33.3306V28.6694C2 26.686 3.59865 25 5.69687 25H116.303C118.301 25 120 26.5868 120 28.6694V33.3306C119.9 35.4132 118.301 37 116.203 37Z" stroke="#DDDDDD" stroke-miterlimit="10"/>
<path d="M121.203 97H10.6969C8.69856 97 7 95.4132 7 93.3306V88.6694C7 86.6859 8.59865 85 10.6969 85H121.303C123.301 85 125 86.5868 125 88.6694V93.3306C124.9 95.4132 123.301 97 121.203 97Z" stroke="#DDDDDD" stroke-miterlimit="10"/>
<path d="M116.203 85H5.69687C3.69856 85 2 83.4132 2 81.3306V76.6694C2 74.6859 3.59865 73 5.69687 73H116.303C118.301 73 120 74.5868 120 76.6694V81.3306C119.9 83.4132 118.301 85 116.203 85Z" stroke="#DDDDDD" stroke-miterlimit="10"/>
<path d="M116.203 133H5.69687C3.69856 133 2 131.413 2 129.331V124.669C2 122.686 3.59865 121 5.69687 121H116.303C118.301 121 120 122.587 120 124.669V129.331C119.9 131.413 118.301 133 116.203 133Z" stroke="#DDDDDD" stroke-miterlimit="10"/>
<path d="M121.203 121H10.6969C8.69856 121 7 119.413 7 117.331V112.669C7 110.686 8.59865 109 10.6969 109H121.303C123.301 109 125 110.587 125 112.669V117.331C124.9 119.413 123.301 121 121.203 121Z" stroke="#DDDDDD" stroke-miterlimit="10"/>
<path d="M116.203 109H5.69687C3.69856 109 2 107.413 2 105.331V100.669C2 98.6859 3.59865 97 5.69687 97H116.303C118.301 97 120 98.5868 120 100.669V105.331C119.9 107.413 118.301 109 116.203 109Z" stroke="#DDDDDD" stroke-miterlimit="10"/>
<path d="M1.80005 3H119.2" stroke="#DDDDDD" stroke-width="0.5" stroke-miterlimit="10"/>
<path d="M1.80005 11H119.2" stroke="#DDDDDD" stroke-width="0.5" stroke-miterlimit="10"/>
<path d="M4.40015 3V11" stroke="#DDDDDD" stroke-width="0.5" stroke-miterlimit="10"/>
<path d="M8.40015 3V11" stroke="#DDDDDD" stroke-width="0.5" stroke-miterlimit="10"/>
<path d="M12.4001 3V11" stroke="#DDDDDD" stroke-width="0.5" stroke-miterlimit="10"/>
<path d="M16.4001 3V11" stroke="#DDDDDD" stroke-width="0.5" stroke-miterlimit="10"/>
<path d="M20.4001 3V11" stroke="#DDDDDD" stroke-width="0.5" stroke-miterlimit="10"/>
<path d="M24.4001 3V11" stroke="#DDDDDD" stroke-width="0.5" stroke-miterlimit="10"/>
<path d="M28.4001 3V11" stroke="#DDDDDD" stroke-width="0.5" stroke-miterlimit="10"/>
<path d="M32.4001 3V11" stroke="#DDDDDD" stroke-width="0.5" stroke-miterlimit="10"/>
<path d="M36.4001 3V11" stroke="#DDDDDD" stroke-width="0.5" stroke-miterlimit="10"/>
<path d="M40.4001 3V11" stroke="#DDDDDD" stroke-width="0.5" stroke-miterlimit="10"/>
<path d="M44.4001 3V11" stroke="#DDDDDD" stroke-width="0.5" stroke-miterlimit="10"/>
<path d="M48.4001 3V11" stroke="#DDDDDD" stroke-width="0.5" stroke-miterlimit="10"/>
<path d="M52.4001 3V11" stroke="#DDDDDD" stroke-width="0.5" stroke-miterlimit="10"/>
<path d="M56.4001 3V11" stroke="#DDDDDD" stroke-width="0.5" stroke-miterlimit="10"/>
<path d="M60.4001 3V11" stroke="#DDDDDD" stroke-width="0.5" stroke-miterlimit="10"/>
<path d="M64.4001 3V11" stroke="#DDDDDD" stroke-width="0.5" stroke-miterlimit="10"/>
<path d="M68.4001 3V11" stroke="#DDDDDD" stroke-width="0.5" stroke-miterlimit="10"/>
<path d="M72.4001 3V11" stroke="#DDDDDD" stroke-width="0.5" stroke-miterlimit="10"/>
<path d="M76.4001 3V11" stroke="#DDDDDD" stroke-width="0.5" stroke-miterlimit="10"/>
<path d="M80.4001 3V11" stroke="#DDDDDD" stroke-width="0.5" stroke-miterlimit="10"/>
<path d="M84.4001 3V11" stroke="#DDDDDD" stroke-width="0.5" stroke-miterlimit="10"/>
<path d="M88.4001 3V11" stroke="#DDDDDD" stroke-width="0.5" stroke-miterlimit="10"/>
<path d="M92.4001 3V11" stroke="#DDDDDD" stroke-width="0.5" stroke-miterlimit="10"/>
<path d="M96.4001 3V11" stroke="#DDDDDD" stroke-width="0.5" stroke-miterlimit="10"/>
<path d="M100.4 3V11" stroke="#DDDDDD" stroke-width="0.5" stroke-miterlimit="10"/>
<path d="M104.4 3V11" stroke="#DDDDDD" stroke-width="0.5" stroke-miterlimit="10"/>
<path d="M108.4 3V11" stroke="#DDDDDD" stroke-width="0.5" stroke-miterlimit="10"/>
<path d="M112.4 3V11" stroke="#DDDDDD" stroke-width="0.5" stroke-miterlimit="10"/>
<path d="M116.4 3V11" stroke="#DDDDDD" stroke-width="0.5" stroke-miterlimit="10"/>
<path d="M6.80005 15H124.2" stroke="#DDDDDD" stroke-width="0.5" stroke-miterlimit="10"/>
<path d="M6.80005 23H124.2" stroke="#DDDDDD" stroke-width="0.5" stroke-miterlimit="10"/>
<path d="M9.40015 15V23" stroke="#DDDDDD" stroke-width="0.5" stroke-miterlimit="10"/>
<path d="M13.4001 15V23" stroke="#DDDDDD" stroke-width="0.5" stroke-miterlimit="10"/>
<path d="M17.4001 15V23" stroke="#DDDDDD" stroke-width="0.5" stroke-miterlimit="10"/>
<path d="M21.4001 15V23" stroke="#DDDDDD" stroke-width="0.5" stroke-miterlimit="10"/>
<path d="M25.4001 15V23" stroke="#DDDDDD" stroke-width="0.5" stroke-miterlimit="10"/>
<path d="M29.4001 15V23" stroke="#DDDDDD" stroke-width="0.5" stroke-miterlimit="10"/>
<path d="M33.4001 15V23" stroke="#DDDDDD" stroke-width="0.5" stroke-miterlimit="10"/>
<path d="M37.4001 15V23" stroke="#DDDDDD" stroke-width="0.5" stroke-miterlimit="10"/>
<path d="M41.4001 15V23" stroke="#DDDDDD" stroke-width="0.5" stroke-miterlimit="10"/>
<path d="M45.4001 15V23" stroke="#DDDDDD" stroke-width="0.5" stroke-miterlimit="10"/>
<path d="M49.4001 15V23" stroke="#DDDDDD" stroke-width="0.5" stroke-miterlimit="10"/>
<path d="M53.4001 15V23" stroke="#DDDDDD" stroke-width="0.5" stroke-miterlimit="10"/>
<path d="M57.4001 15V23" stroke="#DDDDDD" stroke-width="0.5" stroke-miterlimit="10"/>
<path d="M61.4001 15V23" stroke="#DDDDDD" stroke-width="0.5" stroke-miterlimit="10"/>
<path d="M65.4001 15V23" stroke="#DDDDDD" stroke-width="0.5" stroke-miterlimit="10"/>
<path d="M69.4001 15V23" stroke="#DDDDDD" stroke-width="0.5" stroke-miterlimit="10"/>
<path d="M73.4001 15V23" stroke="#DDDDDD" stroke-width="0.5" stroke-miterlimit="10"/>
<path d="M77.4001 15V23" stroke="#DDDDDD" stroke-width="0.5" stroke-miterlimit="10"/>
<path d="M81.4001 15V23" stroke="#DDDDDD" stroke-width="0.5" stroke-miterlimit="10"/>
<path d="M85.4001 15V23" stroke="#DDDDDD" stroke-width="0.5" stroke-miterlimit="10"/>
<path d="M89.4001 15V23" stroke="#DDDDDD" stroke-width="0.5" stroke-miterlimit="10"/>
<path d="M93.4001 15V23" stroke="#DDDDDD" stroke-width="0.5" stroke-miterlimit="10"/>
<path d="M97.4001 15V23" stroke="#DDDDDD" stroke-width="0.5" stroke-miterlimit="10"/>
<path d="M101.4 15V23" stroke="#DDDDDD" stroke-width="0.5" stroke-miterlimit="10"/>
<path d="M105.4 15V23" stroke="#DDDDDD" stroke-width="0.5" stroke-miterlimit="10"/>
<path d="M109.4 15V23" stroke="#DDDDDD" stroke-width="0.5" stroke-miterlimit="10"/>
<path d="M113.4 15V23" stroke="#DDDDDD" stroke-width="0.5" stroke-miterlimit="10"/>
<path d="M117.4 15V23" stroke="#DDDDDD" stroke-width="0.5" stroke-miterlimit="10"/>
<path d="M121.4 15V23" stroke="#DDDDDD" stroke-width="0.5" stroke-miterlimit="10"/>
<path d="M1.80005 27H119.2" stroke="#DDDDDD" stroke-width="0.5" stroke-miterlimit="10"/>
<path d="M1.80005 35H119.2" stroke="#DDDDDD" stroke-width="0.5" stroke-miterlimit="10"/>
<path d="M4.40015 27V35" stroke="#DDDDDD" stroke-width="0.5" stroke-miterlimit="10"/>
<path d="M8.40015 27V35" stroke="#DDDDDD" stroke-width="0.5" stroke-miterlimit="10"/>
<path d="M12.4001 27V35" stroke="#DDDDDD" stroke-width="0.5" stroke-miterlimit="10"/>
<path d="M16.4001 27V35" stroke="#DDDDDD" stroke-width="0.5" stroke-miterlimit="10"/>
<path d="M20.4001 27V35" stroke="#DDDDDD" stroke-width="0.5" stroke-miterlimit="10"/>
<path d="M24.4001 27V35" stroke="#DDDDDD" stroke-width="0.5" stroke-miterlimit="10"/>
<path d="M28.4001 27V35" stroke="#DDDDDD" stroke-width="0.5" stroke-miterlimit="10"/>
<path d="M32.4001 27V35" stroke="#DDDDDD" stroke-width="0.5" stroke-miterlimit="10"/>
<path d="M36.4001 27V35" stroke="#DDDDDD" stroke-width="0.5" stroke-miterlimit="10"/>
<path d="M40.4001 27V35" stroke="#DDDDDD" stroke-width="0.5" stroke-miterlimit="10"/>
<path d="M44.4001 27V35" stroke="#DDDDDD" stroke-width="0.5" stroke-miterlimit="10"/>
<path d="M48.4001 27V35" stroke="#DDDDDD" stroke-width="0.5" stroke-miterlimit="10"/>
<path d="M52.4001 27V35" stroke="#DDDDDD" stroke-width="0.5" stroke-miterlimit="10"/>
<path d="M56.4001 27V35" stroke="#DDDDDD" stroke-width="0.5" stroke-miterlimit="10"/>
<path d="M60.4001 27V35" stroke="#DDDDDD" stroke-width="0.5" stroke-miterlimit="10"/>
<path d="M64.4001 27V35" stroke="#DDDDDD" stroke-width="0.5" stroke-miterlimit="10"/>
<path d="M68.4001 27V35" stroke="#DDDDDD" stroke-width="0.5" stroke-miterlimit="10"/>
<path d="M72.4001 27V35" stroke="#DDDDDD" stroke-width="0.5" stroke-miterlimit="10"/>
<path d="M76.4001 27V35" stroke="#DDDDDD" stroke-width="0.5" stroke-miterlimit="10"/>
<path d="M80.4001 27V35" stroke="#DDDDDD" stroke-width="0.5" stroke-miterlimit="10"/>
<path d="M84.4001 27V35" stroke="#DDDDDD" stroke-width="0.5" stroke-miterlimit="10"/>
<path d="M88.4001 27V35" stroke="#DDDDDD" stroke-width="0.5" stroke-miterlimit="10"/>
<path d="M92.4001 27V35" stroke="#DDDDDD" stroke-width="0.5" stroke-miterlimit="10"/>
<path d="M96.4001 27V35" stroke="#DDDDDD" stroke-width="0.5" stroke-miterlimit="10"/>
<path d="M100.4 27V35" stroke="#DDDDDD" stroke-width="0.5" stroke-miterlimit="10"/>
<path d="M104.4 27V35" stroke="#DDDDDD" stroke-width="0.5" stroke-miterlimit="10"/>
<path d="M108.4 27V35" stroke="#DDDDDD" stroke-width="0.5" stroke-miterlimit="10"/>
<path d="M112.4 27V35" stroke="#DDDDDD" stroke-width="0.5" stroke-miterlimit="10"/>
<path d="M116.4 27V35" stroke="#DDDDDD" stroke-width="0.5" stroke-miterlimit="10"/>
<path d="M6.80005 39H124.2" stroke="#DDDDDD" stroke-width="0.5" stroke-miterlimit="10"/>
<path d="M6.80005 47H124.2" stroke="#DDDDDD" stroke-width="0.5" stroke-miterlimit="10"/>
<path d="M9.40015 39V47" stroke="#DDDDDD" stroke-width="0.5" stroke-miterlimit="10"/>
<path d="M13.4001 39V47" stroke="#DDDDDD" stroke-width="0.5" stroke-miterlimit="10"/>
<path d="M17.4001 39V47" stroke="#DDDDDD" stroke-width="0.5" stroke-miterlimit="10"/>
<path d="M21.4001 39V47" stroke="#DDDDDD" stroke-width="0.5" stroke-miterlimit="10"/>
<path d="M25.4001 39V47" stroke="#DDDDDD" stroke-width="0.5" stroke-miterlimit="10"/>
<path d="M29.4001 39V47" stroke="#DDDDDD" stroke-width="0.5" stroke-miterlimit="10"/>
<path d="M33.4001 39V47" stroke="#DDDDDD" stroke-width="0.5" stroke-miterlimit="10"/>
<path d="M37.4001 39V47" stroke="#DDDDDD" stroke-width="0.5" stroke-miterlimit="10"/>
<path d="M41.4001 39V47" stroke="#DDDDDD" stroke-width="0.5" stroke-miterlimit="10"/>
<path d="M45.4001 39V47" stroke="#DDDDDD" stroke-width="0.5" stroke-miterlimit="10"/>
<path d="M49.4001 39V47" stroke="#DDDDDD" stroke-width="0.5" stroke-miterlimit="10"/>
<path d="M53.4001 39V47" stroke="#DDDDDD" stroke-width="0.5" stroke-miterlimit="10"/>
<path d="M57.4001 39V47" stroke="#DDDDDD" stroke-width="0.5" stroke-miterlimit="10"/>
<path d="M61.4001 39V47" stroke="#DDDDDD" stroke-width="0.5" stroke-miterlimit="10"/>
<path d="M65.4001 39V47" stroke="#DDDDDD" stroke-width="0.5" stroke-miterlimit="10"/>
<path d="M69.4001 39V47" stroke="#DDDDDD" stroke-width="0.5" stroke-miterlimit="10"/>
<path d="M73.4001 39V47" stroke="#DDDDDD" stroke-width="0.5" stroke-miterlimit="10"/>
<path d="M77.4001 39V47" stroke="#DDDDDD" stroke-width="0.5" stroke-miterlimit="10"/>
<path d="M81.4001 39V47" stroke="#DDDDDD" stroke-width="0.5" stroke-miterlimit="10"/>
<path d="M85.4001 39V47" stroke="#DDDDDD" stroke-width="0.5" stroke-miterlimit="10"/>
<path d="M89.4001 39V47" stroke="#DDDDDD" stroke-width="0.5" stroke-miterlimit="10"/>
<path d="M93.4001 39V47" stroke="#DDDDDD" stroke-width="0.5" stroke-miterlimit="10"/>
<path d="M97.4001 39V47" stroke="#DDDDDD" stroke-width="0.5" stroke-miterlimit="10"/>
<path d="M101.4 39V47" stroke="#DDDDDD" stroke-width="0.5" stroke-miterlimit="10"/>
<path d="M105.4 39V47" stroke="#DDDDDD" stroke-width="0.5" stroke-miterlimit="10"/>
<path d="M109.4 39V47" stroke="#DDDDDD" stroke-width="0.5" stroke-miterlimit="10"/>
<path d="M113.4 39V47" stroke="#DDDDDD" stroke-width="0.5" stroke-miterlimit="10"/>
<path d="M117.4 39V47" stroke="#DDDDDD" stroke-width="0.5" stroke-miterlimit="10"/>
<path d="M121.4 39V47" stroke="#DDDDDD" stroke-width="0.5" stroke-miterlimit="10"/>
<path d="M1.80005 51H119.2" stroke="#DDDDDD" stroke-width="0.5" stroke-miterlimit="10"/>
<path d="M1.80005 59H119.2" stroke="#DDDDDD" stroke-width="0.5" stroke-miterlimit="10"/>
<path d="M4.40015 51V59" stroke="#DDDDDD" stroke-width="0.5" stroke-miterlimit="10"/>
<path d="M8.40015 51V59" stroke="#DDDDDD" stroke-width="0.5" stroke-miterlimit="10"/>
<path d="M12.4001 51V59" stroke="#DDDDDD" stroke-width="0.5" stroke-miterlimit="10"/>
<path d="M16.4001 51V59" stroke="#DDDDDD" stroke-width="0.5" stroke-miterlimit="10"/>
<path d="M20.4001 51V59" stroke="#DDDDDD" stroke-width="0.5" stroke-miterlimit="10"/>
<path d="M24.4001 51V59" stroke="#DDDDDD" stroke-width="0.5" stroke-miterlimit="10"/>
<path d="M28.4001 51V59" stroke="#DDDDDD" stroke-width="0.5" stroke-miterlimit="10"/>
<path d="M32.4001 51V59" stroke="#DDDDDD" stroke-width="0.5" stroke-miterlimit="10"/>
<path d="M36.4001 51V59" stroke="#DDDDDD" stroke-width="0.5" stroke-miterlimit="10"/>
<path d="M40.4001 51V59" stroke="#DDDDDD" stroke-width="0.5" stroke-miterlimit="10"/>
<path d="M44.4001 51V59" stroke="#DDDDDD" stroke-width="0.5" stroke-miterlimit="10"/>
<path d="M48.4001 51V59" stroke="#DDDDDD" stroke-width="0.5" stroke-miterlimit="10"/>
<path d="M52.4001 51V59" stroke="#DDDDDD" stroke-width="0.5" stroke-miterlimit="10"/>
<path d="M56.4001 51V59" stroke="#DDDDDD" stroke-width="0.5" stroke-miterlimit="10"/>
<path d="M60.4001 51V59" stroke="#DDDDDD" stroke-width="0.5" stroke-miterlimit="10"/>
<path d="M64.4001 51V59" stroke="#DDDDDD" stroke-width="0.5" stroke-miterlimit="10"/>
<path d="M68.4001 51V59" stroke="#DDDDDD" stroke-width="0.5" stroke-miterlimit="10"/>
<path d="M72.4001 51V59" stroke="#DDDDDD" stroke-width="0.5" stroke-miterlimit="10"/>
<path d="M76.4001 51V59" stroke="#DDDDDD" stroke-width="0.5" stroke-miterlimit="10"/>
<path d="M80.4001 51V59" stroke="#DDDDDD" stroke-width="0.5" stroke-miterlimit="10"/>
<path d="M84.4001 51V59" stroke="#DDDDDD" stroke-width="0.5" stroke-miterlimit="10"/>
<path d="M88.4001 51V59" stroke="#DDDDDD" stroke-width="0.5" stroke-miterlimit="10"/>
<path d="M92.4001 51V59" stroke="#DDDDDD" stroke-width="0.5" stroke-miterlimit="10"/>
<path d="M96.4001 51V59" stroke="#DDDDDD" stroke-width="0.5" stroke-miterlimit="10"/>
<path d="M100.4 51V59" stroke="#DDDDDD" stroke-width="0.5" stroke-miterlimit="10"/>
<path d="M104.4 51V59" stroke="#DDDDDD" stroke-width="0.5" stroke-miterlimit="10"/>
<path d="M108.4 51V59" stroke="#DDDDDD" stroke-width="0.5" stroke-miterlimit="10"/>
<path d="M112.4 51V59" stroke="#DDDDDD" stroke-width="0.5" stroke-miterlimit="10"/>
<path d="M116.4 51V59" stroke="#DDDDDD" stroke-width="0.5" stroke-miterlimit="10"/>
<path d="M6.80005 63H124.2" stroke="#DDDDDD" stroke-width="0.5" stroke-miterlimit="10"/>
<path d="M6.80005 71H124.2" stroke="#DDDDDD" stroke-width="0.5" stroke-miterlimit="10"/>
<path d="M9.40015 63V71" stroke="#DDDDDD" stroke-width="0.5" stroke-miterlimit="10"/>
<path d="M13.4001 63V71" stroke="#DDDDDD" stroke-width="0.5" stroke-miterlimit="10"/>
<path d="M17.4001 63V71" stroke="#DDDDDD" stroke-width="0.5" stroke-miterlimit="10"/>
<path d="M21.4001 63V71" stroke="#DDDDDD" stroke-width="0.5" stroke-miterlimit="10"/>
<path d="M25.4001 63V71" stroke="#DDDDDD" stroke-width="0.5" stroke-miterlimit="10"/>
<path d="M29.4001 63V71" stroke="#DDDDDD" stroke-width="0.5" stroke-miterlimit="10"/>
<path d="M33.4001 63V71" stroke="#DDDDDD" stroke-width="0.5" stroke-miterlimit="10"/>
<path d="M37.4001 63V71" stroke="#DDDDDD" stroke-width="0.5" stroke-miterlimit="10"/>
<path d="M41.4001 63V71" stroke="#DDDDDD" stroke-width="0.5" stroke-miterlimit="10"/>
<path d="M45.4001 63V71" stroke="#DDDDDD" stroke-width="0.5" stroke-miterlimit="10"/>
<path d="M49.4001 63V71" stroke="#DDDDDD" stroke-width="0.5" stroke-miterlimit="10"/>
<path d="M53.4001 63V71" stroke="#DDDDDD" stroke-width="0.5" stroke-miterlimit="10"/>
<path d="M57.4001 63V71" stroke="#DDDDDD" stroke-width="0.5" stroke-miterlimit="10"/>
<path d="M61.4001 63V71" stroke="#DDDDDD" stroke-width="0.5" stroke-miterlimit="10"/>
<path d="M65.4001 63V71" stroke="#DDDDDD" stroke-width="0.5" stroke-miterlimit="10"/>
<path d="M69.4001 63V71" stroke="#DDDDDD" stroke-width="0.5" stroke-miterlimit="10"/>
<path d="M73.4001 63V71" stroke="#DDDDDD" stroke-width="0.5" stroke-miterlimit="10"/>
<path d="M77.4001 63V71" stroke="#DDDDDD" stroke-width="0.5" stroke-miterlimit="10"/>
<path d="M81.4001 63V71" stroke="#DDDDDD" stroke-width="0.5" stroke-miterlimit="10"/>
<path d="M85.4001 63V71" stroke="#DDDDDD" stroke-width="0.5" stroke-miterlimit="10"/>
<path d="M89.4001 63V71" stroke="#DDDDDD" stroke-width="0.5" stroke-miterlimit="10"/>
<path d="M93.4001 63V71" stroke="#DDDDDD" stroke-width="0.5" stroke-miterlimit="10"/>
<path d="M97.4001 63V71" stroke="#DDDDDD" stroke-width="0.5" stroke-miterlimit="10"/>
<path d="M101.4 63V71" stroke="#DDDDDD" stroke-width="0.5" stroke-miterlimit="10"/>
<path d="M105.4 63V71" stroke="#DDDDDD" stroke-width="0.5" stroke-miterlimit="10"/>
<path d="M109.4 63V71" stroke="#DDDDDD" stroke-width="0.5" stroke-miterlimit="10"/>
<path d="M113.4 63V71" stroke="#DDDDDD" stroke-width="0.5" stroke-miterlimit="10"/>
<path d="M117.4 63V71" stroke="#DDDDDD" stroke-width="0.5" stroke-miterlimit="10"/>
<path d="M121.4 63V71" stroke="#DDDDDD" stroke-width="0.5" stroke-miterlimit="10"/>
<path d="M1.80005 75H119.2" stroke="#DDDDDD" stroke-width="0.5" stroke-miterlimit="10"/>
<path d="M1.80005 83H119.2" stroke="#DDDDDD" stroke-width="0.5" stroke-miterlimit="10"/>
<path d="M4.40015 75V83" stroke="#DDDDDD" stroke-width="0.5" stroke-miterlimit="10"/>
<path d="M8.40015 75V83" stroke="#DDDDDD" stroke-width="0.5" stroke-miterlimit="10"/>
<path d="M12.4001 75V83" stroke="#DDDDDD" stroke-width="0.5" stroke-miterlimit="10"/>
<path d="M16.4001 75V83" stroke="#DDDDDD" stroke-width="0.5" stroke-miterlimit="10"/>
<path d="M20.4001 75V83" stroke="#DDDDDD" stroke-width="0.5" stroke-miterlimit="10"/>
<path d="M24.4001 75V83" stroke="#DDDDDD" stroke-width="0.5" stroke-miterlimit="10"/>
<path d="M28.4001 75V83" stroke="#DDDDDD" stroke-width="0.5" stroke-miterlimit="10"/>
<path d="M32.4001 75V83" stroke="#DDDDDD" stroke-width="0.5" stroke-miterlimit="10"/>
<path d="M36.4001 75V83" stroke="#DDDDDD" stroke-width="0.5" stroke-miterlimit="10"/>
<path d="M40.4001 75V83" stroke="#DDDDDD" stroke-width="0.5" stroke-miterlimit="10"/>
<path d="M44.4001 75V83" stroke="#DDDDDD" stroke-width="0.5" stroke-miterlimit="10"/>
<path d="M48.4001 75V83" stroke="#DDDDDD" stroke-width="0.5" stroke-miterlimit="10"/>
<path d="M52.4001 75V83" stroke="#DDDDDD" stroke-width="0.5" stroke-miterlimit="10"/>
<path d="M56.4001 75V83" stroke="#DDDDDD" stroke-width="0.5" stroke-miterlimit="10"/>
<path d="M60.4001 75V83" stroke="#DDDDDD" stroke-width="0.5" stroke-miterlimit="10"/>
<path d="M64.4001 75V83" stroke="#DDDDDD" stroke-width="0.5" stroke-miterlimit="10"/>
<path d="M68.4001 75V83" stroke="#DDDDDD" stroke-width="0.5" stroke-miterlimit="10"/>
<path d="M72.4001 75V83" stroke="#DDDDDD" stroke-width="0.5" stroke-miterlimit="10"/>
<path d="M76.4001 75V83" stroke="#DDDDDD" stroke-width="0.5" stroke-miterlimit="10"/>
<path d="M80.4001 75V83" stroke="#DDDDDD" stroke-width="0.5" stroke-miterlimit="10"/>
<path d="M84.4001 75V83" stroke="#DDDDDD" stroke-width="0.5" stroke-miterlimit="10"/>
<path d="M88.4001 75V83" stroke="#DDDDDD" stroke-width="0.5" stroke-miterlimit="10"/>
<path d="M92.4001 75V83" stroke="#DDDDDD" stroke-width="0.5" stroke-miterlimit="10"/>
<path d="M96.4001 75V83" stroke="#DDDDDD" stroke-width="0.5" stroke-miterlimit="10"/>
<path d="M100.4 75V83" stroke="#DDDDDD" stroke-width="0.5" stroke-miterlimit="10"/>
<path d="M104.4 75V83" stroke="#DDDDDD" stroke-width="0.5" stroke-miterlimit="10"/>
<path d="M108.4 75V83" stroke="#DDDDDD" stroke-width="0.5" stroke-miterlimit="10"/>
<path d="M112.4 75V83" stroke="#DDDDDD" stroke-width="0.5" stroke-miterlimit="10"/>
<path d="M116.4 75V83" stroke="#DDDDDD" stroke-width="0.5" stroke-miterlimit="10"/>
<path d="M6.80005 87H124.2" stroke="#DDDDDD" stroke-width="0.5" stroke-miterlimit="10"/>
<path d="M6.80005 95H124.2" stroke="#DDDDDD" stroke-width="0.5" stroke-miterlimit="10"/>
<path d="M9.40015 87V95" stroke="#DDDDDD" stroke-width="0.5" stroke-miterlimit="10"/>
<path d="M13.4001 87V95" stroke="#DDDDDD" stroke-width="0.5" stroke-miterlimit="10"/>
<path d="M17.4001 87V95" stroke="#DDDDDD" stroke-width="0.5" stroke-miterlimit="10"/>
<path d="M21.4001 87V95" stroke="#DDDDDD" stroke-width="0.5" stroke-miterlimit="10"/>
<path d="M25.4001 87V95" stroke="#DDDDDD" stroke-width="0.5" stroke-miterlimit="10"/>
<path d="M29.4001 87V95" stroke="#DDDDDD" stroke-width="0.5" stroke-miterlimit="10"/>
<path d="M33.4001 87V95" stroke="#DDDDDD" stroke-width="0.5" stroke-miterlimit="10"/>
<path d="M37.4001 87V95" stroke="#DDDDDD" stroke-width="0.5" stroke-miterlimit="10"/>
<path d="M41.4001 87V95" stroke="#DDDDDD" stroke-width="0.5" stroke-miterlimit="10"/>
<path d="M45.4001 87V95" stroke="#DDDDDD" stroke-width="0.5" stroke-miterlimit="10"/>
<path d="M49.4001 87V95" stroke="#DDDDDD" stroke-width="0.5" stroke-miterlimit="10"/>
<path d="M53.4001 87V95" stroke="#DDDDDD" stroke-width="0.5" stroke-miterlimit="10"/>
<path d="M57.4001 87V95" stroke="#DDDDDD" stroke-width="0.5" stroke-miterlimit="10"/>
<path d="M61.4001 87V95" stroke="#DDDDDD" stroke-width="0.5" stroke-miterlimit="10"/>
<path d="M65.4001 87V95" stroke="#DDDDDD" stroke-width="0.5" stroke-miterlimit="10"/>
<path d="M69.4001 87V95" stroke="#DDDDDD" stroke-width="0.5" stroke-miterlimit="10"/>
<path d="M73.4001 87V95" stroke="#DDDDDD" stroke-width="0.5" stroke-miterlimit="10"/>
<path d="M77.4001 87V95" stroke="#DDDDDD" stroke-width="0.5" stroke-miterlimit="10"/>
<path d="M81.4001 87V95" stroke="#DDDDDD" stroke-width="0.5" stroke-miterlimit="10"/>
<path d="M85.4001 87V95" stroke="#DDDDDD" stroke-width="0.5" stroke-miterlimit="10"/>
<path d="M89.4001 87V95" stroke="#DDDDDD" stroke-width="0.5" stroke-miterlimit="10"/>
<path d="M93.4001 87V95" stroke="#DDDDDD" stroke-width="0.5" stroke-miterlimit="10"/>
<path d="M97.4001 87V95" stroke="#DDDDDD" stroke-width="0.5" stroke-miterlimit="10"/>
<path d="M101.4 87V95" stroke="#DDDDDD" stroke-width="0.5" stroke-miterlimit="10"/>
<path d="M105.4 87V95" stroke="#DDDDDD" stroke-width="0.5" stroke-miterlimit="10"/>
<path d="M109.4 87V95" stroke="#DDDDDD" stroke-width="0.5" stroke-miterlimit="10"/>
<path d="M113.4 87V95" stroke="#DDDDDD" stroke-width="0.5" stroke-miterlimit="10"/>
<path d="M117.4 87V95" stroke="#DDDDDD" stroke-width="0.5" stroke-miterlimit="10"/>
<path d="M121.4 87V95" stroke="#DDDDDD" stroke-width="0.5" stroke-miterlimit="10"/>
<path d="M1.80005 99H119.2" stroke="#DDDDDD" stroke-width="0.5" stroke-miterlimit="10"/>
<path d="M1.80005 107H119.2" stroke="#DDDDDD" stroke-width="0.5" stroke-miterlimit="10"/>
<path d="M4.40015 99V107" stroke="#DDDDDD" stroke-width="0.5" stroke-miterlimit="10"/>
<path d="M8.40015 99V107" stroke="#DDDDDD" stroke-width="0.5" stroke-miterlimit="10"/>
<path d="M12.4001 99V107" stroke="#DDDDDD" stroke-width="0.5" stroke-miterlimit="10"/>
<path d="M16.4001 99V107" stroke="#DDDDDD" stroke-width="0.5" stroke-miterlimit="10"/>
<path d="M20.4001 99V107" stroke="#DDDDDD" stroke-width="0.5" stroke-miterlimit="10"/>
<path d="M24.4001 99V107" stroke="#DDDDDD" stroke-width="0.5" stroke-miterlimit="10"/>
<path d="M28.4001 99V107" stroke="#DDDDDD" stroke-width="0.5" stroke-miterlimit="10"/>
<path d="M32.4001 99V107" stroke="#DDDDDD" stroke-width="0.5" stroke-miterlimit="10"/>
<path d="M36.4001 99V107" stroke="#DDDDDD" stroke-width="0.5" stroke-miterlimit="10"/>
<path d="M40.4001 99V107" stroke="#DDDDDD" stroke-width="0.5" stroke-miterlimit="10"/>
<path d="M44.4001 99V107" stroke="#DDDDDD" stroke-width="0.5" stroke-miterlimit="10"/>
<path d="M48.4001 99V107" stroke="#DDDDDD" stroke-width="0.5" stroke-miterlimit="10"/>
<path d="M52.4001 99V107" stroke="#DDDDDD" stroke-width="0.5" stroke-miterlimit="10"/>
<path d="M56.4001 99V107" stroke="#DDDDDD" stroke-width="0.5" stroke-miterlimit="10"/>
<path d="M60.4001 99V107" stroke="#DDDDDD" stroke-width="0.5" stroke-miterlimit="10"/>
<path d="M64.4001 99V107" stroke="#DDDDDD" stroke-width="0.5" stroke-miterlimit="10"/>
<path d="M68.4001 99V107" stroke="#DDDDDD" stroke-width="0.5" stroke-miterlimit="10"/>
<path d="M72.4001 99V107" stroke="#DDDDDD" stroke-width="0.5" stroke-miterlimit="10"/>
<path d="M76.4001 99V107" stroke="#DDDDDD" stroke-width="0.5" stroke-miterlimit="10"/>
<path d="M80.4001 99V107" stroke="#DDDDDD" stroke-width="0.5" stroke-miterlimit="10"/>
<path d="M84.4001 99V107" stroke="#DDDDDD" stroke-width="0.5" stroke-miterlimit="10"/>
<path d="M88.4001 99V107" stroke="#DDDDDD" stroke-width="0.5" stroke-miterlimit="10"/>
<path d="M92.4001 99V107" stroke="#DDDDDD" stroke-width="0.5" stroke-miterlimit="10"/>
<path d="M96.4001 99V107" stroke="#DDDDDD" stroke-width="0.5" stroke-miterlimit="10"/>
<path d="M100.4 99V107" stroke="#DDDDDD" stroke-width="0.5" stroke-miterlimit="10"/>
<path d="M104.4 99V107" stroke="#DDDDDD" stroke-width="0.5" stroke-miterlimit="10"/>
<path d="M108.4 99V107" stroke="#DDDDDD" stroke-width="0.5" stroke-miterlimit="10"/>
<path d="M112.4 99V107" stroke="#DDDDDD" stroke-width="0.5" stroke-miterlimit="10"/>
<path d="M116.4 99V107" stroke="#DDDDDD" stroke-width="0.5" stroke-miterlimit="10"/>
<path d="M6.80005 111H124.2" stroke="#DDDDDD" stroke-width="0.5" stroke-miterlimit="10"/>
<path d="M6.80005 119H124.2" stroke="#DDDDDD" stroke-width="0.5" stroke-miterlimit="10"/>
<path d="M9.40015 111V119" stroke="#DDDDDD" stroke-width="0.5" stroke-miterlimit="10"/>
<path d="M13.4001 111V119" stroke="#DDDDDD" stroke-width="0.5" stroke-miterlimit="10"/>
<path d="M17.4001 111V119" stroke="#DDDDDD" stroke-width="0.5" stroke-miterlimit="10"/>
<path d="M21.4001 111V119" stroke="#DDDDDD" stroke-width="0.5" stroke-miterlimit="10"/>
<path d="M25.4001 111V119" stroke="#DDDDDD" stroke-width="0.5" stroke-miterlimit="10"/>
<path d="M29.4001 111V119" stroke="#DDDDDD" stroke-width="0.5" stroke-miterlimit="10"/>
<path d="M33.4001 111V119" stroke="#DDDDDD" stroke-width="0.5" stroke-miterlimit="10"/>
<path d="M37.4001 111V119" stroke="#DDDDDD" stroke-width="0.5" stroke-miterlimit="10"/>
<path d="M41.4001 111V119" stroke="#DDDDDD" stroke-width="0.5" stroke-miterlimit="10"/>
<path d="M45.4001 111V119" stroke="#DDDDDD" stroke-width="0.5" stroke-miterlimit="10"/>
<path d="M49.4001 111V119" stroke="#DDDDDD" stroke-width="0.5" stroke-miterlimit="10"/>
<path d="M53.4001 111V119" stroke="#DDDDDD" stroke-width="0.5" stroke-miterlimit="10"/>
<path d="M57.4001 111V119" stroke="#DDDDDD" stroke-width="0.5" stroke-miterlimit="10"/>
<path d="M61.4001 111V119" stroke="#DDDDDD" stroke-width="0.5" stroke-miterlimit="10"/>
<path d="M65.4001 111V119" stroke="#DDDDDD" stroke-width="0.5" stroke-miterlimit="10"/>
<path d="M69.4001 111V119" stroke="#DDDDDD" stroke-width="0.5" stroke-miterlimit="10"/>
<path d="M73.4001 111V119" stroke="#DDDDDD" stroke-width="0.5" stroke-miterlimit="10"/>
<path d="M77.4001 111V119" stroke="#DDDDDD" stroke-width="0.5" stroke-miterlimit="10"/>
<path d="M81.4001 111V119" stroke="#DDDDDD" stroke-width="0.5" stroke-miterlimit="10"/>
<path d="M85.4001 111V119" stroke="#DDDDDD" stroke-width="0.5" stroke-miterlimit="10"/>
<path d="M89.4001 111V119" stroke="#DDDDDD" stroke-width="0.5" stroke-miterlimit="10"/>
<path d="M93.4001 111V119" stroke="#DDDDDD" stroke-width="0.5" stroke-miterlimit="10"/>
<path d="M97.4001 111V119" stroke="#DDDDDD" stroke-width="0.5" stroke-miterlimit="10"/>
<path d="M101.4 111V119" stroke="#DDDDDD" stroke-width="0.5" stroke-miterlimit="10"/>
<path d="M105.4 111V119" stroke="#DDDDDD" stroke-width="0.5" stroke-miterlimit="10"/>
<path d="M109.4 111V119" stroke="#DDDDDD" stroke-width="0.5" stroke-miterlimit="10"/>
<path d="M113.4 111V119" stroke="#DDDDDD" stroke-width="0.5" stroke-miterlimit="10"/>
<path d="M117.4 111V119" stroke="#DDDDDD" stroke-width="0.5" stroke-miterlimit="10"/>
<path d="M121.4 111V119" stroke="#DDDDDD" stroke-width="0.5" stroke-miterlimit="10"/>
<path d="M1.80005 123H119.2" stroke="#DDDDDD" stroke-width="0.5" stroke-miterlimit="10"/>
<path d="M1.80005 131H119.2" stroke="#DDDDDD" stroke-width="0.5" stroke-miterlimit="10"/>
<path d="M4.40015 123V131" stroke="#DDDDDD" stroke-width="0.5" stroke-miterlimit="10"/>
<path d="M8.40015 123V131" stroke="#DDDDDD" stroke-width="0.5" stroke-miterlimit="10"/>
<path d="M12.4001 123V131" stroke="#DDDDDD" stroke-width="0.5" stroke-miterlimit="10"/>
<path d="M16.4001 123V131" stroke="#DDDDDD" stroke-width="0.5" stroke-miterlimit="10"/>
<path d="M20.4001 123V131" stroke="#DDDDDD" stroke-width="0.5" stroke-miterlimit="10"/>
<path d="M24.4001 123V131" stroke="#DDDDDD" stroke-width="0.5" stroke-miterlimit="10"/>
<path d="M28.4001 123V131" stroke="#DDDDDD" stroke-width="0.5" stroke-miterlimit="10"/>
<path d="M32.4001 123V131" stroke="#DDDDDD" stroke-width="0.5" stroke-miterlimit="10"/>
<path d="M36.4001 123V131" stroke="#DDDDDD" stroke-width="0.5" stroke-miterlimit="10"/>
<path d="M40.4001 123V131" stroke="#DDDDDD" stroke-width="0.5" stroke-miterlimit="10"/>
<path d="M44.4001 123V131" stroke="#DDDDDD" stroke-width="0.5" stroke-miterlimit="10"/>
<path d="M48.4001 123V131" stroke="#DDDDDD" stroke-width="0.5" stroke-miterlimit="10"/>
<path d="M52.4001 123V131" stroke="#DDDDDD" stroke-width="0.5" stroke-miterlimit="10"/>
<path d="M56.4001 123V131" stroke="#DDDDDD" stroke-width="0.5" stroke-miterlimit="10"/>
<path d="M60.4001 123V131" stroke="#DDDDDD" stroke-width="0.5" stroke-miterlimit="10"/>
<path d="M64.4001 123V131" stroke="#DDDDDD" stroke-width="0.5" stroke-miterlimit="10"/>
<path d="M68.4001 123V131" stroke="#DDDDDD" stroke-width="0.5" stroke-miterlimit="10"/>
<path d="M72.4001 123V131" stroke="#DDDDDD" stroke-width="0.5" stroke-miterlimit="10"/>
<path d="M76.4001 123V131" stroke="#DDDDDD" stroke-width="0.5" stroke-miterlimit="10"/>
<path d="M80.4001 123V131" stroke="#DDDDDD" stroke-width="0.5" stroke-miterlimit="10"/>
<path d="M84.4001 123V131" stroke="#DDDDDD" stroke-width="0.5" stroke-miterlimit="10"/>
<path d="M88.4001 123V131" stroke="#DDDDDD" stroke-width="0.5" stroke-miterlimit="10"/>
<path d="M92.4001 123V131" stroke="#DDDDDD" stroke-width="0.5" stroke-miterlimit="10"/>
<path d="M96.4001 123V131" stroke="#DDDDDD" stroke-width="0.5" stroke-miterlimit="10"/>
<path d="M100.4 123V131" stroke="#DDDDDD" stroke-width="0.5" stroke-miterlimit="10"/>
<path d="M104.4 123V131" stroke="#DDDDDD" stroke-width="0.5" stroke-miterlimit="10"/>
<path d="M108.4 123V131" stroke="#DDDDDD" stroke-width="0.5" stroke-miterlimit="10"/>
<path d="M112.4 123V131" stroke="#DDDDDD" stroke-width="0.5" stroke-miterlimit="10"/>
<path d="M116.4 123V131" stroke="#DDDDDD" stroke-width="0.5" stroke-miterlimit="10"/>
<path d="M124.9 20.9339V16.2727C124.9 14.2893 123.301 12.6033 121.203 12.6033H116.207C118.206 12.6033 119.904 11.0165 119.904 8.93388V4.66942C119.904 2.68595 118.305 1 116.207 1H5.69699C3.69862 1 2 2.58678 2 4.66942V9.33058C2 11.314 3.5987 13 5.69699 13H10.6929C8.69456 13 6.99594 14.5868 6.99594 16.6694V21.3306C6.99594 23.314 8.59464 25 10.6929 25H5.69699C3.69862 25 2 26.5868 2 28.6694V33.3306C2 35.314 3.5987 37 5.69699 37H10.6929C8.69456 37 6.99594 38.5868 6.99594 40.6694V45.3306C6.99594 47.314 8.59464 49 10.6929 49H5.69699C3.69862 49 2 50.5868 2 52.6694V57.3306C2 59.314 3.5987 61 5.69699 61H10.6929C8.69456 61 6.99594 62.5868 6.99594 64.6694V69.3306C6.99594 71.314 8.59464 73 10.6929 73H5.69699C3.69862 73 2 74.5868 2 76.6694V81.3306C2 83.314 3.5987 85 5.69699 85H10.6929C8.69456 85 6.99594 86.5868 6.99594 88.6694V93.3306C6.99594 95.314 8.59464 97 10.6929 97H5.69699C3.69862 97 2 98.5868 2 100.669V105.331C2 107.314 3.5987 109 5.69699 109H10.6929C8.69456 109 6.99594 110.587 6.99594 112.669V117.331C6.99594 119.314 8.59464 121 10.6929 121H5.69699C3.69862 121 2 122.587 2 124.669V129.331C2 131.314 3.5987 133 5.69699 133H116.307C118.305 133 120.004 131.413 120.004 129.331V124.669C120.004 122.686 118.405 121 116.307 121H121.303C123.301 121 125 119.413 125 117.331V112.669C125 110.686 123.401 109 121.303 109H116.307C118.305 109 120.004 107.413 120.004 105.331V100.669C120.004 98.6859 118.405 97 116.307 97H121.303C123.301 97 125 95.4132 125 93.3306V88.6694C125 86.686 123.401 85 121.303 85H116.307C118.305 85 120.004 83.4132 120.004 81.3306V76.6694C120.004 74.686 118.405 73 116.307 73H121.303C123.301 73 125 71.4132 125 69.3306V64.6694C125 62.6859 123.401 61 121.303 61H116.307C118.305 61 120.004 59.4132 120.004 57.3306V52.6694C120.004 50.6859 118.405 49 116.307 49H121.303C123.301 49 125 47.4132 125 45.3306V40.6694C125 38.6859 123.401 37 121.303 37H116.307C118.305 37 120.004 35.4132 120.004 33.3306V28.6694C120.004 26.6859 118.405 25 116.307 25H121.303C123.301 24.6033 124.9 23.0165 124.9 20.9339Z" stroke="#808080" stroke-miterlimit="10"/>
</g>
<path d="M93.6776 63.8526H98.8078L78.2141 101.928H73.1325L93.6776 63.8526ZM63.4071 73.2133C63.4071 71.56 63.7637 69.9877 64.4769 68.4965C65.2063 67.0052 66.3085 65.8625 67.7835 65.0683C69.2748 64.2578 71.0334 63.8526 73.0596 63.8526C76.0421 63.8526 78.3924 64.7035 80.1105 66.4055C81.8287 68.1075 82.6878 70.3767 82.6878 73.2133C82.6878 76.0661 81.8287 78.3435 80.1105 80.0455C78.3924 81.7474 76.0421 82.5984 73.0596 82.5984C71.0334 82.5984 69.2748 82.2013 67.7835 81.407C66.3085 80.5966 65.2063 79.4457 64.4769 77.9545C63.7637 76.4633 63.4071 74.8829 63.4071 73.2133ZM70.2392 73.262C70.2392 75.2719 70.5634 76.7307 71.2117 77.6384C71.6332 78.2382 72.2491 78.538 73.0596 78.538C73.87 78.538 74.4779 78.2382 74.8831 77.6384C75.5315 76.7307 75.8557 75.2719 75.8557 73.262C75.8557 71.2682 75.5315 69.8094 74.8831 68.8855C74.4779 68.302 73.87 68.0102 73.0596 68.0102C72.2491 68.0102 71.6332 68.302 71.2117 68.8855C70.5634 69.7932 70.2392 71.252 70.2392 73.262ZM89.1066 92.4941C89.1066 90.8245 89.4632 89.2522 90.1764 87.7772C90.8896 86.286 91.9918 85.1351 93.4831 84.3247C94.9743 83.5142 96.7249 83.109 98.7348 83.109C101.734 83.109 104.092 83.9681 105.81 85.6862C107.528 87.3882 108.387 89.6575 108.387 92.4941C108.387 95.3307 107.528 97.608 105.81 99.3262C104.092 101.028 101.734 101.879 98.7348 101.879C96.7249 101.879 94.9743 101.474 93.4831 100.663C91.9918 99.853 90.8896 98.7103 90.1764 97.2352C89.4632 95.744 89.1066 94.1636 89.1066 92.4941ZM95.9387 92.5427C95.9387 94.5526 96.2629 96.0114 96.9113 96.9192C97.3165 97.5027 97.9244 97.7944 98.7348 97.7944C99.5453 97.7944 100.161 97.5027 100.583 96.9192C101.231 96.0114 101.555 94.5526 101.555 92.5427C101.555 90.5328 101.231 89.0658 100.583 88.1419C100.161 87.5584 99.5453 87.2666 98.7348 87.2666C97.9244 87.2666 97.3165 87.5665 96.9113 88.1662C96.2629 89.0739 95.9387 90.5328 95.9387 92.5427Z" fill="#900583"/>
<path d="M26 100H166V134H36L26 100Z" fill="#900583"/>
<path d="M96 148L82 134H166L96 148Z" fill="#620258"/>
<path d="M47.0283 122.541V120.054L53.1982 117.628L47.0283 115.229V112.759L55.8701 116.582V118.691L47.0283 122.541ZM70.8203 121.706V124H62.1631C62.2568 123.133 62.5381 122.312 63.0068 121.539C63.4756 120.76 64.4014 119.729 65.7842 118.445C66.8975 117.408 67.5801 116.705 67.832 116.336C68.1719 115.826 68.3418 115.322 68.3418 114.824C68.3418 114.273 68.1924 113.852 67.8936 113.559C67.6006 113.26 67.1934 113.11 66.6719 113.11C66.1562 113.11 65.7461 113.266 65.4414 113.576C65.1367 113.887 64.9609 114.402 64.9141 115.123L62.4531 114.877C62.5996 113.518 63.0596 112.542 63.833 111.95C64.6064 111.358 65.5732 111.062 66.7334 111.062C68.0049 111.062 69.0039 111.405 69.7305 112.091C70.457 112.776 70.8203 113.629 70.8203 114.648C70.8203 115.229 70.7148 115.782 70.5039 116.31C70.2988 116.831 69.9707 117.379 69.5195 117.953C69.2207 118.334 68.6816 118.882 67.9023 119.597C67.123 120.312 66.6279 120.786 66.417 121.021C66.2119 121.255 66.0449 121.483 65.916 121.706H70.8203ZM77.3418 124V121.407H72.0684V119.245L77.6582 111.062H79.7324V119.236H81.332V121.407H79.7324V124H77.3418ZM77.3418 119.236V114.833L74.3799 119.236H77.3418ZM86.6934 111.062C87.9414 111.062 88.917 111.508 89.6201 112.398C90.458 113.453 90.877 115.202 90.877 117.646C90.877 120.083 90.4551 121.835 89.6113 122.901C88.9141 123.78 87.9414 124.22 86.6934 124.22C85.4395 124.22 84.4287 123.739 83.6611 122.778C82.8936 121.812 82.5098 120.092 82.5098 117.619C82.5098 115.193 82.9316 113.447 83.7754 112.381C84.4727 111.502 85.4453 111.062 86.6934 111.062ZM86.6934 113.11C86.3945 113.11 86.1279 113.207 85.8936 113.4C85.6592 113.588 85.4775 113.928 85.3486 114.42C85.1787 115.059 85.0938 116.134 85.0938 117.646C85.0938 119.157 85.1699 120.197 85.3223 120.766C85.4746 121.328 85.665 121.703 85.8936 121.891C86.1279 122.078 86.3945 122.172 86.6934 122.172C86.9922 122.172 87.2588 122.078 87.4932 121.891C87.7275 121.697 87.9092 121.354 88.0381 120.862C88.208 120.229 88.293 119.157 88.293 117.646C88.293 116.134 88.2168 115.097 88.0645 114.534C87.9121 113.966 87.7188 113.588 87.4844 113.4C87.2559 113.207 86.9922 113.11 86.6934 113.11ZM101.723 111.062C102.971 111.062 103.946 111.508 104.649 112.398C105.487 113.453 105.906 115.202 105.906 117.646C105.906 120.083 105.484 121.835 104.641 122.901C103.943 123.78 102.971 124.22 101.723 124.22C100.469 124.22 99.458 123.739 98.6904 122.778C97.9229 121.812 97.5391 120.092 97.5391 117.619C97.5391 115.193 97.9609 113.447 98.8047 112.381C99.502 111.502 100.475 111.062 101.723 111.062ZM101.723 113.11C101.424 113.11 101.157 113.207 100.923 113.4C100.688 113.588 100.507 113.928 100.378 114.42C100.208 115.059 100.123 116.134 100.123 117.646C100.123 119.157 100.199 120.197 100.352 120.766C100.504 121.328 100.694 121.703 100.923 121.891C101.157 122.078 101.424 122.172 101.723 122.172C102.021 122.172 102.288 122.078 102.522 121.891C102.757 121.697 102.938 121.354 103.067 120.862C103.237 120.229 103.322 119.157 103.322 117.646C103.322 116.134 103.246 115.097 103.094 114.534C102.941 113.966 102.748 113.588 102.514 113.4C102.285 113.207 102.021 113.11 101.723 113.11ZM111.742 111.062C112.99 111.062 113.966 111.508 114.669 112.398C115.507 113.453 115.926 115.202 115.926 117.646C115.926 120.083 115.504 121.835 114.66 122.901C113.963 123.78 112.99 124.22 111.742 124.22C110.488 124.22 109.478 123.739 108.71 122.778C107.942 121.812 107.559 120.092 107.559 117.619C107.559 115.193 107.98 113.447 108.824 112.381C109.521 111.502 110.494 111.062 111.742 111.062ZM111.742 113.11C111.443 113.11 111.177 113.207 110.942 113.4C110.708 113.588 110.526 113.928 110.397 114.42C110.228 115.059 110.143 116.134 110.143 117.646C110.143 119.157 110.219 120.197 110.371 120.766C110.523 121.328 110.714 121.703 110.942 121.891C111.177 122.078 111.443 122.172 111.742 122.172C112.041 122.172 112.308 122.078 112.542 121.891C112.776 121.697 112.958 121.354 113.087 120.862C113.257 120.229 113.342 119.157 113.342 117.646C113.342 116.134 113.266 115.097 113.113 114.534C112.961 113.966 112.768 113.588 112.533 113.4C112.305 113.207 112.041 113.11 111.742 113.11ZM121.762 111.062C123.01 111.062 123.985 111.508 124.688 112.398C125.526 113.453 125.945 115.202 125.945 117.646C125.945 120.083 125.523 121.835 124.68 122.901C123.982 123.78 123.01 124.22 121.762 124.22C120.508 124.22 119.497 123.739 118.729 122.778C117.962 121.812 117.578 120.092 117.578 117.619C117.578 115.193 118 113.447 118.844 112.381C119.541 111.502 120.514 111.062 121.762 111.062ZM121.762 113.11C121.463 113.11 121.196 113.207 120.962 113.4C120.728 113.588 120.546 113.928 120.417 114.42C120.247 115.059 120.162 116.134 120.162 117.646C120.162 119.157 120.238 120.197 120.391 120.766C120.543 121.328 120.733 121.703 120.962 121.891C121.196 122.078 121.463 122.172 121.762 122.172C122.061 122.172 122.327 122.078 122.562 121.891C122.796 121.697 122.978 121.354 123.106 120.862C123.276 120.229 123.361 119.157 123.361 117.646C123.361 116.134 123.285 115.097 123.133 114.534C122.98 113.966 122.787 113.588 122.553 113.4C122.324 113.207 122.061 113.11 121.762 113.11ZM134.228 119.014V120.202H132.248V122.056H134.228V124H136.802V122.056H141.374V120.202H136.802V119.014H139.646C140.996 119.014 142.058 118.654 142.85 117.952C143.642 117.25 144.038 116.332 144.038 115.198C144.038 114.064 143.642 113.164 142.85 112.462C142.058 111.76 140.996 111.4 139.646 111.4H134.228V117.16H132.248V119.014H134.228ZM136.802 113.668H139.304C140.618 113.668 141.428 114.28 141.428 115.414C141.428 116.512 140.618 117.16 139.304 117.16H136.802V113.668Z" fill="white"/>
<path d="M27.2334 85.665L38.6553 84.2793C39.0192 87.1908 39.999 89.4163 41.5947 90.9561C43.1904 92.4958 45.1221 93.2656 47.3896 93.2656C49.8252 93.2656 51.8688 92.3418 53.5205 90.4941C55.2002 88.6465 56.04 86.1549 56.04 83.0195C56.04 80.0521 55.2422 77.7005 53.6465 75.9648C52.0508 74.2292 50.1051 73.3613 47.8096 73.3613C46.2979 73.3613 44.4922 73.6553 42.3926 74.2432L43.6943 64.627C46.8857 64.7109 49.3213 64.0251 51.001 62.5693C52.6807 61.0856 53.5205 59.126 53.5205 56.6904C53.5205 54.6188 52.9046 52.9671 51.6729 51.7354C50.4411 50.5036 48.8034 49.8877 46.7598 49.8877C44.7441 49.8877 43.0225 50.5876 41.5947 51.9873C40.167 53.387 39.2992 55.4307 38.9912 58.1182L28.1152 56.2705C28.8711 52.5472 30.0049 49.5798 31.5166 47.3682C33.0563 45.1286 35.1839 43.3789 37.8994 42.1191C40.6429 40.8314 43.7083 40.1875 47.0957 40.1875C52.8906 40.1875 57.5378 42.0352 61.0371 45.7305C63.9206 48.7539 65.3623 52.1693 65.3623 55.9766C65.3623 61.3796 62.4089 65.6908 56.502 68.9102C60.0293 69.666 62.8428 71.3597 64.9424 73.9912C67.07 76.6227 68.1338 79.8001 68.1338 83.5234C68.1338 88.9264 66.1602 93.5316 62.2129 97.3389C58.2656 101.146 53.3525 103.05 47.4736 103.05C41.9027 103.05 37.2835 101.454 33.6162 98.2627C29.9489 95.0433 27.8213 90.8441 27.2334 85.665Z" fill="#900583"/>
<defs>
<clipPath id="clip0">
<rect width="126" height="134" fill="white"/>
</clipPath>
</defs>
</svg>
