<svg width="21" height="19" viewBox="0 0 21 19" fill="none" xmlns="http://www.w3.org/2000/svg">
<path d="M18.43 15.38H7.19L3.15 1H0" stroke="white" stroke-width="1.3849" stroke-linejoin="round"/>
<path d="M6.52012 3.01999H20.0001L18.6501 11.56H6.12012" stroke="white" stroke-width="1.3849" stroke-linejoin="round"/>
<path d="M7.59004 18.98H6.79004C6.51004 18.98 6.29004 18.76 6.29004 18.48V17.69C6.29004 17.41 6.51004 17.19 6.79004 17.19H7.58004C7.86004 17.19 8.08004 17.41 8.08004 17.69V18.48C8.09004 18.75 7.87004 18.98 7.59004 18.98Z" fill="white"/>
<path d="M17.9199 18.98H17.1299C16.8499 18.98 16.6299 18.76 16.6299 18.48V17.69C16.6299 17.41 16.8499 17.19 17.1299 17.19H17.9199C18.1999 17.19 18.4199 17.41 18.4199 17.69V18.48C18.4299 18.75 18.1999 18.98 17.9199 18.98Z" fill="white"/>
</svg>
