<svg width="16" height="16" viewBox="0 0 16 16" fill="none" xmlns="http://www.w3.org/2000/svg">
<g clip-path="url(#clip0)">
<path d="M7.9111 1.16C4.1015 1.16 1.0127 4.2488 1.0127 8.0584C1.0127 9.4616 1.4319 10.7664 2.1511 11.8552L1.2679 15.1304L4.79669 14.2152C5.73269 14.6896 6.7911 14.9576 7.9119 14.9576C11.7231 14.9576 14.8103 11.8696 14.8103 8.0584C14.8095 4.2496 11.7215 1.16 7.9111 1.16Z" stroke="#E7B4CA" stroke-width="1.3849"/>
<path d="M7.80788 5.8032C8.27887 5.8032 8.66068 5.42138 8.66068 4.9504C8.66068 4.47941 8.27887 4.0976 7.80788 4.0976C7.33689 4.0976 6.95508 4.47941 6.95508 4.9504C6.95508 5.42138 7.33689 5.8032 7.80788 5.8032Z" fill="#E7B4CA"/>
<path d="M8.73904 11.0888C8.62864 11.068 8.54064 10.984 8.51424 10.8752V7.42398V7.04239V6.50558H6.81184V7.42398H7.11184C7.22624 7.44238 7.31664 7.52878 7.34464 7.63998V10.876C7.31744 10.9848 7.22944 11.068 7.11904 11.0896H6.77344V12.0088H9.11424V11.0896H8.73904V11.0888Z" fill="#E7B4CA"/>
</g>
<defs>
<clipPath id="clip0">
<rect width="16" height="16" fill="white"/>
</clipPath>
</defs>
</svg>
