<svg width="19" height="18" viewBox="0 0 19 18" fill="none" xmlns="http://www.w3.org/2000/svg">
<path d="M17.9861 5.93989C17.9861 3.47115 16.0253 1.46765 13.6092 1.46765C11.7145 1.46765 10.1063 2.69827 9.49673 4.42413C8.87986 2.69827 7.27157 1.46765 5.37688 1.46765C2.96078 1.46765 1 3.47115 1 5.93989C1 6.48016 1.10281 6.99792 1.27172 7.48566H1.26438C1.26438 7.48566 1.28641 7.55319 1.33781 7.66575C1.33781 7.67325 1.34516 7.68076 1.34516 7.68826C1.73438 8.63373 3.68047 12.7833 9.08548 16.3251H9.10017C9.21032 16.4076 9.34251 16.4677 9.48939 16.4677C9.63626 16.4677 9.76845 16.4076 9.87861 16.3251H9.89329C15.291 12.7833 17.2371 8.63373 17.6336 7.68826C17.6336 7.68076 17.641 7.67325 17.641 7.66575C17.685 7.55319 17.7144 7.48566 17.7144 7.48566H17.7071C17.8833 7.00542 17.9861 6.48766 17.9861 5.93989Z" stroke="white" stroke-opacity="0.6" stroke-width="1.2" stroke-linejoin="round"/>
</svg>
