<svg width="159" height="37" viewBox="0 0 159 37" fill="none" xmlns="http://www.w3.org/2000/svg">
<path d="M10.7031 27.0649C7.50444 27.0649 4.92094 26.0807 2.95257 23.9893C0.984189 21.8979 0 19.4374 0 16.4849C0 13.5323 0.984189 11.0718 2.95257 8.98044C4.92094 6.88904 7.50444 5.90485 10.7031 5.90485C13.9017 5.90485 16.3621 7.01206 18.3305 8.98044C20.2989 10.9488 21.2831 13.5323 21.2831 16.4849C21.2831 19.4374 20.2989 21.8979 18.3305 23.9893C16.3621 26.0807 13.9017 27.0649 10.7031 27.0649ZM10.7031 25.3426C13.1635 25.3426 15.2549 24.4814 16.8542 22.8821C18.5766 21.1598 19.4377 19.0684 19.4377 16.6079C19.4377 14.1474 18.5766 12.056 16.8542 10.3337C15.2549 8.61137 13.1635 7.7502 10.7031 7.7502C8.24258 7.7502 6.15118 8.61137 4.42885 10.3337C2.82954 12.056 1.96838 14.1474 1.96838 16.6079C1.96838 19.0684 2.82954 21.1598 4.42885 22.8821C6.15118 24.4814 8.24258 25.3426 10.7031 25.3426Z" fill="white"/>
<path d="M42.5657 9.10346C44.411 11.1949 45.3952 13.6553 45.3952 16.4849C45.3952 19.4374 44.411 21.8979 42.5657 23.9893C40.7203 26.0807 38.2598 27.0649 35.1843 27.0649C31.6166 27.0649 28.9101 25.7116 26.8187 23.0051V35.0614H24.9733V6.39694H26.8187V9.96463C28.787 7.25811 31.4935 5.90485 35.1843 5.90485C38.1368 5.90485 40.5973 7.01206 42.5657 9.10346ZM26.8187 12.6711V20.2986C28.1719 23.2512 31.3705 25.3426 34.8152 25.3426C37.2757 25.3426 39.3671 24.4814 40.9664 22.7591C42.5657 21.0368 43.4268 18.9453 43.4268 16.4849C43.4268 14.0244 42.5657 11.933 40.9664 10.2107C39.3671 8.48834 37.2757 7.62718 34.8152 7.62718C31.3705 7.7502 28.1719 9.71858 26.8187 12.6711Z" fill="white"/>
<path d="M50.8087 21.2831V8.11956H45.6417V6.39723H50.8087V0H52.654V6.52025H60.1584V8.24258H52.654V20.791C52.654 23.9896 53.7612 25.3429 56.4677 25.3429C57.698 25.3429 58.8052 25.0968 59.9124 24.3587V26.081C59.0512 26.6961 57.821 27.0652 55.9756 27.0652C52.531 27.0652 50.8087 24.8508 50.8087 21.2831Z" fill="white"/>
<path d="M155.009 8.85755C152.918 6.76615 150.334 5.65894 147.382 5.65894C144.552 5.65894 141.846 6.76615 139.877 8.73453C139.631 8.98057 138.647 9.84174 137.294 11.441V5.90498H132.127V17.4692C132.127 17.4692 132.127 22.5132 127.206 22.5132C127.206 22.5132 122.531 22.6362 122.531 16.9771V5.90498H117.487V13.2864C116.995 11.6871 116.134 10.0878 114.78 8.85755C112.689 6.76615 110.105 5.65894 107.153 5.65894C104.323 5.65894 101.617 6.76615 99.6484 8.73453C99.4024 9.1036 98.1721 10.2108 96.4498 12.3022C96.4498 12.1792 96.3268 12.0562 96.3268 11.8101C94.9735 8.24243 91.4058 5.65894 87.3461 5.65894C85.0086 5.65894 82.9172 6.5201 81.1949 7.87336C80.8258 8.11941 80.5798 8.36546 80.3337 8.73453C80.0877 8.48848 79.7186 8.11941 79.4726 7.87336C77.7502 6.5201 75.6588 5.65894 73.3214 5.65894C68.0314 5.65894 63.7255 9.96476 63.7255 15.2548V27.065H68.8925V15.3778C68.8925 12.9173 70.8609 10.949 73.3214 10.949C75.7818 10.949 77.7502 12.9173 77.7502 15.3778V27.065H78.3653H82.1791H82.7942V15.3778C82.7942 12.9173 84.7626 10.949 87.223 10.949C89.6835 10.949 91.6519 12.9173 91.6519 15.3778V27.065H96.0807H96.9419V19.8067C99.8945 14.8857 102.724 12.3022 102.847 12.3022L102.97 12.1792C105.308 9.84174 109.244 9.84174 111.582 12.1792C113.919 14.5166 113.919 18.4534 111.582 20.7908C110.474 21.8981 108.875 22.5132 107.276 22.5132C105.677 22.5132 104.2 21.8981 103.093 20.7908L100.141 24.3585L100.633 24.7276C102.478 26.2039 104.815 27.065 107.276 27.065C110.105 27.065 112.812 25.9578 114.903 23.8664C116.257 22.5132 117.118 21.0369 117.61 19.4376C117.61 20.6678 118.348 27.1881 127.206 27.065C127.206 27.065 130.404 27.1881 132.25 25.2197V25.8348C132.25 27.4341 132.127 29.0334 130.896 30.2637C129.789 31.3709 128.19 31.986 126.591 31.986C124.991 31.986 123.515 31.3709 122.408 30.2637L119.455 33.8313L119.947 34.2004C121.793 35.6767 124.13 36.5379 126.591 36.5379C129.42 36.5379 132.127 35.4307 134.218 33.3392C136.309 31.2478 137.294 28.5413 137.417 25.8348V19.1915C140.246 14.3936 143.076 11.9331 143.199 11.9331L143.322 11.8101C145.659 9.47267 149.596 9.47267 151.933 11.8101C154.271 14.1476 154.271 18.0843 151.933 20.4218C150.826 21.529 149.227 22.1441 147.628 22.1441C146.028 22.1441 144.552 21.529 143.445 20.4218L140.492 23.9895L140.984 24.3585C142.83 25.8348 145.167 26.696 147.628 26.696C150.457 26.696 153.164 25.5888 155.255 23.4974C159.192 19.9297 159.192 13.0404 155.009 8.85755Z" fill="white"/>
</svg>
