<svg width="47" height="47" viewBox="0 0 47 47" fill="none" xmlns="http://www.w3.org/2000/svg">
<path d="M25.4492 27.1951C25.4492 26.6233 25.4492 26.2965 25.4492 26.2965L25.6126 19.9246C25.6126 18.8626 25.2858 17.8007 24.6323 16.9021C24.714 16.9021 24.714 16.8204 24.7957 16.8204C25.2858 16.3302 25.2858 15.595 24.7957 15.1049C24.3055 14.6147 23.5703 14.6147 23.0801 15.1049C22.9985 15.1865 22.9985 15.1865 22.9168 15.2682C20.7928 13.9612 17.9336 14.2063 16.1364 16.0851C14.2575 17.964 14.0125 20.7415 15.3195 22.8655C15.2378 22.9472 15.1561 22.9472 15.1561 23.0289C14.666 23.519 14.666 24.2542 15.1561 24.7444C15.6463 25.2345 16.3815 25.2345 16.8716 24.7444C16.9533 24.6627 16.9533 24.6627 16.9533 24.581C19.0773 26.0514 22.0182 25.8064 23.8971 23.9275" stroke="#979797" stroke-width="1.2" stroke-miterlimit="10" stroke-linecap="round" stroke-linejoin="round"/>
<path d="M25.4492 27.1953C25.4492 28.5024 25.8577 30.9531 27.8183 32.832" stroke="#979797" stroke-width="1.2" stroke-miterlimit="10" stroke-linecap="round" stroke-linejoin="round"/>
<path d="M16.2188 16.0851C16.8723 15.5949 18.1793 15.5132 19.0779 16.5752C19.5681 17.147 19.6498 18.0456 19.0779 18.6175C18.5061 19.1893 17.6075 19.1893 17.0357 18.6175" stroke="#979797" stroke-width="1.2" stroke-miterlimit="10" stroke-linecap="round" stroke-linejoin="round"/>
<path d="M20.9562 33.6488C24.4689 37.1615 30.1872 37.1615 33.6183 33.6488C37.0493 30.1361 37.131 24.4177 33.6183 20.9867L26.2661 13.6345C22.7534 10.1218 17.035 10.1218 13.604 13.6345C10.173 17.1472 10.0913 22.8656 13.604 26.2966L20.9562 33.6488Z" stroke="#979797" stroke-width="1.2" stroke-miterlimit="10" stroke-linecap="round" stroke-linejoin="round"/>
<path d="M18.3418 21.9668L18.9953 22.5386" stroke="#979797" stroke-width="1.2" stroke-miterlimit="10" stroke-linecap="round" stroke-linejoin="round"/>
<path d="M22.0996 18.209L22.6714 18.8625" stroke="#979797" stroke-width="1.2" stroke-miterlimit="10" stroke-linecap="round" stroke-linejoin="round"/>
<circle cx="23.5" cy="23.5" r="22.5" stroke="#979797" stroke-width="2"/>
</svg>
