<svg width="55" height="55" viewBox="0 0 55 55" fill="none" xmlns="http://www.w3.org/2000/svg">
<g clip-path="url(#clip0)">
<path d="M23.1404 16.1496C22.7451 15.9636 22.2917 15.8822 21.8616 15.9868C21.2803 16.138 20.8501 16.6379 20.5246 17.1378C20.1991 17.6261 19.9084 18.1841 19.8968 18.7654C19.8852 19.3583 20.1991 19.9861 20.7687 20.1721C20.9431 20.2303 21.164 20.2535 21.2454 20.4279C20.9896 20.4977 20.7339 20.5674 20.4781 20.6372C20.4548 20.6488 20.42 20.6604 20.4083 20.6837C20.4083 20.6953 20.4083 20.7069 20.42 20.7302C20.5478 20.9976 20.8966 21.1487 21.1756 21.0557C21.4547 20.9627 21.6872 20.6953 21.9662 20.7534C22.1057 20.7883 22.2103 20.8929 22.315 21.0092C22.408 21.1138 22.5126 21.2301 22.6521 21.2766C22.8846 21.3347 23.059 21.1255 23.0125 20.9278C22.966 20.7069 22.687 20.579 22.7102 20.3349C22.7335 20.1256 22.9311 19.9861 23.0358 19.8117C23.1404 19.6257 23.1288 19.4048 23.1288 19.1956C23.0939 18.1609 23.1055 17.1611 23.1404 16.1496Z" stroke="#979797" stroke-miterlimit="10"/>
<path d="M30.3594 16.289C30.7547 16.103 31.4638 15.8821 31.894 15.9867C32.4753 16.1378 32.9054 16.6378 33.231 17.1377C33.5565 17.6259 33.8471 18.184 33.8587 18.7653C33.8704 19.3582 33.5565 19.986 32.9868 20.172C32.8124 20.2301 32.5915 20.2534 32.5102 20.4278C32.7659 20.4975 33.0217 20.5673 33.2775 20.637C33.3007 20.6487 33.3356 20.6603 33.3472 20.6835C33.3472 20.6952 33.3472 20.7068 33.3356 20.73C33.2077 20.9974 32.8589 21.1486 32.5799 21.0556C32.3009 20.9626 32.0684 20.6952 31.7894 20.7533C31.6498 20.7882 31.5452 20.8928 31.4406 21.0091C31.3476 21.1137 31.2429 21.2299 31.1034 21.2765C30.8709 21.3346 30.6965 21.1253 30.743 20.9277C30.7895 20.7068 31.0685 20.5789 31.0453 20.3348C31.022 20.1255 30.8244 19.986 30.7198 19.8116C30.6151 19.6256 30.7895 19.3001 30.8012 19.0792C30.8244 18.0561 30.4059 17.3004 30.3594 16.289Z" stroke="#979797" stroke-miterlimit="10"/>
<path d="M30.3481 18.8004C30.29 18.1959 30.0807 16.5101 30.0226 16.4171C29.8947 16.1963 29.6041 16.3706 29.3483 16.2776C29.4413 17.1961 29.325 19.2771 29.2669 19.312C26.9301 20.7071 24.4073 19.2073 24.4073 19.2073C24.4073 19.2073 24.2678 17.2193 24.2329 16.2195C24.012 16.1846 23.7912 16.1614 23.5703 16.1265C23.4656 18.3586 23.454 20.6024 23.8028 22.8113C23.8958 23.3926 24.012 23.9855 24.0004 24.5668C24.0004 24.7063 23.9888 24.8458 24.0237 24.9854C24.0702 25.1946 24.2213 25.3806 24.3957 25.5434C24.9072 26.0201 25.6048 26.2991 26.2791 26.5548C26.4535 26.6246 26.6278 26.6943 26.8139 26.7176C26.9766 26.7409 27.151 26.7292 27.3254 26.706C27.9997 26.613 28.6275 26.3107 29.0925 25.8457C29.3018 25.6364 29.4762 25.3923 29.5808 25.1249C29.6854 24.8342 29.6854 24.5203 29.6971 24.2181C29.7319 23.4159 29.8133 22.6137 29.9528 21.8231C30.0226 21.4511 30.0691 21.0558 30.197 20.6838C30.2783 20.4397 30.3946 19.2655 30.3481 18.8004Z" stroke="#979797" stroke-miterlimit="10"/>
<path d="M29.7686 25.7644C29.6872 25.7295 28.7339 27.2176 27.2226 27.2525C26.4436 27.3338 23.7348 25.7644 23.7116 25.5435C23.6883 25.3226 20.4447 27.671 19.5844 28.6127C18.7241 29.566 17.143 31.8098 16.9802 32.4841C16.8175 33.1584 22.1072 31.6354 23.4674 30.1938C23.3163 30.5193 25.3508 34.9836 27.49 35.1464C29.4315 35.0069 31.1521 31.9144 30.4313 30.0427C30.2918 29.6823 30.6754 30.4961 30.7336 30.5658C32.2449 33.1584 36.8139 33.9373 36.8139 33.9373C36.8139 33.9373 32.989 26.9967 29.7686 25.7644Z" stroke="#979797" stroke-miterlimit="10"/>
<path d="M10.4572 45.0861C10.3177 45.5047 10.155 45.9348 10.2015 46.3766C10.3642 48.0507 12.2941 47.5508 13.5962 48.0972C17.4676 49.7132 17.5838 50.6084 20.3857 50.8641C25.6987 51.3408 31.1512 51.5849 36.6385 49.9806C36.8362 49.9225 37.0571 49.9573 37.2547 49.9341C37.7197 49.8876 38.1964 49.7829 38.58 49.5156C38.8126 49.3528 38.9986 49.1319 39.0451 48.8529C39.1148 48.3995 38.9869 48.0623 39.4985 47.8531C39.9519 47.6787 40.4402 47.667 40.9168 47.5508C41.3819 47.4345 41.8701 47.1671 41.998 46.7021C42.0678 46.4231 42.0097 46.1324 41.9399 45.8651C41.1261 42.4703 38.7312 35.7506 37.0222 34.4253C34.8017 34.8554 32.244 33.2046 31.3023 32.2629C30.9535 33.565 29.5235 35.739 28.2098 35.9482C24.6407 36.0878 23.7804 32.7163 23.141 31.6351C23.234 31.7978 17.3281 34.9949 16.6887 32.9372C16.7003 32.9372 11.5617 41.6449 10.4572 45.0861Z" stroke="#979797" stroke-miterlimit="10"/>
<path d="M29.1869 13.0572C29.1869 13.0572 29.0706 11.976 28.3033 11.8598C27.536 11.7435 26.9315 11.8016 26.7222 12.0342C26.5129 12.2667 26.5129 12.2667 26.5129 12.2667C26.5129 12.2667 26.1874 11.7668 25.8735 11.6854C25.548 11.5924 25.4899 11.6854 25.4899 11.6854L25.1992 11.7784L29.8844 2.72189L29.1869 13.0572Z" stroke="#979797" stroke-miterlimit="10"/>
<path d="M30.4184 1.22217V1.97785L31.1509 2.21036L30.4301 2.4545V3.21018L29.9767 2.59401L29.2559 2.83815L29.6976 2.22199L29.2559 1.60582L29.9767 1.83834L30.4184 1.22217Z" stroke="#979797" stroke-miterlimit="10"/>
<path d="M29.8946 2.72189C29.8946 2.72189 29.8132 6.13988 35.103 7.34896C40.3927 8.55804 41.7297 7.83725 43.2643 8.48829C44.7989 9.13934 46.4032 10.9413 46.5893 11.1041C46.7869 11.2669 47.3449 11.79 48.8098 11.1041C48.8098 11.1041 49.4259 12.5457 47.7983 13.2549C46.1707 13.9757 45.5429 15.115 45.1244 15.4056C44.6942 15.6963 42.5086 14.2314 41.6018 13.0572C40.6833 11.883 40.3229 10.8018 37.3932 10.8367C34.4519 10.8716 29.9992 7.75586 29.8946 2.72189Z" stroke="#979797" stroke-miterlimit="10"/>
</g>
<defs>
<clipPath id="clip0">
<rect width="55" height="55" fill="white"/>
</clipPath>
</defs>
</svg>
