<svg width="45" height="45" viewBox="0 0 45 45" fill="none" xmlns="http://www.w3.org/2000/svg">
<g clip-path="url(#clip0)">
<path d="M25.75 16.23C26.56 15.35 27.63 14.41 28.65 14.16C30.7 13.65 32.18 12.75 32.18 12.75C32.18 12.75 32.88 15.91 32.75 17.92C32.7 18.63 32.74 18.73 32.53 19.29" stroke="#979797" stroke-miterlimit="10"/>
<path d="M21.5306 16.18C20.7206 15.32 19.6806 14.41 18.6806 14.16C16.6306 13.65 15.1506 12.75 15.1506 12.75C15.1506 12.75 14.4506 15.91 14.5806 17.92C14.6406 18.92 14.7806 19.39 15.0806 20.06" stroke="#979797" stroke-miterlimit="10"/>
<path d="M9.54008 30.86C12.2101 31.65 14.2601 33.3 16.4601 34.67C17.7201 35.45 19.1201 36.11 20.7401 36.21C23.2601 36.37 25.7601 35.25 28.0601 34.58C29.5701 34.14 31.2001 33.8 32.8201 33.94C34.4801 34.08 35.9701 34.69 37.6801 34.28C39.3801 33.88 41.2401 32.91 42.1501 31.6C42.0701 31.41 41.9901 31.23 41.9201 31.06C40.4301 27.57 38.1001 24.36 35.4601 21.69C32.7501 18.96 29.4301 16.64 25.6401 15.89C25.6401 15.89 25.4701 15.93 25.2101 15.99C25.1101 16.01 28.3301 17.81 28.8801 20.55C27.8101 17.99 24.8701 16.07 24.3901 16.16C24.1601 16.21 23.3101 16.32 23.1501 16.32C23.0201 16.32 22.8801 16.3 22.7401 16.28C22.5901 16.25 17.4401 20.46 17.2401 22.96C17.1801 20.34 22.1401 16.12 22.0701 16.09C21.7801 15.99 21.5701 15.89 21.5701 15.89C21.5701 15.89 17.6901 15.88 11.9901 23.83C9.74008 26.98 7.22008 28.93 5.33008 30.08C6.67008 30.55 8.16008 30.46 9.54008 30.86Z" stroke="#979797" stroke-miterlimit="10"/>
<path d="M42.4701 32.49C41.7701 34.1 39.6201 35.3 37.6701 35.76C35.9701 36.16 34.4701 35.56 32.8101 35.42C31.2001 35.28 29.5601 35.62 28.0501 36.06C25.7501 36.73 23.2501 37.85 20.7301 37.69C19.1101 37.59 17.7101 36.93 16.4501 36.15C14.2401 34.78 12.1901 33.12 9.53008 32.34C8.06008 31.91 6.45008 32.04 5.03008 31.46C4.64008 31.3 4.28008 31.08 3.93008 30.86C2.95008 31.34 2.34008 31.53 2.33008 31.53C3.35008 31.91 4.08008 32.81 5.03008 33.31C6.45008 34.06 8.06008 33.88 9.53008 34.43C12.2001 35.43 14.2501 37.55 16.4501 39.29C17.7101 40.29 19.1101 41.13 20.7301 41.25C23.2501 41.45 25.7501 40.02 28.0501 39.17C29.5601 38.61 31.1901 38.18 32.8101 38.36C34.4701 38.54 35.9601 39.31 37.6701 38.8C39.7801 38.17 42.1501 36.4 42.6201 34.08C42.7301 33.57 42.6401 33.02 42.4701 32.49Z" stroke="#979797" stroke-miterlimit="10"/>
<path d="M20.1503 11.32C20.6003 12.25 20.9903 13.19 21.0903 14.23C21.0903 14.23 21.2703 15.03 23.5103 15.03C25.7503 15.03 25.9403 14.23 25.9403 14.23C25.9503 14.17 25.9603 14.11 25.9703 14.05C25.9803 14 25.9903 13.96 25.9903 13.91C26.2103 12.62 26.7803 11.46 27.4203 10.33C27.5803 10.05 27.5803 9.88 27.3503 9.64C26.4903 8.7 26.4803 7.54 26.5703 6.35L26.5803 6.06C26.6303 5.44 26.6803 4.95 26.7303 4.36V4.09L26.7603 3.82L26.1703 3.73L26.0903 4.41C26.0303 4.86 25.9603 5.37 25.8803 5.87L25.7803 6.43C25.5903 7.24 25.4403 8.07 24.8503 8.71C24.1003 9.53 22.6003 9.4 22.0003 8.47C21.6103 7.87 21.4403 7.18 21.2703 6.43L21.1703 5.89C21.0903 5.48 20.9803 4.86 20.9803 4.65C20.9803 4.44 20.9703 4.05 20.9703 4.05C20.6903 4.13 20.5503 4.16 20.2703 4.23L20.3203 4.58C20.3603 5.09 20.4103 5.56 20.4503 6.08C20.4503 6.08 20.4603 6.51 20.4703 6.54C20.5603 7.69 20.4803 8.81 19.6303 9.71C19.4403 9.91 19.4503 10.06 19.5903 10.28C19.8003 10.61 19.9803 10.96 20.1503 11.32Z" stroke="#979797" stroke-miterlimit="10"/>
</g>
<defs>
<clipPath id="clip0">
<rect width="45" height="45" fill="white"/>
</clipPath>
</defs>
</svg>
