<svg width="55" height="55" viewBox="0 0 55 55" fill="none" xmlns="http://www.w3.org/2000/svg">
<g clip-path="url(#clip0)">
<path d="M44.4833 42.9489C43.3467 44.3789 42.2344 45.7967 41.0611 47.2756C41.0367 38.1456 41.0244 29.0889 41 20.0444C41.0122 20.0444 41.0244 20.0444 41.0367 20.0322C42.2589 27.4267 43.4689 34.8333 44.7033 42.3011L44.4833 42.9489Z" stroke="#979797" stroke-width="0.8" stroke-miterlimit="10"/>
<path d="M28.8537 30.2528C28.4777 30.2085 28.1348 30.1643 27.7698 30.1201C27.5486 31.8345 27.3384 33.5379 27.1172 35.2634C28.3671 35.4182 29.5727 35.5731 30.8005 35.7279C30.8447 35.4072 30.8779 35.1085 30.9221 34.8099C30.0373 34.6993 29.2077 34.5887 28.3228 34.4781C28.4998 33.0512 28.6657 31.6575 28.8537 30.2528Z" fill="#979797"/>
<path d="M20.7135 29.346C20.1936 28.9699 19.5963 28.8593 18.9769 28.9035C18.081 28.9588 17.4727 29.4455 17.3731 30.1534C17.2625 30.9387 17.4284 31.4586 18.4903 31.8568C18.988 32.0448 19.4857 32.2439 19.9614 32.4873C20.0941 32.5536 20.2379 32.797 20.2158 32.9408C20.1936 33.1177 20.0498 33.35 19.895 33.4274C19.1207 33.8035 18.1916 33.339 18.0036 32.5204C17.6828 32.4762 17.362 32.432 17.0192 32.3877C16.9417 33.0071 17.0966 33.4496 17.528 33.8035C18.1806 34.3455 18.9438 34.434 19.7623 34.3897C20.5476 34.3455 21.1891 33.8035 21.2997 33.0182C21.3882 32.3435 21.167 31.8568 20.3374 31.5139C19.7954 31.2927 19.2535 31.0715 18.7115 30.8392C18.4903 30.7507 18.3575 30.5848 18.3796 30.3193C18.4128 30.0539 18.5787 29.9211 18.8221 29.8437C19.5632 29.6225 20.2158 29.9764 20.4149 30.7286C20.7356 30.7728 21.0674 30.806 21.3882 30.8502C21.4656 30.1755 21.2223 29.6999 20.7135 29.346Z" fill="#979797"/>
<path d="M25.3915 30.3856C25.2588 29.7773 25.2588 29.7773 24.6172 29.722C24.5177 29.7109 24.4071 29.7109 24.3075 29.6777C24.0974 29.6114 23.9978 29.6777 23.8983 29.8768C23.2014 31.2705 22.4825 32.6531 21.7746 34.0357C21.6972 34.2016 21.6087 34.3565 21.5312 34.5335C22.5378 34.821 22.6042 34.7989 23.0134 33.914C23.1019 33.726 23.2014 33.6818 23.4005 33.7039C23.9425 33.7924 24.4845 33.8587 25.0486 33.9362C25.1039 34.2238 25.1482 34.5113 25.2256 34.7989C25.2477 34.8874 25.3362 35.0201 25.4026 35.0312C25.7233 35.0976 26.0552 35.1307 26.4091 35.175C26.387 35.0423 26.3759 34.9538 26.3538 34.8763C26.0441 33.3831 25.7233 31.8788 25.3915 30.3856ZM23.5443 32.8301C23.854 32.1885 24.1527 31.5691 24.4734 30.8834C24.6172 31.6244 24.7389 32.2881 24.8827 32.996C24.4292 32.9517 24.0089 32.8964 23.5443 32.8301Z" fill="#979797"/>
<path d="M31.5645 35.839C32.8918 36.0049 34.1859 36.1709 35.5021 36.3368C35.5464 36.0049 35.5906 35.7174 35.6349 35.4187C34.6394 35.286 33.6881 35.1643 32.748 35.0426C32.8033 34.567 32.8475 34.1578 32.9028 33.7153C33.7545 33.8259 34.5841 33.9255 35.4358 34.0361C35.48 33.7485 35.5132 33.472 35.5574 33.1512C34.7057 33.0406 33.8872 32.93 33.0356 32.8194C33.0798 32.4433 33.124 32.1004 33.1683 31.7354C34.1195 31.846 35.0155 31.9566 35.9446 32.0673C35.9667 31.7354 35.9778 31.4589 35.9999 31.1603C34.75 30.9944 33.5001 30.8395 32.217 30.6736C32.0069 32.4212 31.7857 34.1135 31.5645 35.839Z" fill="#979797"/>
<path d="M36.5204 19.58C36.5204 19.58 18.6026 17.8934 17.7226 17.8445C15.6448 26.3389 13.5548 34.8578 11.4648 43.4011C12.8948 43.6578 14.2882 43.9145 15.6815 44.1712C16.9648 44.4034 18.2482 44.6356 19.5193 44.8556C20.8271 45.0878 22.1226 45.32 23.4304 45.5523C24.4571 45.7356 25.4837 45.9312 26.5226 46.1145C27.7815 46.3467 29.0404 46.5789 30.2993 46.7989C31.5704 47.0312 32.8415 47.2512 34.1126 47.4712C35.4448 47.7034 36.7893 47.9478 38.1215 48.18C38.1826 48.1923 38.2437 48.2289 38.3048 48.2534C38.4026 48.2534 38.4882 48.2656 38.586 48.2656C38.6104 46.4078 38.6348 44.5378 38.6715 42.68C38.696 40.92 38.7326 39.16 38.7571 37.4123C38.7815 35.6523 38.7815 33.9045 38.806 32.1445C38.8304 30.4089 38.8671 28.6734 38.8915 26.9378C38.916 25.1778 38.916 23.43 38.9526 21.67C38.9648 21.0467 39.026 20.4234 39.0626 19.7267C38.1337 19.6778 37.3148 19.6289 36.5204 19.58Z" stroke="#979797" stroke-width="0.8" stroke-miterlimit="10"/>
<path d="M34.5891 19.3967C34.6991 16.61 35.4569 7.06443 29.8958 6.72221C24.298 6.37999 22.428 15.5589 22.2324 18.26" stroke="#979797" stroke-width="0.8" stroke-miterlimit="10"/>
<path d="M36.8489 19.4944C36.9589 17.4411 38.01 7.13776 32.1555 6.78331C26.4233 6.44109 24.6633 15.8033 24.4922 18.1622" stroke="#979797" stroke-width="0.8" stroke-miterlimit="10"/>
</g>
<defs>
<clipPath id="clip0">
<rect width="55" height="55" fill="white"/>
</clipPath>
</defs>
</svg>
