<svg width="55" height="55" viewBox="0 0 55 55" fill="none" xmlns="http://www.w3.org/2000/svg">
<g clip-path="url(#clip0)">
<path d="M13.273 16.0966C13.4563 15.9133 13.6397 15.7422 13.823 15.5588C14.3486 15.0455 14.8741 14.5322 15.3874 13.9944C15.9986 13.3588 16.5852 12.7111 17.1963 12.0755C17.5263 11.7333 17.8808 11.4033 18.2352 11.0611C18.3697 10.9266 18.4797 10.7799 18.6263 10.6699C18.7608 10.5722 18.9441 10.4133 19.0663 10.4377C19.2497 10.4866 19.4086 10.4499 19.5674 10.4255C20.4474 10.2911 21.3397 10.1566 22.2197 9.99773C22.4641 9.96106 22.7086 9.87551 22.953 9.80217C23.1852 9.72884 23.1974 9.74106 23.283 9.96106C23.6008 10.7799 23.9186 11.6111 24.2608 12.43C24.4074 12.7844 24.603 13.1388 24.7986 13.4688C25.1774 14.0922 25.7763 14.4466 26.4241 14.7155C27.9152 15.3266 29.6019 14.4222 30.5797 13.3222C31.1297 12.6988 31.5208 11.99 31.863 11.2444C32.0586 10.8044 32.2541 10.3644 32.4497 9.92439C32.5108 9.77773 32.6086 9.76551 32.743 9.81439C33.1952 9.97328 33.6597 10.1444 34.1241 10.2911C34.8819 10.5233 35.6397 10.7188 36.3974 10.9388C36.4219 10.9388 36.4463 10.9633 36.4586 10.9511C36.7152 10.8166 36.8497 11.0122 36.9841 11.1466C37.2286 11.4033 37.4486 11.6966 37.6686 11.9777C38.0719 12.5155 38.463 13.0655 38.8786 13.5911C39.4652 14.3488 40.0763 15.1066 40.6752 15.8644C40.9074 16.1577 41.1274 16.4633 41.3597 16.7566C41.4452 16.8788 41.543 16.9888 41.653 17.0988C41.763 17.2088 41.7508 17.27 41.6408 17.3677C40.333 18.5288 39.1597 19.8244 37.9863 21.0955C37.913 21.1811 37.8519 21.2911 37.7908 21.3766C37.7297 21.45 37.6808 21.4622 37.5952 21.4011C37.033 21.01 36.483 20.6311 35.9208 20.2522C35.8597 20.2033 35.7863 20.1666 35.713 20.13C35.6641 20.1055 35.6152 20.0933 35.5663 20.0811C35.5541 20.1422 35.5419 20.1911 35.5419 20.2522C35.603 21.1444 35.6519 22.0366 35.713 22.9411C35.7863 24.1511 35.8597 25.3611 35.933 26.5588C35.9819 27.4633 36.0308 28.3555 36.0674 29.26C36.1041 30.36 36.2874 31.4355 36.4708 32.5233C36.6297 33.5133 36.9108 34.4788 37.2286 35.4322C37.3019 35.6644 37.3874 35.8844 37.4608 36.1044C37.5341 36.3122 37.4119 36.4466 37.1919 36.5077C37.0208 36.5444 36.8619 36.6422 36.7152 36.7522C36.0552 37.2411 35.493 37.84 34.943 38.4388C34.5886 38.8422 34.2341 39.2333 33.8797 39.6366C33.5497 40.0033 33.2441 40.3822 32.9019 40.7366C32.4863 41.1644 32.0586 41.5677 31.643 42.0077C31.3863 42.2766 31.1541 42.5822 30.9097 42.8633C30.6286 43.2177 30.3474 43.5722 30.0541 43.9266C30.0419 43.9511 30.0174 43.9633 30.0052 43.9877C29.9686 44.2444 29.7852 44.4155 29.6386 44.5988C29.5408 44.7211 29.4674 44.8677 29.3941 45.0022C29.3208 45.1244 29.223 45.1733 29.0763 45.1733C28.0252 45.1733 26.9741 45.1733 25.923 45.1855C25.6174 45.1855 25.2997 45.1977 24.9941 45.1977C24.7986 45.1977 24.6519 45.1488 24.5663 44.9533C24.5052 44.8188 24.4441 44.6844 24.383 44.55C24.2974 44.3422 24.2486 44.1344 24.0774 43.9633C23.9674 43.8533 23.9552 43.6822 23.943 43.5111C23.9308 43.2177 23.7597 42.9488 23.5886 42.7288C23.173 42.1544 22.7452 41.6044 22.3052 41.0544C21.853 40.4922 21.3886 39.93 20.9119 39.38C20.5819 38.9888 20.1908 38.6466 19.873 38.2433C19.3474 37.5833 18.7852 36.9722 18.1374 36.4344C18.0763 36.3855 18.0152 36.3488 17.9541 36.3122C17.6241 36.1166 17.2819 35.9211 16.9641 35.7133C16.903 35.6766 16.8663 35.5666 16.8663 35.4811C16.8786 35.3711 16.903 35.2488 16.9641 35.1511C17.2697 34.6622 17.4041 34.1122 17.5386 33.5622C17.6974 32.9511 17.8686 32.3277 17.9786 31.7044C18.113 30.9588 18.1986 30.1888 18.2841 29.4311C18.3574 28.8688 18.4063 28.2944 18.4552 27.72C18.5163 26.9744 18.5408 26.2166 18.6019 25.4711C18.7486 23.5888 18.9197 21.6944 19.0786 19.8122C19.0786 19.7633 19.0786 19.7266 19.0786 19.6411C18.9441 19.7022 18.8341 19.7388 18.7363 19.7877C18.3086 20.02 17.8686 20.2522 17.4408 20.4722C16.7808 20.8144 16.7808 20.7044 16.3286 20.1055C15.5219 19.0177 14.7519 17.9177 13.8719 16.8911C13.6641 16.6588 13.4441 16.4388 13.2363 16.2066C13.273 16.1822 13.273 16.1455 13.273 16.0966Z" stroke="#979797" stroke-miterlimit="10"/>
<path d="M36.6898 36.7522C36.5798 35.6155 36.0543 35.7867 35.1743 36.1044C33.2676 36.8011 31.031 37.5467 29.9432 39.3922C29.161 40.7244 27.8532 43.7555 29.381 45.0267" stroke="#979797" stroke-miterlimit="10"/>
<path d="M17.5391 36.0555C17.7957 35.7988 18.7002 35.8355 19.2868 36.0432C21.1935 36.7399 23.4302 37.4855 24.518 39.3432C25.3002 40.6877 26.1068 43.6943 24.5791 44.9777" stroke="#979797" stroke-miterlimit="10"/>
</g>
<defs>
<clipPath id="clip0">
<rect width="55" height="55" fill="white"/>
</clipPath>
</defs>
</svg>
