<svg width="55" height="55" viewBox="0 0 55 55" fill="none" xmlns="http://www.w3.org/2000/svg">
<g clip-path="url(#clip0)">
<path d="M30.75 21.23C31.56 20.35 32.63 19.41 33.65 19.16C35.7 18.65 37.18 17.75 37.18 17.75C37.18 17.75 37.88 20.91 37.75 22.92C37.7 23.63 37.74 23.73 37.53 24.29" stroke="#979797" stroke-miterlimit="10"/>
<path d="M26.5306 21.18C25.7206 20.32 24.6806 19.41 23.6806 19.16C21.6306 18.65 20.1506 17.75 20.1506 17.75C20.1506 17.75 19.4506 20.91 19.5806 22.92C19.6406 23.92 19.7806 24.39 20.0806 25.06" stroke="#979797" stroke-miterlimit="10"/>
<path d="M14.5401 35.8601C17.2101 36.6501 19.2601 38.3001 21.4601 39.6701C22.7201 40.4501 24.1201 41.1101 25.7401 41.2101C28.2601 41.3701 30.7601 40.2501 33.0601 39.5801C34.5701 39.1401 36.2001 38.8001 37.8201 38.9401C39.4801 39.0801 40.9701 39.6901 42.6801 39.2801C44.3801 38.8801 46.2401 37.9101 47.1501 36.6001C47.0701 36.4101 46.9901 36.2301 46.9201 36.0601C45.4301 32.5701 43.1001 29.3601 40.4601 26.6901C37.7501 23.9601 34.4301 21.6401 30.6401 20.8901C30.6401 20.8901 30.4701 20.9301 30.2101 20.9901C30.1101 21.0101 33.3301 22.8101 33.8801 25.5501C32.8101 22.9901 29.8701 21.0701 29.3901 21.1601C29.1601 21.2101 28.3101 21.3201 28.1501 21.3201C28.0201 21.3201 27.8801 21.3001 27.7401 21.2801C27.5901 21.2501 22.4401 25.4601 22.2401 27.9601C22.1801 25.3401 27.1401 21.1201 27.0701 21.0901C26.7801 20.9901 26.5701 20.8901 26.5701 20.8901C26.5701 20.8901 22.6901 20.8801 16.9901 28.8301C14.7401 31.9801 12.2201 33.9301 10.3301 35.0801C11.6701 35.5501 13.1601 35.4601 14.5401 35.8601Z" stroke="#979797" stroke-miterlimit="10"/>
<path d="M47.4701 37.4904C46.7701 39.1004 44.6201 40.3003 42.6701 40.7603C40.9701 41.1603 39.4701 40.5603 37.8101 40.4203C36.2001 40.2803 34.5601 40.6204 33.0501 41.0604C30.7501 41.7304 28.2501 42.8503 25.7301 42.6903C24.1101 42.5903 22.7101 41.9304 21.4501 41.1504C19.2401 39.7804 17.1901 38.1204 14.5301 37.3404C13.0601 36.9104 11.4501 37.0404 10.0301 36.4604C9.64008 36.3004 9.28008 36.0804 8.93008 35.8604C7.95008 36.3404 7.34008 36.5304 7.33008 36.5304C8.35008 36.9104 9.08008 37.8104 10.0301 38.3104C11.4501 39.0604 13.0601 38.8804 14.5301 39.4304C17.2001 40.4304 19.2501 42.5504 21.4501 44.2904C22.7101 45.2904 24.1101 46.1304 25.7301 46.2504C28.2501 46.4504 30.7501 45.0203 33.0501 44.1703C34.5601 43.6103 36.1901 43.1804 37.8101 43.3604C39.4701 43.5404 40.9601 44.3104 42.6701 43.8004C44.7801 43.1704 47.1501 41.4004 47.6201 39.0804C47.7301 38.5704 47.6401 38.0204 47.4701 37.4904Z" stroke="#979797" stroke-miterlimit="10"/>
<path d="M25.1503 16.32C25.6003 17.25 25.9903 18.19 26.0903 19.23C26.0903 19.23 26.2703 20.03 28.5103 20.03C30.7503 20.03 30.9403 19.23 30.9403 19.23C30.9503 19.17 30.9603 19.11 30.9703 19.05C30.9803 19 30.9903 18.96 30.9903 18.91C31.2103 17.62 31.7803 16.46 32.4203 15.33C32.5803 15.05 32.5803 14.88 32.3503 14.64C31.4903 13.7 31.4803 12.54 31.5703 11.35L31.5803 11.06C31.6303 10.44 31.6803 9.94998 31.7303 9.35998V9.08998L31.7603 8.81998L31.1703 8.72998L31.0903 9.40998C31.0303 9.85998 30.9603 10.37 30.8803 10.87L30.7803 11.43C30.5903 12.24 30.4403 13.07 29.8503 13.71C29.1003 14.53 27.6003 14.4 27.0003 13.47C26.6103 12.87 26.4403 12.18 26.2703 11.43L26.1703 10.89C26.0903 10.48 25.9803 9.85998 25.9803 9.64998C25.9803 9.43998 25.9703 9.04998 25.9703 9.04998C25.6903 9.12998 25.5503 9.15998 25.2703 9.22998L25.3203 9.57998C25.3603 10.09 25.4103 10.56 25.4503 11.08C25.4503 11.08 25.4603 11.51 25.4703 11.54C25.5603 12.69 25.4803 13.81 24.6303 14.71C24.4403 14.91 24.4503 15.06 24.5903 15.28C24.8003 15.61 24.9803 15.96 25.1503 16.32Z" stroke="#979797" stroke-miterlimit="10"/>
</g>
<defs>
<clipPath id="clip0">
<rect width="45" height="45" fill="white" transform="translate(5 5)"/>
</clipPath>
</defs>
</svg>
