<svg width="55" height="55" viewBox="0 0 55 55" fill="none" xmlns="http://www.w3.org/2000/svg">
<g clip-path="url(#clip0)">
<path d="M20.3507 21.3278C20.3507 16.9767 17.6863 13.4445 14.4107 13.4445C11.1229 13.4445 8.4707 16.9767 8.4707 21.3278C8.4707 24.9945 10.3651 28.0745 12.9318 28.9545C12.7485 29.0645 12.6507 29.1989 12.6507 29.3333C12.6507 29.6022 13.0418 29.8467 13.6163 29.9567C13.3596 30.7756 13.2007 31.9611 13.2007 33.2933C13.2007 34.0878 13.2618 34.8333 13.3596 35.4811C13.4451 36.0189 13.274 36.5567 12.9563 37.0333C12.834 37.2167 12.7607 37.4122 12.7363 37.6322C12.6507 38.4756 13.4574 39.2456 14.4107 39.2456C15.3396 39.2456 16.0851 38.5856 16.0851 37.7667C16.0851 37.4978 15.9996 37.2411 15.8529 37.0211C15.5474 36.5689 15.3763 36.0433 15.4618 35.5178C15.5596 34.8578 15.6207 34.1 15.6207 33.2933C15.6207 31.9489 15.4618 30.7511 15.2051 29.9322C15.7307 29.81 16.0851 29.59 16.0851 29.3333C16.0851 29.1989 15.9874 29.0767 15.8285 28.9789C18.4318 28.1233 20.3507 25.0189 20.3507 21.3278Z" stroke="#979797" stroke-miterlimit="10"/>
<path d="M18.1147 21.3033C18.1147 24.0044 16.4525 26.1922 14.3991 26.1922C12.3458 26.1922 10.6836 24.0044 10.6836 21.3033C10.6836 18.6022 12.3458 16.4144 14.3991 16.4144C16.4647 16.4144 18.1147 18.6022 18.1147 21.3033Z" stroke="#979797" stroke-miterlimit="10"/>
<path d="M32.7695 36.3978C33.5517 35.2856 34.5295 33.9412 35.3239 32.8289C36.0939 31.7534 36.8762 30.7023 37.6584 29.6389C37.8173 29.4312 37.9395 29.1989 37.9517 28.93C37.9762 28.5634 37.8295 28.2945 37.5362 28.0989C37.2428 27.9034 36.9495 27.8912 36.6684 28.0745C36.485 28.1967 36.3139 28.3556 36.155 28.5145C35.6173 29.1134 35.0917 29.7123 34.5539 30.3112C34.5173 30.3478 34.4928 30.3845 34.4562 30.4089C34.3584 30.4823 34.2484 30.4945 34.1506 30.4212C34.0528 30.3478 34.0284 30.2134 34.0773 30.1034C34.1017 30.0667 34.1262 30.0178 34.1506 29.9812C34.6395 29.1989 35.1406 28.4289 35.6295 27.6467C35.9595 27.1089 36.3017 26.5589 36.5951 25.9967C36.8273 25.5812 36.7173 25.1534 36.3873 24.8967C36.0328 24.6156 35.6173 24.6156 35.2384 24.9212C35.0795 25.0556 34.9328 25.2145 34.8228 25.3856C34.2606 26.2045 33.7106 27.0234 33.1484 27.8423C32.8673 28.2578 32.5862 28.6734 32.305 29.0889C32.2073 29.2356 32.0728 29.26 31.9506 29.1867C31.8406 29.1134 31.8162 28.9789 31.8773 28.8323C31.8895 28.8078 31.9017 28.7956 31.9139 28.7712C32.7328 27.2434 33.5395 25.7034 34.3584 24.1756C34.5051 23.9067 34.6395 23.65 34.6517 23.3323C34.6639 22.9412 34.5173 22.6356 34.1628 22.4645C33.8328 22.2934 33.5028 22.33 33.2095 22.5623C33.0506 22.7089 32.8917 22.88 32.7817 23.0634C32.0484 24.2734 31.3395 25.4834 30.6184 26.6934C30.3984 27.06 30.1784 27.4389 29.9584 27.8056C29.9217 27.8789 29.8484 27.94 29.775 27.8789C29.7384 27.8423 29.7262 27.7445 29.7384 27.6834C29.7506 27.5978 29.8117 27.5123 29.8484 27.4267C30.1173 26.7667 30.3862 26.1189 30.655 25.4589C30.8995 24.8723 31.1439 24.2856 31.3884 23.6867C31.5106 23.3934 31.6695 23.1 31.6817 22.77C31.6939 22.3789 31.5717 22.0489 31.205 21.8656C30.8506 21.67 30.4595 21.7189 30.1417 22C30.0073 22.1223 29.885 22.2812 29.7995 22.44C29.5795 22.8556 29.3962 23.2956 29.1884 23.7234C28.6873 24.8234 28.1739 25.9112 27.6728 27.0112C27.4284 27.5489 27.1839 28.0867 26.9273 28.6245C26.8784 28.7467 26.7928 28.82 26.6584 28.8078C26.5239 28.7956 26.4628 28.6978 26.4384 28.5878C26.4017 28.3923 26.365 28.1967 26.3406 28.0012C26.3039 27.6956 26.2795 27.3778 26.2306 27.0845C26.1206 26.5223 25.8028 26.07 25.3262 25.7645C24.8984 25.4956 24.1406 25.4345 23.8106 26.1067C23.7862 26.1678 23.7495 26.2289 23.725 26.3023C23.6517 26.5345 23.6273 26.7667 23.7862 26.9867C23.9084 27.1578 24.0306 27.3289 24.0795 27.5245C24.2139 27.9889 24.3362 28.4534 24.4217 28.93C24.495 29.4189 24.5562 29.92 24.5562 30.4089" stroke="#979797" stroke-miterlimit="10"/>
<path d="M30.1535 43.78C30.129 43.7189 30.1412 43.6333 30.1657 43.5722C30.3612 43.1811 30.4957 42.7778 30.569 42.35C30.6423 41.91 30.6668 41.47 30.7646 41.0422C30.9846 40.0644 31.3635 39.1356 31.8768 38.2678C32.0601 37.95 32.2801 37.6567 32.5857 37.4367C32.6712 37.3756 32.7446 37.2533 32.7568 37.1556C32.9035 36.3244 32.4268 35.7378 31.559 35.8478C30.9723 35.9333 30.5323 36.2878 30.2268 36.8011C30.1046 37.0211 30.0068 37.2656 29.909 37.4856C29.7868 37.7544 29.6646 38.0356 29.5423 38.3044C29.4935 38.4144 29.3957 38.4756 29.2612 38.4511C29.139 38.4267 29.0901 38.3411 29.0657 38.2189C29.0046 37.8156 28.9312 37.4 28.8701 36.9967C28.7357 36.1289 28.589 35.2611 28.4546 34.3933C28.3079 33.4889 28.1612 32.5722 28.0268 31.6678C27.9901 31.3989 27.9168 31.1422 27.7579 30.9222C27.5379 30.6289 27.2568 30.4822 26.8901 30.5311C26.5112 30.58 26.2423 30.8 26.1446 31.1667C26.0957 31.35 26.0712 31.5456 26.0835 31.7289C26.1201 32.23 26.1935 32.7311 26.2546 33.22C26.3646 34.1733 26.4746 35.1267 26.5846 36.0922C26.609 36.2511 26.6335 36.41 26.6335 36.5689C26.6335 36.6178 26.5723 36.6789 26.5357 36.7278C26.4868 36.6911 26.4379 36.6667 26.389 36.6178C26.3768 36.6056 26.3768 36.5689 26.3646 36.5322C25.8879 34.76 25.4112 32.9878 24.9346 31.2156C24.8735 30.9711 24.7635 30.7511 24.5923 30.5678C24.1646 30.1278 23.4557 30.2378 23.1746 30.7756C23.0646 30.9833 23.0279 31.1911 23.0523 31.4233C23.1012 31.7533 23.1746 32.0833 23.2479 32.4133C23.5779 33.9533 23.9201 35.5056 24.2501 37.0456C24.2868 37.2167 24.2257 37.3511 24.0912 37.3878C23.9568 37.4244 23.8346 37.3511 23.7735 37.18C23.6635 36.85 23.5535 36.5078 23.4312 36.1778C23.0646 35.0778 22.6979 33.9778 22.3312 32.8778C22.2335 32.5722 22.0746 32.2911 21.7935 32.1078C21.3046 31.7778 20.5957 32.0711 20.4735 32.6456C20.4246 32.9022 20.4612 33.1589 20.5223 33.3911C20.8646 34.5767 21.2068 35.75 21.5612 36.9356C21.6346 37.1678 21.7079 37.4 21.769 37.6322C21.8057 37.7911 21.7568 37.9011 21.6223 37.9622C21.4879 38.0111 21.3779 37.9622 21.3046 37.8156C21.2923 37.7789 21.2679 37.7544 21.2557 37.7178C20.9135 37.0089 20.5712 36.2878 20.2168 35.5789C20.119 35.3956 20.009 35.2122 19.8746 35.0533C19.6668 34.8089 19.3857 34.6989 19.0679 34.7844C18.7379 34.87 18.4935 35.0656 18.3957 35.4078C18.3101 35.6889 18.359 35.97 18.4568 36.2511C19.3735 38.7567 20.2779 41.25 21.1823 43.7556C21.439 44.4767 21.8546 45.0756 22.4779 45.5278C22.5146 45.5522 22.5512 45.6133 22.5512 45.6622C22.6246 46.2489 22.6979 46.8478 22.7712 47.4344C22.869 48.2411 22.979 49.06 23.0768 49.8667C23.089 49.9644 23.1257 50.0011 23.2112 50.0133C23.4312 50.05 23.6512 50.0744 23.8346 50.0989C24.1768 50.0744 24.4823 50.0744 24.7757 50.0133C25.6801 49.8544 26.5723 49.6956 27.4646 49.4878C28.5401 49.2433 29.6035 48.95 30.6179 48.4978C30.9357 48.3633 31.229 48.1678 31.5224 47.9844C31.6324 47.9111 31.6568 47.8133 31.6079 47.6789C31.119 46.3956 30.6301 45.0878 30.1535 43.78Z" stroke="#979797" stroke-miterlimit="10"/>
<path d="M44.5641 15.6689C44.5641 15.6689 46.6541 13.6523 46.5319 11.4645C46.4463 9.92448 46.2263 6.0867 46.2263 6.0867C46.2263 6.0867 43.7696 5.67114 43.1952 5.72003C42.6208 5.76892 40.4819 5.76892 39.6507 6.44114C38.8196 7.11337 38.9419 9.72892 38.9419 9.72892" stroke="#979797" stroke-miterlimit="10"/>
<path d="M24.5679 15.0211C24.5679 15.0211 22.8934 12.2955 23.3334 10.1811C23.6512 8.66554 24.4334 4.90109 24.4334 4.90109C24.4334 4.90109 26.9268 4.83998 27.4768 4.97443C28.039 5.10887 30.1534 5.42665 30.8746 6.20887C31.5957 6.99109 31.1923 9.25221 31.1923 9.25221" stroke="#979797" stroke-miterlimit="10"/>
<path d="M34.4432 9.12994C41.8132 9.59439 43.671 14.7399 43.671 14.7399C43.671 14.7399 46.0299 18.2722 45.2477 22.2199C42.5588 14.9111 40.6155 12.0144 34.3088 11.9288C28.0021 12.0144 26.0466 14.9111 23.3699 22.2199C22.5877 18.2722 24.9466 14.7399 24.9466 14.7399C24.9466 14.7399 26.8043 9.60661 34.1743 9.12994H34.4432V9.12994Z" stroke="#979797" stroke-miterlimit="10"/>
</g>
<defs>
<clipPath id="clip0">
<rect width="55" height="55" fill="white"/>
</clipPath>
</defs>
</svg>
