<svg width="55" height="55" viewBox="0 0 55 55" fill="none" xmlns="http://www.w3.org/2000/svg">
<g clip-path="url(#clip0)">
<path d="M44.4146 35.7378C45.6491 35.4323 46.7369 34.9678 47.5435 34.2589C47.8369 34.0023 48.2769 33.5745 48.2769 33.5745C48.2769 33.5745 48.1302 30.58 46.138 30.3234C44.1458 30.0667 43.2535 31.3012 43.2535 31.3012C43.2535 31.3012 42.8624 32.6945 42.6913 33.0123C42.5202 33.33 42.3124 34.4667 39.5991 34.4789C37.3624 34.4911 34.9913 34.6989 32.8402 33.9778C31.5691 33.55 27.9758 31.4967 27.8658 29.8712C27.8291 29.3578 28.0613 29.0278 27.6335 29.2967C27.2058 29.5534 26.5702 30.69 26.5702 31.1667C26.5702 31.6556 26.5091 31.9489 26.3135 32.3278C26.118 32.7067 25.8124 32.8411 26.1669 33.1589C28.0246 34.7967 31.5691 35.0411 33.9646 35.5423C36.6169 36.0923 41.0413 36.5567 44.4146 35.7378Z" stroke="#979797" stroke-miterlimit="10"/>
<path d="M44.0967 29.3578C44.0967 29.3578 42.3855 29.5167 42.0555 30.1644C41.7255 30.8122 41.5422 32.0344 41.4567 32.2178C41.3711 32.4011 41.1878 32.89 39.9044 33.0733C38.6211 33.2567 35.3822 33.0611 34.7467 33.0856C34.1111 33.1222 31.96 32.2056 31.0433 31.4478C30.1267 30.69 28.5378 29.3456 28.4644 28.2822C28.4033 27.2189 29.1611 26.9989 29.2833 26.3511C30.0655 22.22 30.8722 23.1367 34.2455 24.2C35.7 24.6644 36.9222 23.8456 38.2667 24.2122C38.5844 24.2978 39.3667 24.6644 39.4522 24.7867C39.4522 24.7867 39.5378 25.3367 39.5989 25.5811C39.66 25.8256 39.7578 26.0089 39.8189 26.5589C39.88 27.1089 40.3689 26.7056 39.88 27.1089C39.3911 27.5122 39.4033 27.5122 39.1344 27.5733C38.8655 27.6344 38.4867 27.5733 38.4011 27.6956C38.3155 27.8178 38.0711 27.6589 38.2667 27.9522C38.4744 28.2456 38.4255 28.1722 38.8167 28.4044C39.2078 28.6367 39.88 28.4044 40.1244 28.4044C40.3689 28.3922 41.0655 28.1478 41.0655 28.1478C41.0655 28.1478 41.31 27.9644 41.4567 28.1722C41.6155 28.38 41.6033 28.0867 42.0067 28.3922C42.4222 28.6856 43.8767 29.2233 44.0967 29.3578Z" stroke="#979797" stroke-miterlimit="10"/>
<path d="M21.474 9.47221C21.474 9.47221 20.9118 8.13998 18.9195 8.49443C16.9273 8.84887 16.8051 8.62887 14.984 8.79998C13.1629 8.95887 12.6618 8.71443 11.4518 8.79998C10.254 8.88554 9.39843 8.95887 8.6651 9.22776C7.93177 9.49665 7.7851 8.70221 7.38177 9.81443C6.97843 10.9267 6.97843 11.0611 7.03954 11.6722C7.10066 12.2833 6.75843 11.6355 6.99065 13.0533C7.22288 14.4711 7.28399 15.9133 7.3451 16.6344C7.40621 17.3555 7.65066 19.7389 7.83399 20.9244C8.0051 22.11 7.73621 22.5255 8.20066 23.3322C8.6651 24.1511 8.65288 23.8333 8.45732 24.6522C8.26177 25.4711 8.23732 26.2411 8.35954 27.2555C8.46954 28.27 8.61621 28.6978 8.32288 29.2844C8.02954 29.8833 7.51621 29.1744 7.79732 30.2133C8.09066 31.2522 7.32066 31.0811 7.16177 31.5578C6.99066 32.0344 6.78288 32.1078 6.86843 32.7067C6.95399 33.3178 6.94177 33.9289 6.84399 34.9311C6.74621 35.9211 6.63621 35.8967 6.86843 36.8989C7.08843 37.8889 7.21066 37.9622 7.1251 38.6222C7.02732 39.2822 6.55066 39.0378 7.43066 39.8078C8.31066 40.5778 8.59177 40.8344 9.72843 41.3355C10.8651 41.8367 10.9384 42.1544 11.7451 42.02C12.5518 41.8855 12.9429 41.69 13.5051 41.9711C14.0673 42.2644 14.4829 42.13 14.6907 42.5822C14.8984 43.0344 14.7273 42.6433 15.2162 43.4622C15.7051 44.2933 16.1329 44.5255 16.5118 44.6478C16.9029 44.77 16.744 43.9267 17.1351 44.6478C17.5262 45.3689 17.9418 45.5278 18.1129 45.5889C18.284 45.65 18.394 45.1733 18.8462 45.5889C19.2984 46.0044 18.7484 45.9678 19.6284 46.1144C20.5084 46.2611 20.7529 46.0167 21.0095 46.1144C21.2662 46.2122 20.9851 45.7967 21.6329 46.1267C22.2807 46.4567 21.4129 46.4933 22.2807 46.4567C23.1484 46.42 23.4051 46.6278 23.7595 46.4689C24.114 46.31 23.5762 46.1389 24.4684 46.31C25.3484 46.4811 25.434 46.6278 25.7884 46.53C26.1429 46.4322 29.4918 46.8844 30.8607 45.5644C32.2295 44.2444 32.6451 44.4033 32.6207 43.56C32.584 42.7167 32.5595 42.35 32.6207 41.9344C32.6818 41.5189 32.8651 41.1278 32.6818 40.8466C32.4984 40.5655 32.7429 39.8811 32.1195 39.6367C31.4962 39.4044 28.8562 37.4244 28.8562 37.4244C28.8562 37.4244 28.514 37.51 28.0618 37.3267C27.6095 37.1555 26.9984 36.7033 26.8884 36.4955C26.7784 36.2878 26.3873 36.1167 25.3484 35.2122C24.3095 34.3078 24.334 34.0267 23.7595 33.6478C23.1851 33.2811 22.5129 31.9978 22.2195 31.2767C21.914 30.5555 21.2784 29.7 21.2784 29.7C21.2784 29.7 22.7329 29.26 22.8551 28.4044C22.9895 27.5489 22.3662 25.9722 22.2684 25.3122C22.1095 24.9944 21.1929 24.9333 21.1929 24.9333C21.1929 24.9333 20.7162 24.8233 20.9851 23.9678C21.254 23.1122 20.814 21.3522 20.9851 21.1078C21.1562 20.8755 21.4984 18.1255 21.4618 17.6489C21.4251 17.1722 21.4862 16.6344 21.6207 15.4978C21.7429 14.3489 21.9629 13.8722 21.7307 13.0289C21.5107 12.1855 21.474 9.47221 21.474 9.47221Z" stroke="#979797" stroke-miterlimit="10"/>
<path d="M32.6692 40.8344C32.6692 40.8344 31.2881 41.47 30.7137 41.8122C30.1392 42.1544 30.0781 42.7411 28.7826 42.79C27.487 42.8511 26.9126 42.9611 26.1548 42.79C25.4092 42.6188 25.9226 42.57 24.2481 42.8755C22.5737 43.1933 21.7059 43.2422 20.3859 43.1933C19.0537 43.1322 18.7726 43.5355 17.4404 42.4966C16.1081 41.4577 16.1692 41.1644 15.1915 40.8222C14.2137 40.48 14.4459 40.59 13.7492 40.48C13.0526 40.37 12.0748 40.48 11.3781 38.9277C10.6815 37.3755 10.6326 36.2755 9.70369 35.0655C8.7748 33.8555 9.27591 33.6355 8.09036 33.33C6.89258 33.0366 6.89258 33.0366 6.89258 33.0366" stroke="#979797" stroke-miterlimit="10"/>
<path d="M21.817 14.1777C21.817 14.1777 21.4626 13.8232 19.7392 13.8843C18.0159 13.9455 17.7348 13.7621 16.1703 13.8721C14.6181 13.9944 15.2414 13.9455 13.3959 14.0066C11.5503 14.0555 11.5503 13.8966 10.3403 14.1777C9.13033 14.4588 8.51922 14.2755 7.85922 14.4588C7.19922 14.6421 7.19922 14.6421 7.19922 14.6421" stroke="#979797" stroke-miterlimit="10"/>
<path d="M21.2773 29.7C21.2773 29.7 16.8285 30.7877 14.5062 30.91C12.184 31.02 20.0307 31.0811 20.7885 30.91" stroke="#979797" stroke-miterlimit="10"/>
</g>
<defs>
<clipPath id="clip0">
<rect width="55" height="55" fill="white"/>
</clipPath>
</defs>
</svg>
