<svg width="55" height="55" viewBox="0 0 55 55" fill="none" xmlns="http://www.w3.org/2000/svg">
<g clip-path="url(#clip0)">
<path d="M18.0559 38.2188C17.6037 38.4021 17.9948 39.111 17.9215 39.6732C17.8482 40.2354 17.8971 41.0543 17.9215 41.2499C17.9459 41.4454 18.5082 41.9099 18.8993 42.3254C19.2904 42.7288 22.1259 44.8921 22.2848 45.051C22.9082 45.6621 25.8415 47.361 25.7559 48.2288C26.3548 48.3388 26.9293 48.4121 27.5404 48.4121C28.0782 48.4121 28.7871 48.4854 29.3004 48.3021C29.9604 48.0821 30.8648 46.921 31.4148 46.4443C31.9648 45.9799 32.5637 45.5521 33.0648 45.0388C34.0915 44.0121 35.4482 43.3643 36.4504 42.3132C36.8415 41.9099 37.4037 41.4332 37.4282 41.2377C37.4526 41.0421 37.5015 40.2232 37.4282 39.661C37.3548 39.0988 37.3304 38.6832 37.2937 38.2065C37.2937 38.2188 25.1571 35.4199 18.0559 38.2188Z" stroke="#979797" stroke-miterlimit="10" stroke-linecap="round" stroke-linejoin="round"/>
<path d="M37.4292 41.2499C37.4292 41.2499 33.3958 40.2599 31.5747 42.3743C29.9125 43.511 29.2281 46.6154 29.1914 48.3143" stroke="#979797" stroke-miterlimit="10" stroke-linecap="round" stroke-linejoin="round"/>
<path d="M17.9219 41.2499C17.9219 41.2499 21.9552 40.2599 23.7763 42.3743C25.4385 43.511 26.123 46.6154 26.1597 48.3143" stroke="#979797" stroke-miterlimit="10" stroke-linecap="round" stroke-linejoin="round"/>
<path d="M29.4723 46.2244H25.8301" stroke="#979797" stroke-miterlimit="10" stroke-linecap="round" stroke-linejoin="round"/>
<path d="M33.0769 14.2877C33.0769 14.2877 33.1013 9.61876 32.5147 8.3721C31.928 7.12543 30.7669 5.96432 29.2513 5.89099C27.7358 5.81765 25.4013 5.89099 24.3013 6.33099C23.1891 6.77099 22.5536 9.44765 22.3825 10.0832C22.2113 10.7188 22.2113 11.7332 22.0891 12.6132C21.9669 13.4932 21.4902 14.691 21.4902 14.691" stroke="#979797" stroke-miterlimit="10" stroke-linecap="round" stroke-linejoin="round"/>
<path d="M33.0768 14.3733C33.0768 14.3733 34.3601 16.3533 34.629 16.781C34.8979 17.2088 35.4846 18.6877 35.7901 19.2621C36.0957 19.8488 36.4868 20.6188 36.6824 21.0099C36.8779 21.401 38.1246 24.041 38.1979 24.5788C38.2712 25.1166 38.1979 25.3977 38.1979 25.3977C38.1979 25.3977 36.2912 25.8621 35.949 25.9355C35.6068 26.0088 33.309 26.241 32.649 26.131C31.989 26.0088 29.5812 25.7033 28.9579 25.5933C28.3346 25.471 27.7112 25.3977 27.7112 25.3977C27.7112 25.3977 27.5524 25.0066 27.7112 24.5788C27.8701 24.151 29.7768 20.2644 29.7768 20.2644L33.0768 14.3733Z" stroke="#979797" stroke-miterlimit="10" stroke-linecap="round" stroke-linejoin="round"/>
<path d="M21.6869 14.3733C21.6869 14.3733 20.4036 16.3533 20.1347 16.781C19.8658 17.2088 19.2791 18.6877 18.9736 19.2621C18.668 19.8488 18.2769 20.6188 18.0814 21.0099C17.8858 21.401 16.6391 24.041 16.5658 24.5788C16.4925 25.1166 16.5658 25.3977 16.5658 25.3977C16.5658 25.3977 18.4725 25.8621 18.8147 25.9355C19.1691 26.0088 21.4547 26.241 22.1147 26.131C22.7747 26.0088 25.1825 25.7033 25.8058 25.5933C26.4291 25.471 27.0525 25.3977 27.0525 25.3977C27.0525 25.3977 27.2114 25.0066 27.0525 24.5788C26.8936 24.151 24.9869 20.2644 24.9869 20.2644L21.6869 14.3733Z" stroke="#979797" stroke-miterlimit="10" stroke-linecap="round" stroke-linejoin="round"/>
<path d="M39.0293 25.3977C39.0293 25.3977 39.396 21.0954 40.6304 22.5377C41.8648 23.9799 39.0293 25.3977 39.0293 25.3977Z" stroke="#979797" stroke-miterlimit="10" stroke-linecap="round" stroke-linejoin="round"/>
<path d="M40.6304 28.2332C40.6304 28.2332 39.5182 25.1288 39.0293 25.3976" stroke="#979797" stroke-miterlimit="10" stroke-linecap="round" stroke-linejoin="round"/>
<path d="M39.0787 25.0555C39.0787 25.0555 38.8831 22.1466 38.2353 23.1243C37.5876 24.1021 39.0787 25.0555 39.0787 25.0555Z" stroke="#979797" stroke-miterlimit="10" stroke-linecap="round" stroke-linejoin="round"/>
<path d="M38.2344 26.9743C38.2344 26.9743 38.821 24.8721 39.0777 25.0554" stroke="#979797" stroke-miterlimit="10" stroke-linecap="round" stroke-linejoin="round"/>
<path d="M15.8318 25.3977C15.8318 25.3977 15.4651 21.0954 14.2307 22.5377C13.0085 23.9677 15.8318 25.3977 15.8318 25.3977Z" stroke="#979797" stroke-miterlimit="10" stroke-linecap="round" stroke-linejoin="round"/>
<path d="M14.2305 28.2332C14.2305 28.2332 15.3427 25.1288 15.8316 25.3976" stroke="#979797" stroke-miterlimit="10" stroke-linecap="round" stroke-linejoin="round"/>
<path d="M15.7949 25.0555C15.7949 25.0555 15.9905 22.1466 16.6383 23.1243C17.2738 24.1021 15.7949 25.0555 15.7949 25.0555Z" stroke="#979797" stroke-miterlimit="10" stroke-linecap="round" stroke-linejoin="round"/>
<path d="M16.6265 26.9743C16.6265 26.9743 16.0399 24.8721 15.7832 25.0554" stroke="#979797" stroke-miterlimit="10" stroke-linecap="round" stroke-linejoin="round"/>
</g>
<defs>
<clipPath id="clip0">
<rect width="55" height="55" fill="white"/>
</clipPath>
</defs>
</svg>
