<svg width="55" height="55" viewBox="0 0 55 55" fill="none" xmlns="http://www.w3.org/2000/svg">
<g clip-path="url(#clip0)">
<path d="M44.7224 28.0936C45.1032 27.5814 45.0901 27.3844 44.6961 26.8854C44.2627 26.3338 43.8425 25.7823 43.396 25.2438C43.2647 25.0862 43.2384 24.9418 43.3172 24.7448C43.6586 23.8649 43.9738 22.9718 44.3153 22.0657C44.0789 21.9081 43.8556 21.7505 43.6324 21.606C43.0808 21.2252 42.503 20.8575 41.9645 20.4635C41.8332 20.3716 41.715 20.1483 41.7019 19.9907C41.6887 19.1502 41.7019 18.3229 41.7281 17.4824C41.7413 17.1672 41.6231 17.0096 41.3735 17.0227L41.019 16.9177C41.0058 16.9965 41.0058 16.9571 40.9927 16.9045C40.3361 16.7207 39.7057 16.5368 39.0753 16.3661C38.8389 16.3004 38.7076 16.2085 38.6419 15.959C38.4318 15.1579 38.2086 14.3699 37.9984 13.582C37.9459 13.3718 37.854 13.2668 37.6307 13.2799C36.8296 13.3193 36.0285 13.3193 35.2274 13.3587C34.8991 13.3718 34.689 13.2799 34.5051 13.0041C34.0586 12.3212 33.5858 11.6646 33.1525 10.9817C32.9949 10.7321 32.8373 10.719 32.5877 10.8109C31.8129 11.113 31.025 11.3888 30.2501 11.6908C30.0663 11.7565 29.9349 11.7302 29.7905 11.612C29.2258 11.1655 28.6611 10.719 28.0832 10.2856C27.5842 9.90479 27.4266 9.90479 26.9275 10.2856C26.3628 10.719 25.7981 11.1524 25.2466 11.5989C25.0758 11.7434 24.9314 11.7696 24.7212 11.6908C23.9595 11.3888 23.1847 11.113 22.4099 10.8241C22.1604 10.7321 22.0028 10.7321 21.8452 10.9817C21.3855 11.6777 20.8996 12.3606 20.44 13.0566C20.2955 13.2536 20.1511 13.3587 19.8753 13.3456C19.061 13.3062 18.2468 13.3062 17.4457 13.2799C17.1831 13.2668 17.0649 13.3587 16.9992 13.6213C16.8022 14.4093 16.5658 15.1841 16.3557 15.9721C16.29 16.1954 16.1718 16.3136 15.9486 16.3792C15.1475 16.6025 14.3464 16.8389 13.5453 17.0621C13.3746 17.1147 13.2695 17.1803 13.2695 17.3773C13.2826 18.1653 13.2564 18.9664 13.3089 19.7412C13.3352 20.1483 13.2038 20.3847 12.8887 20.5817C12.232 21.0019 11.6017 21.4485 10.945 21.8818C10.748 22.0132 10.6955 22.1314 10.7874 22.3546C11.1026 23.1688 11.4047 23.9831 11.6936 24.7973C11.733 24.9155 11.6936 25.1125 11.6148 25.2175C11.1814 25.7954 10.7218 26.347 10.2752 26.9248C9.8944 27.4107 9.90753 27.6208 10.2884 28.1067C10.7218 28.6715 11.1551 29.223 11.6017 29.7877C11.733 29.9453 11.7592 30.0767 11.6804 30.2868C11.339 31.1667 11.0238 32.0597 10.6955 32.9527C11.4966 33.5043 12.2977 34.0427 13.0725 34.6074C13.2038 34.6994 13.322 34.8964 13.322 35.0408C13.322 35.9207 13.2958 36.8006 13.2695 37.6805C13.2564 37.8644 13.322 37.9432 13.4928 37.9957C14.307 38.2189 15.1212 38.4553 15.9355 38.6655C16.1587 38.718 16.2638 38.823 16.3163 39.0332C16.5396 39.8343 16.7891 40.6354 16.9992 41.4365C17.0649 41.686 17.1962 41.7516 17.4326 41.7385C18.168 41.7122 18.9034 41.7385 19.6257 41.686C20.0985 41.6466 20.3743 41.8173 20.6107 42.1982C21.0572 42.9073 21.5431 43.6034 22.029 44.3125C22.8827 43.9973 23.7232 43.7084 24.5505 43.3801C24.8657 43.2488 25.089 43.275 25.3516 43.4983C25.8769 43.9448 26.4285 44.3519 26.9801 44.7722C27.4135 45.1005 27.571 45.1005 28.0176 44.7722C28.5035 44.4045 28.9894 44.0499 29.4359 43.6428C29.8167 43.2882 30.1451 43.2619 30.6178 43.472C31.3664 43.8003 32.1544 44.0499 32.9292 44.3257C33.4414 43.5771 33.9404 42.8679 34.4263 42.1456C34.6233 41.8567 34.8203 41.6991 35.2012 41.7254C35.9629 41.7779 36.7377 41.7385 37.4994 41.7648C37.8014 41.7779 37.9196 41.6597 37.9984 41.3839C38.2086 40.596 38.4187 39.8211 38.6682 39.0463C38.7076 38.9018 38.8783 38.7574 39.0228 38.7049C39.8239 38.4553 40.625 38.2321 41.4261 38.0088C41.6231 37.9563 41.7019 37.8775 41.7019 37.6542C41.6887 36.84 41.7019 36.0258 41.6625 35.2115C41.6493 34.8832 41.7413 34.6731 42.0039 34.5024C42.6737 34.0559 43.3434 33.5831 44.0132 33.1366C44.2102 33.0052 44.2496 32.8871 44.1708 32.6638C43.8688 31.8758 43.593 31.0747 43.2778 30.2868C43.199 30.0898 43.2384 29.9585 43.3697 29.8009C43.8556 29.223 44.3021 28.6714 44.7224 28.0936Z" stroke="#979797" stroke-width="0.859597" stroke-miterlimit="10" stroke-linecap="round" stroke-linejoin="round"/>
<path d="M36.4234 24.4567C36.1056 24.4567 35.7756 24.4567 35.4578 24.4567C35.2989 24.4567 35.2011 24.53 35.1767 24.6889C35.0667 25.2633 34.9445 25.8256 34.8345 26.4C34.6878 27.1822 34.5411 27.9767 34.3945 28.7833C34.3211 28.3556 34.2478 27.9522 34.1745 27.5489C34.0034 26.6078 33.82 25.6789 33.6611 24.7378C33.6245 24.5178 33.5267 24.4445 33.3067 24.4445C32.9889 24.4567 32.6834 24.4689 32.3656 24.4445C32.1578 24.4322 32.0845 24.5056 32.0478 24.7011C31.9989 25.0311 31.9256 25.3489 31.8645 25.6667C31.7178 26.4245 31.5589 27.17 31.4122 27.9278C31.3511 28.2211 31.3022 28.5267 31.2411 28.82C31.1189 28.3311 31.0334 27.8422 30.9478 27.3533C30.7889 26.4733 30.63 25.6056 30.4711 24.7256C30.4467 24.6033 30.4467 24.4445 30.2634 24.4445C29.8356 24.4322 29.3956 24.4445 28.9434 24.4445C28.9556 24.5422 28.9678 24.6156 28.98 24.7011C29.2 25.6422 29.42 26.5711 29.64 27.5122C29.86 28.4533 30.0922 29.3945 30.3122 30.3356C30.3489 30.4945 30.4222 30.5433 30.5811 30.5311C30.8989 30.5189 31.2045 30.5311 31.5222 30.5311C31.95 30.5311 31.8767 30.5922 31.9745 30.1645C32.0845 29.6633 32.1945 29.15 32.3167 28.6L32.3534 28.4533C32.5 27.7445 32.6467 27.0233 32.7811 26.3145C33.0256 27.6467 33.2822 28.9667 33.5267 30.2989C33.5634 30.47 33.6367 30.5189 33.8078 30.5189C34.1745 30.5189 34.5411 30.5433 34.92 30.5311C34.9934 30.5311 35.1034 30.4456 35.1278 30.3722C35.2867 29.7978 35.4456 29.2233 35.5922 28.6489C35.7511 28.0011 35.91 27.3656 36.0811 26.7178C36.2522 26.0211 36.4356 25.3367 36.6189 24.6522C36.6434 24.5178 36.57 24.4445 36.4234 24.4567Z" fill="#979797"/>
<path d="M22.3061 24.4685C22.245 24.4685 22.135 24.5785 22.135 24.6396C22.135 25.434 22.135 26.2285 22.1473 27.0229C22.1473 27.524 22.1473 28.0129 22.1473 28.3185C21.5239 27.194 20.8273 25.9107 20.1061 24.6274C20.0573 24.5418 19.9228 24.4685 19.825 24.4563C19.4706 24.4318 19.1039 24.444 18.7373 24.444C18.395 24.444 18.3828 24.4563 18.3828 24.7985C18.3828 25.7885 18.3828 26.7907 18.3828 27.7807C18.3828 28.6118 18.3828 29.4551 18.395 30.2863C18.395 30.3718 18.4684 30.5185 18.5173 30.5185C18.9084 30.5429 19.2995 30.5307 19.6784 30.5307C19.6784 29.0885 19.6784 27.6585 19.6784 26.314C20.375 27.6096 21.1084 28.954 21.8539 30.3107C21.9028 30.3963 22.0128 30.5185 22.1106 30.5185C22.5384 30.5429 22.9784 30.5307 23.4184 30.5307C23.4184 28.514 23.4184 26.4851 23.4184 24.4563C23.015 24.4685 22.6606 24.4563 22.3061 24.4685Z" fill="#979797"/>
<path d="M25.9607 27.9889C26.694 27.9889 27.4151 27.9889 28.1362 27.9889C28.1362 27.5978 28.1362 27.2312 28.1362 26.8523C27.4029 26.8523 26.694 26.8523 25.9607 26.8523C25.9607 26.4367 25.9607 26.0578 25.9607 25.6301C26.6818 25.6301 27.3785 25.6301 28.0751 25.6301C28.2585 25.6301 28.3196 25.5689 28.3074 25.3978C28.2951 25.2023 28.3074 24.9945 28.3074 24.7989C28.3074 24.4567 28.3074 24.4567 27.9774 24.4567C27.0362 24.4567 26.0829 24.4567 25.1418 24.4567C24.9585 24.4567 24.7751 24.4567 24.5918 24.4567C24.5918 26.5101 24.5918 28.5267 24.5918 30.5434C25.8629 30.5434 27.1218 30.5434 28.3929 30.5434C28.3929 30.1401 28.3929 29.7612 28.3929 29.3578C27.574 29.3578 26.7674 29.3578 25.9729 29.3578C25.9607 28.8812 25.9607 28.4412 25.9607 27.9889Z" fill="#979797"/>
</g>
<defs>
<clipPath id="clip0">
<rect width="55" height="55" fill="white"/>
</clipPath>
</defs>
</svg>
