<svg width="55" height="55" viewBox="0 0 55 55" fill="none" xmlns="http://www.w3.org/2000/svg">
<g clip-path="url(#clip0)">
<path d="M24.1746 15.2167H30.8357C30.8601 14.9356 31.7035 13.0289 32.5468 11.6234C32.5101 11.1467 31.8624 9.81447 30.0535 10.6823C28.0735 11.1711 27.5601 11.1956 25.6046 10.6578C24.7613 10.4256 22.7812 10.2178 22.7812 11.9045C23.649 12.8456 24.1257 14.7645 24.1746 15.2167Z" stroke="#979797" stroke-miterlimit="10"/>
<path d="M40.7732 37.8523C40.7365 36.6178 40.6632 35.3834 40.5899 34.1489C40.5165 33.0856 40.431 32.0101 40.3332 30.9467C40.2476 30.0056 40.1499 29.0645 40.0276 28.1234C39.9054 27.0967 39.771 26.0701 39.6121 25.0434C39.3921 23.6378 39.1232 22.2445 38.6832 20.8878C38.4265 20.1178 37.9499 19.6167 37.1187 19.3478C35.921 18.9445 34.6987 18.5901 33.4643 18.2845C33.391 18.2723 31.2032 17.8078 30.861 16.2556H24.151C23.7965 17.8078 21.621 18.2601 21.5476 18.2845C20.3132 18.5901 19.1032 18.9445 17.8932 19.3478C17.0743 19.6167 16.5854 20.1178 16.3287 20.8878C15.8765 22.2445 15.6199 23.6378 15.3999 25.0434C15.241 26.0701 15.1065 27.0967 14.9843 28.1234C14.8743 29.0645 14.7643 30.0056 14.6787 30.9467C14.581 32.0101 14.4832 33.0856 14.4221 34.1489C14.3487 35.3834 14.2754 36.6178 14.2387 37.8523C14.1654 40.4923 14.1043 41.1645 14.1776 43.8045C14.1899 44.1834 14.2632 44.3056 14.6543 44.4278C15.4487 44.6723 16.2432 44.6845 17.0132 44.3423C17.1232 44.2934 17.1721 44.2445 17.1843 44.1223C17.2087 43.4256 17.2454 43.6945 17.2821 42.9978C17.3432 41.9345 17.4165 41.8489 17.4899 40.7856C17.551 39.9912 17.6121 39.1967 17.6854 38.4145C17.771 37.5101 17.881 36.6178 17.991 35.7134C18.1132 34.7356 18.2476 33.7578 18.3821 32.7801C18.5287 31.7778 18.6876 30.7634 18.8465 29.7612C19.0176 28.7101 19.1887 27.6589 19.3599 26.6078C19.3843 26.4612 19.421 26.3267 19.4454 26.1801C19.4576 26.1801 19.4699 26.1801 19.4943 26.1801C19.5187 26.2656 19.5554 26.3389 19.5676 26.4245C19.7265 27.2434 19.9221 28.0623 20.0321 28.8934C20.2032 30.1278 20.3376 31.3745 20.4599 32.6212C20.5821 33.9167 20.5699 35.2001 20.4843 36.4956C20.3987 37.8645 20.2032 39.2334 19.9832 40.5901C19.9832 40.5901 23.3932 42.6556 28.001 42.6189C32.6087 42.5823 35.041 40.5901 35.041 40.5901C34.821 39.2334 34.6254 37.8645 34.5399 36.4956C34.4543 35.2001 34.4421 33.9045 34.5643 32.6212C34.6865 31.3745 34.821 30.1401 34.9921 28.8934C35.1021 28.0623 35.2976 27.2434 35.4565 26.4245C35.4687 26.3389 35.5054 26.2656 35.5299 26.1801C35.5421 26.1801 35.5543 26.1801 35.5787 26.1801C35.6032 26.3267 35.6399 26.4612 35.6643 26.6078C35.8354 27.6589 36.0187 28.7101 36.1776 29.7612C36.3365 30.7634 36.4954 31.7656 36.6421 32.7801C36.7765 33.7578 36.911 34.7356 37.0332 35.7134C37.1432 36.6178 37.241 37.5101 37.3387 38.4145C37.4121 39.2089 37.4854 39.9912 37.5343 40.7856C37.6076 41.8489 37.681 41.9345 37.7421 42.9978C37.7787 43.6945 37.8154 43.4256 37.8399 44.1223C37.8399 44.2445 37.8887 44.2934 38.011 44.3423C38.7932 44.6845 39.5754 44.6723 40.3699 44.4278C40.761 44.3056 40.8343 44.1834 40.8465 43.8045C40.9076 41.1767 40.8465 40.4923 40.7732 37.8523Z" stroke="#979797" stroke-miterlimit="10"/>
</g>
<defs>
<clipPath id="clip0">
<rect width="55" height="55" fill="white"/>
</clipPath>
</defs>
</svg>
