<svg width="55" height="55" viewBox="0 0 55 55" fill="none" xmlns="http://www.w3.org/2000/svg">
<g clip-path="url(#clip0)">
<path d="M36.2272 41.3722C35.9461 39.6245 35.7139 35.6767 35.5917 33.9167C35.4817 32.2545 35.4695 32.7922 35.6161 31.13C35.7628 29.5289 35.9339 27.9278 36.1417 26.3389C36.2884 25.2756 36.5206 24.2245 36.7161 23.1611C36.7406 23.0511 36.7772 22.9533 36.8139 22.8433C36.8261 22.8433 36.8506 22.8433 36.8628 22.8433C36.8995 23.0267 36.9484 23.1978 36.9728 23.3811C37.1928 24.7378 37.3517 25.6545 37.4128 26.0822C37.4739 26.51 41.4339 26.7789 42.4606 25.3611C42.3017 24.0411 42.1306 22.7211 41.935 21.4011C41.1895 16.5611 39.185 13.9578 34.2472 12.7111C34.125 12.6867 34.0272 12.6622 33.9539 12.8089C33.3184 14.1411 32.1206 14.8745 30.7639 15.4245C29.7861 15.8278 29.1872 15.9378 28.1361 15.9745L26.6939 15.9378C25.6428 15.9011 25.1661 15.8156 24.2006 15.4122C22.8561 14.8622 21.6584 14.1289 21.0106 12.7967C20.9495 12.6622 20.8395 12.6745 20.7172 12.6989C15.3272 14.0311 13.8606 15.9133 13.0295 21.3889C12.8339 22.7089 12.6628 24.0289 12.5039 25.3489C13.5184 26.7667 17.5517 26.07 17.5517 26.07C17.7595 24.7133 17.7717 24.7133 17.9917 23.3689C18.0161 23.1856 18.065 23.0022 18.1017 22.8311C18.1139 22.8311 18.1384 22.8311 18.1506 22.8311C18.1872 22.9411 18.2239 23.0389 18.2484 23.1489C18.4439 24.2122 18.6884 25.2633 18.8228 26.3267C19.0428 27.9156 19.2017 29.5167 19.3484 31.1178C19.5072 32.78 19.4828 32.2422 19.3728 33.9045C19.2628 35.6645 19.0184 39.6122 18.7372 41.36C18.7372 41.36 20.9984 44.5256 28.3072 43.9145C35.6528 43.3033 36.2272 41.3722 36.2272 41.3722Z" stroke="#979797" stroke-miterlimit="10"/>
<path d="M22.501 11C22.2688 11.2445 22.0366 11.5011 21.8166 11.7456C21.5599 12.0389 23.6622 13.3223 23.9066 13.4689C25.3488 14.3367 27.1944 14.5445 28.8688 14.2756C29.8588 14.1167 30.8855 13.7989 31.7288 13.2734C32.0099 13.1023 33.4522 12.1367 33.171 11.7456L32.621 11C31.1299 12.3811 28.8444 12.7723 26.8277 12.5767C25.8744 12.4911 25.0677 12.2589 24.2244 11.8434C24.1022 11.7823 22.5622 10.9389 22.501 11Z" stroke="#979797" stroke-miterlimit="10"/>
</g>
<defs>
<clipPath id="clip0">
<rect width="55" height="55" fill="white"/>
</clipPath>
</defs>
</svg>
