<svg width="55" height="55" viewBox="0 0 55 55" fill="none" xmlns="http://www.w3.org/2000/svg">
<g clip-path="url(#clip0)">
<path d="M29.1259 8.00553C31.3015 7.96887 33.7459 7.72442 35.7504 7.46776C35.5426 6.22109 35.3348 5.36553 35.127 5.52442C35.127 5.52442 31.9615 6.69776 27.4637 6.40442C22.9537 6.11109 19.3603 5.52442 19.3603 5.52442C19.3603 5.52442 19.0303 5.2922 18.7615 6.45331C18.7248 6.63665 18.6515 6.90553 18.5781 7.22331C21.4137 7.56553 26.0581 8.0422 29.1259 8.00553Z" stroke="#979797" stroke-miterlimit="10"/>
<path d="M35.9704 9.06885C33.746 9.31329 31.0204 9.58218 29.1749 9.65551C25.8627 9.86329 20.9982 9.32551 18.236 8.97107C17.9182 10.7922 17.6738 13.31 18.0649 15.9744C18.7004 20.3377 20.1915 27.3044 20.4971 30.4455C20.8149 33.5866 20.986 35.3344 21.0349 36.4466C21.0715 37.5588 21.4015 42.8388 21.4015 42.8388C21.4015 42.8388 21.8782 44.8188 21.9149 45.98C21.9515 47.1411 21.7804 48.6566 22.1471 49.0844C22.5138 49.5122 22.9538 49.5122 24.7138 49.5122C26.486 49.5122 27.2804 49.3289 27.4393 47.9966C27.5982 46.6522 27.0849 46.3711 26.9993 44.9777C26.9138 43.5966 26.6693 36.2388 26.7671 34.4055C26.8404 33 26.8527 31.5822 26.8771 30.1766C26.926 28.0255 26.9627 25.8622 26.9871 23.7111C26.9993 22.2933 27.0727 20.8633 27.0482 19.4455C27.036 18.8466 26.9627 18.2477 27.0115 17.6488C27.036 17.3311 27.0849 17.0133 27.2193 16.72C27.3538 16.4266 27.7449 15.9622 27.8427 16.5488C28.0015 17.4533 28.5515 21.1566 28.5515 21.1566C28.5515 21.1566 29.9082 28.5755 29.9815 29.2722C30.0549 29.9688 30.2871 35.0411 30.2871 36.9111C30.2871 38.7811 30.4093 43.67 30.4093 43.67L30.3727 48.0455C30.3727 48.0455 30.226 49.4755 32.1327 49.4144C34.0393 49.3655 34.6749 49.3044 34.6749 49.3044C34.6749 49.3044 35.7138 48.9622 35.836 47.9722C35.9582 46.9822 36.1049 45.6622 36.1049 45.6622C36.1049 45.6622 36.5938 32.34 36.826 29.1133C37.3515 24.7133 37.1071 17.6366 36.5327 14.6422C36.4593 13.6033 36.2393 11.1711 35.9704 9.06885Z" stroke="#979797" stroke-miterlimit="10"/>
</g>
<defs>
<clipPath id="clip0">
<rect width="55" height="55" fill="white"/>
</clipPath>
</defs>
</svg>
