<svg width="55" height="55" viewBox="0 0 55 55" fill="none" xmlns="http://www.w3.org/2000/svg">
<g clip-path="url(#clip0)">
<path d="M35.3467 16.2189C35.3467 16.2189 32.7067 16.5489 28.4778 16.6344C25.1656 16.7689 20.4356 16.2189 20.4356 16.2189C20.4356 16.2189 19.7267 16.1333 19.3967 16.5855C19.2378 16.8055 17.8201 17.9911 16.879 19.5433C15.8767 21.2055 15.3267 23.2833 14.9234 24.7989C14.1412 27.7322 11.8801 29.7978 10.7434 31.1055C7.79785 34.5033 8.72674 35.5544 12.1978 36.5566C13.7012 36.9966 13.6278 39.2455 14.8134 40.1378C16.2556 41.2255 18.9445 41.9833 20.7167 41.7878C23.5645 41.4578 23.4545 41.3111 24.8234 41.8978C26.1923 42.4844 27.1823 43.2544 29.6512 42.3989C32.1201 41.5433 31.9001 41.4211 34.589 41.7878C36.4712 42.0444 38.9645 41.6166 40.4312 40.3211C41.6412 39.27 41.519 37.1922 43.1445 36.6911C44.6845 36.2144 46.7378 34.4422 45.7601 32.9633C44.9412 31.7044 40.9323 26.1433 40.4434 25.2511C39.9545 24.3711 37.4856 17.6 35.3467 16.2189Z" stroke="#979797" stroke-miterlimit="10"/>
<path d="M34.7241 14.2144C33.8441 14.3488 31.0086 14.9233 27.9653 14.8622C24.9219 14.7888 19.923 14.1777 19.923 14.1777C19.923 14.1777 19.7886 13.6522 19.923 12.8211C20.0208 12.2344 20.3753 12.3077 20.3753 12.3077C20.3753 12.3077 26.0464 12.9677 28.1119 12.9188C30.1775 12.87 34.2719 12.2466 34.8097 12.2222C35.3108 12.1488 35.7386 13.9944 34.7241 14.2144Z" stroke="#979797" stroke-miterlimit="10"/>
</g>
<defs>
<clipPath id="clip0">
<rect width="55" height="55" fill="white"/>
</clipPath>
</defs>
</svg>
