<svg width="55" height="55" viewBox="0 0 55 55" fill="none" xmlns="http://www.w3.org/2000/svg">
<g clip-path="url(#clip0)">
<path d="M36.5808 35.2245C36.5808 35.2245 35.7986 36.1289 33.9164 36.52C32.0342 36.8989 27.9275 33.8311 27.9275 33.8311C27.9275 33.8311 23.8208 36.9111 21.9386 36.52C20.0564 36.1289 19.2742 35.2245 19.2742 35.2245C19.2742 35.2245 19.1275 35.8723 19.2742 37.29C19.4208 38.7078 20.6797 43.3889 20.6797 43.9634C20.6797 44.5378 20.5086 45.5645 21.4742 46.2734C22.4397 46.9823 25.7519 47.8134 27.9153 47.5567C30.0786 47.8134 33.3908 46.9823 34.3564 46.2734C35.3219 45.5645 35.1508 44.5378 35.1508 43.9634C35.1508 43.3889 36.3975 38.7078 36.5564 37.29C36.7397 35.8723 36.5808 35.2245 36.5808 35.2245Z" stroke="#979797" stroke-miterlimit="10"/>
<path d="M32.5468 10.4256C32.5468 10.4256 29.6013 9.0078 27.8779 9.0078C26.1546 9.0078 23.5391 10.2911 23.5391 10.2911" stroke="#979797" stroke-miterlimit="10"/>
<path d="M9.96063 30.299C9.80174 30.5312 9.66729 30.739 9.55729 30.9101C9.09285 31.3135 9.54507 31.7168 9.54507 31.7168C9.54507 31.7168 11.2073 32.9879 12.344 33.7579C12.5762 33.9168 12.8695 33.4646 13.0895 33.2079L9.96063 30.299Z" stroke="#979797" stroke-miterlimit="10"/>
<path d="M24.553 8.66563C24.553 8.66563 22.1941 10.0712 21.4241 10.4012C20.6663 10.719 19.493 10.9756 19.2852 11.1712C19.0896 11.3667 19.0896 11.3667 19.0896 11.3667C19.0896 11.3667 18.5518 11.5012 18.4052 11.9412C18.4052 11.9412 17.7085 14.5079 17.2563 15.4734C16.8041 16.439 15.2885 21.6945 13.9074 23.9801C13.0763 25.3612 11.4141 27.8912 10.2285 29.6879L13.4063 32.6823C13.9074 32.0345 14.3841 31.3623 14.8363 30.6779C15.8018 29.2601 16.9752 27.7812 17.7574 26.2412C18.6496 24.4934 19.1996 23.1734 20.4096 21.5967C20.8374 21.0345 20.0307 25.9356 19.5785 28.319L21.6074 28.7101V29.3579C21.6074 30.1645 20.5685 29.969 19.7618 29.969H19.2241C18.7352 31.4112 17.843 33.8312 17.843 33.8312C17.843 33.8312 19.6396 35.5667 22.4018 35.1756C24.1741 34.9312 26.1052 33.8801 27.2541 33.1712V15.5956C26.3741 14.2512 24.9074 11.6234 24.553 8.66563Z" stroke="#979797" stroke-miterlimit="10"/>
<path d="M35.4432 21.2056C36.9099 23.1245 38.0343 25.8012 38.3521 26.119C38.5721 26.339 40.3199 29.3456 41.7376 31.3012L44.8543 28.9301C43.7176 27.2434 42.141 24.8479 41.2976 23.4667C39.9043 21.169 39.0243 16.4267 38.5843 15.4734C38.1321 14.5079 37.4354 11.9412 37.4354 11.9412C37.301 11.489 36.7632 11.3667 36.7632 11.3667C36.7632 11.3667 36.7632 11.3667 36.5554 11.1712C36.3476 10.9756 35.1743 10.719 34.4165 10.4012C33.6587 10.0834 31.2876 8.66563 31.2876 8.66563C31.0921 11.3912 29.821 13.8723 28.9043 15.2779L28.9532 33.3912C30.1143 34.0879 31.8376 34.9434 33.4387 35.1634C36.201 35.5423 37.9976 33.819 37.9976 33.819C37.9976 33.819 36.9221 32.1445 36.4454 29.9567H35.9565C35.1499 29.9567 34.111 30.1523 34.111 29.3456V28.6979L36.3354 28.3067C35.9199 25.0679 35.0032 20.619 35.4432 21.2056Z" stroke="#979797" stroke-miterlimit="10"/>
<path d="M45.4534 29.8835C45.3679 29.7612 45.2701 29.6024 45.1479 29.4312L42.0801 31.7168C42.1656 31.8146 42.239 31.9001 42.3123 31.9735C42.5567 32.2301 42.7767 32.4012 42.9356 32.4379C44.4634 31.5701 45.4656 30.7146 45.4656 30.7146C45.4656 30.7146 45.8812 30.3235 45.4534 29.8835Z" stroke="#979797" stroke-miterlimit="10"/>
<path d="M24.7363 8.72671C24.6752 8.73893 24.5652 8.93448 24.5652 9.00782C24.5285 11.0612 27.2663 15.6078 27.2663 15.6078L24.5163 13.7989C24.0885 13.5789 23.8563 13.1023 23.9419 12.6256L23.9785 12.4056C24.0396 12.0389 23.9174 11.6723 23.6608 11.4156L23.5996 11.3667C23.3185 11.0978 23.2085 10.7067 23.2819 10.34L23.5385 9.27671C23.7952 8.21337 26.8508 7.39448 27.8774 7.44337C30.3463 7.10115 32.5463 9.42337 32.5463 9.42337L32.7419 10.3523C32.8274 10.7312 32.7052 11.11 32.4241 11.3789L32.3874 11.4034C32.1185 11.66 31.9963 12.0267 32.0696 12.3934L32.1063 12.6134C32.1919 13.09 31.9596 13.5667 31.5319 13.7867L28.9163 15.2656C28.9163 15.2656 32.1552 8.97115 30.7863 8.54337" stroke="#979797" stroke-miterlimit="10"/>
</g>
<defs>
<clipPath id="clip0">
<rect width="55" height="55" fill="white"/>
</clipPath>
</defs>
</svg>
