<svg width="55" height="55" viewBox="0 0 55 55" fill="none" xmlns="http://www.w3.org/2000/svg">
<g clip-path="url(#clip0)">
<path d="M35.9956 40.0644C35.7145 39.6 34.3089 39.4044 33.6856 39.3556C31.8767 39.1967 30.08 39.0989 28.2833 39.0744C27.99 39.0744 27.6845 39.0622 27.3911 39.0622C27.0978 39.0622 26.8045 39.0622 26.4989 39.0744C24.7022 39.0989 22.9056 39.1967 21.0967 39.3556C20.4734 39.4044 19.0678 39.6 18.7867 40.0644C18.5056 40.5289 18.4689 41.14 18.7134 41.3844C19.0434 41.5189 20.9989 41.0544 23.2478 40.8711C23.7 40.8344 24.1767 40.81 24.6411 40.7856V40.7978C25.3011 40.7733 26.2789 40.7367 27.3911 40.7367C28.5033 40.7367 29.4811 40.7733 30.1411 40.7978V40.7856C30.6056 40.81 31.0822 40.8344 31.5345 40.8711C33.7833 41.0544 35.7267 41.5189 36.0689 41.3844C36.3133 41.14 36.2767 40.5289 35.9956 40.0644Z" stroke="#979797" stroke-miterlimit="10"/>
<path d="M26.6695 11.6111H23.3328C23.0639 13.0656 20.6073 13.64 19.4095 14.1656C17.4539 15.0456 16.5862 16.3533 15.4617 18.0644C11.2328 24.5178 7.4195 39.2089 8.87394 40.5411C9.65616 40.8344 11.6117 41.2622 12.8339 40.7367C14.0928 40.1867 14.3373 35.9944 14.5328 34.8822C14.7651 33.6111 15.9995 23.6256 18.6395 24.5667C20.4728 25.2267 20.0206 28.0867 19.8984 29.6389C19.7151 32.3644 18.5906 37.5956 18.5906 38.0233C18.5906 38.28 20.7539 37.7667 20.9617 37.7422C22.8073 37.4856 24.7384 37.3511 26.6573 37.3389V11.6111H26.6695Z" stroke="#979797" stroke-miterlimit="10"/>
<path d="M39.0261 18.0644C37.9016 16.3533 37.0339 15.0456 35.0783 14.1656C33.8928 13.6278 31.4239 13.0656 31.155 11.6111H28.2461V37.3633C28.4294 37.3633 28.625 37.3633 28.8083 37.3756C30.1405 37.4367 31.4728 37.5589 32.7928 37.7545C33.8316 37.9011 35.2861 38.4389 36.2883 37.9011C36.7039 37.6811 36.0683 36.1167 35.9828 35.8233C35.2616 33.5745 34.7361 31.4111 34.455 29.0645C34.2716 27.5978 34.1005 25.2022 35.8483 24.5667C39.2461 23.3445 39.7228 38.6345 41.6661 39.49C42.9005 40.0278 44.8439 39.5878 45.6261 39.2945C47.0683 37.9622 43.255 24.53 39.0261 18.0644Z" stroke="#979797" stroke-miterlimit="10"/>
<path d="M8.84919 41.6166L12.9192 41.91L12.8214 43.3644C12.8214 43.3644 8.95919 43.5355 8.75141 43.0711C8.53141 42.6066 8.84919 41.6166 8.84919 41.6166Z" stroke="#979797" stroke-miterlimit="10"/>
<path d="M42.217 40.8467L46.2747 40.3822L46.4458 41.8245C46.4458 41.8245 42.6814 42.7045 42.3881 42.2889C42.0825 41.8856 42.217 40.8467 42.217 40.8467Z" stroke="#979797" stroke-miterlimit="10"/>
</g>
<defs>
<clipPath id="clip0">
<rect width="55" height="55" fill="white"/>
</clipPath>
</defs>
</svg>
