<svg width="55" height="55" viewBox="0 0 55 55" fill="none" xmlns="http://www.w3.org/2000/svg">
<g clip-path="url(#clip0)">
<path d="M12.6625 10.9389C12.6136 11.2689 12.5525 11.5989 12.5159 11.9289C12.4181 12.8578 12.4548 13.7989 12.4914 14.7522C12.5403 14.7522 12.5892 14.7522 12.6259 14.7522C12.6259 14.7522 15.4614 14.19 16.9281 14.19C18.4192 14.19 21.5114 14.7644 21.5114 14.7644C21.6092 14.7644 21.6581 14.74 21.6825 14.63C21.9636 13.4322 22.2448 12.2344 22.5381 11.0367C22.5503 11.0122 22.5503 10.9756 22.5503 10.9511C22.5381 11.0367 20.167 10.2911 17.5025 10.2911C14.8381 10.2911 12.6625 10.9389 12.6625 10.9389Z" stroke="#979797" stroke-miterlimit="10"/>
<path d="M21.4875 16.6222C21.4875 16.6222 18.3097 15.8644 16.7208 15.8644C15.3275 15.8644 12.5286 16.6222 12.5286 16.6222C12.553 16.8911 12.5652 17.1478 12.6019 17.4167C12.7119 18.2233 12.8097 19.0422 12.9319 19.8489C13.0541 20.7044 13.2008 21.56 13.3352 22.4156C13.5064 23.4789 13.7019 24.5422 13.8852 25.6056C14.0075 26.3267 14.1419 27.0478 14.2641 27.7689C14.3619 28.3189 14.4964 28.8567 14.5697 29.4067C14.7652 30.8611 14.5941 32.2544 13.763 33.5011C13.4575 33.9533 13.0786 34.3322 12.6508 34.6744C12.4552 34.8333 12.3086 35.0778 12.1864 35.2978C11.6608 36.2633 11.8564 37.1556 12.5408 37.9622C13.1764 38.72 14.0075 39.2333 14.8997 39.6244C15.1319 39.7222 15.4008 39.7344 15.6575 39.7956C17.1364 40.1622 18.4441 40.8467 19.4586 42.0078C19.9964 42.6067 20.5708 43.1444 21.2308 43.5967C21.903 44.0611 22.6119 44.4522 23.4186 44.5744C23.883 44.6478 24.3475 44.7211 24.8241 44.7211C25.7408 44.7089 26.5719 44.4033 27.2197 43.7311C27.5008 43.45 27.6719 43.0956 27.623 42.68C27.5864 42.4111 27.4397 42.2156 27.2319 42.0689C27.0486 41.9344 26.8286 41.8367 26.6575 41.69C26.3519 41.4333 26.0464 41.1767 25.7775 40.8833C24.9586 40.0033 24.1519 39.1233 23.333 38.2311C23.2841 38.1822 23.2475 38.1211 23.223 38.0478C22.3919 35.7744 21.573 33.5011 20.8764 31.1789C20.6319 30.3478 20.5219 29.5044 20.4608 28.6489C20.3386 27.1578 20.2897 25.6667 20.3141 24.1633C20.3264 23.3567 20.363 22.55 20.4241 21.7556C20.4852 20.7778 20.693 19.8244 20.9252 18.8833C21.1208 18.1256 21.3041 17.38 21.4875 16.6222Z" stroke="#979797" stroke-miterlimit="10"/>
<path d="M29.7251 25.9478C29.8228 26.4978 29.9573 28.8567 30.0306 29.4067C30.2262 30.8611 30.0551 32.2545 29.224 33.5011C28.9184 33.9533 28.5395 34.3322 28.1117 34.6745C27.9162 34.8333 27.7695 35.0778 27.6473 35.2978C27.1217 36.2633 27.3173 37.1556 28.0017 37.9622C28.6373 38.72 29.4684 39.2333 30.3606 39.6244C30.5928 39.7222 30.8617 39.7345 31.1184 39.7956C32.5973 40.1622 33.9051 40.8467 34.9195 42.0078C35.4573 42.6067 36.0317 43.1444 36.6917 43.5967C37.364 44.0611 38.0728 44.4522 38.8795 44.5745C39.344 44.6478 39.8084 44.7211 40.2851 44.7211C41.2017 44.7089 42.0328 44.4033 42.6806 43.7311C42.9617 43.45 43.1328 43.0956 43.084 42.68C43.0473 42.4111 42.9006 42.2156 42.6928 42.0689C42.5095 41.9344 42.2895 41.8367 42.1184 41.69C41.8128 41.4333 41.5073 41.1767 41.2384 40.8833C40.4195 40.0033 39.6128 39.1233 38.794 38.2311C38.7451 38.1822 38.7084 38.1211 38.684 38.0478C37.8528 35.7744 37.034 33.5011 36.3373 31.1789C36.0928 30.3478 35.9828 27.6833 35.9217 26.8278C35.9217 26.8278 36.0562 25.4222 33.7462 25.5078C32.5484 25.5689 30.9473 25.2511 29.7251 25.9478Z" stroke="#979797" stroke-miterlimit="10"/>
<path d="M29.6406 32.7311C29.6406 32.7311 31.9506 35.1511 32.1584 36.3C32.8551 37.8644 32.2684 39.8077 32.1584 39.9422" stroke="#979797" stroke-miterlimit="10"/>
</g>
<defs>
<clipPath id="clip0">
<rect width="55" height="55" fill="white"/>
</clipPath>
</defs>
</svg>
