<svg width="55" height="55" viewBox="0 0 55 55" fill="none" xmlns="http://www.w3.org/2000/svg">
<g clip-path="url(#clip0)">
<path d="M16.255 18.9445C16.1328 19.4333 16.1328 21.7556 16.1328 22.2445C16.1328 27.1333 35.5661 27.1333 35.5661 22.2445C35.5661 21.7556 35.5661 19.4333 35.4439 18.9445C33.855 22.9778 17.8439 22.9778 16.255 18.9445Z" stroke="#979797" stroke-miterlimit="10"/>
<path d="M27.8661 8.18891C28.1105 7.82225 28.355 7.33336 28.355 6.84447C28.355 5.50002 27.255 4.40002 25.9105 4.40002C24.5661 4.40002 23.4661 5.50002 23.4661 6.84447C23.4661 7.33336 23.5883 7.82225 23.9549 8.31114C19.9216 9.16669 16.9883 12.7111 16.9883 16.9889C16.9883 21.8778 34.8327 21.8778 34.8327 16.9889C34.8327 12.7111 31.7772 9.16669 27.8661 8.18891Z" stroke="#979797" stroke-miterlimit="10"/>
<path d="M27.7435 31.9C27.7435 31.2889 27.988 30.5556 27.988 30.5556C27.988 30.1889 27.7435 29.9445 27.3769 29.9445H26.888C26.6435 29.9445 26.5213 29.8223 26.3991 29.7L25.5435 28.4778C25.4213 28.2334 25.1769 28.2334 24.9324 28.2334C23.8324 28.4778 20.4102 29.8223 19.4324 30.1889C19.4324 29.8223 19.0658 29.5778 18.8213 29.5778H15.6435C15.2769 29.5778 15.0324 29.8223 14.9102 30.1889C13.9324 29.8223 10.6324 28.4778 9.53242 28.2334C9.28798 28.2334 9.04353 28.2334 8.92131 28.4778L8.06576 29.5778C7.94353 29.7 7.82131 29.8223 7.57687 29.8223H7.08798C6.72131 29.8223 6.47687 30.0667 6.47687 30.4334C6.47687 30.4334 6.72131 31.1667 6.59909 31.7778C6.59909 32.3889 6.23242 33.3667 6.23242 33.3667C6.23242 33.7334 6.47687 34.1 6.84353 34.1H7.33242C7.57687 34.1 7.69909 34.2223 7.82131 34.3445L8.67687 35.6889C8.79909 35.9334 9.16576 36.0556 9.4102 35.9334L14.788 33.6111C14.9102 33.8556 15.1546 33.9778 15.3991 33.9778H18.5769C18.8213 33.9778 19.0658 33.8556 19.188 33.6111L24.5658 36.0556C24.8102 36.1778 25.1769 36.1778 25.2991 35.9334L26.1546 34.7111C26.2769 34.5889 26.3991 34.4667 26.6435 34.4667H27.1324C27.4991 34.4667 27.7435 34.1 27.7435 33.7334C27.988 33.6111 27.7435 32.5111 27.7435 31.9Z" stroke="#979797" stroke-miterlimit="10"/>
<path d="M19.4328 30.1889C19.4328 30.1889 19.4328 33.2445 19.3105 33.6112" stroke="#979797" stroke-miterlimit="10"/>
<path d="M14.9102 30.0667C14.9102 30.0667 15.0324 33.1223 14.9102 33.6112" stroke="#979797" stroke-miterlimit="10"/>
<path d="M26.8872 29.9445L19.4316 30.9222V32.3889L26.3983 34.5889" stroke="#979797" stroke-miterlimit="10"/>
<path d="M7.69922 29.7001L14.9103 30.9223V32.389L7.94366 34.3445" stroke="#979797" stroke-miterlimit="10"/>
<path d="M43.3876 36.9111C44.1209 35.8111 45.0987 34.4666 45.9542 33.3666C46.6876 32.2666 47.5431 31.2889 48.2765 30.1889C48.3987 29.9444 48.5209 29.7 48.5209 29.4555C48.5209 29.0889 48.3987 28.8444 48.1542 28.6C47.9098 28.3555 47.5431 28.3555 47.2987 28.6C47.0542 28.7222 46.932 28.8444 46.8098 29.0889C46.3209 29.7 45.7098 30.3111 45.2209 30.9222L45.0987 31.0444C44.9765 31.1666 44.8542 31.1666 44.732 31.0444C44.6098 30.9222 44.6098 30.8 44.6098 30.6778C44.6098 30.6778 44.6098 30.5555 44.732 30.5555C45.2209 29.8222 45.7098 28.9666 46.1987 28.2333C46.5654 27.7444 46.932 27.1333 47.1765 26.5222C47.4209 26.1555 47.2987 25.6666 46.932 25.4222C46.5654 25.1778 46.1987 25.1778 45.832 25.4222C45.7098 25.5444 45.4654 25.6666 45.4654 25.9111C44.8542 26.7666 44.3654 27.5 43.7542 28.3555C43.5098 28.7222 43.1431 29.2111 42.8987 29.5778C42.7765 29.7 42.6542 29.7 42.532 29.7C42.4098 29.5778 42.4098 29.4555 42.4098 29.3333C43.2654 27.7444 43.9987 26.2778 44.8542 24.6889C44.9765 24.4444 45.0987 24.2 45.0987 23.8333C45.0987 23.4666 44.9765 23.1 44.6098 22.9778C44.2431 22.8555 43.9987 22.8555 43.632 23.1C43.5098 23.2222 43.2654 23.4666 43.2654 23.5889C42.532 24.8111 41.7987 26.0333 41.0653 27.2555C40.8209 27.6222 40.5765 27.9889 40.4542 28.3555C40.4542 28.4778 40.332 28.4778 40.2098 28.4778C40.2098 28.4778 40.2098 28.3555 40.2098 28.2333C40.2098 28.1111 40.332 28.1111 40.332 27.9889C40.5765 27.3778 40.8209 26.6444 41.1876 26.0333C41.432 25.4222 41.6765 24.8111 41.9209 24.2C42.0431 23.9555 42.1654 23.5889 42.1654 23.2222C42.1654 22.8555 42.0431 22.4889 41.6765 22.3666C41.3098 22.1222 40.9431 22.2444 40.5765 22.4889C40.4542 22.6111 40.332 22.7333 40.2098 22.9778C39.9654 23.3444 39.8431 23.8333 39.5987 24.2C39.1098 25.3 38.6209 26.4 38.132 27.5C37.8876 27.9889 37.6431 28.6 37.3987 29.0889C37.3987 29.2111 37.2765 29.3333 37.1542 29.2111C37.032 29.0889 36.9098 29.0889 36.9098 28.9666C36.9098 28.7222 36.7876 28.6 36.7876 28.3555C36.7876 27.9889 36.6654 27.7444 36.6654 27.3778C36.5431 26.7666 36.2987 26.4 35.8098 26.0333C35.4431 25.7889 34.5876 25.6666 34.3431 26.4C34.3431 26.4 34.2209 26.5222 34.2209 26.6444C34.0987 26.8889 34.0987 27.1333 34.3431 27.3778C34.4654 27.5 34.5876 27.7444 34.5876 27.8666C34.7098 28.3555 34.832 28.8444 34.9542 29.2111C35.0765 29.7 35.0765 30.1889 35.0765 30.6778" stroke="#979797" stroke-miterlimit="10"/>
<path d="M40.6995 44.3667C40.6995 44.3667 40.6995 44.2445 40.6995 44.1223C40.9439 43.7556 41.0661 43.2667 41.0661 42.9001C41.1883 42.4112 41.1883 42.0445 41.3106 41.5556C41.555 40.5778 41.9217 39.6001 42.4106 38.7445C42.655 38.3778 42.7772 38.1334 43.1439 37.8889C43.2661 37.8889 43.2661 37.7667 43.2661 37.6445C43.3883 36.7889 42.8995 36.1778 42.0439 36.3001C41.4328 36.4223 41.0661 36.7889 40.6995 37.2778C40.5772 37.5223 40.455 37.7667 40.3328 38.0112C40.2106 38.2556 40.0883 38.6223 39.9661 38.8667C39.9661 38.9889 39.8439 38.9889 39.7217 38.9889C39.5995 38.9889 39.5995 38.8667 39.4772 38.7445C39.355 38.3778 39.355 37.8889 39.2328 37.5223C39.1106 36.6667 38.9883 35.8112 38.8661 34.9556C38.7439 34.1001 38.6217 33.1223 38.4995 32.2667C38.4995 32.0223 38.3772 31.7778 38.255 31.5334C38.0106 31.2889 37.7661 31.0445 37.3995 31.1667C37.0328 31.1667 36.7883 31.4112 36.6661 31.7778C36.6661 31.9001 36.5439 32.1445 36.5439 32.3889C36.5439 32.8778 36.6661 33.3667 36.6661 33.8556C36.7883 34.8334 36.9106 35.8112 37.0328 36.7889C37.0328 36.9112 37.0328 37.1556 37.0328 37.2778L36.9106 37.4001C36.9106 37.4001 36.7883 37.4001 36.7883 37.2778C36.7883 37.2778 36.7883 37.2778 36.7883 37.1556C36.2995 35.3223 35.8106 33.6112 35.3217 31.7778C35.1995 31.5334 35.1995 31.2889 34.955 31.1667C34.5883 30.6778 33.855 30.8001 33.4883 31.4112C33.3661 31.6556 33.3661 31.7778 33.3661 32.0223C33.3661 32.3889 33.4883 32.6334 33.6106 33.0001C33.9772 34.5889 34.3439 36.0556 34.5883 37.6445C34.5883 37.7667 34.5883 38.0112 34.4661 38.0112C34.3439 38.0112 34.2217 38.0112 34.0995 37.7667C33.9772 37.4001 33.855 37.1556 33.7328 36.7889C33.3661 35.6889 32.9995 34.5889 32.6328 33.4889C32.5106 33.1223 32.3883 32.8778 32.1439 32.7556C31.655 32.3889 30.9217 32.7556 30.7995 33.2445C30.7995 33.4889 30.7995 33.7334 30.7995 33.9778C31.1661 35.2001 31.5328 36.3001 31.7772 37.5223C31.8995 37.7667 31.8995 38.0112 32.0217 38.2556C32.0217 38.3778 32.0217 38.5001 31.8995 38.6223C31.7772 38.6223 31.655 38.6223 31.5328 38.5001C31.5328 38.5001 31.5328 38.5001 31.5328 38.3778C31.1661 37.6445 30.7995 36.9112 30.555 36.1778C30.4328 36.0556 30.3106 35.8112 30.1883 35.6889C29.9439 35.4445 29.6995 35.3223 29.3328 35.4445C28.9661 35.5667 28.7217 35.6889 28.5995 36.0556C28.4772 36.3001 28.5995 36.6667 28.7217 36.9112C29.6995 39.3556 30.555 41.9223 31.4106 44.3667C31.655 45.1001 32.1439 45.7112 32.755 46.2001L32.8772 46.3223C32.9995 46.9334 32.9995 47.5445 33.1217 48.1556C33.2439 49.0112 33.3661 49.7445 33.4883 50.6001C33.4883 50.7223 33.4883 50.7223 33.6106 50.7223C33.855 50.7223 34.0995 50.7223 34.2217 50.8445C34.5883 50.8445 34.8328 50.8445 35.1995 50.7223C36.055 50.6001 37.0328 50.3556 37.8883 50.2334C38.9883 49.9889 40.0883 49.7445 41.0661 49.2556C41.4328 49.1334 41.6772 48.8889 41.9217 48.7667C42.0439 48.6445 42.0439 48.6445 42.0439 48.4001C41.6772 46.9334 41.1883 45.5889 40.6995 44.3667Z" stroke="#979797" stroke-miterlimit="10"/>
</g>
<defs>
<clipPath id="clip0">
<rect width="55" height="55" fill="white"/>
</clipPath>
</defs>
</svg>
