<svg width="55" height="55" viewBox="0 0 55 55" fill="none" xmlns="http://www.w3.org/2000/svg">
<g clip-path="url(#clip0)">
<path d="M19.3102 13.1999C18.5769 13.6888 17.3547 14.1777 16.8658 15.0333C16.1325 16.1333 15.5214 17.4777 15.5214 18.9444C15.5214 22.2444 14.1769 23.0999 14.0547 25.5444C15.6436 26.8888 16.988 27.1333 19.0658 26.6444C19.188 26.1555 19.3102 25.5444 19.4325 25.0555C20.7769 32.0222 20.0436 36.5444 19.5547 43.511C19.0658 44.2444 20.5325 44.4888 20.6547 44.4888C25.6658 45.5888 29.9436 45.711 34.8325 44.7333C35.1991 44.611 37.2769 44.3666 37.1547 43.1444C36.2991 36.6666 35.5658 30.4333 36.0547 23.8333C36.2991 24.5666 36.4214 25.5444 36.9102 26.1555C38.8658 26.7666 40.8214 25.2999 40.8214 24.9333C40.9436 24.6888 40.8214 24.1999 40.8214 23.9555C40.5769 22.2444 39.8436 20.6555 39.5991 18.8222C39.3547 17.4777 39.1102 16.011 38.2547 14.911C36.788 13.1999 34.7102 13.3222 33.1214 11.8555C32.8769 12.9555 31.4102 13.4444 30.3102 13.811C29.2102 14.1777 27.988 13.9333 26.888 13.4444C25.9102 12.9555 25.0547 12.3444 24.3214 11.611C23.9547 11.2444 23.8325 10.6333 23.2214 10.6333C22.8547 10.7555 22.2436 11.2444 21.8769 11.3666C20.8991 11.8555 20.288 12.5888 19.3102 13.1999Z" stroke="#979797" stroke-miterlimit="10"/>
<path d="M33.2426 11.7333C32.9982 11.4889 33.1204 11.4889 32.7537 11.3666C31.8982 13.2 29.0871 13.2 27.376 12.3444C26.276 11.8555 25.176 10.7555 24.5648 9.65553C24.3204 9.77776 23.4648 10.2666 23.4648 10.2666" stroke="#979797" stroke-miterlimit="10"/>
<path d="M28.2324 13.8111L29.5769 15.1555L30.4324 13.6888" stroke="#979797" stroke-miterlimit="10"/>
</g>
<defs>
<clipPath id="clip0">
<rect width="55" height="55" fill="white"/>
</clipPath>
</defs>
</svg>
