<svg width="55" height="55" viewBox="0 0 55 55" fill="none" xmlns="http://www.w3.org/2000/svg">
<path d="M41.6774 21.1444C41.6774 21.1444 41.6774 21.0222 41.6774 21.1444C41.5552 21.0222 41.6774 21.1444 41.6774 21.1444Z" stroke="#1D1D1B" stroke-width="0.5" stroke-miterlimit="10"/>
<path d="M24.4446 12.8333C22.978 13.5667 21.5113 14.5445 20.2891 15.7667C21.5113 14.5445 22.978 13.5667 24.4446 12.8333Z" stroke="#1D1D1B" stroke-width="0.8" stroke-miterlimit="10"/>
<path d="M36.666 17.2334C37.2771 17.4778 37.766 17.7223 38.2549 18.0889C37.8882 17.7223 37.2771 17.4778 36.666 17.2334Z" stroke="#1D1D1B" stroke-width="0.8" stroke-miterlimit="10"/>
<path d="M38.8672 18.4556C39.4783 18.9445 40.0894 19.4333 40.5783 19.9222C40.0894 19.4333 39.4783 18.9445 38.8672 18.4556Z" stroke="#1D1D1B" stroke-width="0.8" stroke-miterlimit="10"/>
<path d="M40.5781 19.9222C40.8226 20.1666 40.9448 20.4111 41.1892 20.5333C41.067 20.4111 40.8226 20.1666 40.5781 19.9222Z" stroke="#1D1D1B" stroke-width="0.8" stroke-miterlimit="10"/>
<path d="M20.0449 16.0111C20.0449 15.8889 20.1671 15.8889 20.1671 15.8889L20.0449 16.0111Z" stroke="#1D1D1B" stroke-width="0.8" stroke-miterlimit="10"/>
<path d="M40.9447 17.9667C41.4336 16.0111 40.4558 13.8111 39.1113 12.3445C40.578 13.8111 41.4336 16.1333 40.9447 17.9667Z" stroke="#1D1D1B" stroke-width="0.8" stroke-miterlimit="10"/>
<path d="M40.9445 17.9667C40.9445 18.0889 40.9445 18.0889 40.8223 18.2112C40.9445 18.0889 40.9445 18.0889 40.9445 17.9667Z" stroke="#1D1D1B" stroke-width="0.8" stroke-miterlimit="10"/>
<path d="M20.2882 15.7666L20.166 15.8889C20.166 15.7666 20.2882 15.7666 20.2882 15.7666Z" stroke="#1D1D1B" stroke-width="0.8" stroke-miterlimit="10"/>
<path d="M19.5562 16.3778C16.3785 19.6778 12.9562 22.9778 9.65625 26.2778C13.0785 23.1 16.3785 19.8 19.5562 16.3778ZM19.5562 16.3778C19.6785 16.2556 19.8007 16.1334 19.9229 16.0111C19.8007 16.1334 19.6785 16.2556 19.5562 16.3778Z" stroke="#1D1D1B" stroke-width="0.8" stroke-miterlimit="10"/>
<path d="M39.2343 24.5666C38.1343 23.4666 37.0343 22.3666 35.8121 21.3888C35.5676 21.1444 34.9565 21.1444 34.5898 21.1444C32.7565 21.3888 31.0454 20.5333 30.4343 18.8222C29.9454 17.1111 30.6787 15.2777 32.3898 14.6666C33.6121 14.1777 34.7121 14.3 35.8121 15.0333C36.6676 15.5222 37.6454 16.0111 38.501 16.5C39.3565 16.9888 40.0898 17.6 40.9454 18.2111C40.9454 18.0888 40.9454 18.0888 41.0676 17.9666C41.5565 16.1333 40.701 13.9333 39.2343 12.3444L39.1121 12.2222C37.2787 10.5111 34.7121 10.2666 32.2676 10.5111H32.1454C31.901 10.5111 31.6565 10.6333 31.4121 10.6333C30.5565 10.8777 29.5787 11 28.7232 11.2444C27.2565 11.6111 25.9121 12.2222 24.5676 12.8333C23.101 13.5666 21.6343 14.5444 20.4121 15.7666L20.2898 15.8888C20.2898 16.0111 20.1676 16.0111 20.1676 16.0111C20.0454 16.1333 19.9232 16.2555 19.801 16.3777C16.6232 19.8 13.201 22.9777 9.90096 26.2777C8.67873 27.5 7.45651 28.7222 7.08984 30.4333C7.08984 31.1666 7.08984 31.7777 7.08984 32.5111C7.45651 34.1 8.43429 35.0777 9.53429 36.1777C11.8565 38.5 14.1787 40.8222 16.501 43.0222C18.4565 44.9777 21.8787 44.9777 23.8343 43.0222C28.2343 38.7444 32.5121 34.4666 36.7898 30.0666C38.0121 28.7222 38.7454 27.0111 39.601 25.3C39.4787 25.3 39.3565 24.8111 39.2343 24.5666Z" stroke="#979797" stroke-width="0.8" stroke-miterlimit="10" stroke-linecap="round" stroke-linejoin="round"/>
<path d="M47.9117 32.8777C46.9339 28.3555 44.6117 24.5666 41.6784 21.1444C41.6784 21.1444 41.6784 21.0222 41.5562 21.0222C41.4339 20.8999 41.3117 20.7777 41.1895 20.6555C40.9451 20.411 40.8228 20.1666 40.5784 20.0444C40.0895 19.5555 39.4784 19.0666 38.8673 18.5777C38.7451 18.4555 38.5006 18.3333 38.2562 18.211C37.7673 17.8444 37.1562 17.5999 36.6673 17.3555C35.6895 16.9888 34.7117 16.7444 33.7339 16.6222C33.0006 16.4999 32.5117 17.111 32.5117 17.8444C32.5117 18.5777 32.8784 19.1888 33.6117 19.1888C35.4451 19.311 36.9117 20.2888 38.1339 21.511C41.3117 24.4444 43.6339 27.9888 44.8562 32.1444C45.1006 33.1222 45.2228 34.0999 45.2228 35.0777C45.2228 36.5444 44.3673 37.0333 43.2673 36.1777C42.1673 35.4444 41.3117 34.4666 40.4562 33.4888C39.7228 32.6333 39.1117 31.5333 38.5006 30.4333C38.1339 30.9222 37.8895 31.411 37.4006 31.7777C36.6673 32.3888 36.7895 32.8777 37.2784 33.611C38.5006 35.4444 39.7228 37.1555 41.6784 38.3777C44.0006 39.8444 47.3006 39.4777 48.0339 36.0555V35.9333C48.1562 34.711 47.9117 32.9999 47.9117 32.8777Z" stroke="#979797" stroke-width="0.8" stroke-miterlimit="10" stroke-linecap="round" stroke-linejoin="round"/>
<path d="M25.9116 22.4889V27.0111L29.7005 29.5778L25.4227 31.0444L24.0783 35.4444L21.3894 31.7778L16.8672 31.9L19.5561 28.2333L17.9672 23.9555L22.245 25.3L25.9116 22.4889Z" stroke="#979797" stroke-miterlimit="10" stroke-linecap="round" stroke-linejoin="round"/>
</svg>
