<svg width="55" height="55" viewBox="0 0 55 55" fill="none" xmlns="http://www.w3.org/2000/svg">
<g clip-path="url(#clip0)">
<path d="M32.0222 10.8778L32.7556 12.4667L29.2111 16.8667L27.5 14.1778L32.0222 10.8778Z" stroke="#979797" stroke-miterlimit="10"/>
<path d="M32.3889 44.6111L27.5 39.7222" stroke="#979797" stroke-miterlimit="10"/>
<path d="M27.5 39.1111V44.6111" stroke="#979797" stroke-miterlimit="10"/>
<path d="M22.9775 10.8778L22.2441 12.4667L25.7886 16.8667L27.4997 14.1778L22.9775 10.8778Z" stroke="#979797" stroke-miterlimit="10"/>
<path d="M38.9883 40.8223C38.9883 41.4334 39.1105 42.1667 39.1105 42.7779C39.1105 42.9001 39.1105 43.0223 39.2327 43.0223C40.0883 43.389 41.1883 43.389 42.1661 43.1445C42.5327 43.0223 42.6549 42.9001 42.6549 42.4112C42.6549 41.8001 42.6549 41.3112 42.6549 40.7001C40.8216 41.3112 39.4772 40.9445 38.9883 40.8223Z" stroke="#979797" stroke-miterlimit="10"/>
<path d="M42.6549 40.0889C42.6549 38.3778 42.6549 36.9111 42.5326 34.8334C42.5326 33.4889 42.4104 32.1445 42.2882 30.8C42.166 29.7 42.166 28.4778 42.0438 27.3778C41.9215 26.2778 41.7993 25.0556 41.5549 23.9556C41.3104 22.8556 41.066 21.8778 40.8215 20.7778C40.5771 19.3111 40.6993 17.7222 40.0882 16.3778C39.7215 15.6445 38.866 15.0334 38.1326 14.7889C36.7882 14.3 33.8549 12.8334 32.6326 12.5889L32.0215 11L27.4993 10.5111L22.9771 11L22.366 12.5889C21.0215 12.9556 18.0882 14.4222 16.866 14.7889C16.1326 15.0334 15.1549 15.6445 14.9104 16.3778C14.2993 17.8445 14.4215 19.3111 14.1771 20.7778C14.0549 21.8778 13.6882 22.8556 13.4437 23.9556C13.1993 25.0556 13.0771 26.1556 12.9549 27.3778C12.8326 28.4778 12.7104 29.7 12.7104 30.8C12.5882 32.1445 12.5882 33.4889 12.466 34.8334C12.466 37.0334 12.3438 38.5 12.3438 40.0889C14.1771 40.7 15.6437 40.3334 16.1326 40.0889C16.2549 39.2334 16.2549 38.9889 16.3771 38.0111C16.4993 36.3 16.3771 34.7111 16.3771 33C16.3771 31.5334 16.866 30.1889 17.3549 28.8445C17.8437 27.5 18.2104 26.0334 18.4549 24.5667C18.4549 24.4445 18.5771 24.3222 18.5771 24.0778C18.5771 24.2 18.6993 24.2 18.6993 24.3222C19.4326 28.1111 20.0437 30.0667 19.9215 33.9778C19.5549 36.6667 19.5549 39.6 19.1882 42.2889C19.1882 42.6556 19.1882 42.9 19.066 43.2667C19.066 43.2667 21.8771 44.7334 27.4993 44.6111C32.9993 44.7334 35.9326 43.2667 35.9326 43.2667C35.9326 42.9 35.9326 42.6556 35.8104 42.2889C35.4437 39.6 35.4437 36.6667 35.3215 33.8556C35.0771 29.9445 35.8104 27.9889 36.5437 24.2C36.5437 24.0778 36.5437 24.0778 36.666 23.9556C36.666 24.0778 36.7882 24.2 36.7882 24.4445C37.0326 25.9111 37.3993 27.3778 37.8882 28.7222C38.3771 30.0667 38.866 31.4111 38.866 32.8778C38.866 34.5889 38.7437 36.1778 38.866 37.8889C38.9882 38.8667 38.9882 39.2334 39.1104 39.9667C39.3549 40.2111 40.8215 40.7 42.6549 40.0889Z" stroke="#979797" stroke-miterlimit="10"/>
<path d="M12.3438 40.7001C12.3438 41.189 12.3438 41.8001 12.3438 42.4112C12.3438 42.7779 12.466 42.9001 12.8326 43.1445C13.6882 43.389 14.9104 43.389 15.766 43.0223C15.8882 43.0223 15.8882 42.9001 15.8882 42.7779C15.8882 42.1667 15.8882 41.4334 16.0104 40.8223C15.5215 40.9445 14.1771 41.3112 12.3438 40.7001Z" stroke="#979797" stroke-miterlimit="10"/>
<path d="M27.5 14.1778V44.6111" stroke="#979797" stroke-miterlimit="10"/>
</g>
<defs>
<clipPath id="clip0">
<rect width="55" height="55" fill="white"/>
</clipPath>
</defs>
</svg>
