<svg width="55" height="55" viewBox="0 0 55 55" fill="none" xmlns="http://www.w3.org/2000/svg">
<g clip-path="url(#clip0)">
<path d="M38.0117 42.8999C38.0117 43.511 38.1339 44.1221 38.1339 44.7332C38.1339 44.8555 38.1339 44.8555 38.2562 44.9777C38.9895 45.3443 40.0895 45.3443 40.9451 45.0999C41.3117 44.9777 41.4339 44.8555 41.4339 44.4888C41.4339 43.8777 41.4339 43.3888 41.4339 43.0221C39.7228 43.511 38.5006 43.1443 38.0117 42.8999Z" stroke="#979797" stroke-miterlimit="10"/>
<path d="M41.4328 42.2888C41.4328 40.6999 41.4328 37.6444 41.3105 35.6888C41.3105 34.4666 41.1883 33.2444 41.1883 32.0222C41.0661 30.9222 41.0661 29.9444 40.9439 28.8444C40.8217 27.7444 40.8217 26.7666 40.5772 25.7888C40.3328 24.8111 40.0883 23.8333 39.9661 22.9777C39.7217 21.1444 39.8439 19.0666 38.255 17.7222C36.9105 16.6222 33.3661 15.2777 31.655 14.9111V12.7111C29.8217 12.4666 25.6661 12.3444 23.4661 12.7111V14.9111C21.5105 15.3999 19.1883 16.2555 17.5994 17.4777C15.3994 19.0666 15.6439 20.5333 15.2772 22.9777C15.155 23.9555 14.9105 24.9333 14.6661 25.7888C14.4217 26.7666 14.2994 27.8666 14.2994 28.8444C14.1772 29.9444 14.055 30.9222 14.055 32.0222C13.9328 33.2444 13.9328 34.4666 13.9328 35.6888C13.9328 37.6444 13.8105 40.6999 13.8105 42.2888C15.5217 42.8999 16.7439 42.5333 17.2328 42.2888C17.2328 41.5555 17.355 41.3111 17.4772 40.3333C17.5994 38.7444 17.4772 35.5666 17.4772 33.9777C17.4772 32.6333 17.9661 31.4111 18.3328 30.1888C18.8217 28.8444 19.0661 27.6222 19.3105 26.2777C19.3105 26.1555 19.3105 26.0333 19.4328 25.9111C19.4328 26.0333 19.555 26.0333 19.555 26.1555C20.1661 29.5777 19.9217 31.4111 19.7994 34.9555C19.6772 37.5222 19.6772 40.2111 19.3105 42.7777C19.3105 43.0222 19.3105 43.3888 19.1883 43.6333C19.1883 43.6333 22.6105 44.9777 27.7439 44.8555C32.8772 44.9777 36.2994 43.6333 36.2994 43.6333C36.2994 43.3888 36.2994 43.0222 36.1772 42.7777C35.8105 40.2111 35.8105 37.5222 35.6883 34.9555C35.5661 31.4111 35.1994 29.5777 35.9328 26.1555C35.9328 26.0333 35.9328 26.0333 36.055 25.9111C36.055 26.0333 36.1772 26.1555 36.1772 26.2777C36.4217 27.6222 36.6661 28.9666 37.155 30.1888C37.5217 31.4111 38.0105 32.6333 38.0105 33.9777C38.0105 35.5666 37.8883 38.7444 38.0105 40.3333C38.1328 41.3111 38.1328 41.5555 38.255 42.2888C38.3772 42.4111 39.7217 42.8999 41.4328 42.2888Z" stroke="#979797" stroke-miterlimit="10"/>
<path d="M13.5664 42.9C13.5664 43.3889 13.5664 43.8778 13.5664 44.3667C13.5664 44.7333 13.6886 44.8555 14.0553 44.9778C14.7886 45.2222 15.8886 45.2222 16.7442 44.8555C16.8664 44.8555 16.8664 44.7333 16.8664 44.6111C16.8664 44 16.8664 43.3889 16.9886 42.7778C16.4997 43.1444 15.2775 43.5111 13.5664 42.9Z" stroke="#979797" stroke-miterlimit="10"/>
<path d="M31.6552 11.7333C31.6552 11.7333 24.1996 11.3666 23.0996 11.7333V10.0222C23.0996 10.0222 28.5996 9.53329 31.6552 10.1444C31.6552 10.1444 31.7774 10.2666 31.6552 11.7333Z" stroke="#979797" stroke-miterlimit="10"/>
</g>
<defs>
<clipPath id="clip0">
<rect width="55" height="55" fill="white"/>
</clipPath>
</defs>
</svg>
