<svg width="55" height="55" viewBox="0 0 55 55" fill="none" xmlns="http://www.w3.org/2000/svg">
<g clip-path="url(#clip0)">
<path d="M40.9447 29.7L39.6003 27.6222C39.2336 25.9111 38.5003 23.7111 38.1336 21.8778C38.1336 21.7555 38.1336 21.6333 38.1336 21.5111C37.8892 19.8 37.767 18.2111 37.4003 16.5C37.0336 15.0333 36.667 13.4444 35.567 12.4667C34.1003 11.2444 32.267 11.6111 31.0447 10.2667C30.8003 10.7555 27.6225 16.7444 27.6225 16.7444L22.0003 11.3667C21.7559 11.1222 21.3892 10.7555 21.267 10.5111C20.9003 10.1444 20.6559 9.77777 20.2892 9.77777C20.0447 9.77777 19.6781 9.89999 19.4336 10.0222C17.967 11 16.5003 11.2444 15.1559 12.2222C14.3003 12.8333 13.2003 13.5667 12.7114 14.5444C12.1003 15.6444 12.2225 16.9889 11.9781 18.2111C11.6114 19.8 10.8781 21.1444 10.3892 22.6111C9.9003 24.2 9.9003 25.9111 9.53364 27.6222C9.28919 28.6 9.41141 29.7 9.41141 30.8C9.41141 31.5333 9.53364 32.1444 9.53364 32.8778C9.65586 34.1 9.65586 35.4444 9.77808 36.7889C9.9003 39.4778 10.1447 42.1667 10.3892 44.9778C11.367 45.2222 12.467 45.3444 13.4447 44.8555C13.8114 40.9444 13.9336 36.9111 13.8114 32.8778C13.8114 31.6555 13.6892 30.3111 13.9336 29.0889C14.4225 27.0111 16.0114 25.1778 16.0114 23.1C17.6003 30.1889 17.967 35.5667 17.4781 42.7778C17.4781 43.0222 17.4781 43.1444 17.6003 43.3889C17.7225 43.6333 17.967 43.6333 18.2114 43.7555C23.5892 45.1 26.4003 45.1 31.7781 43.8778C32.5114 43.7555 33.1225 43.6333 33.4892 42.9C32.5114 36.4222 32.8781 29.9444 33.9781 23.4667L35.567 28.8444L36.7892 32.0222C36.7892 32.0222 42.6559 40.2111 42.7781 40.8222C42.9003 41.4333 46.0781 41.0667 45.5892 39.4778C45.1003 37.6444 40.9447 29.7 40.9447 29.7Z" stroke="#979797" stroke-miterlimit="10"/>
<path d="M19.5561 10.1444C19.4338 11.4888 27.5005 18.4555 27.5005 18.4555L31.5338 10.9999C31.6561 10.8777 31.1672 10.2666 30.8005 10.3888C28.6005 10.7555 23.1005 10.8777 20.2894 9.89994C20.1672 9.77772 19.5561 9.89994 19.5561 10.1444Z" stroke="#979797" stroke-miterlimit="10"/>
</g>
<defs>
<clipPath id="clip0">
<rect width="55" height="55" fill="white"/>
</clipPath>
</defs>
</svg>
