<svg width="55" height="55" viewBox="0 0 55 55" fill="none" xmlns="http://www.w3.org/2000/svg">
<g clip-path="url(#clip0)">
<path d="M44.6111 43.8777L44.7333 44.7333C44.7333 44.7333 42.6555 45.2222 41.9222 45.3444C41.8 45.3444 41.6777 44 41.6777 44L44.6111 43.8777Z" stroke="#979797" stroke-miterlimit="10"/>
<path d="M10.3878 43.8777L10.2656 44.7333C10.2656 44.7333 12.3434 45.2222 13.0767 45.3444C13.199 45.3444 13.3212 44 13.3212 44L10.3878 43.8777Z" stroke="#979797" stroke-miterlimit="10"/>
<path d="M45.0996 37.0333C45.0996 37.0333 42.1663 38.5 39.5996 38.5C39.5996 38.5 39.9663 42.1666 40.2107 42.7777C40.4552 43.3889 40.5774 44.3666 41.5552 44.1222C42.1663 44.1222 44.7329 43.6333 45.3441 43.3889C45.8329 43.2666 45.5885 38.0111 45.0996 37.0333Z" stroke="#979797" stroke-miterlimit="10"/>
<path d="M9.8996 37.0333C9.8996 37.0333 12.8329 38.5 15.3996 38.5C15.3996 38.5 15.0329 42.1666 14.7885 42.7777C14.544 43.3889 14.4218 44.3666 13.444 44.1222C12.8329 44.1222 10.2663 43.6333 9.65516 43.3889C9.16627 43.2666 9.41071 38.0111 9.8996 37.0333Z" stroke="#979797" stroke-miterlimit="10"/>
<path d="M22.4893 11.9777C21.8782 11.9777 21.3893 12.1 20.9004 12.3444C21.1448 11.2444 21.1448 10.1444 21.1448 9.04441C21.2671 7.94441 21.5115 6.72219 22.2448 5.98886C22.9782 5.1333 24.2004 4.76663 25.3004 4.64441C26.7671 4.39997 28.3559 4.27775 29.8226 4.52219C31.0448 4.76663 32.1448 5.37775 33.0004 6.2333C33.8559 7.21108 33.7337 8.18886 33.8559 9.28886C33.9782 10.2666 33.9782 11.2444 34.1004 12.2222C32.6337 11.6111 31.0448 12.4666 29.4559 12.8333C28.2337 13.2 26.8893 13.0777 25.6671 12.7111C24.9337 12.4666 24.0782 12.1 23.3448 11.8555C22.9782 11.9777 22.7337 11.9777 22.4893 11.9777Z" stroke="#979797" stroke-miterlimit="10"/>
<path d="M31.9005 7.94445C31.7782 8.31112 31.5338 8.67779 31.2894 9.04445C30.6782 9.77779 30.0671 10.5111 29.2116 10.7556C28.2338 11 26.6449 11.1222 25.5449 10.8778C24.5671 10.5111 24.0782 9.53334 23.5894 8.67779C23.2227 7.94445 22.9782 6.96667 23.4671 6.35556C23.7116 5.9889 24.2005 5.74445 24.6894 5.62223C26.6449 5.01112 29.8227 5.01112 31.4116 6.60001C31.656 6.84445 31.9005 7.21112 31.9005 7.57779C31.9005 7.57779 31.9005 7.82223 31.9005 7.94445Z" stroke="#979797" stroke-miterlimit="10"/>
<path d="M44.8559 35.2C44.7337 33.8555 43.2671 25.9111 43.0226 25.3C42.9004 24.6888 41.1893 20.2888 40.9448 19.6777C40.7004 19.0666 40.0893 17.4777 39.4782 16.6222C38.7448 15.6444 37.5226 15.0333 37.5226 15.0333C37.5226 15.0333 35.4448 14.3 35.3226 14.1777C34.3448 13.8111 33.2448 13.3222 32.1448 13.4444C31.7782 13.5666 29.4559 13.9333 29.3337 14.1777V14.0555C29.3337 14.0555 29.3337 14.0555 29.2115 14.0555V48.8888H26.6448V14.1777C24.9337 13.8111 22.9782 12.7111 21.2671 13.3222L19.5559 13.9333L17.3559 14.7888C17.3559 14.7888 16.1337 15.5222 15.4004 16.3777C14.6671 17.3555 14.1782 18.8222 13.9337 19.4333C13.6893 20.0444 11.9782 24.3222 11.8559 25.0555C11.7337 25.6666 10.2671 33.7333 10.0226 34.9555C9.90039 36.3 9.90039 36.3 9.90039 36.3C9.90039 36.3 12.8337 37.5222 14.3004 37.6444C15.7671 37.7666 15.5226 37.6444 15.5226 37.6444C15.5226 37.6444 15.8893 35.3222 15.8893 35.0777C16.0115 34.8333 16.7448 31.5333 16.7448 31.2888C16.7448 31.0444 17.3559 28.6 17.3559 28.1111C17.3559 27.6222 17.7226 27.1333 17.7226 27.1333C17.7226 27.1333 18.0893 26.8888 18.0893 27.1333C18.0893 27.3777 18.2115 28.7222 18.0893 29.5777C17.9671 30.4333 17.7226 33.8555 17.7226 34.2222C17.7226 34.5888 17.2337 37.1555 17.2337 37.7666C17.2337 38.3777 17.2337 39.9666 17.2337 40.4555C17.2337 40.9444 17.1115 44.2444 16.9893 44.8555C16.9893 45.4666 16.9893 46.3222 16.9893 46.9333C16.9893 47.5444 17.1115 47.9111 17.1115 48.2777C17.1115 48.6444 16.8671 49.1333 17.1115 49.3777C17.2337 49.6222 18.4559 50.1111 19.6782 50.3555C24.9337 50.8444 30.0671 50.8444 35.2004 50.3555C36.4226 50.2333 37.5226 49.6222 37.7671 49.3777C38.0115 49.1333 37.6448 48.6444 37.7671 48.2777C37.7671 47.9111 37.8893 47.5444 37.8893 46.9333C37.8893 46.3222 38.0115 45.4666 37.8893 44.8555C37.8893 44.2444 37.6448 40.9444 37.6448 40.4555C37.6448 39.9666 37.6448 38.3777 37.6448 37.7666C37.6448 37.1555 37.1559 34.5888 37.1559 34.2222C37.1559 33.8555 36.9115 30.5555 36.7893 29.5777C36.6671 28.7222 36.7893 27.2555 36.7893 27.1333C36.7893 26.8888 37.1559 27.1333 37.1559 27.1333C37.1559 27.1333 37.5226 27.6222 37.5226 28.1111C37.5226 28.6 38.1337 31.0444 38.1337 31.2888C38.1337 31.5333 38.8671 34.8333 38.9893 35.0777C39.1115 35.3222 39.3559 37.6444 39.3559 37.6444C39.3559 37.6444 39.1115 37.7666 40.5782 37.6444C42.0448 37.5222 44.9782 36.3 44.9782 36.3C44.9782 36.3 44.9782 36.4222 44.8559 35.2Z" stroke="#979797" stroke-miterlimit="10"/>
<path d="M37.6448 37.0333H31.9004L32.2671 46.4444C32.2671 46.4444 34.9559 47.9111 38.0115 46.4444" stroke="#979797" stroke-miterlimit="10"/>
<path d="M37.7671 39.3555C37.7671 39.3555 32.7559 39.1111 31.9004 39.3555" stroke="#979797" stroke-miterlimit="10"/>
<path d="M17.1097 37.0333H22.8541L22.6097 46.4444C22.6097 46.4444 19.9208 47.9111 16.8652 46.4444" stroke="#979797" stroke-miterlimit="10"/>
<path d="M17.1113 39.3555C17.1113 39.3555 22.1224 39.1111 22.978 39.3555" stroke="#979797" stroke-miterlimit="10"/>
<path d="M36.7876 27.2555C33.8543 27.6222 29.332 26.6444 29.332 26.6444" stroke="#979797" stroke-miterlimit="10"/>
<path d="M18.2109 27.2555C21.7554 27.6222 26.7665 26.6444 26.7665 26.6444" stroke="#979797" stroke-miterlimit="10"/>
</g>
<defs>
<clipPath id="clip0">
<rect width="55" height="55" fill="white"/>
</clipPath>
</defs>
</svg>
