<svg width="55" height="55" viewBox="0 0 55 55" fill="none" xmlns="http://www.w3.org/2000/svg">
<g clip-path="url(#clip0)">
<path d="M35.4429 3.42221C34.3429 3.9111 26.7651 4.15555 26.0318 4.03333C24.3207 3.9111 22.7318 3.66666 21.1429 3.29999C20.0429 3.05555 19.9207 2.68888 19.3096 3.54444C18.9429 4.03333 19.0651 5.74444 18.9429 6.35555C18.2096 13.5667 18.5763 20.9 18.9429 28.1111C19.1874 34.5889 19.554 41.0667 19.7985 47.5444C19.7985 48.5222 19.9207 49.6222 20.4096 50.6C20.8985 51.4556 21.9985 52.1889 22.9763 51.9444C24.4429 51.5778 24.6874 49.6222 24.6874 48.1556C24.8096 38.0111 25.9096 27.6222 27.7429 17.6C29.0874 25.6667 28.9651 33.9778 29.3318 42.1667C29.454 44.7333 29.5763 47.3 30.554 49.6222C31.4096 49.9889 32.3874 50.1111 33.3651 50.1111C33.6096 50.1111 33.854 50.1111 34.0985 49.8667C34.3429 49.6222 34.4651 49.2555 34.4651 48.8889C35.4429 43.0222 34.7096 36.7889 35.3207 30.9222C35.5651 28.3555 35.4429 26.0333 35.8096 23.5889C36.9096 16.8667 36.7874 10.0222 35.4429 3.42221C35.5651 3.29999 35.4429 3.42221 35.4429 3.42221Z" stroke="#979797" stroke-miterlimit="10"/>
<path d="M18.9434 4.88889C18.9434 4.88889 25.2989 6.6 29.21 6.23333C29.8211 6.23333 30.5545 6.23333 31.2878 6.11111C33.4878 5.86666 35.81 5.5 35.81 5.5" stroke="#979797" stroke-miterlimit="10"/>
<path d="M31.0434 6.11111C31.1657 7.08889 31.2879 12.2222 30.6768 12.7111C30.0657 13.2 29.0879 13.4444 29.0879 13.4444" stroke="#979797" stroke-miterlimit="10"/>
<path d="M29.2108 6.23335C29.2108 6.23335 29.6997 12.7111 28.7219 16.0111L27.7441 17.6" stroke="#979797" stroke-miterlimit="10"/>
<path d="M25.2991 6.11111C25.2991 6.11111 24.688 12.3444 24.3213 14.1778C22.3658 26.7667 23.3435 39.2333 22.7324 51.8222" stroke="#979797" stroke-miterlimit="10"/>
<path d="M32.3887 5.98888C32.3887 5.98888 33.2442 15.7667 33.3664 16.3778C33.4887 16.9889 33.2442 23.1 33.3664 23.9555C33.4887 24.8111 33.4887 31.4111 33.3664 32.2667C33.3664 33.1222 33.3664 43.3889 33.3664 44.1222C33.3664 44.8555 33.2442 49.9889 33.2442 49.9889" stroke="#979797" stroke-miterlimit="10"/>
<path d="M21.7551 5.62225L18.4551 12.9556" stroke="#979797" stroke-miterlimit="10"/>
<path d="M34.3438 5.74447H33.7327L33.4883 3.78891H34.0994L34.3438 5.74447Z" stroke="#979797" stroke-miterlimit="10"/>
<path d="M25.6658 6.11107H25.0547V4.03329H25.6658V6.11107Z" stroke="#979797" stroke-miterlimit="10"/>
<path d="M21.2654 5.37781L20.6543 5.25559V3.17781L21.2654 3.54448V5.37781Z" stroke="#979797" stroke-miterlimit="10"/>
</g>
<defs>
<clipPath id="clip0">
<rect width="55" height="55" fill="white"/>
</clipPath>
</defs>
</svg>
