<svg width="55" height="55" viewBox="0 0 55 55" fill="none" xmlns="http://www.w3.org/2000/svg">
<g clip-path="url(#clip0)">
<path d="M35.8111 14.6667C35.8111 14.6667 35.8111 14.9112 36.1778 15.4001C36.5444 15.889 36.9111 16.6223 37.1556 17.1112C37.4 17.6001 37.5222 17.9667 37.7667 18.5778C38.0111 19.1889 38.2556 19.189 38.1333 19.6778C38.0111 20.1667 38.3778 20.5334 38.5 20.9001C38.7444 21.389 38.7444 22.0001 38.7444 22.3667C38.7444 22.7334 38.9889 23.3445 38.9889 23.8334C38.9889 24.3223 38.8667 24.9334 38.9889 25.5445C38.9889 26.1556 39.2333 26.889 39.2333 27.0112C39.2333 27.1334 38.9889 26.7667 38.3778 26.6445C37.7667 26.6445 37.8889 26.6445 37.2778 26.7667C36.6667 26.8889 36.9111 26.7667 36.4222 27.0112C35.9333 27.2556 35.9333 27.2556 35.9333 27.2556C35.9333 27.2556 35.4444 26.7667 35.4444 25.9112C35.4444 25.0556 35.8111 24.8112 35.4444 24.3223C35.0778 23.8334 35.0778 22.8556 35.0778 22.8556C35.0778 22.8556 35.0778 24.2001 35.0778 24.5667C35.0778 24.8112 34.7111 25.789 34.7111 25.789C34.5889 25.789 32.3889 25.6667 31.2889 25.6667C30.3111 25.7889 29.8222 25.6667 28.7222 25.5445C27.6222 25.3001 25.9111 25.3001 25.9111 24.9334C25.7889 24.4445 25.9111 23.8334 25.7889 23.5889C25.6667 23.3445 25.6667 24.5667 25.5444 24.8112C25.4222 25.1778 25.5444 25.1778 25.0556 25.3001C24.4444 25.4223 24.5667 25.4223 24.0778 25.789C23.5889 26.2778 23.9556 24.0778 23.8333 23.5889C23.5889 23.1001 22.9778 22.489 22.7333 22.2445C22 22.1223 22 22.1223 22 22.1223C22 22.1223 22.6111 21.5112 22.7333 21.2667C22.8556 21.0223 23.8333 17.9667 23.8333 17.6001C23.8333 17.2334 23.8333 16.2556 24.5667 15.7667C25.3 15.2778 26.1556 13.8112 27.3778 13.8112C28.6 13.8112 35.4444 13.9334 35.8111 14.6667Z" stroke="#979797" stroke-miterlimit="10"/>
<path d="M34.4665 27.1333C34.4665 27.1333 35.0776 28.3555 35.322 29.8222C35.4443 31.1666 35.6887 34.8333 35.6887 35.5666C35.6887 36.1777 36.0554 39.7222 36.1776 40.4555C36.1776 41.1888 36.5443 47.7888 36.5443 48.6444C36.5443 49.5 36.6665 49.6222 35.4443 49.8666C34.222 50.1111 32.8776 50.4777 32.2665 50.4777C31.5332 50.4777 30.5554 50.2333 30.0665 50.4777C29.5776 50.7222 28.4776 50.7222 28.1109 50.7222C27.7443 50.6 27.622 50.8444 26.522 50.7222C25.4221 50.6 23.7109 50.1111 23.7109 50.1111C23.7109 50.1111 23.7109 49.1333 23.7109 48.4C23.8332 47.5444 24.1998 45.1 24.1998 44.6111C24.1998 44.1222 23.8332 32.5111 24.4443 30.0666C25.0554 27.6222 25.5443 26.1555 25.5443 26.1555C25.5443 26.1555 33.122 26.4 34.4665 27.1333Z" stroke="#979797" stroke-miterlimit="10"/>
<path d="M34.4663 25.7889C34.4663 25.7889 34.5885 26.0334 34.5885 26.5223C34.5885 27.0112 35.0774 27.1334 34.2219 27.1334C33.3663 27.1334 30.3108 27.0112 30.0663 27.0112C29.6997 27.0112 26.7663 26.8889 26.1552 26.6445C25.6663 26.4 25.4219 26.0334 25.4219 26.0334C25.4219 26.0334 25.4219 24.8112 25.6663 24.8112C25.9108 24.8112 27.8663 25.4223 29.0885 25.4223C30.3108 25.4223 32.3885 25.4223 32.8774 25.4223C33.3663 25.4223 34.5885 25.1778 34.4663 25.7889Z" stroke="#979797" stroke-miterlimit="10"/>
<path d="M32.879 12.8334C33.3679 12.9556 33.979 13.2 34.4679 13.4445C34.8346 13.5667 35.9346 14.1778 36.0568 14.5445C36.179 15.0334 35.3235 15.4 34.9568 15.6445C34.4679 16.0112 33.979 16.3778 33.3679 16.7445C32.2679 17.3556 32.3901 17.8445 31.1679 18.0889C31.0457 28.8445 29.7012 39.7223 29.7012 50.4778C29.0901 50.6 28.479 50.7223 28.1123 50.2334C27.9901 49.9889 27.9901 49.7445 27.9901 49.5C27.6235 39.4778 28.3568 28.1111 28.1123 18.0889C28.1123 17.2334 27.1346 17.8445 26.6457 17.1111C26.1568 16.5 25.4235 16.1334 24.9346 15.5223C24.8123 15.4 24.6901 15.1556 24.8123 14.9111C24.8123 14.7889 24.9346 14.6667 25.0568 14.5445C26.5235 13.2 28.479 12.4667 30.5568 12.4667C31.2901 12.4667 32.1457 12.5889 32.879 12.8334Z" stroke="#979797" stroke-miterlimit="10"/>
<path d="M32.1447 10.2667C32.1447 10.2667 32.3891 10.7556 32.0224 10.8778C31.6558 11 31.4113 10.8778 31.1669 10.8778C31.0447 10.8778 31.0447 11 30.8002 11.1222C30.5558 11.1222 30.5558 11.1222 30.3113 11.1222C30.0669 11.1222 29.7002 11.3667 29.3335 11.1222C29.0891 10.8778 28.7224 10.6333 28.478 10.6333C28.2335 10.6333 28.1113 10.5111 28.1113 10.3889C28.2335 10.2667 28.478 9.90002 28.3558 9.77779C28.2335 9.77779 28.6002 9.2889 28.1113 9.41113C27.6224 9.41113 27.378 9.41113 27.1336 9.77779C27.0113 10.2667 26.7669 10.3889 26.8891 10.7556C27.0113 11 27.0113 11 27.0113 11.2445C27.0113 11.4889 27.378 11.6111 27.0113 12.1C26.6447 12.5889 26.1558 12.9556 26.5224 13.5667C26.8891 14.1778 26.8891 13.5667 26.6447 14.5445C26.278 15.5222 26.6447 15.5222 26.6447 16.2556C26.6447 16.9889 26.1558 17.7222 27.8669 18.2111C29.3335 18.5778 29.9447 18.8222 30.5558 18.7C31.1669 18.4556 30.4335 18.5778 31.5335 18.4556C32.7558 18.3333 32.3891 18.0889 32.878 17.6C33.3669 17.1111 33.4891 17.3556 33.978 16.6222C34.8335 14.9111 33.3669 12.2222 33.3669 12.1C33.3669 11.9778 33.1224 11.6111 33.3669 11.1222C33.4891 10.6333 33.4891 10.6333 33.3669 10.2667C33.2447 9.90001 33.1224 9.65557 33.0002 9.77779C32.878 9.90002 32.5113 9.53335 32.3891 9.53335C32.2669 9.53335 31.9002 9.53335 32.0224 9.77779C32.1447 9.90002 32.1447 10.2667 32.1447 10.2667Z" stroke="#979797" stroke-miterlimit="10"/>
<path d="M32.9997 8.80003C32.9997 8.80003 32.633 7.57781 32.3886 6.9667C32.1441 6.35558 32.5108 5.74447 32.2664 5.25558C32.1441 4.88892 31.4108 4.64447 31.1664 4.52225C30.7997 4.27781 30.0664 4.15558 29.6997 4.27781C29.2108 4.40003 28.7219 4.7667 28.3553 5.13336C27.8664 5.62225 28.1108 6.11114 27.9886 6.72225C27.9886 6.9667 27.7441 7.33336 27.7441 7.57781C27.7441 7.82225 27.7441 8.43336 27.7441 8.43336C27.7441 8.43336 28.4775 9.28892 32.9997 8.80003Z" stroke="#979797" stroke-miterlimit="10"/>
<path d="M33 9.65556C33 9.65556 31.7778 9.04444 30.4333 9.16667C29.0889 9.28889 27.5 9.41111 27.5 9.41111C27.5 9.41111 27.6222 8.55556 27.8667 8.43333C28.1111 8.18889 29.8222 7.45556 30.9222 7.7C32.0222 7.94445 33.2444 8.92222 33.2444 8.92222C33.2444 8.92222 33.6111 9.41111 33 9.65556Z" stroke="#979797" stroke-miterlimit="10"/>
<path d="M36.7898 47.6667C36.7898 47.6667 35.6898 48.2778 34.2231 48.4C32.8787 48.5222 32.2676 48.7667 30.9231 48.7667C29.5787 48.7667 27.9898 48.7667 26.8898 48.6444C25.7898 48.5222 24.812 48.5222 24.3231 48.4C23.8343 48.4 23.2231 48.1555 23.2231 48.1555C23.2231 48.1555 22.7343 49.9889 23.2231 50.3555C23.5898 50.7222 25.912 51.3333 27.1343 51.2111C28.3565 51.0889 28.8454 50.9667 29.9454 50.9667C31.1676 50.9667 31.7787 51.2111 33.612 51.0889C35.4454 50.9667 36.7898 50.2333 37.0343 49.5C37.2787 48.8889 36.7898 47.6667 36.7898 47.6667Z" stroke="#979797" stroke-miterlimit="10"/>
<path d="M35.4449 28.2334C35.4449 28.1111 35.6893 27.7445 36.1782 27.6223C36.5449 27.5 37.6449 27.1334 38.256 27.1334C38.8671 27.1334 39.6004 27.5 39.7226 27.8667C39.8449 28.1111 39.8449 28.4778 39.8449 28.7223C39.8449 29.0889 39.7226 29.4556 39.8449 29.7C39.9671 29.9445 40.2115 30.9223 39.8449 31.1667C39.4782 31.4111 38.9893 31.2889 38.9893 31.2889C38.9893 31.2889 39.356 30.4334 38.7449 30.3111C38.1338 30.1889 36.9115 30.1889 36.5449 30.1889C36.1782 30.3111 35.6893 30.5556 35.6893 30.5556C35.6893 30.5556 35.3226 30.0667 35.4449 29.7C35.6893 29.3334 35.4449 28.3556 35.4449 28.2334Z" stroke="#979797" stroke-miterlimit="10"/>
<path d="M22.3675 21.8778C22.8564 22.3667 23.5898 23.1001 23.8342 23.7112C23.9564 24.2001 24.0786 24.9334 24.0786 25.4223C23.9564 26.0334 23.4675 26.0334 23.2231 26.5223C23.1009 26.7667 22.9786 27.1334 22.7342 27.3778C22.1231 27.9889 21.2675 28.3556 20.5342 27.8667C19.9231 27.5001 18.9453 26.6445 18.9453 25.7889C18.9453 25.3001 19.1898 23.5889 19.1898 23.3445C19.312 22.9778 19.6786 22.6112 19.8009 22.4889C19.9231 22.3667 20.0453 22.1223 20.412 22.0001C20.7786 21.8778 21.7564 21.7556 22.3675 21.8778Z" stroke="#979797" stroke-miterlimit="10"/>
<path d="M22.001 24.8112C21.8788 25.4223 21.5121 25.789 20.901 25.789C20.2899 25.789 19.5566 25.5445 19.4343 25.1778C19.1899 24.689 19.4343 22.489 19.801 22.1223C20.0454 21.8778 21.0232 21.7556 21.3899 21.7556C21.7566 21.7556 22.001 22.0001 22.001 22.6112C22.1232 23.1001 22.2454 24.0778 22.001 24.8112Z" stroke="#979797" stroke-miterlimit="10"/>
<path d="M39.4774 30.1889C39.4774 30.1889 39.4774 31.0444 38.9886 31.5333C38.4997 32.0222 38.6219 32.1444 38.133 32.2667C37.6441 32.3889 37.033 32.5111 36.6663 32.3889C36.2997 32.2667 35.933 30.8 36.0552 30.5555C36.1774 30.3111 36.2997 29.9444 36.9108 29.9444C37.5219 29.8222 38.8663 29.5778 39.4774 30.1889Z" stroke="#979797" stroke-miterlimit="10"/>
<path d="M30.6784 12.1C30.8006 11.9778 30.0672 12.1 29.7006 12.1C29.3339 12.1 29.4561 12.1 29.0895 12.1C28.9672 11.9778 30.0673 12.8333 30.6784 12.1Z" stroke="#979797" stroke-miterlimit="10"/>
<path d="M18.0893 53.4111L20.656 25.5444H19.9227L17.7227 53.5333L18.0893 53.4111Z" stroke="#979797" stroke-miterlimit="10"/>
<path d="M22.0002 4.76663C21.6335 4.76663 21.2668 5.1333 21.2668 5.49997C21.2668 5.74441 21.3891 5.98885 21.6335 6.11108L20.2891 21.8777L21.1446 21.7555L22.3668 6.11108C22.6113 5.98885 22.7335 5.74441 22.7335 5.49997C22.7335 5.1333 22.3668 4.76663 22.0002 4.76663Z" stroke="#979797" stroke-miterlimit="10"/>
<path d="M23.3437 3.42224H22.4881L22.2437 2.56668L21.877 3.30001H21.0215L21.6326 3.91113L21.3882 4.64446L22.1215 4.15557L22.7326 4.76668L22.6104 3.91113L23.3437 3.42224Z" stroke="#979797" stroke-miterlimit="10"/>
</g>
<defs>
<clipPath id="clip0">
<rect width="55" height="55" fill="white"/>
</clipPath>
</defs>
</svg>
