<svg width="55" height="55" viewBox="0 0 55 55" fill="none" xmlns="http://www.w3.org/2000/svg">
<g clip-path="url(#clip0)">
<path d="M21.6332 22.9777C20.5332 25.0555 21.1443 27.2555 21.3888 29.4555C21.511 30.3111 22.3666 36.2999 22.4888 38.4999C22.611 40.6999 23.3443 44.4888 23.3443 45.7111C23.4666 46.8111 24.4443 51.0888 24.3221 51.5777C24.0777 54.3888 24.3221 52.6777 26.2777 52.4333C28.111 52.1888 28.111 53.7777 28.111 52.1888C28.111 51.5777 28.111 50.5999 28.2332 49.9888C28.2332 49.2555 27.7443 47.9111 27.8666 47.4222C27.8666 46.9333 27.7443 42.7777 27.6221 41.6777C27.4999 40.5777 27.6221 38.9888 27.6221 38.2555C27.6221 37.3999 27.8666 36.2999 27.9888 35.0777C27.9888 33.8555 28.2332 29.8222 28.2332 29.8222C28.2332 29.8222 28.8443 33.4888 28.8443 33.9777C28.8443 34.4666 29.3332 36.5444 29.3332 37.2777C29.3332 38.0111 30.311 39.5999 30.6777 39.7222C30.9221 39.8444 30.6777 40.4555 30.311 41.0666C29.9443 41.6777 30.1888 44.3666 30.311 45.0999C30.311 45.8333 30.1888 46.5666 29.9443 46.9333C29.6999 47.4222 30.0666 48.3999 30.0666 49.0111C29.9443 49.4999 29.8221 49.8666 29.8221 50.1111C29.8221 50.3555 30.4332 51.2111 31.411 51.2111C32.3888 51.2111 32.3888 50.9666 32.3888 50.9666C32.3888 50.9666 32.7555 49.9888 32.7555 49.3777C32.8777 48.8888 33.2443 47.2999 33.611 45.8333C34.0999 44.3666 35.4443 37.6444 35.4443 37.3999C35.5666 37.1555 35.5666 36.7888 35.4443 35.9333C35.3221 35.0777 34.9555 33.3666 34.8332 32.7555C34.711 32.0222 34.711 30.6777 34.8332 29.6999C34.9555 28.8444 34.4666 23.9555 34.4666 23.9555" stroke="#979797" stroke-miterlimit="10" stroke-linejoin="round"/>
<path d="M30.1896 2.07777C30.1896 2.07777 26.2785 1.34443 22.9785 2.68888" stroke="#979797" stroke-miterlimit="10" stroke-linejoin="round"/>
<path d="M38.7447 10.2667C38.7447 10.2667 38.2559 11.1222 37.5225 11.7334C36.7892 12.3445 36.1781 12.3445 35.8114 12.5889C35.4447 11.9778 33.6114 9.41114 33.6114 9.41114C33.6114 9.41114 33.8559 11.2445 33.2447 13.2C33.2447 16.6222 33.8559 21.2667 34.3447 23.5889C34.467 23.8334 33.367 24.0778 33.1225 24.0778C32.267 24.2 31.4114 24.6889 30.4336 24.6889C29.4559 24.6889 28.4781 24.8111 27.5003 24.8111C26.0336 24.8111 24.4447 24.5667 23.1003 24.0778C22.2447 23.8334 21.5114 23.1 21.0225 22.3667C21.0225 22.3667 21.7559 17.4778 21.0225 10.8778V9.41114L20.0447 11.9778C20.0447 11.9778 19.3114 12.1 18.3336 11.9778C17.3559 11.8556 16.2559 11.1222 16.2559 11.1222C16.2559 11.1222 16.867 9.65558 16.867 9.53336C16.9892 8.92225 17.1114 8.31114 17.1114 7.70003C17.2336 6.72225 17.3559 5.62225 17.967 4.76669C18.5781 4.03336 19.3114 3.78892 20.167 3.54447C21.0225 3.1778 21.8781 2.81114 22.7336 2.56669H22.8559C22.8559 2.56669 22.9781 4.76669 26.0336 4.76669C26.1559 4.76669 26.8892 6.35558 27.1336 6.35558C27.2559 6.35558 27.7447 4.64447 27.9892 4.64447C30.9225 4.15558 30.067 1.95558 30.067 1.95558C30.067 1.95558 33.8559 3.05558 34.2225 3.30003C34.5892 3.42225 35.4447 3.78891 35.6892 4.52225C36.0559 5.25558 38.7447 10.2667 38.7447 10.2667Z" stroke="#979797" stroke-miterlimit="10" stroke-linejoin="round"/>
</g>
<defs>
<clipPath id="clip0">
<rect width="55" height="55" fill="white"/>
</clipPath>
</defs>
</svg>
