<svg width="55" height="55" viewBox="0 0 55 55" fill="none" xmlns="http://www.w3.org/2000/svg">
<g clip-path="url(#clip0)">
<path d="M12.7119 10.8777C12.7119 11.2444 12.5897 11.4889 12.5897 11.8555C12.4675 12.8333 12.4675 13.6889 12.5897 14.6666H12.7119C12.7119 14.6666 15.523 14.0555 16.9897 14.0555C18.4564 14.0555 21.6342 14.6666 21.6342 14.6666C21.7564 14.6666 21.7564 14.6666 21.7564 14.5444C22.0008 13.3222 22.3675 12.1 22.6119 11C22.6119 11 22.6119 11 22.6119 10.8777C22.6119 11 20.1675 10.2666 17.6008 10.2666C15.0342 10.2666 12.7119 10.8777 12.7119 10.8777Z" stroke="#979797" stroke-miterlimit="10"/>
<path d="M21.5119 16.6222C21.5119 16.6222 18.3341 15.8889 16.7452 15.8889C15.4008 15.8889 12.5897 16.6222 12.5897 16.6222C12.5897 16.8667 12.5897 17.1111 12.7119 17.4778C12.8341 18.3333 12.9564 19.0667 13.0786 19.9222C13.2008 20.7778 13.323 21.6333 13.4452 22.4889C13.5675 23.5889 13.8119 24.5667 13.9341 25.6667C14.0564 26.4 14.1786 27.1333 14.3008 27.8667C14.423 28.4778 14.5452 28.9667 14.6675 29.4556C14.9119 30.9222 14.6675 32.2667 13.8119 33.6111C13.4452 34.1 13.0786 34.4667 12.7119 34.8333C12.4675 34.9556 12.3452 35.2 12.223 35.4444C11.7341 36.4222 11.8564 37.2778 12.5897 38.1333C13.2008 38.8667 14.0564 39.3556 14.9119 39.8444C15.1564 39.9667 15.4008 39.9667 15.6452 39.9667C17.1119 40.3333 18.4564 41.0667 19.4341 42.1667C19.923 42.7778 20.5341 43.2667 21.1452 43.7556C21.7564 44.2444 22.4897 44.6111 23.3452 44.7333C23.8341 44.8555 24.323 44.8556 24.6897 44.8556C25.6675 44.8556 26.4008 44.4889 27.1341 43.8778C27.3786 43.6333 27.623 43.2667 27.5008 42.7778C27.5008 42.5333 27.3786 42.2889 27.1341 42.1667C27.0119 42.0444 26.7675 41.9222 26.523 41.8C26.1564 41.5556 25.9119 41.3111 25.6675 40.9444C24.8119 40.0889 24.0786 39.2333 23.223 38.2556L23.1008 38.1333C22.2452 35.8111 21.3897 33.6111 20.7786 31.2889C20.5341 30.4333 20.4119 29.5778 20.4119 28.7222C20.2897 27.2556 20.2897 25.7889 20.2897 24.2C20.2897 23.3444 20.2897 22.6111 20.4119 21.7556C20.4119 20.7778 20.6564 19.8 20.9008 18.9444C21.1452 18.0889 21.2675 17.3556 21.5119 16.6222Z" stroke="#979797" stroke-miterlimit="10"/>
<path d="M29.7012 25.911C29.8234 26.5222 29.9456 28.8444 30.0679 29.3333C30.3123 30.7999 30.0679 32.1444 29.2123 33.4888C28.8456 33.9777 28.479 34.3444 28.1123 34.711C27.8679 34.8333 27.7456 35.0777 27.6234 35.3222C27.1345 36.2999 27.2567 37.1555 27.9901 38.011C28.6012 38.7444 29.4567 39.2333 30.3123 39.7222C30.5567 39.8444 30.8012 39.8444 31.0456 39.8444C32.5123 40.211 33.8567 40.9444 34.8345 42.0444C35.3234 42.6555 35.9345 43.1444 36.6679 43.6333C37.279 44.1222 38.0123 44.4888 38.8679 44.611C39.3567 44.7333 39.8456 44.7333 40.3345 44.7333C41.3123 44.7333 42.0456 44.3666 42.779 43.7555C43.0234 43.511 43.2679 43.1444 43.1456 42.6555C43.1456 42.411 42.9012 42.1666 42.779 42.0444C42.5345 41.9222 42.4123 41.7999 42.1679 41.6777C41.8012 41.4333 41.5567 41.1888 41.3123 40.8222C40.4567 39.9666 39.7234 39.111 38.8679 38.1333L38.7456 38.011C37.8901 35.6888 37.0345 33.4888 36.4234 31.1666C36.179 30.311 36.0567 27.6222 36.0567 26.7666C36.0567 26.7666 36.179 25.4221 33.8567 25.4221C32.5123 25.5444 30.9234 25.2999 29.7012 25.911Z" stroke="#979797" stroke-miterlimit="10"/>
<path d="M29.7012 32.7555C29.7012 32.7555 32.0234 35.1999 32.2678 36.2999C33.0012 37.8888 32.3901 39.8444 32.2678 39.9666" stroke="#979797" stroke-miterlimit="10"/>
</g>
<defs>
<clipPath id="clip0">
<rect width="55" height="55" fill="white"/>
</clipPath>
</defs>
</svg>
