<svg width="33" height="24" viewBox="0 0 33 24" fill="none" xmlns="http://www.w3.org/2000/svg">
<g clip-path="url(#clip0)">
<path d="M23.3521 9V5.06406L12.1681 1.16406L0.996094 5.06406V18.0121L12.1681 21.8041L17.7601 19.9081" stroke="#009295" stroke-width="1.6"/>
<path d="M23.3521 5.06445L12.1801 8.89245L0.996094 5.06445" stroke="#009295"/>
<path d="M12.1677 21.4326V8.89258" stroke="#009295"/>
<path d="M6.74414 2.9043L17.6161 6.8763" stroke="#009295"/>
<path d="M30.2441 15.9596C30.2441 19.7659 27.1584 22.8516 23.352 22.8516C19.5457 22.8516 16.46 19.7659 16.46 15.9596C16.46 12.1532 19.5457 9.06758 23.352 9.06758C27.1584 9.06758 30.2441 12.1532 30.2441 15.9596Z" stroke="#009295" stroke-width="1.6"/>
<path d="M27.0557 13.3945L22.0828 18.3351L19.5481 15.8004" stroke="#009295" stroke-width="2" stroke-miterlimit="10"/>
</g>
<defs>
<clipPath id="clip0">
<rect width="32.4" height="24" fill="white"/>
</clipPath>
</defs>
</svg>
