<svg width="32" height="39" viewBox="0 0 32 39" fill="none" xmlns="http://www.w3.org/2000/svg">
<path d="M22.0994 27.8262V37.9997L15.8388 34.6738L9.57812 37.9997V27.8262" stroke="#AB064E" stroke-width="2" stroke-miterlimit="10" stroke-linejoin="round"/>
<path d="M16.2104 2L18.3814 3.74004L21.1445 2.77335L22.7234 5.28675H25.4866L26.0787 7.99348L28.6444 9.15351L28.2497 11.8602L30.4207 13.7936L29.0392 16.1137L30.4207 18.6271L28.2497 20.5605L28.6444 23.2672L26.0787 24.2339L25.4866 26.9406L22.7234 27.134L21.1445 29.454L18.3814 28.6807L16.2104 30.4207L14.0393 28.6807L11.2762 29.454L9.69728 27.134L6.93415 26.9406L6.34205 24.2339L3.7763 23.2672L4.17103 20.5605L2 18.6271L3.38156 16.1137L2 13.7936L4.17103 11.8602L3.7763 9.15351L6.34205 7.99348L6.93415 5.28675H9.69728L11.2762 2.77335L14.0393 3.74004L16.2104 2Z" stroke="#AB064E" stroke-width="2" stroke-miterlimit="10"/>
<path d="M16.2098 24.737C20.9187 24.737 24.736 20.9197 24.736 16.2108C24.736 11.5019 20.9187 7.68457 16.2098 7.68457C11.5009 7.68457 7.68359 11.5019 7.68359 16.2108C7.68359 20.9197 11.5009 24.737 16.2098 24.737Z" stroke="#AB064E" stroke-width="1.6" stroke-miterlimit="10"/>
</svg>
