<svg width="38" height="36" viewBox="0 0 38 36" fill="none" xmlns="http://www.w3.org/2000/svg">
<path d="M35.2099 12.9707C35.132 12.9707 35.0541 12.9821 34.9762 12.9993L32.1245 13.7317C31.6093 13.8632 31.3098 14.3667 31.4475 14.8588C31.5134 15.0933 31.6752 15.2936 31.8969 15.4137C32.1185 15.5339 32.3821 15.5682 32.6278 15.5053L35.4555 14.7787C35.9707 14.6471 36.2703 14.1436 36.1325 13.6516C36.0186 13.2453 35.6352 12.9707 35.2099 12.9707Z" fill="#AB064E"/>
<path d="M31.5913 28.6135L29.5064 26.6224C29.3207 26.4451 29.0691 26.3535 28.8235 26.3535C28.5778 26.3535 28.3322 26.4451 28.1405 26.6224C27.7631 26.9829 27.7631 27.5665 28.1405 27.9269L30.2134 29.9065C30.5908 30.2612 31.2019 30.2612 31.5793 29.9065C31.9388 29.5518 31.9447 28.9739 31.5913 28.6135Z" fill="#AB064E"/>
<path d="M28.1405 9.38894C28.3202 9.56058 28.5659 9.65784 28.8235 9.65784C29.0811 9.65784 29.3267 9.56058 29.5064 9.38894L31.5793 7.40933C31.765 7.23768 31.8669 7.00311 31.8669 6.75709C31.8669 6.51106 31.765 6.28221 31.5853 6.10484C31.3996 5.92748 31.1539 5.83594 30.9023 5.83594C30.6627 5.83594 30.4171 5.92176 30.2313 6.08768L28.1405 8.09017C27.7631 8.4449 27.7631 9.03421 28.1405 9.38894Z" fill="#AB064E"/>
<path d="M37.9763 17.9996C37.9763 17.4904 37.5449 17.0784 37.0117 17.0784H29.4931L29.4751 16.9011C29.3613 15.8941 29.0857 14.9214 28.6663 14.006L28.5884 13.8401L35.1006 10.2471C35.5619 9.98959 35.7177 9.42889 35.4541 8.99406C35.3223 8.78237 35.1186 8.62789 34.8669 8.56496C34.6153 8.50202 34.3577 8.53063 34.142 8.6565L27.6299 12.2495L27.5161 12.1065C26.887 11.2941 26.1381 10.5846 25.2934 9.98959L25.1436 9.88088L28.906 3.66171C29.0318 3.45001 29.0677 3.20399 29.0018 2.96941C28.9359 2.72911 28.7742 2.53459 28.5525 2.40872C28.0972 2.15697 27.5041 2.31145 27.2405 2.74628L23.4782 8.96546L23.3044 8.89108C22.3459 8.49058 21.3274 8.22739 20.273 8.11869L20.0873 8.10152V0.921148C20.0873 0.411942 19.6559 0 19.1227 0C18.5896 0 18.1582 0.411942 18.1582 0.921148V9.96098C20.5126 9.70352 22.8731 10.4015 24.6764 11.8948C26.5335 13.4339 27.5939 15.6595 27.5939 18.0053C27.5939 19.6531 27.0787 21.2379 26.1022 22.5881C25.1976 23.8411 23.9514 24.8195 22.4956 25.426L27.2285 33.2586C27.3543 33.4703 27.564 33.6247 27.8156 33.6877C28.0612 33.7506 28.3188 33.7163 28.5405 33.5961C28.7622 33.476 28.9239 33.2815 28.9898 33.0412C29.0557 32.8009 29.0258 32.5548 28.894 32.3432L25.1317 26.124L25.2814 26.0153C26.1262 25.4202 26.869 24.7051 27.5041 23.8926L27.6179 23.7496L34.1301 27.3426C34.5854 27.5944 35.1785 27.4456 35.4421 27.0108C35.7057 26.5702 35.5499 26.0038 35.0886 25.7521L28.5765 22.159L28.6543 21.9931C29.0737 21.0777 29.3493 20.105 29.4631 19.0981L29.4811 18.9207H37.0057C37.5449 18.9207 37.9763 18.5088 37.9763 17.9996Z" fill="#AB064E"/>
<path d="M35.4782 21.2432L32.6325 20.5109C32.5487 20.488 32.4648 20.4766 32.3809 20.4766C31.9556 20.4766 31.5661 20.7455 31.4523 21.1574C31.3864 21.392 31.4224 21.6437 31.5482 21.8554C31.674 22.0671 31.8837 22.2216 32.1293 22.2845L34.963 23.0054C35.2086 23.0684 35.4663 23.034 35.6879 22.9139C35.9096 22.7937 36.0713 22.5935 36.1372 22.3589C36.275 21.8783 35.9815 21.3805 35.4782 21.2432Z" fill="#AB064E"/>
<path d="M23.6773 1.75601C23.5934 1.73312 23.5095 1.72168 23.4257 1.72168C23.0123 1.72168 22.6229 1.98486 22.5031 2.37964L21.7362 5.09731C21.5984 5.58936 21.904 6.09284 22.4132 6.22443C22.6588 6.28737 22.9224 6.25304 23.1441 6.13289C23.3657 6.01274 23.5275 5.81249 23.5934 5.57791L24.3483 2.87741C24.4142 2.64283 24.3842 2.39681 24.2584 2.18511C24.1386 1.97342 23.9289 1.81894 23.6773 1.75601Z" fill="#AB064E"/>
<path d="M23.3293 32.4757L20.0822 29.861V26.0505C17.7218 26.308 15.3613 25.61 13.5641 24.1167C11.7128 22.5833 10.6465 20.352 10.6465 18.0062C10.6465 16.3584 11.1617 14.7736 12.1382 13.4233C13.0428 12.1646 14.289 11.1863 15.7448 10.5798L13.7498 7.27855L15.1816 3.46809C15.2715 3.23923 15.2595 2.99321 15.1457 2.77008C15.0378 2.54694 14.8401 2.3753 14.6005 2.2952C14.0972 2.12356 13.5461 2.3753 13.3723 2.85018L12.4857 5.20168L11.0059 2.75863C10.7423 2.32381 10.1492 2.16933 9.68791 2.42107C9.2326 2.67281 9.07683 3.23923 9.33444 3.67406L10.8142 6.1171L8.24409 5.67656C7.99247 5.63078 7.73486 5.688 7.52518 5.82531C7.31549 5.96835 7.17171 6.17432 7.12977 6.41462C7.03392 6.91238 7.38738 7.39298 7.9086 7.4788L12.0843 8.19398L13.1087 9.88752L12.959 9.99622C11.7308 10.8602 10.7423 11.9415 10.0054 13.2117L9.91556 13.3661L8.02842 12.6224L6.74036 8.7604C6.57861 8.2798 6.03343 8.01089 5.53019 8.16537C5.02695 8.31985 4.74538 8.8405 4.90713 9.3211L5.70393 11.7012L2.97206 10.6199C2.48679 10.4253 1.91765 10.6542 1.71396 11.1176C1.51027 11.5811 1.74991 12.1189 2.23517 12.3191L4.96105 13.4005L2.63657 14.5505C2.16927 14.7793 1.98355 15.34 2.22319 15.792C2.33702 16.0094 2.54071 16.1696 2.78634 16.244C3.03197 16.3184 3.29557 16.2955 3.52323 16.1868L7.29153 14.3331L9.17868 15.0768L9.12476 15.2485C8.84918 16.1582 8.71138 17.0908 8.71138 18.0176C8.71138 18.5154 8.75332 19.0189 8.8312 19.5167L8.86116 19.694L6.88415 20.1975L3.39742 17.8746C3.18773 17.7373 2.93611 17.6858 2.6785 17.7259C2.42688 17.7716 2.20522 17.9032 2.06143 18.1035C1.91765 18.3037 1.86373 18.5497 1.90567 18.79C1.9536 19.0303 2.09139 19.242 2.30107 19.3793L4.45182 20.804L1.59414 21.5363C1.34851 21.5993 1.13883 21.7537 1.01302 21.9654C0.887209 22.1771 0.851264 22.4289 0.917165 22.6634C0.983065 22.898 1.14482 23.0983 1.36649 23.2184C1.58815 23.3386 1.85175 23.3729 2.09738 23.31L4.95506 22.5833L3.84074 24.8433C3.61309 25.301 3.82277 25.8445 4.30205 26.062C4.5297 26.1649 4.79331 26.1764 5.03294 26.0906C5.27857 26.0047 5.47028 25.8388 5.57812 25.6157L7.38139 21.9483L9.35242 21.4448L9.41832 21.6107C9.96349 22.9438 10.8202 24.1682 11.9105 25.158L12.0483 25.2838L10.8022 26.8343L6.56663 27.0231C6.03942 27.046 5.62605 27.4809 5.65001 27.9843C5.67398 28.4878 6.12929 28.8826 6.65649 28.8597L9.26854 28.7396L7.47126 30.9881C7.31549 31.1826 7.24959 31.4229 7.28554 31.6689C7.32148 31.915 7.44729 32.1324 7.65099 32.2754C7.85468 32.4242 8.10031 32.4871 8.35792 32.4585C8.61553 32.4242 8.84318 32.304 8.99895 32.1095L10.8022 29.8667L11.3594 32.3097C11.4732 32.8018 11.9884 33.1165 12.5037 33.0077C13.0189 32.899 13.3484 32.407 13.2405 31.9092L12.3359 27.95L13.582 26.3995L13.7438 26.4911C15.0438 27.2406 16.4697 27.704 17.9794 27.8642L18.1651 27.8814V29.8381L14.924 32.4642C14.7263 32.6187 14.6065 32.8418 14.5885 33.0878C14.5645 33.3339 14.6484 33.5742 14.8102 33.763C14.9779 33.9518 15.2056 34.0662 15.4692 34.0834C15.7268 34.1063 15.9784 34.0262 16.1701 33.8717L18.1711 32.2582V35.0789C18.1711 35.5881 18.6024 36 19.1356 36C19.6688 36 20.1002 35.5881 20.1002 35.0789V32.2697L22.1011 33.8831C22.5085 34.2092 23.1136 34.1578 23.4611 33.7744C23.7846 33.3854 23.7367 32.8018 23.3293 32.4757Z" fill="#AB064E"/>
</svg>
