<svg width="39" height="35" viewBox="0 0 39 35" fill="none" xmlns="http://www.w3.org/2000/svg">
<path d="M0 29.1708H4.82876L8.04653 25.1434H11.2685L14.4863 28.3653H19.315L25.7548 21.9256H31.389L33.8013 17.9023H38.6301" stroke="#AB064E" stroke-width="2" stroke-miterlimit="10"/>
<path d="M38.6301 33.999H0" stroke="#AB064E" stroke-width="2" stroke-miterlimit="10"/>
<path d="M22.5332 21.9262V9.85645H16.0977V17.0975" stroke="#AB064E" stroke-width="1.74915" stroke-miterlimit="10"/>
<path d="M22.5332 33.9995V28.3652" stroke="#AB064E" stroke-width="1.74915" stroke-miterlimit="10"/>
<path d="M28.9727 24.3428V34.0003" stroke="#AB064E" stroke-width="1.74915" stroke-miterlimit="10"/>
<path d="M22.5332 13.0742H28.9729V19.514" stroke="#AB064E" stroke-width="1.74915" stroke-miterlimit="10"/>
<path d="M16.0977 30.7773V33.9993" stroke="#AB064E" stroke-width="1.74915" stroke-miterlimit="10"/>
<path d="M9.6582 17.0977H16.0979V25.9497" stroke="#AB064E" stroke-width="1.74915" stroke-miterlimit="10"/>
<path d="M3.2168 34.0005V31.584" stroke="#AB064E" stroke-width="1.74915" stroke-miterlimit="10"/>
<path d="M9.6582 27.5605V34.0003" stroke="#AB064E" stroke-width="1.74915" stroke-miterlimit="10"/>
<path d="M3.2168 26.7552V13.8799H9.65654V22.7319" stroke="#AB064E" stroke-width="1.74915" stroke-miterlimit="10"/>
<path d="M35.4121 20.3145V33.9994" stroke="#AB064E" stroke-width="1.74915" stroke-miterlimit="10"/>
<path d="M35.4124 15.4863V1H28.9727V13.074" stroke="#AB064E" stroke-width="1.74915" stroke-miterlimit="10"/>
</svg>
