<svg width="40" height="35" viewBox="0 0 40 35" fill="none" xmlns="http://www.w3.org/2000/svg">
<path d="M30.1862 1.84751L29.1268 1H20.0161C19.3804 1 18.5329 1 18.1092 1.63563L1.79454 17.7384C0.735153 18.7978 0.735153 20.4928 1.79454 21.5522L13.4478 33.2055C14.5072 34.2648 16.2022 34.2648 17.2616 33.2055L33.5762 16.8909C34 16.4671 34.4238 15.6196 34.4238 14.984V5.87319L33.1525 4.8138" stroke="#AB064E" stroke-width="2" stroke-miterlimit="10"/>
<path d="M27.6445 4.38867L31.0346 7.77872" stroke="#AB064E" stroke-width="1.8" stroke-miterlimit="10"/>
<path d="M28.9141 5.87251C29.7616 3.9656 31.6685 2.69434 33.7873 2.69434C36.7535 2.69434 39.0842 5.02499 39.0842 7.99129C39.0842 10.1101 38.0248 11.8051 36.3298 12.6526C35.4823 13.0764 34.6348 13.2882 33.7873 13.2882" stroke="#AB064E" stroke-width="1.8" stroke-miterlimit="10"/>
<path d="M15.355 16.2551H13.8718C13.0243 16.2551 12.3887 15.6195 12.3887 14.772V13.5007C12.3887 12.6532 13.0243 12.0176 13.8718 12.0176H15.355C16.2025 12.0176 16.8381 12.6532 16.8381 13.5007V14.9839C16.6262 15.6195 15.9906 16.2551 15.355 16.2551Z" stroke="#AB064E" stroke-width="1.8" stroke-miterlimit="10"/>
<path d="M22.771 22.1877H21.2878C20.4403 22.1877 19.8047 21.5521 19.8047 20.7046V19.2214C19.8047 18.3739 20.4403 17.7383 21.2878 17.7383H22.771C23.6185 17.7383 24.2541 18.3739 24.2541 19.2214V20.7046C24.2541 21.5521 23.6185 22.1877 22.771 22.1877Z" stroke="#AB064E" stroke-width="1.8" stroke-miterlimit="10"/>
<path d="M14.9316 23.0351L21.7117 11.1699" stroke="#AB064E" stroke-width="1.8" stroke-miterlimit="10"/>
</svg>
