<svg width="41" height="36" viewBox="0 0 41 36" fill="none" xmlns="http://www.w3.org/2000/svg">
<path d="M20.6132 22.8594H9.28125V34.1913H20.6132V22.8594Z" stroke="#AB064E" stroke-width="1.71433" stroke-miterlimit="10"/>
<path d="M31.9511 22.8594H20.6191V34.1913H31.9511V22.8594Z" stroke="#AB064E" stroke-width="1.71433" stroke-miterlimit="10"/>
<path d="M26.2812 11.5225H14.9492V22.8544H26.2812V11.5225Z" stroke="#AB064E" stroke-width="1.71433" stroke-miterlimit="10"/>
<path d="M5.23633 13.1406V34.9998" stroke="#AB064E" stroke-width="2.4" stroke-miterlimit="10"/>
<path d="M36 13.1406V34.9998" stroke="#AB064E" stroke-width="2.4" stroke-miterlimit="10"/>
<path d="M20.6184 1C13.0667 1 6.33294 4.94828 2 10.7137L5.23644 13.1411C8.81332 7.79563 13.9067 5.04555 20.6184 5.04555C27.33 5.04555 32.419 7.79563 36.0003 13.1411L39.2367 10.7137C34.9038 4.94828 28.17 1 20.6184 1Z" stroke="#AB064E" stroke-width="1.71433" stroke-miterlimit="10"/>
<path d="M22.2364 11.5225H19V14.7589H22.2364V11.5225Z" stroke="#AB064E" stroke-width="1.71433" stroke-miterlimit="10"/>
<path d="M22.2364 11.5225H19V14.7589H22.2364V11.5225Z" stroke="#AB064E" stroke-width="1.71433" stroke-miterlimit="10"/>
<path d="M16.5685 22.8594H13.332V26.0958H16.5685V22.8594Z" stroke="#AB064E" stroke-width="1.71433" stroke-miterlimit="10"/>
<path d="M27.9005 22.8594H24.6641V26.0958H27.9005V22.8594Z" stroke="#AB064E" stroke-width="1.71433" stroke-miterlimit="10"/>
</svg>
