<svg width="70" height="28" viewBox="0 0 70 28" fill="none" xmlns="http://www.w3.org/2000/svg">
<path fill-rule="evenodd" clip-rule="evenodd" d="M70.0002 2C70.0002 0.895431 69.1048 0 68.0002 0H9.16085C8.44314 0 7.78045 0.384572 7.42437 1.00772L0.567225 13.0077C0.215873 13.6226 0.215873 14.3774 0.567225 14.9923L7.42437 26.9923C7.78045 27.6154 8.44314 28 9.16085 28H68.0002C69.1048 28 70.0002 27.1046 70.0002 26V14V2Z" fill="#AB064E"/>
<path d="M20.5781 18V9.41016H22.3125V12.791H25.7109V9.41016H27.4453V18H25.7109V14.2441H22.3125V18H20.5781ZM30.4629 13.6758L28.9688 13.4062C29.1367 12.8047 29.4258 12.3594 29.8359 12.0703C30.2461 11.7812 30.8555 11.6367 31.6641 11.6367C32.3984 11.6367 32.9453 11.7246 33.3047 11.9004C33.6641 12.0723 33.916 12.293 34.0605 12.5625C34.209 12.8281 34.2832 13.3184 34.2832 14.0332L34.2656 15.9551C34.2656 16.502 34.291 16.9062 34.3418 17.168C34.3965 17.4258 34.4961 17.7031 34.6406 18H33.0117C32.9688 17.8906 32.916 17.7285 32.8535 17.5137C32.8262 17.416 32.8066 17.3516 32.7949 17.3203C32.5137 17.5938 32.2129 17.7988 31.8926 17.9355C31.5723 18.0723 31.2305 18.1406 30.8672 18.1406C30.2266 18.1406 29.7207 17.9668 29.3496 17.6191C28.9824 17.2715 28.7988 16.832 28.7988 16.3008C28.7988 15.9492 28.8828 15.6367 29.0508 15.3633C29.2188 15.0859 29.4531 14.875 29.7539 14.7305C30.0586 14.582 30.4961 14.4531 31.0664 14.3438C31.8359 14.1992 32.3691 14.0645 32.666 13.9395V13.7754C32.666 13.459 32.5879 13.2344 32.4316 13.1016C32.2754 12.9648 31.9805 12.8965 31.5469 12.8965C31.2539 12.8965 31.0254 12.9551 30.8613 13.0723C30.6973 13.1855 30.5645 13.3867 30.4629 13.6758ZM32.666 15.0117C32.4551 15.082 32.1211 15.166 31.6641 15.2637C31.207 15.3613 30.9082 15.457 30.7676 15.5508C30.5527 15.7031 30.4453 15.8965 30.4453 16.1309C30.4453 16.3613 30.5312 16.5605 30.7031 16.7285C30.875 16.8965 31.0938 16.9805 31.3594 16.9805C31.6562 16.9805 31.9395 16.8828 32.209 16.6875C32.4082 16.5391 32.5391 16.3574 32.6016 16.1426C32.6445 16.002 32.666 15.7344 32.666 15.3398V15.0117ZM37.7402 15.4453V14.373C38.0254 14.373 38.2324 14.3555 38.3613 14.3203C38.4902 14.2812 38.6113 14.1914 38.7246 14.0508C38.8418 13.9062 38.9004 13.7422 38.9004 13.5586C38.9004 13.3633 38.8281 13.1836 38.6836 13.0195C38.543 12.8516 38.3301 12.7676 38.0449 12.7676C37.8262 12.7676 37.6309 12.8145 37.459 12.9082C37.2871 13.002 37.1309 13.2246 36.9902 13.5762L35.5957 13.2773C35.7363 12.7305 36.0371 12.3203 36.498 12.0469C36.959 11.7734 37.4844 11.6367 38.0742 11.6367C38.8242 11.6367 39.4043 11.8086 39.8145 12.1523C40.2285 12.4961 40.4355 12.9277 40.4355 13.4473C40.4355 13.7715 40.3457 14.041 40.166 14.2559C39.9902 14.4668 39.7109 14.6641 39.3281 14.8477C39.7891 14.9727 40.1328 15.1621 40.3594 15.416C40.5898 15.6699 40.7051 15.9863 40.7051 16.3652C40.7051 16.8496 40.4785 17.2676 40.0254 17.6191C39.5723 17.9668 38.9199 18.1406 38.0684 18.1406C36.584 18.1406 35.6758 17.5605 35.3438 16.4004L36.8496 16.125C37.0918 16.7344 37.4922 17.0391 38.0508 17.0391C38.3594 17.0391 38.6055 16.959 38.7891 16.7988C38.9766 16.6348 39.0703 16.4434 39.0703 16.2246C39.0703 15.9824 38.9727 15.793 38.7773 15.6562C38.5859 15.5156 38.334 15.4453 38.0215 15.4453H37.7402ZM43.0957 13.6758L41.6016 13.4062C41.7695 12.8047 42.0586 12.3594 42.4688 12.0703C42.8789 11.7812 43.4883 11.6367 44.2969 11.6367C45.0312 11.6367 45.5781 11.7246 45.9375 11.9004C46.2969 12.0723 46.5488 12.293 46.6934 12.5625C46.8418 12.8281 46.916 13.3184 46.916 14.0332L46.8984 15.9551C46.8984 16.502 46.9238 16.9062 46.9746 17.168C47.0293 17.4258 47.1289 17.7031 47.2734 18H45.6445C45.6016 17.8906 45.5488 17.7285 45.4863 17.5137C45.459 17.416 45.4395 17.3516 45.4277 17.3203C45.1465 17.5938 44.8457 17.7988 44.5254 17.9355C44.2051 18.0723 43.8633 18.1406 43.5 18.1406C42.8594 18.1406 42.3535 17.9668 41.9824 17.6191C41.6152 17.2715 41.4316 16.832 41.4316 16.3008C41.4316 15.9492 41.5156 15.6367 41.6836 15.3633C41.8516 15.0859 42.0859 14.875 42.3867 14.7305C42.6914 14.582 43.1289 14.4531 43.6992 14.3438C44.4688 14.1992 45.002 14.0645 45.2988 13.9395V13.7754C45.2988 13.459 45.2207 13.2344 45.0645 13.1016C44.9082 12.9648 44.6133 12.8965 44.1797 12.8965C43.8867 12.8965 43.6582 12.9551 43.4941 13.0723C43.3301 13.1855 43.1973 13.3867 43.0957 13.6758ZM45.2988 15.0117C45.0879 15.082 44.7539 15.166 44.2969 15.2637C43.8398 15.3613 43.541 15.457 43.4004 15.5508C43.1855 15.7031 43.0781 15.8965 43.0781 16.1309C43.0781 16.3613 43.1641 16.5605 43.3359 16.7285C43.5078 16.8965 43.7266 16.9805 43.9922 16.9805C44.2891 16.9805 44.5723 16.8828 44.8418 16.6875C45.041 16.5391 45.1719 16.3574 45.2344 16.1426C45.2773 16.002 45.2988 15.7344 45.2988 15.3398V15.0117ZM53.6895 18H48.9785V19.6406H47.6426V16.6523H48.3164C48.5977 16.3398 48.8301 15.8516 49.0137 15.1875C49.1973 14.5234 49.3066 13.3867 49.3418 11.7773H54.3633V16.6523H55.0312V19.6406H53.6895V18ZM52.7344 16.6523L52.7402 13.1309H50.748C50.6816 14.8496 50.4082 16.0234 49.9277 16.6523H52.7344Z" fill="white"/>
</svg>
