<svg width="30" height="30" viewBox="0 0 30 30" fill="none" xmlns="http://www.w3.org/2000/svg">
<path d="M9.39998 19.0667C8.86664 18.1333 8.59998 17.0667 8.59998 15.9333C8.59998 15.6 8.59998 15.2 8.66664 14.8667" stroke="#979797" stroke-width="1.2" stroke-miterlimit="10"/>
<path d="M21.2665 14.8667C21.3332 15.2 21.3332 15.5333 21.3332 15.9333C21.3332 17.0667 20.9999 18.1333 20.5332 19.0667" stroke="#979797" stroke-width="1.2" stroke-miterlimit="10"/>
<path d="M10.1332 14.8667C9.73324 15.2667 9.46657 15.7333 9.3999 16.4C9.3999 16.4 9.3999 17.8 9.3999 19.2C9.3999 21.0667 10.2666 22.6667 11.5999 23.6667C12.4666 24.3333 13.5332 24.6667 14.6666 24.6667H15.3332C18.1999 24.6667 20.5332 22.2 20.5332 19.1333V14.8" stroke="#979797" stroke-width="1.2" stroke-miterlimit="10"/>
<path d="M8.59998 14.8667C8.59998 11.3333 11.4666 8.53333 14.9333 8.53333C18.4666 8.53333 21.2666 11.4 21.2666 14.8667H8.59998Z" stroke="#979797" stroke-width="1.2" stroke-miterlimit="10"/>
<path d="M8.59998 14.8667H26.7333" stroke="#979797" stroke-width="1.2" stroke-miterlimit="10"/>
</svg>
