<svg width="23" height="19" viewBox="0 0 23 19" fill="none" xmlns="http://www.w3.org/2000/svg">
<path d="M15.35 13.3399C14.05 13.3399 13 12.2899 13 10.9899C13 9.68994 14.05 8.63994 15.35 8.63994H20.18C20.18 8.63994 20.99 8.66994 21.64 7.68994V12.3899C21.65 13.5099 19.36 13.3399 19.36 13.3399" stroke="#AB064E" stroke-width="1.2" stroke-linejoin="round"/>
<path d="M15.3496 13.34H20.1796" stroke="#AB064E" stroke-width="1.2" stroke-linejoin="round"/>
<path d="M19.18 2.88V1H2.44C1.65 1 1 1.64 1 2.44C1 3.24 1.64 3.88 2.44 3.88H20.91V8.32" stroke="#AB064E" stroke-width="1.2" stroke-linejoin="round"/>
<path d="M1 2.43994V16.0399C1 16.8299 1.64 17.4799 2.44 17.4799H20.91V13.0999" stroke="#AB064E" stroke-width="1.2" stroke-linejoin="round"/>
<path d="M15.2893 11.54C15.571 11.54 15.7993 11.3117 15.7993 11.03C15.7993 10.7484 15.571 10.52 15.2893 10.52C15.0076 10.52 14.7793 10.7484 14.7793 11.03C14.7793 11.3117 15.0076 11.54 15.2893 11.54Z" stroke="#AB064E" stroke-width="1.2" stroke-linejoin="round"/>
</svg>
