<svg width="23" height="18" viewBox="0 0 23 18" fill="none" xmlns="http://www.w3.org/2000/svg">
<path d="M14.3405 10.162L13.9805 10.302L12.8105 10.762L15.3705 11.982C16.1205 12.302 15.7105 13.272 15.7105 13.272L15.7305 13.262C15.6905 13.352 15.6505 13.452 15.6205 13.542C15.3405 14.362 15.4505 15.262 15.9305 16.052C16.3905 16.822 17.1405 17.412 18.0505 17.722C18.4805 17.872 18.9205 17.942 19.3605 17.942C19.8405 17.942 20.3105 17.852 20.7505 17.682C21.6105 17.332 22.2405 16.692 22.5205 15.872C23.0805 14.202 21.9905 12.332 20.0905 11.692C19.8505 11.612 19.6205 11.552 19.3805 11.522L19.4005 11.512C19.3505 11.512 19.3005 11.512 19.2505 11.502C19.0905 11.482 18.9305 11.472 18.7705 11.472C16.5005 11.302 15.4705 10.582 15.4705 10.582C15.0605 10.362 14.7305 10.062 14.4705 9.75195C14.4605 9.78195 14.4605 9.79195 14.4505 9.79195L14.3405 10.162ZM16.6505 13.892C16.9305 13.062 17.7905 12.562 18.7705 12.562C19.0805 12.562 19.4105 12.612 19.7305 12.722C21.0605 13.172 21.8405 14.422 21.4705 15.512C21.3005 16.022 20.8905 16.432 20.3305 16.652C19.7405 16.892 19.0505 16.902 18.3905 16.672C17.7305 16.452 17.1905 16.022 16.8605 15.482C16.5605 14.972 16.4805 14.402 16.6505 13.892Z" fill="#3D3D3C"/>
<path d="M3.11977 4.24276C1.41977 3.58276 0.00976562 4.62276 0.00976562 4.62276L8.17977 8.53276L10.8498 7.25276L3.11977 4.24276Z" fill="#3D3D3C"/>
<path d="M22.52 2.07198C22.24 1.25198 21.61 0.601979 20.75 0.261979C19.92 -0.0680211 18.96 -0.088021 18.05 0.211979C17.14 0.521979 16.39 1.11198 15.93 1.88198C15.45 2.68198 15.34 3.57198 15.62 4.39198C15.65 4.49198 15.69 4.58198 15.73 4.67198H15.71C15.71 4.67198 16.12 5.64198 15.37 5.96198L0 13.312C0 13.312 1.41 14.352 3.11 13.692L13.7 9.56198C13.7 9.56198 14.14 8.06198 15.46 7.35198C15.46 7.35198 16.5 6.64198 18.76 6.46198C18.77 6.46198 18.77 6.46198 18.78 6.46198C18.94 6.46198 19.1 6.45198 19.26 6.43198C19.31 6.43198 19.35 6.43198 19.4 6.42198L19.38 6.41198C19.62 6.37198 19.85 6.32198 20.09 6.24198C21 5.93198 21.75 5.34198 22.21 4.57198C22.68 3.79198 22.79 2.90198 22.52 2.07198ZM11.67 9.58198C11.38 9.58198 11.14 9.34198 11.14 9.05198C11.14 8.76198 11.38 8.52198 11.67 8.52198C11.96 8.52198 12.2 8.76198 12.2 9.05198C12.2 9.34198 11.96 9.58198 11.67 9.58198ZM21.26 4.02198C20.93 4.57198 20.39 4.99198 19.73 5.22198C18.4 5.67198 17.02 5.14198 16.65 4.05198C16.48 3.54198 16.55 2.97198 16.86 2.45198C17.19 1.90198 17.73 1.48198 18.39 1.26198C18.71 1.15198 19.03 1.10198 19.35 1.10198C19.69 1.10198 20.02 1.16198 20.33 1.28198C20.89 1.50198 21.3 1.91198 21.47 2.42198C21.65 2.94198 21.57 3.51198 21.26 4.02198Z" fill="#3D3D3C"/>
</svg>
