<svg width="17" height="24" viewBox="0 0 17 24" fill="none" xmlns="http://www.w3.org/2000/svg">
<path d="M8.29835 13.8272C10.8902 13.8272 12.9912 11.7261 12.9912 9.13429C12.9912 6.54248 10.8902 4.44141 8.29835 4.44141C5.70654 4.44141 3.60547 6.54248 3.60547 9.13429C3.60547 11.7261 5.70654 13.8272 8.29835 13.8272Z" stroke="#AB064E" stroke-width="0.9059"/>
<path d="M8.29818 1.5C4.08212 1.5 0.664062 4.91682 0.664062 9.13412C0.664062 9.25271 0.667769 9.37006 0.673945 9.48865C0.676416 9.53188 0.678886 9.57512 0.681357 9.61712C0.687533 9.69247 0.692474 9.76412 0.698651 9.837C0.703592 9.89012 0.709768 9.94324 0.715945 9.99882C0.723357 10.0544 0.730768 10.11 0.736945 10.1681C0.744357 10.2286 0.753004 10.2916 0.762886 10.3546C0.767827 10.3805 0.772768 10.4077 0.77771 10.4361C0.824651 10.7091 0.886415 10.9772 0.961768 11.2391C0.963004 11.2452 0.965474 11.2526 0.96671 11.2588C0.992651 11.3527 1.02353 11.4441 1.05195 11.5368L1.03959 11.5541C1.03959 11.5541 2.24647 15.2958 8.187 22.4469H8.18947C8.21418 22.4778 8.25495 22.5 8.29818 22.5C8.34265 22.5 8.38094 22.4778 8.40812 22.4469H8.41059C14.3511 15.2958 15.5568 11.5541 15.5568 11.5541L15.5432 11.5368C15.5728 11.4454 15.6025 11.3539 15.6297 11.2588C15.6321 11.2514 15.6321 11.244 15.6346 11.2391C15.7112 10.9759 15.7705 10.7079 15.8174 10.4361C15.8236 10.4077 15.8285 10.3805 15.8335 10.3546C15.8434 10.2916 15.852 10.2286 15.8594 10.1668C15.8668 10.1088 15.8755 10.0532 15.8817 9.99759C15.8878 9.942 15.8928 9.88888 15.8977 9.83576C15.9051 9.76288 15.9101 9.69123 15.915 9.61588C15.9187 9.57512 15.9224 9.53188 15.9224 9.48741C15.9298 9.36882 15.9335 9.25147 15.9335 9.13288C15.9323 4.91682 12.5142 1.5 8.29818 1.5Z" stroke="#AB064E" stroke-width="1.2545"/>
</svg>
