<svg width="59" height="43" viewBox="0 0 59 43" fill="none" xmlns="http://www.w3.org/2000/svg">
<g clip-path="url(#clip0)">
<path d="M21.7159 2.15039L1.72095 9.03039V32.2504L21.7159 39.1304L41.926 32.2504V9.03039L21.7159 2.15039Z" stroke="#B2B2B2" stroke-width="2"/>
<path d="M41.926 9.03125L21.9309 15.9113L1.72095 9.03125" stroke="#B2B2B2"/>
<path d="M21.7168 38.4852V15.9102" stroke="#B2B2B2"/>
<path d="M12.0417 5.16016L31.6067 12.2552" stroke="#B2B2B2"/>
<path d="M41.9267 42.3559C49.5262 42.3559 55.6867 36.1954 55.6867 28.5959C55.6867 20.9965 49.5262 14.8359 41.9267 14.8359C34.3273 14.8359 28.1667 20.9965 28.1667 28.5959C28.1667 36.1954 34.3273 42.3559 41.9267 42.3559Z" fill="#013C64"/>
<path d="M43.2164 30.7452H36.1214C34.1864 30.7452 32.6814 29.2402 32.6814 27.3052C32.6814 25.3702 34.1864 23.8652 36.1214 23.8652C37.1964 23.8652 38.2714 24.5102 38.9164 25.1552L45.5814 34.1852" stroke="white" stroke-width="2" stroke-miterlimit="10"/>
<path d="M36.9814 36.1198L45.3664 25.7998C46.0114 25.1548 46.8714 24.5098 47.7314 24.5098C49.4514 24.5098 50.7414 25.7998 50.7414 27.5198C50.7414 29.2398 49.4514 30.5298 47.7314 30.5298H41.4964" stroke="white" stroke-width="2" stroke-miterlimit="10"/>
</g>
<defs>
<clipPath id="clip0">
<rect width="58.05" height="43" fill="white"/>
</clipPath>
</defs>
</svg>
