<svg width="21" height="13" viewBox="0 0 21 13" fill="none" xmlns="http://www.w3.org/2000/svg">
<path d="M0.743988 6.4999C0.743988 6.4999 10.02 18.9208 20.262 6.4999C10.02 -5.92101 0.743988 6.4999 0.743988 6.4999Z" stroke="#8C8C8C" stroke-width="1.294" stroke-linejoin="round"/>
<path d="M10.7254 4.06226C10.3473 4.06226 9.99446 4.14665 9.67185 4.29062C9.95413 4.43458 10.1457 4.72748 10.1457 5.06009C10.1457 5.54163 9.75251 5.92885 9.26355 5.92885C8.92078 5.92885 8.62842 5.74021 8.48224 5.4622C8.33102 5.77496 8.25037 6.12743 8.25037 6.49976C8.25037 7.8451 9.35933 8.93726 10.7254 8.93726C12.0914 8.93726 13.2004 7.8451 13.2004 6.49976C13.2004 5.15441 12.0914 4.06226 10.7254 4.06226Z" fill="#8C8C8C"/>
<path d="M6.60001 6.5C6.60001 8.7429 8.4476 10.5625 10.725 10.5625C13.0024 10.5625 14.85 8.7429 14.85 6.5C14.85 4.2571 13.0024 2.4375 10.725 2.4375C8.4476 2.4375 6.60001 4.2571 6.60001 6.5Z" stroke="#8C8C8C" stroke-width="1.294" stroke-linejoin="round"/>
</svg>
