<svg width="18" height="11" viewBox="0 0 18 11" fill="none" xmlns="http://www.w3.org/2000/svg">
<path d="M0.636719 5.50021C0.636719 5.50021 8.58758 16.0102 17.3664 5.50021C8.58758 -5.00979 0.636719 5.50021 0.636719 5.50021Z" stroke="white"  stroke-linejoin="round"/>
<path d="M9.19174 3.4375C8.86769 3.4375 8.56525 3.50891 8.28873 3.63073C8.53069 3.75255 8.69487 4.00038 8.69487 4.28182C8.69487 4.68928 8.35786 5.01693 7.93876 5.01693C7.64496 5.01693 7.39436 4.85731 7.26906 4.62207C7.13944 4.88671 7.07031 5.18495 7.07031 5.5C7.07031 6.63837 8.02085 7.5625 9.19174 7.5625C10.3626 7.5625 11.3132 6.63837 11.3132 5.5C11.3132 4.36163 10.3626 3.4375 9.19174 3.4375Z" fill="white"/>
<path d="M9.19196 8.4375C7.50268 8.4375 6.15625 7.10851 6.15625 5.5C6.15625 3.89149 7.50268 2.5625 9.19196 2.5625C10.8813 2.5625 12.2277 3.89149 12.2277 5.5C12.2277 7.10851 10.8813 8.4375 9.19196 8.4375Z" stroke="white"  stroke-linejoin="round"/>
</svg>
