<svg width="20" height="18" viewBox="0 0 20 18" fill="none" xmlns="http://www.w3.org/2000/svg">
<path d="M19.1185 5.77039C19.1185 3.13707 17.027 1 14.4499 1C12.4288 1 10.7133 2.31266 10.0632 4.15358C9.40518 2.31266 7.68968 1 5.66867 1C3.0915 1 1 3.13707 1 5.77039C1 6.34667 1.10967 6.89895 1.28983 7.41921H1.282C1.282 7.41921 1.3055 7.49125 1.36033 7.61131C1.36033 7.61931 1.36817 7.62731 1.36817 7.63532C1.78333 8.64382 3.85917 13.07 9.62451 16.8479H9.64018C9.75768 16.936 9.89868 17 10.0553 17C10.212 17 10.353 16.936 10.4705 16.8479H10.4862C16.2437 13.07 18.3195 8.64382 18.7425 7.63532C18.7425 7.62731 18.7504 7.61931 18.7504 7.61131C18.7974 7.49125 18.8287 7.41921 18.8287 7.41921H18.8209C19.0089 6.90695 19.1185 6.35468 19.1185 5.77039Z" stroke="white" stroke-width="1.2" stroke-linejoin="round"/>
</svg>
