<svg width="30" height="30" viewBox="0 0 30 30" fill="none" xmlns="http://www.w3.org/2000/svg">
<path d="M19.4 21.7333C21.2667 20.4 22.4 18.2667 22.4 15.8C22.4 14 21.7333 12.4 20.6667 11.1333C25 7.33334 24.7333 13.0667 25.5333 14.4667C26.3333 16 28.0667 14.0667 28.0667 14.0667C26.8 13.9333 27.8 11.4 27.8 11.4C27.8 11.4 29.3333 6.4 25.4 5.33333C22.4667 4.53333 20.9333 8.53333 20.3333 10.6C19 9.33333 17.2 8.53333 15.2 8.53333C13.1333 8.53333 11.3333 9.4 10 10.7333C9.4 8.66667 7.86667 4.53333 4.86667 5.33333C0.933333 6.46667 2.46667 11.4 2.46667 11.4C2.46667 11.4 3.26667 13.8 2 13.8667C2 13.8667 3.33333 15.7333 4.66667 14.4C5.8 13.2 5.13333 7.13333 9.6 11.0667C8.53333 12.3333 7.93333 13.9333 7.93333 15.6667C7.93333 17.7333 8.8 19.6 10.1333 20.8667" stroke="#979797" stroke-width="1.2" stroke-miterlimit="10"/>
<path d="M19.7333 15C19.5333 12.8667 17.7333 11.3333 17.7333 11.3333C17.7333 11.3333 16.5333 14.5333 12.0667 15.0667C12.0667 15.0667 10.0667 15.6 9.93335 17.2667C9.93335 17.2667 9.93335 18.5333 9.93335 19.7333C9.93335 22.4667 12 24.6 14.5333 24.6H15.1334C17.6667 24.6 19.7333 22.4 19.7333 19.7333V15Z" stroke="#979797" stroke-width="1.2" stroke-miterlimit="10"/>
</svg>
