<svg width="16" height="14" viewBox="0 0 16 14" fill="none" xmlns="http://www.w3.org/2000/svg">
<path d="M15 4.68603C15 2.65129 13.3839 1 11.3926 1C9.83096 1 8.5054 2.01428 8.00303 3.43674C7.4946 2.01428 6.16904 1 4.60744 1C2.61608 1 1 2.65129 1 4.68603C1 5.13132 1.08474 5.55806 1.22395 5.96006H1.2179C1.2179 5.96006 1.23606 6.01572 1.27843 6.10849C1.27843 6.11467 1.28448 6.12086 1.28448 6.12704C1.60527 6.9063 3.20925 10.3264 7.66407 13.2455H7.67618C7.76697 13.3136 7.87592 13.363 7.99697 13.363C8.11803 13.363 8.22698 13.3136 8.31777 13.2455H8.32987C12.7786 10.3264 14.3826 6.9063 14.7095 6.12704C14.7095 6.12086 14.7155 6.11467 14.7155 6.10849C14.7518 6.01572 14.776 5.96006 14.776 5.96006H14.77C14.9153 5.56424 15 5.1375 15 4.68603Z" stroke="#8C8C8C" stroke-width="1.2" stroke-linejoin="round"/>
</svg>
