<svg width="28" height="28" viewBox="0 0 28 28" fill="none" xmlns="http://www.w3.org/2000/svg">
<path d="M7.4667 13.44V20.8444C7.4667 21.5911 8.0267 22.1511 8.77336 22.1511H19.1645C19.9111 22.1511 20.4711 21.5911 20.4711 20.8444V13.44L21.28 13.7511L22.0267 14C22.96 14 23.3334 12.7555 22.6489 12.1333L14.7467 5.22666C14.3111 4.85332 13.6267 4.85332 13.2534 5.22666L5.28892 12.1333C4.60447 12.6933 4.97781 14 5.91114 14L6.65781 13.7511L7.4667 13.44Z" stroke="#979797" stroke-width="1.2" stroke-miterlimit="10" stroke-linecap="round" stroke-linejoin="round"/>
<path d="M16.0929 18.6667H11.907C11.7874 18.6667 11.6678 18.5471 11.6678 18.4275V14.3014C11.6678 14.1818 11.7874 14.0622 11.907 14.0622H16.0929C16.2125 14.0622 16.3321 14.1818 16.3321 14.3014V18.4275C16.3321 18.5471 16.2125 18.6667 16.0929 18.6667Z" stroke="#979797" stroke-width="1.2" stroke-miterlimit="10" stroke-linecap="round" stroke-linejoin="round"/>
</svg>
