<svg width="30" height="30" viewBox="0 0 30 30" fill="none" xmlns="http://www.w3.org/2000/svg">
<path d="M19.4 21.7333C21.2667 20.4 22.4 18.2666 22.4 15.8C22.4 14 21.7333 12.4 20.6667 11.1333C25 7.33329 24.7333 13.0666 25.5333 14.4666C26.3333 16 28.0667 14.0666 28.0667 14.0666C26.8 13.9333 27.8 11.4 27.8 11.4C27.8 11.4 29.3333 6.39996 25.4 5.33329C22.4667 4.53329 20.9333 8.53329 20.3333 10.6C19 9.33329 17.2 8.53329 15.2 8.53329C13.1333 8.53329 11.3333 9.39996 10 10.7333C9.4 8.66662 7.86667 4.53329 4.86667 5.33329C0.933333 6.46662 2.46667 11.4 2.46667 11.4C2.46667 11.4 3.26667 13.8 2 13.8666C2 13.8666 3.33333 15.7333 4.66667 14.4C5.8 13.2 5.13333 7.13329 9.6 11.0666C8.53333 12.3333 7.93333 13.9333 7.93333 15.6666C7.93333 17.7333 8.8 19.6 10.1333 20.8666" stroke="#AB064E" stroke-width="1.2" stroke-miterlimit="10"/>
<path d="M19.7336 15.0002C19.5336 12.8668 17.7336 11.3335 17.7336 11.3335C17.7336 11.3335 16.5336 14.5335 12.0669 15.0668C12.0669 15.0668 10.0669 15.6002 9.93359 17.2668C9.93359 17.2668 9.93359 18.5335 9.93359 19.7335C9.93359 22.4668 12.0003 24.6002 14.5336 24.6002H15.1336C17.6669 24.6002 19.7336 22.4002 19.7336 19.7335V15.0002Z" stroke="#AB064E" stroke-width="1.2" stroke-miterlimit="10"/>
</svg>
