<svg width="26" height="25" viewBox="0 0 26 25" fill="none" xmlns="http://www.w3.org/2000/svg">
<path d="M20.9082 10.9575C21.7749 11.8086 21.7749 13.1916 20.9082 14.0426" stroke="white" stroke-opacity="0.7" stroke-miterlimit="10"/>
<path d="M22.75 9.14893C24.7 11.0638 24.7 14.0425 22.75 15.9574" stroke="white" stroke-opacity="0.7" stroke-miterlimit="10"/>
<path d="M5.09141 14.0426C4.22474 13.1916 4.22474 11.8086 5.09141 10.9575" stroke="white" stroke-opacity="0.7" stroke-miterlimit="10"/>
<path d="M3.14219 15.851C1.19219 13.9361 1.19219 10.9574 3.14219 9.04248" stroke="white" stroke-opacity="0.7" stroke-miterlimit="10"/>
<path d="M17.2255 22.7659H8.66719C7.90885 22.7659 7.36719 22.234 7.36719 21.4893V3.61693C7.36719 2.87225 7.90885 2.34033 8.66719 2.34033H17.2255C17.9839 2.34033 18.5255 2.87225 18.5255 3.61693V21.4893C18.5255 22.1276 17.9839 22.7659 17.2255 22.7659Z" stroke="white" stroke-opacity="0.7" stroke-width="1.25" stroke-miterlimit="10"/>
<path d="M7.36719 19.5742H18.5255" stroke="white" stroke-opacity="0.7" stroke-width="0.5" stroke-miterlimit="10"/>
<path d="M11.918 21.2764H14.0846" stroke="white" stroke-opacity="0.7" stroke-width="0.75" stroke-miterlimit="10"/>
</svg>
