<svg width="15" height="15" viewBox="0 0 15 15" fill="none" xmlns="http://www.w3.org/2000/svg">
<path d="M7.41923 1C3.87425 1 1 3.87425 1 7.41923C1 8.72496 1.39008 9.93913 2.05933 10.9523L1.23747 14L4.52116 13.1484C5.39214 13.5898 6.37703 13.8392 7.41997 13.8392C10.9664 13.8392 13.8392 10.9657 13.8392 7.41923C13.8385 3.87499 10.965 1 7.41923 1Z" stroke="#B2B2B2" stroke-width="1.3849"/>
<path d="M7.32091 5.32065C7.75918 5.32065 8.11447 4.96536 8.11447 4.52708C8.11447 4.08881 7.75918 3.73352 7.32091 3.73352C6.88263 3.73352 6.52734 4.08881 6.52734 4.52708C6.52734 4.96536 6.88263 5.32065 7.32091 5.32065Z" fill="#B2B2B2"/>
<path d="M8.18844 10.2391C8.08571 10.2197 8.00382 10.1416 7.97926 10.0403V6.82885V6.47376V5.97424H6.39511V6.82885H6.67427C6.78072 6.84597 6.86484 6.92637 6.8909 7.02985V10.0411C6.86559 10.1423 6.7837 10.2197 6.68097 10.2398H6.35938V11.0952H8.53758V10.2398H8.18844V10.2391Z" fill="#B2B2B2"/>
</svg>
