<svg width="22" height="19" viewBox="0 0 22 19" fill="none" xmlns="http://www.w3.org/2000/svg">
<path d="M6.67 13.72C5.1 13.72 3.52 13.72 1.95 13.72C1.89 13.72 1.55 13.71 1.28 13.44C1.11 13.27 1 13.03 1 12.77V1.95C1 1.42 1.43 1 1.95 1H18.58C19.11 1 19.53 1.43 19.53 1.95C19.53 4.97 19.53 8 19.53 11.02" stroke="#AB064E" stroke-width="1.2055" stroke-linejoin="round"/>
<path d="M10.2699 9.01999C9.21992 9.06999 8.47992 8.38 8.47992 8.38L2.41992 2.37" stroke="#AB064E" stroke-width="1.2055" stroke-linejoin="round"/>
<path d="M18.1198 2.37L12.0498 8.38999C12.0498 8.38999 11.3198 9.06999 10.2598 9.02999" stroke="#AB064E" stroke-width="1.2055" stroke-linejoin="round"/>
<path d="M6.27992 8.41992L2.41992 12.3999" stroke="#AB064E" stroke-width="1.2055" stroke-linejoin="round"/>
<path d="M8.14062 13.72V12H15.0906V9.80005L20.9106 13.72L15.1906 17.68V15.62H8.14062V13.72Z" stroke="#AB064E" stroke-width="1.2055" stroke-linejoin="round"/>
</svg>
