<svg width="22" height="19" viewBox="0 0 22 19" fill="none" xmlns="http://www.w3.org/2000/svg">
<path d="M6.35945 14.0208C4.78945 14.0208 3.20945 14.0208 1.63945 14.0208C1.57945 14.0208 1.23945 14.0108 0.969453 13.7408C0.799453 13.5708 0.689453 13.3308 0.689453 13.0708V2.25078C0.689453 1.72078 1.11945 1.30078 1.63945 1.30078H18.2695C18.7995 1.30078 19.2195 1.73078 19.2195 2.25078C19.2195 5.27078 19.2195 8.30078 19.2195 11.3208" stroke="#B2B2B2" stroke-width="1.2055" stroke-linejoin="round"/>
<path d="M9.95938 9.31992C8.90938 9.36992 8.16938 8.67992 8.16938 8.67992L2.10938 2.66992" stroke="#B2B2B2" stroke-width="1.2055" stroke-linejoin="round"/>
<path d="M17.8092 2.66992L11.7392 8.68992C11.7392 8.68992 11.0092 9.36992 9.94922 9.32992" stroke="#B2B2B2" stroke-width="1.2055" stroke-linejoin="round"/>
<path d="M5.96937 8.7207L2.10938 12.7007" stroke="#B2B2B2" stroke-width="1.2055" stroke-linejoin="round"/>
<path d="M7.83008 14.0216V12.3016H14.7801V10.1016L20.6001 14.0216L14.8801 17.9816V15.9216H7.83008V14.0216Z" stroke="#B2B2B2" stroke-width="1.2055" stroke-linejoin="round"/>
</svg>
