<svg width="30" height="30" viewBox="0 0 30 30" fill="none" xmlns="http://www.w3.org/2000/svg">
<path d="M9.20006 18.2C8.00006 16.8 7.26672 15 7.26672 13.0667C7.26672 8.8 10.7334 5.33333 15.0001 5.33333C15.5334 5.33333 17.5334 5.59999 17.8001 6.66666C21.3334 6.66666 22.7334 9.8 22.7334 13.0667C22.7334 15.0667 22.0001 16.8667 20.8001 18.2" stroke="#979797" stroke-width="1.2" stroke-miterlimit="10"/>
<path d="M18.4667 8.8C18.4667 8.8 17.0667 12.6 11.7334 13.2667C11.7334 13.2667 9.40007 13.8667 9.20007 15.9333C9.20007 15.9333 9.20007 17.4667 9.20007 18.8667C9.20007 22.1333 11.6667 24.6667 14.6667 24.6667H15.3334C18.3334 24.6667 20.8001 22.0667 20.8001 18.8667V13.6V13.0667C20.8001 11.0667 18.4667 8.8 18.4667 8.8Z" stroke="#979797" stroke-width="1.2" stroke-miterlimit="10"/>
</svg>
