<svg width="22" height="22" viewBox="0 0 22 22" fill="none" xmlns="http://www.w3.org/2000/svg">
<path d="M11 21C16.5228 21 21 16.5228 21 11C21 5.47715 16.5228 1 11 1C5.47715 1 1 5.47715 1 11C1 16.5228 5.47715 21 11 21Z" stroke="#B6B6B6" stroke-width="1.2"/>
<path d="M7.94792 11.898V13.06H6.49192V14.152H7.94792V16H9.48792V14.152H13.3099V13.06H9.48792V11.898H12.0219C13.0439 11.898 13.8419 11.632 14.4159 11.114C15.0039 10.596 15.2979 9.896 15.2979 9.042C15.2979 8.202 15.0039 7.516 14.4159 6.998C13.8419 6.466 13.0439 6.2 12.0219 6.2H7.94792V10.806H6.49192V11.898H7.94792ZM9.48792 7.586H11.8819C13.0579 7.586 13.7579 8.174 13.7579 9.196C13.7579 10.204 13.0579 10.806 11.8819 10.806H9.48792V7.586Z" fill="#B6B6B6"/>
</svg>
