<svg width="33" height="24" viewBox="0 0 33 24" fill="none" xmlns="http://www.w3.org/2000/svg">
<g clip-path="url(#clip0)">
<path d="M23.3521 9V5.06406L12.1681 1.16406L0.996094 5.06406V18.0121L12.1681 21.8041L17.7601 19.9081" stroke="#B2B2B2" stroke-width="1.6"/>
<path d="M23.3521 5.06445L12.1801 8.89245L0.996094 5.06445" stroke="#B2B2B2"/>
<path d="M12.1675 21.4326V8.89258" stroke="#B2B2B2"/>
<path d="M6.74414 2.9043L17.6161 6.8763" stroke="#B2B2B2"/>
<path d="M30.2437 15.9596C30.2437 19.7659 27.158 22.8516 23.3517 22.8516C19.5453 22.8516 16.4597 19.7659 16.4597 15.9596C16.4597 12.1532 19.5453 9.06758 23.3517 9.06758C27.158 9.06758 30.2437 12.1532 30.2437 15.9596Z" stroke="#B2B2B2" stroke-width="1.6"/>
<path d="M17.5996 15.9872L19.2861 14.3555L20.9397 15.9872H17.5996Z" fill="#B2B2B2"/>
<path d="M28.9553 16.084L27.2688 17.7157L25.6152 16.084H28.9553Z" fill="#B2B2B2"/>
<path d="M26.3492 18.5822C25.6155 19.4582 24.5095 20.0167 23.2829 20.0167C21.0709 20.0167 19.2749 18.2208 19.2749 16.0087C19.2749 15.7678 19.2968 15.5268 19.3406 15.2969" stroke="#B2B2B2" stroke-width="1.82516" stroke-miterlimit="10"/>
<path d="M20.1841 13.4565C20.9178 12.5694 22.0348 12 23.2723 12C25.4843 12 27.2803 13.796 27.2803 16.008C27.2803 16.249 27.2584 16.4899 27.2146 16.7199" stroke="#B2B2B2" stroke-width="1.82516" stroke-miterlimit="10"/>
</g>
<defs>
<clipPath id="clip0">
<rect width="32.4" height="24" fill="white"/>
</clipPath>
</defs>
</svg>
