<svg width="59" height="43" viewBox="0 0 59 43" fill="none" xmlns="http://www.w3.org/2000/svg">
<g clip-path="url(#clip0)">
<path d="M21.8012 2.08594L1.78467 9.07344V32.2719L21.8012 39.0659L41.8392 32.2719V9.07344L21.8012 2.08594Z" stroke="#B2B2B2" stroke-width="2"/>
<path d="M41.8392 9.07227L21.8227 15.9308L1.78467 9.07227" stroke="#B2B2B2"/>
<path d="M21.8005 38.3991V15.9316" stroke="#B2B2B2"/>
<path d="M12.0833 5.20312L31.5623 12.3196" stroke="#B2B2B2"/>
<path d="M41.8391 42.3755C49.4504 42.3755 55.6206 36.2053 55.6206 28.594C55.6206 20.9827 49.4504 14.8125 41.8391 14.8125C34.2278 14.8125 28.0576 20.9827 28.0576 28.594C28.0576 36.2053 34.2278 42.3755 41.8391 42.3755Z" fill="#009295"/>
<path d="M38.2131 29.4329V31.0099H36.2371V32.492H38.2131V35H40.3031V32.492H45.4902V31.0099H40.3031V29.4329H43.7422C45.1292 29.4329 46.2122 29.0719 46.9912 28.3689C47.7892 27.6659 48.1882 26.7159 48.1882 25.5569C48.1882 24.4169 47.7892 23.4858 46.9912 22.7828C46.2122 22.0608 45.1292 21.6998 43.7422 21.6998H38.2131V27.9509H36.2371V29.4329H38.2131ZM40.3031 23.5809H43.5522C45.1482 23.5809 46.0982 24.3789 46.0982 25.7659C46.0982 27.1339 45.1482 27.9509 43.5522 27.9509H40.3031V23.5809Z" fill="white"/>
</g>
<defs>
<clipPath id="clip0">
<rect width="58.05" height="43" fill="white"/>
</clipPath>
</defs>
</svg>
