<svg width="139" height="28" viewBox="0 0 139 28" fill="none" xmlns="http://www.w3.org/2000/svg">
<path d="M62.85 8.23617C61.4504 6.8002 59.6022 6.01096 57.6258 6.01096C55.6708 6.01096 53.8226 6.78924 52.4337 8.19233C52.2521 8.35675 51.5684 9.01445 50.6496 10.1325V6.1425H47.1348V14.287C47.1348 14.287 47.1455 17.8057 43.7696 17.8605C43.7696 17.8605 40.5966 17.9482 40.5325 13.9691V6.1425H37.0497V11.3931C36.7079 10.2422 36.0989 9.15695 35.2122 8.24713C33.8127 6.81116 31.9645 6.02192 29.9881 6.02192C28.033 6.02192 26.1848 6.8002 24.796 8.20329C24.5823 8.4006 23.717 9.22272 22.5845 10.6697C22.0076 8.88291 20.7363 7.42501 19.0911 6.64674C18.9843 6.60289 18.8881 6.54808 18.7813 6.50424C18.7706 6.50424 18.7599 6.49327 18.7599 6.49327C18.6638 6.44943 18.5676 6.41654 18.4715 6.38366C18.4608 6.3727 18.4394 6.3727 18.4287 6.36173C18.3326 6.32885 18.2471 6.29596 18.151 6.27404C18.1296 6.26308 18.1082 6.26308 18.0869 6.25212C18.0014 6.23019 17.9159 6.20827 17.8305 6.18635C17.7984 6.17539 17.777 6.17539 17.745 6.16442C17.6595 6.1425 17.5741 6.13154 17.4993 6.10962C17.4672 6.09865 17.4352 6.09865 17.4031 6.08769C17.3177 6.07673 17.2429 6.06577 17.1574 6.05481C17.1254 6.05481 17.0826 6.04385 17.0506 6.04385C16.9651 6.03288 16.8796 6.03288 16.7942 6.02192C16.7621 6.02192 16.7301 6.01096 16.698 6.01096C16.5805 6 16.463 6 16.3455 6C16.228 6 16.1104 6 15.9929 6.01096C15.9609 6.01096 15.9288 6.02192 15.8968 6.02192C15.8113 6.03288 15.7258 6.03288 15.6404 6.04385C15.6083 6.04385 15.5656 6.05481 15.5335 6.05481C15.4481 6.06577 15.3733 6.07673 15.2878 6.08769C15.2558 6.09865 15.2237 6.09865 15.1917 6.10962C15.1062 6.12058 15.0207 6.1425 14.946 6.16442C14.9139 6.17539 14.8925 6.17539 14.8605 6.18635C14.775 6.20827 14.6896 6.23019 14.6041 6.25212C14.5827 6.26308 14.5614 6.26308 14.54 6.27404C14.4438 6.30693 14.3584 6.32885 14.2622 6.36173C14.2515 6.3727 14.2302 6.3727 14.2195 6.38366C14.1233 6.41654 14.0272 6.46039 13.931 6.49327C13.9204 6.49327 13.9097 6.50424 13.9097 6.50424C13.8028 6.54808 13.696 6.59193 13.5999 6.64674C12.82 7.01943 12.1149 7.54559 11.538 8.19233C10.256 6.85501 8.52529 6.02192 6.61297 6.02192C2.96996 6.02192 0 9.0583 0 12.8072V21.0503H3.52549V12.8072C3.52549 11.0643 4.91433 9.63926 6.61297 9.63926C8.31162 9.63926 9.70045 11.0643 9.70045 12.8072V21.0503H13.2259V12.8072C13.2259 11.3712 14.1661 10.1545 15.4481 9.7708C15.587 9.72696 15.7258 9.69407 15.8647 9.67215H15.8754C15.9395 9.66119 15.9929 9.66119 16.057 9.65022C16.0677 9.65022 16.0891 9.65022 16.0998 9.65022C16.1639 9.65022 16.2386 9.63926 16.3027 9.63926C16.3668 9.63926 16.4416 9.63926 16.5057 9.65022C16.5164 9.65022 16.5378 9.65022 16.5485 9.65022C16.6126 9.65022 16.6767 9.66119 16.7301 9.67215H16.7408C16.8796 9.69407 17.0292 9.72696 17.1574 9.7708C18.4394 10.1545 19.3795 11.3712 19.3795 12.8072V15.6682V17.2905V21.0503H22.905V15.9532C24.9242 12.4893 26.9113 10.6697 26.9326 10.6477L27.0074 10.571C28.642 8.89387 31.2914 8.89387 32.926 10.571C34.5605 12.2481 34.5605 14.9666 32.926 16.6437C32.1354 17.4549 31.0885 17.9043 29.9667 17.9043C28.8877 17.9043 27.8728 17.4878 27.0929 16.7314L25.031 19.2526L25.3729 19.5486C26.6762 20.6119 28.2787 21.1928 29.9667 21.1928C31.9431 21.1928 33.7913 20.4036 35.1908 18.9676C36.0776 18.0578 36.6972 16.9726 37.0284 15.8107C37.0604 16.6766 37.4984 21.2367 43.6093 21.1928C43.6093 21.1928 45.8314 21.2476 47.1134 19.9103V20.3378C47.1134 21.434 47.0173 22.6069 46.1947 23.44C45.4041 24.2511 44.3571 24.7005 43.2354 24.7005C42.1564 24.7005 41.1415 24.284 40.3616 23.5277L38.2997 26.0598L38.6416 26.3558C39.9449 27.419 41.5474 28 43.2354 28C45.2118 28 47.06 27.2108 48.4595 25.7748C49.8697 24.3279 50.5962 22.4205 50.6176 20.5132V15.7997C52.6047 12.4454 54.5277 10.6697 54.549 10.6477L54.6238 10.571C56.2583 8.89387 58.9078 8.89387 60.5424 10.571C62.1769 12.2481 62.1769 14.9666 60.5424 16.6437C59.7518 17.4549 58.7048 17.9043 57.5831 17.9043C56.5041 17.9043 55.4891 17.4878 54.7093 16.7314L52.6474 19.2636L52.9893 19.5595C54.2926 20.6228 55.8951 21.2038 57.5831 21.2038C59.5595 21.2038 61.4077 20.4145 62.8072 18.9786C65.7238 16.008 65.7238 11.1958 62.85 8.23617Z" fill="#89028D"/>
<path d="M69.4642 10.5695V20.4166H68.3257V6.60009H69.4749V8.83308V9.08123L69.6123 8.87462C70.6099 7.375 72.4925 6.24419 74.7784 6.24419C75.9394 6.24419 76.8848 6.49006 77.6173 6.97715C78.349 7.46372 78.8749 8.19537 79.19 9.1795L79.2397 9.33467L79.3253 9.19602C80.3766 7.49231 82.3759 6.24419 84.8094 6.24419C86.3528 6.24419 87.5522 6.73705 88.3669 7.6652C89.183 8.59484 89.6221 9.97144 89.6221 11.7558V20.4059H88.4624V12.0254C88.4624 10.0555 87.9075 8.67248 86.9793 8.10103C86.0735 7.51146 85.3886 7.32368 84.4793 7.32368C83.4504 7.32368 82.4772 7.6531 81.5502 8.30807L81.5495 8.30856C80.6465 8.96182 79.9455 9.75833 79.5027 10.6771L79.4945 10.6942L79.4953 10.7131C79.5273 11.415 79.5485 11.909 79.5485 12.1764V20.4166H78.3994V12.0039C78.3994 10.4582 78.073 9.28905 77.4099 8.50557C76.7448 7.71968 75.7519 7.33446 74.4482 7.33446C73.4737 7.33446 72.5117 7.63082 71.5742 8.25291L71.5742 8.2529L71.5732 8.25359C70.6703 8.87415 69.9695 9.61607 69.4732 10.5338L69.4642 10.5505V10.5695Z" fill="#666666" stroke="#666666" stroke-width="0.15"/>
<path d="M104.402 18.6495L104.402 18.6497C103.065 20.0674 101.35 20.7616 99.1959 20.7616C97.0416 20.7616 95.3051 20.0673 93.9579 18.6495C92.6088 17.2298 91.9552 15.5229 91.9552 13.5244C91.9552 11.5258 92.6088 9.81901 93.9579 8.39925C95.3056 6.98092 97.0425 6.25481 99.1959 6.25481C101.349 6.25481 103.054 6.98067 104.402 8.39925C105.752 9.81963 106.437 11.5267 106.437 13.5244C106.437 15.5221 105.752 17.2291 104.402 18.6495ZM94.8618 9.11455L94.8617 9.11455L94.861 9.1153C93.7182 10.3055 93.1363 11.7804 93.1363 13.5244C93.1363 15.2682 93.7181 16.754 94.8613 17.9337L94.8625 17.9349C96.0375 19.0923 97.4728 19.6821 99.1959 19.6821C100.919 19.6821 102.355 19.0924 103.498 17.9342C104.673 16.7438 105.255 15.2685 105.255 13.5244C105.255 11.7807 104.674 10.2946 103.498 9.11482C102.355 7.92399 100.919 7.3343 99.1959 7.3343C97.4727 7.3343 96.037 7.92425 94.8618 9.11455Z" fill="#666666" stroke="#666666" stroke-width="0.15"/>
<path d="M120.613 9.05999L120.749 9.24927V9.01624V0.075H121.898V20.4057H120.749V18.0217V17.7908L120.613 17.9776C119.265 19.8336 117.414 20.7508 114.977 20.7508L114.977 20.7508C112.909 20.7615 111.226 20.0678 109.943 18.6508C108.657 17.231 108.024 15.5237 108.024 13.5244C108.024 11.525 108.657 9.8177 109.943 8.39792C111.227 6.98032 112.91 6.25479 114.977 6.25479C117.382 6.25479 119.265 7.18264 120.613 9.05999ZM120.732 16.1863L120.738 16.1718V16.1559V10.8928V10.8764L120.732 10.8615C119.793 8.81852 117.573 7.33428 115.201 7.33428C113.478 7.33428 112.042 7.92414 110.898 9.11529C109.754 10.3062 109.205 11.7814 109.205 13.5244C109.205 15.2674 109.765 16.7534 110.898 17.9334L110.899 17.9342C112.042 19.0924 113.478 19.6821 115.201 19.6821C117.636 19.6821 119.825 18.231 120.732 16.1863Z" fill="#666666" stroke="#666666" stroke-width="0.15"/>
<path d="M130.481 7.32368C128.858 7.32368 127.327 7.79917 125.871 8.74756V7.59034C127.235 6.70753 128.859 6.24419 130.705 6.24419C132.483 6.24419 133.96 6.66511 134.991 7.49879C136.02 8.33056 136.614 9.5804 136.614 11.2597V17.4719C136.614 18.0814 136.76 18.5975 137.032 18.9631C137.306 19.331 137.703 19.5421 138.191 19.5421C138.471 19.5421 138.708 19.5014 138.925 19.4115V20.3292C138.685 20.4583 138.33 20.5353 137.871 20.5353C137.265 20.5353 136.72 20.3361 136.312 19.9454C135.905 19.5548 135.629 18.9667 135.571 18.1782L135.558 17.9938L135.439 18.1355C133.953 19.9075 132.005 20.7725 129.576 20.7726C128.165 20.7618 126.946 20.357 125.884 19.5799C124.86 18.7756 124.348 17.6875 124.348 16.2747C124.348 14.9174 124.891 13.8286 125.937 13.0232L125.937 13.023C127.018 12.1832 128.364 11.7769 129.991 11.7769C131.916 11.7769 133.723 12.2694 135.35 13.2862L135.465 13.3579V13.2226V11.3783C135.465 10.0122 135.011 8.9934 134.152 8.31844C133.296 7.646 132.05 7.32368 130.481 7.32368ZM135.461 16.8695L135.476 16.8495V16.8248V14.5168V14.4762L135.442 14.454C133.781 13.3691 132.096 12.8024 130.343 12.8024C128.873 12.8024 127.679 13.1418 126.851 13.7429C126.02 14.3456 125.561 15.209 125.561 16.2424C125.561 17.3937 126.049 18.2575 126.849 18.831C127.645 19.4024 128.746 19.6823 129.97 19.6823C132.308 19.6823 134.32 18.4062 135.461 16.8695Z" fill="#666666" stroke="#666666" stroke-width="0.15"/>
</svg>
