<svg width="24" height="20" viewBox="0 0 24 20" fill="none" xmlns="http://www.w3.org/2000/svg">
<path d="M16.3539 14.2375C14.934 14.2375 13.7871 13.0907 13.7871 11.6708C13.7871 10.2509 14.934 9.10403 16.3539 9.10403H21.6293C21.6293 9.10403 22.514 9.13679 23.224 8.06641V13.1999C23.2349 14.4232 20.7337 14.2375 20.7337 14.2375" stroke="#AB064E" stroke-width="1.2" stroke-linejoin="round"/>
<path d="M16.3535 14.2383H21.629" stroke="#AB064E" stroke-width="1.2" stroke-linejoin="round"/>
<path d="M20.5365 2.81316V0.759766H2.2525C1.38964 0.759766 0.679688 1.45879 0.679688 2.33258C0.679688 3.20637 1.37872 3.9054 2.2525 3.9054H22.426V8.75491" stroke="#AB064E" stroke-width="1.2" stroke-linejoin="round"/>
<path d="M0.679688 2.33203V17.1864C0.679688 18.0493 1.37872 18.7592 2.2525 18.7592H22.426V13.9752" stroke="#AB064E" stroke-width="1.2" stroke-linejoin="round"/>
<path d="M16.2875 12.2723C16.5952 12.2723 16.8445 12.0229 16.8445 11.7152C16.8445 11.4076 16.5952 11.1582 16.2875 11.1582C15.9799 11.1582 15.7305 11.4076 15.7305 11.7152C15.7305 12.0229 15.9799 12.2723 16.2875 12.2723Z" stroke="#AB064E" stroke-width="1.2" stroke-linejoin="round"/>
</svg>
