<svg width="23" height="20" viewBox="0 0 23 20" fill="none" xmlns="http://www.w3.org/2000/svg">
<path d="M7.90063 9.25L9.54063 10.69C10.0606 11.13 10.8606 10.69 10.8606 10.69C11.1806 10.41 11.9806 10.49 11.9806 10.49L15.8906 12.68C15.1306 13.8 14.2506 13.56 14.2506 13.56L12.4506 12.68C11.2906 12.8 12.0106 13.95 12.0106 13.95L15.5606 17.67C16.5606 18.55 15.4806 19 15.4806 19H9.29063C8.46063 18.8 7.50063 17.67 7.50063 17.67L5.63063 15.52C5.03063 14.88 5.27063 13.48 5.27063 13.48L4.39062 12.68" stroke="#B2B2B2" stroke-width="1.2"/>
<path d="M0.800781 1L8.33078 8.53L3.95078 12.91L1.08078 10.02" stroke="#B2B2B2" stroke-width="1.2"/>
<path d="M16.0801 18.0095H21.6301C21.9501 18.0095 22.2001 17.7495 22.2001 17.4395V2.75945C22.2001 2.43945 21.9401 2.18945 21.6301 2.18945C15.7801 2.18945 9.93008 2.18945 4.08008 2.18945" stroke="#B2B2B2" stroke-width="1.2"/>
<path d="M1.80078 12.9102C1.80078 14.4202 1.80078 15.9302 1.80078 17.4402C1.80078 17.4802 1.80078 17.6802 1.97078 17.8402C2.07078 17.9402 2.22078 18.0102 2.37078 18.0102H7.62078" stroke="#B2B2B2" stroke-width="1.2"/>
<path d="M14.4308 2.17969H9.80078V4.51969H14.4308V2.17969Z" stroke="#B2B2B2" stroke-width="1.2"/>
</svg>
