<svg width="17" height="22" viewBox="0 0 17 22" fill="none" xmlns="http://www.w3.org/2000/svg">
<path d="M8.27019 12.7396C10.7386 12.7396 12.7396 10.7386 12.7396 8.27019C12.7396 5.80181 10.7386 3.80078 8.27019 3.80078C5.80181 3.80078 3.80078 5.80181 3.80078 8.27019C3.80078 10.7386 5.80181 12.7396 8.27019 12.7396Z" stroke="#B6B6B6" stroke-width="0.9059"/>
<path d="M8.27059 1C4.25529 1 1 4.25412 1 8.27059C1 8.38353 1.00353 8.49529 1.00941 8.60824C1.01176 8.64941 1.01412 8.69059 1.01647 8.73059C1.02235 8.80235 1.02706 8.87059 1.03294 8.94C1.03765 8.99059 1.04353 9.04118 1.04941 9.09412C1.05647 9.14706 1.06353 9.2 1.06941 9.25529C1.07647 9.31294 1.08471 9.37294 1.09412 9.43294C1.09882 9.45765 1.10353 9.48353 1.10824 9.51059C1.15294 9.77059 1.21176 10.0259 1.28353 10.2753C1.28471 10.2812 1.28706 10.2882 1.28824 10.2941C1.31294 10.3835 1.34235 10.4706 1.36941 10.5588L1.35765 10.5753C1.35765 10.5753 2.50706 14.1388 8.16471 20.9494H8.16706C8.19059 20.9788 8.22941 21 8.27059 21C8.31294 21 8.34941 20.9788 8.37529 20.9494H8.37765C14.0353 14.1388 15.1835 10.5753 15.1835 10.5753L15.1706 10.5588C15.1988 10.4718 15.2271 10.3847 15.2529 10.2941C15.2553 10.2871 15.2553 10.28 15.2576 10.2753C15.3306 10.0247 15.3871 9.76941 15.4318 9.51059C15.4376 9.48353 15.4424 9.45765 15.4471 9.43294C15.4565 9.37294 15.4647 9.31294 15.4718 9.25412C15.4788 9.19882 15.4871 9.14588 15.4929 9.09294C15.4988 9.04 15.5035 8.98941 15.5082 8.93882C15.5153 8.86941 15.52 8.80118 15.5247 8.72941C15.5282 8.69059 15.5318 8.64941 15.5318 8.60706C15.5388 8.49412 15.5424 8.38235 15.5424 8.26941C15.5412 4.25412 12.2859 1 8.27059 1Z" stroke="#B6B6B6" stroke-width="1.2545"/>
</svg>
