<svg width="59" height="43" viewBox="0 0 59 43" fill="none" xmlns="http://www.w3.org/2000/svg">
<g clip-path="url(#clip0)">
<path d="M21.8012 2.08594L1.78467 9.07344V32.2719L21.8012 39.0659L41.8392 32.2719V9.07344L21.8012 2.08594Z" stroke="#B2B2B2" stroke-width="2"/>
<path d="M41.8392 9.07227L21.8227 15.9308L1.78467 9.07227" stroke="#B2B2B2"/>
<path d="M21.8005 38.3991V15.9316" stroke="#B2B2B2"/>
<path d="M12.0833 5.20312L31.5623 12.3196" stroke="#B2B2B2"/>
<path d="M41.8389 42.3755C49.4502 42.3755 55.6204 36.2053 55.6204 28.594C55.6204 20.9827 49.4502 14.8125 41.8389 14.8125C34.2276 14.8125 28.0574 20.9827 28.0574 28.594C28.0574 36.2053 34.2276 42.3755 41.8389 42.3755Z" fill="#013C64"/>
<path d="M30.6802 28.5512L33.9912 25.3477L37.2377 28.5512H30.6802Z" fill="white"/>
<path d="M52.976 28.7441L49.665 31.9476L46.4185 28.7441H52.976Z" fill="white"/>
<path d="M47.859 33.6453C46.4185 35.3653 44.247 36.4618 41.839 36.4618C37.496 36.4618 33.97 32.9358 33.97 28.5928C33.97 28.1198 34.013 27.6468 34.099 27.1953" stroke="white" stroke-width="2" stroke-miterlimit="10"/>
<path d="M35.7544 23.5841C37.1949 21.8426 39.3879 20.7246 41.8174 20.7246C46.1604 20.7246 49.6864 24.2506 49.6864 28.5936C49.6864 29.0666 49.6434 29.5396 49.5574 29.9911" stroke="white" stroke-width="2" stroke-miterlimit="10"/>
</g>
<defs>
<clipPath id="clip0">
<rect width="58.05" height="43" fill="white"/>
</clipPath>
</defs>
</svg>
