<svg width="92" height="19" viewBox="0 0 92 19" fill="none" xmlns="http://www.w3.org/2000/svg">
<path fill-rule="evenodd" clip-rule="evenodd" d="M64.01 18.9474H20.99H0.99C0.99 18.9474 0 18.4842 0 17.9053V1.0421C0 0.463156 0.99 0 0.99 0H20.99H64H84C84.26 0 84.49 0.115786 84.67 0.284207L84.68 0.294736L84.6801 0.294803C84.71 0.326344 84.73 0.347387 84.75 0.378944L91.12 8.4421C91.35 8.72631 91.5 9.08421 91.5 9.48421C91.5 9.88421 91.35 10.2421 91.12 10.5263L84.74 18.5895C84.73 18.6 84.7225 18.6105 84.715 18.6211C84.7075 18.6316 84.7 18.6421 84.69 18.6526L84.68 18.6737V18.6632C84.5 18.8316 84.27 18.9474 84.01 18.9474H64.01Z" fill="#AB064E"/>
<path d="M10.53 14.43V13H15.32V14.43H16.67V11.71H15.71V6H10.79V7.11C10.79 8.26 10.72 9.2 10.57 9.91C10.42 10.62 10.19 11.22 9.87 11.71H9.18V14.43H10.53ZM11.46 11.71C12.07 10.46 12.22 9.08 12.22 7.29H14.27V11.71H11.46ZM19.5592 11.14C19.1492 10.71 18.9492 10.16 18.9492 9.5C18.9492 8.84 19.1492 8.29 19.5592 7.86C19.9692 7.43 20.4892 7.21 21.1092 7.21C21.7292 7.21 22.2392 7.43 22.6492 7.86C23.0592 8.29 23.2692 8.84 23.2692 9.5C23.2692 10.16 23.0592 10.71 22.6492 11.14C22.2392 11.57 21.7292 11.79 21.1092 11.79C20.4892 11.79 19.9692 11.57 19.5592 11.14ZM17.4792 9.5C17.4792 10.51 17.8192 11.37 18.5092 12.08C19.1992 12.79 20.0692 13.14 21.1092 13.14C22.1492 13.14 23.0092 12.79 23.6992 12.08C24.3892 11.37 24.7392 10.51 24.7392 9.5C24.7392 8.48 24.3892 7.62 23.6992 6.92C23.0092 6.21 22.1492 5.86 21.1092 5.86C20.0692 5.86 19.1992 6.21 18.5092 6.92C17.8192 7.62 17.4792 8.48 17.4792 9.5ZM30.9181 13V6H29.6681L28.0281 6.88V8.29L29.5081 7.54V13H30.9181ZM37.0546 13V11.74H34.1346L35.3346 10.64C35.8846 10.13 36.2746 9.69 36.4846 9.31C36.7046 8.93 36.8146 8.49 36.8146 8C36.8146 7.36 36.5646 6.84 36.0746 6.45C35.5846 6.06 35.0046 5.86 34.3346 5.86C33.5446 5.86 32.8646 6.08 32.2946 6.53V8.01C32.8946 7.48 33.5246 7.21 34.1846 7.21C34.9046 7.21 35.3846 7.59 35.3846 8.19C35.3846 8.49 35.2946 8.77 35.1046 9.04C34.9246 9.31 34.6046 9.65 34.1346 10.08L32.0746 11.95V13H37.0546ZM38.8259 13.11C39.3059 13.11 39.6959 12.72 39.6959 12.23C39.6959 11.75 39.3059 11.37 38.8259 11.37C38.3359 11.37 37.9559 11.75 37.9559 12.23C37.9559 12.72 38.3359 13.11 38.8259 13.11ZM42.8224 13V6H41.5724L39.9324 6.88V8.29L41.4124 7.54V13H42.8224ZM48.9589 13V11.74H46.0389L47.2389 10.64C47.7889 10.13 48.1789 9.69 48.3889 9.31C48.6089 8.93 48.7189 8.49 48.7189 8C48.7189 7.36 48.4689 6.84 47.9789 6.45C47.4889 6.06 46.9089 5.86 46.2389 5.86C45.4489 5.86 44.7689 6.08 44.1989 6.53V8.01C44.7989 7.48 45.4289 7.21 46.0889 7.21C46.8089 7.21 47.2889 7.59 47.2889 8.19C47.2889 8.49 47.1989 8.77 47.0089 9.04C46.8289 9.31 46.5089 9.65 46.0389 10.08L43.9789 11.95V13H48.9589ZM50.7302 13.11C51.2102 13.11 51.6002 12.72 51.6002 12.23C51.6002 11.75 51.2102 11.37 50.7302 11.37C50.2402 11.37 49.8602 11.75 49.8602 12.23C49.8602 12.72 50.2402 13.11 50.7302 13.11ZM57.6698 13V11.74H54.7498L55.9498 10.64C56.4998 10.13 56.8898 9.69 57.0998 9.31C57.3198 8.93 57.4298 8.49 57.4298 8C57.4298 7.36 57.1798 6.84 56.6898 6.45C56.1998 6.06 55.6198 5.86 54.9498 5.86C54.1598 5.86 53.4798 6.08 52.9098 6.53V8.01C53.5098 7.48 54.1398 7.21 54.7998 7.21C55.5198 7.21 55.9998 7.59 55.9998 8.19C55.9998 8.49 55.9098 8.77 55.7198 9.04C55.5398 9.31 55.2198 9.65 54.7498 10.08L52.6898 11.95V13H57.6698ZM61.6511 13.14C62.5711 13.14 63.3011 12.78 63.8411 12.07C64.3911 11.36 64.6611 10.5 64.6611 9.5C64.6611 8.5 64.3911 7.64 63.8411 6.93C63.3011 6.22 62.5711 5.86 61.6511 5.86C60.4111 5.86 59.4411 6.63 58.9711 7.72C58.7411 8.26 58.6311 8.85 58.6311 9.5C58.6311 10.79 59.0911 11.93 60.0211 12.62C60.4911 12.97 61.0311 13.14 61.6511 13.14ZM60.5011 11.13C60.2111 10.68 60.0711 10.14 60.0711 9.5C60.0711 8.86 60.2111 8.32 60.5011 7.88C60.7911 7.43 61.1711 7.21 61.6511 7.21C62.1311 7.21 62.5111 7.43 62.7911 7.88C63.0811 8.32 63.2211 8.86 63.2211 9.5C63.2211 10.14 63.0811 10.68 62.7911 11.13C62.5111 11.57 62.1311 11.79 61.6511 11.79C61.1711 11.79 60.7911 11.57 60.5011 11.13ZM70.5019 13V11.74H67.5819L68.7819 10.64C69.3319 10.13 69.7219 9.69 69.9319 9.31C70.1519 8.93 70.2619 8.49 70.2619 8C70.2619 7.36 70.0119 6.84 69.5219 6.45C69.0319 6.06 68.4519 5.86 67.7819 5.86C66.9919 5.86 66.3119 6.08 65.7419 6.53V8.01C66.3419 7.48 66.9719 7.21 67.6319 7.21C68.3519 7.21 68.8319 7.59 68.8319 8.19C68.8319 8.49 68.7419 8.77 68.5519 9.04C68.3719 9.31 68.0519 9.65 67.5819 10.08L65.5219 11.95V13H70.5019ZM74.4831 13.14C75.4031 13.14 76.1331 12.78 76.6731 12.07C77.2231 11.36 77.4931 10.5 77.4931 9.5C77.4931 8.5 77.2231 7.64 76.6731 6.93C76.1331 6.22 75.4031 5.86 74.4831 5.86C73.2431 5.86 72.2731 6.63 71.8031 7.72C71.5731 8.26 71.4631 8.85 71.4631 9.5C71.4631 10.79 71.9231 11.93 72.8531 12.62C73.3231 12.97 73.8631 13.14 74.4831 13.14ZM73.3331 11.13C73.0431 10.68 72.9031 10.14 72.9031 9.5C72.9031 8.86 73.0431 8.32 73.3331 7.88C73.6231 7.43 74.0031 7.21 74.4831 7.21C74.9631 7.21 75.3431 7.43 75.6231 7.88C75.9131 8.32 76.0531 8.86 76.0531 9.5C76.0531 10.14 75.9131 10.68 75.6231 11.13C75.3431 11.57 74.9631 11.79 74.4831 11.79C74.0031 11.79 73.6231 11.57 73.3331 11.13Z" fill="white"/>
</svg>
