<svg width="19" height="19" viewBox="0 0 19 19" fill="none" xmlns="http://www.w3.org/2000/svg">
<path d="M6.97 13.84L12.03 5.15997" stroke="white" stroke-width="1.1"/>
<path d="M7.08 5.91C7.72 5.91 8.25 6.43 8.25 7.08C8.25 7.73 7.72 8.24 7.08 8.24C6.44 8.24 5.91 7.72 5.91 7.08C5.91 6.44 6.43 5.91 7.08 5.91ZM7.08 5C5.93 5 5 5.93 5 7.08C5 8.23 5.93 9.16 7.08 9.16C8.23 9.16 9.16 8.23 9.16 7.08C9.16 5.93 8.22 5 7.08 5Z" fill="white"/>
<path d="M11.92 10.76C12.56 10.76 13.09 11.28 13.09 11.93C13.09 12.57 12.57 13.1 11.92 13.1C11.28 13.1 10.75 12.58 10.75 11.93C10.76 11.28 11.28 10.76 11.92 10.76ZM11.92 9.84998C10.77 9.84998 9.84 10.78 9.84 11.93C9.84 13.08 10.77 14.01 11.92 14.01C13.07 14.01 14 13.08 14 11.93C14 10.78 13.07 9.84998 11.92 9.84998Z" fill="white"/>
<path d="M9.5 18C14.1944 18 18 14.1944 18 9.5C18 4.80558 14.1944 1 9.5 1C4.80558 1 1 4.80558 1 9.5C1 14.1944 4.80558 18 9.5 18Z" stroke="white" stroke-width="1.3083"/>
</svg>
