<svg width="19" height="17" viewBox="0 0 19 17" fill="none" xmlns="http://www.w3.org/2000/svg">
<path d="M9.01165 14.3008C9.28136 14.5706 9.71864 14.5706 9.98834 14.3008L14.3835 9.90574C14.6532 9.63603 14.6532 9.19875 14.3835 8.92904C14.1137 8.65934 13.6765 8.65934 13.4068 8.92904L9.5 12.8358L5.59323 8.92904C5.32353 8.65934 4.88625 8.65934 4.61654 8.92904C4.34684 9.19875 4.34684 9.63603 4.61654 9.90574L9.01165 14.3008ZM8.80938 4.25L8.80937 13.8125L10.1906 13.8125L10.1906 4.25L8.80938 4.25Z" fill="#7D7D7C"/>
<path fill-rule="evenodd" clip-rule="evenodd" d="M2.125 1.8H16.875C17.0545 1.8 17.2 1.94551 17.2 2.125V14.875C17.2 15.0545 17.0545 15.2 16.875 15.2H14.9281V17H16.875C18.0486 17 19 16.0486 19 14.875V2.125C19 0.951395 18.0486 0 16.875 0H2.125C0.951395 0 0 0.951395 0 2.125V14.875C0 16.0486 0.951395 17 2.125 17H4.07092V15.2H2.125C1.94551 15.2 1.8 15.0545 1.8 14.875V2.125C1.8 1.94551 1.94551 1.8 2.125 1.8Z" fill="#7D7D7C"/>
</svg>
