<svg width="17" height="23" viewBox="0 0 17 23" fill="none" xmlns="http://www.w3.org/2000/svg">
<path d="M8.63429 13.3272C11.2261 13.3272 13.3272 11.2261 13.3272 8.63429C13.3272 6.04248 11.2261 3.94141 8.63429 3.94141C6.04248 3.94141 3.94141 6.04248 3.94141 8.63429C3.94141 11.2261 6.04248 13.3272 8.63429 13.3272Z" stroke="white" stroke-opacity="0.7" stroke-width="0.9059"/>
<path d="M8.63412 1C4.41806 1 1 4.41682 1 8.63412C1 8.75271 1.00371 8.87006 1.00988 8.98865C1.01235 9.03188 1.01482 9.07512 1.01729 9.11712C1.02347 9.19247 1.02841 9.26412 1.03459 9.337C1.03953 9.39012 1.04571 9.44324 1.05188 9.49882C1.05929 9.55441 1.06671 9.61 1.07288 9.66806C1.08029 9.72859 1.08894 9.79159 1.09882 9.85459C1.10376 9.88053 1.10871 9.90771 1.11365 9.93612C1.16059 10.2091 1.22235 10.4772 1.29771 10.7391C1.29894 10.7452 1.30141 10.7526 1.30265 10.7588C1.32859 10.8527 1.35947 10.9441 1.38788 11.0368L1.37553 11.0541C1.37553 11.0541 2.58241 14.7958 8.52294 21.9469H8.52541C8.55012 21.9778 8.59088 22 8.63412 22C8.67859 22 8.71688 21.9778 8.74406 21.9469H8.74653C14.6871 14.7958 15.8927 11.0541 15.8927 11.0541L15.8791 11.0368C15.9088 10.9454 15.9384 10.8539 15.9656 10.7588C15.9681 10.7514 15.9681 10.744 15.9705 10.7391C16.0471 10.4759 16.1064 10.2079 16.1534 9.93612C16.1595 9.90771 16.1645 9.88053 16.1694 9.85459C16.1793 9.79159 16.1879 9.72859 16.1954 9.66682C16.2028 9.60876 16.2114 9.55318 16.2176 9.49759C16.2238 9.442 16.2287 9.38888 16.2336 9.33576C16.2411 9.26288 16.246 9.19123 16.2509 9.11588C16.2546 9.07512 16.2584 9.03188 16.2584 8.98741C16.2658 8.86882 16.2695 8.75147 16.2695 8.63288C16.2682 4.41682 12.8502 1 8.63412 1Z" stroke="white" stroke-opacity="0.7" stroke-width="1.2545"/>
</svg>
