<svg width="33" height="24" viewBox="0 0 33 24" fill="none" xmlns="http://www.w3.org/2000/svg">
<g clip-path="url(#clip0)">
<path d="M23.3521 8.99976V5.06382L12.1681 1.16382L0.996094 5.06382V18.0118L12.1681 21.8038L17.7601 19.9078" stroke="#009295" stroke-width="1.6"/>
<path d="M23.3521 5.06372L12.1801 8.89172L0.996094 5.06372" stroke="#009295"/>
<path d="M12.168 21.4321V8.89209" stroke="#009295"/>
<path d="M6.74414 2.90381L17.6161 6.87581" stroke="#009295"/>
<path d="M30.2442 15.9596C30.2442 19.7659 27.1585 22.8516 23.3522 22.8516C19.5458 22.8516 16.4602 19.7659 16.4602 15.9596C16.4602 12.1532 19.5458 9.06758 23.3522 9.06758C27.1585 9.06758 30.2442 12.1532 30.2442 15.9596Z" stroke="#009295" stroke-width="1.6"/>
<path d="M17.5996 15.9864L19.2861 14.3547L20.9397 15.9864H17.5996Z" fill="#009295"/>
<path d="M28.9553 16.0847L27.2688 17.7164L25.6152 16.0847H28.9553Z" fill="#009295"/>
<path d="M26.3497 18.5812C25.616 19.4573 24.5099 20.0158 23.2834 20.0158C21.0713 20.0158 19.2754 18.2198 19.2754 16.0077C19.2754 15.7668 19.2973 15.5259 19.3411 15.2959" stroke="#009295" stroke-width="1.82516" stroke-miterlimit="10"/>
<path d="M20.1855 13.456C20.9193 12.569 22.0363 11.9995 23.2737 11.9995C25.4858 11.9995 27.2818 13.7955 27.2818 16.0076C27.2818 16.2485 27.2599 16.4894 27.2161 16.7194" stroke="#009295" stroke-width="1.82516" stroke-miterlimit="10"/>
</g>
<defs>
<clipPath id="clip0">
<rect width="32.4" height="24" fill="white"/>
</clipPath>
</defs>
</svg>
