<svg width="30" height="30" viewBox="0 0 30 30" fill="none" xmlns="http://www.w3.org/2000/svg">
<path d="M20.5333 24.7333H9.46663C8.19997 24.7333 7.1333 23.6667 7.1333 22.4C7.1333 21.1333 8.19997 20.0667 9.46663 20.0667H20.4666C21.7333 20.0667 22.8 21.1333 22.8 22.4C22.8666 23.6667 21.8 24.7333 20.5333 24.7333Z" stroke="#979797" stroke-width="1.2" stroke-miterlimit="10" stroke-linecap="round" stroke-linejoin="round"/>
<path d="M17.7332 17.2667H12.1999C10.9332 17.2667 9.86658 16.2 9.86658 14.9333C9.86658 13.6667 10.9332 12.6 12.1999 12.6H17.7332C18.9999 12.6 20.0666 13.6667 20.0666 14.9333C20.1332 16.2 19.0666 17.2667 17.7332 17.2667Z" stroke="#979797" stroke-width="1.2" stroke-miterlimit="10" stroke-linecap="round" stroke-linejoin="round"/>
<path d="M12.7333 7.53333C12.7333 6.26667 13.7333 5.26667 14.9999 5.26667C16.2666 5.26667 17.2666 6.26667 17.2666 7.53333C17.2666 8.8 16.2666 9.8 14.9999 9.8C13.7333 9.8 12.7333 8.8 12.7333 7.53333Z" stroke="#979797" stroke-width="1.2" stroke-miterlimit="10" stroke-linecap="round" stroke-linejoin="round"/>
</svg>
