<svg width="28" height="19" viewBox="0 0 28 19" fill="none" xmlns="http://www.w3.org/2000/svg">
<path d="M17.5596 4.88H22.3596L24.7496 8.89001H25.7096C25.7096 8.89001 26.4996 8.97 26.5196 9.78V14.5C26.5196 14.5 26.5196 15.13 25.7296 15.16H24.2096" stroke="#AB064E" stroke-width="1.2055" stroke-linejoin="round"/>
<path d="M21.5201 7.41992L22.8401 9.39992H18.8301" stroke="#AB064E" stroke-width="1.2055" stroke-linejoin="round"/>
<path d="M8 1H17.57V15.16" stroke="#AB064E" stroke-width="1.2055" stroke-linejoin="round"/>
<path d="M19.6998 15.1599H9.25977" stroke="#AB064E" stroke-width="1.2055" stroke-linejoin="round"/>
<path d="M4.5398 15.1599H1.7998" stroke="#AB064E" stroke-width="1.2055" stroke-linejoin="round"/>
<path d="M4.54004 4.34998H12.92" stroke="#AB064E" stroke-width="1.2055" stroke-linejoin="round"/>
<path d="M0 7.78003H9.62" stroke="#AB064E" stroke-width="1.2055" stroke-linejoin="round"/>
<path d="M6.87035 18.26C8.25659 18.26 9.38035 17.1362 9.38035 15.75C9.38035 14.3638 8.25659 13.24 6.87035 13.24C5.48412 13.24 4.36035 14.3638 4.36035 15.75C4.36035 17.1362 5.48412 18.26 6.87035 18.26Z" stroke="#AB064E" stroke-width="1.2055" stroke-linejoin="round"/>
<path d="M22.0403 18.26C23.4265 18.26 24.5503 17.1362 24.5503 15.75C24.5503 14.3638 23.4265 13.24 22.0403 13.24C20.654 13.24 19.5303 14.3638 19.5303 15.75C19.5303 17.1362 20.654 18.26 22.0403 18.26Z" stroke="#AB064E" stroke-width="1.2055" stroke-linejoin="round"/>
</svg>
