<svg width="28" height="19" viewBox="0 0 28 19" fill="none" xmlns="http://www.w3.org/2000/svg">
<path d="M17.5586 4.88086H22.3586L24.7486 8.89086H25.7086C25.7086 8.89086 26.4986 8.97086 26.5186 9.78086V14.5009C26.5186 14.5009 26.5186 15.1309 25.7286 15.1609H24.2086" stroke="#B2B2B2" stroke-width="1.2055" stroke-linejoin="round"/>
<path d="M21.5201 7.41992L22.8401 9.39992H18.8301" stroke="#B2B2B2" stroke-width="1.2055" stroke-linejoin="round"/>
<path d="M8 1H17.57V15.16" stroke="#B2B2B2" stroke-width="1.2055" stroke-linejoin="round"/>
<path d="M19.6998 15.1602H9.25977" stroke="#B2B2B2" stroke-width="1.2055" stroke-linejoin="round"/>
<path d="M4.54078 15.1602H1.80078" stroke="#B2B2B2" stroke-width="1.2055" stroke-linejoin="round"/>
<path d="M4.53906 4.34961H12.9191" stroke="#B2B2B2" stroke-width="1.2055" stroke-linejoin="round"/>
<path d="M0 7.7793H9.62" stroke="#B2B2B2" stroke-width="1.2055" stroke-linejoin="round"/>
<path d="M6.86937 18.2602C8.25561 18.2602 9.37937 17.1365 9.37937 15.7502C9.37937 14.364 8.25561 13.2402 6.86937 13.2402C5.48314 13.2402 4.35938 14.364 4.35938 15.7502C4.35938 17.1365 5.48314 18.2602 6.86937 18.2602Z" stroke="#B2B2B2" stroke-width="1.2055" stroke-linejoin="round"/>
<path d="M22.0413 18.2602C23.4275 18.2602 24.5513 17.1365 24.5513 15.7502C24.5513 14.364 23.4275 13.2402 22.0413 13.2402C20.655 13.2402 19.5312 14.364 19.5312 15.7502C19.5312 17.1365 20.655 18.2602 22.0413 18.2602Z" stroke="#B2B2B2" stroke-width="1.2055" stroke-linejoin="round"/>
</svg>
