<svg width="30" height="30" viewBox="0 0 30 30" fill="none" xmlns="http://www.w3.org/2000/svg">
<path d="M11.6667 23.6667C11.4667 23.8 11.2667 23.9333 11.0667 24C10.4667 24.2667 9.86675 24.4 9.20008 24.4C7.80008 24.4 6.53341 23.8 5.66675 22.8C5.93341 23.0667 7.06675 21.7333 7.26675 21.5333C7.86675 20.6667 7.86675 19.5333 7.73342 18.5333C7.26675 15.8667 6.80008 13 7.73342 10.3333C8.20008 9 9.06675 7.73333 10.2001 6.79999C11.2667 5.93333 12.6001 5.39999 13.9334 5.26666C15.5334 5.13333 16.6667 5.79999 17.8001 6.86666C17.8667 6.93333 18.4001 7.6 18.5334 7.53333C24.5334 6.66666 23.0667 15.0667 22.4001 18.4667C22.2001 19.4667 22.2667 20.6 22.8667 21.4667C23.0001 21.6667 24.2001 23 24.4667 22.7333C23.6001 23.6667 22.3334 24.3333 20.9334 24.3333C19.9334 24.3333 19.0001 24 18.2667 23.4667" stroke="#979797" stroke-width="1.2" stroke-miterlimit="10" stroke-linejoin="round"/>
<path d="M20.2 14.4667C20 12.2 18.1334 10.6 18.1334 10.6C18.1334 10.6 16.8667 14 12.1334 14.6C12.1334 14.6 10 15.1333 9.8667 16.9333C9.8667 16.9333 9.8667 18.2667 9.8667 19.6C9.8667 22.4667 12.0667 24.8 14.7334 24.8H15.3334C18 24.8 20.2 22.4667 20.2 19.6V14.9333V14.4667Z" stroke="#979797" stroke-width="1.2" stroke-miterlimit="10"/>
</svg>
