<svg width="10" height="17" viewBox="0 0 10 17" fill="none" xmlns="http://www.w3.org/2000/svg">
<path d="M8.71672 9.59207C8.94214 9.59207 9.13626 9.43051 9.1613 9.21509L9.44308 6.9592C9.47439 6.70189 9.26775 6.48049 8.9985 6.48049H6.18071V4.59559C6.18071 3.73991 6.43118 3.15948 7.71484 3.15948H8.90457C9.15504 3.15948 9.35542 2.968 9.35542 2.72864V0.825793C9.35542 0.58644 9.15504 0.394958 8.90457 0.394958H6.96969C4.60902 0.394958 2.99349 1.77123 2.99349 4.2964V6.47451H1.08366C0.833188 6.47451 0.632812 6.66599 0.632812 6.90534L0.639074 9.16124C0.639074 9.39461 0.83945 9.58609 1.08992 9.58609H2.99349L2.98096 16.5572H6.17445L6.18698 9.58609H8.71672V9.59207Z" fill="#555555"/>
</svg>
