<svg width="14" height="14" viewBox="0 0 14 14" fill="none" xmlns="http://www.w3.org/2000/svg">
<path fill-rule="evenodd" clip-rule="evenodd" d="M4.04506 0.657193C5.20012 0.113182 6.51372 -0.102156 7.78203 0.0451807C9.06166 0.192517 10.3073 0.691194 11.3265 1.49588C12.7194 2.5839 13.6593 4.21593 13.9197 5.94997C14.0669 6.90199 14.0103 7.87668 13.7612 8.80603C13.6479 9.22537 13.4101 9.62205 13.0931 9.91672C12.6288 10.3474 11.9833 10.5741 11.3491 10.5287C10.7037 10.4834 10.0808 10.1434 9.68448 9.62205C9.34476 9.1687 9.16357 8.59069 9.22019 8.02401C9.23152 7.94468 9.23152 7.87668 9.23152 7.79734C9.36741 7.36667 9.41271 6.90199 9.29946 6.47131C9.1749 5.9273 8.8465 5.43996 8.40486 5.11129C7.96321 4.78261 7.39701 4.62394 6.84212 4.65794C6.23062 4.70328 5.64176 4.98662 5.24542 5.43996C4.88304 5.84797 4.66788 6.39198 4.64524 6.94732C4.63391 7.45733 4.78113 7.96735 5.07555 8.37535C5.36998 8.7947 5.78898 9.11204 6.27591 9.25937C6.91007 9.47471 7.63481 9.38404 8.21234 9.04403C8.32559 9.49738 8.52942 9.92805 8.81252 10.2907C8.11043 10.6761 7.27244 10.8347 6.46842 10.7214C5.58514 10.5967 4.74715 10.1434 4.1583 9.45204C3.58077 8.78336 3.25237 7.89934 3.25237 7.01533C3.25237 6.06331 3.62606 5.12262 4.28286 4.43127C4.90569 3.77392 5.78898 3.35458 6.69491 3.28658C7.63481 3.20725 8.60869 3.50192 9.34476 4.1026C10.0129 4.64661 10.4885 5.42863 10.6697 6.26731C10.7829 6.82266 10.7716 7.412 10.6244 7.96735C10.5225 8.28469 10.6244 8.65869 10.8622 8.8967C11.0547 9.08937 11.3265 9.19137 11.5983 9.1687C11.904 9.14604 12.1984 8.95337 12.3457 8.68136C12.4136 8.55669 12.4476 8.40935 12.4816 8.26202C12.7194 7.25333 12.6514 6.17664 12.3117 5.19062C11.9493 4.1366 11.2585 3.18458 10.3639 2.5159C9.53727 1.89255 8.5181 1.50721 7.4876 1.41654C6.38916 1.31454 5.25674 1.56388 4.29419 2.09656C3.4109 2.5839 2.65219 3.32058 2.15392 4.19327C1.57639 5.19062 1.31594 6.36931 1.41785 7.514C1.51977 8.65869 1.98406 9.75805 2.72013 10.6307C3.4562 11.5148 4.4867 12.1608 5.60779 12.4441C6.93272 12.7954 8.39353 12.6254 9.60522 11.9908C9.75243 11.9228 9.88832 11.8094 10.0582 11.7868C10.3639 11.7301 10.6923 11.9114 10.8056 12.1948C10.9415 12.4894 10.8169 12.8748 10.5451 13.0448C9.31079 13.7701 7.84997 14.0988 6.4118 13.9741C5.4266 13.8835 4.46405 13.5888 3.60341 13.1128C2.62954 12.5688 1.79155 11.7868 1.18005 10.8574C0.489272 9.84872 0.0929268 8.64736 0.0136577 7.43467C-0.0769355 6.00664 0.285437 4.56727 1.03283 3.34325C1.74625 2.17589 2.7994 1.23521 4.04506 0.657193Z" fill="#8D8E8E"/>
</svg>
