<svg width="10" height="16" viewBox="0 0 10 16" fill="none" xmlns="http://www.w3.org/2000/svg">
<path d="M4.81029 8.0996C7.046 8.0996 8.85622 6.28938 8.85622 4.05367C8.85622 1.81023 7.046 0 4.81029 0C2.57458 0 0.764358 1.81023 0.764358 4.04593C0.764358 6.28164 2.57458 8.0996 4.81029 8.0996ZM4.81029 2.05778C5.9088 2.05778 6.79845 2.94742 6.79845 4.04593C6.79845 5.14445 5.9088 6.03409 4.81029 6.03409C3.71178 6.03409 2.8144 5.15218 2.8144 4.04593C2.8144 2.94742 3.71178 2.05778 4.81029 2.05778ZM9.4751 8.59471C9.24302 8.13828 8.61641 7.75148 7.77318 8.41678C6.63599 9.31415 4.81029 9.31415 4.81029 9.31415C4.81029 9.31415 2.98459 9.31415 1.8474 8.41678C1.00417 7.75148 0.369822 8.13828 0.145477 8.59471C-0.256795 9.39151 0.199629 9.77831 1.21305 10.4359C2.07948 10.9929 3.27083 11.2017 4.04443 11.2791L3.40234 11.9212C2.49722 12.8263 1.62306 13.7005 1.01965 14.3039C0.656054 14.6675 0.656054 15.2554 1.01965 15.619L1.12795 15.7273C1.49154 16.0909 2.07948 16.0909 2.44307 15.7273L4.82576 13.3446C5.73088 14.2497 6.60504 15.1239 7.20845 15.7273C7.57205 16.0909 8.15998 16.0909 8.52357 15.7273L8.63188 15.619C8.99547 15.2554 8.99547 14.6675 8.63188 14.3039L6.24145 11.9135L5.59936 11.2714C6.37296 11.194 7.54884 10.9851 8.40754 10.4281C9.42095 9.77832 9.87738 9.39151 9.4751 8.59471Z" fill="#8D8E8E"/>
</svg>
