<svg width="15" height="15" viewBox="0 0 15 15" fill="none" xmlns="http://www.w3.org/2000/svg">
<path d="M7.97662 0.961078C6.98741 0.961078 6.04317 1.16766 5.18885 1.53593L3.64209 0C2.01439 0.709581 0.710432 2.02096 0 3.65569L1.54676 5.19162C2.2482 3.55689 3.55216 2.24551 5.18885 1.53593L10.8993 7.23952C9.27158 7.9491 7.96763 9.26048 7.25719 10.8952L1.54676 5.2006C1.17806 6.05389 0.953237 6.98802 0.953237 7.98503C0.953237 11.8563 4.10072 15 7.97662 15C11.8525 15 15 11.8563 15 7.98503C15 4.10479 11.8525 0.961078 7.97662 0.961078ZM9.19065 11.3084C9.60432 10.3653 10.3597 9.6018 11.304 9.18862L11.8615 11.8653L9.19065 11.3084Z" fill="#8D8E8E"/>
</svg>
