<svg width="15" height="12" viewBox="0 0 15 12" fill="none" xmlns="http://www.w3.org/2000/svg">
<path d="M14.5939 0.219119C14.0044 0.567132 13.3362 0.81203 12.6419 0.953813C12.0786 0.373792 11.2795 0 10.3886 0C8.68559 0 7.31004 1.35338 7.31004 3.029C7.31004 3.2739 7.33624 3.50591 7.38865 3.72503C4.83406 3.59613 2.55458 2.39742 1.04803 0.567132C0.786026 1.00537 0.628821 1.53383 0.628821 2.08808C0.628821 3.13212 1.16594 4.06015 1.99127 4.6015C1.49345 4.58861 1.00873 4.44683 0.60262 4.22771V4.26638C0.60262 5.73577 1.66376 6.96026 3.0655 7.23093C2.81659 7.29538 2.54148 7.33405 2.25328 7.33405C2.05677 7.33405 1.86026 7.32116 1.67686 7.28249C2.06987 8.4812 3.19651 9.35768 4.55895 9.38346C3.51092 10.1955 2.17467 10.6853 0.733624 10.6853C0.484716 10.6853 0.235808 10.6724 0 10.6337C1.36245 11.4973 2.9738 12 4.71616 12C10.3755 12 13.4803 7.38561 13.4803 3.37701L13.4672 2.99033C14.0568 2.56498 14.5939 2.02363 15 1.41783C14.4498 1.66273 13.8603 1.8174 13.2314 1.89474C13.8734 1.52095 14.3712 0.928034 14.5939 0.219119Z" fill="#8D8E8E"/>
</svg>
