<svg width="18" height="10" viewBox="0 0 18 10" fill="none" xmlns="http://www.w3.org/2000/svg">
<path d="M8.80445 9.95424H9.88125C9.88125 9.95424 10.2037 9.91697 10.3732 9.74658C10.5262 9.58684 10.5208 9.28866 10.5208 9.28866C10.5208 9.28866 10.4989 7.88294 11.1712 7.67528C11.8326 7.47294 12.6798 9.03307 13.5763 9.63476C14.254 10.0874 14.7733 9.99152 14.7733 9.99152L17.1783 9.95957C17.1783 9.95957 18.4355 9.88502 17.8397 8.92126C17.7905 8.84139 17.4899 8.20775 16.0524 6.90853C14.5437 5.54541 14.746 5.76905 16.5607 3.41022C17.6648 1.97256 18.1076 1.09931 17.9709 0.721257C17.8397 0.364504 17.0253 0.460348 17.0253 0.460348L14.3196 0.476322C14.3196 0.476322 14.1174 0.449699 13.9698 0.534894C13.8222 0.620088 13.7293 0.817101 13.7293 0.817101C13.7293 0.817101 13.303 1.92996 12.729 2.87243C11.5265 4.86385 11.04 4.97035 10.8433 4.84788C10.3841 4.56035 10.4989 3.6871 10.4989 3.06944C10.4989 1.13658 10.7995 0.332556 9.91404 0.124894C9.61888 0.0556728 9.40571 0.0077507 8.6514 0.00242602C7.68392 -0.00822333 6.86948 0.00775069 6.40488 0.226062C6.09878 0.375153 5.85828 0.699958 6.00586 0.721257C6.18624 0.742556 6.59072 0.827751 6.80389 1.10996C7.08266 1.47736 7.07173 2.30269 7.07173 2.30269C7.07173 2.30269 7.23024 4.57632 6.70004 4.85853C6.33382 5.05022 5.83641 4.65619 4.75961 2.85113C4.21301 1.91931 3.7976 0.891647 3.7976 0.891647C3.7976 0.891647 3.71561 0.699958 3.57349 0.59879C3.39858 0.476322 3.15808 0.433725 3.15808 0.433725L0.589058 0.449699C0.589058 0.449699 0.200973 0.460348 0.0588568 0.625413C-0.0668611 0.769179 0.0479248 1.07269 0.0479248 1.07269C0.0479248 1.07269 2.06488 5.65723 4.3442 7.97346C6.43221 10.0927 8.80445 9.95424 8.80445 9.95424Z" fill="#8D8E8E"/>
</svg>
