<svg width="22" height="19" viewBox="0 0 22 19" fill="none" xmlns="http://www.w3.org/2000/svg">
<path d="M1 14.89L2.17 17.58L3.45 14.89V1H1V14.89Z" stroke="#AB064E"/>
<path d="M1 14.89L2.17 17.58L3.45 14.89V1H1V14.89Z" stroke="#AB064E"/>
<path d="M1 14.89L2.17 17.58L3.45 14.89V1H1V14.89Z" stroke="#AB064E"/>
<path d="M1 4.55005H3.45" stroke="#AB064E" stroke-width="1.2" stroke-linejoin="round"/>
<path d="M1 4.55005H3.45" stroke="#AB064E" stroke-width="1.2" stroke-linejoin="round"/>
<path d="M1 4.55005H3.45" stroke="#AB064E" stroke-width="1.2" stroke-linejoin="round"/>
<path d="M6.82031 4.28L10.0403 1H21.0303V18.32H6.82031V4.28Z" stroke="#AB064E" stroke-width="1.2" stroke-linejoin="round"/>
<path d="M6.82031 4.28L10.0403 1H21.0303V18.32H6.82031V4.28Z" stroke="#AB064E" stroke-width="1.2" stroke-linejoin="round"/>
<path d="M6.82031 4.28L10.0403 1H21.0303V18.32H6.82031V4.28Z" stroke="#AB064E" stroke-width="1.2" stroke-linejoin="round"/>
<path d="M10.7807 2.27002V4.54002H8.43066" stroke="#AB064E" stroke-width="1.2" stroke-linejoin="round"/>
<path d="M10.7807 2.27002V4.54002H8.43066" stroke="#AB064E" stroke-width="1.2" stroke-linejoin="round"/>
<path d="M10.7807 2.27002V4.54002H8.43066" stroke="#AB064E" stroke-width="1.2" stroke-linejoin="round"/>
<path d="M9.75977 10.3501H18.3398" stroke="#AB064E" stroke-width="1.2" stroke-linejoin="round"/>
<path d="M9.75977 10.3501H18.3398" stroke="#AB064E" stroke-width="1.2" stroke-linejoin="round"/>
<path d="M9.75977 10.3501H18.3398" stroke="#AB064E" stroke-width="1.2" stroke-linejoin="round"/>
<path d="M9.75977 12.3501H18.3398" stroke="#AB064E" stroke-width="1.2" stroke-linejoin="round"/>
<path d="M9.75977 12.3501H18.3398" stroke="#AB064E" stroke-width="1.2" stroke-linejoin="round"/>
<path d="M9.75977 12.3501H18.3398" stroke="#AB064E" stroke-width="1.2" stroke-linejoin="round"/>
<path d="M9.75977 14.3501H14.8698" stroke="#AB064E" stroke-width="1.2" stroke-linejoin="round"/>
<path d="M9.75977 14.3501H14.8698" stroke="#AB064E" stroke-width="1.2" stroke-linejoin="round"/>
<path d="M9.75977 14.3501H14.8698" stroke="#AB064E" stroke-width="1.2" stroke-linejoin="round"/>
</svg>
