<svg width="28" height="19" viewBox="0 0 28 19" fill="none" xmlns="http://www.w3.org/2000/svg">
<path d="M9.95996 4.88H5.15988L2.76985 8.89001H1.80983C1.80983 8.89001 1.01982 8.97 0.999817 9.78V14.5C0.999817 14.5 0.999816 15.13 1.78983 15.16H3.30985" stroke="#AB064E" stroke-width="1.2055" stroke-linejoin="round"/>
<path d="M5.99941 7.41998L4.67939 9.39998H8.68945" stroke="#AB064E" stroke-width="1.2055" stroke-linejoin="round"/>
<path d="M19.5195 1H9.94938V15.16" stroke="#AB064E" stroke-width="1.2055" stroke-linejoin="round"/>
<path d="M7.8196 15.16H18.2598" stroke="#AB064E" stroke-width="1.2055" stroke-linejoin="round"/>
<path d="M22.9797 15.16H25.7197" stroke="#AB064E" stroke-width="1.2055" stroke-linejoin="round"/>
<path d="M22.9795 4.34998H14.5994" stroke="#AB064E" stroke-width="1.2055" stroke-linejoin="round"/>
<path d="M27.5195 7.78003H17.8994" stroke="#AB064E" stroke-width="1.2055" stroke-linejoin="round"/>
<path d="M20.6491 18.26C19.2629 18.26 18.1391 17.1362 18.1391 15.75C18.1391 14.3638 19.2629 13.24 20.6491 13.24C22.0354 13.24 23.1592 14.3638 23.1592 15.75C23.1592 17.1362 22.0354 18.26 20.6491 18.26Z" stroke="#AB064E" stroke-width="1.2055" stroke-linejoin="round"/>
<path d="M5.47922 18.26C4.09296 18.26 2.96918 17.1362 2.96918 15.75C2.96918 14.3638 4.09296 13.24 5.47922 13.24C6.86547 13.24 7.98926 14.3638 7.98926 15.75C7.98926 17.1362 6.86547 18.26 5.47922 18.26Z" stroke="#AB064E" stroke-width="1.2055" stroke-linejoin="round"/>
</svg>
