<svg width="21" height="19" viewBox="0 0 21 19" fill="none" xmlns="http://www.w3.org/2000/svg">
<path d="M20.21 4.28L16.99 1H5.99996V18.32H20.21V4.28Z" stroke="#AB064E" stroke-linejoin="round"/>
<path d="M20.21 4.28L16.99 1H5.99996V18.32H20.21V4.28Z" stroke="#AB064E" stroke-linejoin="round"/>
<path d="M20.21 4.28L16.99 1H5.99996V18.32H20.21V4.28Z" stroke="#B2B2B2" stroke-linejoin="round"/>
<path d="M16.2496 2.27002V4.54002H18.5996" stroke="#AB064E" stroke-linejoin="round"/>
<path d="M16.2496 2.27002V4.54002H18.5996" stroke="#AB064E" stroke-linejoin="round"/>
<path d="M16.2496 2.27002V4.54002H18.5996" stroke="#B2B2B2" stroke-linejoin="round"/>
<path d="M17.2705 10.3501H8.69051" stroke="#AB064E" stroke-linejoin="round"/>
<path d="M17.2705 10.3501H8.69051" stroke="#AB064E" stroke-linejoin="round"/>
<path d="M17.2705 10.3501H8.69051" stroke="#B2B2B2" stroke-linejoin="round"/>
<path d="M17.2705 12.3501H8.69051" stroke="#AB064E" stroke-linejoin="round"/>
<path d="M17.2705 12.3501H8.69051" stroke="#AB064E" stroke-linejoin="round"/>
<path d="M17.2705 12.3501H8.69051" stroke="#B2B2B2" stroke-linejoin="round"/>
<path d="M14.1099 14.3501H8.99986" stroke="#AB064E" stroke-linejoin="round"/>
<path d="M14.1099 14.3501H8.99986" stroke="#AB064E" stroke-linejoin="round"/>
<path d="M14.1099 14.3501H8.99986" stroke="#B2B2B2" stroke-linejoin="round"/>
<rect y="5" width="10" height="10" rx="1" fill="#107C41"/>
<path d="M2.08944 13L4.09095 9.9438L2.27721 7.14329H3.65949L4.83403 9.02495L5.9846 7.14329H7.35489L5.53316 9.98775L7.53467 13H6.10844L4.81006 10.9745L3.50768 13H2.08944Z" fill="white"/>
</svg>
