<svg width="18" height="17" viewBox="0 0 18 17" fill="none" xmlns="http://www.w3.org/2000/svg">
<path d="M17 5.29335C17 2.92336 15.153 1 12.8772 1C11.0925 1 9.57761 2.18139 9.00346 3.83822C8.4224 2.18139 6.90748 1 5.12278 1C2.84695 1 1 2.92336 1 5.29335C1 5.81201 1.09684 6.30906 1.25594 6.77729H1.24903C1.24903 6.77729 1.26978 6.84212 1.3182 6.95018C1.3182 6.95738 1.32512 6.96458 1.32512 6.97179C1.69174 7.87944 3.52486 11.863 8.61608 15.2631H8.62992C8.73368 15.3424 8.85819 15.4 8.99654 15.4C9.13489 15.4 9.2594 15.3424 9.36317 15.2631H9.377C14.4613 11.863 16.2944 7.87944 16.668 6.97179C16.668 6.96458 16.6749 6.95738 16.6749 6.95018C16.7164 6.84212 16.7441 6.77729 16.7441 6.77729H16.7371C16.9032 6.31626 17 5.81921 17 5.29335Z" stroke="#AB064E" stroke-width="1.6" stroke-linejoin="round"/>
</svg>
