<svg width="24" height="24" viewBox="0 0 24 24" fill="none" xmlns="http://www.w3.org/2000/svg">
<path d="M9.33345 18.9333C9.17345 19.04 9.01345 19.1467 8.85345 19.2C8.37345 19.4133 7.89345 19.52 7.36011 19.52C6.24011 19.52 5.22678 19.04 4.53345 18.24C4.74678 18.4533 5.65345 17.3867 5.81345 17.2267C6.29345 16.5333 6.29345 15.6267 6.18678 14.8267C5.81345 12.6933 5.44011 10.4 6.18678 8.26666C6.56011 7.2 7.25345 6.18666 8.16011 5.44C9.01345 4.74666 10.0801 4.32 11.1468 4.21333C12.4268 4.10666 13.3334 4.64 14.2401 5.49333C14.2934 5.54666 14.7201 6.08 14.8268 6.02666C19.6268 5.33333 18.4534 12.0533 17.9201 14.7733C17.7601 15.5733 17.8134 16.48 18.2934 17.1733C18.4001 17.3333 19.3601 18.4 19.5734 18.1867C18.8801 18.9333 17.8668 19.4667 16.7468 19.4667C15.9468 19.4667 15.2001 19.2 14.6134 18.7733" stroke="#979797" stroke-width="1.2" stroke-miterlimit="10" stroke-linejoin="round"/>
<path d="M16.1601 11.5733C16.0001 9.76 14.5068 8.48 14.5068 8.48C14.5068 8.48 13.4934 11.2 9.70677 11.68C9.70677 11.68 8.0001 12.1067 7.89343 13.5467C7.89343 13.5467 7.89343 14.6133 7.89343 15.68C7.89343 17.9733 9.65343 19.84 11.7868 19.84H12.2668C14.4001 19.84 16.1601 17.9733 16.1601 15.68V11.9467V11.5733Z" stroke="#979797" stroke-width="1.2" stroke-miterlimit="10"/>
</svg>
