<svg width="24" height="24" viewBox="0 0 24 24" fill="none" xmlns="http://www.w3.org/2000/svg">
<path d="M15.52 17.3867C17.0133 16.32 17.92 14.6133 17.92 12.64C17.92 11.2 17.3866 9.92 16.5333 8.90666C20 5.86666 19.7866 10.4533 20.4266 11.5733C21.0666 12.8 22.4533 11.2533 22.4533 11.2533C21.44 11.1467 22.24 9.12 22.24 9.12C22.24 9.12 23.4666 5.12 20.32 4.26666C17.9733 3.62666 16.7466 6.82666 16.2666 8.48C15.2 7.46666 13.76 6.82666 12.16 6.82666C10.5066 6.82666 9.06664 7.52 7.99998 8.58666C7.51998 6.93333 6.29331 3.62666 3.89331 4.26666C0.746642 5.17333 1.97331 9.12 1.97331 9.12C1.97331 9.12 2.61331 11.04 1.59998 11.0933C1.59998 11.0933 2.66664 12.5867 3.73331 11.52C4.63998 10.56 4.10664 5.70666 7.67998 8.85333C6.82664 9.86666 6.34664 11.1467 6.34664 12.5333C6.34664 14.1867 7.03998 15.68 8.10664 16.6933" stroke="#979797" stroke-width="1.2" stroke-miterlimit="10"/>
<path d="M15.7867 12C15.6267 10.2933 14.1867 9.06666 14.1867 9.06666C14.1867 9.06666 13.2267 11.6267 9.65332 12.0533C9.65332 12.0533 8.05332 12.48 7.94666 13.8133C7.94666 13.8133 7.94666 14.8267 7.94666 15.7867C7.94666 17.9733 9.59999 19.68 11.6267 19.68H12.1067C14.1333 19.68 15.7867 17.92 15.7867 15.7867V12Z" stroke="#979797" stroke-width="1.2" stroke-miterlimit="10"/>
</svg>
