<svg width="24" height="24" viewBox="0 0 24 24" fill="none" xmlns="http://www.w3.org/2000/svg">
<path d="M7.36002 14.56C6.40002 13.44 5.81335 12 5.81335 10.4533C5.81335 7.04 8.58669 4.26667 12 4.26667C12.4267 4.26667 14.0267 4.48 14.24 5.33334C17.0667 5.33334 18.1867 7.84 18.1867 10.4533C18.1867 12.0533 17.6 13.4933 16.64 14.56" stroke="#979797" stroke-width="1.2" stroke-miterlimit="10"/>
<path d="M14.7734 7.04C14.7734 7.04 13.6534 10.08 9.38677 10.6133C9.38677 10.6133 7.52011 11.0933 7.36011 12.7467C7.36011 12.7467 7.36011 13.9733 7.36011 15.0933C7.36011 17.7067 9.33344 19.7333 11.7334 19.7333H12.2668C14.6668 19.7333 16.6401 17.6533 16.6401 15.0933V10.88V10.4533C16.6401 8.85333 14.7734 7.04 14.7734 7.04Z" stroke="#979797" stroke-width="1.2" stroke-miterlimit="10"/>
</svg>
