<svg width="24" height="24" viewBox="0 0 24 24" fill="none" xmlns="http://www.w3.org/2000/svg">
<path d="M5.72295 14.6727C5.24098 13.8293 5 12.8653 5 11.8412C5 11.5399 5 11.1785 5.06025 10.8772" stroke="#979797" stroke-width="1.2" stroke-miterlimit="10"/>
<path d="M16.4466 10.8772C16.5068 11.1785 16.5068 11.4797 16.5068 11.8412C16.5068 12.8653 16.2056 13.8293 15.7839 14.6727" stroke="#979797" stroke-width="1.2" stroke-miterlimit="10"/>
<path d="M6.38563 10.8772C6.02416 11.2387 5.78318 11.6604 5.72293 12.2629C5.72293 12.2629 5.72293 13.528 5.72293 14.7932C5.72293 16.4801 6.50612 17.926 7.71103 18.8296C8.49423 19.4321 9.45816 19.7333 10.4823 19.7333H11.0848C13.6753 19.7333 15.7839 17.5042 15.7839 14.7329V10.817" stroke="#979797" stroke-width="1.2" stroke-miterlimit="10"/>
<path d="M5 10.8772C5 7.68421 7.59056 5.1539 10.7233 5.1539C13.9163 5.1539 16.4467 7.74446 16.4467 10.8772H5Z" stroke="#979797" stroke-width="1.2" stroke-miterlimit="10"/>
<path d="M5 10.8772H21.3868" stroke="#979797" stroke-width="1.2" stroke-miterlimit="10"/>
</svg>
