<svg width="24" height="24" viewBox="0 0 24 24" fill="none" xmlns="http://www.w3.org/2000/svg">
<path d="M6.52013 14.2533C6.09346 13.5067 5.88013 12.6533 5.88013 11.7467C5.88013 11.48 5.88013 11.16 5.93346 10.8933" stroke="#979797" stroke-width="1.2" stroke-miterlimit="10"/>
<path d="M16.0134 10.8933C16.0668 11.16 16.0668 11.4267 16.0668 11.7467C16.0668 12.6533 15.8001 13.5067 15.4268 14.2533" stroke="#979797" stroke-width="1.2" stroke-miterlimit="10"/>
<path d="M7.10681 10.8933C6.78681 11.2133 6.57347 11.5867 6.52014 12.12C6.52014 12.12 6.52014 13.24 6.52014 14.36C6.52014 15.8533 7.21347 17.1333 8.28014 17.9333C8.97347 18.4667 9.82681 18.7333 10.7335 18.7333H11.2668C13.5601 18.7333 15.4268 16.76 15.4268 14.3067V10.84" stroke="#979797" stroke-width="1.2" stroke-miterlimit="10"/>
<path d="M5.88013 10.8933C5.88013 8.06667 8.17346 5.82667 10.9468 5.82667C13.7735 5.82667 16.0135 8.12 16.0135 10.8933H5.88013Z" stroke="#979797" stroke-width="1.2" stroke-miterlimit="10"/>
<path d="M5.88013 10.8933H20.3868" stroke="#979797" stroke-width="1.2" stroke-miterlimit="10"/>
</svg>
