<svg width="24" height="24" viewBox="0 0 24 24" fill="none" xmlns="http://www.w3.org/2000/svg">
<path d="M6.39996 11.52V17.8667C6.39996 18.5067 6.87996 18.9867 7.51996 18.9867H16.4266C17.0666 18.9867 17.5466 18.5067 17.5466 17.8667V11.52L18.24 11.7867L18.88 12C19.68 12 20 10.9333 19.4133 10.4L12.64 4.47999C12.2666 4.15999 11.68 4.15999 11.36 4.47999L4.53329 10.4C3.94662 10.88 4.26662 12 5.06662 12L5.70662 11.7867L6.39996 11.52Z" stroke="#979797" stroke-width="1.2" stroke-miterlimit="10" stroke-linecap="round" stroke-linejoin="round"/>
<path d="M13.7939 16H10.206C10.1035 16 10.001 15.8975 10.001 15.795V12.2583C10.001 12.1558 10.1035 12.0533 10.206 12.0533H13.7939C13.8964 12.0533 13.9989 12.1558 13.9989 12.2583V15.795C13.9989 15.8975 13.8964 16 13.7939 16Z" stroke="#979797" stroke-width="1.2" stroke-miterlimit="10" stroke-linecap="round" stroke-linejoin="round"/>
</svg>
