<svg width="24" height="24" viewBox="0 0 24 24" fill="none" xmlns="http://www.w3.org/2000/svg">
<path d="M16.4267 19.7867H7.57333C6.56 19.7867 5.70667 18.9333 5.70667 17.92C5.70667 16.9067 6.56 16.0533 7.57333 16.0533H16.3733C17.3867 16.0533 18.24 16.9067 18.24 17.92C18.2933 18.9333 17.44 19.7867 16.4267 19.7867Z" stroke="#979797" stroke-width="1.2" stroke-miterlimit="10" stroke-linecap="round" stroke-linejoin="round"/>
<path d="M14.1866 13.8133H9.75998C8.74664 13.8133 7.89331 12.96 7.89331 11.9467C7.89331 10.9333 8.74664 10.08 9.75998 10.08H14.1866C15.2 10.08 16.0533 10.9333 16.0533 11.9467C16.1066 12.96 15.2533 13.8133 14.1866 13.8133Z" stroke="#979797" stroke-width="1.2" stroke-miterlimit="10" stroke-linecap="round" stroke-linejoin="round"/>
<path d="M10.1866 6.02667C10.1866 5.01333 10.9866 4.21333 12 4.21333C13.0133 4.21333 13.8133 5.01333 13.8133 6.02667C13.8133 7.04 13.0133 7.84 12 7.84C10.9866 7.84 10.1866 7.04 10.1866 6.02667Z" stroke="#979797" stroke-width="1.2" stroke-miterlimit="10" stroke-linecap="round" stroke-linejoin="round"/>
</svg>
