<svg width="55" height="55" viewBox="0 0 55 55" fill="none" xmlns="http://www.w3.org/2000/svg">
<g clip-path="url(#clip0)">
<path d="M41.6896 21.12C41.6529 21.0833 41.6285 21.0467 41.5918 21.01C41.6162 21.0467 41.6529 21.0833 41.6896 21.12Z" stroke="#1D1D1B" stroke-width="0.5" stroke-miterlimit="10"/>
<path d="M24.4686 12.8212C22.9652 13.5912 21.5719 14.5445 20.3008 15.7301C21.5474 14.5689 22.953 13.6034 24.4686 12.8212Z" stroke="#1D1D1B" stroke-width="0.8" stroke-miterlimit="10"/>
<path d="M36.7031 17.1844C37.2776 17.4411 37.8276 17.7344 38.3409 18.0767C37.8276 17.7344 37.2898 17.4289 36.7031 17.1844Z" stroke="#1D1D1B" stroke-width="0.8" stroke-miterlimit="10"/>
<path d="M41.0044 17.9544C41.0044 17.9666 41.0044 17.9666 40.9922 17.9789C41.0044 17.9666 41.0044 17.9544 41.0044 17.9544Z" stroke="#1D1D1B" stroke-width="0.8" stroke-miterlimit="10"/>
<path d="M38.8906 18.4556C39.4895 18.8956 40.0517 19.3967 40.5773 19.9345C40.0517 19.3967 39.4895 18.9078 38.8906 18.4556Z" stroke="#1D1D1B" stroke-width="0.8" stroke-miterlimit="10"/>
<path d="M40.5898 19.9467C40.8098 20.1667 41.0176 20.3867 41.2254 20.6067C41.0176 20.3744 40.8098 20.1544 40.5898 19.9467Z" stroke="#1D1D1B" stroke-width="0.8" stroke-miterlimit="10"/>
<path d="M19.9824 16.0234C20.0435 15.9623 20.1046 15.9012 20.1658 15.8523C20.1046 15.9134 20.0435 15.9623 19.9824 16.0234Z" stroke="#1D1D1B" stroke-width="0.8" stroke-miterlimit="10"/>
<path d="M41.0062 17.9544C41.4951 15.9866 40.5418 13.7989 39.1851 12.3933C39.1729 12.3811 39.1607 12.3689 39.1484 12.3566C40.6273 13.86 41.4584 16.1089 41.0062 17.9544Z" stroke="#1D1D1B" stroke-width="0.8" stroke-miterlimit="10"/>
<path d="M41.005 17.9789C40.9805 18.0644 40.9683 18.1378 40.9316 18.2233C40.9561 18.1378 40.9805 18.0522 41.005 17.9789Z" stroke="#1D1D1B" stroke-width="0.8" stroke-miterlimit="10"/>
<path d="M20.301 15.7178C20.2521 15.7667 20.2032 15.8033 20.1543 15.8522C20.2154 15.8033 20.2521 15.7667 20.301 15.7178Z" stroke="#1D1D1B" stroke-width="0.8" stroke-miterlimit="10"/>
<path d="M19.5796 16.4266C16.353 19.7878 13.0163 23.0389 9.72852 26.3267C13.0285 23.0389 16.353 19.7878 19.5796 16.4266ZM19.5796 16.4266C19.7141 16.2922 19.8485 16.1578 19.9707 16.0233C19.8485 16.1578 19.7141 16.2922 19.5796 16.4266Z" stroke="#1D1D1B" stroke-width="0.8" stroke-miterlimit="10"/>
<path d="M39.1968 24.5911C38.109 23.4911 36.9846 22.4278 35.8112 21.4134C35.5301 21.1811 34.9924 21.12 34.6012 21.1811C32.7312 21.4622 31.0079 20.5089 30.5068 18.8589C29.9935 17.1722 30.7879 15.3511 32.4379 14.6545C33.599 14.1656 34.7357 14.3 35.8235 14.9845C36.6912 15.5345 37.6323 15.9622 38.5001 16.5C39.3435 17.0256 40.1379 17.6367 40.9446 18.2111C40.969 18.1378 40.9935 18.0522 41.0179 17.9667C41.0179 17.9545 41.0179 17.9545 41.0301 17.9422C41.4823 16.0967 40.6512 13.86 39.1723 12.3445C39.1357 12.3078 39.099 12.2711 39.0746 12.2467C39.0623 12.2345 39.0379 12.21 39.0257 12.1978C37.2168 10.4867 34.6135 10.1934 32.2179 10.4745C32.1812 10.4745 32.1446 10.4867 32.1079 10.4867C31.839 10.5234 31.5824 10.56 31.3135 10.5967C30.4212 10.7922 29.529 10.9756 28.649 11.22C27.1946 11.6234 25.8012 12.1489 24.4935 12.8089C22.9779 13.5911 21.5724 14.5689 20.3257 15.7178C20.2768 15.7667 20.2279 15.8034 20.179 15.8522C20.1179 15.9134 20.0568 15.9745 19.9957 16.0234C19.8612 16.1578 19.7268 16.28 19.6046 16.4267C16.3779 19.7878 13.0412 23.0389 9.75346 26.3267C8.54346 27.5367 7.33346 28.7467 6.9668 30.5067C6.9668 31.1911 6.9668 31.8756 6.9668 32.56C7.32124 34.0878 8.31124 35.1878 9.3868 36.2511C11.709 38.5489 13.9946 40.8833 16.3412 43.1445C18.3212 45.0511 21.719 45.1122 23.6746 43.1934C28.0379 38.9156 32.4012 34.6378 36.5935 30.2011C37.8157 28.9056 38.5001 27.0845 39.3801 25.4711C39.4657 25.2756 39.3801 24.7745 39.1968 24.5911Z" stroke="#AB064E" stroke-width="0.8" stroke-miterlimit="10" stroke-linecap="round" stroke-linejoin="round"/>
<path d="M47.9472 32.9145C47.0061 28.38 44.6717 24.5667 41.6894 21.12C41.6528 21.0834 41.6283 21.0467 41.5917 21.01C41.4694 20.8756 41.3472 20.7411 41.225 20.6067C41.0172 20.3867 40.8094 20.1667 40.5894 19.9467L40.5772 19.9345C40.0517 19.4089 39.4894 18.9078 38.8906 18.4556C38.7072 18.3211 38.5239 18.1989 38.3406 18.0767C37.8272 17.7345 37.2772 17.4289 36.7028 17.1845C35.7861 16.7811 34.7472 16.5856 33.745 16.4878C33.0239 16.4145 32.5228 17.0378 32.4983 17.7467C32.4617 18.4311 32.8772 19.03 33.5861 19.0667C35.4561 19.1767 36.8494 20.1789 38.145 21.3645C41.335 24.2978 43.5961 27.83 44.9161 31.9611C45.2094 32.8778 45.3317 33.8678 45.3317 34.8334C45.3317 36.2756 44.5128 36.7523 43.3394 35.9334C42.2761 35.2 41.335 34.2345 40.4917 33.2567C39.7339 32.3645 39.1839 31.3011 38.4994 30.2623C38.1206 30.7389 37.8272 31.2523 37.3994 31.6189C36.715 32.2178 36.825 32.7311 37.2894 33.4156C38.4994 35.2245 39.795 36.9234 41.6528 38.1334C43.9628 39.6367 47.275 39.2089 47.9717 35.8723C47.9839 35.8234 47.9961 35.7745 47.9961 35.7256C48.1794 34.7356 47.9594 32.9634 47.9472 32.9145Z" stroke="#AB064E" stroke-width="0.8" stroke-miterlimit="10" stroke-linecap="round" stroke-linejoin="round"/>
<path d="M17.6855 26.3755C17.6855 25.5567 17.8689 24.9578 18.2233 24.5667C18.5778 24.1756 19.0667 23.98 19.6778 23.98C20.3133 23.98 20.8022 24.1756 21.1689 24.5667C21.5355 24.9578 21.7067 25.5689 21.7067 26.3878C21.7067 27.2067 21.5233 27.8055 21.1689 28.1967C20.8144 28.5878 20.3255 28.7833 19.7144 28.7833C19.0789 28.7833 18.59 28.5878 18.2233 28.1967C17.8689 27.8055 17.6855 27.2067 17.6855 26.3755ZM19.0544 26.3633C19.0544 26.9622 19.1278 27.3533 19.2622 27.5611C19.36 27.7078 19.5067 27.7811 19.69 27.7811C19.8733 27.7811 20.02 27.7078 20.13 27.5611C20.2644 27.3533 20.3255 26.9622 20.3255 26.3633C20.3255 25.7767 20.2644 25.3733 20.13 25.1778C20.0322 25.0189 19.8855 24.9455 19.69 24.9455C19.5067 24.9455 19.36 25.0189 19.2622 25.1656C19.1155 25.3733 19.0544 25.7767 19.0544 26.3633ZM21.01 33.5867H19.7144L24.5667 23.9678H25.8255L21.01 33.5867ZM23.8333 31.1911C23.8333 30.3722 24.0167 29.7733 24.3711 29.3822C24.7255 28.9911 25.2144 28.7955 25.8378 28.7955C26.4611 28.7955 26.95 28.9911 27.3167 29.3822C27.6711 29.7733 27.8544 30.3844 27.8544 31.1911C27.8544 32.01 27.6711 32.6211 27.3167 33.0122C26.9622 33.4033 26.4733 33.5989 25.8622 33.5989C25.2267 33.5989 24.7378 33.4033 24.3711 33.0122C24.0167 32.6211 23.8333 32.0222 23.8333 31.1911ZM25.2022 31.1911C25.2022 31.7778 25.2755 32.1811 25.41 32.3767C25.5078 32.5355 25.6544 32.6089 25.8378 32.6089C26.0211 32.6089 26.1678 32.5355 26.2655 32.3889C26.4 32.1811 26.4733 31.79 26.4733 31.1911C26.4733 30.5922 26.4122 30.2011 26.2778 29.9933C26.18 29.8467 26.0333 29.7733 25.8378 29.7733C25.6422 29.7733 25.5078 29.8467 25.41 29.9933C25.2633 30.2011 25.2022 30.6044 25.2022 31.1911Z" fill="#AB064E"/>
</g>
<defs>
<clipPath id="clip0">
<rect width="55" height="55" fill="white"/>
</clipPath>
</defs>
</svg>
