<svg width="55" height="55" viewBox="0 0 55 55" fill="none" xmlns="http://www.w3.org/2000/svg">
<g clip-path="url(#clip0)">
<path d="M29.6515 21.6089C29.6637 21.6089 29.6759 21.6089 29.7004 21.6089C29.7737 21.6211 29.8593 21.6455 29.9326 21.6578C31.167 21.9144 32.3893 21.9511 33.6115 21.5966C35.1026 21.1566 36.2026 20.24 36.7526 18.7122C37.5593 16.4755 36.9115 14.0311 35.1393 12.4911C35.0537 12.4178 34.9681 12.2955 34.9559 12.1733C34.797 10.9266 34.6626 9.66776 34.5037 8.40887C34.4304 7.84664 34.3326 7.28442 34.247 6.73442C33.8804 6.7222 33.8926 6.7222 33.9048 7.03998C33.9904 8.72664 34.0515 10.4133 34.1615 12.1C34.1982 12.7355 34.0515 13.2489 33.7459 13.7989C32.3159 16.3289 30.2137 18.0278 27.647 19.1644C27.5737 19.2011 27.4515 19.2011 27.3781 19.1766C26.4126 18.7366 25.4715 18.2355 24.6037 17.6122C22.9904 16.4511 21.817 14.9233 20.9004 13.1389C20.8393 13.0289 20.827 12.8944 20.827 12.7722C20.9126 10.8655 20.9982 8.95887 21.0837 7.0522C21.0959 6.7222 21.0837 6.70998 20.7415 6.75887C20.6681 7.25998 20.5704 7.77331 20.5093 8.28664C20.3504 9.54553 20.2037 10.8044 20.057 12.0755C20.0326 12.2711 19.9715 12.43 19.8126 12.5522C19.617 12.6989 19.4459 12.8822 19.2748 13.0655C18.1993 14.3122 17.4904 16.1944 18.1504 18.4678C18.3826 19.2622 18.737 19.9955 19.3848 20.5089C19.7148 20.7778 20.057 21.0344 20.4237 21.23C21.7559 21.9144 23.1615 22 24.6159 21.7555C24.8726 21.7066 25.1415 21.6578 25.3982 21.6089C23.6993 22.5255 21.9393 22.5011 20.1426 21.8778C20.1548 21.9878 20.1548 22.0489 20.167 22.0978C20.2893 22.7578 20.4115 23.4178 20.5215 24.0778C20.7782 25.6544 20.9248 27.2311 20.8393 28.8322C20.7904 29.7733 20.6437 30.7022 20.3137 31.57C19.9837 32.45 19.5926 33.3055 19.177 34.1366C18.2482 35.9822 17.7959 37.9255 17.7715 39.9911C17.7715 40.15 17.8082 40.2111 17.9793 40.26C18.8959 40.4922 19.8248 40.7 20.717 40.9933C22.3426 41.5311 23.6626 42.4966 24.6404 43.9511C25.1904 44.7578 25.6059 45.6378 25.9604 46.5544C26.1315 46.97 26.2904 47.3855 26.4859 47.7889C26.6448 48.1311 26.9382 48.3022 27.317 48.3022C27.4515 48.3022 27.5982 48.3022 27.7326 48.3022C28.0748 48.29 28.3315 48.1311 28.5026 47.8378C28.5881 47.7033 28.6615 47.5566 28.7226 47.41C29.1015 46.4322 29.4804 45.4422 30.0059 44.5378C30.7515 43.2544 31.7415 42.2155 33.0493 41.5311C34.3082 40.8711 35.677 40.5289 37.0459 40.26C37.1804 40.2355 37.2293 40.1866 37.2293 40.04C37.217 39.05 37.1315 38.0844 36.9237 37.1189C36.667 35.9089 36.1904 34.7844 35.6159 33.7211C34.5159 31.6922 34.0393 29.5289 34.1615 27.2066C34.2348 25.7033 34.4304 24.2244 34.7115 22.7455C34.7604 22.4644 34.8215 22.1833 34.8826 21.8655C33.0737 22.4766 31.3381 22.5011 29.6515 21.6089Z" stroke="#979797" stroke-miterlimit="10" stroke-linecap="round" stroke-linejoin="round"/>
</g>
<defs>
<clipPath id="clip0">
<rect width="55" height="55" fill="white"/>
</clipPath>
</defs>
</svg>
