<svg width="55" height="55" viewBox="0 0 55 55" fill="none" xmlns="http://www.w3.org/2000/svg">
<g clip-path="url(#clip0)">
<path d="M33.1708 7.50449C37.2897 8.83671 38.3897 13.0167 39.6608 16.61C39.6608 16.61 39.1474 19.5434 36.483 19.3723C34.5397 17.4289 33.1952 17.4289 33.1952 17.4289C33.1952 17.4289 34.063 20.8634 33.513 22.7823C33.1463 23.6378 33.073 24.4934 33.3908 25.3734C33.6597 26.1434 34.1363 26.8034 34.6374 27.4267C35.8963 29.0156 36.6541 30.8245 37.0086 32.8045C37.2652 34.2467 37.1919 35.6767 36.923 37.1189C36.6174 38.7567 36.0552 40.3212 35.5297 41.8978C34.8697 43.8656 33.9897 45.7478 33.2319 47.6667C33.2319 47.6667 29.333 43.4256 25.9108 45.7967C23.4908 47.4712 20.4963 47.6667 20.4963 47.6667C19.5186 45.2223 18.3452 42.1667 17.1719 39.8078C16.683 38.83 16.243 37.84 16.023 36.7645C15.7297 35.2978 15.7541 33.8312 16.0108 32.3767C16.2186 31.1545 16.573 29.9812 17.123 28.8689C17.5386 28.0256 18.1374 27.3167 18.773 26.6323C19.7019 25.63 20.9974 23.8578 20.8263 22.4156C20.7408 21.6456 20.6186 20.8756 20.5086 20.0689C20.3252 20.2278 20.1419 20.3745 19.9952 20.5334C19.8363 20.7045 19.6774 20.8756 19.543 21.0712C19.543 21.0712 17.7341 22 16.8663 21.4256C15.9986 20.8389 15.3141 19.7389 15.3263 19.7145C15.6686 18.9812 15.9619 18.2234 16.353 17.5145C17.013 16.3045 17.3308 15.0089 17.4286 13.6523C17.4897 12.9434 17.563 12.2345 17.8074 11.5623C17.9786 11.0978 18.223 10.6823 18.6263 10.3889C18.7241 10.3156 18.7486 10.23 18.6874 10.1323" stroke="#979797" stroke-width="0.8" stroke-miterlimit="10"/>
<path d="M18.6387 10.3645C19.4576 9.19114 21.5964 8.8367 21.5964 8.8367C21.5964 8.8367 22.0853 11.8678 25.4709 11.1956C28.8564 10.5234 28.6242 7.38225 28.6242 7.38225C28.6242 7.38225 30.5309 7.21114 33.1709 7.50448" stroke="#979797" stroke-width="0.8" stroke-miterlimit="10"/>
</g>
<defs>
<clipPath id="clip0">
<rect width="55" height="55" fill="white"/>
</clipPath>
</defs>
</svg>
