<svg width="55" height="55" viewBox="0 0 55 55" fill="none" xmlns="http://www.w3.org/2000/svg">
<g clip-path="url(#clip0)">
<path d="M28.0126 30.58C26.5092 30.4577 26.5092 30.4577 25.9226 31.7044C25.4459 32.6944 24.9814 33.6966 24.517 34.6866C24.4681 34.6622 24.4192 34.65 24.3703 34.6255C24.8715 33.2811 25.3726 31.9488 25.8981 30.5311C25.5559 30.5311 25.3359 30.5677 25.1281 30.5311C24.3214 30.3844 23.8937 30.7388 23.6126 31.4722C23.1603 32.6822 22.5248 33.8433 22.1581 35.0777C21.767 36.41 21.5103 37.8033 21.3637 39.1966C21.2537 40.3333 21.7914 41.25 22.8914 41.7266C23.6614 42.0566 24.407 42.4477 25.2015 42.7044C29.7237 44.1344 34.3559 44.2077 39.0248 43.7677C41.7992 43.4988 44.5492 43.01 47.0914 41.7511C48.6192 40.9933 49.0592 40.1866 48.8637 38.4877C48.5459 35.7133 47.3115 33.2688 46.0159 30.8611C45.9303 30.7022 45.6981 30.5555 45.5148 30.5433C45.0137 30.5066 44.5126 30.5311 43.9381 30.5311C44.1581 31.0444 44.3414 31.4477 44.537 31.9C43.8892 31.5211 44.0237 30.4333 43.0337 30.5311C42.3981 30.5922 41.7626 30.6288 41.0415 30.6777C41.6159 32.2055 42.117 33.5377 42.6303 34.87C42.5815 34.8944 42.5448 34.9188 42.4959 34.9433C41.9092 33.6966 41.2981 32.4622 40.7481 31.2033C40.5403 30.7144 40.2837 30.5188 39.7214 30.5311C37.4726 30.5677 35.2237 30.5433 32.9748 30.5433C32.0826 30.5433 31.2026 30.5433 30.2981 30.5433L28.0126 30.58Z" stroke="#979797" stroke-width="0.8" stroke-miterlimit="10" stroke-linecap="round" stroke-linejoin="round"/>
<path d="M45.7965 27.8544C42.3865 27.8544 39.0009 27.8544 35.6276 27.8544C35.5909 27.72 35.5665 27.5977 35.5298 27.4633C35.8109 27.17 36.1531 26.95 36.3487 26.5833C36.532 26.2289 36.7153 25.6422 36.6298 25.3C36.5442 24.9577 36.1165 24.5666 35.8476 24.5911C35.5909 24.6155 35.3342 25.1044 35.1387 25.4589C35.0409 25.6422 35.0653 25.9844 35.0409 26.2533C34.992 26.2533 34.9431 26.2533 34.9064 26.2655C34.882 26.1433 34.8209 26.0211 34.8209 25.8989C34.8453 25.1411 34.6498 24.53 34.0753 24.5666C33.7942 24.5789 33.3909 24.9455 33.2809 25.3C33.0364 26.0333 33.3787 26.4855 33.8553 26.8155C34.0753 26.9744 34.2098 27.3533 34.552 27.9033C30.9098 27.9033 27.5364 27.9033 24.1387 27.9033C24.1387 28.4533 24.1387 28.8566 24.1387 29.3211C33.2809 29.3211 36.642 29.3211 45.7965 29.3211C45.7965 28.8689 45.7965 28.4655 45.7965 27.8544Z" stroke="#979797" stroke-width="0.8" stroke-miterlimit="10" stroke-linecap="round" stroke-linejoin="round"/>
<path d="M9.97401 20.1055C8.9229 19.2867 8.10401 18.1622 7.77401 16.8544C7.23624 14.7278 8.11624 12.7967 10.1451 11.9778C12.284 11.11 14.4107 11.2444 16.4762 12.2344C17.4418 12.6989 18.3829 13.2367 19.2873 13.8111C21.2062 15.0211 23.1251 14.9722 25.0807 13.9333C26.3396 13.2733 27.5862 12.5644 28.9062 12.0633C30.9351 11.2933 33.0129 11.2689 35.0051 12.2711C36.8751 13.2122 37.6207 14.9967 37.0462 17.0011C36.1296 20.2155 32.744 22.1955 29.1507 21.5844C27.7451 21.3522 26.4618 20.8511 25.3618 19.9222C24.4818 19.1767 23.9562 18.26 23.7851 17.1111C23.6507 16.2433 23.0518 15.6933 22.3673 15.7055C21.6951 15.7055 21.0229 16.2678 20.8885 17.0867C20.4973 19.5433 18.774 20.68 16.6351 21.3033C15.4496 21.6455 14.1907 21.7311 12.9807 21.4744C12.3696 21.3522 11.7707 21.1444 11.1962 20.8633C10.7685 20.6555 10.3529 20.3989 9.97401 20.1055Z" stroke="#979797" stroke-width="0.8" stroke-miterlimit="10" stroke-linecap="round" stroke-linejoin="round"/>
<path d="M34.2832 21.0834C34.8943 20.6923 35.4443 20.35 36.0554 19.9589C36.2876 20.1056 36.5565 20.2767 36.8132 20.46C37.4732 20.9123 37.461 21.3278 36.7765 21.78C35.9821 22.2934 35.371 22.1345 34.2832 21.0834Z" stroke="#979797" stroke-width="0.8" stroke-miterlimit="10" stroke-linecap="round" stroke-linejoin="round"/>
<path d="M9.21509 20.0078C9.67953 20.3989 10.1562 20.7778 10.6329 21.1689C9.88731 22.0611 9.10509 22.2689 8.31064 21.7189C7.6262 21.2545 7.6262 20.8511 8.32287 20.4111C8.59175 20.24 9.21509 20.0078 9.21509 20.0078Z" stroke="#979797" stroke-width="0.8" stroke-miterlimit="10" stroke-linecap="round" stroke-linejoin="round"/>
<path d="M14.2747 20.3867C16.4258 20.2645 17.9047 19.8733 18.9435 18.5289C19.8235 17.4045 19.7258 15.84 18.6991 14.8745C17.0124 13.2856 14.9835 12.7478 12.7347 13.2245C11.2313 13.5422 10.168 14.4956 9.87465 16.0111C9.5691 17.5511 10.388 18.7 11.6469 19.4089C12.588 19.9467 13.7002 20.1911 14.2747 20.3867Z" stroke="#979797" stroke-width="0.8" stroke-miterlimit="10" stroke-linecap="round" stroke-linejoin="round"/>
<path d="M29.6031 20.4356C31.4975 20.4478 32.7686 20.0445 33.8197 19.03C35.6897 17.2211 35.2864 14.4467 33.0131 13.4811C31.0086 12.6256 27.7331 13.2611 26.1931 14.8134C24.8975 16.1089 24.9586 17.93 26.3275 19.14C27.3908 20.0811 28.6742 20.4234 29.6031 20.4356Z" stroke="#979797" stroke-width="0.8" stroke-miterlimit="10" stroke-linecap="round" stroke-linejoin="round"/>
</g>
<defs>
<clipPath id="clip0">
<rect width="55" height="55" fill="white"/>
</clipPath>
</defs>
</svg>
