<svg width="55" height="55" viewBox="0 0 55 55" fill="none" xmlns="http://www.w3.org/2000/svg">
<g clip-path="url(#clip0)">
<path d="M38.2559 24.6889C38.1948 24.3589 38.1459 24.0167 38.0359 23.6989C37.3881 21.7433 36.7648 19.7756 36.0803 17.8445C35.4326 16.0111 34.687 14.2145 34.0148 12.3811C33.6115 11.3178 33.1348 10.2911 32.5237 9.32556C32.4992 9.2889 32.487 9.22778 32.487 9.19112C32.4992 9.0689 32.4992 8.94667 32.5237 8.82445C32.6215 8.20112 32.6581 7.57778 32.6092 6.95445C32.597 6.74667 32.5726 6.53889 32.6459 6.33112C32.6581 6.29445 32.6337 6.24556 32.6215 6.20889C32.6092 6.14778 32.5848 6.08667 32.5848 6.03778C32.5848 5.79334 32.6092 5.56112 32.5726 5.31667C32.5359 5.07223 32.4626 4.84001 32.3892 4.60778C32.3648 4.54667 32.3037 4.48556 32.2548 4.43667C32.0103 4.25334 31.7415 4.10667 31.4359 4.03334C31.3015 3.99667 31.1548 3.98445 31.0203 3.94778C30.5192 3.78889 30.0059 3.72778 29.4926 3.70334C28.417 3.66667 27.3415 3.61778 26.2659 3.83778C25.9359 3.89889 25.7037 4.04556 25.5815 4.36334C25.3492 4.95001 25.0437 5.50001 24.8481 6.11112C24.7626 6.36778 24.6403 6.60001 24.5426 6.85667C24.2248 7.67556 24.1392 8.53112 24.2615 9.3989C24.3348 9.90001 24.5426 10.3645 24.7381 10.8289C25.0681 11.5867 25.5081 12.2467 26.1559 12.76C26.5592 13.0778 26.7548 13.4811 26.7181 14.0067C26.6692 14.5444 26.657 15.0945 26.6203 15.6445C26.4859 17.3556 26.3637 19.0667 26.3637 20.7778C26.3637 21.9633 26.2537 23.1489 26.0948 24.3222C25.9603 25.3 25.7159 26.2656 25.4226 27.2067C25.3981 27.2922 25.3737 27.3778 25.2759 27.4267C24.0048 28.1722 22.7215 28.9056 21.377 29.4922C20.6559 29.81 19.8981 30.0422 19.1037 30.0545C18.8592 30.0667 18.6148 30.0545 18.3703 30.0789C18.1015 30.1033 17.8326 30.14 17.5637 30.2133C17.2459 30.2989 17.0381 30.5311 17.0137 30.8733C16.9892 31.1422 16.9892 31.4233 17.0381 31.68C17.1237 32.1933 17.2092 32.7189 17.197 33.2445C17.1726 34.1 17.0259 34.9433 16.8303 35.7745C16.7203 36.2511 16.6959 36.7156 16.7937 37.1922C16.9037 37.7422 17.0381 38.28 17.1359 38.83C17.1848 39.0745 17.3192 39.2456 17.4659 39.4045C17.8815 39.8445 17.9792 38.8056 18.0403 38.5978C18.4315 37.1922 19.177 35.9211 19.9348 34.6989C20.4848 33.8189 20.9615 32.1933 21.9148 31.6922C22.6481 31.3133 24.0781 31.3011 24.8237 30.9467C24.8359 30.9345 24.8603 30.9345 24.897 30.9345C24.897 31.0078 24.9092 31.0811 24.9092 31.1422C24.9337 31.6311 24.9337 32.1078 24.9948 32.5967C25.1659 34.0511 25.3003 35.5056 25.4959 36.9478C25.6915 38.3167 26.2415 39.6367 26.2415 41.0422C26.2415 42.4478 25.8137 43.6089 24.9826 44.8189C24.7503 45.1611 24.7748 45.54 24.9826 45.9067C25.1537 46.2 25.3859 46.4444 25.6303 46.6767C25.8992 46.9211 26.1926 47.1533 26.437 47.4222C27.0115 48.0578 27.427 48.8033 27.757 49.5856C27.867 49.8545 28.0259 50.0622 28.2581 50.2333C28.417 50.3556 28.5759 50.4656 28.747 50.5756C29.1137 50.8322 29.5903 51.2111 30.0426 51.2844C31.0692 51.4678 30.8003 51.0644 30.4703 50.3189C30.1892 49.6956 29.9081 49.0722 29.6515 48.4367C29.4559 47.96 29.3581 47.4589 29.3092 46.9456C29.2359 46.1756 29.1137 45.2956 28.967 44.5011C28.8203 43.67 28.4415 42.8511 28.3803 42.0078C28.2581 40.2233 28.5637 38.4389 28.6248 36.6422C28.6615 35.5667 28.7715 34.5033 28.8326 33.4278C28.9181 32.0833 29.0159 30.7511 29.1992 29.4189C29.2115 29.3089 29.2481 29.26 29.3581 29.2233C29.7981 29.0889 30.2259 28.9422 30.6537 28.7956C32.1326 28.3067 33.6115 27.7933 35.127 27.4389C35.787 27.28 36.4226 27.06 36.9603 26.62C37.327 26.3267 37.7059 26.0456 37.987 25.6667C38.2192 25.3856 38.3292 25.0556 38.2559 24.6889ZM33.5626 23.4545C33.0981 23.5767 31.9492 23.7967 31.4848 23.9311C31.2281 24.0045 30.9837 24.1145 30.727 24.2C30.7026 24.2122 30.6659 24.2245 30.5926 24.2367C30.9837 22.9656 31.3503 21.7311 31.7415 20.46C31.7781 20.5211 31.8026 20.5456 31.827 20.5822L33.8437 22.88C33.9659 23.1489 33.8559 23.3811 33.5626 23.4545Z" stroke="#979797" stroke-miterlimit="10" stroke-linecap="round" stroke-linejoin="round"/>
</g>
<defs>
<clipPath id="clip0">
<rect width="55" height="55" fill="white"/>
</clipPath>
</defs>
</svg>
