<svg width="55" height="55" viewBox="0 0 55 55" fill="none" xmlns="http://www.w3.org/2000/svg">
<g clip-path="url(#clip0)">
<path d="M32.486 13.9211C33.2194 15.51 34.0138 17.0745 34.6738 18.6878C35.2238 20.0445 35.5416 21.4867 35.2971 22.99C35.1016 24.1634 34.466 24.9578 33.3049 25.2634C31.166 25.8256 29.1982 25.1045 27.2305 24.4323C30.066 24.2734 31.5571 22.9167 32.0949 19.6778C32.3516 18.1134 32.5105 16.4878 32.376 14.9234L32.486 13.9211Z" stroke="#979797" stroke-miterlimit="10" stroke-linecap="round" stroke-linejoin="round"/>
<path d="M21.3276 13.2978C20.4965 15.1189 19.6898 16.9644 18.9321 18.8222C18.4187 20.0811 18.1743 21.4255 18.3332 22.8067C18.4921 24.2367 19.311 25.1167 20.7287 25.3611C22.5621 25.6911 24.2854 25.1778 25.9843 24.6155C26.131 24.5667 26.2654 24.4933 26.5343 24.3589C24.0898 24.3467 22.8554 23.5155 22.0243 21.3766C21.2298 19.3478 21.0343 17.2211 21.2054 15.1066C21.2298 14.7644 21.2665 14.4222 21.3154 14.08L21.3276 13.2978Z" stroke="#979797" stroke-miterlimit="10" stroke-linecap="round" stroke-linejoin="round"/>
<path d="M36.0059 36.4466C33.6104 38.5 31.0926 38.6833 28.3304 38.7077H26.6559C23.8937 38.6833 21.3882 38.5 18.9804 36.4466C18.6993 37.2411 18.4548 37.9011 18.2715 38.4388C19.6526 39.1355 21.0093 39.6977 22.2315 40.4677C24.0893 41.6411 26.0204 44.8188 26.4237 47.0555L26.3993 47.19C26.3993 47.2388 26.4359 47.2755 26.4726 47.3244C26.4726 47.3366 26.4726 47.3366 26.4726 47.3489C26.497 47.5933 26.9004 47.6911 27.3526 47.6788C27.4015 47.6788 27.4382 47.6788 27.487 47.6666C27.5359 47.6666 27.5726 47.6788 27.6215 47.6788C28.0615 47.6911 28.477 47.5933 28.5015 47.3489C28.5015 47.3366 28.5015 47.3366 28.5015 47.3244C28.5382 47.2877 28.5626 47.2388 28.5748 47.19L28.5504 47.0555C28.9537 44.8188 30.8848 41.6411 32.7426 40.4677C33.9648 39.6977 35.3215 39.1355 36.7026 38.4388C36.5315 37.9011 36.287 37.2411 36.0059 36.4466Z" stroke="#979797" stroke-miterlimit="10" stroke-linejoin="round"/>
<path d="M32.4875 7.33334H32.3652V14.63H32.4875V7.33334Z" stroke="#979797" stroke-miterlimit="10" stroke-linecap="round" stroke-linejoin="round"/>
<path d="M21.2921 7.33334H21.1699V14.63H21.2921V7.33334Z" stroke="#979797" stroke-miterlimit="10" stroke-linecap="round" stroke-linejoin="round"/>
</g>
<defs>
<clipPath id="clip0">
<rect width="55" height="55" fill="white"/>
</clipPath>
</defs>
</svg>
