<svg width="55" height="55" viewBox="0 0 55 55" fill="none" xmlns="http://www.w3.org/2000/svg">
<g clip-path="url(#clip0)">
<path d="M40.8336 18.8466C40.5769 17.2211 40.2713 15.6077 39.758 14.0311C39.4647 13.1388 38.9147 12.5644 37.9613 12.2466C36.568 11.7822 35.1747 11.3666 33.7447 11.0122C33.6347 10.9877 33.5369 10.9755 33.4758 11.0977C32.8891 12.2955 31.7769 12.9555 30.5302 13.4566C29.6258 13.8233 29.0758 13.9211 28.1102 13.9577L27.4991 16.6588L26.778 13.9211C25.8124 13.8844 25.3724 13.8111 24.468 13.4444C23.2213 12.9433 22.1213 12.2833 21.5224 11.0855C21.4613 10.9633 21.3636 10.9755 21.2536 11C19.8236 11.3544 18.4302 11.77 17.0369 12.2344C16.0836 12.5522 15.5213 13.1266 15.2402 14.0188C14.7269 15.5955 14.4091 17.2088 14.1647 18.8344C13.9813 20.02 13.8224 21.2177 13.6758 22.4033C14.6169 23.6744 18.3324 23.0511 18.3324 23.0511C18.528 21.8288 18.5402 21.8288 18.7358 20.6066C18.7602 20.4477 18.8091 20.2766 18.8458 20.1177C18.858 20.1177 18.8824 20.1177 18.8947 20.1177C18.9313 20.2155 18.968 20.3011 18.9802 20.3988C19.1636 21.3522 19.3836 22.3055 19.518 23.2588C19.7136 24.6888 19.8724 26.1311 20.0069 27.5733C20.1536 29.0644 20.1291 30.5677 20.0313 32.0711C19.9213 33.66 19.7013 35.2366 19.4447 36.8133C19.1758 38.4511 18.8947 40.0766 18.638 41.7144C18.5769 42.0566 18.5769 42.3988 18.5402 42.7411C18.5769 42.7533 18.5891 42.7655 18.6013 42.7655C18.9558 42.8511 19.3102 42.9488 19.6769 43.0344C21.6691 43.4988 23.698 43.7677 25.7391 43.8777C25.8613 43.89 25.9958 43.89 26.118 43.9022V43.9144C26.2036 43.9144 26.2891 43.9266 26.3747 43.9388C26.4847 43.9388 26.5824 43.9388 26.6924 43.9388C27.2302 43.9388 27.768 43.9388 28.318 43.9388C28.428 43.9388 28.5258 43.9388 28.6358 43.9388C28.7213 43.9266 28.8069 43.9144 28.8924 43.9144V43.9022C29.0147 43.89 29.1491 43.89 29.2713 43.8777C31.3247 43.7677 33.3413 43.4988 35.3336 43.0344C35.688 42.9488 36.0425 42.8511 36.4091 42.7655C36.4213 42.7655 36.4458 42.7533 36.4702 42.7411C36.4458 42.3988 36.4336 42.0566 36.3724 41.7144C36.1036 40.0766 35.8347 38.4511 35.5658 36.8133C35.3091 35.2366 35.0891 33.66 34.9791 32.0711C34.8813 30.5677 34.8691 29.0766 35.0036 27.5733C35.138 26.1311 35.2969 24.6888 35.4925 23.2588C35.6269 22.2933 35.8469 21.3522 36.0302 20.3988C36.0547 20.3011 36.0913 20.2033 36.1158 20.1177C36.128 20.1177 36.1524 20.1177 36.1647 20.1177C36.2013 20.2766 36.238 20.4477 36.2747 20.6066C36.4702 21.8288 36.6169 22.66 36.678 23.0511C36.7391 23.4422 40.3936 23.6744 41.3347 22.4033C41.1758 21.23 41.0169 20.0322 40.8336 18.8466Z" stroke="#979797" stroke-miterlimit="10"/>
</g>
<defs>
<clipPath id="clip0">
<rect width="55" height="55" fill="white"/>
</clipPath>
</defs>
</svg>
