<svg width="55" height="55" viewBox="0 0 55 55" fill="none" xmlns="http://www.w3.org/2000/svg">
<g clip-path="url(#clip0)">
<path d="M28.8069 7.55337C30.5547 7.52893 32.5347 7.32115 34.1358 7.12559C33.9769 6.11115 33.8058 5.4267 33.6347 5.54893C33.6347 5.54893 31.0803 6.49004 27.4625 6.25782C23.8447 6.02559 20.9358 5.54893 20.9358 5.54893C20.9358 5.54893 20.6669 5.36559 20.4592 6.3067C20.4225 6.45337 20.3736 6.67337 20.3125 6.93004C22.5981 7.19893 26.3381 7.59004 28.8069 7.55337Z" stroke="#979797" stroke-miterlimit="10"/>
<path d="M34.3195 8.40897C32.5228 8.60452 30.335 8.82452 28.8439 8.88563C26.1795 9.05674 22.2561 8.62897 20.0317 8.33563C19.775 9.8023 19.5795 11.8312 19.8972 13.9823C20.4106 17.5023 21.6083 23.1123 21.865 25.6423C22.1217 28.1723 22.2683 29.5779 22.2928 30.4823C22.3295 31.3867 22.5861 35.6279 22.5861 35.6279C22.5861 35.6279 22.9772 45.6867 23.0017 46.6279C23.0383 47.569 22.8917 48.779 23.1972 49.1212C23.4906 49.4634 23.845 49.4634 25.2628 49.4634C26.6806 49.4634 27.3406 49.3167 27.4628 48.2412C27.585 47.1656 27.1817 38.4634 27.1083 37.3512C27.035 36.239 26.8395 30.299 26.9128 28.8323C26.9739 27.6956 26.9739 26.559 26.9983 25.4223C27.035 23.6867 27.0595 21.9512 27.0961 20.2156C27.1083 19.0667 27.1695 17.9301 27.145 16.7812C27.1328 16.3045 27.0717 15.8156 27.1206 15.339C27.145 15.0823 27.1817 14.8256 27.2795 14.5934C27.3772 14.349 27.7072 13.9823 27.7806 14.4467C27.915 15.1679 28.355 18.1623 28.355 18.1623C28.355 18.1623 29.455 24.139 29.5161 24.7012C29.5772 25.2634 29.7606 29.3456 29.7606 30.8612C29.7606 32.3767 29.8583 44.7701 29.8583 44.7701L29.8339 48.3023C29.8339 48.3023 29.7117 49.4512 31.2517 49.4023C32.7795 49.3534 33.305 49.3045 33.305 49.3045C33.305 49.3045 34.1483 49.0234 34.2461 48.229C34.3439 47.4223 34.4661 37.9012 34.4661 37.9012C34.4661 37.9012 34.8572 27.1701 35.0406 24.5667C35.4683 21.0223 35.2606 15.3267 34.8083 12.9067C34.7106 12.0756 34.5395 10.1079 34.3195 8.40897Z" stroke="#979797" stroke-miterlimit="10"/>
</g>
<defs>
<clipPath id="clip0">
<rect width="55" height="55" fill="white"/>
</clipPath>
</defs>
</svg>
