<svg width="55" height="55" viewBox="0 0 55 55" fill="none" xmlns="http://www.w3.org/2000/svg">
<g clip-path="url(#clip0)">
<path d="M33.5495 15.3389C33.5495 15.3389 31.4839 15.6933 28.1839 15.7789C25.605 15.9255 21.9139 15.3389 21.9139 15.3389C21.9139 15.3389 21.3517 15.2533 21.095 15.73C20.9728 15.9622 19.8606 17.2455 19.1272 18.9322C18.345 20.7289 17.9172 22.9777 17.5995 24.6155C16.9884 27.8055 15.0572 32.5477 14.3361 34.1366C13.6028 35.7133 12.9672 37.0822 12.9672 37.0822C12.9672 37.0822 12.7106 37.7422 13.615 38.0111C14.5195 38.28 17.0372 38.0111 17.0372 38.0111L16.5239 40.1255C16.5239 40.1255 16.6584 41.0055 17.5506 41.2622C18.455 41.5311 19.9095 42.0566 22.1339 41.7022C24.3584 41.3477 24.2728 41.1889 25.3484 41.8244C26.4239 42.46 27.1939 43.2911 29.1128 42.3622C31.0439 41.4333 30.8728 41.3111 32.9628 41.7022C35.065 42.0933 37.375 42.0566 38.4872 40.3455L38.0961 38.06C38.0961 38.06 40.1495 38.94 41.995 37.4855C41.995 37.4855 42.3372 37.5344 41.6895 36.1655C41.0417 34.8089 37.925 26.1066 37.5339 25.1411C37.1428 24.1755 35.2117 16.83 33.5495 15.3389Z" stroke="#979797" stroke-miterlimit="10"/>
<path d="M33.0598 13.7744C32.3754 13.8844 30.1632 14.3366 27.7798 14.2755C25.4087 14.2144 21.5098 13.7377 21.5098 13.7377C21.5098 13.7377 21.3998 13.3222 21.5098 12.6744C21.5832 12.21 21.8643 12.2711 21.8643 12.2711C21.8643 12.2711 26.2887 12.7966 27.9021 12.7477C29.5154 12.7111 32.7176 12.2222 33.1332 12.21C33.5121 12.1611 33.8543 13.6033 33.0598 13.7744Z" stroke="#979797" stroke-miterlimit="10"/>
</g>
<defs>
<clipPath id="clip0">
<rect width="55" height="55" fill="white"/>
</clipPath>
</defs>
</svg>
