<svg width="55" height="55" viewBox="0 0 55 55" fill="none" xmlns="http://www.w3.org/2000/svg">
<g clip-path="url(#clip0)">
<path d="M32.3763 22.6722C32.3763 22.3667 32.3885 19.0056 32.7674 17.2456C32.9141 17.0256 33.0974 16.9522 33.3296 17.0867C34.5029 18.0278 35.6274 32.0711 35.6274 32.0711H38.5852C38.5852 32.0711 37.5829 17.6367 37.4118 15.3511C37.2529 13.0656 35.7496 8.17666 35.5296 7.76111C35.3218 7.34555 34.4907 7.40666 34.4907 7.40666L30.5307 6.08666C30.5307 6.08666 30.3596 5.57333 29.993 5.26777C29.7607 5.07222 28.4896 4.96222 27.7807 4.91333C29.6507 5.29222 30.0663 8.58 30.0541 10.0833C30.0541 10.2911 30.0418 10.5111 30.0296 10.7189C29.9807 11.6967 29.8218 12.65 29.5041 13.5911C29.1985 14.5322 28.1352 18.0644 27.4996 18.0522C27.4018 17.8322 24.9452 12.8333 25.0429 9.80222C25.0918 8.06666 25.2507 5.09666 27.4996 4.88889C27.5241 4.88889 25.3118 5.02333 25.0063 5.28C24.6274 5.58555 24.4685 6.09889 24.4685 6.09889L20.5085 7.41889C20.5085 7.41889 19.6774 7.35777 19.4696 7.77333C19.2618 8.18889 17.7585 13.0656 17.5874 15.3633C17.4285 17.6489 16.4141 32.0833 16.4141 32.0833H19.3718C19.3718 32.0833 20.4841 18.04 21.6696 17.0989C21.9018 16.9644 22.0852 17.0378 22.2318 17.2578C22.6352 19.1033 22.623 22.7089 22.623 22.7089L24.163 23.0267L23.8818 23.5644L22.4396 23.2833C21.963 24.7011 20.7529 28.38 20.6307 29.1744C20.4718 30.1522 20.3863 31.3011 20.3863 31.3011C20.3863 31.3011 25.7641 31.68 27.2307 27.3533C27.3407 26.9989 27.4385 26.6322 27.5118 26.2533C27.5852 26.6322 27.6829 26.9989 27.7929 27.3533C29.2474 31.68 34.6374 31.3011 34.6374 31.3011C34.6374 31.3011 34.7107 30.3844 34.3929 29.1744C34.1363 28.2089 33.0118 24.6644 32.5718 23.2833L31.0685 23.5767L30.7874 23.0389L32.3274 22.7211L32.3763 22.6722Z" stroke="#979797" stroke-miterlimit="10" stroke-linecap="round" stroke-linejoin="round"/>
<path d="M27.7072 29.3699H27.2916C26.5339 30.5188 24.5783 32.6455 20.7039 32.2299C20.7039 32.2299 20.1661 35.8355 20.7039 39.5266C21.0216 41.6655 21.1561 41.7877 21.2905 43.9388C21.4127 45.8822 21.7061 46.7255 21.535 48.681C21.5105 49.1333 24.3094 50.111 28.2205 50.111C32.1316 50.111 33.5005 49.1333 33.4639 48.681C33.2805 46.6522 33.6105 45.6255 33.7327 43.6088C33.9039 40.9444 34.3439 40.3455 34.4905 37.6688C34.515 37.2777 34.5027 32.2055 34.295 32.2299C30.4205 32.6333 28.465 30.5188 27.7072 29.3699Z" stroke="#979797" stroke-miterlimit="10"/>
<path d="M24.4682 6.09894L23.5149 7.79783L21.7305 8.31116C21.7305 8.31116 24.8349 17.2212 27.4994 18.0645V26.2167" stroke="#979797" stroke-miterlimit="10"/>
<path d="M30.5316 6.09894L31.4849 7.79783L33.2572 8.31116C33.2572 8.31116 30.1527 17.2212 27.4883 18.0645" stroke="#979797" stroke-miterlimit="10"/>
</g>
<defs>
<clipPath id="clip0">
<rect width="55" height="55" fill="white"/>
</clipPath>
</defs>
</svg>
