<svg width="55" height="55" viewBox="0 0 55 55" fill="none" xmlns="http://www.w3.org/2000/svg">
<g clip-path="url(#clip0)">
<path d="M21.8528 45.76C21.6328 47.0923 21.4617 48.4245 21.6206 49.7567C21.755 50.8934 21.9383 52.03 22.1094 53.1667H24.0406C24.1139 52.5067 24.2483 51.8589 24.3583 51.1989C24.5783 49.83 24.8228 48.4489 24.835 47.0678C24.835 46.3834 24.7617 45.65 24.9083 44.9778C25.1405 43.9267 25.1161 42.9245 25.2383 41.8734C25.5561 39.0623 26.7294 36.0434 27.0717 32.6945C27.1206 32.1689 27.2306 31.1667 27.9394 31.0445C28.6239 31.1667 28.5017 31.9612 28.6239 32.4623C28.905 34.2589 29.235 35.2489 29.565 36.5078C30.1028 38.5123 30.6772 40.5045 31.2883 42.4845C31.4961 43.1445 31.7039 43.8045 31.9239 44.4645C32.1439 45.1367 32.1194 45.7356 32.1439 46.4445C32.1683 47.2145 32.2783 47.9967 32.4617 48.73C32.7183 49.7078 33.0483 50.6734 33.3294 51.6389C33.4517 52.0912 33.5617 52.5434 33.6717 52.9956L35.7128 53.1667C35.8105 51.7856 35.7861 50.4167 35.7005 49.0356C35.6394 48.0945 35.6394 47.1656 35.3583 46.2367C35.1628 45.5767 34.9183 44.9167 34.7717 44.2445C34.4661 42.7778 34.4172 41.2989 34.405 39.82C34.3928 38.5245 34.405 37.2167 34.3683 35.9212C34.3317 34.4667 34.2217 33 33.9528 31.57C33.6961 30.1889 33.1583 28.8934 32.8772 27.5245C32.8528 27.3778 32.7428 27.2923 32.5717 27.2923C32.2906 27.28 30.1883 26.84 28.0494 26.8278C25.8739 26.8034 23.6617 27.2189 23.1361 27.2312C22.855 27.2434 22.6839 27.3167 22.5861 27.5612C22.0972 28.7223 22.305 30.3356 21.9994 31.5945C21.315 34.5156 21.425 37.4367 21.9383 40.37C22.2439 42.1667 22.1461 43.9756 21.8528 45.76Z" stroke="#979797" stroke-miterlimit="10" stroke-linecap="round" stroke-linejoin="round"/>
<path d="M17.88 29.0522C17.2322 28.9666 16.7677 28.6489 16.9511 29.15C17.0366 29.37 17.0977 29.6144 17.0611 29.92C17.0122 30.2255 16.6333 30.7755 16.8411 30.8611C17.0489 30.9466 17.7822 31.0444 18.1611 30.9955C18.54 30.9589 18.7844 30.7633 18.6377 30.5678C18.4911 30.3722 18.6866 29.81 18.7844 29.6633C18.8333 29.59 19.2244 29.1866 19.0777 29.0644C18.9189 28.9422 18.5033 29.1378 17.88 29.0522Z" stroke="#979797" stroke-miterlimit="10" stroke-linecap="round" stroke-linejoin="round"/>
<path d="M27.3274 1.87002C21.0451 4.49779 25.4818 9.69224 25.2496 10.9634C25.0907 11.7945 23.6851 12.1245 23.0007 12.43C21.8762 12.9311 21.3874 13.6889 20.7396 14.6667C18.3196 18.37 16.1196 27.5367 16.9629 28.3067C17.4151 28.4778 18.5274 28.7222 19.2362 28.4167C19.9574 28.0989 20.104 25.6911 20.214 25.0556C20.3485 24.3345 21.0574 17.8567 22.5729 18.3945C23.624 18.7734 23.5751 20.3745 23.5018 21.2667C23.3918 22.8311 22.5362 25.8745 22.5362 26.1189C22.5362 26.2656 23.7829 25.9722 23.8929 25.96C25.3474 25.7522 26.8874 25.6789 28.3785 25.7522C29.1485 25.7889 29.9062 25.8622 30.664 25.9722C31.2629 26.0578 32.094 26.3634 32.6685 26.0578C32.9007 25.9356 32.5462 25.0311 32.4851 24.86C32.314 24.3222 32.1185 23.7967 31.9474 23.2711C31.8129 22.88 31.6907 22.4889 31.6174 22.0734C31.4462 21.0711 31.1162 18.8589 32.3996 18.3945C34.3551 17.6978 34.624 27.2067 35.7362 27.6956C36.4451 28.0011 37.5574 27.7567 38.0096 27.5856C38.8407 26.8156 36.6529 18.37 34.2329 14.6667C33.5851 13.6889 33.0962 12.9311 31.9718 12.43C31.2874 12.1245 29.8696 11.7945 29.7229 10.9634C29.4907 9.69224 33.9274 4.49779 27.6451 1.87002C27.4985 1.79668 27.364 1.85779 27.3274 1.87002Z" stroke="#979797" stroke-miterlimit="10" stroke-linecap="round" stroke-linejoin="round"/>
<path d="M37.0449 28.3434C37.6927 28.2578 38.1572 27.9401 37.9738 28.4412C37.8883 28.6612 37.8272 28.9056 37.8638 29.2112C37.9127 29.5167 38.2916 30.0667 38.0838 30.1523C37.8761 30.2378 37.1427 30.3356 36.7638 30.2867C36.3849 30.2501 36.1405 30.0545 36.2872 29.859C36.4338 29.6634 36.2383 29.1012 36.1405 28.9545C36.0916 28.8812 35.7005 28.4778 35.8472 28.3556C36.0183 28.2334 36.4338 28.429 37.0449 28.3434Z" stroke="#979797" stroke-miterlimit="10" stroke-linecap="round" stroke-linejoin="round"/>
<path d="M27.4996 2.99451C27.4996 2.99451 26.2285 3.66673 25.8985 5.01117C25.5685 6.35562 25.3852 7.8834 26.4119 9.4234C27.4508 10.9512 27.4508 10.9512 27.4508 10.9512C27.4508 10.9512 29.2108 9.4234 29.333 7.65117C29.4674 5.87895 28.9663 3.86228 27.4996 2.99451Z" stroke="#979797" stroke-miterlimit="10" stroke-linecap="round" stroke-linejoin="round"/>
<path d="M27.4629 10.9634L27.7807 25.5445" stroke="#979797" stroke-miterlimit="10" stroke-linecap="round" stroke-linejoin="round"/>
</g>
<defs>
<clipPath id="clip0">
<rect width="55" height="55" fill="white"/>
</clipPath>
</defs>
</svg>
