<svg width="138" height="20" viewBox="0 0 138 20" fill="none" xmlns="http://www.w3.org/2000/svg">
<g clip-path="url(#clip0)">
<path d="M14.626 16.8629L16.749 4.3999H20.146L18.021 16.8629H14.626Z" fill="#565655"/>
<path d="M30.3409 4.70708C29.6679 4.45508 28.6129 4.18408 27.2959 4.18408C23.9409 4.18408 21.5749 5.87308 21.5559 8.29508C21.5359 10.0881 23.2439 11.0881 24.5329 11.6841C25.8549 12.2931 26.2989 12.6841 26.2929 13.2291C26.2849 14.0651 25.2379 14.4461 24.2619 14.4461C22.9019 14.4461 22.1799 14.2571 21.0649 13.7941L20.6269 13.5931L20.1489 16.3841C20.9439 16.7321 22.4109 17.0341 23.9339 17.0481C27.5039 17.0481 29.8229 15.3781 29.8479 12.7921C29.8619 11.3721 28.9559 10.2941 26.9959 9.40308C25.8079 8.82908 25.0819 8.44208 25.0899 7.86008C25.0899 7.34208 25.7049 6.78808 27.0349 6.78808C28.1449 6.77008 28.9499 7.01308 29.5779 7.26708L29.8819 7.41208L30.3409 4.70708Z" fill="#565655"/>
<path d="M39.052 4.41211H36.427C35.614 4.41211 35.005 4.63511 34.65 5.44711L29.604 16.8651H33.171C33.171 16.8651 33.754 15.3321 33.886 14.9941C34.276 14.9941 37.74 15.0001 38.236 15.0001C38.338 15.4361 38.65 16.8651 38.65 16.8651H41.8L39.052 4.41211ZM34.863 12.4451C35.143 11.7261 36.216 8.96111 36.216 8.96111C36.196 8.99411 36.495 8.24011 36.667 7.77211L36.896 8.84611C36.896 8.84611 37.548 11.8211 37.683 12.4461H34.863V12.4451Z" fill="#565655"/>
<path d="M11.776 4.41016L8.45097 12.9082L8.09697 11.1812C7.47797 9.19116 5.54797 7.03116 3.39197 5.95216L6.43297 16.8502L10.027 16.8462L15.374 4.41016H11.776Z" fill="#565655"/>
<path d="M5.36499 4.3999H-0.113006L-0.156006 4.6599C4.10599 5.6909 6.92499 8.1849 8.09599 11.1809L6.90499 5.4549C6.69999 4.6659 6.10399 4.4299 5.36499 4.3999Z" fill="#B1B2B3"/>
<path d="M64.167 10.0332C64.167 7.0132 65.579 4.3242 67.774 2.5862C66.155 1.3032 64.108 0.533203 61.881 0.533203C56.633 0.533203 52.381 4.7872 52.381 10.0332C52.381 15.2812 56.633 19.5332 61.881 19.5332C64.108 19.5332 66.154 18.7672 67.774 17.4822C65.579 15.7422 64.167 13.0552 64.167 10.0332Z" fill="#868786"/>
<path d="M64.167 10.0334C64.167 13.0544 65.579 15.7424 67.774 17.4824C69.971 15.7424 71.381 13.0544 71.381 10.0334C71.381 7.01343 69.971 4.32443 67.774 2.58643C65.579 4.32443 64.167 7.01443 64.167 10.0334Z" fill="#B1B2B3"/>
<path d="M73.6669 0.533203C71.4399 0.533203 69.3939 1.3032 67.7739 2.5862C69.9709 4.3242 71.3809 7.0142 71.3809 10.0332C71.3809 13.0542 69.9709 15.7422 67.7739 17.4822C69.3929 18.7672 71.4399 19.5332 73.6669 19.5332C78.9149 19.5332 83.1669 15.2812 83.1669 10.0332C83.1669 4.7872 78.9149 0.533203 73.6669 0.533203Z" fill="#D9DADA"/>
<path d="M118.412 5.82844L115.647 11.8164H115.367V4.52344H111.438V16.8654H114.772C115.647 16.8654 116.442 16.3554 116.809 15.5624L119.575 9.57244H119.854V16.8654H123.782V4.52344H120.45C119.574 4.52344 118.778 5.03344 118.412 5.82844Z" fill="#6E6E6E"/>
<path d="M103.679 6.14644L102.042 11.8164H101.763L100.127 6.14644C99.849 5.18344 98.97 4.52344 97.971 4.52344H94.048V16.8654H97.975V9.57244H98.255L100.501 16.8654H103.305L105.55 9.57244H105.829V16.8654H109.757V4.52344H105.834C104.835 4.52344 103.956 5.18444 103.679 6.14644Z" fill="#6E6E6E"/>
<path d="M125.466 10.1353V16.8653H129.384V12.9393H133.601C135.431 12.9393 136.985 11.7673 137.564 10.1343H125.466V10.1353Z" fill="#6E6E6E"/>
<path d="M137.806 4.52344H124.903V9.57244H137.806V4.52344Z" fill="#B1B2B3"/>
</g>
<defs>
<clipPath id="clip0">
<rect width="138" height="20" fill="white"/>
</clipPath>
</defs>
</svg>
