<?xml version="1.0" encoding="utf-8"?>
<!-- Generator: Adobe Illustrator 24.2.0, SVG Export Plug-In . SVG Version: 6.00 Build 0)  -->
<svg version="1.1" id="Layer_1" xmlns="http://www.w3.org/2000/svg" xmlns:xlink="http://www.w3.org/1999/xlink" x="0px" y="0px"
	 viewBox="0 0 30 30" style="enable-background:new 0 0 30 30;" xml:space="preserve">
<style type="text/css">
	.st0{fill:url(#SVGID_1_);}
	.st1{fill:none;stroke:#FFFFFF;stroke-miterlimit:10;}
	.st2{fill:#FFFFFF;}
</style>
<g>
	<radialGradient id="SVGID_1_" cx="8.7061" cy="29.9258" r="30.3062" gradientUnits="userSpaceOnUse">
		<stop  offset="0" style="stop-color:#FFD776"/>
		<stop  offset="0.2463" style="stop-color:#F3A554"/>
		<stop  offset="0.3793" style="stop-color:#F15C3C"/>
		<stop  offset="0.5394" style="stop-color:#D94867"/>
		<stop  offset="0.6995" style="stop-color:#C32F87"/>
		<stop  offset="0.9122" style="stop-color:#7D63A7"/>
		<stop  offset="0.9852" style="stop-color:#5C6CB3"/>
	</radialGradient>
	<path class="st0" d="M23.5,0H22H6.5C6.4,0,6.3,0,6.2,0v0H0v6.3h0c0,0.1,0,0.2,0,0.3v15.3v1.6V30h6.5h1.6h13.8h1.5H30v-6.6v-1.5v-15
		V6.6V0H23.5z"/>
	<g>
		<path class="st1" d="M21.3,18c0,1.9-1.6,3.5-3.5,3.5h-5.6c-1.9,0-3.5-1.6-3.5-3.5v-6c0-1.9,1.6-3.5,3.5-3.5h5.6
			c1.9,0,3.5,1.6,3.5,3.5V18z"/>
		<path class="st1" d="M18.1,15c0,1.7-1.4,3.1-3.1,3.1s-3.1-1.4-3.1-3.1s1.4-3.1,3.1-3.1C17.1,11.9,18.1,13.3,18.1,15z"/>
		<circle class="st2" cx="18.8" cy="11.1" r="0.9"/>
	</g>
</g>
</svg>
