<svg width="130" height="26" viewBox="0 0 130 26" fill="none" xmlns="http://www.w3.org/2000/svg">
<g clip-path="url(#clip0)">
<path d="M58.9479 7.72285C57.6353 6.39342 55.9018 5.66274 54.0481 5.66274C52.2144 5.66274 50.481 6.38327 49.1784 7.68225C49.008 7.83448 48.3667 8.44338 47.505 9.47851V5.78452H44.2084V13.3247C44.2084 13.3247 44.2184 16.5823 41.0521 16.6331C41.0521 16.6331 38.0762 16.7143 38.016 13.0304V5.78452H34.7495V10.6456C34.4289 9.57999 33.8577 8.57531 33.0261 7.73299C31.7134 6.40356 29.98 5.67288 28.1263 5.67288C26.2926 5.67288 24.5591 6.39342 23.2565 7.6924C23.0561 7.87507 22.2445 8.6362 21.1824 9.97578C20.6413 8.3216 19.4489 6.97187 17.9058 6.25134C17.8056 6.21075 17.7154 6.16 17.6152 6.11941C17.6052 6.11941 17.5952 6.10926 17.5952 6.10926C17.505 6.06867 17.4148 6.03822 17.3246 6.00778C17.3146 5.99763 17.2946 5.99763 17.2846 5.98748C17.1944 5.95704 17.1142 5.92659 17.024 5.9063C17.004 5.89615 16.984 5.89615 16.9639 5.886C16.8838 5.8657 16.8036 5.84541 16.7234 5.82511C16.6934 5.81496 16.6733 5.81496 16.6433 5.80481C16.5631 5.78452 16.483 5.77437 16.4128 5.75407C16.3828 5.74392 16.3527 5.74392 16.3226 5.73377C16.2425 5.72363 16.1723 5.71348 16.0922 5.70333C16.0621 5.70333 16.022 5.69318 15.992 5.69318C15.9118 5.68303 15.8317 5.68303 15.7515 5.67288C15.7214 5.67288 15.6914 5.66274 15.6613 5.66274C15.5511 5.65259 15.4409 5.65259 15.3307 5.65259C15.2204 5.65259 15.1102 5.65259 15 5.66274C14.9699 5.66274 14.9399 5.67288 14.9098 5.67288C14.8297 5.68303 14.7495 5.68303 14.6693 5.69318C14.6393 5.69318 14.5992 5.70333 14.5691 5.70333C14.489 5.71348 14.4188 5.72363 14.3387 5.73377C14.3086 5.74392 14.2786 5.74392 14.2485 5.75407C14.1683 5.76422 14.0882 5.78452 14.018 5.80481C13.988 5.81496 13.9679 5.81496 13.9379 5.82511C13.8577 5.84541 13.7776 5.8657 13.6974 5.886C13.6774 5.89615 13.6573 5.89615 13.6373 5.9063C13.5471 5.93674 13.4669 5.95704 13.3768 5.98748C13.3667 5.99763 13.3467 5.99763 13.3367 6.00778C13.2465 6.03822 13.1563 6.07882 13.0661 6.10926C13.0561 6.10926 13.0461 6.11941 13.0461 6.11941C12.9459 6.16 12.8457 6.2006 12.7555 6.25134C12.024 6.59638 11.3627 7.0835 10.8216 7.68225C9.61924 6.44416 7.99599 5.67288 6.20241 5.67288C2.78557 5.67288 0 8.48397 0 11.9547V19.5862H3.30661V11.9547C3.30661 10.3411 4.60922 9.02183 6.20241 9.02183C7.79559 9.02183 9.0982 10.3411 9.0982 11.9547V19.5862H12.4048V11.9547C12.4048 10.6253 13.2866 9.4988 14.489 9.14361C14.6192 9.10302 14.7495 9.07257 14.8798 9.05228H14.8898C14.9499 9.04213 15 9.04213 15.0601 9.03198C15.0701 9.03198 15.0902 9.03198 15.1002 9.03198C15.1603 9.03198 15.2305 9.02183 15.2906 9.02183C15.3507 9.02183 15.4208 9.02183 15.481 9.03198C15.491 9.03198 15.511 9.03198 15.521 9.03198C15.5812 9.03198 15.6413 9.04213 15.6914 9.05228H15.7014C15.8317 9.07257 15.9719 9.10302 16.0922 9.14361C17.2946 9.4988 18.1764 10.6253 18.1764 11.9547V14.6034V16.1054V19.5862H21.483V14.8673C23.3768 11.6604 25.2405 9.97577 25.2605 9.95548L25.3307 9.88444C26.8637 8.33175 29.3487 8.33175 30.8818 9.88444C32.4148 11.4371 32.4148 13.9539 30.8818 15.5066C30.1403 16.2576 29.1583 16.6737 28.1062 16.6737C27.0942 16.6737 26.1423 16.288 25.4108 15.5878L23.477 17.9219L23.7976 18.1959C25.02 19.1803 26.523 19.7182 28.1062 19.7182C29.9599 19.7182 31.6934 18.9875 33.006 17.6581C33.8377 16.8157 34.4188 15.8111 34.7295 14.7353C34.7595 15.5371 35.1703 19.7588 40.9018 19.7182C40.9018 19.7182 42.986 19.7689 44.1884 18.5308V18.9266C44.1884 19.9414 44.0982 21.0273 43.3267 21.7986C42.5852 22.5496 41.6032 22.9656 40.5511 22.9656C39.5391 22.9656 38.5872 22.58 37.8557 21.8798L35.9218 24.224L36.2425 24.498C37.4649 25.4824 38.9679 26.0203 40.5511 26.0203C42.4048 26.0203 44.1383 25.2896 45.4509 23.9602C46.7736 22.6206 47.4549 20.8548 47.475 19.089V14.7252C49.3387 11.6198 51.1423 9.97577 51.1623 9.95548L51.2325 9.88444C52.7655 8.33175 55.2505 8.33175 56.7836 9.88444C58.3166 11.4371 58.3166 13.9539 56.7836 15.5066C56.0421 16.2576 55.0601 16.6737 54.008 16.6737C52.996 16.6737 52.0441 16.288 51.3126 15.5878L49.3788 17.9321L49.6994 18.2061C50.9218 19.1905 52.4249 19.7283 54.008 19.7283C55.8617 19.7283 57.5952 18.9976 58.9078 17.6682C61.6433 14.918 61.6433 10.4629 58.9479 7.72285Z" fill="#079977"/>
<path d="M64.5376 9.81016V18.9447H63.4917V6.13129H64.5475V8.1985V8.44665L64.6849 8.24004C65.6099 6.84965 67.3556 5.80095 69.4755 5.80095C70.5524 5.80095 71.4287 6.029 72.1075 6.48037C72.7854 6.9312 73.2729 7.60921 73.5651 8.52168L73.6148 8.67685L73.7003 8.5382C74.6752 6.95844 76.5291 5.80095 78.786 5.80095C80.2173 5.80095 81.3289 6.25799 82.0839 7.11806C82.8402 7.97963 83.2476 9.25591 83.2476 10.9113V18.9347H82.1819V11.1616C82.1819 9.33261 81.6669 8.04642 80.8029 7.51449C79.9613 6.96675 79.3247 6.79213 78.4796 6.79213C77.5234 6.79213 76.6189 7.09831 75.7578 7.7068L75.7571 7.70729C74.9184 8.31407 74.267 9.05403 73.8556 9.90774L73.8474 9.9248L73.8482 9.94371C73.8779 10.5953 73.8976 11.0536 73.8976 11.3017V18.9447H72.8418V11.1415C72.8418 9.7063 72.5387 8.61961 71.9221 7.89103C71.3035 7.16005 70.3801 6.80214 69.169 6.80214C68.2634 6.80214 67.3695 7.07758 66.4985 7.65551L66.4985 7.65551L66.4975 7.6562C65.6588 8.2326 65.0077 8.92184 64.5466 9.77449L64.5376 9.79119V9.81016Z" fill="#666666" stroke="#666666" stroke-width="0.15"/>
<path d="M96.9675 17.3062L96.9673 17.3064C95.7278 18.621 94.1374 19.2649 92.1392 19.2649C90.1409 19.2649 88.5306 18.6209 87.2813 17.3062C86.0301 15.9894 85.4241 14.4066 85.4241 12.5529C85.4241 10.6992 86.0301 9.11631 87.2813 7.79958C88.5312 6.48427 90.1418 5.81084 92.1392 5.81084C94.1363 5.81084 95.7174 6.48403 96.9675 7.79958C98.2193 9.11692 98.8544 10.7 98.8544 12.5529C98.8544 14.4057 98.2193 15.9888 96.9675 17.3062ZM88.1126 8.45601L88.1126 8.456L88.1118 8.45675C87.0501 9.56254 86.5095 10.9328 86.5095 12.5529C86.5095 14.1727 87.05 15.5532 88.1121 16.6492L88.1133 16.6505C89.205 17.7257 90.5386 18.2737 92.1392 18.2737C93.7397 18.2737 95.0738 17.7258 96.1362 16.6497C97.2283 15.5437 97.7689 14.173 97.7689 12.5529C97.7689 10.9332 97.2286 9.55242 96.1365 8.45627C95.0739 7.34988 93.7396 6.80202 92.1392 6.80202C90.5384 6.80202 89.2045 7.35014 88.1126 8.45601Z" fill="#666666" stroke="#666666" stroke-width="0.15"/>
<path d="M112.014 8.41238L112.15 8.60166V8.36863V0.075H113.205V18.9346H112.15V16.7273V16.4964L112.014 16.6832C110.764 18.4043 109.047 19.2549 106.787 19.2549L106.786 19.2549C104.868 19.2648 103.308 18.6215 102.118 17.3076C100.925 15.9908 100.338 14.4074 100.338 12.5529C100.338 10.6985 100.925 9.11508 102.118 7.79834C103.308 6.48377 104.869 5.81091 106.787 5.81091C109.018 5.81091 110.763 6.67137 112.014 8.41238ZM112.133 15.0259L112.14 15.0113V14.9955V10.1104V10.094L112.133 10.0791C111.261 8.18098 109.198 6.80209 106.994 6.80209C105.394 6.80209 104.059 7.35012 102.997 8.45683C101.934 9.56333 101.424 10.934 101.424 12.5529C101.424 14.172 101.944 15.5526 102.997 16.6491L102.997 16.6498C104.06 17.7259 105.394 18.2738 106.994 18.2738C109.257 18.2738 111.291 16.9257 112.133 15.0259Z" fill="#666666" stroke="#666666" stroke-width="0.15"/>
<path d="M121.177 6.79213C119.673 6.79213 118.254 7.23201 116.903 8.10919V7.04796C118.168 6.23021 119.674 5.80095 121.385 5.80095C123.035 5.80095 124.404 6.19147 125.36 6.96424C126.314 7.73511 126.864 8.89353 126.864 10.4508V16.2168C126.864 16.7833 127 17.2636 127.254 17.6042C127.508 17.9469 127.879 18.1437 128.333 18.1437C128.591 18.1437 128.809 18.1068 129.009 18.0251V18.8657C128.788 18.984 128.46 19.0548 128.037 19.0548C127.475 19.0548 126.971 18.8704 126.594 18.5088C126.216 18.1473 125.961 17.6028 125.907 16.872L125.894 16.6876L125.775 16.8293C124.397 18.4727 122.59 19.2749 120.337 19.275C119.029 19.2651 117.898 18.8897 116.913 18.1691C115.965 17.4237 115.49 16.4153 115.49 15.1056C115.49 13.8475 115.993 12.8384 116.963 12.0919L116.963 12.0917C117.966 11.3131 119.213 10.9362 120.723 10.9362C122.508 10.9362 124.184 11.3931 125.694 12.3363L125.809 12.408V12.2727V10.5609C125.809 9.29168 125.387 8.34429 124.588 7.71659C123.792 7.0914 122.634 6.79213 121.177 6.79213ZM125.804 15.6609L125.819 15.6409V15.6162V13.4739V13.4334L125.785 13.4112C124.243 12.4037 122.677 11.8774 121.049 11.8774C119.684 11.8774 118.575 12.1925 117.805 12.7513C117.032 13.3117 116.605 14.1147 116.605 15.0756C116.605 16.1459 117.059 16.9494 117.803 17.4827C118.543 18.0139 119.566 18.2738 120.703 18.2738C122.875 18.2738 124.744 17.0883 125.804 15.6609Z" fill="#666666" stroke="#666666" stroke-width="0.15"/>
</g>
<defs>
<clipPath id="clip0">
<rect width="130" height="26" fill="white"/>
</clipPath>
</defs>
</svg>
