<svg width="130" height="26" viewBox="0 0 130 26" fill="none" xmlns="http://www.w3.org/2000/svg">
<g clip-path="url(#clip0)">
<path d="M58.9479 7.7226C57.6353 6.39317 55.9018 5.66249 54.0481 5.66249C52.2144 5.66249 50.481 6.38302 49.1784 7.68201C49.008 7.83423 48.3667 8.44313 47.505 9.47826V5.78427H44.2084V13.3245C44.2084 13.3245 44.2184 16.5821 41.0521 16.6328C41.0521 16.6328 38.0762 16.714 38.016 13.0302V5.78427H34.7495V10.6453C34.4289 9.57975 33.8577 8.57506 33.0261 7.73275C31.7134 6.40332 29.98 5.67264 28.1263 5.67264C26.2926 5.67264 24.5591 6.39317 23.2565 7.69216C23.0561 7.87483 22.2445 8.63595 21.1824 9.97553C20.6413 8.32135 19.4489 6.97163 17.9058 6.25109C17.8056 6.2105 17.7154 6.15976 17.6152 6.11917C17.6052 6.11917 17.5952 6.10902 17.5952 6.10902C17.505 6.06843 17.4148 6.03798 17.3246 6.00754C17.3146 5.99739 17.2946 5.99739 17.2846 5.98724C17.1944 5.95679 17.1142 5.92635 17.024 5.90605C17.004 5.8959 16.984 5.8959 16.9639 5.88576C16.8838 5.86546 16.8036 5.84516 16.7234 5.82487C16.6934 5.81472 16.6733 5.81472 16.6433 5.80457C16.5631 5.78427 16.483 5.77412 16.4128 5.75383C16.3828 5.74368 16.3527 5.74368 16.3226 5.73353C16.2425 5.72338 16.1723 5.71323 16.0922 5.70309C16.0621 5.70309 16.022 5.69294 15.992 5.69294C15.9118 5.68279 15.8317 5.68279 15.7515 5.67264C15.7214 5.67264 15.6914 5.66249 15.6613 5.66249C15.5511 5.65234 15.4409 5.65234 15.3307 5.65234C15.2204 5.65234 15.1102 5.65234 15 5.66249C14.9699 5.66249 14.9399 5.67264 14.9098 5.67264C14.8297 5.68279 14.7495 5.68279 14.6693 5.69294C14.6393 5.69294 14.5992 5.70309 14.5691 5.70309C14.489 5.71323 14.4188 5.72338 14.3387 5.73353C14.3086 5.74368 14.2786 5.74368 14.2485 5.75383C14.1683 5.76398 14.0882 5.78427 14.018 5.80457C13.988 5.81472 13.9679 5.81472 13.9379 5.82487C13.8577 5.84516 13.7776 5.86546 13.6974 5.88576C13.6774 5.8959 13.6573 5.8959 13.6373 5.90605C13.5471 5.9365 13.4669 5.95679 13.3768 5.98724C13.3667 5.99739 13.3467 5.99739 13.3367 6.00754C13.2465 6.03798 13.1563 6.07857 13.0661 6.10902C13.0561 6.10902 13.0461 6.11917 13.0461 6.11917C12.9459 6.15976 12.8457 6.20035 12.7555 6.25109C12.024 6.59614 11.3627 7.08326 10.8216 7.68201C9.61924 6.44391 7.99599 5.67264 6.20241 5.67264C2.78557 5.67264 0 8.48373 0 11.9545V19.586H3.30661V11.9545C3.30661 10.3409 4.60922 9.02159 6.20241 9.02159C7.79559 9.02159 9.0982 10.3409 9.0982 11.9545V19.586H12.4048V11.9545C12.4048 10.625 13.2866 9.49856 14.489 9.14337C14.6192 9.10277 14.7495 9.07233 14.8798 9.05203H14.8898C14.9499 9.04188 15 9.04188 15.0601 9.03174C15.0701 9.03174 15.0902 9.03174 15.1002 9.03174C15.1603 9.03174 15.2305 9.02159 15.2906 9.02159C15.3507 9.02159 15.4208 9.02159 15.481 9.03174C15.491 9.03174 15.511 9.03174 15.521 9.03174C15.5812 9.03174 15.6413 9.04188 15.6914 9.05203H15.7014C15.8317 9.07233 15.9719 9.10277 16.0922 9.14337C17.2946 9.49856 18.1764 10.625 18.1764 11.9545V14.6032V16.1051V19.586H21.483V14.867C23.3768 11.6602 25.2405 9.97553 25.2605 9.95523L25.3307 9.8842C26.8637 8.3315 29.3487 8.3315 30.8818 9.8842C32.4148 11.4369 32.4148 13.9537 30.8818 15.5064C30.1403 16.2573 29.1583 16.6734 28.1062 16.6734C27.0942 16.6734 26.1423 16.2878 25.4108 15.5876L23.477 17.9217L23.7976 18.1957C25.02 19.1801 26.523 19.7179 28.1062 19.7179C29.9599 19.7179 31.6934 18.9872 33.006 17.6578C33.8377 16.8155 34.4188 15.8108 34.7295 14.7351C34.7595 15.5368 35.1703 19.7585 40.9018 19.7179C40.9018 19.7179 42.986 19.7687 44.1884 18.5306V18.9264C44.1884 19.9412 44.0982 21.0271 43.3267 21.7983C42.5852 22.5493 41.6032 22.9654 40.5511 22.9654C39.5391 22.9654 38.5872 22.5798 37.8557 21.8795L35.9218 24.2238L36.2425 24.4978C37.4649 25.4822 38.9679 26.02 40.5511 26.02C42.4048 26.02 44.1383 25.2894 45.4509 23.9599C46.7736 22.6203 47.4549 20.8545 47.475 19.0887V14.7249C49.3387 11.6196 51.1423 9.97553 51.1623 9.95523L51.2325 9.8842C52.7655 8.3315 55.2505 8.3315 56.7836 9.8842C58.3166 11.4369 58.3166 13.9537 56.7836 15.5064C56.0421 16.2573 55.0601 16.6734 54.008 16.6734C52.996 16.6734 52.0441 16.2878 51.3126 15.5876L49.3788 17.9318L49.6994 18.2058C50.9218 19.1902 52.4249 19.7281 54.008 19.7281C55.8617 19.7281 57.5952 18.9974 58.9078 17.668C61.6433 14.9178 61.6433 10.4627 58.9479 7.7226Z" fill="#0196AB"/>
<path d="M64.5374 9.81029V18.9448H63.4915V6.13141H64.5473V8.19862V8.44677L64.6848 8.24017C65.6097 6.84977 67.3554 5.80107 69.4753 5.80107C70.5522 5.80107 71.4285 6.02912 72.1073 6.48049C72.7853 6.93132 73.2727 7.60933 73.5649 8.52181L73.6146 8.67698L73.7002 8.53832C74.675 6.95856 76.5289 5.80107 78.7858 5.80107C80.2171 5.80107 81.3288 6.25811 82.0837 7.11819C82.84 7.97975 83.2475 9.25603 83.2475 10.9114V18.9348H82.1818V11.1617C82.1818 9.33273 81.6667 8.04654 80.8027 7.51461C79.9612 6.96687 79.3245 6.79225 78.4794 6.79225C77.5232 6.79225 76.6188 7.09843 75.7576 7.70692L75.7569 7.70741C74.9182 8.31419 74.2668 9.05415 73.8554 9.90786L73.8472 9.92492L73.8481 9.94384C73.8777 10.5954 73.8974 11.0537 73.8974 11.3018V18.9448H72.8416V11.1417C72.8416 9.70642 72.5385 8.61974 71.9219 7.89116C71.3033 7.16017 70.3799 6.80226 69.1689 6.80226C68.2632 6.80226 67.3693 7.0777 66.4983 7.65564L66.4983 7.65563L66.4973 7.65632C65.6586 8.23272 65.0075 8.92196 64.5465 9.77462L64.5374 9.79131V9.81029Z" fill="#666666" stroke="#666666" stroke-width="0.15"/>
<path d="M96.967 17.3062L96.9668 17.3064C95.7274 18.621 94.1369 19.2649 92.1388 19.2649C90.1405 19.2649 88.5302 18.6209 87.2809 17.3062C86.0297 15.9894 85.4236 14.4066 85.4236 12.5529C85.4236 10.6992 86.0297 9.11631 87.2809 7.79958C88.5308 6.48427 90.1414 5.81084 92.1388 5.81084C94.1358 5.81084 95.7169 6.48403 96.967 7.79958C98.2188 9.11692 98.854 10.7 98.854 12.5529C98.854 14.4057 98.2188 15.9888 96.967 17.3062ZM88.1121 8.45601L88.1121 8.456L88.1114 8.45675C87.0497 9.56254 86.5091 10.9328 86.5091 12.5529C86.5091 14.1727 87.0495 15.5532 88.1117 16.6492L88.1129 16.6505C89.2046 17.7257 90.5381 18.2737 92.1388 18.2737C93.7393 18.2737 95.0734 17.7258 96.1358 16.6497C97.2278 15.5437 97.7685 14.173 97.7685 12.5529C97.7685 10.9332 97.2281 9.55242 96.1361 8.45627C95.0735 7.34988 93.7392 6.80202 92.1388 6.80202C90.538 6.80202 89.204 7.35014 88.1121 8.45601Z" fill="#666666" stroke="#666666" stroke-width="0.15"/>
<path d="M112.013 8.41238L112.149 8.60166V8.36863V0.075H113.205V18.9346H112.149V16.7273V16.4964L112.014 16.6832C110.763 18.4043 109.047 19.2549 106.786 19.2549L106.786 19.2549C104.868 19.2648 103.308 18.6215 102.118 17.3076C100.925 15.9908 100.338 14.4074 100.338 12.5529C100.338 10.6985 100.925 9.11508 102.118 7.79834C103.308 6.48377 104.869 5.81091 106.786 5.81091C109.017 5.81091 110.763 6.67137 112.013 8.41238ZM112.133 15.0259L112.139 15.0113V14.9955V10.1104V10.094L112.133 10.0791C111.261 8.18098 109.198 6.80209 106.994 6.80209C105.393 6.80209 104.059 7.35012 102.996 8.45683C101.934 9.56333 101.424 10.934 101.424 12.5529C101.424 14.172 101.944 15.5526 102.996 16.6491L102.997 16.6498C104.059 17.7259 105.394 18.2738 106.994 18.2738C109.257 18.2738 111.29 16.9257 112.133 15.0259Z" fill="#666666" stroke="#666666" stroke-width="0.15"/>
<path d="M121.177 6.79225C119.673 6.79225 118.254 7.23213 116.903 8.10932V7.04808C118.168 6.23034 119.674 5.80107 121.385 5.80107C123.035 5.80107 124.405 6.19159 125.36 6.96437C126.314 7.73523 126.865 8.89366 126.865 10.4509V16.2169C126.865 16.7835 127 17.2637 127.254 17.6043C127.508 17.947 127.879 18.1438 128.333 18.1438C128.591 18.1438 128.809 18.1069 129.009 18.0253V18.8658C128.788 18.9841 128.46 19.0549 128.037 19.0549C127.475 19.0549 126.971 18.8705 126.594 18.5089C126.216 18.1474 125.961 17.6029 125.907 16.8721L125.894 16.6877L125.775 16.8294C124.397 18.4728 122.59 19.2751 120.337 19.2751C119.029 19.2652 117.898 18.8898 116.913 18.1692C115.965 17.4238 115.49 16.4155 115.49 15.1057C115.49 13.8476 115.993 12.8385 116.963 12.092L116.963 12.0918C117.966 11.3133 119.213 10.9364 120.723 10.9364C122.508 10.9364 124.184 11.3933 125.694 12.3364L125.809 12.4081V12.2728V10.5611C125.809 9.2918 125.387 8.34441 124.588 7.71672C123.792 7.09153 122.634 6.79225 121.177 6.79225ZM125.804 15.661L125.819 15.6411V15.6163V13.4741V13.4335L125.785 13.4113C124.243 12.4039 122.677 11.8775 121.049 11.8775C119.684 11.8775 118.575 12.1926 117.805 12.7514C117.033 13.3118 116.605 14.1148 116.605 15.0757C116.605 16.1461 117.059 16.9495 117.803 17.4828C118.543 18.014 119.566 18.2739 120.703 18.2739C122.875 18.2739 124.744 17.0884 125.804 15.661Z" fill="#666666" stroke="#666666" stroke-width="0.15"/>
</g>
<defs>
<clipPath id="clip0">
<rect width="130" height="26" fill="white"/>
</clipPath>
</defs>
</svg>
